%TF.GenerationSoftware,KiCad,Pcbnew,7.0.7*%
%TF.CreationDate,2023-10-30T22:19:44-06:00*%
%TF.ProjectId,bitaxeHex,62697461-7865-4486-9578-2e6b69636164,0.9*%
%TF.SameCoordinates,Original*%
%TF.FileFunction,Paste,Bot*%
%TF.FilePolarity,Positive*%
%FSLAX46Y46*%
G04 Gerber Fmt 4.6, Leading zero omitted, Abs format (unit mm)*
G04 Created by KiCad (PCBNEW 7.0.7) date 2023-10-30 22:19:44*
%MOMM*%
%LPD*%
G01*
G04 APERTURE LIST*
G04 Aperture macros list*
%AMRoundRect*
0 Rectangle with rounded corners*
0 $1 Rounding radius*
0 $2 $3 $4 $5 $6 $7 $8 $9 X,Y pos of 4 corners*
0 Add a 4 corners polygon primitive as box body*
4,1,4,$2,$3,$4,$5,$6,$7,$8,$9,$2,$3,0*
0 Add four circle primitives for the rounded corners*
1,1,$1+$1,$2,$3*
1,1,$1+$1,$4,$5*
1,1,$1+$1,$6,$7*
1,1,$1+$1,$8,$9*
0 Add four rect primitives between the rounded corners*
20,1,$1+$1,$2,$3,$4,$5,0*
20,1,$1+$1,$4,$5,$6,$7,0*
20,1,$1+$1,$6,$7,$8,$9,0*
20,1,$1+$1,$8,$9,$2,$3,0*%
G04 Aperture macros list end*
%ADD10C,0.100000*%
%ADD11C,0.001000*%
%ADD12R,0.762000X0.990600*%
%ADD13RoundRect,0.135000X0.135000X0.185000X-0.135000X0.185000X-0.135000X-0.185000X0.135000X-0.185000X0*%
%ADD14RoundRect,0.140000X0.170000X-0.140000X0.170000X0.140000X-0.170000X0.140000X-0.170000X-0.140000X0*%
%ADD15RoundRect,0.250000X-0.325000X-0.650000X0.325000X-0.650000X0.325000X0.650000X-0.325000X0.650000X0*%
%ADD16RoundRect,0.140000X-0.170000X0.140000X-0.170000X-0.140000X0.170000X-0.140000X0.170000X0.140000X0*%
%ADD17RoundRect,0.140000X0.140000X0.170000X-0.140000X0.170000X-0.140000X-0.170000X0.140000X-0.170000X0*%
%ADD18RoundRect,0.135000X0.185000X-0.135000X0.185000X0.135000X-0.185000X0.135000X-0.185000X-0.135000X0*%
%ADD19RoundRect,0.250000X0.475000X-0.250000X0.475000X0.250000X-0.475000X0.250000X-0.475000X-0.250000X0*%
%ADD20RoundRect,0.250000X-0.875000X-1.025000X0.875000X-1.025000X0.875000X1.025000X-0.875000X1.025000X0*%
%ADD21RoundRect,0.140000X-0.140000X-0.170000X0.140000X-0.170000X0.140000X0.170000X-0.140000X0.170000X0*%
%ADD22RoundRect,0.150000X0.512500X0.150000X-0.512500X0.150000X-0.512500X-0.150000X0.512500X-0.150000X0*%
%ADD23RoundRect,0.135000X-0.135000X-0.185000X0.135000X-0.185000X0.135000X0.185000X-0.135000X0.185000X0*%
%ADD24RoundRect,0.250000X-0.650000X-2.450000X0.650000X-2.450000X0.650000X2.450000X-0.650000X2.450000X0*%
%ADD25R,0.650000X1.560000*%
%ADD26RoundRect,0.250000X-0.312500X-0.625000X0.312500X-0.625000X0.312500X0.625000X-0.312500X0.625000X0*%
%ADD27RoundRect,0.135000X-0.185000X0.135000X-0.185000X-0.135000X0.185000X-0.135000X0.185000X0.135000X0*%
%ADD28RoundRect,0.100000X0.100000X-0.637500X0.100000X0.637500X-0.100000X0.637500X-0.100000X-0.637500X0*%
%ADD29R,0.558800X0.952500*%
%ADD30R,3.700000X2.420000*%
%ADD31RoundRect,0.250000X0.250000X0.475000X-0.250000X0.475000X-0.250000X-0.475000X0.250000X-0.475000X0*%
%ADD32R,1.300000X1.100000*%
%ADD33R,1.400000X0.300000*%
%ADD34RoundRect,0.250000X-0.362500X-1.425000X0.362500X-1.425000X0.362500X1.425000X-0.362500X1.425000X0*%
%ADD35RoundRect,0.250000X-0.250000X-0.475000X0.250000X-0.475000X0.250000X0.475000X-0.250000X0.475000X0*%
%ADD36R,0.650000X0.630000*%
%ADD37RoundRect,0.250000X1.425000X-0.362500X1.425000X0.362500X-1.425000X0.362500X-1.425000X-0.362500X0*%
%ADD38RoundRect,0.250000X0.362500X1.425000X-0.362500X1.425000X-0.362500X-1.425000X0.362500X-1.425000X0*%
%ADD39R,1.100000X1.300000*%
%ADD40RoundRect,0.250000X2.050000X0.300000X-2.050000X0.300000X-2.050000X-0.300000X2.050000X-0.300000X0*%
%ADD41RoundRect,0.250000X2.025000X2.375000X-2.025000X2.375000X-2.025000X-2.375000X2.025000X-2.375000X0*%
%ADD42RoundRect,0.050000X-0.250000X-0.070000X0.250000X-0.070000X0.250000X0.070000X-0.250000X0.070000X0*%
G04 APERTURE END LIST*
%TO.C,Q3*%
D10*
X79250000Y-65138293D02*
X77550000Y-65138293D01*
X77550000Y-63938293D01*
X79250000Y-63938293D01*
X79250000Y-65138293D01*
G36*
X79250000Y-65138293D02*
G01*
X77550000Y-65138293D01*
X77550000Y-63938293D01*
X79250000Y-63938293D01*
X79250000Y-65138293D01*
G37*
X76850000Y-65138293D02*
X75150000Y-65138293D01*
X75150000Y-63938293D01*
X76850000Y-63938293D01*
X76850000Y-65138293D01*
G36*
X76850000Y-65138293D02*
G01*
X75150000Y-65138293D01*
X75150000Y-63938293D01*
X76850000Y-63938293D01*
X76850000Y-65138293D01*
G37*
X79250000Y-63488293D02*
X77550000Y-63488293D01*
X77550000Y-62288293D01*
X79250000Y-62288293D01*
X79250000Y-63488293D01*
G36*
X79250000Y-63488293D02*
G01*
X77550000Y-63488293D01*
X77550000Y-62288293D01*
X79250000Y-62288293D01*
X79250000Y-63488293D01*
G37*
X76850000Y-63488293D02*
X75150000Y-63488293D01*
X75150000Y-62288293D01*
X76850000Y-62288293D01*
X76850000Y-63488293D01*
G36*
X76850000Y-63488293D02*
G01*
X75150000Y-63488293D01*
X75150000Y-62288293D01*
X76850000Y-62288293D01*
X76850000Y-63488293D01*
G37*
%TO.C,Q1*%
X72250000Y-65150000D02*
X70550000Y-65150000D01*
X70550000Y-63950000D01*
X72250000Y-63950000D01*
X72250000Y-65150000D01*
G36*
X72250000Y-65150000D02*
G01*
X70550000Y-65150000D01*
X70550000Y-63950000D01*
X72250000Y-63950000D01*
X72250000Y-65150000D01*
G37*
X69850000Y-65150000D02*
X68150000Y-65150000D01*
X68150000Y-63950000D01*
X69850000Y-63950000D01*
X69850000Y-65150000D01*
G36*
X69850000Y-65150000D02*
G01*
X68150000Y-65150000D01*
X68150000Y-63950000D01*
X69850000Y-63950000D01*
X69850000Y-65150000D01*
G37*
X72250000Y-63500000D02*
X70550000Y-63500000D01*
X70550000Y-62300000D01*
X72250000Y-62300000D01*
X72250000Y-63500000D01*
G36*
X72250000Y-63500000D02*
G01*
X70550000Y-63500000D01*
X70550000Y-62300000D01*
X72250000Y-62300000D01*
X72250000Y-63500000D01*
G37*
X69850000Y-63500000D02*
X68150000Y-63500000D01*
X68150000Y-62300000D01*
X69850000Y-62300000D01*
X69850000Y-63500000D01*
G36*
X69850000Y-63500000D02*
G01*
X68150000Y-63500000D01*
X68150000Y-62300000D01*
X69850000Y-62300000D01*
X69850000Y-63500000D01*
G37*
%TO.C,Q2*%
G36*
X69890120Y-74215034D02*
G01*
X68320400Y-74215034D01*
X68320400Y-72980086D01*
X69890120Y-72980086D01*
X69890120Y-74215034D01*
G37*
G36*
X72079600Y-74215034D02*
G01*
X70509880Y-74215034D01*
X70509880Y-72980086D01*
X72079600Y-72980086D01*
X72079600Y-74215034D01*
G37*
G36*
X69890120Y-72479960D02*
G01*
X68320400Y-72479960D01*
X68320400Y-70895000D01*
X69890120Y-70895000D01*
X69890120Y-72479960D01*
G37*
G36*
X72079600Y-72479960D02*
G01*
X70509880Y-72479960D01*
X70509880Y-70895000D01*
X72079600Y-70895000D01*
X72079600Y-72479960D01*
G37*
%TO.C,U4*%
D11*
X61530000Y-67937000D02*
X61280000Y-67937000D01*
X61280000Y-67642000D01*
X61530000Y-67642000D01*
X61530000Y-67937000D01*
G36*
X61530000Y-67937000D02*
G01*
X61280000Y-67937000D01*
X61280000Y-67642000D01*
X61530000Y-67642000D01*
X61530000Y-67937000D01*
G37*
X61530000Y-71042000D02*
X61280000Y-71042000D01*
X61280000Y-70747000D01*
X61530000Y-70747000D01*
X61530000Y-71042000D01*
G36*
X61530000Y-71042000D02*
G01*
X61280000Y-71042000D01*
X61280000Y-70747000D01*
X61530000Y-70747000D01*
X61530000Y-71042000D01*
G37*
X62030000Y-67937000D02*
X61780000Y-67937000D01*
X61780000Y-67642000D01*
X62030000Y-67642000D01*
X62030000Y-67937000D01*
G36*
X62030000Y-67937000D02*
G01*
X61780000Y-67937000D01*
X61780000Y-67642000D01*
X62030000Y-67642000D01*
X62030000Y-67937000D01*
G37*
X62030000Y-71042000D02*
X61780000Y-71042000D01*
X61780000Y-70747000D01*
X62030000Y-70747000D01*
X62030000Y-71042000D01*
G36*
X62030000Y-71042000D02*
G01*
X61780000Y-71042000D01*
X61780000Y-70747000D01*
X62030000Y-70747000D01*
X62030000Y-71042000D01*
G37*
X62250000Y-70367000D02*
X61040000Y-70372000D01*
X61040000Y-69442000D01*
X62250000Y-69437000D01*
X62250000Y-70367000D01*
G36*
X62250000Y-70367000D02*
G01*
X61040000Y-70372000D01*
X61040000Y-69442000D01*
X62250000Y-69437000D01*
X62250000Y-70367000D01*
G37*
X62255000Y-69242000D02*
X61045000Y-69247000D01*
X61045000Y-68317000D01*
X62255000Y-68312000D01*
X62255000Y-69242000D01*
G36*
X62255000Y-69242000D02*
G01*
X61045000Y-69247000D01*
X61045000Y-68317000D01*
X62255000Y-68312000D01*
X62255000Y-69242000D01*
G37*
%TO.C,Q4*%
G36*
X76690120Y-74215034D02*
G01*
X75120400Y-74215034D01*
X75120400Y-72980086D01*
X76690120Y-72980086D01*
X76690120Y-74215034D01*
G37*
G36*
X78879600Y-74215034D02*
G01*
X77309880Y-74215034D01*
X77309880Y-72980086D01*
X78879600Y-72980086D01*
X78879600Y-74215034D01*
G37*
G36*
X76690120Y-72479960D02*
G01*
X75120400Y-72479960D01*
X75120400Y-70895000D01*
X76690120Y-70895000D01*
X76690120Y-72479960D01*
G37*
G36*
X78879600Y-72479960D02*
G01*
X77309880Y-72479960D01*
X77309880Y-70895000D01*
X78879600Y-70895000D01*
X78879600Y-72479960D01*
G37*
%TD*%
D12*
%TO.C,Q3*%
X79105000Y-66983294D03*
X77835000Y-66983294D03*
X76565000Y-66983294D03*
X75295000Y-66983294D03*
X79105000Y-61488298D03*
X75295000Y-61488298D03*
%TD*%
%TO.C,Q1*%
X72105000Y-66995001D03*
X70835000Y-66995001D03*
X69565000Y-66995001D03*
X68295000Y-66995001D03*
X72105000Y-61500005D03*
X68295000Y-61500005D03*
%TD*%
D13*
%TO.C,R36*%
X70010000Y-99500000D03*
X68990000Y-99500000D03*
%TD*%
D14*
%TO.C,C48*%
X98250000Y-103730000D03*
X98250000Y-102770000D03*
%TD*%
D15*
%TO.C,C21*%
X92125000Y-76000000D03*
X95075000Y-76000000D03*
%TD*%
D16*
%TO.C,C44*%
X97800000Y-90420000D03*
X97800000Y-91380000D03*
%TD*%
D17*
%TO.C,C104*%
X71680000Y-118000000D03*
X70720000Y-118000000D03*
%TD*%
D14*
%TO.C,C97*%
X69400000Y-131580000D03*
X69400000Y-130620000D03*
%TD*%
D18*
%TO.C,R63*%
X53600000Y-109610000D03*
X53600000Y-108590000D03*
%TD*%
D19*
%TO.C,C7*%
X58099000Y-69088000D03*
X58099000Y-67188000D03*
%TD*%
D20*
%TO.C,C150*%
X89800000Y-168300000D03*
X96200000Y-168300000D03*
%TD*%
D18*
%TO.C,R7*%
X59600000Y-74310000D03*
X59600000Y-73290000D03*
%TD*%
D21*
%TO.C,C147*%
X111220000Y-162100000D03*
X112180000Y-162100000D03*
%TD*%
D14*
%TO.C,C122*%
X100500000Y-159660000D03*
X100500000Y-158700000D03*
%TD*%
D22*
%TO.C,U25*%
X94837500Y-145350000D03*
X94837500Y-146300000D03*
X94837500Y-147250000D03*
X92562500Y-147250000D03*
X92562500Y-145350000D03*
%TD*%
D18*
%TO.C,R50*%
X65630000Y-114130000D03*
X65630000Y-113110000D03*
%TD*%
D23*
%TO.C,R54*%
X89790000Y-118300000D03*
X90810000Y-118300000D03*
%TD*%
D14*
%TO.C,C83*%
X86700000Y-130980000D03*
X86700000Y-130020000D03*
%TD*%
D17*
%TO.C,C60*%
X74480000Y-104200000D03*
X73520000Y-104200000D03*
%TD*%
D24*
%TO.C,C1*%
X83650000Y-50600000D03*
X88750000Y-50600000D03*
%TD*%
D14*
%TO.C,C123*%
X99300000Y-158660000D03*
X99300000Y-157700000D03*
%TD*%
D18*
%TO.C,R103*%
X131180000Y-137130000D03*
X131180000Y-136110000D03*
%TD*%
D13*
%TO.C,R92*%
X87110000Y-153800000D03*
X86090000Y-153800000D03*
%TD*%
D18*
%TO.C,R93*%
X118230000Y-137100000D03*
X118230000Y-136080000D03*
%TD*%
D25*
%TO.C,U5*%
X126350000Y-70950000D03*
X127300000Y-70950000D03*
X128250000Y-70950000D03*
X128250000Y-73650000D03*
X126350000Y-73650000D03*
%TD*%
D16*
%TO.C,C136*%
X128680000Y-138440000D03*
X128680000Y-139400000D03*
%TD*%
%TO.C,C72*%
X64330000Y-113160000D03*
X64330000Y-114120000D03*
%TD*%
D17*
%TO.C,C58*%
X82980000Y-90100000D03*
X82020000Y-90100000D03*
%TD*%
D26*
%TO.C,R1*%
X77837500Y-52800000D03*
X80762500Y-52800000D03*
%TD*%
D27*
%TO.C,R65*%
X58300000Y-105377500D03*
X58300000Y-106397500D03*
%TD*%
D14*
%TO.C,C3*%
X71500000Y-80780000D03*
X71500000Y-79820000D03*
%TD*%
D16*
%TO.C,C79*%
X88200000Y-112120000D03*
X88200000Y-113080000D03*
%TD*%
D17*
%TO.C,C82*%
X101380000Y-118500000D03*
X100420000Y-118500000D03*
%TD*%
D21*
%TO.C,C27*%
X125220000Y-83400000D03*
X126180000Y-83400000D03*
%TD*%
D17*
%TO.C,C43*%
X112680000Y-102800000D03*
X111720000Y-102800000D03*
%TD*%
D13*
%TO.C,R70*%
X87710000Y-122600000D03*
X86690000Y-122600000D03*
%TD*%
%TO.C,R91*%
X99810000Y-156400000D03*
X98790000Y-156400000D03*
%TD*%
%TO.C,R37*%
X70010000Y-95000000D03*
X68990000Y-95000000D03*
%TD*%
D14*
%TO.C,C50*%
X97000000Y-102730000D03*
X97000000Y-101770000D03*
%TD*%
%TO.C,C105*%
X68200000Y-128600000D03*
X68200000Y-127640000D03*
%TD*%
D13*
%TO.C,R38*%
X101010000Y-93570000D03*
X99990000Y-93570000D03*
%TD*%
D28*
%TO.C,U7*%
X122975000Y-86762500D03*
X122325000Y-86762500D03*
X121675000Y-86762500D03*
X121025000Y-86762500D03*
X120375000Y-86762500D03*
X119725000Y-86762500D03*
X119075000Y-86762500D03*
X118425000Y-86762500D03*
X118425000Y-81037500D03*
X119075000Y-81037500D03*
X119725000Y-81037500D03*
X120375000Y-81037500D03*
X121025000Y-81037500D03*
X121675000Y-81037500D03*
X122325000Y-81037500D03*
X122975000Y-81037500D03*
%TD*%
D17*
%TO.C,C133*%
X71160000Y-159800000D03*
X70200000Y-159800000D03*
%TD*%
D13*
%TO.C,R67*%
X87710000Y-123700000D03*
X86690000Y-123700000D03*
%TD*%
D16*
%TO.C,C102*%
X64330000Y-110890000D03*
X64330000Y-111850000D03*
%TD*%
D14*
%TO.C,C81*%
X88000000Y-132080000D03*
X88000000Y-131120000D03*
%TD*%
D22*
%TO.C,U15*%
X94737500Y-85350000D03*
X94737500Y-86300000D03*
X94737500Y-87250000D03*
X92462500Y-87250000D03*
X92462500Y-85350000D03*
%TD*%
D14*
%TO.C,C139*%
X68980000Y-157780000D03*
X68980000Y-156820000D03*
%TD*%
D16*
%TO.C,C74*%
X97500000Y-116320000D03*
X97500000Y-117280000D03*
%TD*%
%TO.C,C56*%
X85400000Y-91270000D03*
X85400000Y-92230000D03*
%TD*%
D27*
%TO.C,R95*%
X122880000Y-132400000D03*
X122880000Y-133420000D03*
%TD*%
D13*
%TO.C,R6*%
X65710000Y-74000000D03*
X64690000Y-74000000D03*
%TD*%
%TO.C,R61*%
X101010000Y-124900000D03*
X99990000Y-124900000D03*
%TD*%
%TO.C,R23*%
X99050000Y-147580000D03*
X98030000Y-147580000D03*
%TD*%
D16*
%TO.C,C65*%
X69750000Y-89500000D03*
X69750000Y-90460000D03*
%TD*%
D14*
%TO.C,C99*%
X68200000Y-130580000D03*
X68200000Y-129620000D03*
%TD*%
D16*
%TO.C,C78*%
X88000000Y-117320000D03*
X88000000Y-118280000D03*
%TD*%
D23*
%TO.C,R32*%
X68610000Y-145870000D03*
X69630000Y-145870000D03*
%TD*%
D16*
%TO.C,C121*%
X88000000Y-140520000D03*
X88000000Y-141480000D03*
%TD*%
%TO.C,C55*%
X87000000Y-100750000D03*
X87000000Y-101710000D03*
%TD*%
%TO.C,C103*%
X56030000Y-110880000D03*
X56030000Y-111840000D03*
%TD*%
%TO.C,C13*%
X79000000Y-83420000D03*
X79000000Y-84380000D03*
%TD*%
%TO.C,C57*%
X88250000Y-101790000D03*
X88250000Y-102750000D03*
%TD*%
D14*
%TO.C,C96*%
X64330000Y-109600000D03*
X64330000Y-108640000D03*
%TD*%
D27*
%TO.C,R75*%
X65630000Y-108610000D03*
X65630000Y-109630000D03*
%TD*%
D14*
%TO.C,C94*%
X79800000Y-136880000D03*
X79800000Y-135920000D03*
%TD*%
D17*
%TO.C,C138*%
X71480000Y-146900000D03*
X70520000Y-146900000D03*
%TD*%
%TO.C,C116*%
X103580000Y-160700000D03*
X102620000Y-160700000D03*
%TD*%
D23*
%TO.C,R55*%
X89990000Y-113100000D03*
X91010000Y-113100000D03*
%TD*%
D13*
%TO.C,R39*%
X70010000Y-98250000D03*
X68990000Y-98250000D03*
%TD*%
D17*
%TO.C,C109*%
X112880000Y-146800000D03*
X111920000Y-146800000D03*
%TD*%
%TO.C,C128*%
X85180000Y-160620000D03*
X84220000Y-160620000D03*
%TD*%
D14*
%TO.C,C141*%
X81200000Y-108880000D03*
X81200000Y-107920000D03*
%TD*%
D16*
%TO.C,C86*%
X100400000Y-129040000D03*
X100400000Y-130000000D03*
%TD*%
D28*
%TO.C,U23*%
X126730000Y-141762500D03*
X126080000Y-141762500D03*
X125430000Y-141762500D03*
X124780000Y-141762500D03*
X124130000Y-141762500D03*
X123480000Y-141762500D03*
X122830000Y-141762500D03*
X122830000Y-136037500D03*
X123480000Y-136037500D03*
X124130000Y-136037500D03*
X124780000Y-136037500D03*
X125430000Y-136037500D03*
X126080000Y-136037500D03*
X126730000Y-136037500D03*
%TD*%
%TO.C,U18*%
X62150000Y-114250000D03*
X61500000Y-114250000D03*
X60850000Y-114250000D03*
X60200000Y-114250000D03*
X59550000Y-114250000D03*
X58900000Y-114250000D03*
X58250000Y-114250000D03*
X58250000Y-108525000D03*
X58900000Y-108525000D03*
X59550000Y-108525000D03*
X60200000Y-108525000D03*
X60850000Y-108525000D03*
X61500000Y-108525000D03*
X62150000Y-108525000D03*
%TD*%
D29*
%TO.C,U2*%
X77339800Y-84877950D03*
X76400000Y-84877950D03*
X75460200Y-84877950D03*
X75460200Y-82122050D03*
X77339800Y-82122050D03*
%TD*%
D18*
%TO.C,R10*%
X60400000Y-65710000D03*
X60400000Y-64690000D03*
%TD*%
D21*
%TO.C,C151*%
X111320000Y-144500000D03*
X112280000Y-144500000D03*
%TD*%
D14*
%TO.C,C143*%
X79700000Y-108880000D03*
X79700000Y-107920000D03*
%TD*%
D17*
%TO.C,C146*%
X74180000Y-162500000D03*
X73220000Y-162500000D03*
%TD*%
D16*
%TO.C,C120*%
X88300000Y-145720000D03*
X88300000Y-146680000D03*
%TD*%
D23*
%TO.C,R25*%
X89190000Y-87600000D03*
X90210000Y-87600000D03*
%TD*%
D30*
%TO.C,L1*%
X85200000Y-69180000D03*
X85200000Y-76420000D03*
%TD*%
D16*
%TO.C,C124*%
X86500000Y-157320000D03*
X86500000Y-158280000D03*
%TD*%
D13*
%TO.C,R30*%
X99910000Y-97800000D03*
X98890000Y-97800000D03*
%TD*%
D17*
%TO.C,C132*%
X73160000Y-159800000D03*
X72200000Y-159800000D03*
%TD*%
D23*
%TO.C,R109*%
X116990000Y-152600000D03*
X118010000Y-152600000D03*
%TD*%
D16*
%TO.C,C108*%
X115900000Y-157140000D03*
X115900000Y-158100000D03*
%TD*%
D21*
%TO.C,C68*%
X114220000Y-118500000D03*
X115180000Y-118500000D03*
%TD*%
D17*
%TO.C,C70*%
X112980000Y-118500000D03*
X112020000Y-118500000D03*
%TD*%
D23*
%TO.C,R19*%
X94690000Y-50300000D03*
X95710000Y-50300000D03*
%TD*%
D21*
%TO.C,C149*%
X111220000Y-163500000D03*
X112180000Y-163500000D03*
%TD*%
D31*
%TO.C,C15*%
X65350000Y-72400000D03*
X63450000Y-72400000D03*
%TD*%
D18*
%TO.C,R22*%
X118800000Y-100810000D03*
X118800000Y-99790000D03*
%TD*%
D27*
%TO.C,R105*%
X126630000Y-132400000D03*
X126630000Y-133420000D03*
%TD*%
D20*
%TO.C,C145*%
X89400000Y-107700000D03*
X95800000Y-107700000D03*
%TD*%
D14*
%TO.C,C84*%
X88000000Y-129980000D03*
X88000000Y-129020000D03*
%TD*%
D16*
%TO.C,C38*%
X117500000Y-99790000D03*
X117500000Y-100750000D03*
%TD*%
D18*
%TO.C,R81*%
X129930000Y-141730000D03*
X129930000Y-140710000D03*
%TD*%
D14*
%TO.C,C101*%
X69400000Y-129580000D03*
X69400000Y-128620000D03*
%TD*%
%TO.C,C95*%
X106500000Y-138580000D03*
X106500000Y-137620000D03*
%TD*%
D27*
%TO.C,R64*%
X59600000Y-105390000D03*
X59600000Y-106410000D03*
%TD*%
D14*
%TO.C,C135*%
X70180000Y-158680000D03*
X70180000Y-157720000D03*
%TD*%
D16*
%TO.C,C54*%
X88250000Y-99790000D03*
X88250000Y-100750000D03*
%TD*%
D17*
%TO.C,C140*%
X74380000Y-116000000D03*
X73420000Y-116000000D03*
%TD*%
D15*
%TO.C,C20*%
X92125000Y-73600000D03*
X95075000Y-73600000D03*
%TD*%
D13*
%TO.C,R97*%
X99810000Y-151700000D03*
X98790000Y-151700000D03*
%TD*%
D18*
%TO.C,R84*%
X122880000Y-145400000D03*
X122880000Y-144380000D03*
%TD*%
D32*
%TO.C,U17*%
X122450000Y-105250000D03*
X120150000Y-105250000D03*
X120150000Y-103350000D03*
X122450000Y-103350000D03*
%TD*%
D27*
%TO.C,R44*%
X66880000Y-113110000D03*
X66880000Y-114130000D03*
%TD*%
D16*
%TO.C,C45*%
X96800000Y-85320000D03*
X96800000Y-86280000D03*
%TD*%
D18*
%TO.C,R83*%
X124130000Y-145400000D03*
X124130000Y-144380000D03*
%TD*%
%TO.C,R72*%
X66880000Y-109630000D03*
X66880000Y-108610000D03*
%TD*%
D13*
%TO.C,R101*%
X99810000Y-150500000D03*
X98790000Y-150500000D03*
%TD*%
D33*
%TO.C,U12*%
X107800000Y-84500000D03*
X107800000Y-84000000D03*
X107800000Y-83500000D03*
X107800000Y-83000000D03*
X107800000Y-82500000D03*
X112200000Y-82500000D03*
X112200000Y-83000000D03*
X112200000Y-83500000D03*
X112200000Y-84000000D03*
X112200000Y-84500000D03*
%TD*%
D13*
%TO.C,R96*%
X99810000Y-154000000D03*
X98790000Y-154000000D03*
%TD*%
D21*
%TO.C,C46*%
X103320000Y-90500000D03*
X104280000Y-90500000D03*
%TD*%
D13*
%TO.C,R18*%
X99810000Y-50300000D03*
X98790000Y-50300000D03*
%TD*%
D34*
%TO.C,R99*%
X106637500Y-166400000D03*
X112562500Y-166400000D03*
%TD*%
D13*
%TO.C,R28*%
X90210000Y-85300000D03*
X89190000Y-85300000D03*
%TD*%
D22*
%TO.C,U21*%
X95437500Y-111150000D03*
X95437500Y-112100000D03*
X95437500Y-113050000D03*
X93162500Y-113050000D03*
X93162500Y-111150000D03*
%TD*%
D16*
%TO.C,C114*%
X96900000Y-140020000D03*
X96900000Y-140980000D03*
%TD*%
D21*
%TO.C,C107*%
X114020000Y-146800000D03*
X114980000Y-146800000D03*
%TD*%
D13*
%TO.C,R27*%
X91810000Y-90600000D03*
X90790000Y-90600000D03*
%TD*%
D35*
%TO.C,C23*%
X108250000Y-49100000D03*
X110150000Y-49100000D03*
%TD*%
D27*
%TO.C,R77*%
X64400000Y-103490000D03*
X64400000Y-104510000D03*
%TD*%
D17*
%TO.C,C41*%
X112680000Y-90400000D03*
X111720000Y-90400000D03*
%TD*%
%TO.C,C10*%
X58280000Y-70800000D03*
X57320000Y-70800000D03*
%TD*%
D13*
%TO.C,R17*%
X69010000Y-123300000D03*
X67990000Y-123300000D03*
%TD*%
%TO.C,R41*%
X70010000Y-93750000D03*
X68990000Y-93750000D03*
%TD*%
D14*
%TO.C,C66*%
X69000000Y-102230000D03*
X69000000Y-101270000D03*
%TD*%
D16*
%TO.C,C12*%
X65100000Y-90320000D03*
X65100000Y-91280000D03*
%TD*%
D22*
%TO.C,U26*%
X94937500Y-140050000D03*
X94937500Y-141000000D03*
X94937500Y-141950000D03*
X92662500Y-141950000D03*
X92662500Y-140050000D03*
%TD*%
D14*
%TO.C,C131*%
X128680000Y-137100000D03*
X128680000Y-136140000D03*
%TD*%
D27*
%TO.C,R14*%
X116500000Y-79790000D03*
X116500000Y-80810000D03*
%TD*%
D21*
%TO.C,C87*%
X84220000Y-118100000D03*
X85180000Y-118100000D03*
%TD*%
%TO.C,C77*%
X84720000Y-132120000D03*
X85680000Y-132120000D03*
%TD*%
%TO.C,C100*%
X73020000Y-118100000D03*
X73980000Y-118100000D03*
%TD*%
D32*
%TO.C,U8*%
X71750000Y-115950000D03*
X69450000Y-115950000D03*
X69450000Y-114050000D03*
X71750000Y-114050000D03*
%TD*%
D16*
%TO.C,C117*%
X120730000Y-140710000D03*
X120730000Y-141670000D03*
%TD*%
D27*
%TO.C,R73*%
X60900000Y-105377500D03*
X60900000Y-106397500D03*
%TD*%
%TO.C,R102*%
X119480000Y-136080000D03*
X119480000Y-137100000D03*
%TD*%
D18*
%TO.C,R80*%
X126630000Y-145400000D03*
X126630000Y-144380000D03*
%TD*%
%TO.C,R78*%
X129980000Y-139410000D03*
X129980000Y-138390000D03*
%TD*%
D14*
%TO.C,C53*%
X98250000Y-101730000D03*
X98250000Y-100770000D03*
%TD*%
D16*
%TO.C,C14*%
X66200000Y-67920000D03*
X66200000Y-68880000D03*
%TD*%
D21*
%TO.C,C134*%
X73220000Y-146900000D03*
X74180000Y-146900000D03*
%TD*%
D36*
%TO.C,Q2*%
X72105000Y-75535072D03*
X70835000Y-75535072D03*
X69565000Y-75535072D03*
X68295000Y-75535072D03*
X68295000Y-70064928D03*
X69565000Y-70064928D03*
X70835000Y-70064928D03*
X72105000Y-70064928D03*
%TD*%
D16*
%TO.C,C80*%
X56030000Y-113130000D03*
X56030000Y-114090000D03*
%TD*%
D14*
%TO.C,C64*%
X70250000Y-103230000D03*
X70250000Y-102270000D03*
%TD*%
D23*
%TO.C,R87*%
X89690000Y-142200000D03*
X90710000Y-142200000D03*
%TD*%
D17*
%TO.C,C118*%
X101480000Y-160700000D03*
X100520000Y-160700000D03*
%TD*%
D13*
%TO.C,R66*%
X87610000Y-125300000D03*
X86590000Y-125300000D03*
%TD*%
%TO.C,R33*%
X101010000Y-94800000D03*
X99990000Y-94800000D03*
%TD*%
D37*
%TO.C,R62*%
X76700000Y-141862500D03*
X76700000Y-135937500D03*
%TD*%
D21*
%TO.C,C39*%
X115270000Y-91500000D03*
X116230000Y-91500000D03*
%TD*%
D16*
%TO.C,C52*%
X87300000Y-85520000D03*
X87300000Y-86480000D03*
%TD*%
D38*
%TO.C,R98*%
X78562500Y-166800000D03*
X72637500Y-166800000D03*
%TD*%
D16*
%TO.C,C67*%
X117000000Y-128300000D03*
X117000000Y-129260000D03*
%TD*%
%TO.C,C125*%
X85200000Y-158340000D03*
X85200000Y-159300000D03*
%TD*%
D13*
%TO.C,R57*%
X91010000Y-111200000D03*
X89990000Y-111200000D03*
%TD*%
D18*
%TO.C,R52*%
X59550000Y-118100000D03*
X59550000Y-117080000D03*
%TD*%
D13*
%TO.C,R69*%
X87610000Y-126600000D03*
X86590000Y-126600000D03*
%TD*%
D16*
%TO.C,C71*%
X115900000Y-131220000D03*
X115900000Y-132180000D03*
%TD*%
%TO.C,C113*%
X96900000Y-145320000D03*
X96900000Y-146280000D03*
%TD*%
D14*
%TO.C,C127*%
X120730000Y-137070000D03*
X120730000Y-136110000D03*
%TD*%
D17*
%TO.C,C49*%
X100980000Y-91500000D03*
X100020000Y-91500000D03*
%TD*%
%TO.C,C130*%
X82780000Y-160600000D03*
X81820000Y-160600000D03*
%TD*%
D16*
%TO.C,C92*%
X100400000Y-131040000D03*
X100400000Y-132000000D03*
%TD*%
D18*
%TO.C,R46*%
X62050000Y-118100000D03*
X62050000Y-117080000D03*
%TD*%
D14*
%TO.C,C142*%
X104000000Y-110580000D03*
X104000000Y-109620000D03*
%TD*%
D13*
%TO.C,R90*%
X90810000Y-139700000D03*
X89790000Y-139700000D03*
%TD*%
D27*
%TO.C,R106*%
X129930000Y-136110000D03*
X129930000Y-137130000D03*
%TD*%
D16*
%TO.C,C111*%
X128680000Y-140740000D03*
X128680000Y-141700000D03*
%TD*%
%TO.C,C137*%
X121030000Y-138420000D03*
X121030000Y-139380000D03*
%TD*%
D24*
%TO.C,C6*%
X83650000Y-63400000D03*
X88750000Y-63400000D03*
%TD*%
D22*
%TO.C,U14*%
X96037500Y-90350000D03*
X96037500Y-91300000D03*
X96037500Y-92250000D03*
X93762500Y-92250000D03*
X93762500Y-90350000D03*
%TD*%
D13*
%TO.C,R42*%
X99330000Y-121620000D03*
X98310000Y-121620000D03*
%TD*%
D39*
%TO.C,U28*%
X114250000Y-144650000D03*
X114250000Y-142350000D03*
X116150000Y-142350000D03*
X116150000Y-144650000D03*
%TD*%
D18*
%TO.C,R26*%
X100000000Y-100510000D03*
X100000000Y-99490000D03*
%TD*%
D14*
%TO.C,C17*%
X124100000Y-75380000D03*
X124100000Y-74420000D03*
%TD*%
D17*
%TO.C,C148*%
X74180000Y-163800000D03*
X73220000Y-163800000D03*
%TD*%
D37*
%TO.C,R35*%
X76700000Y-113962500D03*
X76700000Y-108037500D03*
%TD*%
D13*
%TO.C,R56*%
X90810000Y-116000000D03*
X89790000Y-116000000D03*
%TD*%
D14*
%TO.C,C47*%
X97000000Y-104730000D03*
X97000000Y-103770000D03*
%TD*%
D16*
%TO.C,C89*%
X99300000Y-130040000D03*
X99300000Y-131000000D03*
%TD*%
%TO.C,C40*%
X116250000Y-100790000D03*
X116250000Y-101750000D03*
%TD*%
%TO.C,C106*%
X117100000Y-156140000D03*
X117100000Y-157100000D03*
%TD*%
D17*
%TO.C,C90*%
X82580000Y-118100000D03*
X81620000Y-118100000D03*
%TD*%
D14*
%TO.C,C62*%
X71500000Y-104230000D03*
X71500000Y-103270000D03*
%TD*%
D16*
%TO.C,C51*%
X89400000Y-91320000D03*
X89400000Y-92280000D03*
%TD*%
D27*
%TO.C,R104*%
X125380000Y-132400000D03*
X125380000Y-133420000D03*
%TD*%
D22*
%TO.C,U20*%
X95537500Y-116350000D03*
X95537500Y-117300000D03*
X95537500Y-118250000D03*
X93262500Y-118250000D03*
X93262500Y-116350000D03*
%TD*%
D40*
%TO.C,U1*%
X67525000Y-80772000D03*
D41*
X60800000Y-86087000D03*
X60800000Y-80537000D03*
X55950000Y-86087000D03*
X55950000Y-80537000D03*
D40*
X67525000Y-85852000D03*
%TD*%
D23*
%TO.C,R48*%
X116900000Y-123600000D03*
X117920000Y-123600000D03*
%TD*%
D27*
%TO.C,R108*%
X128600000Y-130290000D03*
X128600000Y-131310000D03*
%TD*%
D23*
%TO.C,R49*%
X116900000Y-127200000D03*
X117920000Y-127200000D03*
%TD*%
%TO.C,R4*%
X57090000Y-64600000D03*
X58110000Y-64600000D03*
%TD*%
D27*
%TO.C,R71*%
X54800000Y-108590000D03*
X54800000Y-109610000D03*
%TD*%
D23*
%TO.C,R86*%
X89690000Y-147400000D03*
X90710000Y-147400000D03*
%TD*%
D21*
%TO.C,C63*%
X73220000Y-90300000D03*
X74180000Y-90300000D03*
%TD*%
D24*
%TO.C,C2*%
X83650000Y-57000000D03*
X88750000Y-57000000D03*
%TD*%
D13*
%TO.C,R29*%
X86260000Y-97250000D03*
X85240000Y-97250000D03*
%TD*%
D37*
%TO.C,R34*%
X108800000Y-114062500D03*
X108800000Y-108137500D03*
%TD*%
D21*
%TO.C,C76*%
X103120000Y-118500000D03*
X104080000Y-118500000D03*
%TD*%
%TO.C,C25*%
X108220000Y-50900000D03*
X109180000Y-50900000D03*
%TD*%
D14*
%TO.C,C91*%
X81300000Y-136880000D03*
X81300000Y-135920000D03*
%TD*%
D18*
%TO.C,R51*%
X54800000Y-111910000D03*
X54800000Y-110890000D03*
%TD*%
D16*
%TO.C,C85*%
X99300000Y-128040000D03*
X99300000Y-129000000D03*
%TD*%
D13*
%TO.C,R58*%
X68770000Y-119060000D03*
X67750000Y-119060000D03*
%TD*%
D14*
%TO.C,C31*%
X105200000Y-83480000D03*
X105200000Y-82520000D03*
%TD*%
D21*
%TO.C,C115*%
X103220000Y-146800000D03*
X104180000Y-146800000D03*
%TD*%
D42*
%TO.C,U4*%
X60255000Y-70342000D03*
X60255000Y-69842000D03*
X60255000Y-69342000D03*
X60255000Y-68842000D03*
X60255000Y-68342000D03*
X63055000Y-68342000D03*
X63055000Y-68842000D03*
X63055000Y-69342000D03*
X63055000Y-69842000D03*
X63055000Y-70342000D03*
%TD*%
D23*
%TO.C,R24*%
X90790000Y-92300000D03*
X91810000Y-92300000D03*
%TD*%
D13*
%TO.C,R89*%
X91010000Y-145000000D03*
X89990000Y-145000000D03*
%TD*%
D17*
%TO.C,C5*%
X77380000Y-87600000D03*
X76420000Y-87600000D03*
%TD*%
D23*
%TO.C,R43*%
X116990000Y-122300000D03*
X118010000Y-122300000D03*
%TD*%
D27*
%TO.C,R82*%
X118230000Y-140680000D03*
X118230000Y-141700000D03*
%TD*%
%TO.C,R9*%
X61800000Y-64690000D03*
X61800000Y-65710000D03*
%TD*%
D31*
%TO.C,C19*%
X65350000Y-65090000D03*
X63450000Y-65090000D03*
%TD*%
D17*
%TO.C,C129*%
X82880000Y-146600000D03*
X81920000Y-146600000D03*
%TD*%
D16*
%TO.C,C59*%
X87000000Y-102790000D03*
X87000000Y-103750000D03*
%TD*%
D18*
%TO.C,R88*%
X119480000Y-141700000D03*
X119480000Y-140680000D03*
%TD*%
D31*
%TO.C,C8*%
X57950000Y-72400000D03*
X56050000Y-72400000D03*
%TD*%
D36*
%TO.C,Q4*%
X78905000Y-75535072D03*
X77635000Y-75535072D03*
X76365000Y-75535072D03*
X75095000Y-75535072D03*
X75095000Y-70064928D03*
X76365000Y-70064928D03*
X77635000Y-70064928D03*
X78905000Y-70064928D03*
%TD*%
D23*
%TO.C,R60*%
X86790000Y-128020000D03*
X87810000Y-128020000D03*
%TD*%
D17*
%TO.C,C119*%
X101580000Y-146800000D03*
X100620000Y-146800000D03*
%TD*%
D18*
%TO.C,R79*%
X125380000Y-145400000D03*
X125380000Y-144380000D03*
%TD*%
D15*
%TO.C,C22*%
X92125000Y-78400000D03*
X95075000Y-78400000D03*
%TD*%
D13*
%TO.C,R31*%
X101010000Y-96100000D03*
X99990000Y-96100000D03*
%TD*%
D16*
%TO.C,C110*%
X115900000Y-159340000D03*
X115900000Y-160300000D03*
%TD*%
%TO.C,C69*%
X115900000Y-129300000D03*
X115900000Y-130260000D03*
%TD*%
D17*
%TO.C,C112*%
X114600000Y-159820000D03*
X113640000Y-159820000D03*
%TD*%
D14*
%TO.C,C88*%
X56030000Y-109590000D03*
X56030000Y-108630000D03*
%TD*%
D17*
%TO.C,C26*%
X126180000Y-81100000D03*
X125220000Y-81100000D03*
%TD*%
D23*
%TO.C,R47*%
X116900000Y-126000000D03*
X117920000Y-126000000D03*
%TD*%
D37*
%TO.C,R68*%
X109500000Y-141862500D03*
X109500000Y-135937500D03*
%TD*%
D18*
%TO.C,R59*%
X54780000Y-114120000D03*
X54780000Y-113100000D03*
%TD*%
D27*
%TO.C,R94*%
X124130000Y-132400000D03*
X124130000Y-133420000D03*
%TD*%
D13*
%TO.C,R40*%
X70010000Y-96250000D03*
X68990000Y-96250000D03*
%TD*%
D27*
%TO.C,R5*%
X61200000Y-73290000D03*
X61200000Y-74310000D03*
%TD*%
%TO.C,R45*%
X60800000Y-117090000D03*
X60800000Y-118110000D03*
%TD*%
D20*
%TO.C,C98*%
X89800000Y-135700000D03*
X96200000Y-135700000D03*
%TD*%
D16*
%TO.C,C42*%
X115000000Y-101790000D03*
X115000000Y-102750000D03*
%TD*%
D14*
%TO.C,C144*%
X105700000Y-110580000D03*
X105700000Y-109620000D03*
%TD*%
D27*
%TO.C,R74*%
X62150000Y-105377500D03*
X62150000Y-106397500D03*
%TD*%
D19*
%TO.C,C9*%
X56000000Y-69088000D03*
X56000000Y-67188000D03*
%TD*%
D14*
%TO.C,C93*%
X105000000Y-138580000D03*
X105000000Y-137620000D03*
%TD*%
D17*
%TO.C,C73*%
X114580000Y-131700000D03*
X113620000Y-131700000D03*
%TD*%
D18*
%TO.C,R53*%
X58300000Y-118100000D03*
X58300000Y-117080000D03*
%TD*%
D21*
%TO.C,C16*%
X126320000Y-67800000D03*
X127280000Y-67800000D03*
%TD*%
%TO.C,C126*%
X84520000Y-146700000D03*
X85480000Y-146700000D03*
%TD*%
D16*
%TO.C,C75*%
X97500000Y-111120000D03*
X97500000Y-112080000D03*
%TD*%
D17*
%TO.C,C61*%
X123480000Y-102000000D03*
X122520000Y-102000000D03*
%TD*%
D23*
%TO.C,R8*%
X63690000Y-62700000D03*
X64710000Y-62700000D03*
%TD*%
M02*
