%TF.GenerationSoftware,KiCad,Pcbnew,8.0.1-rc1*%
%TF.CreationDate,2024-03-24T23:57:46-06:00*%
%TF.ProjectId,bitaxeHex,62697461-7865-4486-9578-2e6b69636164,302*%
%TF.SameCoordinates,Original*%
%TF.FileFunction,Copper,L4,Bot*%
%TF.FilePolarity,Positive*%
%FSLAX46Y46*%
G04 Gerber Fmt 4.6, Leading zero omitted, Abs format (unit mm)*
G04 Created by KiCad (PCBNEW 8.0.1-rc1) date 2024-03-24 23:57:46*
%MOMM*%
%LPD*%
G01*
G04 APERTURE LIST*
G04 Aperture macros list*
%AMRoundRect*
0 Rectangle with rounded corners*
0 $1 Rounding radius*
0 $2 $3 $4 $5 $6 $7 $8 $9 X,Y pos of 4 corners*
0 Add a 4 corners polygon primitive as box body*
4,1,4,$2,$3,$4,$5,$6,$7,$8,$9,$2,$3,0*
0 Add four circle primitives for the rounded corners*
1,1,$1+$1,$2,$3*
1,1,$1+$1,$4,$5*
1,1,$1+$1,$6,$7*
1,1,$1+$1,$8,$9*
0 Add four rect primitives between the rounded corners*
20,1,$1+$1,$2,$3,$4,$5,0*
20,1,$1+$1,$4,$5,$6,$7,0*
20,1,$1+$1,$6,$7,$8,$9,0*
20,1,$1+$1,$8,$9,$2,$3,0*%
G04 Aperture macros list end*
%ADD10C,0.200000*%
%TA.AperFunction,NonConductor*%
%ADD11C,0.200000*%
%TD*%
%TA.AperFunction,ComponentPad*%
%ADD12C,3.200000*%
%TD*%
%TA.AperFunction,ComponentPad*%
%ADD13C,0.800000*%
%TD*%
%TA.AperFunction,ComponentPad*%
%ADD14C,6.000000*%
%TD*%
%TA.AperFunction,ComponentPad*%
%ADD15C,1.574800*%
%TD*%
%TA.AperFunction,ComponentPad*%
%ADD16C,5.000000*%
%TD*%
%TA.AperFunction,ComponentPad*%
%ADD17R,1.700000X1.700000*%
%TD*%
%TA.AperFunction,ComponentPad*%
%ADD18O,1.700000X1.700000*%
%TD*%
%TA.AperFunction,ComponentPad*%
%ADD19C,0.400000*%
%TD*%
%TA.AperFunction,ComponentPad*%
%ADD20O,1.000000X2.100000*%
%TD*%
%TA.AperFunction,ComponentPad*%
%ADD21O,1.000000X1.800000*%
%TD*%
%TA.AperFunction,SMDPad,CuDef*%
%ADD22RoundRect,0.140000X-0.170000X0.140000X-0.170000X-0.140000X0.170000X-0.140000X0.170000X0.140000X0*%
%TD*%
%TA.AperFunction,SMDPad,CuDef*%
%ADD23C,1.000000*%
%TD*%
%TA.AperFunction,SMDPad,CuDef*%
%ADD24RoundRect,0.140000X0.170000X-0.140000X0.170000X0.140000X-0.170000X0.140000X-0.170000X-0.140000X0*%
%TD*%
%TA.AperFunction,SMDPad,CuDef*%
%ADD25RoundRect,0.140000X0.140000X0.170000X-0.140000X0.170000X-0.140000X-0.170000X0.140000X-0.170000X0*%
%TD*%
%TA.AperFunction,SMDPad,CuDef*%
%ADD26RoundRect,0.135000X0.185000X-0.135000X0.185000X0.135000X-0.185000X0.135000X-0.185000X-0.135000X0*%
%TD*%
%TA.AperFunction,SMDPad,CuDef*%
%ADD27RoundRect,0.250000X0.250000X0.475000X-0.250000X0.475000X-0.250000X-0.475000X0.250000X-0.475000X0*%
%TD*%
%TA.AperFunction,SMDPad,CuDef*%
%ADD28RoundRect,0.250000X-0.875000X-1.025000X0.875000X-1.025000X0.875000X1.025000X-0.875000X1.025000X0*%
%TD*%
%TA.AperFunction,SMDPad,CuDef*%
%ADD29RoundRect,0.150000X0.512500X0.150000X-0.512500X0.150000X-0.512500X-0.150000X0.512500X-0.150000X0*%
%TD*%
%TA.AperFunction,SMDPad,CuDef*%
%ADD30RoundRect,0.135000X-0.135000X-0.185000X0.135000X-0.185000X0.135000X0.185000X-0.135000X0.185000X0*%
%TD*%
%TA.AperFunction,SMDPad,CuDef*%
%ADD31RoundRect,0.250000X-0.475000X0.250000X-0.475000X-0.250000X0.475000X-0.250000X0.475000X0.250000X0*%
%TD*%
%TA.AperFunction,SMDPad,CuDef*%
%ADD32R,0.650000X1.560000*%
%TD*%
%TA.AperFunction,SMDPad,CuDef*%
%ADD33RoundRect,0.135000X-0.185000X0.135000X-0.185000X-0.135000X0.185000X-0.135000X0.185000X0.135000X0*%
%TD*%
%TA.AperFunction,SMDPad,CuDef*%
%ADD34RoundRect,0.140000X-0.140000X-0.170000X0.140000X-0.170000X0.140000X0.170000X-0.140000X0.170000X0*%
%TD*%
%TA.AperFunction,SMDPad,CuDef*%
%ADD35RoundRect,0.135000X0.135000X0.185000X-0.135000X0.185000X-0.135000X-0.185000X0.135000X-0.185000X0*%
%TD*%
%TA.AperFunction,SMDPad,CuDef*%
%ADD36RoundRect,0.250000X1.100000X-0.325000X1.100000X0.325000X-1.100000X0.325000X-1.100000X-0.325000X0*%
%TD*%
%TA.AperFunction,SMDPad,CuDef*%
%ADD37C,1.500000*%
%TD*%
%TA.AperFunction,SMDPad,CuDef*%
%ADD38RoundRect,0.100000X0.100000X-0.637500X0.100000X0.637500X-0.100000X0.637500X-0.100000X-0.637500X0*%
%TD*%
%TA.AperFunction,SMDPad,CuDef*%
%ADD39RoundRect,0.250000X-0.325000X-1.100000X0.325000X-1.100000X0.325000X1.100000X-0.325000X1.100000X0*%
%TD*%
%TA.AperFunction,SMDPad,CuDef*%
%ADD40R,0.952500X0.558800*%
%TD*%
%TA.AperFunction,SMDPad,CuDef*%
%ADD41RoundRect,0.250000X1.500000X0.550000X-1.500000X0.550000X-1.500000X-0.550000X1.500000X-0.550000X0*%
%TD*%
%TA.AperFunction,SMDPad,CuDef*%
%ADD42RoundRect,0.150000X0.150000X-0.512500X0.150000X0.512500X-0.150000X0.512500X-0.150000X-0.512500X0*%
%TD*%
%TA.AperFunction,SMDPad,CuDef*%
%ADD43R,1.300000X1.100000*%
%TD*%
%TA.AperFunction,SMDPad,CuDef*%
%ADD44RoundRect,0.250000X-0.250000X-0.475000X0.250000X-0.475000X0.250000X0.475000X-0.250000X0.475000X0*%
%TD*%
%TA.AperFunction,SMDPad,CuDef*%
%ADD45R,1.100000X1.300000*%
%TD*%
%TA.AperFunction,SMDPad,CuDef*%
%ADD46R,3.700000X1.680000*%
%TD*%
%TA.AperFunction,SMDPad,CuDef*%
%ADD47RoundRect,0.225000X-0.225000X-0.250000X0.225000X-0.250000X0.225000X0.250000X-0.225000X0.250000X0*%
%TD*%
%TA.AperFunction,ViaPad*%
%ADD48C,0.800000*%
%TD*%
%TA.AperFunction,ViaPad*%
%ADD49C,1.000000*%
%TD*%
%TA.AperFunction,Conductor*%
%ADD50C,0.200000*%
%TD*%
%TA.AperFunction,Conductor*%
%ADD51C,0.300000*%
%TD*%
%TA.AperFunction,Conductor*%
%ADD52C,0.400000*%
%TD*%
%TA.AperFunction,Conductor*%
%ADD53C,0.254000*%
%TD*%
%TA.AperFunction,Conductor*%
%ADD54C,0.500000*%
%TD*%
%TA.AperFunction,Conductor*%
%ADD55C,1.000000*%
%TD*%
%TA.AperFunction,Conductor*%
%ADD56C,0.250000*%
%TD*%
%TA.AperFunction,Conductor*%
%ADD57C,2.000000*%
%TD*%
G04 APERTURE END LIST*
D10*
D11*
X123068422Y-174192742D02*
X123068422Y-174992742D01*
X123354136Y-173735600D02*
X123639850Y-174592742D01*
X123639850Y-174592742D02*
X122896993Y-174592742D01*
D12*
%TO.P,J2,1,Pin_1*%
%TO.N,GND*%
X74000000Y-56725000D03*
X74000000Y-49725000D03*
X69000000Y-56725000D03*
X69000000Y-49725000D03*
%TD*%
D13*
%TO.P,H1,1,1*%
%TO.N,GND*%
X51250000Y-49500000D03*
X51909010Y-47909010D03*
X51909010Y-51090990D03*
X53500000Y-47250000D03*
D14*
X53500000Y-49500000D03*
D13*
X53500000Y-51750000D03*
X55090990Y-47909010D03*
X55090990Y-51090990D03*
X55750000Y-49500000D03*
%TD*%
D12*
%TO.P,J1,1,Pin_1*%
%TO.N,/VIN*%
X64275000Y-56725000D03*
X64275000Y-49725000D03*
X59275000Y-56725000D03*
X59275000Y-49725000D03*
%TD*%
D15*
%TO.P,J8,1,Pin_1*%
%TO.N,GND*%
X79700000Y-60650000D03*
%TO.P,J8,2,Pin_2*%
%TO.N,/VIN*%
X82240000Y-60650000D03*
%TO.P,J8,3,Pin_3*%
%TO.N,/Fan/FAN1_TACH*%
X84780000Y-60650000D03*
%TO.P,J8,4,Pin_4*%
%TO.N,/Fan/FAN1_PWM*%
X87320000Y-60650000D03*
%TD*%
D16*
%TO.P,H13,*%
%TO.N,*%
X92250000Y-97000000D03*
%TD*%
D13*
%TO.P,H4,1*%
%TO.N,N/C*%
X128750000Y-172000000D03*
X129409010Y-170409010D03*
X129409010Y-173590990D03*
X131000000Y-169750000D03*
D14*
X131000000Y-172000000D03*
D13*
X131000000Y-174250000D03*
X132590990Y-170409010D03*
X132590990Y-173590990D03*
X133250000Y-172000000D03*
%TD*%
D16*
%TO.P,H15,*%
%TO.N,*%
X92250000Y-153000000D03*
%TD*%
D17*
%TO.P,J6,1,Pin_1*%
%TO.N,/5V*%
X121760000Y-69500000D03*
D18*
%TO.P,J6,2,Pin_2*%
%TO.N,GND*%
X119220000Y-69500000D03*
%TO.P,J6,3,Pin_3*%
%TO.N,Net-(J6-Pin_3)*%
X116680000Y-69500000D03*
%TO.P,J6,4,Pin_4*%
%TO.N,Net-(J6-Pin_4)*%
X114140000Y-69500000D03*
%TO.P,J6,5,Pin_5*%
%TO.N,Net-(J6-Pin_5)*%
X111600000Y-69500000D03*
%TO.P,J6,6,Pin_6*%
%TO.N,Net-(J6-Pin_6)*%
X109060000Y-69500000D03*
%TD*%
D15*
%TO.P,J9,1,Pin_1*%
%TO.N,GND*%
X84910000Y-72375000D03*
%TO.P,J9,2,Pin_2*%
%TO.N,/VIN*%
X87450000Y-72375000D03*
%TO.P,J9,3,Pin_3*%
%TO.N,/Fan/FAN2_TACH*%
X89990000Y-72375000D03*
%TO.P,J9,4,Pin_4*%
%TO.N,/Fan/FAN2_PWM*%
X92530000Y-72375000D03*
%TD*%
D16*
%TO.P,H14,*%
%TO.N,*%
X92250000Y-125000000D03*
%TD*%
%TO.P,H10,*%
%TO.N,*%
X122500000Y-125000000D03*
%TD*%
%TO.P,H9,*%
%TO.N,*%
X62000000Y-125000000D03*
%TD*%
D19*
%TO.P,U3,41,PAD*%
%TO.N,GND*%
X57000000Y-73030000D03*
X58400000Y-73030000D03*
X59800000Y-73030000D03*
X56000000Y-71750000D03*
X57000000Y-71750000D03*
X58400000Y-71750000D03*
X59800000Y-71750000D03*
X60800000Y-71750000D03*
X57000000Y-70470000D03*
X58400000Y-70470000D03*
X59800000Y-70470000D03*
%TD*%
D16*
%TO.P,H12,*%
%TO.N,*%
X122500000Y-153000000D03*
%TD*%
%TO.P,H8,*%
%TO.N,*%
X122500000Y-97000000D03*
%TD*%
%TO.P,H7,*%
%TO.N,*%
X62000000Y-97000000D03*
%TD*%
D17*
%TO.P,J5,1,Pin_1*%
%TO.N,GND*%
X125800000Y-55200000D03*
D18*
%TO.P,J5,2,Pin_2*%
%TO.N,/3V3*%
X125800000Y-57740000D03*
%TO.P,J5,3,Pin_3*%
%TO.N,/SCL*%
X125800000Y-60280000D03*
%TO.P,J5,4,Pin_4*%
%TO.N,/SDA*%
X125800000Y-62820000D03*
%TD*%
D13*
%TO.P,H5,1*%
%TO.N,N/C*%
X51250000Y-110750000D03*
X51909010Y-109159010D03*
X51909010Y-112340990D03*
X53500000Y-108500000D03*
D14*
X53500000Y-110750000D03*
D13*
X53500000Y-113000000D03*
X55090990Y-109159010D03*
X55090990Y-112340990D03*
X55750000Y-110750000D03*
%TD*%
D20*
%TO.P,J7,S1,SHIELD*%
%TO.N,GND*%
X100990000Y-52800000D03*
D21*
X100990000Y-48620000D03*
D20*
X92350000Y-52800000D03*
D21*
X92350000Y-48620000D03*
%TD*%
D13*
%TO.P,H2,1,1*%
%TO.N,GND*%
X128750000Y-49500000D03*
X129409010Y-47909010D03*
X129409010Y-51090990D03*
X131000000Y-47250000D03*
D14*
X131000000Y-49500000D03*
D13*
X131000000Y-51750000D03*
X132590990Y-47909010D03*
X132590990Y-51090990D03*
X133250000Y-49500000D03*
%TD*%
%TO.P,H3,1*%
%TO.N,N/C*%
X51250000Y-172000000D03*
X51909010Y-170409010D03*
X51909010Y-173590990D03*
X53500000Y-169750000D03*
D14*
X53500000Y-172000000D03*
D13*
X53500000Y-174250000D03*
X55090990Y-170409010D03*
X55090990Y-173590990D03*
X55750000Y-172000000D03*
%TD*%
D16*
%TO.P,H11,*%
%TO.N,*%
X62000000Y-153000000D03*
%TD*%
D13*
%TO.P,H6,1*%
%TO.N,N/C*%
X128750000Y-110750000D03*
X129409010Y-109159010D03*
X129409010Y-112340990D03*
X131000000Y-108500000D03*
D14*
X131000000Y-110750000D03*
D13*
X131000000Y-113000000D03*
X132590990Y-109159010D03*
X132590990Y-112340990D03*
X133250000Y-110750000D03*
%TD*%
D22*
%TO.P,C12,1*%
%TO.N,Net-(U1-SW)*%
X108600000Y-75670000D03*
%TO.P,C12,2*%
%TO.N,Net-(U1-CB)*%
X108600000Y-76630000D03*
%TD*%
D23*
%TO.P,TP40,1,1*%
%TO.N,Net-(U13-CLKO)*%
X69325000Y-95475000D03*
%TD*%
D24*
%TO.P,C57,1*%
%TO.N,Net-(U12-VDD1_1)*%
X98825000Y-103450000D03*
%TO.P,C57,2*%
%TO.N,Net-(U12-VDD2_1)*%
X98825000Y-102490000D03*
%TD*%
%TO.P,C50,1*%
%TO.N,GND*%
X97837500Y-89855000D03*
%TO.P,C50,2*%
%TO.N,/5V*%
X97837500Y-88895000D03*
%TD*%
D23*
%TO.P,TP12,1,1*%
%TO.N,Net-(U6-GPIO4{slash}TOUCH4{slash}ADC1_CH3)*%
X105450000Y-52350000D03*
%TD*%
D24*
%TO.P,C113,1*%
%TO.N,/BM1366-2/0V8*%
X72300000Y-118780000D03*
%TO.P,C113,2*%
%TO.N,/BM1366-1/VDD1*%
X72300000Y-117820000D03*
%TD*%
D25*
%TO.P,C44,1*%
%TO.N,/VIN*%
X81505000Y-58475000D03*
%TO.P,C44,2*%
%TO.N,GND*%
X80545000Y-58475000D03*
%TD*%
D24*
%TO.P,C107,1*%
%TO.N,/BM1366-2/VDD2*%
X69590000Y-130550000D03*
%TO.P,C107,2*%
%TO.N,Net-(U20-VDD3_1)*%
X69590000Y-129590000D03*
%TD*%
D23*
%TO.P,TP51,1,1*%
%TO.N,Net-(U22-ADDR0)*%
X119400000Y-147600000D03*
%TD*%
D26*
%TO.P,R20,1*%
%TO.N,GND*%
X97950000Y-74935000D03*
%TO.P,R20,2*%
%TO.N,/ESP32/VDD_SAMPLE*%
X97950000Y-73915000D03*
%TD*%
D27*
%TO.P,C18,1*%
%TO.N,/5V*%
X109700000Y-80500000D03*
%TO.P,C18,2*%
%TO.N,GND*%
X107800000Y-80500000D03*
%TD*%
D26*
%TO.P,R47,1*%
%TO.N,Net-(U15C--)*%
X58025000Y-109210000D03*
%TO.P,R47,2*%
%TO.N,/BM1366-1/VDD1*%
X58025000Y-108190000D03*
%TD*%
D28*
%TO.P,C140,1*%
%TO.N,/VDD*%
X89800000Y-168300000D03*
%TO.P,C140,2*%
%TO.N,/BM1366-2/VDD2*%
X96200000Y-168300000D03*
%TD*%
D25*
%TO.P,C132,1*%
%TO.N,/BM1366-2/VDD2*%
X112180000Y-162100000D03*
%TO.P,C132,2*%
%TO.N,/VDD*%
X111220000Y-162100000D03*
%TD*%
D24*
%TO.P,C129,1*%
%TO.N,Net-(U22-VDD2_1)*%
X100500000Y-159660000D03*
%TO.P,C129,2*%
%TO.N,Net-(U22-VDD3_1)*%
X100500000Y-158700000D03*
%TD*%
D29*
%TO.P,U23,1,VIN*%
%TO.N,/5V*%
X94837500Y-145350000D03*
%TO.P,U23,2,GND*%
%TO.N,/BM1366-2/VDD2*%
X94837500Y-146300000D03*
%TO.P,U23,3,EN*%
%TO.N,/5V*%
X94837500Y-147250000D03*
%TO.P,U23,4,ADJ*%
%TO.N,Net-(U23-ADJ)*%
X92562500Y-147250000D03*
%TO.P,U23,5,VOUT*%
%TO.N,/BM1366-3/0V8*%
X92562500Y-145350000D03*
%TD*%
D26*
%TO.P,R37,1*%
%TO.N,/BM1366-2/CI2*%
X67275000Y-113710000D03*
%TO.P,R37,2*%
%TO.N,Net-(U15A--)*%
X67275000Y-112690000D03*
%TD*%
D23*
%TO.P,TP54,1,1*%
%TO.N,/BM1366-3/0V8*%
X84600000Y-144900000D03*
%TD*%
D24*
%TO.P,C39,1*%
%TO.N,/3V3*%
X78950000Y-53980000D03*
%TO.P,C39,2*%
%TO.N,GND*%
X78950000Y-53020000D03*
%TD*%
D23*
%TO.P,TP22,1,1*%
%TO.N,Net-(U5-B4)*%
X127100000Y-85400000D03*
%TD*%
D30*
%TO.P,R39,1*%
%TO.N,/BM1366-1/VDD1*%
X89790000Y-118300000D03*
%TO.P,R39,2*%
%TO.N,Net-(U17-ADJ)*%
X90810000Y-118300000D03*
%TD*%
D23*
%TO.P,TP53,1,1*%
%TO.N,Net-(U22-INV_CLKO)*%
X99675000Y-145425000D03*
%TD*%
D27*
%TO.P,C3,1*%
%TO.N,/VIN*%
X104100000Y-70800000D03*
%TO.P,C3,2*%
%TO.N,GND*%
X102200000Y-70800000D03*
%TD*%
D24*
%TO.P,C94,1*%
%TO.N,Net-(U18-VDD2_1)*%
X86700000Y-130980000D03*
%TO.P,C94,2*%
%TO.N,Net-(U18-VDD1_1)*%
X86700000Y-130020000D03*
%TD*%
D31*
%TO.P,C15,1*%
%TO.N,/Power/AGND*%
X56600000Y-63000000D03*
%TO.P,C15,2*%
%TO.N,Net-(U3-AVIN)*%
X56600000Y-64900000D03*
%TD*%
D24*
%TO.P,C72,1*%
%TO.N,/BM1366-1/VDD1*%
X70850000Y-103550000D03*
%TO.P,C72,2*%
%TO.N,Net-(U13-VDD1_1)*%
X70850000Y-102590000D03*
%TD*%
D30*
%TO.P,R12,1*%
%TO.N,Net-(U1-FB)*%
X103940000Y-80100000D03*
%TO.P,R12,2*%
%TO.N,GND*%
X104960000Y-80100000D03*
%TD*%
D23*
%TO.P,TP30,1,1*%
%TO.N,Net-(U6-GPIO38{slash}FSPIWP{slash}SUBSPIWP)*%
X120200000Y-55650000D03*
%TD*%
%TO.P,TP41,1,1*%
%TO.N,Net-(U13-INV_CLKO)*%
X69300000Y-93275000D03*
%TD*%
D24*
%TO.P,C131,1*%
%TO.N,Net-(U22-VDD3_1)*%
X99300000Y-158660000D03*
%TO.P,C131,2*%
%TO.N,/BM1366-2/VDD2*%
X99300000Y-157700000D03*
%TD*%
D30*
%TO.P,R73,1*%
%TO.N,Net-(U21D--)*%
X129915000Y-137100000D03*
%TO.P,R73,2*%
%TO.N,/BM1366-2/VDD2*%
X130935000Y-137100000D03*
%TD*%
D23*
%TO.P,TP48,1,1*%
%TO.N,Net-(U20-ADDR0)*%
X86925000Y-120825000D03*
%TD*%
D26*
%TO.P,R69,1*%
%TO.N,Net-(U21C--)*%
X119350000Y-137085000D03*
%TO.P,R69,2*%
%TO.N,/BM1366-2/VDD2*%
X119350000Y-136065000D03*
%TD*%
D23*
%TO.P,TP34,1,1*%
%TO.N,Net-(U12-ADDR1)*%
X114650000Y-88825000D03*
%TD*%
D32*
%TO.P,U4,1,VIN*%
%TO.N,/3V3*%
X126350000Y-70950000D03*
%TO.P,U4,2,GND*%
%TO.N,GND*%
X127300000Y-70950000D03*
%TO.P,U4,3,EN*%
%TO.N,/3V3*%
X128250000Y-70950000D03*
%TO.P,U4,4,NC*%
%TO.N,unconnected-(U4-NC-Pad4)*%
X128250000Y-73650000D03*
%TO.P,U4,5,VOUT*%
%TO.N,/1V8*%
X126350000Y-73650000D03*
%TD*%
D22*
%TO.P,C147,1*%
%TO.N,/BM1366-1/VDD1*%
X128680000Y-138440000D03*
%TO.P,C147,2*%
%TO.N,/VDD*%
X128680000Y-139400000D03*
%TD*%
D24*
%TO.P,C70,1*%
%TO.N,/BM1366-1/1V8*%
X81475000Y-90805000D03*
%TO.P,C70,2*%
%TO.N,GND*%
X81475000Y-89845000D03*
%TD*%
D33*
%TO.P,R49,1*%
%TO.N,/BM1366-1/BO*%
X61525000Y-104977500D03*
%TO.P,R49,2*%
%TO.N,Net-(U15C-+)*%
X61525000Y-105997500D03*
%TD*%
D26*
%TO.P,R4,1*%
%TO.N,Net-(U3-BP1V5)*%
X54075000Y-61435000D03*
%TO.P,R4,2*%
%TO.N,Net-(U3-VSEL)*%
X54075000Y-60415000D03*
%TD*%
D22*
%TO.P,C87,1*%
%TO.N,/BM1366-2/1V8*%
X88200000Y-112120000D03*
%TO.P,C87,2*%
%TO.N,/BM1366-1/VDD1*%
X88200000Y-113080000D03*
%TD*%
D25*
%TO.P,C92,1*%
%TO.N,/BM1366-2/0V8*%
X101380000Y-118500000D03*
%TO.P,C92,2*%
%TO.N,/BM1366-1/VDD1*%
X100420000Y-118500000D03*
%TD*%
D34*
%TO.P,C35,1*%
%TO.N,/3V3*%
X125220000Y-83400000D03*
%TO.P,C35,2*%
%TO.N,GND*%
X126180000Y-83400000D03*
%TD*%
D23*
%TO.P,TP33,1,1*%
%TO.N,Net-(U12-ADDR0)*%
X115050000Y-90825000D03*
%TD*%
D22*
%TO.P,C52,1*%
%TO.N,Net-(U12-VDD1_0)*%
X114925000Y-103125000D03*
%TO.P,C52,2*%
%TO.N,/BM1366-1/VDD1*%
X114925000Y-104085000D03*
%TD*%
D23*
%TO.P,TP26,1,1*%
%TO.N,/ESP32/P_RX*%
X129100000Y-54300000D03*
%TD*%
D35*
%TO.P,R68,1*%
%TO.N,/BM1366-2/VDD2*%
X99810000Y-156400000D03*
%TO.P,R68,2*%
%TO.N,Net-(U22-NRSTO)*%
X98790000Y-156400000D03*
%TD*%
D24*
%TO.P,C59,1*%
%TO.N,Net-(U12-VDD2_1)*%
X97575000Y-102450000D03*
%TO.P,C59,2*%
%TO.N,Net-(U12-VDD3_1)*%
X97575000Y-101490000D03*
%TD*%
D36*
%TO.P,C28,1*%
%TO.N,/VDD*%
X78300000Y-69850000D03*
%TO.P,C28,2*%
%TO.N,GND*%
X78300000Y-66900000D03*
%TD*%
D23*
%TO.P,TP17,1,1*%
%TO.N,Net-(U6-GPIO9{slash}TOUCH9{slash}ADC1_CH8{slash}FSPIHD{slash}SUBSPIHD)*%
X116400000Y-53400000D03*
%TD*%
D24*
%TO.P,C114,1*%
%TO.N,Net-(U20-VDD1_1)*%
X68390000Y-127570000D03*
%TO.P,C114,2*%
%TO.N,/BM1366-1/VDD1*%
X68390000Y-126610000D03*
%TD*%
D37*
%TO.P,TP62,1,1*%
%TO.N,/BM1366-3/CLKO3*%
X65500000Y-149900000D03*
%TD*%
D23*
%TO.P,TP11,1,1*%
%TO.N,Net-(U5-A4)*%
X116800000Y-86000000D03*
%TD*%
D38*
%TO.P,U5,1,DIR1*%
%TO.N,/3V3*%
X122975000Y-86762500D03*
%TO.P,U5,2,DIR2*%
%TO.N,GND*%
X122325000Y-86762500D03*
%TO.P,U5,3,A1*%
%TO.N,/RO*%
X121675000Y-86762500D03*
%TO.P,U5,4,A2*%
%TO.N,/CI*%
X121025000Y-86762500D03*
%TO.P,U5,5,A3*%
%TO.N,/NRSTI*%
X120375000Y-86762500D03*
%TO.P,U5,6,A4*%
%TO.N,Net-(U5-A4)*%
X119725000Y-86762500D03*
%TO.P,U5,7,DIR3*%
%TO.N,GND*%
X119075000Y-86762500D03*
%TO.P,U5,8,DIR4*%
%TO.N,Net-(U5-DIR4)*%
X118425000Y-86762500D03*
%TO.P,U5,9,OE*%
%TO.N,Net-(U5-OE)*%
X118425000Y-81037500D03*
%TO.P,U5,10,GND*%
%TO.N,GND*%
X119075000Y-81037500D03*
%TO.P,U5,11,B4*%
%TO.N,Net-(U5-B4)*%
X119725000Y-81037500D03*
%TO.P,U5,12,B3*%
%TO.N,/ESP32/ASIC_RST*%
X120375000Y-81037500D03*
%TO.P,U5,13,B2*%
%TO.N,/ESP32/ESP32_TX*%
X121025000Y-81037500D03*
%TO.P,U5,14,B1*%
%TO.N,/ESP32/ESP32_RX*%
X121675000Y-81037500D03*
%TO.P,U5,15,VCCB*%
%TO.N,/3V3*%
X122325000Y-81037500D03*
%TO.P,U5,16,VCCA*%
%TO.N,/1V8*%
X122975000Y-81037500D03*
%TD*%
D25*
%TO.P,C144,1*%
%TO.N,Net-(U25-VDD1_1)*%
X71160000Y-159800000D03*
%TO.P,C144,2*%
%TO.N,Net-(U25-VDD2_1)*%
X70200000Y-159800000D03*
%TD*%
D22*
%TO.P,C111,1*%
%TO.N,GND*%
X67275000Y-110495000D03*
%TO.P,C111,2*%
%TO.N,/BM1366-2/VDD2*%
X67275000Y-111455000D03*
%TD*%
D24*
%TO.P,C91,1*%
%TO.N,Net-(U18-VDD3_1)*%
X88100000Y-132380000D03*
%TO.P,C91,2*%
%TO.N,Net-(U18-VDD2_1)*%
X88100000Y-131420000D03*
%TD*%
D29*
%TO.P,U11,1,VIN*%
%TO.N,/5V*%
X94775000Y-83825000D03*
%TO.P,U11,2,GND*%
%TO.N,GND*%
X94775000Y-84775000D03*
%TO.P,U11,3,EN*%
%TO.N,/5V*%
X94775000Y-85725000D03*
%TO.P,U11,4,ADJ*%
%TO.N,Net-(U11-ADJ)*%
X92500000Y-85725000D03*
%TO.P,U11,5,VOUT*%
%TO.N,/BM1366-1/1V8*%
X92500000Y-83825000D03*
%TD*%
D24*
%TO.P,C150,1*%
%TO.N,Net-(U25-VDD3_1)*%
X68980000Y-157780000D03*
%TO.P,C150,2*%
%TO.N,/BM1366-2/VDD2*%
X68980000Y-156820000D03*
%TD*%
D33*
%TO.P,R15,1*%
%TO.N,Net-(U3-GOSNS)*%
X71425000Y-74190000D03*
%TO.P,R15,2*%
%TO.N,GND*%
X71425000Y-75210000D03*
%TD*%
D24*
%TO.P,C84,1*%
%TO.N,/BM1366-1/VDD1*%
X97500000Y-117280000D03*
%TO.P,C84,2*%
%TO.N,/5V*%
X97500000Y-116320000D03*
%TD*%
%TO.P,C67,1*%
%TO.N,/BM1366-1/0V8*%
X82725000Y-90805000D03*
%TO.P,C67,2*%
%TO.N,GND*%
X82725000Y-89845000D03*
%TD*%
D33*
%TO.P,R71,1*%
%TO.N,/BM1366-2/BO*%
X122880000Y-132400000D03*
%TO.P,R71,2*%
%TO.N,Net-(U21C-+)*%
X122880000Y-133420000D03*
%TD*%
D23*
%TO.P,TP58,1,1*%
%TO.N,Net-(U25-INV_CLKO)*%
X68225000Y-148075000D03*
%TD*%
D33*
%TO.P,R19,1*%
%TO.N,/ESP32/VDD_SAMPLE*%
X96325000Y-73940000D03*
%TO.P,R19,2*%
%TO.N,/VDD*%
X96325000Y-74960000D03*
%TD*%
D24*
%TO.P,C76,1*%
%TO.N,/BM1366-1/0V8*%
X73200000Y-90830000D03*
%TO.P,C76,2*%
%TO.N,GND*%
X73200000Y-89870000D03*
%TD*%
D26*
%TO.P,R16,1*%
%TO.N,/VDD*%
X72700000Y-75210000D03*
%TO.P,R16,2*%
%TO.N,Net-(U3-VOSNS)*%
X72700000Y-74190000D03*
%TD*%
D23*
%TO.P,TP29,1,1*%
%TO.N,Net-(U6-SPIDQS{slash}GPIO37{slash}FSPIQ{slash}SUBSPIQ)*%
X120200000Y-57700000D03*
%TD*%
D24*
%TO.P,C108,1*%
%TO.N,Net-(U20-VDD3_1)*%
X68390000Y-129550000D03*
%TO.P,C108,2*%
%TO.N,Net-(U20-VDD2_1)*%
X68390000Y-128590000D03*
%TD*%
D23*
%TO.P,TP10,1,1*%
%TO.N,/SMB_ALRT*%
X105050000Y-63050000D03*
%TD*%
D22*
%TO.P,C88,1*%
%TO.N,/BM1366-2/0V8*%
X88000000Y-117320000D03*
%TO.P,C88,2*%
%TO.N,/BM1366-1/VDD1*%
X88000000Y-118280000D03*
%TD*%
D26*
%TO.P,R11,1*%
%TO.N,/5V*%
X103950000Y-82460000D03*
%TO.P,R11,2*%
%TO.N,Net-(U1-FB)*%
X103950000Y-81440000D03*
%TD*%
D22*
%TO.P,C126,1*%
%TO.N,/BM1366-3/1V8*%
X88000000Y-140520000D03*
%TO.P,C126,2*%
%TO.N,/BM1366-2/VDD2*%
X88000000Y-141480000D03*
%TD*%
%TO.P,C66,1*%
%TO.N,Net-(U12-VDD3_1)*%
X86350000Y-100735000D03*
%TO.P,C66,2*%
%TO.N,Net-(U12-VDD2_1)*%
X86350000Y-101695000D03*
%TD*%
D34*
%TO.P,C112,1*%
%TO.N,GND*%
X58995000Y-111500000D03*
%TO.P,C112,2*%
%TO.N,/BM1366-2/VDD2*%
X59955000Y-111500000D03*
%TD*%
D35*
%TO.P,R26,1*%
%TO.N,/Fan/FAN2_PWM*%
X92785000Y-70350000D03*
%TO.P,R26,2*%
%TO.N,/5V*%
X91765000Y-70350000D03*
%TD*%
D37*
%TO.P,TP60,1,1*%
%TO.N,/BM1366-3/BO3*%
X65500000Y-155600000D03*
%TD*%
D25*
%TO.P,C19,1*%
%TO.N,/3V3*%
X119852050Y-78760200D03*
%TO.P,C19,2*%
%TO.N,GND*%
X118892050Y-78760200D03*
%TD*%
D22*
%TO.P,C69,1*%
%TO.N,Net-(U12-VDD2_1)*%
X87600000Y-101775000D03*
%TO.P,C69,2*%
%TO.N,Net-(U12-VDD1_1)*%
X87600000Y-102735000D03*
%TD*%
D33*
%TO.P,R54,1*%
%TO.N,Net-(R54-Pad1)*%
X67250000Y-108190000D03*
%TO.P,R54,2*%
%TO.N,Net-(U15D--)*%
X67250000Y-109210000D03*
%TD*%
D39*
%TO.P,C8,1*%
%TO.N,/VIN*%
X62200000Y-60400000D03*
%TO.P,C8,2*%
%TO.N,GND*%
X65150000Y-60400000D03*
%TD*%
D22*
%TO.P,C97,1*%
%TO.N,/BM1366-2/VDD2*%
X84700000Y-136870000D03*
%TO.P,C97,2*%
%TO.N,/BM1366-1/VDD1*%
X84700000Y-137830000D03*
%TD*%
D23*
%TO.P,FID2,*%
%TO.N,*%
X53800000Y-166825000D03*
%TD*%
D22*
%TO.P,C149,1*%
%TO.N,/BM1366-3/0V8*%
X69350000Y-145695000D03*
%TO.P,C149,2*%
%TO.N,/BM1366-2/VDD2*%
X69350000Y-146655000D03*
%TD*%
D25*
%TO.P,C124,1*%
%TO.N,/VDD*%
X103580000Y-160700000D03*
%TO.P,C124,2*%
%TO.N,Net-(U22-VDD1_1)*%
X102620000Y-160700000D03*
%TD*%
D30*
%TO.P,R38,1*%
%TO.N,/BM1366-1/VDD1*%
X89990000Y-113100000D03*
%TO.P,R38,2*%
%TO.N,Net-(U16-ADJ)*%
X91010000Y-113100000D03*
%TD*%
D25*
%TO.P,C26,1*%
%TO.N,/VDD*%
X72680000Y-76450000D03*
%TO.P,C26,2*%
%TO.N,GND*%
X71720000Y-76450000D03*
%TD*%
%TO.P,C118,1*%
%TO.N,/BM1366-3/1V8*%
X112880000Y-146800000D03*
%TO.P,C118,2*%
%TO.N,/BM1366-2/VDD2*%
X111920000Y-146800000D03*
%TD*%
%TO.P,C138,1*%
%TO.N,Net-(U22-VDD2_1)*%
X85180000Y-160620000D03*
%TO.P,C138,2*%
%TO.N,Net-(U22-VDD1_1)*%
X84220000Y-160620000D03*
%TD*%
D24*
%TO.P,C60,1*%
%TO.N,GND*%
X86125000Y-109880000D03*
%TO.P,C60,2*%
%TO.N,/BM1366-1/VDD1*%
X86125000Y-108920000D03*
%TD*%
D22*
%TO.P,C100,1*%
%TO.N,Net-(U18-VDD1_1)*%
X99650000Y-129015000D03*
%TO.P,C100,2*%
%TO.N,Net-(U18-VDD2_1)*%
X99650000Y-129975000D03*
%TD*%
D23*
%TO.P,TP2,1,1*%
%TO.N,/3V3*%
X120722050Y-73360200D03*
%TD*%
D38*
%TO.P,U21,1*%
%TO.N,/BM1366-3/CI3*%
X126730000Y-141762500D03*
%TO.P,U21,2,-*%
%TO.N,Net-(U21A--)*%
X126080000Y-141762500D03*
%TO.P,U21,3,+*%
%TO.N,Net-(U21A-+)*%
X125430000Y-141762500D03*
%TO.P,U21,4,V+*%
%TO.N,/VDD*%
X124780000Y-141762500D03*
%TO.P,U21,5,+*%
%TO.N,Net-(U21B-+)*%
X124130000Y-141762500D03*
%TO.P,U21,6,-*%
%TO.N,Net-(U21B--)*%
X123480000Y-141762500D03*
%TO.P,U21,7*%
%TO.N,/BM1366-3/NRSTI3*%
X122830000Y-141762500D03*
%TO.P,U21,8*%
%TO.N,/BM1366-3/BI3*%
X122830000Y-136037500D03*
%TO.P,U21,9,-*%
%TO.N,Net-(U21C--)*%
X123480000Y-136037500D03*
%TO.P,U21,10,+*%
%TO.N,Net-(U21C-+)*%
X124130000Y-136037500D03*
%TO.P,U21,11,V-*%
%TO.N,/BM1366-1/VDD1*%
X124780000Y-136037500D03*
%TO.P,U21,12,+*%
%TO.N,Net-(U21D-+)*%
X125430000Y-136037500D03*
%TO.P,U21,13,-*%
%TO.N,Net-(U21D--)*%
X126080000Y-136037500D03*
%TO.P,U21,14*%
%TO.N,Net-(R76-Pad1)*%
X126730000Y-136037500D03*
%TD*%
%TO.P,U15,1*%
%TO.N,/BM1366-2/CI2*%
X65375000Y-113850000D03*
%TO.P,U15,2,-*%
%TO.N,Net-(U15A--)*%
X64725000Y-113850000D03*
%TO.P,U15,3,+*%
%TO.N,Net-(U15A-+)*%
X64075000Y-113850000D03*
%TO.P,U15,4,V+*%
%TO.N,/BM1366-2/VDD2*%
X63425000Y-113850000D03*
%TO.P,U15,5,+*%
%TO.N,Net-(U15B-+)*%
X62775000Y-113850000D03*
%TO.P,U15,6,-*%
%TO.N,Net-(U15B--)*%
X62125000Y-113850000D03*
%TO.P,U15,7*%
%TO.N,/BM1366-2/NRSTI2*%
X61475000Y-113850000D03*
%TO.P,U15,8*%
%TO.N,/BM1366-2/BI2*%
X61475000Y-108125000D03*
%TO.P,U15,9,-*%
%TO.N,Net-(U15C--)*%
X62125000Y-108125000D03*
%TO.P,U15,10,+*%
%TO.N,Net-(U15C-+)*%
X62775000Y-108125000D03*
%TO.P,U15,11,V-*%
%TO.N,GND*%
X63425000Y-108125000D03*
%TO.P,U15,12,+*%
%TO.N,Net-(U15D-+)*%
X64075000Y-108125000D03*
%TO.P,U15,13,-*%
%TO.N,Net-(U15D--)*%
X64725000Y-108125000D03*
%TO.P,U15,14*%
%TO.N,Net-(R54-Pad1)*%
X65375000Y-108125000D03*
%TD*%
D23*
%TO.P,TP7,1,1*%
%TO.N,/RO*%
X129500000Y-88600000D03*
%TD*%
D40*
%TO.P,U2,1,VIN*%
%TO.N,/5V*%
X117044100Y-77300000D03*
%TO.P,U2,2,GND*%
%TO.N,GND*%
X117044100Y-76360200D03*
%TO.P,U2,3,EN*%
%TO.N,/5V*%
X117044100Y-75420400D03*
%TO.P,U2,4,NC*%
%TO.N,unconnected-(U2-NC-Pad4)*%
X119800000Y-75420400D03*
%TO.P,U2,5,VOUT*%
%TO.N,/3V3*%
X119800000Y-77300000D03*
%TD*%
D25*
%TO.P,C142,1*%
%TO.N,/BM1366-3/1V8*%
X112280000Y-144500000D03*
%TO.P,C142,2*%
%TO.N,/BM1366-2/VDD2*%
X111320000Y-144500000D03*
%TD*%
D23*
%TO.P,TP39,1,1*%
%TO.N,Net-(U13-ADDR1)*%
X84500000Y-91450000D03*
%TD*%
D22*
%TO.P,C63,1*%
%TO.N,/BM1366-1/VDD1*%
X84625000Y-108920000D03*
%TO.P,C63,2*%
%TO.N,GND*%
X84625000Y-109880000D03*
%TD*%
D34*
%TO.P,C130,1*%
%TO.N,/BM1366-2/VDD2*%
X73220000Y-162500000D03*
%TO.P,C130,2*%
%TO.N,/VDD*%
X74180000Y-162500000D03*
%TD*%
D35*
%TO.P,R3,1*%
%TO.N,/SMB_ALRT*%
X63610000Y-89900000D03*
%TO.P,R3,2*%
%TO.N,/Power/PMB_ALRT*%
X62590000Y-89900000D03*
%TD*%
D22*
%TO.P,C125,1*%
%TO.N,/BM1366-3/0V8*%
X88300000Y-145720000D03*
%TO.P,C125,2*%
%TO.N,/BM1366-2/VDD2*%
X88300000Y-146680000D03*
%TD*%
D30*
%TO.P,R30,1*%
%TO.N,GND*%
X89227500Y-86075000D03*
%TO.P,R30,2*%
%TO.N,Net-(U11-ADJ)*%
X90247500Y-86075000D03*
%TD*%
D22*
%TO.P,C133,1*%
%TO.N,/BM1366-2/VDD2*%
X86500000Y-157320000D03*
%TO.P,C133,2*%
%TO.N,Net-(U22-VDD3_1)*%
X86500000Y-158280000D03*
%TD*%
D25*
%TO.P,C143,1*%
%TO.N,/VDD*%
X73160000Y-159800000D03*
%TO.P,C143,2*%
%TO.N,Net-(U25-VDD1_1)*%
X72200000Y-159800000D03*
%TD*%
D22*
%TO.P,C116,1*%
%TO.N,Net-(U22-VDD3_0)*%
X115900000Y-157140000D03*
%TO.P,C116,2*%
%TO.N,Net-(U22-VDD2_0)*%
X115900000Y-158100000D03*
%TD*%
D34*
%TO.P,C81,1*%
%TO.N,/BM1366-2/0V8*%
X114220000Y-118500000D03*
%TO.P,C81,2*%
%TO.N,/BM1366-1/VDD1*%
X115180000Y-118500000D03*
%TD*%
D25*
%TO.P,C83,1*%
%TO.N,/BM1366-2/1V8*%
X112980000Y-118500000D03*
%TO.P,C83,2*%
%TO.N,/BM1366-1/VDD1*%
X112020000Y-118500000D03*
%TD*%
D30*
%TO.P,R23,1*%
%TO.N,GND*%
X93850000Y-50300000D03*
%TO.P,R23,2*%
%TO.N,Net-(J7-CC2)*%
X94870000Y-50300000D03*
%TD*%
D23*
%TO.P,TP52,1,1*%
%TO.N,Net-(U22-ADDR1)*%
X117900000Y-146100000D03*
%TD*%
D34*
%TO.P,C137,1*%
%TO.N,/VDD*%
X111220000Y-163500000D03*
%TO.P,C137,2*%
%TO.N,/BM1366-2/VDD2*%
X112180000Y-163500000D03*
%TD*%
D23*
%TO.P,TP37,1,1*%
%TO.N,Net-(U12-INV_CLKO)*%
X101925000Y-92025000D03*
%TD*%
D17*
%TO.P,J3,1,Pin_1*%
%TO.N,unconnected-(J3-Pin_1-Pad1)*%
X54450000Y-98970000D03*
D18*
%TO.P,J3,2,Pin_2*%
%TO.N,unconnected-(J3-Pin_2-Pad2)*%
X56990000Y-98970000D03*
%TO.P,J3,3,Pin_3*%
%TO.N,unconnected-(J3-Pin_3-Pad3)*%
X54450000Y-96430000D03*
%TO.P,J3,4,Pin_4*%
%TO.N,unconnected-(J3-Pin_4-Pad4)*%
X56990000Y-96430000D03*
%TO.P,J3,5,Pin_5*%
%TO.N,unconnected-(J3-Pin_5-Pad5)*%
X54450000Y-93890000D03*
%TO.P,J3,6,Pin_6*%
%TO.N,GND*%
X56990000Y-93890000D03*
%TO.P,J3,7,Pin_7*%
%TO.N,unconnected-(J3-Pin_7-Pad7)*%
X54450000Y-91350000D03*
%TO.P,J3,8,Pin_8*%
%TO.N,/Power/PMB_ALRT*%
X56990000Y-91350000D03*
%TO.P,J3,9,Pin_9*%
%TO.N,/Power/PMB_SCL*%
X54450000Y-88810000D03*
%TO.P,J3,10,Pin_10*%
%TO.N,/Power/PMB_SDA*%
X56990000Y-88810000D03*
%TD*%
D41*
%TO.P,C41,1*%
%TO.N,/VIN*%
X90725000Y-77475000D03*
%TO.P,C41,2*%
%TO.N,GND*%
X85325000Y-77475000D03*
%TD*%
D23*
%TO.P,TP49,1,1*%
%TO.N,Net-(U20-ADDR1)*%
X92475000Y-120725000D03*
%TD*%
D26*
%TO.P,R28,1*%
%TO.N,GND*%
X118050000Y-97660000D03*
%TO.P,R28,2*%
%TO.N,/BM1366-1/BI1*%
X118050000Y-96640000D03*
%TD*%
D23*
%TO.P,FID8,*%
%TO.N,*%
X126375000Y-47850000D03*
%TD*%
D33*
%TO.P,R75,1*%
%TO.N,/BM1366-3/RO3*%
X126630000Y-132400000D03*
%TO.P,R75,2*%
%TO.N,Net-(U21D-+)*%
X126630000Y-133420000D03*
%TD*%
D28*
%TO.P,C68,1*%
%TO.N,/BM1366-1/VDD1*%
X89400000Y-107700000D03*
%TO.P,C68,2*%
%TO.N,GND*%
X95800000Y-107700000D03*
%TD*%
D23*
%TO.P,TP3,1,1*%
%TO.N,/5V*%
X110200000Y-85350000D03*
%TD*%
D22*
%TO.P,C17,1*%
%TO.N,Net-(U3-VDD5)*%
X57375000Y-68470000D03*
%TO.P,C17,2*%
%TO.N,GND*%
X57375000Y-69430000D03*
%TD*%
D42*
%TO.P,U1,1,CB*%
%TO.N,Net-(U1-CB)*%
X107150000Y-78237500D03*
%TO.P,U1,2,GND*%
%TO.N,GND*%
X106200000Y-78237500D03*
%TO.P,U1,3,FB*%
%TO.N,Net-(U1-FB)*%
X105250000Y-78237500D03*
%TO.P,U1,4,EN*%
%TO.N,/VIN*%
X105250000Y-75962500D03*
%TO.P,U1,5,VIN*%
X106200000Y-75962500D03*
%TO.P,U1,6,SW*%
%TO.N,Net-(U1-SW)*%
X107150000Y-75962500D03*
%TD*%
D24*
%TO.P,C96,1*%
%TO.N,Net-(U18-VDD1_1)*%
X88125000Y-130330000D03*
%TO.P,C96,2*%
%TO.N,/BM1366-1/VDD1*%
X88125000Y-129370000D03*
%TD*%
D22*
%TO.P,C45,1*%
%TO.N,GND*%
X116000000Y-99950000D03*
%TO.P,C45,2*%
%TO.N,Net-(U12-VDD3_0)*%
X116000000Y-100910000D03*
%TD*%
D26*
%TO.P,R59,1*%
%TO.N,/BM1366-3/CI3*%
X128850000Y-141760000D03*
%TO.P,R59,2*%
%TO.N,Net-(U21A--)*%
X128850000Y-140740000D03*
%TD*%
D24*
%TO.P,C109,1*%
%TO.N,Net-(U20-VDD2_1)*%
X69590000Y-128550000D03*
%TO.P,C109,2*%
%TO.N,Net-(U20-VDD1_1)*%
X69590000Y-127590000D03*
%TD*%
D37*
%TO.P,TP63,1,1*%
%TO.N,/BM1366-3/CO3*%
X64725000Y-146500000D03*
%TD*%
D25*
%TO.P,C99,1*%
%TO.N,/BM1366-2/VDD2*%
X102155000Y-136525000D03*
%TO.P,C99,2*%
%TO.N,/BM1366-1/VDD1*%
X101195000Y-136525000D03*
%TD*%
D39*
%TO.P,C4,1*%
%TO.N,/VIN*%
X62175000Y-66925000D03*
%TO.P,C4,2*%
%TO.N,GND*%
X65125000Y-66925000D03*
%TD*%
D33*
%TO.P,R48,1*%
%TO.N,/BM1366-2/VDD2*%
X62825000Y-104990000D03*
%TO.P,R48,2*%
%TO.N,Net-(U15C-+)*%
X62825000Y-106010000D03*
%TD*%
D24*
%TO.P,C145,1*%
%TO.N,Net-(U25-VDD2_1)*%
X70180000Y-158680000D03*
%TO.P,C145,2*%
%TO.N,Net-(U25-VDD3_1)*%
X70180000Y-157720000D03*
%TD*%
D22*
%TO.P,C64,1*%
%TO.N,GND*%
X87600000Y-99775000D03*
%TO.P,C64,2*%
%TO.N,Net-(U12-VDD3_1)*%
X87600000Y-100735000D03*
%TD*%
D26*
%TO.P,R7,1*%
%TO.N,Net-(U3-VSEL)*%
X54075000Y-58710000D03*
%TO.P,R7,2*%
%TO.N,/Power/AGND*%
X54075000Y-57690000D03*
%TD*%
D34*
%TO.P,C106,1*%
%TO.N,/BM1366-2/1V8*%
X76820000Y-116550000D03*
%TO.P,C106,2*%
%TO.N,/BM1366-1/VDD1*%
X77780000Y-116550000D03*
%TD*%
D23*
%TO.P,FID6,*%
%TO.N,*%
X55626000Y-53340000D03*
%TD*%
%TO.P,TP38,1,1*%
%TO.N,Net-(U13-ADDR0)*%
X86150000Y-92925000D03*
%TD*%
D26*
%TO.P,R62,1*%
%TO.N,/BM1366-2/NRSTO*%
X122880000Y-145400000D03*
%TO.P,R62,2*%
%TO.N,Net-(U21B-+)*%
X122880000Y-144380000D03*
%TD*%
D43*
%TO.P,U14,1,EN*%
%TO.N,/BM1366-1/1V8*%
X122450000Y-105250000D03*
%TO.P,U14,2,GND*%
%TO.N,GND*%
X120150000Y-105250000D03*
%TO.P,U14,3,OUT*%
%TO.N,/BM1366-1/CLKI1*%
X120150000Y-103350000D03*
%TO.P,U14,4,VIN*%
%TO.N,/BM1366-1/1V8*%
X122450000Y-103350000D03*
%TD*%
D33*
%TO.P,R34,1*%
%TO.N,Net-(U15A--)*%
X68750000Y-112690000D03*
%TO.P,R34,2*%
%TO.N,/BM1366-1/VDD1*%
X68750000Y-113710000D03*
%TD*%
D23*
%TO.P,TP14,1,1*%
%TO.N,Net-(U6-GPIO6{slash}TOUCH6{slash}ADC1_CH5)*%
X106300000Y-56550000D03*
%TD*%
D24*
%TO.P,C51,1*%
%TO.N,GND*%
X96837500Y-84755000D03*
%TO.P,C51,2*%
%TO.N,/5V*%
X96837500Y-83795000D03*
%TD*%
D26*
%TO.P,R61,1*%
%TO.N,/VDD*%
X124130000Y-145400000D03*
%TO.P,R61,2*%
%TO.N,Net-(U21B-+)*%
X124130000Y-144380000D03*
%TD*%
D27*
%TO.P,C20,1*%
%TO.N,/5V*%
X109700000Y-82700000D03*
%TO.P,C20,2*%
%TO.N,GND*%
X107800000Y-82700000D03*
%TD*%
D26*
%TO.P,R51,1*%
%TO.N,Net-(U15D--)*%
X68750000Y-109210000D03*
%TO.P,R51,2*%
%TO.N,/BM1366-1/VDD1*%
X68750000Y-108190000D03*
%TD*%
D23*
%TO.P,TP16,1,1*%
%TO.N,Net-(U6-GPIO8{slash}TOUCH8{slash}ADC1_CH7{slash}SUBSPICS1)*%
X112250000Y-54100000D03*
%TD*%
D24*
%TO.P,C55,1*%
%TO.N,/BM1366-1/1V8*%
X104600000Y-90805000D03*
%TO.P,C55,2*%
%TO.N,GND*%
X104600000Y-89845000D03*
%TD*%
D35*
%TO.P,R22,1*%
%TO.N,GND*%
X98970000Y-50300000D03*
%TO.P,R22,2*%
%TO.N,Net-(J7-CC1)*%
X97950000Y-50300000D03*
%TD*%
%TO.P,R32,1*%
%TO.N,/BM1366-1/1V8*%
X90247500Y-83775000D03*
%TO.P,R32,2*%
%TO.N,Net-(U11-ADJ)*%
X89227500Y-83775000D03*
%TD*%
D29*
%TO.P,U16,1,VIN*%
%TO.N,/5V*%
X95437500Y-111150000D03*
%TO.P,U16,2,GND*%
%TO.N,/BM1366-1/VDD1*%
X95437500Y-112100000D03*
%TO.P,U16,3,EN*%
%TO.N,/5V*%
X95437500Y-113050000D03*
%TO.P,U16,4,ADJ*%
%TO.N,Net-(U16-ADJ)*%
X93162500Y-113050000D03*
%TO.P,U16,5,VOUT*%
%TO.N,/BM1366-2/1V8*%
X93162500Y-111150000D03*
%TD*%
D24*
%TO.P,C122,1*%
%TO.N,/BM1366-2/VDD2*%
X96900000Y-140980000D03*
%TO.P,C122,2*%
%TO.N,/5V*%
X96900000Y-140020000D03*
%TD*%
D34*
%TO.P,C117,1*%
%TO.N,/BM1366-3/0V8*%
X114020000Y-146800000D03*
%TO.P,C117,2*%
%TO.N,/BM1366-2/VDD2*%
X114980000Y-146800000D03*
%TD*%
D30*
%TO.P,R31,1*%
%TO.N,Net-(U10-ADJ)*%
X90827500Y-89075000D03*
%TO.P,R31,2*%
%TO.N,/BM1366-1/0V8*%
X91847500Y-89075000D03*
%TD*%
D44*
%TO.P,C31,1*%
%TO.N,/3V3*%
X108250000Y-49100000D03*
%TO.P,C31,2*%
%TO.N,GND*%
X110150000Y-49100000D03*
%TD*%
D23*
%TO.P,TP36,1,1*%
%TO.N,/BM1366-1/1V8*%
X101237500Y-85175000D03*
%TD*%
D33*
%TO.P,R55,1*%
%TO.N,/BM1366-1/RI*%
X70250000Y-106265000D03*
%TO.P,R55,2*%
%TO.N,Net-(R54-Pad1)*%
X70250000Y-107285000D03*
%TD*%
D23*
%TO.P,TP43,1,1*%
%TO.N,Net-(U18-ADDR0)*%
X119600000Y-118700000D03*
%TD*%
D24*
%TO.P,C48,1*%
%TO.N,/BM1366-1/1V8*%
X111425000Y-90805000D03*
%TO.P,C48,2*%
%TO.N,GND*%
X111425000Y-89845000D03*
%TD*%
D23*
%TO.P,TP31,1,1*%
%TO.N,/ESP32/IO0*%
X131000000Y-66100000D03*
%TD*%
%TO.P,TP47,1,1*%
%TO.N,Net-(U18-INV_CLKO)*%
X98725000Y-122050000D03*
%TD*%
D24*
%TO.P,C78,1*%
%TO.N,Net-(U13-VDD3_1)*%
X69700000Y-100505000D03*
%TO.P,C78,2*%
%TO.N,GND*%
X69700000Y-99545000D03*
%TD*%
D29*
%TO.P,U24,1,VIN*%
%TO.N,/5V*%
X94937500Y-140050000D03*
%TO.P,U24,2,GND*%
%TO.N,/BM1366-2/VDD2*%
X94937500Y-141000000D03*
%TO.P,U24,3,EN*%
%TO.N,/5V*%
X94937500Y-141950000D03*
%TO.P,U24,4,ADJ*%
%TO.N,Net-(U24-ADJ)*%
X92662500Y-141950000D03*
%TO.P,U24,5,VOUT*%
%TO.N,/BM1366-3/1V8*%
X92662500Y-140050000D03*
%TD*%
D30*
%TO.P,R21,1*%
%TO.N,GND*%
X116090000Y-80500000D03*
%TO.P,R21,2*%
%TO.N,Net-(U5-OE)*%
X117110000Y-80500000D03*
%TD*%
D23*
%TO.P,TP23,1,1*%
%TO.N,Net-(U5-DIR4)*%
X116800000Y-83950000D03*
%TD*%
D24*
%TO.P,C102,1*%
%TO.N,/BM1366-2/0V8*%
X83550000Y-118830000D03*
%TO.P,C102,2*%
%TO.N,/BM1366-1/VDD1*%
X83550000Y-117870000D03*
%TD*%
D34*
%TO.P,C90,1*%
%TO.N,/BM1366-2/VDD2*%
X86020000Y-132300000D03*
%TO.P,C90,2*%
%TO.N,Net-(U18-VDD3_1)*%
X86980000Y-132300000D03*
%TD*%
D24*
%TO.P,C110,1*%
%TO.N,/BM1366-2/1V8*%
X73500000Y-118780000D03*
%TO.P,C110,2*%
%TO.N,/BM1366-1/VDD1*%
X73500000Y-117820000D03*
%TD*%
D43*
%TO.P,U19,1,EN*%
%TO.N,/BM1366-2/1V8*%
X75150000Y-115750000D03*
%TO.P,U19,2,GND*%
%TO.N,/BM1366-1/VDD1*%
X72850000Y-115750000D03*
%TO.P,U19,3,OUT*%
%TO.N,/BM1366-2/CLKI2*%
X72850000Y-113850000D03*
%TO.P,U19,4,VIN*%
%TO.N,/BM1366-2/1V8*%
X75150000Y-113850000D03*
%TD*%
D23*
%TO.P,FID4,*%
%TO.N,*%
X130350000Y-166550000D03*
%TD*%
D33*
%TO.P,R52,1*%
%TO.N,GND*%
X64125000Y-104977500D03*
%TO.P,R52,2*%
%TO.N,Net-(U15D-+)*%
X64125000Y-105997500D03*
%TD*%
%TO.P,R72,1*%
%TO.N,/BM1366-3/BI3*%
X120625000Y-136065000D03*
%TO.P,R72,2*%
%TO.N,Net-(U21C--)*%
X120625000Y-137085000D03*
%TD*%
D26*
%TO.P,R58,1*%
%TO.N,/BM1366-2/CO*%
X126630000Y-145400000D03*
%TO.P,R58,2*%
%TO.N,Net-(U21A-+)*%
X126630000Y-144380000D03*
%TD*%
D33*
%TO.P,R56,1*%
%TO.N,Net-(U21A--)*%
X130050000Y-140740000D03*
%TO.P,R56,2*%
%TO.N,/BM1366-2/VDD2*%
X130050000Y-141760000D03*
%TD*%
D24*
%TO.P,C61,1*%
%TO.N,Net-(U12-VDD3_1)*%
X98825000Y-101450000D03*
%TO.P,C61,2*%
%TO.N,GND*%
X98825000Y-100490000D03*
%TD*%
D34*
%TO.P,C146,1*%
%TO.N,/BM1366-3/1V8*%
X72520000Y-146150000D03*
%TO.P,C146,2*%
%TO.N,/BM1366-2/VDD2*%
X73480000Y-146150000D03*
%TD*%
D23*
%TO.P,TP20,1,1*%
%TO.N,/3V3*%
X112800000Y-48800000D03*
%TD*%
D24*
%TO.P,C77,1*%
%TO.N,Net-(U13-VDD2_1)*%
X70900000Y-101475000D03*
%TO.P,C77,2*%
%TO.N,Net-(U13-VDD3_1)*%
X70900000Y-100515000D03*
%TD*%
D23*
%TO.P,TP19,1,1*%
%TO.N,Net-(U6-GPIO14{slash}TOUCH14{slash}ADC2_CH3{slash}FSPIWP{slash}FSPIDQS{slash}SUBSPIWP)*%
X103650000Y-61200000D03*
%TD*%
D30*
%TO.P,R64,1*%
%TO.N,/BM1366-2/VDD2*%
X89690000Y-142200000D03*
%TO.P,R64,2*%
%TO.N,Net-(U24-ADJ)*%
X90710000Y-142200000D03*
%TD*%
D25*
%TO.P,C127,1*%
%TO.N,Net-(U22-VDD1_1)*%
X101480000Y-160700000D03*
%TO.P,C127,2*%
%TO.N,Net-(U22-VDD2_1)*%
X100520000Y-160700000D03*
%TD*%
D23*
%TO.P,TP18,1,1*%
%TO.N,Net-(U6-GPIO12{slash}TOUCH12{slash}ADC2_CH1{slash}FSPICLK{slash}FSPIIO6{slash}SUBSPICLK)*%
X105050000Y-65100000D03*
%TD*%
%TO.P,TP55,1,1*%
%TO.N,/BM1366-3/1V8*%
X101200000Y-141300000D03*
%TD*%
D24*
%TO.P,C47,1*%
%TO.N,/BM1366-1/0V8*%
X112625000Y-90805000D03*
%TO.P,C47,2*%
%TO.N,GND*%
X112625000Y-89845000D03*
%TD*%
D22*
%TO.P,C54,1*%
%TO.N,/BM1366-1/1V8*%
X87337500Y-83995000D03*
%TO.P,C54,2*%
%TO.N,GND*%
X87337500Y-84955000D03*
%TD*%
D23*
%TO.P,TP45,1,1*%
%TO.N,/BM1366-2/1V8*%
X101800000Y-114400000D03*
%TD*%
%TO.P,TP46,1,1*%
%TO.N,/BM1366-2/0V8*%
X85850000Y-117000000D03*
%TD*%
%TO.P,TP24,1,1*%
%TO.N,/ESP32/EN*%
X118200000Y-47700000D03*
%TD*%
D22*
%TO.P,C79,1*%
%TO.N,/BM1366-1/VDD1*%
X117000000Y-128300000D03*
%TO.P,C79,2*%
%TO.N,Net-(U18-VDD1_0)*%
X117000000Y-129260000D03*
%TD*%
%TO.P,C135,1*%
%TO.N,Net-(U22-VDD3_1)*%
X85200000Y-158340000D03*
%TO.P,C135,2*%
%TO.N,Net-(U22-VDD2_1)*%
X85200000Y-159300000D03*
%TD*%
D35*
%TO.P,R40,1*%
%TO.N,/BM1366-2/1V8*%
X91010000Y-111200000D03*
%TO.P,R40,2*%
%TO.N,Net-(U16-ADJ)*%
X89990000Y-111200000D03*
%TD*%
D23*
%TO.P,TP35,1,1*%
%TO.N,/BM1366-1/0V8*%
X88187500Y-88715000D03*
%TD*%
D26*
%TO.P,R43,1*%
%TO.N,/BM1366-2/VDD2*%
X62775000Y-117700000D03*
%TO.P,R43,2*%
%TO.N,Net-(U15B-+)*%
X62775000Y-116680000D03*
%TD*%
D25*
%TO.P,C43,1*%
%TO.N,/VIN*%
X86655000Y-70550000D03*
%TO.P,C43,2*%
%TO.N,GND*%
X85695000Y-70550000D03*
%TD*%
D22*
%TO.P,C85,1*%
%TO.N,Net-(U18-VDD2_0)*%
X115900000Y-131220000D03*
%TO.P,C85,2*%
%TO.N,Net-(U18-VDD3_0)*%
X115900000Y-132180000D03*
%TD*%
D24*
%TO.P,C121,1*%
%TO.N,/BM1366-2/VDD2*%
X96900000Y-146280000D03*
%TO.P,C121,2*%
%TO.N,/5V*%
X96900000Y-145320000D03*
%TD*%
D23*
%TO.P,TP50,1,1*%
%TO.N,Net-(U20-INV_CLKO)*%
X69475000Y-116875000D03*
%TD*%
D24*
%TO.P,C58,1*%
%TO.N,/BM1366-1/0V8*%
X103375000Y-90830000D03*
%TO.P,C58,2*%
%TO.N,GND*%
X103375000Y-89870000D03*
%TD*%
D25*
%TO.P,C141,1*%
%TO.N,Net-(U22-VDD1_1)*%
X82780000Y-160600000D03*
%TO.P,C141,2*%
%TO.N,/VDD*%
X81820000Y-160600000D03*
%TD*%
D23*
%TO.P,TP15,1,1*%
%TO.N,Net-(U6-GPIO7{slash}TOUCH7{slash}ADC1_CH6)*%
X103900000Y-56550000D03*
%TD*%
D22*
%TO.P,C105,1*%
%TO.N,Net-(U18-VDD3_1)*%
X99650000Y-131015000D03*
%TO.P,C105,2*%
%TO.N,/BM1366-2/VDD2*%
X99650000Y-131975000D03*
%TD*%
D26*
%TO.P,R36,1*%
%TO.N,/BM1366-1/CO*%
X65275000Y-117700000D03*
%TO.P,R36,2*%
%TO.N,Net-(U15A-+)*%
X65275000Y-116680000D03*
%TD*%
D34*
%TO.P,C62,1*%
%TO.N,GND*%
X100820000Y-106750000D03*
%TO.P,C62,2*%
%TO.N,/BM1366-1/VDD1*%
X101780000Y-106750000D03*
%TD*%
D35*
%TO.P,R66,1*%
%TO.N,/BM1366-3/1V8*%
X90810000Y-139700000D03*
%TO.P,R66,2*%
%TO.N,Net-(U24-ADJ)*%
X89790000Y-139700000D03*
%TD*%
D33*
%TO.P,R76,1*%
%TO.N,Net-(R76-Pad1)*%
X128675000Y-136065000D03*
%TO.P,R76,2*%
%TO.N,Net-(U21D--)*%
X128675000Y-137085000D03*
%TD*%
D22*
%TO.P,C148,1*%
%TO.N,/BM1366-1/VDD1*%
X121030000Y-138420000D03*
%TO.P,C148,2*%
%TO.N,/VDD*%
X121030000Y-139380000D03*
%TD*%
D26*
%TO.P,R10,1*%
%TO.N,Net-(U3-MSEL1)*%
X53475000Y-74260000D03*
%TO.P,R10,2*%
%TO.N,/Power/AGND*%
X53475000Y-73240000D03*
%TD*%
D29*
%TO.P,U10,1,VIN*%
%TO.N,/5V*%
X96075000Y-88825000D03*
%TO.P,U10,2,GND*%
%TO.N,GND*%
X96075000Y-89775000D03*
%TO.P,U10,3,EN*%
%TO.N,/5V*%
X96075000Y-90725000D03*
%TO.P,U10,4,ADJ*%
%TO.N,Net-(U10-ADJ)*%
X93800000Y-90725000D03*
%TO.P,U10,5,VOUT*%
%TO.N,/BM1366-1/0V8*%
X93800000Y-88825000D03*
%TD*%
D23*
%TO.P,TP28,1,1*%
%TO.N,Net-(U6-SPIIO7{slash}GPIO36{slash}FSPICLK{slash}SUBSPICLK)*%
X120200000Y-59750000D03*
%TD*%
D45*
%TO.P,U26,1,EN*%
%TO.N,/BM1366-3/1V8*%
X114250000Y-144650000D03*
%TO.P,U26,2,GND*%
%TO.N,/BM1366-2/VDD2*%
X114250000Y-142350000D03*
%TO.P,U26,3,OUT*%
%TO.N,/BM1366-3/CLKI3*%
X116150000Y-142350000D03*
%TO.P,U26,4,VIN*%
%TO.N,/BM1366-3/1V8*%
X116150000Y-144650000D03*
%TD*%
D26*
%TO.P,R33,1*%
%TO.N,GND*%
X100000000Y-100510000D03*
%TO.P,R33,2*%
%TO.N,Net-(U12-NRSTO)*%
X100000000Y-99490000D03*
%TD*%
D24*
%TO.P,C25,1*%
%TO.N,/1V8*%
X124100000Y-75380000D03*
%TO.P,C25,2*%
%TO.N,GND*%
X124100000Y-74420000D03*
%TD*%
D25*
%TO.P,C134,1*%
%TO.N,/VDD*%
X74180000Y-163800000D03*
%TO.P,C134,2*%
%TO.N,/BM1366-2/VDD2*%
X73220000Y-163800000D03*
%TD*%
D35*
%TO.P,R2,1*%
%TO.N,/SCL*%
X63635000Y-87425000D03*
%TO.P,R2,2*%
%TO.N,/Power/PMB_SCL*%
X62615000Y-87425000D03*
%TD*%
D30*
%TO.P,R41,1*%
%TO.N,Net-(U17-ADJ)*%
X89790000Y-116000000D03*
%TO.P,R41,2*%
%TO.N,/BM1366-2/0V8*%
X90810000Y-116000000D03*
%TD*%
D24*
%TO.P,C56,1*%
%TO.N,/BM1366-1/VDD1*%
X97575000Y-104450000D03*
%TO.P,C56,2*%
%TO.N,Net-(U12-VDD1_1)*%
X97575000Y-103490000D03*
%TD*%
D22*
%TO.P,C103,1*%
%TO.N,Net-(U18-VDD2_1)*%
X98550000Y-130015000D03*
%TO.P,C103,2*%
%TO.N,Net-(U18-VDD3_1)*%
X98550000Y-130975000D03*
%TD*%
%TO.P,C46,1*%
%TO.N,Net-(U12-VDD3_0)*%
X114925000Y-100925000D03*
%TO.P,C46,2*%
%TO.N,Net-(U12-VDD2_0)*%
X114925000Y-101885000D03*
%TD*%
%TO.P,C115,1*%
%TO.N,/BM1366-2/VDD2*%
X117100000Y-156140000D03*
%TO.P,C115,2*%
%TO.N,Net-(U22-VDD3_0)*%
X117100000Y-157100000D03*
%TD*%
D23*
%TO.P,TP56,1,1*%
%TO.N,Net-(U25-ADDR0)*%
X86475000Y-150625000D03*
%TD*%
D24*
%TO.P,C104,1*%
%TO.N,/BM1366-2/1V8*%
X82100000Y-118855000D03*
%TO.P,C104,2*%
%TO.N,/BM1366-1/VDD1*%
X82100000Y-117895000D03*
%TD*%
D23*
%TO.P,TP42,1,1*%
%TO.N,Net-(U18-CLKO)*%
X116200000Y-136625000D03*
%TD*%
D24*
%TO.P,C75,1*%
%TO.N,Net-(U13-VDD1_1)*%
X69700000Y-102600000D03*
%TO.P,C75,2*%
%TO.N,Net-(U13-VDD2_1)*%
X69700000Y-101640000D03*
%TD*%
D22*
%TO.P,C53,1*%
%TO.N,/BM1366-1/0V8*%
X89437500Y-89795000D03*
%TO.P,C53,2*%
%TO.N,GND*%
X89437500Y-90755000D03*
%TD*%
D33*
%TO.P,R74,1*%
%TO.N,/BM1366-1/VDD1*%
X125380000Y-132400000D03*
%TO.P,R74,2*%
%TO.N,Net-(U21D-+)*%
X125380000Y-133420000D03*
%TD*%
D23*
%TO.P,TP25,1,1*%
%TO.N,/ESP32/P_TX*%
X126450000Y-51225000D03*
%TD*%
D29*
%TO.P,U17,1,VIN*%
%TO.N,/5V*%
X95537500Y-116350000D03*
%TO.P,U17,2,GND*%
%TO.N,/BM1366-1/VDD1*%
X95537500Y-117300000D03*
%TO.P,U17,3,EN*%
%TO.N,/5V*%
X95537500Y-118250000D03*
%TO.P,U17,4,ADJ*%
%TO.N,Net-(U17-ADJ)*%
X93262500Y-118250000D03*
%TO.P,U17,5,VOUT*%
%TO.N,/BM1366-2/0V8*%
X93262500Y-116350000D03*
%TD*%
D33*
%TO.P,R77,1*%
%TO.N,/BM1366-2/RI*%
X128600000Y-130290000D03*
%TO.P,R77,2*%
%TO.N,Net-(R76-Pad1)*%
X128600000Y-131310000D03*
%TD*%
D39*
%TO.P,C7,1*%
%TO.N,/VIN*%
X62225000Y-63600000D03*
%TO.P,C7,2*%
%TO.N,GND*%
X65175000Y-63600000D03*
%TD*%
D37*
%TO.P,TP59,1,1*%
%TO.N,/BM1366-3/NRSTO3*%
X64700000Y-159100000D03*
%TD*%
D33*
%TO.P,R50,1*%
%TO.N,/BM1366-2/BI2*%
X59250000Y-108190000D03*
%TO.P,R50,2*%
%TO.N,Net-(U15C--)*%
X59250000Y-109210000D03*
%TD*%
D30*
%TO.P,R63,1*%
%TO.N,/BM1366-2/VDD2*%
X89690000Y-147400000D03*
%TO.P,R63,2*%
%TO.N,Net-(U23-ADJ)*%
X90710000Y-147400000D03*
%TD*%
D26*
%TO.P,R5,1*%
%TO.N,Net-(U3-BP1V5)*%
X53225000Y-76535000D03*
%TO.P,R5,2*%
%TO.N,Net-(U3-MSEL1)*%
X53225000Y-75515000D03*
%TD*%
D24*
%TO.P,C74,1*%
%TO.N,/BM1366-1/1V8*%
X74450000Y-90830000D03*
%TO.P,C74,2*%
%TO.N,GND*%
X74450000Y-89870000D03*
%TD*%
D34*
%TO.P,C89,1*%
%TO.N,/BM1366-2/1V8*%
X103120000Y-118500000D03*
%TO.P,C89,2*%
%TO.N,/BM1366-1/VDD1*%
X104080000Y-118500000D03*
%TD*%
%TO.P,C33,1*%
%TO.N,/3V3*%
X108220000Y-50900000D03*
%TO.P,C33,2*%
%TO.N,GND*%
X109180000Y-50900000D03*
%TD*%
D24*
%TO.P,C93,1*%
%TO.N,/BM1366-1/VDD1*%
X86100000Y-137825000D03*
%TO.P,C93,2*%
%TO.N,/BM1366-2/VDD2*%
X86100000Y-136865000D03*
%TD*%
D33*
%TO.P,R42,1*%
%TO.N,Net-(U15B--)*%
X58050000Y-112690000D03*
%TO.P,R42,2*%
%TO.N,/BM1366-1/VDD1*%
X58050000Y-113710000D03*
%TD*%
D22*
%TO.P,C98,1*%
%TO.N,/BM1366-1/VDD1*%
X98550000Y-128015000D03*
%TO.P,C98,2*%
%TO.N,Net-(U18-VDD1_1)*%
X98550000Y-128975000D03*
%TD*%
D41*
%TO.P,C42,1*%
%TO.N,/VIN*%
X88300000Y-65500000D03*
%TO.P,C42,2*%
%TO.N,GND*%
X82900000Y-65500000D03*
%TD*%
D34*
%TO.P,C123,1*%
%TO.N,/BM1366-3/1V8*%
X103220000Y-146800000D03*
%TO.P,C123,2*%
%TO.N,/BM1366-2/VDD2*%
X104180000Y-146800000D03*
%TD*%
D46*
%TO.P,L1,1,1*%
%TO.N,Net-(U1-SW)*%
X111950000Y-74415000D03*
%TO.P,L1,2,2*%
%TO.N,/5V*%
X111950000Y-77485000D03*
%TD*%
D23*
%TO.P,TP13,1,1*%
%TO.N,Net-(U6-GPIO5{slash}TOUCH5{slash}ADC1_CH4)*%
X105400000Y-54400000D03*
%TD*%
D30*
%TO.P,R29,1*%
%TO.N,GND*%
X90827500Y-90775000D03*
%TO.P,R29,2*%
%TO.N,Net-(U10-ADJ)*%
X91847500Y-90775000D03*
%TD*%
%TO.P,R65,1*%
%TO.N,Net-(U23-ADJ)*%
X89990000Y-145000000D03*
%TO.P,R65,2*%
%TO.N,/BM1366-3/0V8*%
X91010000Y-145000000D03*
%TD*%
D22*
%TO.P,C11,1*%
%TO.N,/5V*%
X115272050Y-77330200D03*
%TO.P,C11,2*%
%TO.N,GND*%
X115272050Y-78290200D03*
%TD*%
D47*
%TO.P,C6,1*%
%TO.N,GND*%
X102225000Y-75000000D03*
%TO.P,C6,2*%
%TO.N,/VIN*%
X103775000Y-75000000D03*
%TD*%
D23*
%TO.P,TP44,1,1*%
%TO.N,Net-(U18-ADDR1)*%
X119600000Y-116600000D03*
%TD*%
D33*
%TO.P,R60,1*%
%TO.N,Net-(U21B--)*%
X119200000Y-140715000D03*
%TO.P,R60,2*%
%TO.N,/BM1366-2/VDD2*%
X119200000Y-141735000D03*
%TD*%
%TO.P,R6,1*%
%TO.N,/Power/AGND*%
X55275000Y-57690000D03*
%TO.P,R6,2*%
%TO.N,Net-(U3-MSEL2)*%
X55275000Y-58710000D03*
%TD*%
D23*
%TO.P,TP4,1,1*%
%TO.N,/1V8*%
X130100000Y-75400000D03*
%TD*%
D25*
%TO.P,C139,1*%
%TO.N,/BM1366-3/1V8*%
X82880000Y-146600000D03*
%TO.P,C139,2*%
%TO.N,/BM1366-2/VDD2*%
X81920000Y-146600000D03*
%TD*%
D22*
%TO.P,C71,1*%
%TO.N,Net-(U12-VDD1_1)*%
X86350000Y-102775000D03*
%TO.P,C71,2*%
%TO.N,/BM1366-1/VDD1*%
X86350000Y-103735000D03*
%TD*%
D26*
%TO.P,R67,1*%
%TO.N,/BM1366-3/NRSTI3*%
X120550000Y-141735000D03*
%TO.P,R67,2*%
%TO.N,Net-(U21B--)*%
X120550000Y-140715000D03*
%TD*%
D35*
%TO.P,R1,1*%
%TO.N,/SDA*%
X63635000Y-88675000D03*
%TO.P,R1,2*%
%TO.N,/Power/PMB_SDA*%
X62615000Y-88675000D03*
%TD*%
%TO.P,R46,1*%
%TO.N,/BM1366-1/VDD1*%
X99560000Y-120525000D03*
%TO.P,R46,2*%
%TO.N,Net-(U18-NRSTI)*%
X98540000Y-120525000D03*
%TD*%
D25*
%TO.P,C128,1*%
%TO.N,/BM1366-3/0V8*%
X101580000Y-146800000D03*
%TO.P,C128,2*%
%TO.N,/BM1366-2/VDD2*%
X100620000Y-146800000D03*
%TD*%
D37*
%TO.P,TP61,1,1*%
%TO.N,/BM1366-3/RI3*%
X68300000Y-153200000D03*
%TD*%
D23*
%TO.P,TP21,1,1*%
%TO.N,GND*%
X112800000Y-50900000D03*
%TD*%
D26*
%TO.P,R57,1*%
%TO.N,/VDD*%
X125380000Y-145400000D03*
%TO.P,R57,2*%
%TO.N,Net-(U21A-+)*%
X125380000Y-144380000D03*
%TD*%
D36*
%TO.P,C29,1*%
%TO.N,/VDD*%
X74750000Y-69825000D03*
%TO.P,C29,2*%
%TO.N,GND*%
X74750000Y-66875000D03*
%TD*%
D22*
%TO.P,C119,1*%
%TO.N,Net-(U22-VDD2_0)*%
X115900000Y-159340000D03*
%TO.P,C119,2*%
%TO.N,Net-(U22-VDD1_0)*%
X115900000Y-160300000D03*
%TD*%
%TO.P,C80,1*%
%TO.N,Net-(U18-VDD1_0)*%
X115900000Y-129300000D03*
%TO.P,C80,2*%
%TO.N,Net-(U18-VDD2_0)*%
X115900000Y-130260000D03*
%TD*%
D25*
%TO.P,C120,1*%
%TO.N,Net-(U22-VDD1_0)*%
X114600000Y-159820000D03*
%TO.P,C120,2*%
%TO.N,/VDD*%
X113640000Y-159820000D03*
%TD*%
D23*
%TO.P,TP9,1,1*%
%TO.N,/NRSTI*%
X129400000Y-93200000D03*
%TD*%
%TO.P,TP27,1,1*%
%TO.N,Net-(U6-SPIIO6{slash}GPIO35{slash}FSPID{slash}SUBSPID)*%
X120200000Y-61800000D03*
%TD*%
%TO.P,TP8,1,1*%
%TO.N,/CI*%
X129500000Y-90900000D03*
%TD*%
D25*
%TO.P,C34,1*%
%TO.N,GND*%
X126180000Y-81100000D03*
%TO.P,C34,2*%
%TO.N,/1V8*%
X125220000Y-81100000D03*
%TD*%
D27*
%TO.P,C1,1*%
%TO.N,/VIN*%
X104100000Y-72900000D03*
%TO.P,C1,2*%
%TO.N,GND*%
X102200000Y-72900000D03*
%TD*%
D26*
%TO.P,R45,1*%
%TO.N,/BM1366-2/NRSTI2*%
X59275000Y-113720000D03*
%TO.P,R45,2*%
%TO.N,Net-(U15B--)*%
X59275000Y-112700000D03*
%TD*%
D33*
%TO.P,R70,1*%
%TO.N,/VDD*%
X124130000Y-132400000D03*
%TO.P,R70,2*%
%TO.N,Net-(U21C-+)*%
X124130000Y-133420000D03*
%TD*%
D23*
%TO.P,TP57,1,1*%
%TO.N,Net-(U25-ADDR1)*%
X88350000Y-149600000D03*
%TD*%
D33*
%TO.P,R35,1*%
%TO.N,Net-(U15A-+)*%
X64025000Y-116690000D03*
%TO.P,R35,2*%
%TO.N,/BM1366-2/VDD2*%
X64025000Y-117710000D03*
%TD*%
D28*
%TO.P,C101,1*%
%TO.N,/BM1366-2/VDD2*%
X89800000Y-135700000D03*
%TO.P,C101,2*%
%TO.N,/BM1366-1/VDD1*%
X96200000Y-135700000D03*
%TD*%
D22*
%TO.P,C49,1*%
%TO.N,Net-(U12-VDD2_0)*%
X116000000Y-102150000D03*
%TO.P,C49,2*%
%TO.N,Net-(U12-VDD1_0)*%
X116000000Y-103110000D03*
%TD*%
D25*
%TO.P,C65,1*%
%TO.N,/BM1366-1/VDD1*%
X101780000Y-108450000D03*
%TO.P,C65,2*%
%TO.N,GND*%
X100820000Y-108450000D03*
%TD*%
D33*
%TO.P,R53,1*%
%TO.N,/BM1366-2/RO2*%
X65375000Y-104977500D03*
%TO.P,R53,2*%
%TO.N,Net-(U15D-+)*%
X65375000Y-105997500D03*
%TD*%
D34*
%TO.P,C95,1*%
%TO.N,/BM1366-1/VDD1*%
X101195000Y-135050000D03*
%TO.P,C95,2*%
%TO.N,/BM1366-2/VDD2*%
X102155000Y-135050000D03*
%TD*%
D41*
%TO.P,C30,1*%
%TO.N,/VDD*%
X73700000Y-83250000D03*
%TO.P,C30,2*%
%TO.N,GND*%
X68100000Y-83250000D03*
%TD*%
D25*
%TO.P,C86,1*%
%TO.N,Net-(U18-VDD3_0)*%
X114580000Y-131700000D03*
%TO.P,C86,2*%
%TO.N,/BM1366-2/VDD2*%
X113620000Y-131700000D03*
%TD*%
D26*
%TO.P,R44,1*%
%TO.N,/BM1366-1/NRSTO*%
X61525000Y-117700000D03*
%TO.P,R44,2*%
%TO.N,Net-(U15B-+)*%
X61525000Y-116680000D03*
%TD*%
D34*
%TO.P,C21,1*%
%TO.N,/3V3*%
X126320000Y-67800000D03*
%TO.P,C21,2*%
%TO.N,GND*%
X127280000Y-67800000D03*
%TD*%
D22*
%TO.P,C136,1*%
%TO.N,/BM1366-3/0V8*%
X86500000Y-145695000D03*
%TO.P,C136,2*%
%TO.N,/BM1366-2/VDD2*%
X86500000Y-146655000D03*
%TD*%
D24*
%TO.P,C82,1*%
%TO.N,/BM1366-1/VDD1*%
X97500000Y-112080000D03*
%TO.P,C82,2*%
%TO.N,/5V*%
X97500000Y-111120000D03*
%TD*%
D30*
%TO.P,R27,1*%
%TO.N,/Fan/FAN1_PWM*%
X89840000Y-63025000D03*
%TO.P,R27,2*%
%TO.N,/5V*%
X90860000Y-63025000D03*
%TD*%
D34*
%TO.P,C73,1*%
%TO.N,/BM1366-1/1V8*%
X122520000Y-102000000D03*
%TO.P,C73,2*%
%TO.N,GND*%
X123480000Y-102000000D03*
%TD*%
D48*
%TO.N,GND*%
X82350000Y-94425000D03*
D49*
X106200000Y-81550000D03*
X103500000Y-77100000D03*
D48*
X65825000Y-83275000D03*
D49*
X68325000Y-59175000D03*
X66800000Y-65150000D03*
X108750000Y-56900000D03*
X99850000Y-55000000D03*
X66800000Y-67625000D03*
D48*
X63200000Y-73600000D03*
D49*
X78000000Y-88180000D03*
X108750000Y-89250000D03*
D48*
X63200000Y-71200000D03*
D49*
X109500000Y-88250000D03*
X114500000Y-54100000D03*
X109500000Y-90250000D03*
D48*
X64200000Y-72800000D03*
D49*
X128900000Y-68800000D03*
X124800000Y-73450000D03*
X98025000Y-107000000D03*
D48*
X64200000Y-71800000D03*
D49*
X66800000Y-61075000D03*
X78000000Y-90250000D03*
D48*
X74025000Y-94900000D03*
X64125000Y-104050000D03*
X64200000Y-69800000D03*
D49*
X108000000Y-88250000D03*
D48*
X95600000Y-71250000D03*
X63900000Y-67425000D03*
D49*
X120000000Y-47900000D03*
X106500000Y-88250000D03*
X77650000Y-65600000D03*
D48*
X84675000Y-100025000D03*
D49*
X100800000Y-73050000D03*
X79500000Y-90250000D03*
D48*
X77600000Y-52550000D03*
X83600000Y-49400000D03*
D49*
X117072050Y-78910200D03*
X106500000Y-90250000D03*
D48*
X96400000Y-85800000D03*
D49*
X99625000Y-108500000D03*
X89750000Y-104650000D03*
X126200000Y-82200000D03*
X76500000Y-92250000D03*
X78750000Y-89250000D03*
X75900000Y-65400000D03*
D48*
X69700000Y-78875000D03*
D49*
X107250000Y-89250000D03*
X77250000Y-91250000D03*
X74550000Y-59200000D03*
D48*
X63200000Y-70000000D03*
D49*
X98025000Y-108500000D03*
D48*
X104072842Y-94752612D03*
X117575000Y-98975000D03*
X124425000Y-102500000D03*
D49*
X106200000Y-80100000D03*
X114850000Y-80450000D03*
X111200000Y-50900000D03*
D48*
X116000000Y-98775000D03*
X101175000Y-89850000D03*
D49*
X107250000Y-91250000D03*
X78750000Y-91250000D03*
X106500000Y-92250000D03*
X75925000Y-62825000D03*
D48*
X72000000Y-99550000D03*
D49*
X108000000Y-92250000D03*
X78000000Y-92250000D03*
X78950000Y-65600000D03*
X71375000Y-67600000D03*
X69075000Y-67625000D03*
D48*
X65800000Y-82325000D03*
D49*
X74650000Y-65400000D03*
X77250000Y-89250000D03*
D48*
X69700000Y-80000000D03*
D49*
X66825000Y-66400000D03*
X99625000Y-107000000D03*
D48*
X112475000Y-94500000D03*
D49*
X87437500Y-86275000D03*
D48*
X65825000Y-84225000D03*
D49*
X75925000Y-64075000D03*
D48*
X63200000Y-72400000D03*
X64200000Y-70800000D03*
D49*
X73300000Y-59175000D03*
X76500000Y-90250000D03*
X84625000Y-111025000D03*
X93250000Y-55000000D03*
X79550000Y-88220000D03*
X100775000Y-70975000D03*
D48*
X94225000Y-66175000D03*
D49*
X76530000Y-88210000D03*
D48*
X131400000Y-59300000D03*
X85100000Y-54050000D03*
D49*
X108000000Y-90250000D03*
D48*
X120000000Y-106700000D03*
D49*
X69625000Y-59150000D03*
D48*
X65850000Y-78850000D03*
X87750000Y-90650000D03*
D49*
X98400000Y-58100000D03*
D48*
X101725000Y-100000000D03*
D49*
X124600000Y-87200000D03*
D48*
X64200000Y-73800000D03*
D49*
X108750000Y-91250000D03*
X66800000Y-59875000D03*
X109500000Y-92250000D03*
D48*
X63425000Y-109800000D03*
D49*
X86125000Y-111025000D03*
X79500000Y-92250000D03*
D48*
%TO.N,/VDD*%
X75975000Y-82300000D03*
D49*
X108000000Y-157750000D03*
X77825000Y-84200000D03*
X78750000Y-158750000D03*
X108750000Y-158750000D03*
X105750000Y-158750000D03*
X75725000Y-71150000D03*
X109500000Y-159750000D03*
X80025000Y-84175000D03*
X81475000Y-78325000D03*
X108000000Y-159750000D03*
X79225000Y-79175000D03*
X76500000Y-159750000D03*
X81475000Y-76050000D03*
X107250000Y-160750000D03*
X78925000Y-84175000D03*
X78750000Y-160750000D03*
X81975000Y-81400000D03*
D48*
X124780000Y-140100000D03*
D49*
X81475000Y-73725000D03*
X78000000Y-159750000D03*
D48*
X124080000Y-131600000D03*
D49*
X109500000Y-157750000D03*
D48*
X124130000Y-146370000D03*
D49*
X106500000Y-159750000D03*
X76500000Y-157750000D03*
X106500000Y-157750000D03*
X110250000Y-158750000D03*
X108750000Y-160750000D03*
X77250000Y-160750000D03*
X79250000Y-75000000D03*
X79150000Y-81725000D03*
X79500000Y-159750000D03*
D48*
X74875000Y-78875000D03*
D49*
X75750000Y-158750000D03*
X79500000Y-157750000D03*
X77000000Y-78350000D03*
D48*
X74900000Y-80000000D03*
X75975000Y-84175000D03*
D49*
X80850000Y-83375000D03*
X77550000Y-71150000D03*
X78000000Y-157750000D03*
X75050000Y-72050000D03*
X77400000Y-73350000D03*
X77250000Y-158750000D03*
X107250000Y-158750000D03*
X81625000Y-82525000D03*
X79000000Y-71150000D03*
D48*
X94725000Y-80150000D03*
D49*
X75200000Y-73950000D03*
X77000000Y-76150000D03*
D48*
X75975000Y-83225000D03*
D49*
X73850000Y-72100000D03*
X80250000Y-158750000D03*
D48*
%TO.N,/ESP32/EN*%
X102650000Y-49550000D03*
X124275000Y-50938100D03*
X87300000Y-52450000D03*
%TO.N,/5V*%
X96350000Y-119800000D03*
X96900000Y-139175000D03*
X98150000Y-85225000D03*
X98725000Y-116325000D03*
X96850000Y-141925000D03*
X98425000Y-111100000D03*
X98900000Y-88895000D03*
D49*
X111050000Y-82800000D03*
X111050000Y-81550000D03*
X112400000Y-81550000D03*
D48*
X95600000Y-148800000D03*
X98587500Y-90900000D03*
X98775000Y-114348100D03*
X92175000Y-61850000D03*
X96900000Y-144325000D03*
%TO.N,/3V3*%
X80050000Y-53250000D03*
D49*
X106200000Y-49100000D03*
X126300000Y-69200000D03*
D48*
X130300000Y-55700000D03*
X87550000Y-66925000D03*
D49*
X125200000Y-84600000D03*
D48*
X99550000Y-65425000D03*
D49*
X121322050Y-77710200D03*
D48*
X106100000Y-67100000D03*
X87775000Y-53350000D03*
X94200000Y-69125000D03*
D49*
X100975000Y-79025000D03*
D48*
%TO.N,/SCL*%
X96700000Y-173200000D03*
X94700000Y-172700000D03*
X62725000Y-84650000D03*
X89900000Y-172400000D03*
X118800000Y-62900000D03*
X98126900Y-63401537D03*
X86250000Y-53525000D03*
%TO.N,Net-(U3-BP1V5)*%
X53250000Y-61450000D03*
X53225000Y-77375000D03*
%TO.N,Net-(U3-AVIN)*%
X56725000Y-66050000D03*
%TO.N,Net-(U3-VDD5)*%
X57350000Y-67675000D03*
%TO.N,Net-(U3-VOSNS)*%
X53900000Y-69725000D03*
X72500000Y-73250000D03*
%TO.N,/ESP32/P_TX*%
X127350000Y-52450000D03*
%TO.N,/ESP32/P_RX*%
X127300000Y-53600000D03*
%TO.N,/ESP32/IO0*%
X83550000Y-51650000D03*
X124250000Y-47200000D03*
X124100000Y-64900000D03*
X131400000Y-64900000D03*
%TO.N,/Power/PGOOD*%
X60325000Y-83875000D03*
X107550000Y-67250000D03*
X98325000Y-69400000D03*
X101450000Y-66275000D03*
X54300000Y-75025000D03*
%TO.N,Net-(U3-GOSNS)*%
X53875000Y-70825000D03*
X71425000Y-73250000D03*
%TO.N,/SDA*%
X63900000Y-84600000D03*
X98775000Y-64375000D03*
X80300000Y-54897600D03*
X117600000Y-63900000D03*
%TO.N,/BM1366-1/0V8*%
X73200000Y-91875000D03*
X103350000Y-91900000D03*
X82725000Y-91775000D03*
X112550000Y-91975000D03*
%TO.N,/BM1366-1/1V8*%
X74450000Y-91825000D03*
X121375000Y-101950000D03*
X111400000Y-91950000D03*
X101200000Y-87050000D03*
X86050000Y-86475000D03*
X104625000Y-91875000D03*
X81450000Y-91750000D03*
%TO.N,Net-(U12-VDD3_0)*%
X114925000Y-99875000D03*
%TO.N,Net-(U13-INV_CLKO)*%
X72000000Y-93325000D03*
%TO.N,/BM1366-2/0V8*%
X72300000Y-120000000D03*
X114200000Y-119700000D03*
X83575000Y-120350000D03*
X101900000Y-119900000D03*
%TO.N,/BM1366-2/1V8*%
X82375000Y-120025000D03*
X73500000Y-119950000D03*
X113000000Y-119700000D03*
X85450000Y-113700000D03*
X103100000Y-119800000D03*
%TO.N,Net-(U13-CLKO)*%
X71950000Y-95550000D03*
%TO.N,Net-(U12-VDD2_0)*%
X113800000Y-100875000D03*
%TO.N,/NRSTI*%
X115975000Y-97675000D03*
%TO.N,/RO*%
X115975000Y-95675000D03*
%TO.N,/CI*%
X116600000Y-92800000D03*
%TO.N,/BM1366-3/0V8*%
X114000000Y-147700000D03*
X70725000Y-146800000D03*
X84800000Y-147300000D03*
X101900000Y-147800000D03*
%TO.N,/BM1366-3/1V8*%
X103200000Y-147800000D03*
X70800000Y-145575000D03*
X84775000Y-146125000D03*
X112900000Y-147700000D03*
%TO.N,Net-(U12-VDD1_0)*%
X113800000Y-102600000D03*
%TO.N,Net-(U12-VDD1_1)*%
X101700000Y-103275000D03*
X84625000Y-103175000D03*
%TO.N,Net-(U12-VDD2_1)*%
X101700000Y-102200000D03*
X84650000Y-102150000D03*
%TO.N,Net-(U12-VDD3_1)*%
X84676432Y-101098465D03*
X101725000Y-101100000D03*
%TO.N,Net-(U18-VDD1_0)*%
X114600000Y-128300000D03*
%TO.N,Net-(U18-VDD2_0)*%
X114600000Y-129400000D03*
%TO.N,Net-(U22-INV_CLKO)*%
X99400000Y-148800000D03*
%TO.N,Net-(U18-VDD3_0)*%
X114600000Y-130500000D03*
%TO.N,Net-(U18-VDD3_1)*%
X100825000Y-131000000D03*
X85325000Y-130950000D03*
%TO.N,Net-(U13-ADDR0)*%
X84625000Y-93875000D03*
%TO.N,Net-(U13-ADDR1)*%
X84625000Y-92875000D03*
%TO.N,Net-(U18-VDD2_1)*%
X100825000Y-129875000D03*
X85400000Y-129400000D03*
%TO.N,/BM1366-1/BI1*%
X116000000Y-96650000D03*
D49*
%TO.N,/VIN*%
X60725000Y-61300000D03*
X59475000Y-67350000D03*
X102800000Y-68675000D03*
X60725000Y-67300000D03*
X58400000Y-59300000D03*
X58400000Y-65300000D03*
X58400000Y-63300000D03*
X103900000Y-68675000D03*
X105000000Y-68675000D03*
X60725000Y-59300000D03*
X60725000Y-65300000D03*
X58400000Y-61300000D03*
X60725000Y-63300000D03*
D48*
%TO.N,Net-(U3-VSEL)*%
X53875000Y-67225000D03*
X54075000Y-59575000D03*
%TO.N,Net-(U18-VDD1_1)*%
X85400000Y-128350000D03*
X100875000Y-128800000D03*
%TO.N,Net-(J6-Pin_4)*%
X113500000Y-62350000D03*
%TO.N,Net-(U20-VDD3_1)*%
X71100000Y-129700000D03*
%TO.N,Net-(U20-VDD2_1)*%
X71100000Y-128600000D03*
%TO.N,Net-(U20-VDD1_1)*%
X71100000Y-127450000D03*
%TO.N,Net-(U22-ADDR0)*%
X116800000Y-147600000D03*
%TO.N,Net-(U22-ADDR1)*%
X116100000Y-146600000D03*
%TO.N,Net-(U22-VDD3_0)*%
X114600000Y-156200000D03*
%TO.N,Net-(U22-VDD2_0)*%
X114600000Y-157400000D03*
%TO.N,Net-(U22-VDD1_0)*%
X114620000Y-158700000D03*
%TO.N,/BM1366-3/NRSTO3*%
X70700000Y-155700000D03*
%TO.N,Net-(J6-Pin_6)*%
X111050000Y-62047600D03*
%TO.N,Net-(J6-Pin_3)*%
X114550000Y-63300000D03*
%TO.N,Net-(J6-Pin_5)*%
X112350000Y-62047600D03*
%TO.N,Net-(U6-GPIO4{slash}TOUCH4{slash}ADC1_CH3)*%
X102650000Y-51050000D03*
%TO.N,Net-(U6-GPIO5{slash}TOUCH5{slash}ADC1_CH4)*%
X102650000Y-52200000D03*
%TO.N,Net-(U25-VDD1_1)*%
X72400000Y-158600000D03*
%TO.N,Net-(U25-VDD2_1)*%
X71300000Y-158600000D03*
%TO.N,Net-(U25-VDD3_1)*%
X71300000Y-157500000D03*
%TO.N,/BM1366-3/BO3*%
X70700000Y-154500000D03*
%TO.N,Net-(U6-GPIO6{slash}TOUCH6{slash}ADC1_CH5)*%
X102700000Y-53450000D03*
D49*
%TO.N,/BM1366-1/VDD1*%
X83075000Y-108175000D03*
D48*
X100875000Y-127750000D03*
X84700000Y-118825000D03*
X102900000Y-111700000D03*
X125400000Y-131600000D03*
X71100000Y-126350000D03*
X85450000Y-127300000D03*
X57300000Y-112025000D03*
X69825000Y-111950000D03*
D49*
X80825000Y-117895000D03*
X81525000Y-108175000D03*
D48*
X100700000Y-119900000D03*
D49*
X100050000Y-136500000D03*
X83075000Y-106700000D03*
D48*
X73150000Y-103675000D03*
D49*
X74650000Y-117400000D03*
X86100000Y-138975000D03*
D48*
X71550000Y-115775000D03*
X113225000Y-104050000D03*
D49*
X100050000Y-135000000D03*
X84725000Y-138950000D03*
D48*
X115400000Y-119700000D03*
X102900000Y-103950000D03*
D49*
X103125000Y-106750000D03*
X98450000Y-136500000D03*
D48*
X115900000Y-128300000D03*
D49*
X98450000Y-135000000D03*
D48*
X87900000Y-114100000D03*
X71100000Y-120050000D03*
X101350000Y-117075000D03*
D49*
X103125000Y-108425000D03*
X106425000Y-118500000D03*
X81525000Y-106700000D03*
D48*
X83430000Y-104050000D03*
X124780000Y-137600000D03*
%TO.N,/BM1366-2/VDD2*%
X115200000Y-147700000D03*
X115920000Y-156140000D03*
D49*
X81750000Y-134700000D03*
D48*
X102900000Y-139775000D03*
X73175000Y-132050000D03*
D49*
X99600000Y-167700000D03*
D48*
X100600000Y-147800000D03*
X103100000Y-131400000D03*
X84800000Y-157100000D03*
D49*
X106025000Y-146800000D03*
D48*
X62825000Y-104050000D03*
D49*
X101100000Y-167700000D03*
D48*
X70200000Y-156700000D03*
D49*
X99600000Y-169000000D03*
X101100000Y-169000000D03*
D48*
X100800000Y-156400000D03*
D49*
X110175000Y-144475000D03*
X83150000Y-136000000D03*
D48*
X130925000Y-140000000D03*
X112600000Y-131700000D03*
D49*
X103450000Y-136525000D03*
X113350000Y-162125000D03*
D48*
X63425000Y-111800000D03*
X86675000Y-142175000D03*
D49*
X103450000Y-135075000D03*
X72075000Y-163825000D03*
X102500000Y-168300000D03*
D48*
X98425000Y-146275000D03*
D49*
X81750000Y-136000000D03*
D48*
X82700000Y-131550000D03*
D49*
X78150000Y-146600000D03*
X72025000Y-162475000D03*
X113325000Y-163525000D03*
X83150000Y-134700000D03*
D48*
X70700000Y-148000000D03*
X64025000Y-118700000D03*
X84800000Y-148500000D03*
%TO.N,/BM1366-3/RI3*%
X70700000Y-153200000D03*
%TO.N,/BM1366-3/CLKO3*%
X70700000Y-151900000D03*
%TO.N,/BM1366-3/CO3*%
X70700000Y-150600000D03*
%TO.N,/BM1366-1/CLKI1*%
X120200000Y-101700000D03*
%TO.N,/BM1366-2/NRSTI2*%
X59850000Y-118850000D03*
X60450000Y-113750000D03*
X71100000Y-122100000D03*
%TO.N,/BM1366-2/BI2*%
X71100000Y-123100000D03*
X59850000Y-120150000D03*
X60450000Y-108200000D03*
%TO.N,/BM1366-2/RO2*%
X66225000Y-104975000D03*
X65800000Y-121500000D03*
X71100000Y-124200000D03*
%TO.N,/BM1366-2/CI2*%
X66300000Y-118747600D03*
%TO.N,/BM1366-3/NRSTI3*%
X115900000Y-155000000D03*
X121780000Y-141700000D03*
%TO.N,/BM1366-3/BI3*%
X121842500Y-136037500D03*
X115900000Y-153700000D03*
%TO.N,/BM1366-3/RO3*%
X127500000Y-132400000D03*
X125200000Y-148900000D03*
X115400000Y-152600000D03*
%TO.N,/BM1366-3/CI3*%
X127680000Y-141700000D03*
%TO.N,/BM1366-1/NRSTO*%
X72000000Y-98500000D03*
X60675000Y-117700000D03*
X68300000Y-98500000D03*
%TO.N,/BM1366-1/CO*%
X65200000Y-115500000D03*
%TO.N,/BM1366-1/BO*%
X72000000Y-97325000D03*
%TO.N,/BM1366-1/RI*%
X69375000Y-104025000D03*
%TO.N,/BM1366-2/RI*%
X127600000Y-130300000D03*
X118100000Y-124700000D03*
X115900000Y-124700000D03*
%TO.N,/BM1366-2/NRSTO*%
X119100000Y-122300000D03*
X116000000Y-122300000D03*
X122000000Y-145400000D03*
%TO.N,/BM1366-2/BO*%
X115910000Y-123600000D03*
%TO.N,/BM1366-2/CO*%
X127600000Y-145400000D03*
X118800000Y-131400000D03*
X115910000Y-127200000D03*
%TO.N,/ESP32/ASIC_RST*%
X109900000Y-61450000D03*
%TO.N,/ESP32/ESP32_TX*%
X107100000Y-60400000D03*
%TO.N,/ESP32/ESP32_RX*%
X106000000Y-60000000D03*
%TO.N,Net-(U6-GPIO7{slash}TOUCH7{slash}ADC1_CH6)*%
X102650000Y-54850000D03*
%TO.N,Net-(U6-GPIO8{slash}TOUCH8{slash}ADC1_CH7{slash}SUBSPICS1)*%
X110100000Y-58100000D03*
%TO.N,Net-(J7-CC1)*%
X97920000Y-51460000D03*
%TO.N,Net-(J7-CC2)*%
X94860000Y-51500000D03*
%TO.N,/Power/PMB_ALRT*%
X57245199Y-76145199D03*
X57975000Y-83125000D03*
%TO.N,Net-(U6-GPIO9{slash}TOUCH9{slash}ADC1_CH8{slash}FSPIHD{slash}SUBSPIHD)*%
X111400000Y-58147600D03*
%TO.N,Net-(U12-BO)*%
X101725000Y-97600000D03*
X84675000Y-97925000D03*
%TO.N,Net-(U18-CLKO)*%
X115910000Y-126000000D03*
%TO.N,Net-(U12-CO)*%
X101750000Y-93925000D03*
X84625000Y-94900000D03*
%TO.N,/BM1366-2/CLKI2*%
X71550000Y-113850000D03*
%TO.N,Net-(U12-INV_CLKO)*%
X103175000Y-94075000D03*
%TO.N,Net-(U12-CLKO)*%
X84650000Y-95900000D03*
X101725000Y-95225000D03*
%TO.N,/BM1366-3/CLKI3*%
X116300000Y-151600000D03*
X119800000Y-146300000D03*
%TO.N,Net-(U12-NRSTO)*%
X84675000Y-98975000D03*
X101725000Y-98750000D03*
%TO.N,Net-(U12-RI)*%
X84675000Y-96900000D03*
X101725000Y-96400000D03*
%TO.N,Net-(U18-RO)*%
X85475000Y-124075000D03*
X100900000Y-124625000D03*
%TO.N,Net-(U18-INV_CLKO)*%
X100925000Y-121350000D03*
%TO.N,Net-(U18-NRSTI)*%
X85500000Y-122025000D03*
X100900000Y-122500000D03*
%TO.N,Net-(U22-VDD3_1)*%
X100700000Y-157500000D03*
X84200000Y-158300000D03*
%TO.N,Net-(U22-VDD2_1)*%
X83500000Y-159200000D03*
X101700000Y-158800000D03*
%TO.N,Net-(U22-VDD1_1)*%
X82300000Y-159200000D03*
X102600000Y-159400000D03*
%TO.N,Net-(U22-RI)*%
X100800000Y-152900000D03*
X84200000Y-153800000D03*
%TO.N,Net-(U22-NRSTO)*%
X100800000Y-155200000D03*
X84800000Y-155900000D03*
%TO.N,Net-(U22-CO)*%
X84800000Y-151800000D03*
X100800000Y-150500000D03*
%TO.N,Net-(U22-CLKO)*%
X84800000Y-152900000D03*
X100800000Y-151700000D03*
%TO.N,Net-(U22-BO)*%
X84800000Y-154800000D03*
X100800000Y-154000000D03*
%TO.N,Net-(U18-CLKI)*%
X100900000Y-125625000D03*
X85450000Y-125150000D03*
%TO.N,Net-(U18-BI)*%
X85475000Y-123050000D03*
X100874037Y-123575963D03*
%TO.N,Net-(U18-CI)*%
X85450000Y-126250000D03*
X100900000Y-126700000D03*
%TO.N,Net-(U20-INV_CLKO)*%
X71100000Y-121100000D03*
%TO.N,Net-(U25-INV_CLKO)*%
X70700000Y-149200000D03*
%TO.N,Net-(U6-GPIO12{slash}TOUCH12{slash}ADC2_CH1{slash}FSPICLK{slash}FSPIIO6{slash}SUBSPICLK)*%
X110250000Y-63950000D03*
%TO.N,Net-(U6-GPIO14{slash}TOUCH14{slash}ADC2_CH3{slash}FSPIWP{slash}FSPIDQS{slash}SUBSPIWP)*%
X109600000Y-62500000D03*
%TO.N,Net-(U6-SPIIO6{slash}GPIO35{slash}FSPID{slash}SUBSPID)*%
X123500000Y-62448100D03*
%TO.N,Net-(U6-SPIIO7{slash}GPIO36{slash}FSPICLK{slash}SUBSPICLK)*%
X123500000Y-61300000D03*
%TO.N,Net-(U6-SPIDQS{slash}GPIO37{slash}FSPIQ{slash}SUBSPIQ)*%
X123500000Y-60000000D03*
%TO.N,Net-(U6-GPIO38{slash}FSPIWP{slash}SUBSPIWP)*%
X123500000Y-58700000D03*
D49*
%TO.N,Net-(J7-VBUS-PadA4)*%
X98450000Y-55000000D03*
X95300000Y-55000000D03*
D48*
%TO.N,Net-(U12-ADDR0)*%
X114025000Y-93025000D03*
%TO.N,Net-(U13-VDD3_1)*%
X71975000Y-100530000D03*
%TO.N,Net-(U12-ADDR1)*%
X113725000Y-91950000D03*
%TO.N,Net-(U13-VDD2_1)*%
X71975000Y-101600000D03*
%TO.N,Net-(U18-ADDR0)*%
X117800000Y-118700000D03*
%TO.N,Net-(U13-VDD1_1)*%
X71950000Y-102590000D03*
%TO.N,Net-(U18-ADDR1)*%
X116600000Y-117600000D03*
%TO.N,Net-(U20-ADDR0)*%
X85500000Y-120875000D03*
%TO.N,Net-(U20-ADDR1)*%
X85475000Y-119725000D03*
%TO.N,Net-(U25-ADDR0)*%
X84800000Y-150700000D03*
%TO.N,Net-(U25-ADDR1)*%
X84800000Y-149600000D03*
%TO.N,Net-(U3-MSEL1)*%
X53850000Y-68675000D03*
%TO.N,/ESP32/VDD_SAMPLE*%
X123800000Y-49900000D03*
%TO.N,/Power/SW*%
X65025000Y-75575000D03*
X65075000Y-77500000D03*
X61675000Y-76675000D03*
X65050000Y-76550000D03*
X59650000Y-75775000D03*
X61025000Y-75750000D03*
X60300000Y-76675000D03*
%TO.N,Net-(U3-MSEL2)*%
X55275000Y-59575000D03*
X54750000Y-66475000D03*
D49*
%TO.N,/Power/AGND*%
X53700000Y-72000000D03*
D48*
X53175000Y-58075000D03*
X54550000Y-63250000D03*
%TO.N,/Power/PMB_SCL*%
X54250718Y-76926555D03*
X55175000Y-85675000D03*
%TO.N,/Power/PMB_SDA*%
X54225000Y-75975000D03*
X56325000Y-85675000D03*
%TO.N,/SMB_ALRT*%
X108700000Y-63200000D03*
X97550000Y-72350000D03*
X63600000Y-91175000D03*
%TD*%
D50*
%TO.N,GND*%
X123300000Y-85200000D02*
X122400000Y-85200000D01*
D51*
X80545000Y-58475000D02*
X80545000Y-59805000D01*
D52*
X97757500Y-89775000D02*
X97837500Y-89855000D01*
D50*
X89095000Y-100770000D02*
X88125000Y-99800000D01*
X87750000Y-90650000D02*
X87855000Y-90755000D01*
D52*
X96075000Y-89775000D02*
X97757500Y-89775000D01*
X126180000Y-82180000D02*
X126200000Y-82200000D01*
D50*
X109905000Y-89845000D02*
X109500000Y-90250000D01*
X90827500Y-90775000D02*
X89457500Y-90775000D01*
X88337500Y-86075000D02*
X89227500Y-86075000D01*
X64115000Y-110490000D02*
X63425000Y-109800000D01*
X100800000Y-73050000D02*
X100800000Y-74700000D01*
D52*
X127800000Y-69300000D02*
X127300000Y-69800000D01*
D50*
X124600000Y-86500000D02*
X123300000Y-85200000D01*
D53*
X81475000Y-89845000D02*
X79905000Y-89845000D01*
D52*
X124100000Y-74150000D02*
X124100000Y-74420000D01*
D50*
X111425000Y-89845000D02*
X109905000Y-89845000D01*
D54*
X84625000Y-109880000D02*
X84625000Y-111025000D01*
D50*
X116000000Y-98775000D02*
X116000000Y-99950000D01*
D52*
X109180000Y-50900000D02*
X111200000Y-50900000D01*
X116090000Y-80500000D02*
X114900000Y-80500000D01*
X94795000Y-84755000D02*
X94775000Y-84775000D01*
X127800000Y-68320000D02*
X127280000Y-67800000D01*
D54*
X118322050Y-76710200D02*
X118322050Y-78760200D01*
D52*
X127800000Y-69300000D02*
X127800000Y-68750000D01*
D50*
X122325000Y-86762500D02*
X122325000Y-85275000D01*
X104575000Y-89870000D02*
X104600000Y-89845000D01*
D52*
X124800000Y-73450000D02*
X124100000Y-74150000D01*
D51*
X85695000Y-71590000D02*
X84910000Y-72375000D01*
D55*
X84910000Y-77060000D02*
X84910000Y-72375000D01*
D54*
X117972050Y-76360200D02*
X117044100Y-76360200D01*
D50*
X87337500Y-86175000D02*
X87437500Y-86275000D01*
D52*
X105950000Y-77100000D02*
X106200000Y-77350000D01*
D50*
X123480000Y-102000000D02*
X123925000Y-102000000D01*
X92350000Y-49990000D02*
X92350000Y-48620000D01*
X100565000Y-74935000D02*
X97950000Y-74935000D01*
D55*
X82900000Y-64650000D02*
X79700000Y-61450000D01*
D50*
X106095000Y-89845000D02*
X106500000Y-90250000D01*
X117575000Y-98975000D02*
X118050000Y-98500000D01*
X64125000Y-104977500D02*
X64125000Y-104050000D01*
D52*
X110800000Y-49100000D02*
X111200000Y-49500000D01*
D53*
X79905000Y-89845000D02*
X79500000Y-90250000D01*
X78950000Y-53020000D02*
X78070000Y-53020000D01*
D50*
X119075000Y-85525000D02*
X119075000Y-86762500D01*
X59395000Y-110480000D02*
X58995000Y-110880000D01*
X87337500Y-84955000D02*
X87337500Y-86175000D01*
D56*
X57375000Y-69430000D02*
X57375000Y-70500000D01*
D50*
X100000000Y-100510000D02*
X99990000Y-100500000D01*
X84900000Y-99800000D02*
X84675000Y-100025000D01*
X71720000Y-75945000D02*
X71720000Y-76450000D01*
D52*
X111200000Y-49500000D02*
X111200000Y-50900000D01*
D54*
X86125000Y-109880000D02*
X86125000Y-111025000D01*
D50*
X112625000Y-89845000D02*
X111425000Y-89845000D01*
X87437500Y-86275000D02*
X88137500Y-86275000D01*
D52*
X117222050Y-78760200D02*
X117072050Y-78910200D01*
D50*
X100800000Y-74700000D02*
X100565000Y-74935000D01*
X63425000Y-108125000D02*
X63425000Y-109800000D01*
X98970000Y-50300000D02*
X100660000Y-50300000D01*
X124600000Y-87200000D02*
X124600000Y-86500000D01*
X97125000Y-100500000D02*
X96855000Y-100770000D01*
D52*
X118750000Y-82700000D02*
X116200000Y-82700000D01*
D51*
X80545000Y-59805000D02*
X79700000Y-60650000D01*
D52*
X114850000Y-81350000D02*
X114850000Y-80450000D01*
D50*
X62745000Y-110480000D02*
X59395000Y-110480000D01*
X123925000Y-102000000D02*
X124425000Y-102500000D01*
X89457500Y-90775000D02*
X89437500Y-90755000D01*
X71425000Y-75210000D02*
X71425000Y-75650000D01*
X101240000Y-100510000D02*
X100000000Y-100510000D01*
X87855000Y-90755000D02*
X89437500Y-90755000D01*
D52*
X119075000Y-82375000D02*
X118750000Y-82700000D01*
D50*
X122325000Y-85275000D02*
X122400000Y-85200000D01*
X71130000Y-99545000D02*
X69700000Y-99545000D01*
D52*
X127300000Y-69800000D02*
X127300000Y-70950000D01*
D53*
X74450000Y-89870000D02*
X76120000Y-89870000D01*
D50*
X88125000Y-99800000D02*
X84900000Y-99800000D01*
D52*
X106200000Y-77350000D02*
X106200000Y-78237500D01*
D50*
X63425000Y-109800000D02*
X62745000Y-110480000D01*
D52*
X126180000Y-82220000D02*
X126200000Y-82200000D01*
D50*
X119400000Y-85200000D02*
X119075000Y-85525000D01*
D52*
X96837500Y-84755000D02*
X94795000Y-84755000D01*
D50*
X103375000Y-89870000D02*
X104575000Y-89870000D01*
D52*
X119075000Y-81037500D02*
X119075000Y-82375000D01*
X101170000Y-89855000D02*
X97837500Y-89855000D01*
D50*
X109650000Y-90400000D02*
X109500000Y-90250000D01*
X71425000Y-75650000D02*
X71720000Y-75945000D01*
D53*
X81475000Y-89845000D02*
X82725000Y-89845000D01*
D50*
X92660000Y-50300000D02*
X92350000Y-49990000D01*
D51*
X85695000Y-70475000D02*
X85695000Y-71590000D01*
D50*
X100660000Y-50300000D02*
X100990000Y-49970000D01*
X67275000Y-110495000D02*
X64115000Y-110490000D01*
X100990000Y-49970000D02*
X100990000Y-48620000D01*
X120000000Y-105400000D02*
X120150000Y-105250000D01*
D54*
X115892050Y-78910200D02*
X117072050Y-78910200D01*
D52*
X128850000Y-68750000D02*
X128900000Y-68800000D01*
X127800000Y-68750000D02*
X127800000Y-68320000D01*
D54*
X115272050Y-78290200D02*
X115892050Y-78910200D01*
D53*
X78070000Y-53020000D02*
X77600000Y-52550000D01*
D50*
X84945000Y-72340000D02*
X84910000Y-72375000D01*
D53*
X74450000Y-89870000D02*
X73200000Y-89870000D01*
X76120000Y-89870000D02*
X76500000Y-90250000D01*
D55*
X82900000Y-65500000D02*
X82900000Y-64650000D01*
D50*
X88137500Y-86275000D02*
X88337500Y-86075000D01*
D52*
X103500000Y-77100000D02*
X105950000Y-77100000D01*
D55*
X85325000Y-77475000D02*
X84910000Y-77060000D01*
D52*
X101175000Y-89850000D02*
X101170000Y-89855000D01*
X110150000Y-49100000D02*
X110800000Y-49100000D01*
D50*
X106250000Y-90500000D02*
X106500000Y-90250000D01*
D52*
X126180000Y-81100000D02*
X126180000Y-82180000D01*
D50*
X93850000Y-50300000D02*
X92660000Y-50300000D01*
D52*
X118892050Y-78760200D02*
X118322050Y-78760200D01*
D50*
X104600000Y-89845000D02*
X106095000Y-89845000D01*
X122400000Y-85200000D02*
X119400000Y-85200000D01*
X101725000Y-100025000D02*
X101240000Y-100510000D01*
D52*
X127800000Y-68750000D02*
X128850000Y-68750000D01*
X126180000Y-83400000D02*
X126180000Y-82220000D01*
X96400000Y-85192500D02*
X96837500Y-84755000D01*
D54*
X71720000Y-76450000D02*
X70425000Y-76450000D01*
D50*
X120000000Y-106700000D02*
X120000000Y-105400000D01*
D55*
X79700000Y-61450000D02*
X79700000Y-60650000D01*
D52*
X114900000Y-80500000D02*
X114850000Y-80450000D01*
D50*
X99990000Y-100500000D02*
X97125000Y-100500000D01*
X96855000Y-100770000D02*
X89095000Y-100770000D01*
D52*
X96400000Y-85800000D02*
X96400000Y-85192500D01*
D50*
X58995000Y-110880000D02*
X58995000Y-111500000D01*
D54*
X118322050Y-78760200D02*
X117222050Y-78760200D01*
D50*
X71135000Y-99550000D02*
X71130000Y-99545000D01*
X118050000Y-98500000D02*
X118050000Y-97660000D01*
D54*
X117972050Y-76360200D02*
X118322050Y-76710200D01*
D52*
X111200000Y-50900000D02*
X112800000Y-50900000D01*
D50*
X101725000Y-100000000D02*
X101725000Y-100025000D01*
D52*
X116200000Y-82700000D02*
X114850000Y-81350000D01*
D50*
X72000000Y-99550000D02*
X71135000Y-99550000D01*
%TO.N,/VDD*%
X103580000Y-160700000D02*
X103800000Y-160700000D01*
X72700000Y-76430000D02*
X72680000Y-76450000D01*
X94725000Y-79000000D02*
X96325000Y-77400000D01*
X124060000Y-139380000D02*
X124780000Y-140100000D01*
X94725000Y-80150000D02*
X94725000Y-79000000D01*
X121030000Y-139380000D02*
X124060000Y-139380000D01*
D53*
X74700000Y-159800000D02*
X75750000Y-158750000D01*
D50*
X124130000Y-146370000D02*
X124100000Y-146400000D01*
D53*
X73160000Y-159800000D02*
X74700000Y-159800000D01*
D50*
X96325000Y-77400000D02*
X96325000Y-74960000D01*
X112820000Y-159820000D02*
X111750000Y-158750000D01*
X124130000Y-132400000D02*
X124130000Y-131650000D01*
X111750000Y-158750000D02*
X110250000Y-158750000D01*
X81820000Y-160600000D02*
X78900000Y-160600000D01*
X124130000Y-145400000D02*
X125380000Y-145400000D01*
X72700000Y-75210000D02*
X72700000Y-76430000D01*
D54*
X72680000Y-76450000D02*
X74225000Y-76450000D01*
D50*
X124130000Y-145400000D02*
X124130000Y-146370000D01*
X128660000Y-139380000D02*
X128680000Y-139400000D01*
X124780000Y-141762500D02*
X124780000Y-140100000D01*
X125500000Y-139380000D02*
X124780000Y-140100000D01*
X78900000Y-160600000D02*
X78750000Y-160750000D01*
X103800000Y-160700000D02*
X105750000Y-158750000D01*
X125500000Y-139380000D02*
X128660000Y-139380000D01*
X124130000Y-131650000D02*
X124080000Y-131600000D01*
X113640000Y-159820000D02*
X112820000Y-159820000D01*
%TO.N,/ESP32/EN*%
X124452400Y-50760700D02*
X124452400Y-48652400D01*
X122800000Y-47000000D02*
X118900000Y-47000000D01*
X118900000Y-47000000D02*
X118200000Y-47700000D01*
X115050000Y-47700000D02*
X118200000Y-47700000D01*
X102650000Y-47150000D02*
X91800000Y-47150000D01*
X91800000Y-47150000D02*
X91050000Y-47900000D01*
X91050000Y-47900000D02*
X91050000Y-48650000D01*
X114500000Y-47150000D02*
X115050000Y-47700000D01*
X91050000Y-48650000D02*
X87300000Y-52400000D01*
X124275000Y-50938100D02*
X124452400Y-50760700D01*
X124452400Y-48652400D02*
X122800000Y-47000000D01*
X87300000Y-52400000D02*
X87300000Y-52450000D01*
X104600000Y-47150000D02*
X114500000Y-47150000D01*
X104600000Y-47150000D02*
X102650000Y-47150000D01*
X102650000Y-49550000D02*
X102650000Y-47150000D01*
D52*
%TO.N,/5V*%
X98720000Y-116320000D02*
X97500000Y-116320000D01*
D50*
X98775000Y-114348100D02*
X96048100Y-114348100D01*
D54*
X116504100Y-71750000D02*
X120900000Y-71750000D01*
D50*
X90860000Y-63000000D02*
X90860000Y-62390000D01*
D52*
X97470000Y-116350000D02*
X97500000Y-116320000D01*
X98150000Y-85225000D02*
X98150000Y-84300000D01*
D54*
X115202050Y-73052050D02*
X116504100Y-71750000D01*
D52*
X94837500Y-145350000D02*
X96870000Y-145350000D01*
D50*
X96850000Y-141925000D02*
X96825000Y-141950000D01*
X96350000Y-119800000D02*
X95537500Y-118987500D01*
X95125000Y-85775000D02*
X94825000Y-85775000D01*
D51*
X109700000Y-84250000D02*
X109700001Y-84850001D01*
D54*
X117044100Y-75420400D02*
X115222450Y-75420400D01*
X109700000Y-80500000D02*
X109700000Y-82700000D01*
D50*
X98587500Y-90900000D02*
X97637500Y-90900000D01*
X94825000Y-85775000D02*
X94775000Y-85725000D01*
D54*
X121760000Y-70890000D02*
X121760000Y-69500000D01*
D52*
X96870000Y-140050000D02*
X96900000Y-140020000D01*
D50*
X91765000Y-64440000D02*
X91765000Y-70350000D01*
D52*
X98405000Y-111120000D02*
X97500000Y-111120000D01*
X96900000Y-139175000D02*
X96900000Y-140020000D01*
X96807500Y-83825000D02*
X96837500Y-83795000D01*
X94775000Y-83825000D02*
X96807500Y-83825000D01*
D50*
X90860000Y-63535000D02*
X91765000Y-64440000D01*
D51*
X103950000Y-82460000D02*
X103950000Y-82900000D01*
D50*
X90860000Y-62390000D02*
X91400000Y-61850000D01*
X90860000Y-63000000D02*
X90860000Y-63535000D01*
D52*
X98150000Y-84300000D02*
X97645000Y-83795000D01*
X97645000Y-83795000D02*
X96837500Y-83795000D01*
D50*
X97637500Y-90900000D02*
X97462500Y-90725000D01*
X95437500Y-113737500D02*
X95437500Y-113050000D01*
D52*
X96900000Y-144325000D02*
X96900000Y-145320000D01*
D54*
X112104800Y-77330200D02*
X111950000Y-77485000D01*
D51*
X105300000Y-84250000D02*
X109700000Y-84250000D01*
D54*
X115202050Y-77310200D02*
X115202050Y-75400000D01*
D50*
X98150000Y-85225000D02*
X96800000Y-86575000D01*
D54*
X115202050Y-75400000D02*
X115202050Y-73052050D01*
D51*
X103950000Y-82900000D02*
X105300000Y-84250000D01*
D52*
X98425000Y-111100000D02*
X98405000Y-111120000D01*
D50*
X96800000Y-86575000D02*
X95925000Y-86575000D01*
D52*
X97767500Y-88825000D02*
X97837500Y-88895000D01*
D54*
X120900000Y-71750000D02*
X121760000Y-70890000D01*
D52*
X96075000Y-88825000D02*
X97767500Y-88825000D01*
D51*
X109700001Y-84850001D02*
X110200000Y-85350000D01*
D50*
X91400000Y-61850000D02*
X92175000Y-61850000D01*
D52*
X95437500Y-111150000D02*
X97430000Y-111150000D01*
D54*
X117044100Y-77300000D02*
X115212250Y-77300000D01*
D50*
X96048100Y-114348100D02*
X95437500Y-113737500D01*
D54*
X115222450Y-75420400D02*
X115202050Y-75400000D01*
D50*
X94837500Y-148037500D02*
X95600000Y-148800000D01*
D52*
X98900000Y-88895000D02*
X97837500Y-88895000D01*
D50*
X94837500Y-147250000D02*
X94837500Y-148037500D01*
X95537500Y-118987500D02*
X95537500Y-118250000D01*
D52*
X95537500Y-116350000D02*
X97470000Y-116350000D01*
X94937500Y-140050000D02*
X96870000Y-140050000D01*
D50*
X97462500Y-90725000D02*
X96075000Y-90725000D01*
X96825000Y-141950000D02*
X94937500Y-141950000D01*
D52*
X96870000Y-145350000D02*
X96900000Y-145320000D01*
D50*
X95925000Y-86575000D02*
X95125000Y-85775000D01*
D51*
X109700000Y-82700000D02*
X109700000Y-84250000D01*
D52*
X98725000Y-116325000D02*
X98720000Y-116320000D01*
D54*
X115272050Y-77330200D02*
X112104800Y-77330200D01*
D50*
%TO.N,/3V3*%
X108600000Y-47700000D02*
X108250000Y-48050000D01*
X126675000Y-88125000D02*
X128900000Y-85900000D01*
X122975000Y-87875000D02*
X123225000Y-88125000D01*
X122975000Y-86762500D02*
X122975000Y-87875000D01*
D53*
X124800000Y-71900000D02*
X124800000Y-69600000D01*
D50*
X128700000Y-84300000D02*
X126500000Y-84300000D01*
D52*
X119800000Y-77300000D02*
X119800000Y-78708150D01*
X126350000Y-70950000D02*
X126350000Y-69250000D01*
D53*
X128250000Y-71950000D02*
X127900000Y-72300000D01*
D52*
X108250000Y-49100000D02*
X108250000Y-50870000D01*
X120672050Y-78760200D02*
X119852050Y-78760200D01*
D53*
X128250000Y-70950000D02*
X128250000Y-71950000D01*
D52*
X119800000Y-78708150D02*
X119852050Y-78760200D01*
D53*
X79670000Y-53980000D02*
X80050000Y-53600000D01*
X80225000Y-53250000D02*
X80050000Y-53250000D01*
D52*
X125200000Y-83420000D02*
X125220000Y-83400000D01*
D53*
X127900000Y-72300000D02*
X125200000Y-72300000D01*
D52*
X122325000Y-82725000D02*
X123000000Y-83400000D01*
D53*
X78950000Y-53980000D02*
X79670000Y-53980000D01*
D50*
X126500000Y-84300000D02*
X126200000Y-84600000D01*
X112800000Y-48900000D02*
X111600000Y-47700000D01*
X123225000Y-88125000D02*
X126675000Y-88125000D01*
D52*
X126320000Y-69180000D02*
X126300000Y-69200000D01*
D50*
X128900000Y-84500000D02*
X128700000Y-84300000D01*
D53*
X125200000Y-72300000D02*
X124800000Y-71900000D01*
D50*
X126200000Y-84600000D02*
X125200000Y-84600000D01*
D52*
X121322050Y-73960200D02*
X120722050Y-73360200D01*
X123000000Y-83400000D02*
X125220000Y-83400000D01*
D50*
X108250000Y-48050000D02*
X108250000Y-49100000D01*
D52*
X121322050Y-78110200D02*
X120672050Y-78760200D01*
D53*
X80050000Y-53600000D02*
X80050000Y-53250000D01*
D52*
X126320000Y-67800000D02*
X126320000Y-69180000D01*
X108250000Y-50870000D02*
X108220000Y-50900000D01*
D53*
X124800000Y-69600000D02*
X125200000Y-69200000D01*
D52*
X122325000Y-81037500D02*
X122325000Y-82725000D01*
X106200000Y-49100000D02*
X108250000Y-49100000D01*
X121322050Y-77710200D02*
X121322050Y-73960200D01*
X125200000Y-84600000D02*
X125200000Y-83420000D01*
D50*
X128900000Y-85900000D02*
X128900000Y-84500000D01*
D52*
X126350000Y-69250000D02*
X126300000Y-69200000D01*
D50*
X111600000Y-47700000D02*
X108600000Y-47700000D01*
D52*
X121322050Y-77710200D02*
X121322050Y-78110200D01*
D53*
X125200000Y-69200000D02*
X126300000Y-69200000D01*
D50*
%TO.N,/SCL*%
X124500000Y-62800000D02*
X123900000Y-63400000D01*
X98126900Y-63401537D02*
X102828437Y-58700000D01*
X96200000Y-172700000D02*
X96700000Y-173200000D01*
X108124184Y-58700000D02*
X108674184Y-59250000D01*
X115150000Y-59250000D02*
X118800000Y-62900000D01*
X94700000Y-172700000D02*
X96200000Y-172700000D01*
X108674184Y-59250000D02*
X115150000Y-59250000D01*
X93850000Y-172700000D02*
X94700000Y-172700000D01*
X93550000Y-172400000D02*
X93850000Y-172700000D01*
X124500000Y-61580000D02*
X124500000Y-62800000D01*
X125800000Y-60280000D02*
X124500000Y-61580000D01*
X123900000Y-63400000D02*
X119300000Y-63400000D01*
X119300000Y-63400000D02*
X118800000Y-62900000D01*
X62725000Y-84650000D02*
X62725000Y-85450000D01*
X102828437Y-58700000D02*
X108124184Y-58700000D01*
X62725000Y-85450000D02*
X63635000Y-86360000D01*
X63635000Y-86360000D02*
X63635000Y-87425000D01*
X89900000Y-172400000D02*
X93550000Y-172400000D01*
%TO.N,Net-(U3-BP1V5)*%
X54060000Y-61450000D02*
X54075000Y-61435000D01*
X53225000Y-77375000D02*
X53225000Y-76535000D01*
X53250000Y-61450000D02*
X54060000Y-61450000D01*
D52*
%TO.N,/1V8*%
X124100000Y-77700000D02*
X125220000Y-78820000D01*
X126350000Y-73650000D02*
X126350000Y-75350000D01*
X126350000Y-75350000D02*
X126400000Y-75400000D01*
X124120000Y-75400000D02*
X126400000Y-75400000D01*
X123037500Y-81100000D02*
X122975000Y-81037500D01*
X125220000Y-81100000D02*
X123037500Y-81100000D01*
X126400000Y-75400000D02*
X130100000Y-75400000D01*
X124100000Y-75380000D02*
X124120000Y-75400000D01*
X124100000Y-75380000D02*
X124100000Y-77700000D01*
X125220000Y-78820000D02*
X125220000Y-81100000D01*
D54*
%TO.N,Net-(U3-AVIN)*%
X56725000Y-66050000D02*
X56725000Y-65025000D01*
D50*
X56725000Y-65025000D02*
X56600000Y-64900000D01*
D56*
%TO.N,Net-(U3-VDD5)*%
X57375000Y-68470000D02*
X57375000Y-67700000D01*
D50*
X57375000Y-67700000D02*
X57350000Y-67675000D01*
%TO.N,Net-(U3-VOSNS)*%
X72500000Y-73450000D02*
X72700000Y-73650000D01*
X72700000Y-73650000D02*
X72700000Y-74190000D01*
X72500000Y-73250000D02*
X72500000Y-73450000D01*
%TO.N,/ESP32/P_TX*%
X127600000Y-52300000D02*
X127525000Y-52300000D01*
X126450000Y-51550000D02*
X127350000Y-52450000D01*
X126450000Y-51225000D02*
X126450000Y-51550000D01*
%TO.N,/ESP32/P_RX*%
X127300000Y-53600000D02*
X128000000Y-54300000D01*
X128000000Y-54300000D02*
X129100000Y-54300000D01*
%TO.N,/ESP32/IO0*%
X83550000Y-51450000D02*
X83550000Y-51650000D01*
X124250000Y-47200000D02*
X123600000Y-46550000D01*
X90600000Y-47600000D02*
X90600000Y-48150000D01*
X89250000Y-49500000D02*
X85500000Y-49500000D01*
X90600000Y-48150000D02*
X89250000Y-49500000D01*
X91650000Y-46550000D02*
X90600000Y-47600000D01*
X123600000Y-46550000D02*
X91650000Y-46550000D01*
X85500000Y-49500000D02*
X83550000Y-51450000D01*
X131400000Y-64900000D02*
X131400000Y-65700000D01*
X124100000Y-64900000D02*
X131400000Y-64900000D01*
X131400000Y-65700000D02*
X131000000Y-66100000D01*
%TO.N,/Power/PGOOD*%
X98325000Y-69400000D02*
X101450000Y-66275000D01*
X101475000Y-66300000D02*
X101450000Y-66275000D01*
X106650000Y-66300000D02*
X101475000Y-66300000D01*
X107550000Y-67250000D02*
X107550000Y-67200000D01*
X107550000Y-67200000D02*
X106650000Y-66300000D01*
%TO.N,Net-(U3-GOSNS)*%
X71425000Y-73250000D02*
X71425000Y-74190000D01*
%TO.N,/SDA*%
X108400000Y-59700000D02*
X107850000Y-59150000D01*
X63900000Y-84600000D02*
X63900000Y-85525000D01*
X124700000Y-63900000D02*
X125780000Y-62820000D01*
X117600000Y-63900000D02*
X124700000Y-63900000D01*
X117600000Y-62800000D02*
X114500000Y-59700000D01*
X63900000Y-85525000D02*
X64500000Y-86125000D01*
X125780000Y-62820000D02*
X125800000Y-62820000D01*
X104000000Y-59150000D02*
X98775000Y-64375000D01*
X64500000Y-86125000D02*
X64500000Y-88500000D01*
X64500000Y-88500000D02*
X64300000Y-88700000D01*
X107850000Y-59150000D02*
X104000000Y-59150000D01*
X114500000Y-59700000D02*
X108400000Y-59700000D01*
X117600000Y-63900000D02*
X117600000Y-62800000D01*
X64300000Y-88700000D02*
X63635000Y-88700000D01*
%TO.N,/BM1366-1/0V8*%
X92987500Y-88825000D02*
X92737500Y-89075000D01*
X82725000Y-91775000D02*
X82725000Y-90805000D01*
X104650000Y-93700000D02*
X103350000Y-92400000D01*
X73200000Y-91875000D02*
X73200000Y-93000000D01*
X92437500Y-88175000D02*
X91837500Y-88175000D01*
X102175000Y-90325000D02*
X102175000Y-89100000D01*
X112550000Y-91975000D02*
X110825000Y-93700000D01*
X100850000Y-87775000D02*
X92837500Y-87775000D01*
X91847500Y-89075000D02*
X91847500Y-88185000D01*
X88187500Y-89775000D02*
X88167500Y-89795000D01*
X73200000Y-91875000D02*
X73200000Y-90830000D01*
X82725000Y-92600000D02*
X82725000Y-91775000D01*
X112550000Y-90880000D02*
X112625000Y-90805000D01*
X103350000Y-91900000D02*
X103350000Y-90855000D01*
X102680000Y-90830000D02*
X102175000Y-90325000D01*
X88187500Y-88715000D02*
X88187500Y-89775000D01*
X89437500Y-89795000D02*
X88167500Y-89795000D01*
X83420000Y-90805000D02*
X84430000Y-89795000D01*
X92837500Y-87775000D02*
X92437500Y-88175000D01*
X73775000Y-93575000D02*
X81750000Y-93575000D01*
X89437500Y-89795000D02*
X89437500Y-88775000D01*
X90037500Y-88175000D02*
X91837500Y-88175000D01*
X81750000Y-93575000D02*
X82725000Y-92600000D01*
X92737500Y-89075000D02*
X91847500Y-89075000D01*
X110825000Y-93700000D02*
X104650000Y-93700000D01*
X89437500Y-88775000D02*
X90037500Y-88175000D01*
X102175000Y-89100000D02*
X100850000Y-87775000D01*
X103375000Y-90830000D02*
X102680000Y-90830000D01*
X91847500Y-88185000D02*
X91837500Y-88175000D01*
X73200000Y-93000000D02*
X73775000Y-93575000D01*
X88167500Y-89795000D02*
X87087500Y-89795000D01*
X82725000Y-90805000D02*
X83420000Y-90805000D01*
X112550000Y-91975000D02*
X112550000Y-90880000D01*
X103350000Y-90855000D02*
X103375000Y-90830000D01*
X103350000Y-92400000D02*
X103350000Y-91900000D01*
X84430000Y-89795000D02*
X87087500Y-89795000D01*
X93800000Y-88825000D02*
X92987500Y-88825000D01*
%TO.N,/BM1366-1/1V8*%
X122470000Y-101950000D02*
X122520000Y-102000000D01*
X86037500Y-84375000D02*
X86037500Y-85775000D01*
X87337500Y-83995000D02*
X86417500Y-83995000D01*
X122520000Y-103280000D02*
X122450000Y-103350000D01*
X90247500Y-83775000D02*
X90247500Y-83185000D01*
X81450000Y-90830000D02*
X81475000Y-90805000D01*
X101237500Y-86975000D02*
X101137500Y-87075000D01*
X87137500Y-87562500D02*
X86050000Y-86475000D01*
X111400000Y-91950000D02*
X110150000Y-93200000D01*
X122520000Y-102000000D02*
X122520000Y-103280000D01*
X122450000Y-103350000D02*
X122450000Y-105250000D01*
X74450000Y-91825000D02*
X74450000Y-90830000D01*
X80700000Y-93100000D02*
X81450000Y-92350000D01*
X74450000Y-92400000D02*
X75150000Y-93100000D01*
X87137500Y-87575000D02*
X87137500Y-87562500D01*
X81450000Y-91750000D02*
X81450000Y-90830000D01*
X81450000Y-92350000D02*
X81450000Y-91750000D01*
X104625000Y-90830000D02*
X104600000Y-90805000D01*
X105950000Y-93200000D02*
X104625000Y-91875000D01*
X74450000Y-91825000D02*
X74450000Y-92400000D01*
X87737500Y-82775000D02*
X87337500Y-83175000D01*
X104625000Y-91875000D02*
X104625000Y-90830000D01*
X87337500Y-83175000D02*
X87337500Y-83995000D01*
X87137500Y-87575000D02*
X91637500Y-87575000D01*
X86417500Y-83995000D02*
X86037500Y-84375000D01*
X90297500Y-83825000D02*
X90247500Y-83775000D01*
X92137500Y-87075000D02*
X101137500Y-87075000D01*
X121375000Y-101950000D02*
X122470000Y-101950000D01*
X91637500Y-87575000D02*
X92137500Y-87075000D01*
X110150000Y-93200000D02*
X105950000Y-93200000D01*
X86037500Y-85775000D02*
X86037500Y-86475000D01*
X89837500Y-82775000D02*
X87737500Y-82775000D01*
X92500000Y-83825000D02*
X90297500Y-83825000D01*
X90247500Y-83185000D02*
X89837500Y-82775000D01*
X75150000Y-93100000D02*
X80700000Y-93100000D01*
X101237500Y-85175000D02*
X101237500Y-86975000D01*
%TO.N,Net-(U12-VDD3_0)*%
X115985000Y-100925000D02*
X116000000Y-100910000D01*
X114925000Y-99875000D02*
X114925000Y-100925000D01*
X114925000Y-100925000D02*
X115985000Y-100925000D01*
%TO.N,Net-(U13-INV_CLKO)*%
X69525000Y-93325000D02*
X69325000Y-93125000D01*
X72000000Y-93325000D02*
X69525000Y-93325000D01*
%TO.N,/BM1366-2/0V8*%
X83620000Y-118830000D02*
X85450000Y-117000000D01*
X90810000Y-115110000D02*
X90800000Y-115100000D01*
X114200000Y-119700000D02*
X114200000Y-118520000D01*
X93262500Y-116350000D02*
X92150000Y-116350000D01*
X83062500Y-121050000D02*
X83575000Y-120537500D01*
X72300000Y-120000000D02*
X72300000Y-118780000D01*
X88000000Y-117320000D02*
X87445000Y-117320000D01*
X87445000Y-117320000D02*
X87125000Y-117000000D01*
X102050000Y-117830000D02*
X102050000Y-116200000D01*
X83575000Y-120537500D02*
X83575000Y-120350000D01*
X114200000Y-118520000D02*
X114220000Y-118500000D01*
X102900000Y-121100000D02*
X112800000Y-121100000D01*
X101900000Y-120100000D02*
X102900000Y-121100000D01*
X112800000Y-121100000D02*
X114200000Y-119700000D01*
X85450000Y-117000000D02*
X85850000Y-117000000D01*
X72300000Y-120200000D02*
X73150000Y-121050000D01*
X73150000Y-121050000D02*
X83062500Y-121050000D01*
X92150000Y-116350000D02*
X91800000Y-116000000D01*
X102050000Y-116200000D02*
X101202400Y-115352400D01*
X101202400Y-115352400D02*
X91702400Y-115352400D01*
X101900000Y-119900000D02*
X101380000Y-119380000D01*
X90810000Y-116000000D02*
X90810000Y-115110000D01*
X101900000Y-119900000D02*
X101900000Y-120100000D01*
X101380000Y-118500000D02*
X102050000Y-117830000D01*
X90800000Y-115100000D02*
X89100000Y-115100000D01*
X91450000Y-115100000D02*
X90800000Y-115100000D01*
X83575000Y-120350000D02*
X83550000Y-120325000D01*
X91800000Y-116000000D02*
X90810000Y-116000000D01*
X87125000Y-117000000D02*
X85850000Y-117000000D01*
X83550000Y-118830000D02*
X83620000Y-118830000D01*
X72300000Y-120000000D02*
X72300000Y-120200000D01*
X91702400Y-115352400D02*
X91450000Y-115100000D01*
X83550000Y-120325000D02*
X83550000Y-118830000D01*
X89100000Y-115100000D02*
X88000000Y-116200000D01*
X101380000Y-119380000D02*
X101380000Y-118500000D01*
X88000000Y-116200000D02*
X88000000Y-117320000D01*
%TO.N,/BM1366-2/1V8*%
X76820000Y-119930000D02*
X76800000Y-119950000D01*
X82375000Y-119525000D02*
X82375000Y-120025000D01*
X85450000Y-113700000D02*
X86800000Y-113700000D01*
X76820000Y-115800000D02*
X75200000Y-115800000D01*
X100775000Y-114400000D02*
X101800000Y-114400000D01*
X86800000Y-114500000D02*
X87100000Y-114800000D01*
X86800000Y-113700000D02*
X86800000Y-112700000D01*
X76350000Y-113850000D02*
X75150000Y-113850000D01*
X103100000Y-118480000D02*
X103120000Y-118500000D01*
X73500000Y-119950000D02*
X76800000Y-119950000D01*
X91675000Y-114500000D02*
X92175000Y-115000000D01*
X76820000Y-116550000D02*
X76820000Y-119930000D01*
X89100000Y-110300000D02*
X88200000Y-111200000D01*
X91010000Y-110610000D02*
X90700000Y-110300000D01*
X82300000Y-119950000D02*
X82375000Y-120025000D01*
X100175000Y-115000000D02*
X100775000Y-114400000D01*
X73500000Y-119950000D02*
X73500000Y-118780000D01*
X82100000Y-118855000D02*
X82100000Y-119250000D01*
X73450000Y-119950000D02*
X73500000Y-119950000D01*
X103100000Y-119800000D02*
X103100000Y-118580000D01*
X103100000Y-115500000D02*
X102000000Y-114400000D01*
X112900000Y-119800000D02*
X113000000Y-119700000D01*
X87380000Y-112120000D02*
X88200000Y-112120000D01*
X103100000Y-119800000D02*
X112900000Y-119800000D01*
X92175000Y-115000000D02*
X100175000Y-115000000D01*
X76800000Y-119950000D02*
X82300000Y-119950000D01*
X88900000Y-114500000D02*
X91675000Y-114500000D01*
X113000000Y-119700000D02*
X113000000Y-118680000D01*
X90700000Y-110300000D02*
X89100000Y-110300000D01*
X88600000Y-114800000D02*
X88900000Y-114500000D01*
X91010000Y-111200000D02*
X91010000Y-110610000D01*
X102000000Y-114400000D02*
X101800000Y-114400000D01*
X86800000Y-112700000D02*
X87380000Y-112120000D01*
X88200000Y-111200000D02*
X88200000Y-112120000D01*
X87100000Y-114800000D02*
X88600000Y-114800000D01*
X82100000Y-119250000D02*
X82375000Y-119525000D01*
X76820000Y-114320000D02*
X76350000Y-113850000D01*
X93162500Y-111150000D02*
X91060000Y-111150000D01*
X86800000Y-113700000D02*
X86800000Y-114500000D01*
X103100000Y-115500000D02*
X103100000Y-118480000D01*
X76820000Y-115800000D02*
X76820000Y-114320000D01*
%TO.N,Net-(U13-CLKO)*%
X71950000Y-95550000D02*
X71875000Y-95475000D01*
X71875000Y-95475000D02*
X69325000Y-95475000D01*
%TO.N,Net-(U12-VDD2_0)*%
X114310000Y-101885000D02*
X114925000Y-101885000D01*
X115310000Y-101885000D02*
X115575000Y-102150000D01*
X113800000Y-101375000D02*
X114310000Y-101885000D01*
X114925000Y-101885000D02*
X115310000Y-101885000D01*
X115575000Y-102150000D02*
X116000000Y-102150000D01*
X113800000Y-100875000D02*
X113800000Y-101375000D01*
%TO.N,/NRSTI*%
X127025000Y-90825000D02*
X129400000Y-93200000D01*
X115150000Y-94350000D02*
X115150000Y-93300000D01*
X120500000Y-90825000D02*
X127025000Y-90825000D01*
X115475000Y-97675000D02*
X115150000Y-97350000D01*
X115150000Y-97350000D02*
X115150000Y-94350000D01*
X116975000Y-94350000D02*
X120500000Y-90825000D01*
X120375000Y-88075000D02*
X120375000Y-86762500D01*
X115150000Y-93300000D02*
X120375000Y-88075000D01*
X115975000Y-97675000D02*
X115475000Y-97675000D01*
X115150000Y-94350000D02*
X116975000Y-94350000D01*
%TO.N,/RO*%
X128600000Y-88600000D02*
X129500000Y-88600000D01*
X130500000Y-94200000D02*
X131400000Y-93300000D01*
X115975000Y-95675000D02*
X116825000Y-95675000D01*
X116825000Y-95675000D02*
X120800000Y-91700000D01*
X122800000Y-88900000D02*
X128300000Y-88900000D01*
X126450000Y-91700000D02*
X128950000Y-94200000D01*
X121675000Y-86762500D02*
X121675000Y-87775000D01*
X131400000Y-93300000D02*
X131400000Y-89200000D01*
X121675000Y-87775000D02*
X122800000Y-88900000D01*
X128950000Y-94200000D02*
X130500000Y-94200000D01*
X120800000Y-91700000D02*
X126450000Y-91700000D01*
X131400000Y-89200000D02*
X130800000Y-88600000D01*
X128300000Y-88900000D02*
X128600000Y-88600000D01*
X130800000Y-88600000D02*
X129500000Y-88600000D01*
%TO.N,/CI*%
X116600000Y-92800000D02*
X119875000Y-89525000D01*
X121025000Y-86762500D02*
X121025000Y-89525000D01*
X121025000Y-89525000D02*
X128125000Y-89525000D01*
X128125000Y-89525000D02*
X129500000Y-90900000D01*
X119875000Y-89525000D02*
X121025000Y-89525000D01*
%TO.N,/BM1366-3/0V8*%
X91950000Y-145350000D02*
X91600000Y-145000000D01*
X89700000Y-144000000D02*
X91000000Y-144000000D01*
X101900000Y-148500000D02*
X103800000Y-150400000D01*
X84600000Y-144900000D02*
X86325000Y-144900000D01*
X70125000Y-146200000D02*
X70125000Y-145975000D01*
X101580000Y-147480000D02*
X101580000Y-146800000D01*
X91000000Y-144000000D02*
X91500000Y-143500000D01*
X70125000Y-145975000D02*
X69845000Y-145695000D01*
X88300000Y-144900000D02*
X88800000Y-144900000D01*
X85600000Y-146500000D02*
X85600000Y-145925000D01*
X83800000Y-148900000D02*
X82100000Y-150600000D01*
X103800000Y-150400000D02*
X112500000Y-150400000D01*
X101900000Y-147800000D02*
X101580000Y-147480000D01*
X114000000Y-148900000D02*
X114000000Y-147700000D01*
X83800000Y-148300000D02*
X83800000Y-148900000D01*
X99300000Y-143500000D02*
X101600000Y-145800000D01*
X112500000Y-150400000D02*
X114000000Y-148900000D01*
X82100000Y-150600000D02*
X74525000Y-150600000D01*
X88800000Y-144900000D02*
X89700000Y-144000000D01*
X101600000Y-146780000D02*
X101580000Y-146800000D01*
X86500000Y-145695000D02*
X86500000Y-144900000D01*
X69845000Y-145695000D02*
X69350000Y-145695000D01*
X86325000Y-144900000D02*
X86500000Y-144900000D01*
X101600000Y-145800000D02*
X101600000Y-146780000D01*
X85600000Y-145925000D02*
X85830000Y-145695000D01*
X84800000Y-147300000D02*
X85600000Y-146500000D01*
X88300000Y-145720000D02*
X88300000Y-144900000D01*
X114020000Y-147680000D02*
X114000000Y-147700000D01*
X84520000Y-144980000D02*
X84600000Y-144900000D01*
X84800000Y-147300000D02*
X83800000Y-148300000D01*
X101900000Y-147800000D02*
X101900000Y-148500000D01*
X70725000Y-146800000D02*
X70125000Y-146200000D01*
X85830000Y-145695000D02*
X86500000Y-145695000D01*
X86500000Y-144900000D02*
X88300000Y-144900000D01*
X91010000Y-144010000D02*
X91000000Y-144000000D01*
X91600000Y-145000000D02*
X91010000Y-145000000D01*
X92562500Y-145350000D02*
X91950000Y-145350000D01*
X91500000Y-143500000D02*
X99300000Y-143500000D01*
X114020000Y-146800000D02*
X114020000Y-147680000D01*
X91010000Y-145000000D02*
X91010000Y-144010000D01*
X74525000Y-150600000D02*
X70725000Y-146800000D01*
%TO.N,/BM1366-3/1V8*%
X88700000Y-138900000D02*
X88000000Y-139600000D01*
X91750000Y-140050000D02*
X91400000Y-139700000D01*
X99400000Y-143125000D02*
X99825000Y-143125000D01*
X73725000Y-148500000D02*
X70800000Y-145575000D01*
X84775000Y-146125000D02*
X82400000Y-148500000D01*
X102300000Y-146500000D02*
X102580000Y-146780000D01*
X103200000Y-146780000D02*
X103200000Y-147800000D01*
X112280000Y-145480000D02*
X112900000Y-146100000D01*
X102580000Y-146780000D02*
X103200000Y-146780000D01*
X103200000Y-147800000D02*
X103200000Y-148400000D01*
X84300000Y-146600000D02*
X82880000Y-146600000D01*
X100100000Y-141300000D02*
X99400000Y-142000000D01*
X114250000Y-144650000D02*
X116150000Y-144650000D01*
X112900000Y-146100000D02*
X112880000Y-146120000D01*
X85975000Y-141725000D02*
X85975000Y-143600000D01*
X88000000Y-139600000D02*
X88000000Y-140520000D01*
X90810000Y-139210000D02*
X90500000Y-138900000D01*
X82880000Y-144620000D02*
X82880000Y-146600000D01*
X114100000Y-144500000D02*
X112280000Y-144500000D01*
X82880000Y-144620000D02*
X83900000Y-143600000D01*
X90500000Y-138900000D02*
X88700000Y-138900000D01*
X87180000Y-140520000D02*
X85975000Y-141725000D01*
X70800000Y-145575000D02*
X71945000Y-145575000D01*
X102300000Y-145600000D02*
X102300000Y-146500000D01*
X114250000Y-144650000D02*
X114100000Y-144500000D01*
X82400000Y-148500000D02*
X73725000Y-148500000D01*
X112900000Y-148300000D02*
X112900000Y-147700000D01*
X99825000Y-143125000D02*
X102300000Y-145600000D01*
X92662500Y-140050000D02*
X91750000Y-140050000D01*
X112880000Y-146120000D02*
X112880000Y-146800000D01*
X86600000Y-143600000D02*
X87075000Y-143125000D01*
X71945000Y-145575000D02*
X72520000Y-146150000D01*
X87075000Y-143125000D02*
X99400000Y-143125000D01*
X112280000Y-144500000D02*
X112280000Y-145480000D01*
X111900000Y-149300000D02*
X112900000Y-148300000D01*
X85975000Y-143600000D02*
X86600000Y-143600000D01*
X101200000Y-141300000D02*
X100100000Y-141300000D01*
X112900000Y-147700000D02*
X112900000Y-146780000D01*
X104100000Y-149300000D02*
X111900000Y-149300000D01*
X88000000Y-140520000D02*
X87180000Y-140520000D01*
X83900000Y-143600000D02*
X85975000Y-143600000D01*
X90810000Y-139700000D02*
X90810000Y-139210000D01*
X99400000Y-142000000D02*
X99400000Y-143125000D01*
X91400000Y-139700000D02*
X90810000Y-139700000D01*
X103200000Y-148400000D02*
X104100000Y-149300000D01*
X84775000Y-146125000D02*
X84300000Y-146600000D01*
%TO.N,Net-(U12-VDD1_0)*%
X114940000Y-103110000D02*
X114925000Y-103125000D01*
X114325000Y-103125000D02*
X114925000Y-103125000D01*
X113800000Y-102600000D02*
X114325000Y-103125000D01*
X116000000Y-103110000D02*
X114940000Y-103110000D01*
%TO.N,Net-(U12-VDD1_1)*%
X85860000Y-102790000D02*
X88315000Y-102790000D01*
X99725000Y-103275000D02*
X101700000Y-103275000D01*
X88315000Y-102790000D02*
X88750000Y-103225000D01*
X96775000Y-103500000D02*
X99500000Y-103500000D01*
X85475000Y-103175000D02*
X85860000Y-102790000D01*
X88750000Y-103225000D02*
X96500000Y-103225000D01*
X84625000Y-103175000D02*
X85475000Y-103175000D01*
X99500000Y-103500000D02*
X99725000Y-103275000D01*
X96500000Y-103225000D02*
X96775000Y-103500000D01*
%TO.N,Net-(U12-VDD2_1)*%
X97575000Y-102450000D02*
X98785000Y-102450000D01*
X84650000Y-102150000D02*
X85375000Y-102150000D01*
X98825000Y-102490000D02*
X99410000Y-102490000D01*
X85815000Y-101710000D02*
X88260000Y-101710000D01*
X99410000Y-102490000D02*
X99700000Y-102200000D01*
X101700000Y-102200000D02*
X99700000Y-102200000D01*
X89000000Y-102450000D02*
X97575000Y-102450000D01*
X85375000Y-102150000D02*
X85815000Y-101710000D01*
X98785000Y-102450000D02*
X98825000Y-102490000D01*
X88260000Y-101710000D02*
X89000000Y-102450000D01*
%TO.N,Net-(U12-VDD3_1)*%
X99575000Y-101475000D02*
X88925000Y-101475000D01*
X85376535Y-101098465D02*
X84676432Y-101098465D01*
X88925000Y-101475000D02*
X88250000Y-100800000D01*
X88250000Y-100800000D02*
X88250000Y-100750000D01*
X85725000Y-100750000D02*
X85376535Y-101098465D01*
X99950000Y-101100000D02*
X99575000Y-101475000D01*
X101725000Y-101100000D02*
X99950000Y-101100000D01*
X88250000Y-100750000D02*
X85725000Y-100750000D01*
%TO.N,/Fan/FAN1_PWM*%
X89175000Y-60650000D02*
X87320000Y-60650000D01*
X89840000Y-63025000D02*
X89840000Y-61315000D01*
X89840000Y-61315000D02*
X89175000Y-60650000D01*
%TO.N,/Fan/FAN2_PWM*%
X92785000Y-72120000D02*
X92530000Y-72375000D01*
X92785000Y-70350000D02*
X92785000Y-72120000D01*
%TO.N,Net-(U18-VDD1_0)*%
X114600000Y-128300000D02*
X115600000Y-129300000D01*
X115900000Y-129300000D02*
X116860000Y-129300000D01*
X116860000Y-129300000D02*
X116900000Y-129260000D01*
X115600000Y-129300000D02*
X115900000Y-129300000D01*
%TO.N,Net-(U18-VDD2_0)*%
X115460000Y-130260000D02*
X115900000Y-130260000D01*
X115900000Y-130260000D02*
X115900000Y-131220000D01*
X114600000Y-129400000D02*
X115460000Y-130260000D01*
%TO.N,Net-(U22-INV_CLKO)*%
X99675000Y-146550000D02*
X99675000Y-145425000D01*
X99400000Y-146825000D02*
X99675000Y-146550000D01*
X99400000Y-148800000D02*
X99400000Y-146825000D01*
%TO.N,Net-(U18-VDD3_0)*%
X115900000Y-132180000D02*
X115060000Y-132180000D01*
X114600000Y-131680000D02*
X114580000Y-131700000D01*
X114600000Y-130500000D02*
X114600000Y-131680000D01*
X115060000Y-132180000D02*
X114580000Y-131700000D01*
%TO.N,Net-(U15A--)*%
X64725000Y-112700000D02*
X64725000Y-113850000D01*
X67275000Y-112690000D02*
X68750000Y-112690000D01*
X66325000Y-112400000D02*
X66615000Y-112690000D01*
X66325000Y-112400000D02*
X65025000Y-112400000D01*
X66615000Y-112690000D02*
X67275000Y-112690000D01*
X65025000Y-112400000D02*
X64725000Y-112700000D01*
%TO.N,Net-(U18-VDD3_1)*%
X98550000Y-130975000D02*
X96975000Y-132550000D01*
X86800000Y-131650000D02*
X86980000Y-131830000D01*
X99650000Y-131015000D02*
X98590000Y-131015000D01*
X100825000Y-131000000D02*
X99665000Y-131000000D01*
X85830000Y-131650000D02*
X86800000Y-131650000D01*
X85325000Y-130950000D02*
X85325000Y-131145000D01*
X89150000Y-132550000D02*
X89000000Y-132400000D01*
X89000000Y-132400000D02*
X89000000Y-132375000D01*
X86980000Y-131830000D02*
X86980000Y-132300000D01*
X98590000Y-131015000D02*
X98550000Y-130975000D01*
X89000000Y-132375000D02*
X88105000Y-132375000D01*
X88100000Y-132380000D02*
X87060000Y-132380000D01*
X88105000Y-132375000D02*
X88100000Y-132380000D01*
X87060000Y-132380000D02*
X86980000Y-132300000D01*
X99665000Y-131000000D02*
X99650000Y-131015000D01*
X96975000Y-132550000D02*
X89150000Y-132550000D01*
X85325000Y-131145000D02*
X85830000Y-131650000D01*
%TO.N,Net-(U15B--)*%
X61825000Y-112400000D02*
X62125000Y-112700000D01*
X60175000Y-112700000D02*
X59275000Y-112700000D01*
X59275000Y-112700000D02*
X58060000Y-112700000D01*
X61825000Y-112400000D02*
X60475000Y-112400000D01*
X60475000Y-112400000D02*
X60175000Y-112700000D01*
X62125000Y-112700000D02*
X62125000Y-113850000D01*
X58060000Y-112700000D02*
X58050000Y-112690000D01*
%TO.N,Net-(U13-ADDR0)*%
X84625000Y-93875000D02*
X85200000Y-93875000D01*
X85200000Y-93875000D02*
X86150000Y-92925000D01*
%TO.N,Net-(U13-ADDR1)*%
X84625000Y-92875000D02*
X84625000Y-91575000D01*
X84625000Y-91575000D02*
X84500000Y-91450000D01*
%TO.N,Net-(U18-VDD2_1)*%
X87160000Y-130980000D02*
X87600000Y-131420000D01*
X86700000Y-130980000D02*
X87160000Y-130980000D01*
X100825000Y-129875000D02*
X100725000Y-129975000D01*
X86305000Y-130980000D02*
X86700000Y-130980000D01*
X100725000Y-129975000D02*
X99650000Y-129975000D01*
X98260000Y-130015000D02*
X98550000Y-130015000D01*
X99650000Y-129975000D02*
X98590000Y-129975000D01*
X98590000Y-129975000D02*
X98550000Y-130015000D01*
X87600000Y-131420000D02*
X88920000Y-131420000D01*
X85400000Y-130075000D02*
X86305000Y-130980000D01*
X96300000Y-131975000D02*
X98260000Y-130015000D01*
X85400000Y-129400000D02*
X85400000Y-130075000D01*
X88920000Y-131420000D02*
X89475000Y-131975000D01*
X89475000Y-131975000D02*
X96300000Y-131975000D01*
%TO.N,/BM1366-1/BI1*%
X116000000Y-96650000D02*
X118040000Y-96650000D01*
X118040000Y-96650000D02*
X118050000Y-96640000D01*
D55*
%TO.N,/VIN*%
X87450000Y-73725000D02*
X87450000Y-72375000D01*
X90725000Y-77475000D02*
X90725000Y-77000000D01*
X88300000Y-64500000D02*
X87300000Y-63500000D01*
D51*
X81505000Y-59915000D02*
X82240000Y-60650000D01*
D50*
X82545000Y-60580000D02*
X82500000Y-60625000D01*
D51*
X58285000Y-65415000D02*
X58400000Y-65300000D01*
X86655000Y-70475000D02*
X86655000Y-71580000D01*
D55*
X85090000Y-63500000D02*
X82240000Y-60650000D01*
D51*
X81505000Y-58475000D02*
X81505000Y-59915000D01*
D57*
X105000000Y-68675000D02*
X102800000Y-68675000D01*
D55*
X87300000Y-63500000D02*
X85090000Y-63500000D01*
X90725000Y-77000000D02*
X87450000Y-73725000D01*
D51*
X86655000Y-71580000D02*
X87450000Y-72375000D01*
D55*
X88300000Y-65500000D02*
X88300000Y-64500000D01*
D53*
%TO.N,Net-(U3-VSEL)*%
X54075000Y-60415000D02*
X54075000Y-59575000D01*
X54075000Y-58710000D02*
X54075000Y-59575000D01*
D50*
%TO.N,Net-(U18-VDD1_1)*%
X85400000Y-128350000D02*
X85730000Y-128350000D01*
X95700000Y-131375000D02*
X89700000Y-131375000D01*
X98590000Y-129015000D02*
X98550000Y-128975000D01*
X87655000Y-130330000D02*
X87345000Y-130020000D01*
X98550000Y-128975000D02*
X98100000Y-128975000D01*
X88125000Y-130330000D02*
X87655000Y-130330000D01*
X87345000Y-130020000D02*
X86700000Y-130020000D01*
X86700000Y-129320000D02*
X86700000Y-130020000D01*
X99650000Y-129015000D02*
X98590000Y-129015000D01*
X85730000Y-128350000D02*
X86700000Y-129320000D01*
X100875000Y-128800000D02*
X100660000Y-129015000D01*
X89700000Y-131375000D02*
X88655000Y-130330000D01*
X98100000Y-128975000D02*
X95700000Y-131375000D01*
X100660000Y-129015000D02*
X99650000Y-129015000D01*
X88655000Y-130330000D02*
X88125000Y-130330000D01*
%TO.N,Net-(U15C--)*%
X62125000Y-108125000D02*
X62125000Y-109200000D01*
X61725000Y-109600000D02*
X60675000Y-109600000D01*
X59250000Y-109210000D02*
X58025000Y-109210000D01*
X60285000Y-109210000D02*
X59250000Y-109210000D01*
X62125000Y-109200000D02*
X61725000Y-109600000D01*
X60675000Y-109600000D02*
X60285000Y-109210000D01*
%TO.N,Net-(U15D--)*%
X64725000Y-109400000D02*
X64725000Y-108125000D01*
X67250000Y-109210000D02*
X68750000Y-109210000D01*
X66025000Y-109700000D02*
X66515000Y-109210000D01*
X66515000Y-109210000D02*
X67250000Y-109210000D01*
X65025000Y-109700000D02*
X64725000Y-109400000D01*
X66025000Y-109700000D02*
X65025000Y-109700000D01*
%TO.N,Net-(R54-Pad1)*%
X67625000Y-107275000D02*
X67635000Y-107285000D01*
X65440000Y-108190000D02*
X65375000Y-108125000D01*
X65375000Y-108125000D02*
X65490000Y-108240000D01*
X67250000Y-107650000D02*
X67625000Y-107275000D01*
X67250000Y-108190000D02*
X65440000Y-108190000D01*
X67275000Y-108165000D02*
X67250000Y-108190000D01*
X67635000Y-107285000D02*
X70250000Y-107285000D01*
X67250000Y-108190000D02*
X67250000Y-107650000D01*
%TO.N,Net-(J6-Pin_4)*%
X113500000Y-64950000D02*
X113500000Y-62350000D01*
X114140000Y-65590000D02*
X113500000Y-64950000D01*
X114140000Y-69500000D02*
X114140000Y-65590000D01*
%TO.N,Net-(U20-VDD3_1)*%
X70340000Y-129590000D02*
X69590000Y-129590000D01*
X71100000Y-129700000D02*
X70450000Y-129700000D01*
X69550000Y-129550000D02*
X68390000Y-129550000D01*
X70450000Y-129700000D02*
X70340000Y-129590000D01*
X69400000Y-129580000D02*
X69360000Y-129620000D01*
%TO.N,Net-(U20-VDD2_1)*%
X69550000Y-128590000D02*
X68390000Y-128590000D01*
X71100000Y-128600000D02*
X69640000Y-128600000D01*
X69380000Y-128600000D02*
X69400000Y-128620000D01*
X69640000Y-128600000D02*
X69590000Y-128550000D01*
%TO.N,Net-(U20-VDD1_1)*%
X70960000Y-127590000D02*
X69590000Y-127590000D01*
X71100000Y-127450000D02*
X70960000Y-127590000D01*
X68390000Y-127570000D02*
X69570000Y-127570000D01*
%TO.N,Net-(U22-ADDR0)*%
X116800000Y-147600000D02*
X119400000Y-147600000D01*
%TO.N,Net-(U22-ADDR1)*%
X116600000Y-146100000D02*
X117900000Y-146100000D01*
X116100000Y-146600000D02*
X116600000Y-146100000D01*
%TO.N,Net-(U22-VDD3_0)*%
X115540000Y-157140000D02*
X115900000Y-157140000D01*
X114600000Y-156200000D02*
X115540000Y-157140000D01*
X117100000Y-157100000D02*
X115940000Y-157100000D01*
X115940000Y-157100000D02*
X115900000Y-157140000D01*
%TO.N,Net-(U22-VDD2_0)*%
X115900000Y-158100000D02*
X115900000Y-159340000D01*
X114600000Y-157400000D02*
X115300000Y-158100000D01*
X115300000Y-158100000D02*
X115900000Y-158100000D01*
%TO.N,Net-(U22-VDD1_0)*%
X114600000Y-158720000D02*
X114600000Y-159820000D01*
X115080000Y-160300000D02*
X114600000Y-159820000D01*
X114620000Y-158700000D02*
X114600000Y-158720000D01*
X115900000Y-160300000D02*
X115080000Y-160300000D01*
%TO.N,Net-(U21A--)*%
X126580000Y-140100000D02*
X127660000Y-140100000D01*
X126080000Y-141762500D02*
X126080000Y-140600000D01*
X128850000Y-140740000D02*
X130050000Y-140740000D01*
X128300000Y-140740000D02*
X128850000Y-140740000D01*
X126080000Y-140600000D02*
X126580000Y-140100000D01*
X127660000Y-140100000D02*
X128300000Y-140740000D01*
%TO.N,Net-(U21B--)*%
X119200000Y-140715000D02*
X120550000Y-140715000D01*
X121760000Y-140720000D02*
X120555000Y-140720000D01*
X123480000Y-140700000D02*
X122980000Y-140200000D01*
X122280000Y-140200000D02*
X121760000Y-140720000D01*
X120555000Y-140720000D02*
X120550000Y-140715000D01*
X122980000Y-140200000D02*
X122280000Y-140200000D01*
X123480000Y-141762500D02*
X123480000Y-140700000D01*
%TO.N,/BM1366-3/NRSTO3*%
X70700000Y-155700000D02*
X68800000Y-155700000D01*
X68800000Y-155700000D02*
X67600000Y-156900000D01*
X66700000Y-156900000D02*
X64500000Y-159100000D01*
X67600000Y-156900000D02*
X66700000Y-156900000D01*
%TO.N,Net-(U21C--)*%
X120625000Y-137085000D02*
X119350000Y-137085000D01*
X121660000Y-137080000D02*
X120630000Y-137080000D01*
X122980000Y-137600000D02*
X122180000Y-137600000D01*
X120630000Y-137080000D02*
X120625000Y-137085000D01*
X123480000Y-136037500D02*
X123480000Y-137100000D01*
X123480000Y-137100000D02*
X122980000Y-137600000D01*
X122180000Y-137600000D02*
X121660000Y-137080000D01*
%TO.N,Net-(U21D--)*%
X128690000Y-137100000D02*
X128675000Y-137085000D01*
X127950000Y-137100000D02*
X128660000Y-137100000D01*
X127500000Y-137550000D02*
X127950000Y-137100000D01*
X126080000Y-137200000D02*
X126430000Y-137550000D01*
X126430000Y-137550000D02*
X127500000Y-137550000D01*
X126080000Y-136037500D02*
X126080000Y-137200000D01*
X129915000Y-137100000D02*
X128690000Y-137100000D01*
X128660000Y-137100000D02*
X128675000Y-137085000D01*
%TO.N,Net-(J6-Pin_6)*%
X111050000Y-65750000D02*
X111050000Y-62047600D01*
X109060000Y-69500000D02*
X109060000Y-67740000D01*
X109060000Y-67740000D02*
X111050000Y-65750000D01*
%TO.N,Net-(J6-Pin_3)*%
X116680000Y-66980000D02*
X114550000Y-64850000D01*
X114550000Y-64850000D02*
X114550000Y-63300000D01*
X116680000Y-69500000D02*
X116680000Y-66980000D01*
%TO.N,Net-(J6-Pin_5)*%
X112350000Y-65800000D02*
X111600000Y-66550000D01*
X111600000Y-66550000D02*
X111600000Y-69500000D01*
X112350000Y-62047600D02*
X112350000Y-65800000D01*
%TO.N,Net-(U6-GPIO4{slash}TOUCH4{slash}ADC1_CH3)*%
X104150000Y-51050000D02*
X105450000Y-52350000D01*
X102650000Y-51050000D02*
X104150000Y-51050000D01*
%TO.N,Net-(U6-GPIO5{slash}TOUCH5{slash}ADC1_CH4)*%
X103200000Y-52200000D02*
X105400000Y-54400000D01*
X102650000Y-52200000D02*
X103200000Y-52200000D01*
%TO.N,Net-(R76-Pad1)*%
X126757500Y-136065000D02*
X126730000Y-136037500D01*
X128680000Y-136140000D02*
X128680000Y-131390000D01*
X126730000Y-136037500D02*
X126832500Y-136140000D01*
X128680000Y-131390000D02*
X128600000Y-131310000D01*
X128675000Y-136065000D02*
X126757500Y-136065000D01*
%TO.N,Net-(U25-VDD1_1)*%
X72400000Y-158600000D02*
X72200000Y-158800000D01*
D53*
X71160000Y-159800000D02*
X72200000Y-159800000D01*
D50*
X72200000Y-158800000D02*
X72200000Y-159800000D01*
%TO.N,Net-(U25-VDD2_1)*%
X71300000Y-158600000D02*
X71220000Y-158680000D01*
X70180000Y-158680000D02*
X70180000Y-159780000D01*
X70180000Y-159780000D02*
X70200000Y-159800000D01*
X71220000Y-158680000D02*
X70180000Y-158680000D01*
%TO.N,Net-(U25-VDD3_1)*%
X70120000Y-157780000D02*
X68980000Y-157780000D01*
X71080000Y-157720000D02*
X70180000Y-157720000D01*
X71300000Y-157500000D02*
X71080000Y-157720000D01*
X70180000Y-157720000D02*
X70120000Y-157780000D01*
%TO.N,/BM1366-3/BO3*%
X69000000Y-154500000D02*
X67900000Y-155600000D01*
X67900000Y-155600000D02*
X65500000Y-155600000D01*
X70700000Y-154500000D02*
X69000000Y-154500000D01*
%TO.N,Net-(U6-GPIO6{slash}TOUCH6{slash}ADC1_CH5)*%
X102700000Y-53450000D02*
X102700000Y-53750000D01*
X105500000Y-56550000D02*
X106300000Y-56550000D01*
X102700000Y-53750000D02*
X105500000Y-56550000D01*
%TO.N,/BM1366-1/VDD1*%
X99560000Y-120365000D02*
X100025000Y-119900000D01*
D52*
X101350000Y-117075000D02*
X101145000Y-117280000D01*
D50*
X79480000Y-116550000D02*
X80825000Y-117895000D01*
X85225000Y-118300000D02*
X87980000Y-118300000D01*
X89990000Y-113100000D02*
X88220000Y-113100000D01*
X89790000Y-118300000D02*
X88020000Y-118300000D01*
X72850000Y-115750000D02*
X71575000Y-115750000D01*
D54*
X86100000Y-137825000D02*
X86100000Y-138975000D01*
D50*
X68750000Y-113710000D02*
X69290000Y-113710000D01*
X100420000Y-119620000D02*
X100420000Y-118500000D01*
X87720000Y-129370000D02*
X88125000Y-129370000D01*
X115900000Y-128300000D02*
X116900000Y-128300000D01*
X124780000Y-136037500D02*
X124780000Y-137600000D01*
X105100000Y-118500000D02*
X112020000Y-118500000D01*
X84700000Y-118825000D02*
X85225000Y-118300000D01*
X70850000Y-103550000D02*
X73025000Y-103550000D01*
X73025000Y-103550000D02*
X73150000Y-103675000D01*
X88200000Y-113800000D02*
X87900000Y-114100000D01*
D52*
X97480000Y-117300000D02*
X97500000Y-117280000D01*
D50*
X71100000Y-126350000D02*
X70100000Y-126350000D01*
X125600000Y-138420000D02*
X128660000Y-138420000D01*
D53*
X73500000Y-117820000D02*
X74230000Y-117820000D01*
D50*
X57460000Y-113710000D02*
X58050000Y-113710000D01*
D52*
X95537500Y-117300000D02*
X97480000Y-117300000D01*
D50*
X96900000Y-104475000D02*
X96175000Y-103750000D01*
X58025000Y-108190000D02*
X57585000Y-108190000D01*
X114925000Y-104085000D02*
X113260000Y-104085000D01*
X69825000Y-113175000D02*
X69825000Y-108650000D01*
X97835000Y-128040000D02*
X95125000Y-130750000D01*
D53*
X72300000Y-117820000D02*
X73500000Y-117820000D01*
D50*
X69840000Y-126610000D02*
X68390000Y-126610000D01*
X115400000Y-119000000D02*
X115400000Y-119700000D01*
D54*
X101780000Y-108450000D02*
X103100000Y-108450000D01*
D50*
X95125000Y-130750000D02*
X89730000Y-130750000D01*
X57300000Y-113550000D02*
X57460000Y-113710000D01*
X96175000Y-103750000D02*
X85825000Y-103750000D01*
X100025000Y-119900000D02*
X100700000Y-119900000D01*
X69385000Y-108210000D02*
X68770000Y-108210000D01*
X98550000Y-128015000D02*
X98525000Y-128040000D01*
X89730000Y-130750000D02*
X88350000Y-129370000D01*
X99975000Y-103950000D02*
X99450000Y-104475000D01*
X104080000Y-118500000D02*
X105100000Y-118500000D01*
X128660000Y-138420000D02*
X128680000Y-138440000D01*
X85450000Y-127300000D02*
X85650000Y-127300000D01*
D54*
X101780000Y-106750000D02*
X103125000Y-106750000D01*
D50*
X88220000Y-113100000D02*
X88200000Y-113080000D01*
X123960000Y-138420000D02*
X124780000Y-137600000D01*
X115180000Y-118500000D02*
X115180000Y-118780000D01*
X98525000Y-128040000D02*
X97835000Y-128040000D01*
X88350000Y-129370000D02*
X88125000Y-129370000D01*
D54*
X84700000Y-137830000D02*
X84700000Y-138925000D01*
D52*
X95437500Y-112100000D02*
X97420000Y-112100000D01*
D54*
X103100000Y-108450000D02*
X103125000Y-108425000D01*
D50*
X115180000Y-118780000D02*
X115400000Y-119000000D01*
D54*
X84700000Y-138925000D02*
X84725000Y-138950000D01*
D50*
X87980000Y-118300000D02*
X88000000Y-118280000D01*
X99450000Y-104475000D02*
X96900000Y-104475000D01*
X80825000Y-117895000D02*
X82100000Y-117895000D01*
X102900000Y-103950000D02*
X99975000Y-103950000D01*
X85650000Y-127300000D02*
X87720000Y-129370000D01*
X83525000Y-117895000D02*
X83550000Y-117870000D01*
X70100000Y-126350000D02*
X69840000Y-126610000D01*
X99560000Y-120525000D02*
X99560000Y-120365000D01*
D53*
X74230000Y-117820000D02*
X74650000Y-117400000D01*
D50*
X88200000Y-113080000D02*
X88200000Y-113800000D01*
X85825000Y-103750000D02*
X85525000Y-104050000D01*
X57585000Y-108190000D02*
X57300000Y-108475000D01*
X88020000Y-118300000D02*
X88000000Y-118280000D01*
X57300000Y-108475000D02*
X57300000Y-113550000D01*
D52*
X102520000Y-112080000D02*
X97500000Y-112080000D01*
D50*
X100700000Y-119900000D02*
X100420000Y-119620000D01*
X82100000Y-117895000D02*
X83525000Y-117895000D01*
X113260000Y-104085000D02*
X113225000Y-104050000D01*
X69290000Y-113710000D02*
X69825000Y-113175000D01*
X121030000Y-138420000D02*
X123960000Y-138420000D01*
X77780000Y-116550000D02*
X79480000Y-116550000D01*
X125400000Y-132400000D02*
X125400000Y-131600000D01*
D52*
X102900000Y-111700000D02*
X102520000Y-112080000D01*
X101145000Y-117280000D02*
X97500000Y-117280000D01*
D50*
X69825000Y-108650000D02*
X69385000Y-108210000D01*
X100700000Y-120070000D02*
X100700000Y-119900000D01*
X68770000Y-108210000D02*
X68750000Y-108190000D01*
X125600000Y-138420000D02*
X124780000Y-137600000D01*
X85525000Y-104050000D02*
X83430000Y-104050000D01*
%TO.N,/BM1366-2/VDD2*%
X105500000Y-146800000D02*
X104180000Y-146800000D01*
X89690000Y-142200000D02*
X89500000Y-142200000D01*
X115200000Y-147700000D02*
X115200000Y-147400000D01*
X62775000Y-117700000D02*
X64025000Y-117700000D01*
X69350000Y-147450000D02*
X69350000Y-146655000D01*
X89690000Y-147400000D02*
X89690000Y-147190000D01*
X82700000Y-131550000D02*
X84625000Y-131550000D01*
X99800000Y-157200000D02*
X99800000Y-156410000D01*
X130925000Y-141400000D02*
X130565000Y-141760000D01*
X114250000Y-141350000D02*
X115050000Y-140550000D01*
X89690000Y-147190000D02*
X89180000Y-146680000D01*
X103100000Y-131400000D02*
X102550000Y-131950000D01*
X119335000Y-136080000D02*
X118595000Y-136080000D01*
D52*
X100650000Y-139775000D02*
X99445000Y-140980000D01*
D50*
X115050000Y-140550000D02*
X118225000Y-140550000D01*
D52*
X64025000Y-118700000D02*
X64025000Y-117700000D01*
D50*
X85400000Y-157100000D02*
X85620000Y-157320000D01*
X88780000Y-141480000D02*
X88000000Y-141480000D01*
X111320000Y-143880000D02*
X111320000Y-144500000D01*
X111920000Y-146800000D02*
X105500000Y-146800000D01*
X69400000Y-130620000D02*
X69360000Y-130580000D01*
X114250000Y-142350000D02*
X114250000Y-141350000D01*
X88300000Y-147225000D02*
X88300000Y-146680000D01*
X63425000Y-113850000D02*
X63425000Y-111800000D01*
X99800000Y-156410000D02*
X99810000Y-156400000D01*
X84800000Y-157100000D02*
X85400000Y-157100000D01*
X118225000Y-136450000D02*
X118225000Y-140550000D01*
X89180000Y-146680000D02*
X88300000Y-146680000D01*
X100800000Y-156400000D02*
X99810000Y-156400000D01*
X87345000Y-157320000D02*
X88125000Y-158100000D01*
D54*
X102155000Y-136525000D02*
X103450000Y-136525000D01*
D50*
X75500000Y-146600000D02*
X75050000Y-146150000D01*
X130925000Y-140000000D02*
X130925000Y-137110000D01*
X85620000Y-157320000D02*
X86500000Y-157320000D01*
X63775000Y-111450000D02*
X63425000Y-111800000D01*
X115200000Y-147400000D02*
X114980000Y-147180000D01*
X81920000Y-146600000D02*
X75500000Y-146600000D01*
D52*
X98420000Y-146280000D02*
X98425000Y-146275000D01*
D50*
X114250000Y-142350000D02*
X112850000Y-142350000D01*
D52*
X96880000Y-141000000D02*
X96900000Y-140980000D01*
D50*
X118560000Y-141735000D02*
X119200000Y-141735000D01*
X62825000Y-104990000D02*
X62825000Y-104050000D01*
X110200000Y-144500000D02*
X110175000Y-144475000D01*
X70200000Y-156700000D02*
X70080000Y-156820000D01*
X85375000Y-132300000D02*
X86020000Y-132300000D01*
X112850000Y-142350000D02*
X111320000Y-143880000D01*
X119350000Y-136065000D02*
X119335000Y-136080000D01*
X73175000Y-132050000D02*
X71675000Y-130550000D01*
D54*
X102155000Y-135050000D02*
X103425000Y-135050000D01*
D52*
X96880000Y-146300000D02*
X96900000Y-146280000D01*
D50*
X113620000Y-131700000D02*
X112600000Y-131700000D01*
X111320000Y-144500000D02*
X110200000Y-144500000D01*
X130925000Y-140000000D02*
X130925000Y-141400000D01*
X86500000Y-147525000D02*
X88000000Y-147525000D01*
X86500000Y-146655000D02*
X86500000Y-147525000D01*
D54*
X103425000Y-135050000D02*
X103450000Y-135075000D01*
D50*
X70700000Y-148000000D02*
X69900000Y-148000000D01*
X88000000Y-147525000D02*
X88300000Y-147225000D01*
X100600000Y-147800000D02*
X100600000Y-146820000D01*
X98475000Y-157700000D02*
X99300000Y-157700000D01*
X59955000Y-111500000D02*
X63125000Y-111500000D01*
X98085000Y-146275000D02*
X98425000Y-146275000D01*
X130565000Y-141760000D02*
X130050000Y-141760000D01*
D52*
X96900000Y-146280000D02*
X98420000Y-146280000D01*
D50*
X89500000Y-142200000D02*
X88780000Y-141480000D01*
X99675000Y-131950000D02*
X99650000Y-131975000D01*
X84625000Y-131550000D02*
X85375000Y-132300000D01*
X86675000Y-142175000D02*
X86675000Y-142150000D01*
X118225000Y-141400000D02*
X118560000Y-141735000D01*
X69900000Y-148000000D02*
X69350000Y-147450000D01*
D52*
X102900000Y-139775000D02*
X100650000Y-139775000D01*
X94937500Y-141000000D02*
X96880000Y-141000000D01*
D50*
X98030000Y-146330000D02*
X98085000Y-146275000D01*
X63125000Y-111500000D02*
X63425000Y-111800000D01*
X84800000Y-148500000D02*
X85775000Y-147525000D01*
X88125000Y-158100000D02*
X98075000Y-158100000D01*
X86675000Y-142150000D02*
X87345000Y-141480000D01*
X85775000Y-147525000D02*
X86500000Y-147525000D01*
X100600000Y-146820000D02*
X100620000Y-146800000D01*
X75050000Y-146150000D02*
X73480000Y-146150000D01*
X117100000Y-156140000D02*
X115920000Y-156140000D01*
X118225000Y-140550000D02*
X118225000Y-141400000D01*
X114980000Y-147180000D02*
X114980000Y-146800000D01*
X71675000Y-130550000D02*
X69590000Y-130550000D01*
X130925000Y-137110000D02*
X130935000Y-137100000D01*
X118595000Y-136080000D02*
X118225000Y-136450000D01*
X67275000Y-111455000D02*
X63775000Y-111450000D01*
X102550000Y-131950000D02*
X99675000Y-131950000D01*
X98075000Y-158100000D02*
X98475000Y-157700000D01*
X99300000Y-157700000D02*
X99800000Y-157200000D01*
D52*
X94837500Y-146300000D02*
X96880000Y-146300000D01*
D50*
X70080000Y-156820000D02*
X68980000Y-156820000D01*
X87345000Y-141480000D02*
X88000000Y-141480000D01*
D52*
X99445000Y-140980000D02*
X96900000Y-140980000D01*
D50*
X86500000Y-157320000D02*
X87345000Y-157320000D01*
%TO.N,/BM1366-3/RI3*%
X70700000Y-153200000D02*
X68300000Y-153200000D01*
%TO.N,/BM1366-3/CLKO3*%
X70700000Y-151900000D02*
X69500000Y-151900000D01*
X69500000Y-151900000D02*
X67500000Y-149900000D01*
X67500000Y-149900000D02*
X65500000Y-149900000D01*
%TO.N,/BM1366-3/CO3*%
X70700000Y-150600000D02*
X69125000Y-150600000D01*
X69125000Y-150600000D02*
X65025000Y-146500000D01*
X65025000Y-146500000D02*
X64725000Y-146500000D01*
%TO.N,/BM1366-1/CLKI1*%
X120200000Y-103300000D02*
X120150000Y-103350000D01*
X120200000Y-101700000D02*
X120200000Y-103300000D01*
%TO.N,/BM1366-2/NRSTI2*%
X66300000Y-119400000D02*
X60400000Y-119400000D01*
X59900000Y-118900000D02*
X59850000Y-118850000D01*
X60350000Y-113800000D02*
X60270000Y-113720000D01*
X60450000Y-113750000D02*
X60500000Y-113800000D01*
X60400000Y-113800000D02*
X60450000Y-113750000D01*
X61425000Y-113800000D02*
X61475000Y-113850000D01*
X69400000Y-120400000D02*
X68400000Y-119400000D01*
X60000000Y-119000000D02*
X59900000Y-118900000D01*
X68400000Y-119400000D02*
X66300000Y-119400000D01*
X60270000Y-113720000D02*
X59275000Y-113720000D01*
X71100000Y-122100000D02*
X69400000Y-120400000D01*
X60500000Y-113800000D02*
X61425000Y-113800000D01*
X60400000Y-119400000D02*
X60000000Y-119000000D01*
X60350000Y-113800000D02*
X60400000Y-113800000D01*
%TO.N,/BM1366-2/BI2*%
X71100000Y-123100000D02*
X68150000Y-120150000D01*
X61400000Y-108200000D02*
X61475000Y-108125000D01*
X59285000Y-108200000D02*
X60225000Y-108200000D01*
X68150000Y-120150000D02*
X59850000Y-120150000D01*
X60225000Y-108200000D02*
X60450000Y-108200000D01*
X60450000Y-108200000D02*
X61400000Y-108200000D01*
%TO.N,/BM1366-2/RO2*%
X68500000Y-124200000D02*
X71100000Y-124200000D01*
X65375000Y-104977500D02*
X66222500Y-104977500D01*
X65800000Y-121500000D02*
X68500000Y-124200000D01*
X66222500Y-104977500D02*
X66225000Y-104975000D01*
%TO.N,/BM1366-2/CI2*%
X66300000Y-118747600D02*
X66300000Y-117975000D01*
X65515000Y-113710000D02*
X65375000Y-113850000D01*
X67275000Y-117000000D02*
X67275000Y-113710000D01*
X66300000Y-117975000D02*
X67275000Y-117000000D01*
X67275000Y-113710000D02*
X65515000Y-113710000D01*
%TO.N,/BM1366-3/NRSTI3*%
X121745000Y-141735000D02*
X121780000Y-141700000D01*
X121842500Y-141762500D02*
X121780000Y-141700000D01*
X120550000Y-141735000D02*
X121745000Y-141735000D01*
X122830000Y-141762500D02*
X121842500Y-141762500D01*
%TO.N,/BM1366-3/BI3*%
X121842500Y-136037500D02*
X121770000Y-136110000D01*
X121770000Y-136110000D02*
X120730000Y-136110000D01*
X122830000Y-136037500D02*
X121842500Y-136037500D01*
%TO.N,/BM1366-3/RO3*%
X125200000Y-148900000D02*
X120200000Y-148900000D01*
X116500000Y-152600000D02*
X115400000Y-152600000D01*
X120200000Y-148900000D02*
X116500000Y-152600000D01*
X126630000Y-132400000D02*
X127500000Y-132400000D01*
%TO.N,/BM1366-3/CI3*%
X127680000Y-141700000D02*
X128790000Y-141700000D01*
X127617500Y-141762500D02*
X126730000Y-141762500D01*
X127680000Y-141700000D02*
X127617500Y-141762500D01*
X128790000Y-141700000D02*
X128850000Y-141760000D01*
%TO.N,/BM1366-1/NRSTO*%
X61525000Y-117700000D02*
X60675000Y-117700000D01*
X72000000Y-98500000D02*
X68300000Y-98500000D01*
%TO.N,/BM1366-1/CO*%
X65775000Y-117700000D02*
X66175000Y-117300000D01*
X65750000Y-115500000D02*
X65200000Y-115500000D01*
X66175000Y-115925000D02*
X65750000Y-115500000D01*
X66175000Y-117300000D02*
X66175000Y-115925000D01*
X65275000Y-117700000D02*
X65775000Y-117700000D01*
%TO.N,/BM1366-1/BO*%
X61525000Y-104977500D02*
X61525000Y-104050000D01*
X68250000Y-97325000D02*
X72000000Y-97325000D01*
X61525000Y-104050000D02*
X68250000Y-97325000D01*
%TO.N,/BM1366-1/RI*%
X70250000Y-104900000D02*
X69375000Y-104025000D01*
X70250000Y-106265000D02*
X70250000Y-104900000D01*
%TO.N,/BM1366-2/RI*%
X127610000Y-130290000D02*
X128600000Y-130290000D01*
X115900000Y-124700000D02*
X118100000Y-124700000D01*
X127600000Y-130300000D02*
X127610000Y-130290000D01*
%TO.N,/BM1366-2/NRSTO*%
X122000000Y-145400000D02*
X122880000Y-145400000D01*
X119100000Y-122300000D02*
X116000000Y-122300000D01*
%TO.N,/BM1366-2/BO*%
X118600000Y-123600000D02*
X115910000Y-123600000D01*
X119400000Y-124400000D02*
X118600000Y-123600000D01*
X122880000Y-132400000D02*
X122880000Y-131280000D01*
X119400000Y-127800000D02*
X119400000Y-124400000D01*
X122880000Y-131280000D02*
X119400000Y-127800000D01*
%TO.N,/BM1366-2/CO*%
X126630000Y-145400000D02*
X127600000Y-145400000D01*
X117920000Y-130520000D02*
X118800000Y-131400000D01*
X117200000Y-127200000D02*
X117920000Y-127920000D01*
X115910000Y-127200000D02*
X117200000Y-127200000D01*
X117920000Y-127920000D02*
X117920000Y-130520000D01*
%TO.N,/ESP32/ASIC_RST*%
X115550000Y-64600000D02*
X117050000Y-66100000D01*
X123200000Y-72250000D02*
X122447600Y-73002400D01*
X117050000Y-66100000D02*
X121650000Y-66100000D01*
X122447600Y-73002400D02*
X122447600Y-78052400D01*
X109900000Y-61450000D02*
X110000000Y-61350000D01*
X115550000Y-63250000D02*
X115550000Y-64600000D01*
X120400000Y-81012500D02*
X120375000Y-81037500D01*
X121650000Y-66100000D02*
X123200000Y-67650000D01*
X123200000Y-67650000D02*
X123200000Y-72250000D01*
X110000000Y-61350000D02*
X113650000Y-61350000D01*
X122447600Y-78052400D02*
X120400000Y-80100000D01*
X120400000Y-80100000D02*
X120400000Y-81012500D01*
X113650000Y-61350000D02*
X115550000Y-63250000D01*
%TO.N,/ESP32/ESP32_TX*%
X116100000Y-62950000D02*
X116100000Y-64350000D01*
X121025000Y-80025000D02*
X121025000Y-81037500D01*
X121950000Y-65600000D02*
X123650000Y-67300000D01*
X123650000Y-72450000D02*
X122800000Y-73300000D01*
X122800000Y-78250000D02*
X121025000Y-80025000D01*
X122800000Y-73300000D02*
X122800000Y-78250000D01*
X107400000Y-60700000D02*
X113850000Y-60700000D01*
X107100000Y-60400000D02*
X107400000Y-60700000D01*
X113850000Y-60700000D02*
X116100000Y-62950000D01*
X117350000Y-65600000D02*
X121950000Y-65600000D01*
X123650000Y-67300000D02*
X123650000Y-72450000D01*
X116100000Y-64350000D02*
X117350000Y-65600000D01*
%TO.N,/ESP32/ESP32_RX*%
X121700000Y-79848368D02*
X121700000Y-81012500D01*
X122150000Y-65100000D02*
X124150000Y-67100000D01*
X106000000Y-60000000D02*
X106350000Y-59650000D01*
X117550000Y-65100000D02*
X122150000Y-65100000D01*
X116700000Y-64250000D02*
X117550000Y-65100000D01*
X124150000Y-72600000D02*
X123152400Y-73597600D01*
X123152400Y-78395968D02*
X121700000Y-79848368D01*
X121700000Y-81012500D02*
X121675000Y-81037500D01*
X107550000Y-59650000D02*
X108100000Y-60200000D01*
X124150000Y-67100000D02*
X124150000Y-72600000D01*
X123152400Y-73597600D02*
X123152400Y-78395968D01*
X114150000Y-60200000D02*
X116700000Y-62750000D01*
X106350000Y-59650000D02*
X107550000Y-59650000D01*
X108100000Y-60200000D02*
X114150000Y-60200000D01*
X116700000Y-62750000D02*
X116700000Y-64250000D01*
%TO.N,Net-(U6-GPIO7{slash}TOUCH7{slash}ADC1_CH6)*%
X102650000Y-54850000D02*
X102650000Y-55300000D01*
X102650000Y-55300000D02*
X103900000Y-56550000D01*
%TO.N,Net-(U6-GPIO8{slash}TOUCH8{slash}ADC1_CH7{slash}SUBSPICS1)*%
X112250000Y-55550000D02*
X112250000Y-54100000D01*
X110100000Y-58100000D02*
X110100000Y-57700000D01*
X110100000Y-57700000D02*
X112250000Y-55550000D01*
%TO.N,Net-(J7-CC1)*%
X97950000Y-51430000D02*
X97950000Y-50300000D01*
%TO.N,Net-(J7-CC2)*%
X94870000Y-50300000D02*
X94870000Y-51490000D01*
%TO.N,/Power/PMB_ALRT*%
X62590000Y-89925000D02*
X60900000Y-89925000D01*
X59475000Y-91350000D02*
X56990000Y-91350000D01*
X60900000Y-89925000D02*
X59475000Y-91350000D01*
%TO.N,Net-(U6-GPIO9{slash}TOUCH9{slash}ADC1_CH8{slash}FSPIHD{slash}SUBSPIHD)*%
X112802400Y-58147600D02*
X116400000Y-54550000D01*
X116400000Y-54550000D02*
X116400000Y-53400000D01*
X111400000Y-58147600D02*
X112802400Y-58147600D01*
%TO.N,Net-(U5-OE)*%
X117800000Y-82150000D02*
X117110000Y-81460000D01*
X117110000Y-81460000D02*
X117110000Y-80500000D01*
X118200000Y-82150000D02*
X117800000Y-82150000D01*
X118425000Y-81925000D02*
X118200000Y-82150000D01*
X118425000Y-81037500D02*
X118425000Y-81925000D01*
%TO.N,Net-(U10-ADJ)*%
X93750000Y-90775000D02*
X93800000Y-90725000D01*
X91847500Y-90775000D02*
X91847500Y-90485000D01*
X90827500Y-89465000D02*
X90827500Y-89075000D01*
X91847500Y-90775000D02*
X93750000Y-90775000D01*
X91847500Y-90485000D02*
X90827500Y-89465000D01*
%TO.N,Net-(U11-ADJ)*%
X90247500Y-86075000D02*
X90937500Y-86075000D01*
X89227500Y-84465000D02*
X89227500Y-83775000D01*
X90247500Y-85485000D02*
X89227500Y-84465000D01*
X91287500Y-85725000D02*
X92500000Y-85725000D01*
X90247500Y-86075000D02*
X90247500Y-85485000D01*
X90937500Y-86075000D02*
X91287500Y-85725000D01*
%TO.N,Net-(U12-BO)*%
X89700000Y-93350000D02*
X97475000Y-93350000D01*
X85125000Y-97925000D02*
X89700000Y-93350000D01*
X84675000Y-97925000D02*
X85125000Y-97925000D01*
X97475000Y-93350000D02*
X101725000Y-97600000D01*
%TO.N,Net-(U18-CLKO)*%
X115910000Y-126000000D02*
X117075000Y-126000000D01*
X118550000Y-127475000D02*
X118550000Y-129625000D01*
X119825000Y-130900000D02*
X119825000Y-133000000D01*
X119825000Y-133000000D02*
X116200000Y-136625000D01*
X118550000Y-129625000D02*
X119825000Y-130900000D01*
X117075000Y-126000000D02*
X118550000Y-127475000D01*
%TO.N,Net-(U12-CO)*%
X84625000Y-94900000D02*
X85725000Y-94900000D01*
X85725000Y-94900000D02*
X88775000Y-91850000D01*
X99675000Y-91850000D02*
X101750000Y-93925000D01*
X88775000Y-91850000D02*
X99675000Y-91850000D01*
%TO.N,/BM1366-2/CLKI2*%
X71550000Y-113850000D02*
X72850000Y-113850000D01*
%TO.N,Net-(U12-INV_CLKO)*%
X103175000Y-94075000D02*
X101925000Y-92825000D01*
X101925000Y-92825000D02*
X101925000Y-92025000D01*
%TO.N,Net-(U12-CLKO)*%
X84650000Y-95900000D02*
X85500000Y-95900000D01*
X89100000Y-92300000D02*
X98800000Y-92300000D01*
X98800000Y-92300000D02*
X101725000Y-95225000D01*
X85500000Y-95900000D02*
X89100000Y-92300000D01*
%TO.N,/BM1366-3/CLKI3*%
X118900000Y-144200000D02*
X117050000Y-142350000D01*
X119800000Y-146300000D02*
X118900000Y-145400000D01*
X117050000Y-142350000D02*
X116150000Y-142350000D01*
X118900000Y-145400000D02*
X118900000Y-144200000D01*
%TO.N,Net-(U12-NRSTO)*%
X89925000Y-93900000D02*
X96875000Y-93900000D01*
X84850000Y-98975000D02*
X89925000Y-93900000D01*
X96875000Y-93900000D02*
X101725000Y-98750000D01*
X101725000Y-98750000D02*
X100985000Y-99490000D01*
X84675000Y-98975000D02*
X84850000Y-98975000D01*
X100985000Y-99490000D02*
X100000000Y-99490000D01*
%TO.N,Net-(U12-RI)*%
X89350000Y-92800000D02*
X98125000Y-92800000D01*
X84675000Y-96900000D02*
X85250000Y-96900000D01*
X98125000Y-92800000D02*
X101725000Y-96400000D01*
X85250000Y-96900000D02*
X89350000Y-92800000D01*
D53*
%TO.N,Net-(U15A-+)*%
X63500000Y-115325000D02*
X63500000Y-116100000D01*
D50*
X65275000Y-116680000D02*
X64025000Y-116680000D01*
D53*
X63500000Y-116100000D02*
X64025000Y-116625000D01*
X64075000Y-113850000D02*
X64075000Y-114750000D01*
X64075000Y-114750000D02*
X63500000Y-115325000D01*
D50*
%TO.N,Net-(U16-ADJ)*%
X91010000Y-112610000D02*
X91010000Y-113100000D01*
X93162500Y-113050000D02*
X91060000Y-113050000D01*
X91060000Y-113050000D02*
X91010000Y-113100000D01*
X89990000Y-111200000D02*
X89990000Y-111590000D01*
X89990000Y-111590000D02*
X91010000Y-112610000D01*
%TO.N,Net-(U17-ADJ)*%
X90810000Y-117610000D02*
X90810000Y-118300000D01*
X89790000Y-116590000D02*
X90810000Y-117610000D01*
X93262500Y-118250000D02*
X90860000Y-118250000D01*
X89790000Y-116000000D02*
X89790000Y-116590000D01*
X90860000Y-118250000D02*
X90810000Y-118300000D01*
%TO.N,Net-(U15B-+)*%
X61525000Y-116680000D02*
X62775000Y-116680000D01*
X62775000Y-116680000D02*
X62775000Y-113850000D01*
%TO.N,Net-(U18-RO)*%
X87175000Y-126075000D02*
X90325000Y-129225000D01*
X90325000Y-129225000D02*
X94600000Y-129225000D01*
X87175000Y-125250000D02*
X87175000Y-126075000D01*
X85475000Y-124075000D02*
X86000000Y-124075000D01*
X99200000Y-124625000D02*
X100900000Y-124625000D01*
X86000000Y-124075000D02*
X87175000Y-125250000D01*
X94600000Y-129225000D02*
X99200000Y-124625000D01*
%TO.N,Net-(U18-INV_CLKO)*%
X100925000Y-121350000D02*
X100425000Y-121350000D01*
X99725000Y-122050000D02*
X98700000Y-122050000D01*
X100425000Y-121350000D02*
X99725000Y-122050000D01*
%TO.N,Net-(U18-NRSTI)*%
X87500000Y-122025000D02*
X85500000Y-122025000D01*
X96900000Y-122025000D02*
X96900000Y-121800000D01*
X87825000Y-121700000D02*
X87500000Y-122025000D01*
X100350000Y-122500000D02*
X99700000Y-123150000D01*
X96900000Y-122700000D02*
X96900000Y-122025000D01*
X96800000Y-121700000D02*
X87825000Y-121700000D01*
X96900000Y-121400000D02*
X97775000Y-120525000D01*
X96900000Y-122025000D02*
X96900000Y-121400000D01*
X100900000Y-122500000D02*
X100350000Y-122500000D01*
X96900000Y-121800000D02*
X96800000Y-121700000D01*
X97350000Y-123150000D02*
X96900000Y-122700000D01*
X99700000Y-123150000D02*
X97350000Y-123150000D01*
X97775000Y-120525000D02*
X98540000Y-120525000D01*
%TO.N,Net-(U15C-+)*%
X61537500Y-106010000D02*
X61525000Y-105997500D01*
X62775000Y-106060000D02*
X62825000Y-106010000D01*
X62825000Y-106010000D02*
X61537500Y-106010000D01*
X62775000Y-108125000D02*
X62775000Y-106060000D01*
%TO.N,Net-(U22-VDD3_1)*%
X100500000Y-158700000D02*
X99340000Y-158700000D01*
X87380000Y-158280000D02*
X87800000Y-158700000D01*
X100700000Y-157500000D02*
X100500000Y-157700000D01*
X87800000Y-158700000D02*
X99260000Y-158700000D01*
X85260000Y-158280000D02*
X86500000Y-158280000D01*
X84200000Y-158300000D02*
X85160000Y-158300000D01*
X100500000Y-157700000D02*
X100500000Y-158700000D01*
X85160000Y-158300000D02*
X85200000Y-158340000D01*
X85200000Y-158340000D02*
X85260000Y-158280000D01*
X86500000Y-158280000D02*
X87380000Y-158280000D01*
X99340000Y-158700000D02*
X99300000Y-158660000D01*
X99260000Y-158700000D02*
X99300000Y-158660000D01*
%TO.N,Net-(U22-VDD2_1)*%
X101700000Y-159400000D02*
X101500000Y-159600000D01*
X83600000Y-159300000D02*
X85200000Y-159300000D01*
X85980000Y-160620000D02*
X86900000Y-159700000D01*
X86900000Y-159700000D02*
X100460000Y-159700000D01*
X100500000Y-160680000D02*
X100520000Y-160700000D01*
X100500000Y-159660000D02*
X100500000Y-160680000D01*
X83500000Y-159200000D02*
X83600000Y-159300000D01*
X85200000Y-160600000D02*
X85180000Y-160620000D01*
X85200000Y-159300000D02*
X85200000Y-160600000D01*
X100460000Y-159700000D02*
X100500000Y-159660000D01*
X101700000Y-158800000D02*
X101700000Y-159400000D01*
X100560000Y-159600000D02*
X100500000Y-159660000D01*
X101500000Y-159600000D02*
X100560000Y-159600000D01*
X85180000Y-160620000D02*
X85980000Y-160620000D01*
%TO.N,Net-(U22-VDD1_1)*%
X84220000Y-161120000D02*
X84600000Y-161500000D01*
X102600000Y-159400000D02*
X102600000Y-160680000D01*
X101480000Y-160700000D02*
X102620000Y-160700000D01*
X84200000Y-160600000D02*
X84220000Y-160620000D01*
X84220000Y-160620000D02*
X84220000Y-161120000D01*
X87300000Y-160600000D02*
X98800000Y-160600000D01*
X98800000Y-160600000D02*
X99800000Y-161600000D01*
X82780000Y-159680000D02*
X82780000Y-160600000D01*
X99800000Y-161600000D02*
X101200000Y-161600000D01*
X101480000Y-161320000D02*
X101480000Y-160700000D01*
X84600000Y-161500000D02*
X86400000Y-161500000D01*
X102600000Y-160680000D02*
X102620000Y-160700000D01*
X82780000Y-160600000D02*
X84200000Y-160600000D01*
X101200000Y-161600000D02*
X101480000Y-161320000D01*
X82300000Y-159200000D02*
X82780000Y-159680000D01*
X86400000Y-161500000D02*
X87300000Y-160600000D01*
%TO.N,Net-(U22-RI)*%
X98200000Y-152900000D02*
X94675000Y-156425000D01*
X87725000Y-153800000D02*
X84200000Y-153800000D01*
X90350000Y-156425000D02*
X87725000Y-153800000D01*
X94675000Y-156425000D02*
X90350000Y-156425000D01*
X100800000Y-152900000D02*
X98200000Y-152900000D01*
%TO.N,Net-(U22-NRSTO)*%
X100800000Y-155200000D02*
X99190000Y-155200000D01*
X99190000Y-155200000D02*
X98790000Y-155600000D01*
X98790000Y-155600000D02*
X98790000Y-156400000D01*
X97925000Y-156400000D02*
X98790000Y-156400000D01*
X88525000Y-157525000D02*
X96800000Y-157525000D01*
X86900000Y-155900000D02*
X88525000Y-157525000D01*
X96800000Y-157525000D02*
X97925000Y-156400000D01*
X84800000Y-155900000D02*
X86900000Y-155900000D01*
%TO.N,Net-(U22-CO)*%
X98000000Y-150500000D02*
X100800000Y-150500000D01*
X88000000Y-151800000D02*
X91025000Y-148775000D01*
X84800000Y-151800000D02*
X88000000Y-151800000D01*
X97450000Y-149950000D02*
X98000000Y-150500000D01*
X95438683Y-149950000D02*
X97450000Y-149950000D01*
X91025000Y-148775000D02*
X94263683Y-148775000D01*
X94263683Y-148775000D02*
X95438683Y-149950000D01*
%TO.N,Net-(U22-CLKO)*%
X96425000Y-151700000D02*
X100800000Y-151700000D01*
X90975000Y-149575000D02*
X94300000Y-149575000D01*
X84800000Y-152900000D02*
X87650000Y-152900000D01*
X87650000Y-152900000D02*
X90975000Y-149575000D01*
X94300000Y-149575000D02*
X96425000Y-151700000D01*
%TO.N,Net-(U22-BO)*%
X95250000Y-156975000D02*
X98225000Y-154000000D01*
X88800000Y-156975000D02*
X95250000Y-156975000D01*
X98225000Y-154000000D02*
X100800000Y-154000000D01*
X86625000Y-154800000D02*
X88800000Y-156975000D01*
X84800000Y-154800000D02*
X86625000Y-154800000D01*
%TO.N,Net-(U18-CLKI)*%
X85450000Y-125150000D02*
X86000000Y-125150000D01*
X94750000Y-129725000D02*
X98850000Y-125625000D01*
X86675000Y-126200000D02*
X90200000Y-129725000D01*
X90200000Y-129725000D02*
X94750000Y-129725000D01*
X86675000Y-125825000D02*
X86675000Y-126200000D01*
X86000000Y-125150000D02*
X86675000Y-125825000D01*
X98850000Y-125625000D02*
X100900000Y-125625000D01*
%TO.N,Net-(U18-BI)*%
X85950000Y-123050000D02*
X87625000Y-124725000D01*
X99549037Y-123575963D02*
X100874037Y-123575963D01*
X90425000Y-128675000D02*
X94450000Y-128675000D01*
X94450000Y-128675000D02*
X99549037Y-123575963D01*
X87625000Y-124725000D02*
X87625000Y-125875000D01*
X87625000Y-125875000D02*
X90425000Y-128675000D01*
X85475000Y-123050000D02*
X85950000Y-123050000D01*
%TO.N,Net-(U18-CI)*%
X90075000Y-130250000D02*
X94875000Y-130250000D01*
X88550000Y-128725000D02*
X90075000Y-130250000D01*
X88300000Y-128725000D02*
X88550000Y-128725000D01*
X94875000Y-130250000D02*
X98425000Y-126700000D01*
X85450000Y-126250000D02*
X85825000Y-126250000D01*
X98425000Y-126700000D02*
X100900000Y-126700000D01*
X85825000Y-126250000D02*
X88300000Y-128725000D01*
%TO.N,Net-(U15D-+)*%
X64075000Y-106047500D02*
X64125000Y-105997500D01*
X64125000Y-105997500D02*
X65375000Y-105997500D01*
X64075000Y-108125000D02*
X64075000Y-106047500D01*
%TO.N,Net-(U20-INV_CLKO)*%
X71100000Y-121100000D02*
X69451900Y-119451900D01*
X69451900Y-119451900D02*
X69451900Y-116898100D01*
X69451900Y-116898100D02*
X69475000Y-116875000D01*
%TO.N,Net-(U21A-+)*%
X125380000Y-144380000D02*
X126630000Y-144380000D01*
X125430000Y-141762500D02*
X125430000Y-144330000D01*
X125430000Y-144330000D02*
X125380000Y-144380000D01*
%TO.N,Net-(U21B-+)*%
X124130000Y-144380000D02*
X122880000Y-144380000D01*
X124130000Y-141762500D02*
X124130000Y-144380000D01*
%TO.N,Net-(U23-ADJ)*%
X92562500Y-147250000D02*
X91650000Y-147250000D01*
X91650000Y-147250000D02*
X91500000Y-147400000D01*
X90710000Y-146610000D02*
X90710000Y-147400000D01*
X89990000Y-145890000D02*
X90710000Y-146610000D01*
X89990000Y-145000000D02*
X89990000Y-145890000D01*
X91500000Y-147400000D02*
X90710000Y-147400000D01*
%TO.N,Net-(U24-ADJ)*%
X90710000Y-141410000D02*
X90710000Y-142200000D01*
X91650000Y-141950000D02*
X91400000Y-142200000D01*
X89790000Y-140490000D02*
X90710000Y-141410000D01*
X91400000Y-142200000D02*
X90710000Y-142200000D01*
X89790000Y-139700000D02*
X89790000Y-140490000D01*
X92662500Y-141950000D02*
X91650000Y-141950000D01*
%TO.N,Net-(U21C-+)*%
X124130000Y-133420000D02*
X122880000Y-133420000D01*
X124130000Y-136037500D02*
X124130000Y-133420000D01*
%TO.N,Net-(U21D-+)*%
X125430000Y-136037500D02*
X125430000Y-133470000D01*
X126630000Y-133420000D02*
X125380000Y-133420000D01*
%TO.N,Net-(U25-INV_CLKO)*%
X69350000Y-149200000D02*
X68225000Y-148075000D01*
X70700000Y-149200000D02*
X69350000Y-149200000D01*
%TO.N,Net-(U5-A4)*%
X119725000Y-87875000D02*
X119400000Y-88200000D01*
X119400000Y-88200000D02*
X117700000Y-88200000D01*
X116800000Y-87300000D02*
X116800000Y-85950000D01*
X117700000Y-88200000D02*
X116800000Y-87300000D01*
X119725000Y-86762500D02*
X119725000Y-87875000D01*
%TO.N,Net-(U6-GPIO12{slash}TOUCH12{slash}ADC2_CH1{slash}FSPICLK{slash}FSPIIO6{slash}SUBSPICLK)*%
X109100000Y-65100000D02*
X105050000Y-65100000D01*
X110250000Y-63950000D02*
X109100000Y-65100000D01*
%TO.N,Net-(U6-GPIO14{slash}TOUCH14{slash}ADC2_CH3{slash}FSPIWP{slash}FSPIDQS{slash}SUBSPIWP)*%
X109600000Y-62500000D02*
X109150000Y-62050000D01*
X105850000Y-62050000D02*
X105000000Y-61200000D01*
X105000000Y-61200000D02*
X103650000Y-61200000D01*
X109150000Y-62050000D02*
X105850000Y-62050000D01*
%TO.N,Net-(U5-B4)*%
X119725000Y-82525000D02*
X121600000Y-84400000D01*
X119725000Y-81037500D02*
X119725000Y-82525000D01*
X123500000Y-84400000D02*
X124500000Y-85400000D01*
X121600000Y-84400000D02*
X123500000Y-84400000D01*
X124500000Y-85400000D02*
X127100000Y-85400000D01*
%TO.N,Net-(U5-DIR4)*%
X118425000Y-84500000D02*
X117875000Y-83950000D01*
X117875000Y-83950000D02*
X116800000Y-83950000D01*
X118425000Y-86762500D02*
X118425000Y-84500000D01*
%TO.N,Net-(U6-SPIIO6{slash}GPIO35{slash}FSPID{slash}SUBSPID)*%
X123500000Y-62448100D02*
X122148100Y-62448100D01*
X121500000Y-61800000D02*
X120200000Y-61800000D01*
X122148100Y-62448100D02*
X121500000Y-61800000D01*
%TO.N,Net-(U6-SPIIO7{slash}GPIO36{slash}FSPICLK{slash}SUBSPICLK)*%
X123500000Y-61300000D02*
X122700000Y-61300000D01*
X122700000Y-61300000D02*
X121150000Y-59750000D01*
X121150000Y-59750000D02*
X120200000Y-59750000D01*
%TO.N,Net-(U6-SPIDQS{slash}GPIO37{slash}FSPIQ{slash}SUBSPIQ)*%
X123500000Y-60000000D02*
X121200000Y-57700000D01*
X121200000Y-57700000D02*
X120200000Y-57700000D01*
%TO.N,Net-(U6-GPIO38{slash}FSPIWP{slash}SUBSPIWP)*%
X121300000Y-55650000D02*
X120200000Y-55650000D01*
X123500000Y-57850000D02*
X121300000Y-55650000D01*
X123500000Y-58700000D02*
X123500000Y-57850000D01*
D52*
%TO.N,Net-(J7-VBUS-PadA4)*%
X95300400Y-55000400D02*
X95300000Y-55000000D01*
X95300000Y-55000000D02*
X98450000Y-55000000D01*
D50*
%TO.N,Net-(U12-ADDR0)*%
X114025000Y-93025000D02*
X115050000Y-92000000D01*
X115050000Y-92000000D02*
X115050000Y-90825000D01*
%TO.N,Net-(U13-VDD3_1)*%
X70900000Y-100515000D02*
X71960000Y-100515000D01*
X69710000Y-100515000D02*
X69700000Y-100505000D01*
X71960000Y-100515000D02*
X71975000Y-100530000D01*
X70900000Y-100515000D02*
X69710000Y-100515000D01*
%TO.N,Net-(U12-ADDR1)*%
X113725000Y-89750000D02*
X114650000Y-88825000D01*
X113725000Y-91950000D02*
X113725000Y-89750000D01*
%TO.N,Net-(U13-VDD2_1)*%
X70900000Y-101475000D02*
X70450000Y-101475000D01*
X71850000Y-101475000D02*
X70900000Y-101475000D01*
X70285000Y-101640000D02*
X69700000Y-101640000D01*
X71975000Y-101600000D02*
X71850000Y-101475000D01*
X70450000Y-101475000D02*
X70285000Y-101640000D01*
%TO.N,Net-(U18-ADDR0)*%
X117800000Y-118700000D02*
X119600000Y-118700000D01*
%TO.N,Net-(U13-VDD1_1)*%
X71950000Y-102590000D02*
X70850000Y-102590000D01*
X70840000Y-102600000D02*
X70850000Y-102590000D01*
X69700000Y-102600000D02*
X70840000Y-102600000D01*
%TO.N,Net-(U18-ADDR1)*%
X117600000Y-116600000D02*
X119600000Y-116600000D01*
X116600000Y-117600000D02*
X117600000Y-116600000D01*
%TO.N,Net-(U20-ADDR0)*%
X85500000Y-120875000D02*
X86875000Y-120875000D01*
X86875000Y-120875000D02*
X86925000Y-120825000D01*
%TO.N,Net-(U20-ADDR1)*%
X91050000Y-119250000D02*
X92500000Y-120700000D01*
X85950000Y-119250000D02*
X91050000Y-119250000D01*
X85475000Y-119725000D02*
X85950000Y-119250000D01*
D53*
%TO.N,Net-(U25-ADDR0)*%
X86500000Y-150600000D02*
X86400000Y-150700000D01*
X86800000Y-150600000D02*
X86500000Y-150600000D01*
D50*
X84800000Y-150700000D02*
X86400000Y-150700000D01*
%TO.N,Net-(U25-ADDR1)*%
X84800000Y-149600000D02*
X85300000Y-149100000D01*
X87875000Y-149100000D02*
X88475000Y-149700000D01*
X85300000Y-149100000D02*
X87875000Y-149100000D01*
%TO.N,Net-(U3-MSEL1)*%
X53225000Y-75515000D02*
X53225000Y-75075000D01*
X53475000Y-74825000D02*
X53475000Y-74260000D01*
X53350000Y-68675000D02*
X52875000Y-69150000D01*
X52875000Y-69150000D02*
X52875000Y-73975000D01*
X52875000Y-73975000D02*
X53160000Y-74260000D01*
X53225000Y-75075000D02*
X53475000Y-74825000D01*
X53850000Y-68675000D02*
X53350000Y-68675000D01*
X53160000Y-74260000D02*
X53475000Y-74260000D01*
%TO.N,/ESP32/VDD_SAMPLE*%
X96550000Y-61900000D02*
X96550000Y-71700000D01*
X109000000Y-58800000D02*
X108400000Y-58200000D01*
X97150000Y-73940000D02*
X97925000Y-73940000D01*
X108400000Y-58200000D02*
X100250000Y-58200000D01*
X100250000Y-58200000D02*
X96550000Y-61900000D01*
X113100000Y-58800000D02*
X109000000Y-58800000D01*
X96325000Y-71925000D02*
X96325000Y-73940000D01*
X97925000Y-73940000D02*
X97950000Y-73915000D01*
X96550000Y-71700000D02*
X96325000Y-71925000D01*
X96325000Y-73940000D02*
X97150000Y-73940000D01*
X123800000Y-49900000D02*
X122000000Y-49900000D01*
X122000000Y-49900000D02*
X113100000Y-58800000D01*
D52*
%TO.N,Net-(U1-CB)*%
X108062500Y-78237500D02*
X108600000Y-77700000D01*
X108600000Y-77700000D02*
X108600000Y-76630000D01*
X107150000Y-78237500D02*
X108062500Y-78237500D01*
D51*
%TO.N,Net-(U1-FB)*%
X104562500Y-78237500D02*
X103940000Y-78860000D01*
X103940000Y-80100000D02*
X103940000Y-81430000D01*
X103940000Y-78860000D02*
X103940000Y-80100000D01*
X103940000Y-81430000D02*
X103950000Y-81440000D01*
X105250000Y-78237500D02*
X104562500Y-78237500D01*
D50*
%TO.N,Net-(U3-MSEL2)*%
X55275000Y-59575000D02*
X55275000Y-58710000D01*
D53*
X55250000Y-59600000D02*
X55275000Y-59575000D01*
%TO.N,/Power/AGND*%
X55275000Y-63250000D02*
X54550000Y-63250000D01*
D50*
X53475000Y-72950000D02*
X53700000Y-72725000D01*
D53*
X53560000Y-57690000D02*
X53175000Y-58075000D01*
D50*
X53700000Y-72725000D02*
X53700000Y-72000000D01*
D53*
X56600000Y-63000000D02*
X55525000Y-63000000D01*
X55275000Y-57690000D02*
X54075000Y-57690000D01*
X54075000Y-57690000D02*
X53560000Y-57690000D01*
D50*
X53475000Y-73240000D02*
X53475000Y-72950000D01*
D53*
X55525000Y-63000000D02*
X55275000Y-63250000D01*
D50*
%TO.N,/Power/PMB_SCL*%
X55175000Y-87200000D02*
X55175000Y-86575000D01*
X62615000Y-87425000D02*
X59725000Y-87425000D01*
X54450000Y-87925000D02*
X55175000Y-87200000D01*
X59725000Y-87425000D02*
X58875000Y-86575000D01*
X54450000Y-88810000D02*
X54450000Y-87925000D01*
X55175000Y-86575000D02*
X55175000Y-85675000D01*
X58875000Y-86575000D02*
X55175000Y-86575000D01*
%TO.N,/Power/PMB_SDA*%
X57100000Y-88700000D02*
X56990000Y-88810000D01*
X62615000Y-88700000D02*
X57100000Y-88700000D01*
%TO.N,/SMB_ALRT*%
X97550000Y-68750000D02*
X97550000Y-72350000D01*
X63600000Y-91175000D02*
X63600000Y-89935000D01*
X63600000Y-89935000D02*
X63610000Y-89925000D01*
X105050000Y-63100000D02*
X103200000Y-63100000D01*
X105150000Y-63200000D02*
X105050000Y-63100000D01*
X103200000Y-63100000D02*
X97550000Y-68750000D01*
X108700000Y-63200000D02*
X105150000Y-63200000D01*
%TD*%
%TA.AperFunction,Conductor*%
%TO.N,GND*%
G36*
X100465677Y-105819685D02*
G01*
X100486319Y-105836319D01*
X100738681Y-106088681D01*
X100772166Y-106150004D01*
X100775000Y-106176362D01*
X100775000Y-109148638D01*
X100755315Y-109215677D01*
X100738681Y-109236319D01*
X100411319Y-109563681D01*
X100349996Y-109597166D01*
X100323638Y-109600000D01*
X96651362Y-109600000D01*
X96584323Y-109580315D01*
X96563681Y-109563681D01*
X96236319Y-109236319D01*
X96202834Y-109174996D01*
X96200000Y-109148638D01*
X96200000Y-106201362D01*
X96219685Y-106134323D01*
X96236319Y-106113681D01*
X96513681Y-105836319D01*
X96575004Y-105802834D01*
X96601362Y-105800000D01*
X100398638Y-105800000D01*
X100465677Y-105819685D01*
G37*
%TD.AperFunction*%
%TD*%
%TA.AperFunction,Conductor*%
%TO.N,/VDD*%
G36*
X80843039Y-157019685D02*
G01*
X80888794Y-157072489D01*
X80900000Y-157124000D01*
X80900000Y-160900000D01*
X82100000Y-162100000D01*
X84471842Y-162100000D01*
X84503934Y-162104225D01*
X84519889Y-162108500D01*
X84519890Y-162108500D01*
X84519891Y-162108500D01*
X86480109Y-162108500D01*
X86480110Y-162108500D01*
X86480111Y-162108500D01*
X86496066Y-162104225D01*
X86528158Y-162100000D01*
X99415800Y-162100000D01*
X99477799Y-162116612D01*
X99565128Y-162167032D01*
X99719889Y-162208500D01*
X99719890Y-162208500D01*
X99719891Y-162208500D01*
X101280109Y-162208500D01*
X101280110Y-162208500D01*
X101280111Y-162208500D01*
X101357491Y-162187766D01*
X101434873Y-162167032D01*
X101522201Y-162116612D01*
X101584201Y-162100000D01*
X103900000Y-162100000D01*
X104700000Y-161300000D01*
X104700000Y-157124000D01*
X104719685Y-157056961D01*
X104772489Y-157011206D01*
X104824000Y-157000000D01*
X111076000Y-157000000D01*
X111143039Y-157019685D01*
X111188794Y-157072489D01*
X111200000Y-157124000D01*
X111200000Y-164176000D01*
X111180315Y-164243039D01*
X111127511Y-164288794D01*
X111076000Y-164300000D01*
X110399999Y-164300000D01*
X108911389Y-165788610D01*
X108850066Y-165822095D01*
X108823538Y-165824929D01*
X103094482Y-165817092D01*
X103027470Y-165797316D01*
X103006971Y-165780773D01*
X102999433Y-165773235D01*
X102999418Y-165773220D01*
X102958520Y-165736483D01*
X102937878Y-165719849D01*
X102937876Y-165719847D01*
X102893299Y-165687703D01*
X102760354Y-165626987D01*
X102693309Y-165607300D01*
X102645084Y-165600366D01*
X102548638Y-165586500D01*
X97151362Y-165586500D01*
X97151361Y-165586500D01*
X97096455Y-165589443D01*
X97070122Y-165592275D01*
X97070089Y-165592279D01*
X97015855Y-165601067D01*
X97015851Y-165601068D01*
X96878903Y-165652148D01*
X96817587Y-165685629D01*
X96700584Y-165773218D01*
X96697232Y-165776123D01*
X96696254Y-165774994D01*
X96640537Y-165805399D01*
X96614042Y-165808226D01*
X90600000Y-165799999D01*
X89700000Y-166699999D01*
X89700000Y-169576000D01*
X89680315Y-169643039D01*
X89627511Y-169688794D01*
X89576000Y-169700000D01*
X79351362Y-169700000D01*
X79284323Y-169680315D01*
X79263681Y-169663681D01*
X74236319Y-164636319D01*
X74202834Y-164574996D01*
X74200000Y-164548638D01*
X74200000Y-157124000D01*
X74219685Y-157056961D01*
X74272489Y-157011206D01*
X74324000Y-157000000D01*
X80776000Y-157000000D01*
X80843039Y-157019685D01*
G37*
%TD.AperFunction*%
%TD*%
%TA.AperFunction,Conductor*%
%TO.N,/BM1366-1/VDD1*%
G36*
X88615677Y-105519685D02*
G01*
X88636319Y-105536319D01*
X89063681Y-105963681D01*
X89097166Y-106025004D01*
X89100000Y-106051362D01*
X89100000Y-108751000D01*
X89080315Y-108818039D01*
X89027511Y-108863794D01*
X88976000Y-108875000D01*
X81151362Y-108875000D01*
X81084323Y-108855315D01*
X81063681Y-108838681D01*
X80586319Y-108361319D01*
X80552834Y-108299996D01*
X80550000Y-108273638D01*
X80550000Y-106451362D01*
X80569685Y-106384323D01*
X80586319Y-106363681D01*
X81413681Y-105536319D01*
X81475004Y-105502834D01*
X81501362Y-105500000D01*
X88548638Y-105500000D01*
X88615677Y-105519685D01*
G37*
%TD.AperFunction*%
%TD*%
%TA.AperFunction,Conductor*%
%TO.N,/VIN*%
G36*
X105558599Y-67694685D02*
G01*
X105579241Y-67711319D01*
X105597738Y-67729816D01*
X105601152Y-67731961D01*
X105749656Y-67825273D01*
X105750478Y-67825789D01*
X105904878Y-67879816D01*
X105920745Y-67885368D01*
X105920750Y-67885369D01*
X106099996Y-67905565D01*
X106100000Y-67905565D01*
X106100004Y-67905565D01*
X106279249Y-67885369D01*
X106279251Y-67885368D01*
X106279255Y-67885368D01*
X106279258Y-67885366D01*
X106279262Y-67885366D01*
X106450997Y-67825273D01*
X106520776Y-67821711D01*
X106579633Y-67854633D01*
X107613681Y-68888681D01*
X107647166Y-68950004D01*
X107650000Y-68976362D01*
X107650000Y-72648638D01*
X107630315Y-72715677D01*
X107613681Y-72736319D01*
X106475000Y-73874999D01*
X106453345Y-75369141D01*
X106452474Y-75382122D01*
X106449500Y-75406898D01*
X106449500Y-75476000D01*
X106429815Y-75543039D01*
X106377011Y-75588794D01*
X106325500Y-75600000D01*
X104024000Y-75600000D01*
X103956961Y-75580315D01*
X103911206Y-75527511D01*
X103900000Y-75476000D01*
X103900000Y-74201362D01*
X103919685Y-74134323D01*
X103936319Y-74113681D01*
X104175000Y-73875000D01*
X104200000Y-69975000D01*
X103900000Y-69675000D01*
X102924000Y-69675000D01*
X102856961Y-69655315D01*
X102811206Y-69602511D01*
X102800000Y-69551000D01*
X102800000Y-67799000D01*
X102819685Y-67731961D01*
X102872489Y-67686206D01*
X102924000Y-67675000D01*
X105491560Y-67675000D01*
X105558599Y-67694685D01*
G37*
%TD.AperFunction*%
%TD*%
%TA.AperFunction,Conductor*%
%TO.N,/Power/SW*%
G36*
X65040677Y-74819685D02*
G01*
X65061319Y-74836319D01*
X65938681Y-75713681D01*
X65972166Y-75775004D01*
X65975000Y-75801362D01*
X65975000Y-77448638D01*
X65955315Y-77515677D01*
X65938681Y-77536319D01*
X65036319Y-78438681D01*
X64974996Y-78472166D01*
X64948638Y-78475000D01*
X60601362Y-78475000D01*
X60534323Y-78455315D01*
X60513681Y-78438681D01*
X58986319Y-76911319D01*
X58952834Y-76849996D01*
X58950000Y-76823638D01*
X58950000Y-74924000D01*
X58969685Y-74856961D01*
X59022489Y-74811206D01*
X59074000Y-74800000D01*
X64973638Y-74800000D01*
X65040677Y-74819685D01*
G37*
%TD.AperFunction*%
%TD*%
%TA.AperFunction,Conductor*%
%TO.N,/BM1366-1/VDD1*%
G36*
X100715677Y-133769685D02*
G01*
X100736319Y-133786319D01*
X101089097Y-134139097D01*
X101122582Y-134200420D01*
X101125412Y-134225770D01*
X101149577Y-137198048D01*
X101130438Y-137265245D01*
X101113262Y-137286737D01*
X100836319Y-137563681D01*
X100774996Y-137597166D01*
X100748638Y-137600000D01*
X96751362Y-137600000D01*
X96684323Y-137580315D01*
X96663681Y-137563681D01*
X96336319Y-137236319D01*
X96302834Y-137174996D01*
X96300000Y-137148638D01*
X96300000Y-134151362D01*
X96319685Y-134084323D01*
X96336319Y-134063681D01*
X96613681Y-133786319D01*
X96675004Y-133752834D01*
X96701362Y-133750000D01*
X100648638Y-133750000D01*
X100715677Y-133769685D01*
G37*
%TD.AperFunction*%
%TD*%
%TA.AperFunction,Conductor*%
%TO.N,/5V*%
G36*
X113393039Y-77869685D02*
G01*
X113438794Y-77922489D01*
X113450000Y-77974000D01*
X113450000Y-81398638D01*
X113430315Y-81465677D01*
X113413681Y-81486319D01*
X111586319Y-83313681D01*
X111524996Y-83347166D01*
X111498638Y-83350000D01*
X109874000Y-83350000D01*
X109806961Y-83330315D01*
X109761206Y-83277511D01*
X109750000Y-83226000D01*
X109750000Y-79601362D01*
X109769685Y-79534323D01*
X109786319Y-79513681D01*
X110550000Y-78750000D01*
X110550000Y-77974000D01*
X110569685Y-77906961D01*
X110622489Y-77861206D01*
X110674000Y-77850000D01*
X113326000Y-77850000D01*
X113393039Y-77869685D01*
G37*
%TD.AperFunction*%
%TD*%
%TA.AperFunction,Conductor*%
%TO.N,/VIN*%
G36*
X64765677Y-54469685D02*
G01*
X64786319Y-54486319D01*
X65688681Y-55388681D01*
X65722166Y-55450004D01*
X65725000Y-55476362D01*
X65725000Y-56823638D01*
X65705315Y-56890677D01*
X65688681Y-56911319D01*
X64311319Y-58288681D01*
X64249996Y-58322166D01*
X64223638Y-58325000D01*
X62124999Y-58325000D01*
X61800000Y-58649999D01*
X61800000Y-68273638D01*
X61780315Y-68340677D01*
X61763681Y-68361319D01*
X61411319Y-68713681D01*
X61349996Y-68747166D01*
X61323638Y-68750000D01*
X59099000Y-68750000D01*
X59031961Y-68730315D01*
X58986206Y-68677511D01*
X58975000Y-68626000D01*
X58975000Y-67750000D01*
X57786319Y-66561319D01*
X57752834Y-66499996D01*
X57750000Y-66473638D01*
X57750000Y-55376362D01*
X57769685Y-55309323D01*
X57786319Y-55288681D01*
X58588681Y-54486319D01*
X58650004Y-54452834D01*
X58676362Y-54450000D01*
X64698638Y-54450000D01*
X64765677Y-54469685D01*
G37*
%TD.AperFunction*%
%TD*%
%TA.AperFunction,Conductor*%
%TO.N,/BM1366-2/VDD2*%
G36*
X89115677Y-133419685D02*
G01*
X89136319Y-133436319D01*
X89563681Y-133863681D01*
X89597166Y-133925004D01*
X89600000Y-133951362D01*
X89600000Y-136775615D01*
X89580315Y-136842654D01*
X89527511Y-136888409D01*
X89475616Y-136899614D01*
X81576137Y-136875158D01*
X81509159Y-136855266D01*
X81488840Y-136838840D01*
X80986319Y-136336319D01*
X80952834Y-136274996D01*
X80950000Y-136248638D01*
X80950000Y-133958078D01*
X80969685Y-133891039D01*
X80994617Y-133862819D01*
X81515511Y-133428741D01*
X81579614Y-133400945D01*
X81594894Y-133400000D01*
X89048638Y-133400000D01*
X89115677Y-133419685D01*
G37*
%TD.AperFunction*%
%TD*%
%TA.AperFunction,Conductor*%
%TO.N,/VDD*%
G36*
X79698934Y-69724792D02*
G01*
X79765892Y-69744749D01*
X79786110Y-69761110D01*
X82613681Y-72588681D01*
X82647166Y-72650004D01*
X82650000Y-72676362D01*
X82650000Y-82423638D01*
X82630315Y-82490677D01*
X82613681Y-82511319D01*
X80361319Y-84763681D01*
X80299996Y-84797166D01*
X80273638Y-84800000D01*
X73974000Y-84800000D01*
X73906961Y-84780315D01*
X73861206Y-84727511D01*
X73850000Y-84676000D01*
X73850000Y-73550000D01*
X73259425Y-72959425D01*
X73230065Y-72912698D01*
X73225789Y-72900478D01*
X73219004Y-72889680D01*
X73200000Y-72823711D01*
X73200000Y-70151362D01*
X73219685Y-70084323D01*
X73236319Y-70063681D01*
X73563474Y-69736525D01*
X73624795Y-69703042D01*
X73651647Y-69700209D01*
X79698934Y-69724792D01*
G37*
%TD.AperFunction*%
%TD*%
%TA.AperFunction,Conductor*%
%TO.N,GND*%
G36*
X74640677Y-55294685D02*
G01*
X74661319Y-55311319D01*
X75389562Y-56039562D01*
X75423047Y-56100885D01*
X75425863Y-56125105D01*
X75450000Y-57525001D01*
X77575717Y-59650717D01*
X77609202Y-59712040D01*
X77612031Y-59739515D01*
X77599999Y-61075000D01*
X77600000Y-61075001D01*
X79713681Y-63188681D01*
X79747166Y-63250004D01*
X79750000Y-63276362D01*
X79750000Y-66776000D01*
X79730315Y-66843039D01*
X79677511Y-66888794D01*
X79626000Y-66900000D01*
X73525000Y-66900000D01*
X72450000Y-68000000D01*
X72450000Y-70698638D01*
X72430315Y-70765677D01*
X72413681Y-70786319D01*
X70700000Y-72499999D01*
X70700000Y-80048638D01*
X70680315Y-80115677D01*
X70663681Y-80136319D01*
X68175000Y-82624999D01*
X68175000Y-84676000D01*
X68155315Y-84743039D01*
X68102511Y-84788794D01*
X68051000Y-84800000D01*
X65301362Y-84800000D01*
X65234323Y-84780315D01*
X65213681Y-84763681D01*
X63986319Y-83536319D01*
X63952834Y-83474996D01*
X63950000Y-83448638D01*
X63950000Y-80175990D01*
X63969685Y-80108951D01*
X63985870Y-80088760D01*
X66374999Y-77675001D01*
X66374998Y-77675001D01*
X66375000Y-77675000D01*
X66375000Y-75575000D01*
X65200000Y-74400000D01*
X62951362Y-74400000D01*
X62884323Y-74380315D01*
X62863681Y-74363681D01*
X62125000Y-73625000D01*
X55524000Y-73625000D01*
X55456961Y-73605315D01*
X55411206Y-73552511D01*
X55400000Y-73501000D01*
X55400000Y-69999000D01*
X55419685Y-69931961D01*
X55472489Y-69886206D01*
X55524000Y-69875000D01*
X62125000Y-69875000D01*
X62963681Y-69036319D01*
X63025004Y-69002834D01*
X63051362Y-69000000D01*
X64599999Y-69000000D01*
X64600000Y-69000000D01*
X65275000Y-68300000D01*
X65295067Y-60874845D01*
X65299666Y-59173665D01*
X65319532Y-59106679D01*
X65372460Y-59061067D01*
X65423666Y-59050000D01*
X66150000Y-59050000D01*
X67650000Y-57550000D01*
X67650000Y-56051362D01*
X67669685Y-55984323D01*
X67686319Y-55963681D01*
X68338681Y-55311319D01*
X68400004Y-55277834D01*
X68426362Y-55275000D01*
X74573638Y-55275000D01*
X74640677Y-55294685D01*
G37*
%TD.AperFunction*%
%TD*%
%TA.AperFunction,Conductor*%
%TO.N,GND*%
G36*
X106392539Y-78519685D02*
G01*
X106438294Y-78572489D01*
X106449500Y-78624000D01*
X106449500Y-78793102D01*
X106454282Y-78832923D01*
X106460122Y-78881563D01*
X106474220Y-78917313D01*
X106491354Y-78960761D01*
X106500000Y-79006249D01*
X106500000Y-79100000D01*
X106750000Y-79350000D01*
X107148638Y-79350000D01*
X107215677Y-79369685D01*
X107236319Y-79386319D01*
X107513681Y-79663681D01*
X107547166Y-79725004D01*
X107550000Y-79751362D01*
X107550000Y-83326000D01*
X107530315Y-83393039D01*
X107477511Y-83438794D01*
X107426000Y-83450000D01*
X105951362Y-83450000D01*
X105884323Y-83430315D01*
X105863681Y-83413681D01*
X105036319Y-82586319D01*
X105002834Y-82524996D01*
X105000000Y-82498638D01*
X105000000Y-79851362D01*
X105019685Y-79784323D01*
X105036319Y-79763681D01*
X105413681Y-79386319D01*
X105475004Y-79352834D01*
X105501362Y-79350000D01*
X105650000Y-79350000D01*
X105900000Y-79100000D01*
X105900000Y-79006249D01*
X105908645Y-78960761D01*
X105939877Y-78881564D01*
X105950500Y-78793102D01*
X105950500Y-78624000D01*
X105970185Y-78556961D01*
X106022989Y-78511206D01*
X106074500Y-78500000D01*
X106325500Y-78500000D01*
X106392539Y-78519685D01*
G37*
%TD.AperFunction*%
%TD*%
%TA.AperFunction,Conductor*%
%TO.N,/BM1366-2/VDD2*%
G36*
X73143039Y-161619685D02*
G01*
X73188794Y-161672489D01*
X73200000Y-161724000D01*
X73200000Y-164548638D01*
X73180315Y-164615677D01*
X73163681Y-164636319D01*
X72436319Y-165363681D01*
X72374996Y-165397166D01*
X72348638Y-165400000D01*
X71426362Y-165400000D01*
X71359323Y-165380315D01*
X71338681Y-165363681D01*
X70411319Y-164436319D01*
X70377834Y-164374996D01*
X70375000Y-164348638D01*
X70375000Y-162601362D01*
X70394685Y-162534323D01*
X70411319Y-162513681D01*
X71288681Y-161636319D01*
X71350004Y-161602834D01*
X71376362Y-161600000D01*
X73076000Y-161600000D01*
X73143039Y-161619685D01*
G37*
%TD.AperFunction*%
%TD*%
%TA.AperFunction,Conductor*%
%TO.N,Net-(U1-SW)*%
G36*
X111465677Y-72969685D02*
G01*
X111486319Y-72986319D01*
X111938681Y-73438681D01*
X111972166Y-73500004D01*
X111975000Y-73526362D01*
X111975000Y-75051000D01*
X111955315Y-75118039D01*
X111902511Y-75163794D01*
X111851000Y-75175000D01*
X110249999Y-75175000D01*
X109861319Y-75563681D01*
X109799996Y-75597166D01*
X109773638Y-75600000D01*
X107024500Y-75600000D01*
X106957461Y-75580315D01*
X106911706Y-75527511D01*
X106900500Y-75476000D01*
X106900500Y-75406896D01*
X106900279Y-75403206D01*
X106900470Y-75403194D01*
X106900000Y-75395318D01*
X106900000Y-74102984D01*
X106919685Y-74035945D01*
X106938285Y-74013379D01*
X108014045Y-72984392D01*
X108076097Y-72952278D01*
X108099757Y-72950000D01*
X111398638Y-72950000D01*
X111465677Y-72969685D01*
G37*
%TD.AperFunction*%
%TD*%
%TA.AperFunction,Conductor*%
%TO.N,/BM1366-2/VDD2*%
G36*
X114265677Y-161519685D02*
G01*
X114286319Y-161536319D01*
X114888681Y-162138681D01*
X114922166Y-162200004D01*
X114925000Y-162226362D01*
X114925000Y-163998638D01*
X114905315Y-164065677D01*
X114888681Y-164086319D01*
X114037547Y-164937452D01*
X113976224Y-164970937D01*
X113946914Y-164973736D01*
X112999626Y-164951181D01*
X112933074Y-164929906D01*
X112914897Y-164914897D01*
X112236319Y-164236319D01*
X112202834Y-164174996D01*
X112200000Y-164148638D01*
X112200000Y-161624000D01*
X112219685Y-161556961D01*
X112272489Y-161511206D01*
X112324000Y-161500000D01*
X114198638Y-161500000D01*
X114265677Y-161519685D01*
G37*
%TD.AperFunction*%
%TD*%
%TA.AperFunction,Conductor*%
%TO.N,GND*%
G36*
X102068039Y-70069685D02*
G01*
X102113794Y-70122489D01*
X102125000Y-70174000D01*
X102125000Y-75550000D01*
X102525000Y-75950000D01*
X103648638Y-75950000D01*
X103715677Y-75969685D01*
X103736319Y-75986319D01*
X104163681Y-76413681D01*
X104197166Y-76475004D01*
X104200000Y-76501362D01*
X104200000Y-77748638D01*
X104180315Y-77815677D01*
X104163681Y-77836319D01*
X103886319Y-78113681D01*
X103824996Y-78147166D01*
X103798638Y-78150000D01*
X101202646Y-78150000D01*
X101176865Y-78147290D01*
X101176282Y-78147166D01*
X101069646Y-78124500D01*
X100880354Y-78124500D01*
X100773718Y-78147166D01*
X100773135Y-78147290D01*
X100747354Y-78150000D01*
X100275672Y-78150000D01*
X100208633Y-78130315D01*
X100188830Y-78114512D01*
X98937158Y-76886456D01*
X98903090Y-76825455D01*
X98900000Y-76797944D01*
X98900000Y-71776900D01*
X98919685Y-71709861D01*
X98936968Y-71688575D01*
X99956448Y-70684088D01*
X100563796Y-70085672D01*
X100625365Y-70052642D01*
X100650825Y-70050000D01*
X102001000Y-70050000D01*
X102068039Y-70069685D01*
G37*
%TD.AperFunction*%
%TD*%
%TA.AperFunction,Conductor*%
%TO.N,/BM1366-2/VDD2*%
G36*
X102615677Y-166119685D02*
G01*
X102636319Y-166136319D01*
X103763681Y-167263681D01*
X103797166Y-167325004D01*
X103800000Y-167351362D01*
X103800000Y-169348638D01*
X103780315Y-169415677D01*
X103763681Y-169436319D01*
X102536319Y-170663681D01*
X102474996Y-170697166D01*
X102448638Y-170700000D01*
X97151362Y-170700000D01*
X97084323Y-170680315D01*
X97063681Y-170663681D01*
X96336319Y-169936319D01*
X96302834Y-169874996D01*
X96300000Y-169848638D01*
X96300000Y-166951362D01*
X96319685Y-166884323D01*
X96336319Y-166863681D01*
X97063681Y-166136319D01*
X97125004Y-166102834D01*
X97151362Y-166100000D01*
X102548638Y-166100000D01*
X102615677Y-166119685D01*
G37*
%TD.AperFunction*%
%TD*%
M02*
