%TF.GenerationSoftware,KiCad,Pcbnew,7.0.7*%
%TF.CreationDate,2023-10-30T22:19:44-06:00*%
%TF.ProjectId,bitaxeHex,62697461-7865-4486-9578-2e6b69636164,0.9*%
%TF.SameCoordinates,Original*%
%TF.FileFunction,Paste,Top*%
%TF.FilePolarity,Positive*%
%FSLAX46Y46*%
G04 Gerber Fmt 4.6, Leading zero omitted, Abs format (unit mm)*
G04 Created by KiCad (PCBNEW 7.0.7) date 2023-10-30 22:19:44*
%MOMM*%
%LPD*%
G01*
G04 APERTURE LIST*
G04 Aperture macros list*
%AMRoundRect*
0 Rectangle with rounded corners*
0 $1 Rounding radius*
0 $2 $3 $4 $5 $6 $7 $8 $9 X,Y pos of 4 corners*
0 Add a 4 corners polygon primitive as box body*
4,1,4,$2,$3,$4,$5,$6,$7,$8,$9,$2,$3,0*
0 Add four circle primitives for the rounded corners*
1,1,$1+$1,$2,$3*
1,1,$1+$1,$4,$5*
1,1,$1+$1,$6,$7*
1,1,$1+$1,$8,$9*
0 Add four rect primitives between the rounded corners*
20,1,$1+$1,$2,$3,$4,$5,0*
20,1,$1+$1,$4,$5,$6,$7,0*
20,1,$1+$1,$6,$7,$8,$9,0*
20,1,$1+$1,$8,$9,$2,$3,0*%
G04 Aperture macros list end*
%ADD10C,0.001000*%
%ADD11R,0.792000X0.221000*%
%ADD12RoundRect,0.120000X-0.120000X0.542500X-0.120000X-0.542500X0.120000X-0.542500X0.120000X0.542500X0*%
%ADD13RoundRect,0.140000X0.140000X0.170000X-0.140000X0.170000X-0.140000X-0.170000X0.140000X-0.170000X0*%
%ADD14RoundRect,0.135000X0.185000X-0.135000X0.185000X0.135000X-0.185000X0.135000X-0.185000X-0.135000X0*%
%ADD15RoundRect,0.140000X0.170000X-0.140000X0.170000X0.140000X-0.170000X0.140000X-0.170000X-0.140000X0*%
%ADD16R,1.600200X1.168400*%
%ADD17R,1.100000X0.400000*%
%ADD18RoundRect,0.140000X-0.140000X-0.170000X0.140000X-0.170000X0.140000X0.170000X-0.140000X0.170000X0*%
%ADD19RoundRect,0.150000X0.587500X0.150000X-0.587500X0.150000X-0.587500X-0.150000X0.587500X-0.150000X0*%
%ADD20RoundRect,0.262500X-0.562500X-0.262500X0.562500X-0.262500X0.562500X0.262500X-0.562500X0.262500X0*%
%ADD21RoundRect,0.135000X0.135000X0.185000X-0.135000X0.185000X-0.135000X-0.185000X0.135000X-0.185000X0*%
%ADD22RoundRect,0.250000X0.550000X-1.500000X0.550000X1.500000X-0.550000X1.500000X-0.550000X-1.500000X0*%
%ADD23RoundRect,0.135000X-0.185000X0.135000X-0.185000X-0.135000X0.185000X-0.135000X0.185000X0.135000X0*%
%ADD24R,0.450000X0.700000*%
%ADD25R,0.711200X0.228600*%
%ADD26R,1.500000X0.900000*%
%ADD27R,0.900000X1.500000*%
%ADD28R,0.900000X0.900000*%
%ADD29RoundRect,0.150000X-0.150000X-0.700000X0.150000X-0.700000X0.150000X0.700000X-0.150000X0.700000X0*%
%ADD30RoundRect,0.250000X-0.250000X-1.150000X0.250000X-1.150000X0.250000X1.150000X-0.250000X1.150000X0*%
%ADD31RoundRect,0.140000X-0.170000X0.140000X-0.170000X-0.140000X0.170000X-0.140000X0.170000X0.140000X0*%
%ADD32R,0.600000X1.060000*%
%ADD33R,0.300000X1.150000*%
%ADD34O,1.000000X2.100000*%
%ADD35O,1.000000X1.800000*%
%ADD36RoundRect,0.250000X0.650000X-1.000000X0.650000X1.000000X-0.650000X1.000000X-0.650000X-1.000000X0*%
G04 APERTURE END LIST*
D10*
%TO.C,U19*%
X109210000Y-127905000D02*
X108380000Y-127905000D01*
X108380000Y-127905000D02*
X108380000Y-127115000D01*
X108380000Y-127115000D02*
X109210000Y-127115000D01*
X109210000Y-127115000D02*
X109210000Y-127905000D01*
G36*
X109210000Y-127905000D02*
G01*
X108380000Y-127905000D01*
X108380000Y-127115000D01*
X109210000Y-127115000D01*
X109210000Y-127905000D01*
G37*
X109200000Y-125825000D02*
X108380000Y-125825000D01*
X108380000Y-125825000D02*
X108380000Y-125035000D01*
X108380000Y-125035000D02*
X109200000Y-125035000D01*
X109200000Y-125035000D02*
X109200000Y-125825000D01*
G36*
X109200000Y-125825000D02*
G01*
X108380000Y-125825000D01*
X108380000Y-125035000D01*
X109200000Y-125035000D01*
X109200000Y-125825000D01*
G37*
X109200000Y-122795000D02*
X108385000Y-122795000D01*
X108385000Y-122795000D02*
X108385000Y-122005000D01*
X108385000Y-122005000D02*
X109200000Y-122005000D01*
X109200000Y-122005000D02*
X109200000Y-122795000D01*
G36*
X109200000Y-122795000D02*
G01*
X108385000Y-122795000D01*
X108385000Y-122005000D01*
X109200000Y-122005000D01*
X109200000Y-122795000D01*
G37*
X109195000Y-124235000D02*
X108385000Y-124235000D01*
X108385000Y-124235000D02*
X108385000Y-123445000D01*
X108385000Y-123445000D02*
X109195000Y-123445000D01*
X109195000Y-123445000D02*
X109195000Y-124235000D01*
G36*
X109195000Y-124235000D02*
G01*
X108385000Y-124235000D01*
X108385000Y-123445000D01*
X109195000Y-123445000D01*
X109195000Y-124235000D01*
G37*
X107450000Y-127910000D02*
X106670000Y-127910000D01*
X106670000Y-127910000D02*
X106670000Y-127120000D01*
X106670000Y-127120000D02*
X107450000Y-127120000D01*
X107450000Y-127120000D02*
X107450000Y-127910000D01*
G36*
X107450000Y-127910000D02*
G01*
X106670000Y-127910000D01*
X106670000Y-127120000D01*
X107450000Y-127120000D01*
X107450000Y-127910000D01*
G37*
X107450000Y-124240000D02*
X106660000Y-124240000D01*
X106660000Y-124240000D02*
X106660000Y-123450000D01*
X106660000Y-123450000D02*
X107450000Y-123450000D01*
X107450000Y-123450000D02*
X107450000Y-124240000D01*
G36*
X107450000Y-124240000D02*
G01*
X106660000Y-124240000D01*
X106660000Y-123450000D01*
X107450000Y-123450000D01*
X107450000Y-124240000D01*
G37*
X107450000Y-122800000D02*
X106660000Y-122800000D01*
X106660000Y-122800000D02*
X106660000Y-122010000D01*
X106660000Y-122010000D02*
X107450000Y-122010000D01*
X107450000Y-122010000D02*
X107450000Y-122800000D01*
G36*
X107450000Y-122800000D02*
G01*
X106660000Y-122800000D01*
X106660000Y-122010000D01*
X107450000Y-122010000D01*
X107450000Y-122800000D01*
G37*
X107440000Y-125830000D02*
X106670000Y-125830000D01*
X106670000Y-125830000D02*
X106670000Y-125040000D01*
X106670000Y-125040000D02*
X107440000Y-125040000D01*
X107440000Y-125040000D02*
X107440000Y-125830000D01*
G36*
X107440000Y-125830000D02*
G01*
X106670000Y-125830000D01*
X106670000Y-125040000D01*
X107440000Y-125040000D01*
X107440000Y-125830000D01*
G37*
%TO.C,U22*%
X79210000Y-127905000D02*
X78380000Y-127905000D01*
X78380000Y-127905000D02*
X78380000Y-127115000D01*
X78380000Y-127115000D02*
X79210000Y-127115000D01*
X79210000Y-127115000D02*
X79210000Y-127905000D01*
G36*
X79210000Y-127905000D02*
G01*
X78380000Y-127905000D01*
X78380000Y-127115000D01*
X79210000Y-127115000D01*
X79210000Y-127905000D01*
G37*
X79200000Y-125825000D02*
X78380000Y-125825000D01*
X78380000Y-125825000D02*
X78380000Y-125035000D01*
X78380000Y-125035000D02*
X79200000Y-125035000D01*
X79200000Y-125035000D02*
X79200000Y-125825000D01*
G36*
X79200000Y-125825000D02*
G01*
X78380000Y-125825000D01*
X78380000Y-125035000D01*
X79200000Y-125035000D01*
X79200000Y-125825000D01*
G37*
X79200000Y-122795000D02*
X78385000Y-122795000D01*
X78385000Y-122795000D02*
X78385000Y-122005000D01*
X78385000Y-122005000D02*
X79200000Y-122005000D01*
X79200000Y-122005000D02*
X79200000Y-122795000D01*
G36*
X79200000Y-122795000D02*
G01*
X78385000Y-122795000D01*
X78385000Y-122005000D01*
X79200000Y-122005000D01*
X79200000Y-122795000D01*
G37*
X79195000Y-124235000D02*
X78385000Y-124235000D01*
X78385000Y-124235000D02*
X78385000Y-123445000D01*
X78385000Y-123445000D02*
X79195000Y-123445000D01*
X79195000Y-123445000D02*
X79195000Y-124235000D01*
G36*
X79195000Y-124235000D02*
G01*
X78385000Y-124235000D01*
X78385000Y-123445000D01*
X79195000Y-123445000D01*
X79195000Y-124235000D01*
G37*
X77450000Y-127910000D02*
X76670000Y-127910000D01*
X76670000Y-127910000D02*
X76670000Y-127120000D01*
X76670000Y-127120000D02*
X77450000Y-127120000D01*
X77450000Y-127120000D02*
X77450000Y-127910000D01*
G36*
X77450000Y-127910000D02*
G01*
X76670000Y-127910000D01*
X76670000Y-127120000D01*
X77450000Y-127120000D01*
X77450000Y-127910000D01*
G37*
X77450000Y-124240000D02*
X76660000Y-124240000D01*
X76660000Y-124240000D02*
X76660000Y-123450000D01*
X76660000Y-123450000D02*
X77450000Y-123450000D01*
X77450000Y-123450000D02*
X77450000Y-124240000D01*
G36*
X77450000Y-124240000D02*
G01*
X76660000Y-124240000D01*
X76660000Y-123450000D01*
X77450000Y-123450000D01*
X77450000Y-124240000D01*
G37*
X77450000Y-122800000D02*
X76660000Y-122800000D01*
X76660000Y-122800000D02*
X76660000Y-122010000D01*
X76660000Y-122010000D02*
X77450000Y-122010000D01*
X77450000Y-122010000D02*
X77450000Y-122800000D01*
G36*
X77450000Y-122800000D02*
G01*
X76660000Y-122800000D01*
X76660000Y-122010000D01*
X77450000Y-122010000D01*
X77450000Y-122800000D01*
G37*
X77440000Y-125830000D02*
X76670000Y-125830000D01*
X76670000Y-125830000D02*
X76670000Y-125040000D01*
X76670000Y-125040000D02*
X77440000Y-125040000D01*
X77440000Y-125040000D02*
X77440000Y-125830000D01*
G36*
X77440000Y-125830000D02*
G01*
X76670000Y-125830000D01*
X76670000Y-125040000D01*
X77440000Y-125040000D01*
X77440000Y-125830000D01*
G37*
%TO.C,U27*%
X79210000Y-155905000D02*
X78380000Y-155905000D01*
X78380000Y-155905000D02*
X78380000Y-155115000D01*
X78380000Y-155115000D02*
X79210000Y-155115000D01*
X79210000Y-155115000D02*
X79210000Y-155905000D01*
G36*
X79210000Y-155905000D02*
G01*
X78380000Y-155905000D01*
X78380000Y-155115000D01*
X79210000Y-155115000D01*
X79210000Y-155905000D01*
G37*
X79200000Y-153825000D02*
X78380000Y-153825000D01*
X78380000Y-153825000D02*
X78380000Y-153035000D01*
X78380000Y-153035000D02*
X79200000Y-153035000D01*
X79200000Y-153035000D02*
X79200000Y-153825000D01*
G36*
X79200000Y-153825000D02*
G01*
X78380000Y-153825000D01*
X78380000Y-153035000D01*
X79200000Y-153035000D01*
X79200000Y-153825000D01*
G37*
X79200000Y-150795000D02*
X78385000Y-150795000D01*
X78385000Y-150795000D02*
X78385000Y-150005000D01*
X78385000Y-150005000D02*
X79200000Y-150005000D01*
X79200000Y-150005000D02*
X79200000Y-150795000D01*
G36*
X79200000Y-150795000D02*
G01*
X78385000Y-150795000D01*
X78385000Y-150005000D01*
X79200000Y-150005000D01*
X79200000Y-150795000D01*
G37*
X79195000Y-152235000D02*
X78385000Y-152235000D01*
X78385000Y-152235000D02*
X78385000Y-151445000D01*
X78385000Y-151445000D02*
X79195000Y-151445000D01*
X79195000Y-151445000D02*
X79195000Y-152235000D01*
G36*
X79195000Y-152235000D02*
G01*
X78385000Y-152235000D01*
X78385000Y-151445000D01*
X79195000Y-151445000D01*
X79195000Y-152235000D01*
G37*
X77450000Y-155910000D02*
X76670000Y-155910000D01*
X76670000Y-155910000D02*
X76670000Y-155120000D01*
X76670000Y-155120000D02*
X77450000Y-155120000D01*
X77450000Y-155120000D02*
X77450000Y-155910000D01*
G36*
X77450000Y-155910000D02*
G01*
X76670000Y-155910000D01*
X76670000Y-155120000D01*
X77450000Y-155120000D01*
X77450000Y-155910000D01*
G37*
X77450000Y-152240000D02*
X76660000Y-152240000D01*
X76660000Y-152240000D02*
X76660000Y-151450000D01*
X76660000Y-151450000D02*
X77450000Y-151450000D01*
X77450000Y-151450000D02*
X77450000Y-152240000D01*
G36*
X77450000Y-152240000D02*
G01*
X76660000Y-152240000D01*
X76660000Y-151450000D01*
X77450000Y-151450000D01*
X77450000Y-152240000D01*
G37*
X77450000Y-150800000D02*
X76660000Y-150800000D01*
X76660000Y-150800000D02*
X76660000Y-150010000D01*
X76660000Y-150010000D02*
X77450000Y-150010000D01*
X77450000Y-150010000D02*
X77450000Y-150800000D01*
G36*
X77450000Y-150800000D02*
G01*
X76660000Y-150800000D01*
X76660000Y-150010000D01*
X77450000Y-150010000D01*
X77450000Y-150800000D01*
G37*
X77440000Y-153830000D02*
X76670000Y-153830000D01*
X76670000Y-153830000D02*
X76670000Y-153040000D01*
X76670000Y-153040000D02*
X77440000Y-153040000D01*
X77440000Y-153040000D02*
X77440000Y-153830000D01*
G36*
X77440000Y-153830000D02*
G01*
X76670000Y-153830000D01*
X76670000Y-153040000D01*
X77440000Y-153040000D01*
X77440000Y-153830000D01*
G37*
%TO.C,U24*%
X109210000Y-155905000D02*
X108380000Y-155905000D01*
X108380000Y-155905000D02*
X108380000Y-155115000D01*
X108380000Y-155115000D02*
X109210000Y-155115000D01*
X109210000Y-155115000D02*
X109210000Y-155905000D01*
G36*
X109210000Y-155905000D02*
G01*
X108380000Y-155905000D01*
X108380000Y-155115000D01*
X109210000Y-155115000D01*
X109210000Y-155905000D01*
G37*
X109200000Y-153825000D02*
X108380000Y-153825000D01*
X108380000Y-153825000D02*
X108380000Y-153035000D01*
X108380000Y-153035000D02*
X109200000Y-153035000D01*
X109200000Y-153035000D02*
X109200000Y-153825000D01*
G36*
X109200000Y-153825000D02*
G01*
X108380000Y-153825000D01*
X108380000Y-153035000D01*
X109200000Y-153035000D01*
X109200000Y-153825000D01*
G37*
X109200000Y-150795000D02*
X108385000Y-150795000D01*
X108385000Y-150795000D02*
X108385000Y-150005000D01*
X108385000Y-150005000D02*
X109200000Y-150005000D01*
X109200000Y-150005000D02*
X109200000Y-150795000D01*
G36*
X109200000Y-150795000D02*
G01*
X108385000Y-150795000D01*
X108385000Y-150005000D01*
X109200000Y-150005000D01*
X109200000Y-150795000D01*
G37*
X109195000Y-152235000D02*
X108385000Y-152235000D01*
X108385000Y-152235000D02*
X108385000Y-151445000D01*
X108385000Y-151445000D02*
X109195000Y-151445000D01*
X109195000Y-151445000D02*
X109195000Y-152235000D01*
G36*
X109195000Y-152235000D02*
G01*
X108385000Y-152235000D01*
X108385000Y-151445000D01*
X109195000Y-151445000D01*
X109195000Y-152235000D01*
G37*
X107450000Y-155910000D02*
X106670000Y-155910000D01*
X106670000Y-155910000D02*
X106670000Y-155120000D01*
X106670000Y-155120000D02*
X107450000Y-155120000D01*
X107450000Y-155120000D02*
X107450000Y-155910000D01*
G36*
X107450000Y-155910000D02*
G01*
X106670000Y-155910000D01*
X106670000Y-155120000D01*
X107450000Y-155120000D01*
X107450000Y-155910000D01*
G37*
X107450000Y-152240000D02*
X106660000Y-152240000D01*
X106660000Y-152240000D02*
X106660000Y-151450000D01*
X106660000Y-151450000D02*
X107450000Y-151450000D01*
X107450000Y-151450000D02*
X107450000Y-152240000D01*
G36*
X107450000Y-152240000D02*
G01*
X106660000Y-152240000D01*
X106660000Y-151450000D01*
X107450000Y-151450000D01*
X107450000Y-152240000D01*
G37*
X107450000Y-150800000D02*
X106660000Y-150800000D01*
X106660000Y-150800000D02*
X106660000Y-150010000D01*
X106660000Y-150010000D02*
X107450000Y-150010000D01*
X107450000Y-150010000D02*
X107450000Y-150800000D01*
G36*
X107450000Y-150800000D02*
G01*
X106660000Y-150800000D01*
X106660000Y-150010000D01*
X107450000Y-150010000D01*
X107450000Y-150800000D01*
G37*
X107440000Y-153830000D02*
X106670000Y-153830000D01*
X106670000Y-153830000D02*
X106670000Y-153040000D01*
X106670000Y-153040000D02*
X107440000Y-153040000D01*
X107440000Y-153040000D02*
X107440000Y-153830000D01*
G36*
X107440000Y-153830000D02*
G01*
X106670000Y-153830000D01*
X106670000Y-153040000D01*
X107440000Y-153040000D01*
X107440000Y-153830000D01*
G37*
%TO.C,U16*%
X79210000Y-99905000D02*
X78380000Y-99905000D01*
X78380000Y-99905000D02*
X78380000Y-99115000D01*
X78380000Y-99115000D02*
X79210000Y-99115000D01*
X79210000Y-99115000D02*
X79210000Y-99905000D01*
G36*
X79210000Y-99905000D02*
G01*
X78380000Y-99905000D01*
X78380000Y-99115000D01*
X79210000Y-99115000D01*
X79210000Y-99905000D01*
G37*
X79200000Y-97825000D02*
X78380000Y-97825000D01*
X78380000Y-97825000D02*
X78380000Y-97035000D01*
X78380000Y-97035000D02*
X79200000Y-97035000D01*
X79200000Y-97035000D02*
X79200000Y-97825000D01*
G36*
X79200000Y-97825000D02*
G01*
X78380000Y-97825000D01*
X78380000Y-97035000D01*
X79200000Y-97035000D01*
X79200000Y-97825000D01*
G37*
X79200000Y-94795000D02*
X78385000Y-94795000D01*
X78385000Y-94795000D02*
X78385000Y-94005000D01*
X78385000Y-94005000D02*
X79200000Y-94005000D01*
X79200000Y-94005000D02*
X79200000Y-94795000D01*
G36*
X79200000Y-94795000D02*
G01*
X78385000Y-94795000D01*
X78385000Y-94005000D01*
X79200000Y-94005000D01*
X79200000Y-94795000D01*
G37*
X79195000Y-96235000D02*
X78385000Y-96235000D01*
X78385000Y-96235000D02*
X78385000Y-95445000D01*
X78385000Y-95445000D02*
X79195000Y-95445000D01*
X79195000Y-95445000D02*
X79195000Y-96235000D01*
G36*
X79195000Y-96235000D02*
G01*
X78385000Y-96235000D01*
X78385000Y-95445000D01*
X79195000Y-95445000D01*
X79195000Y-96235000D01*
G37*
X77450000Y-99910000D02*
X76670000Y-99910000D01*
X76670000Y-99910000D02*
X76670000Y-99120000D01*
X76670000Y-99120000D02*
X77450000Y-99120000D01*
X77450000Y-99120000D02*
X77450000Y-99910000D01*
G36*
X77450000Y-99910000D02*
G01*
X76670000Y-99910000D01*
X76670000Y-99120000D01*
X77450000Y-99120000D01*
X77450000Y-99910000D01*
G37*
X77450000Y-96240000D02*
X76660000Y-96240000D01*
X76660000Y-96240000D02*
X76660000Y-95450000D01*
X76660000Y-95450000D02*
X77450000Y-95450000D01*
X77450000Y-95450000D02*
X77450000Y-96240000D01*
G36*
X77450000Y-96240000D02*
G01*
X76660000Y-96240000D01*
X76660000Y-95450000D01*
X77450000Y-95450000D01*
X77450000Y-96240000D01*
G37*
X77450000Y-94800000D02*
X76660000Y-94800000D01*
X76660000Y-94800000D02*
X76660000Y-94010000D01*
X76660000Y-94010000D02*
X77450000Y-94010000D01*
X77450000Y-94010000D02*
X77450000Y-94800000D01*
G36*
X77450000Y-94800000D02*
G01*
X76660000Y-94800000D01*
X76660000Y-94010000D01*
X77450000Y-94010000D01*
X77450000Y-94800000D01*
G37*
X77440000Y-97830000D02*
X76670000Y-97830000D01*
X76670000Y-97830000D02*
X76670000Y-97040000D01*
X76670000Y-97040000D02*
X77440000Y-97040000D01*
X77440000Y-97040000D02*
X77440000Y-97830000D01*
G36*
X77440000Y-97830000D02*
G01*
X76670000Y-97830000D01*
X76670000Y-97040000D01*
X77440000Y-97040000D01*
X77440000Y-97830000D01*
G37*
%TO.C,U13*%
X109210000Y-99905000D02*
X108380000Y-99905000D01*
X108380000Y-99905000D02*
X108380000Y-99115000D01*
X108380000Y-99115000D02*
X109210000Y-99115000D01*
X109210000Y-99115000D02*
X109210000Y-99905000D01*
G36*
X109210000Y-99905000D02*
G01*
X108380000Y-99905000D01*
X108380000Y-99115000D01*
X109210000Y-99115000D01*
X109210000Y-99905000D01*
G37*
X109200000Y-97825000D02*
X108380000Y-97825000D01*
X108380000Y-97825000D02*
X108380000Y-97035000D01*
X108380000Y-97035000D02*
X109200000Y-97035000D01*
X109200000Y-97035000D02*
X109200000Y-97825000D01*
G36*
X109200000Y-97825000D02*
G01*
X108380000Y-97825000D01*
X108380000Y-97035000D01*
X109200000Y-97035000D01*
X109200000Y-97825000D01*
G37*
X109200000Y-94795000D02*
X108385000Y-94795000D01*
X108385000Y-94795000D02*
X108385000Y-94005000D01*
X108385000Y-94005000D02*
X109200000Y-94005000D01*
X109200000Y-94005000D02*
X109200000Y-94795000D01*
G36*
X109200000Y-94795000D02*
G01*
X108385000Y-94795000D01*
X108385000Y-94005000D01*
X109200000Y-94005000D01*
X109200000Y-94795000D01*
G37*
X109195000Y-96235000D02*
X108385000Y-96235000D01*
X108385000Y-96235000D02*
X108385000Y-95445000D01*
X108385000Y-95445000D02*
X109195000Y-95445000D01*
X109195000Y-95445000D02*
X109195000Y-96235000D01*
G36*
X109195000Y-96235000D02*
G01*
X108385000Y-96235000D01*
X108385000Y-95445000D01*
X109195000Y-95445000D01*
X109195000Y-96235000D01*
G37*
X107450000Y-99910000D02*
X106670000Y-99910000D01*
X106670000Y-99910000D02*
X106670000Y-99120000D01*
X106670000Y-99120000D02*
X107450000Y-99120000D01*
X107450000Y-99120000D02*
X107450000Y-99910000D01*
G36*
X107450000Y-99910000D02*
G01*
X106670000Y-99910000D01*
X106670000Y-99120000D01*
X107450000Y-99120000D01*
X107450000Y-99910000D01*
G37*
X107450000Y-96240000D02*
X106660000Y-96240000D01*
X106660000Y-96240000D02*
X106660000Y-95450000D01*
X106660000Y-95450000D02*
X107450000Y-95450000D01*
X107450000Y-95450000D02*
X107450000Y-96240000D01*
G36*
X107450000Y-96240000D02*
G01*
X106660000Y-96240000D01*
X106660000Y-95450000D01*
X107450000Y-95450000D01*
X107450000Y-96240000D01*
G37*
X107450000Y-94800000D02*
X106660000Y-94800000D01*
X106660000Y-94800000D02*
X106660000Y-94010000D01*
X106660000Y-94010000D02*
X107450000Y-94010000D01*
X107450000Y-94010000D02*
X107450000Y-94800000D01*
G36*
X107450000Y-94800000D02*
G01*
X106660000Y-94800000D01*
X106660000Y-94010000D01*
X107450000Y-94010000D01*
X107450000Y-94800000D01*
G37*
X107440000Y-97830000D02*
X106670000Y-97830000D01*
X106670000Y-97830000D02*
X106670000Y-97040000D01*
X106670000Y-97040000D02*
X107440000Y-97040000D01*
X107440000Y-97040000D02*
X107440000Y-97830000D01*
G36*
X107440000Y-97830000D02*
G01*
X106670000Y-97830000D01*
X106670000Y-97040000D01*
X107440000Y-97040000D01*
X107440000Y-97830000D01*
G37*
%TD*%
D11*
%TO.C,U19*%
X110916000Y-128263000D03*
X110916000Y-127761000D03*
X110916000Y-127259000D03*
X110916000Y-126757000D03*
X110916000Y-126255000D03*
X110916000Y-125753000D03*
X110916000Y-125251000D03*
X110916000Y-124749000D03*
X110916000Y-124247000D03*
X110916000Y-123745000D03*
X110916000Y-123243000D03*
X110916000Y-122741000D03*
X110916000Y-122239000D03*
X110916000Y-121737000D03*
X105084000Y-121750000D03*
X105084000Y-122250000D03*
X105084000Y-122750000D03*
X105084000Y-123250000D03*
X105084000Y-123750000D03*
X105084000Y-124247000D03*
X105084000Y-124750000D03*
X105084000Y-125251000D03*
X105084000Y-125753000D03*
X105084000Y-126255000D03*
X105084000Y-126757000D03*
X105084000Y-127250000D03*
X105084000Y-127761000D03*
X105084000Y-128250000D03*
%TD*%
D12*
%TO.C,U3*%
X79775000Y-60462500D03*
X79125000Y-60462500D03*
X78475000Y-60462500D03*
X77825000Y-60462500D03*
X77825000Y-62737500D03*
X78475000Y-62737500D03*
X79125000Y-62737500D03*
X79775000Y-62737500D03*
%TD*%
D13*
%TO.C,C37*%
X125380000Y-78100000D03*
X124420000Y-78100000D03*
%TD*%
D11*
%TO.C,U22*%
X80916000Y-128263000D03*
X80916000Y-127761000D03*
X80916000Y-127259000D03*
X80916000Y-126757000D03*
X80916000Y-126255000D03*
X80916000Y-125753000D03*
X80916000Y-125251000D03*
X80916000Y-124749000D03*
X80916000Y-124247000D03*
X80916000Y-123745000D03*
X80916000Y-123243000D03*
X80916000Y-122741000D03*
X80916000Y-122239000D03*
X80916000Y-121737000D03*
X75084000Y-121750000D03*
X75084000Y-122250000D03*
X75084000Y-122750000D03*
X75084000Y-123250000D03*
X75084000Y-123750000D03*
X75084000Y-124247000D03*
X75084000Y-124750000D03*
X75084000Y-125251000D03*
X75084000Y-125753000D03*
X75084000Y-126255000D03*
X75084000Y-126757000D03*
X75084000Y-127250000D03*
X75084000Y-127761000D03*
X75084000Y-128250000D03*
%TD*%
D14*
%TO.C,R13*%
X84120000Y-52850000D03*
X84120000Y-51830000D03*
%TD*%
D15*
%TO.C,C32*%
X86180000Y-52820000D03*
X86180000Y-51860000D03*
%TD*%
D16*
%TO.C,Y1*%
X101300000Y-56777600D03*
X101300000Y-59622400D03*
%TD*%
D17*
%TO.C,U6*%
X60150000Y-62975000D03*
X60150000Y-62325000D03*
X60150000Y-61675000D03*
X60150000Y-61025000D03*
X55850000Y-61025000D03*
X55850000Y-61675000D03*
X55850000Y-62325000D03*
X55850000Y-62975000D03*
%TD*%
D18*
%TO.C,C28*%
X82470000Y-77600000D03*
X83430000Y-77600000D03*
%TD*%
D14*
%TO.C,R21*%
X123700000Y-68610000D03*
X123700000Y-67590000D03*
%TD*%
D19*
%TO.C,Q5*%
X88000000Y-63350000D03*
X88000000Y-61450000D03*
X86125000Y-62400000D03*
%TD*%
D13*
%TO.C,C4*%
X79880000Y-58500000D03*
X78920000Y-58500000D03*
%TD*%
D20*
%TO.C,SW2*%
X124275000Y-46775000D03*
X128125000Y-46775000D03*
X124275000Y-48225000D03*
X128125000Y-48225000D03*
%TD*%
D13*
%TO.C,C29*%
X99380000Y-56800000D03*
X98420000Y-56800000D03*
%TD*%
D11*
%TO.C,U27*%
X80916000Y-156263000D03*
X80916000Y-155761000D03*
X80916000Y-155259000D03*
X80916000Y-154757000D03*
X80916000Y-154255000D03*
X80916000Y-153753000D03*
X80916000Y-153251000D03*
X80916000Y-152749000D03*
X80916000Y-152247000D03*
X80916000Y-151745000D03*
X80916000Y-151243000D03*
X80916000Y-150741000D03*
X80916000Y-150239000D03*
X80916000Y-149737000D03*
X75084000Y-149750000D03*
X75084000Y-150250000D03*
X75084000Y-150750000D03*
X75084000Y-151250000D03*
X75084000Y-151750000D03*
X75084000Y-152247000D03*
X75084000Y-152750000D03*
X75084000Y-153251000D03*
X75084000Y-153753000D03*
X75084000Y-154255000D03*
X75084000Y-154757000D03*
X75084000Y-155250000D03*
X75084000Y-155761000D03*
X75084000Y-156250000D03*
%TD*%
D21*
%TO.C,R16*%
X88810000Y-65100000D03*
X87790000Y-65100000D03*
%TD*%
D22*
%TO.C,C34*%
X111200000Y-75500000D03*
X111200000Y-70100000D03*
%TD*%
D20*
%TO.C,SW1*%
X84175000Y-46775000D03*
X88025000Y-46775000D03*
X84175000Y-48225000D03*
X88025000Y-48225000D03*
%TD*%
D15*
%TO.C,C33*%
X89400000Y-173180000D03*
X89400000Y-172220000D03*
%TD*%
D11*
%TO.C,U24*%
X110916000Y-156263000D03*
X110916000Y-155761000D03*
X110916000Y-155259000D03*
X110916000Y-154757000D03*
X110916000Y-154255000D03*
X110916000Y-153753000D03*
X110916000Y-153251000D03*
X110916000Y-152749000D03*
X110916000Y-152247000D03*
X110916000Y-151745000D03*
X110916000Y-151243000D03*
X110916000Y-150741000D03*
X110916000Y-150239000D03*
X110916000Y-149737000D03*
X105084000Y-149750000D03*
X105084000Y-150250000D03*
X105084000Y-150750000D03*
X105084000Y-151250000D03*
X105084000Y-151750000D03*
X105084000Y-152247000D03*
X105084000Y-152750000D03*
X105084000Y-153251000D03*
X105084000Y-153753000D03*
X105084000Y-154255000D03*
X105084000Y-154757000D03*
X105084000Y-155250000D03*
X105084000Y-155761000D03*
X105084000Y-156250000D03*
%TD*%
D18*
%TO.C,C18*%
X56520000Y-64800000D03*
X57480000Y-64800000D03*
%TD*%
D23*
%TO.C,R3*%
X77900000Y-55590000D03*
X77900000Y-56610000D03*
%TD*%
D24*
%TO.C,Q6*%
X58320000Y-69320000D03*
X57020000Y-69320000D03*
X57670000Y-71320000D03*
%TD*%
D13*
%TO.C,C30*%
X99380000Y-59600000D03*
X98420000Y-59600000D03*
%TD*%
D14*
%TO.C,R15*%
X85500000Y-65710000D03*
X85500000Y-64690000D03*
%TD*%
D21*
%TO.C,R11*%
X56710000Y-59600000D03*
X55690000Y-59600000D03*
%TD*%
D15*
%TO.C,C11*%
X76000000Y-60480000D03*
X76000000Y-59520000D03*
%TD*%
D25*
%TO.C,U10*%
X87500100Y-55699999D03*
X87500100Y-55200000D03*
X87500100Y-54700001D03*
X85899900Y-54700001D03*
X85899900Y-55200000D03*
X85899900Y-55699999D03*
%TD*%
D13*
%TO.C,C36*%
X107880000Y-78100000D03*
X106920000Y-78100000D03*
%TD*%
D11*
%TO.C,U16*%
X80916000Y-100263000D03*
X80916000Y-99761000D03*
X80916000Y-99259000D03*
X80916000Y-98757000D03*
X80916000Y-98255000D03*
X80916000Y-97753000D03*
X80916000Y-97251000D03*
X80916000Y-96749000D03*
X80916000Y-96247000D03*
X80916000Y-95745000D03*
X80916000Y-95243000D03*
X80916000Y-94741000D03*
X80916000Y-94239000D03*
X80916000Y-93737000D03*
X75084000Y-93750000D03*
X75084000Y-94250000D03*
X75084000Y-94750000D03*
X75084000Y-95250000D03*
X75084000Y-95750000D03*
X75084000Y-96247000D03*
X75084000Y-96750000D03*
X75084000Y-97251000D03*
X75084000Y-97753000D03*
X75084000Y-98255000D03*
X75084000Y-98757000D03*
X75084000Y-99250000D03*
X75084000Y-99761000D03*
X75084000Y-100250000D03*
%TD*%
D26*
%TO.C,U9*%
X104350000Y-47780000D03*
X104350000Y-49050000D03*
X104350000Y-50320000D03*
X104350000Y-51590000D03*
X104350000Y-52860000D03*
X104350000Y-54130000D03*
X104350000Y-55400000D03*
X104350000Y-56670000D03*
X104350000Y-57940000D03*
X104350000Y-59210000D03*
X104350000Y-60480000D03*
X104350000Y-61750000D03*
X104350000Y-63020000D03*
X104350000Y-64290000D03*
D27*
X106115000Y-65540000D03*
X107385000Y-65540000D03*
X108655000Y-65540000D03*
X109925000Y-65540000D03*
X111195000Y-65540000D03*
X112465000Y-65540000D03*
X113735000Y-65540000D03*
X115005000Y-65540000D03*
X116275000Y-65540000D03*
X117545000Y-65540000D03*
X118815000Y-65540000D03*
X120085000Y-65540000D03*
D26*
X121850000Y-64290000D03*
X121850000Y-63020000D03*
X121850000Y-61750000D03*
X121850000Y-60480000D03*
X121850000Y-59210000D03*
X121850000Y-57940000D03*
X121850000Y-56670000D03*
X121850000Y-55400000D03*
X121850000Y-54130000D03*
X121850000Y-52860000D03*
X121850000Y-51590000D03*
X121850000Y-50320000D03*
X121850000Y-49050000D03*
X121850000Y-47780000D03*
D28*
X110200000Y-54100000D03*
X110200000Y-55500000D03*
X110200000Y-56900000D03*
X111600000Y-54100000D03*
X111600000Y-55500000D03*
X111600000Y-56900000D03*
X113000000Y-54100000D03*
X113000000Y-55500000D03*
X113000000Y-56900000D03*
%TD*%
D29*
%TO.C,J8*%
X78725000Y-74050000D03*
X79975000Y-74050000D03*
X81225000Y-74050000D03*
X82475000Y-74050000D03*
X83725000Y-74050000D03*
X84975000Y-74050000D03*
X86225000Y-74050000D03*
X87475000Y-74050000D03*
X88725000Y-74050000D03*
X89975000Y-74050000D03*
X91225000Y-74050000D03*
X92475000Y-74050000D03*
D30*
X76875000Y-70700000D03*
X94325000Y-70700000D03*
%TD*%
D25*
%TO.C,U11*%
X92400100Y-173699999D03*
X92400100Y-173200000D03*
X92400100Y-172700001D03*
X90799900Y-172700001D03*
X90799900Y-173200000D03*
X90799900Y-173699999D03*
%TD*%
D31*
%TO.C,C24*%
X88040000Y-51870000D03*
X88040000Y-52830000D03*
%TD*%
D32*
%TO.C,J4*%
X100710000Y-53420000D03*
X99910000Y-53420000D03*
D33*
X98760000Y-53375000D03*
X97760000Y-53375000D03*
X97260000Y-53375000D03*
X96260000Y-53375000D03*
D32*
X95110000Y-53420000D03*
X94310000Y-53420000D03*
X94310000Y-53420000D03*
X95110000Y-53420000D03*
D33*
X95760000Y-53375000D03*
X96760000Y-53375000D03*
X98260000Y-53375000D03*
X99260000Y-53375000D03*
D32*
X99910000Y-53420000D03*
X100710000Y-53420000D03*
D34*
X101830000Y-52800000D03*
D35*
X101830000Y-48620000D03*
D34*
X93190000Y-52800000D03*
D35*
X93190000Y-48620000D03*
%TD*%
D21*
%TO.C,R12*%
X58910000Y-59600000D03*
X57890000Y-59600000D03*
%TD*%
D22*
%TO.C,C35*%
X128100000Y-76000000D03*
X128100000Y-70600000D03*
%TD*%
D23*
%TO.C,R2*%
X81000000Y-55590000D03*
X81000000Y-56610000D03*
%TD*%
D36*
%TO.C,D1*%
X93600000Y-61900000D03*
X93600000Y-57900000D03*
%TD*%
D14*
%TO.C,R20*%
X98200000Y-69910000D03*
X98200000Y-68890000D03*
%TD*%
D11*
%TO.C,U13*%
X110916000Y-100263000D03*
X110916000Y-99761000D03*
X110916000Y-99259000D03*
X110916000Y-98757000D03*
X110916000Y-98255000D03*
X110916000Y-97753000D03*
X110916000Y-97251000D03*
X110916000Y-96749000D03*
X110916000Y-96247000D03*
X110916000Y-95745000D03*
X110916000Y-95243000D03*
X110916000Y-94741000D03*
X110916000Y-94239000D03*
X110916000Y-93737000D03*
X105084000Y-93750000D03*
X105084000Y-94250000D03*
X105084000Y-94750000D03*
X105084000Y-95250000D03*
X105084000Y-95750000D03*
X105084000Y-96247000D03*
X105084000Y-96750000D03*
X105084000Y-97251000D03*
X105084000Y-97753000D03*
X105084000Y-98255000D03*
X105084000Y-98757000D03*
X105084000Y-99250000D03*
X105084000Y-99761000D03*
X105084000Y-100250000D03*
%TD*%
M02*
