%TF.GenerationSoftware,KiCad,Pcbnew,8.0.1-rc1*%
%TF.CreationDate,2024-03-24T23:57:46-06:00*%
%TF.ProjectId,bitaxeHex,62697461-7865-4486-9578-2e6b69636164,302*%
%TF.SameCoordinates,Original*%
%TF.FileFunction,Soldermask,Bot*%
%TF.FilePolarity,Negative*%
%FSLAX46Y46*%
G04 Gerber Fmt 4.6, Leading zero omitted, Abs format (unit mm)*
G04 Created by KiCad (PCBNEW 8.0.1-rc1) date 2024-03-24 23:57:46*
%MOMM*%
%LPD*%
G01*
G04 APERTURE LIST*
G04 Aperture macros list*
%AMRoundRect*
0 Rectangle with rounded corners*
0 $1 Rounding radius*
0 $2 $3 $4 $5 $6 $7 $8 $9 X,Y pos of 4 corners*
0 Add a 4 corners polygon primitive as box body*
4,1,4,$2,$3,$4,$5,$6,$7,$8,$9,$2,$3,0*
0 Add four circle primitives for the rounded corners*
1,1,$1+$1,$2,$3*
1,1,$1+$1,$4,$5*
1,1,$1+$1,$6,$7*
1,1,$1+$1,$8,$9*
0 Add four rect primitives between the rounded corners*
20,1,$1+$1,$2,$3,$4,$5,0*
20,1,$1+$1,$4,$5,$6,$7,0*
20,1,$1+$1,$6,$7,$8,$9,0*
20,1,$1+$1,$8,$9,$2,$3,0*%
G04 Aperture macros list end*
%ADD10C,0.990600*%
%ADD11C,3.200000*%
%ADD12C,0.800000*%
%ADD13C,6.000000*%
%ADD14C,1.295400*%
%ADD15C,1.574800*%
%ADD16C,5.000000*%
%ADD17R,1.700000X1.700000*%
%ADD18O,1.700000X1.700000*%
%ADD19C,0.400000*%
%ADD20C,0.650000*%
%ADD21O,1.000000X2.100000*%
%ADD22O,1.000000X1.800000*%
%ADD23RoundRect,0.140000X-0.170000X0.140000X-0.170000X-0.140000X0.170000X-0.140000X0.170000X0.140000X0*%
%ADD24C,1.000000*%
%ADD25RoundRect,0.140000X0.170000X-0.140000X0.170000X0.140000X-0.170000X0.140000X-0.170000X-0.140000X0*%
%ADD26RoundRect,0.140000X0.140000X0.170000X-0.140000X0.170000X-0.140000X-0.170000X0.140000X-0.170000X0*%
%ADD27RoundRect,0.135000X0.185000X-0.135000X0.185000X0.135000X-0.185000X0.135000X-0.185000X-0.135000X0*%
%ADD28RoundRect,0.250000X0.250000X0.475000X-0.250000X0.475000X-0.250000X-0.475000X0.250000X-0.475000X0*%
%ADD29RoundRect,0.250000X-0.875000X-1.025000X0.875000X-1.025000X0.875000X1.025000X-0.875000X1.025000X0*%
%ADD30RoundRect,0.150000X0.512500X0.150000X-0.512500X0.150000X-0.512500X-0.150000X0.512500X-0.150000X0*%
%ADD31RoundRect,0.135000X-0.135000X-0.185000X0.135000X-0.185000X0.135000X0.185000X-0.135000X0.185000X0*%
%ADD32RoundRect,0.250000X-0.475000X0.250000X-0.475000X-0.250000X0.475000X-0.250000X0.475000X0.250000X0*%
%ADD33R,0.650000X1.560000*%
%ADD34RoundRect,0.135000X-0.185000X0.135000X-0.185000X-0.135000X0.185000X-0.135000X0.185000X0.135000X0*%
%ADD35RoundRect,0.140000X-0.140000X-0.170000X0.140000X-0.170000X0.140000X0.170000X-0.140000X0.170000X0*%
%ADD36RoundRect,0.135000X0.135000X0.185000X-0.135000X0.185000X-0.135000X-0.185000X0.135000X-0.185000X0*%
%ADD37RoundRect,0.250000X1.100000X-0.325000X1.100000X0.325000X-1.100000X0.325000X-1.100000X-0.325000X0*%
%ADD38C,1.500000*%
%ADD39RoundRect,0.100000X0.100000X-0.637500X0.100000X0.637500X-0.100000X0.637500X-0.100000X-0.637500X0*%
%ADD40RoundRect,0.250000X-0.325000X-1.100000X0.325000X-1.100000X0.325000X1.100000X-0.325000X1.100000X0*%
%ADD41C,2.000000*%
%ADD42R,0.952500X0.558800*%
%ADD43RoundRect,0.250000X1.500000X0.550000X-1.500000X0.550000X-1.500000X-0.550000X1.500000X-0.550000X0*%
%ADD44RoundRect,0.150000X0.150000X-0.512500X0.150000X0.512500X-0.150000X0.512500X-0.150000X-0.512500X0*%
%ADD45R,1.300000X1.100000*%
%ADD46RoundRect,0.250000X-0.250000X-0.475000X0.250000X-0.475000X0.250000X0.475000X-0.250000X0.475000X0*%
%ADD47R,1.100000X1.300000*%
%ADD48R,3.700000X1.680000*%
%ADD49RoundRect,0.225000X-0.225000X-0.250000X0.225000X-0.250000X0.225000X0.250000X-0.225000X0.250000X0*%
G04 APERTURE END LIST*
D10*
%TO.C,J4*%
X129900000Y-57360000D03*
X130916000Y-62440000D03*
X128884000Y-62440000D03*
%TD*%
D11*
%TO.C,J2*%
X74000000Y-56725000D03*
X74000000Y-49725000D03*
X69000000Y-56725000D03*
X69000000Y-49725000D03*
%TD*%
D12*
%TO.C,H1*%
X51250000Y-49500000D03*
X51909010Y-47909010D03*
X51909010Y-51090990D03*
X53500000Y-47250000D03*
D13*
X53500000Y-49500000D03*
D12*
X53500000Y-51750000D03*
X55090990Y-47909010D03*
X55090990Y-51090990D03*
X55750000Y-49500000D03*
%TD*%
D11*
%TO.C,J1*%
X64275000Y-56725000D03*
X64275000Y-49725000D03*
X59275000Y-56725000D03*
X59275000Y-49725000D03*
%TD*%
D14*
%TO.C,J8*%
X84780000Y-58489999D03*
D15*
X79700000Y-60650000D03*
X82240000Y-60650000D03*
X84780000Y-60650000D03*
X87320000Y-60650000D03*
%TD*%
D16*
%TO.C,H13*%
X92250000Y-97000000D03*
%TD*%
D12*
%TO.C,H4*%
X128750000Y-172000000D03*
X129409010Y-170409010D03*
X129409010Y-173590990D03*
X131000000Y-169750000D03*
D13*
X131000000Y-172000000D03*
D12*
X131000000Y-174250000D03*
X132590990Y-170409010D03*
X132590990Y-173590990D03*
X133250000Y-172000000D03*
%TD*%
D16*
%TO.C,H15*%
X92250000Y-153000000D03*
%TD*%
D17*
%TO.C,J6*%
X121760000Y-69500000D03*
D18*
X119220000Y-69500000D03*
X116680000Y-69500000D03*
X114140000Y-69500000D03*
X111600000Y-69500000D03*
X109060000Y-69500000D03*
%TD*%
D14*
%TO.C,J9*%
X89990000Y-70214999D03*
D15*
X84910000Y-72375000D03*
X87450000Y-72375000D03*
X89990000Y-72375000D03*
X92530000Y-72375000D03*
%TD*%
D16*
%TO.C,H14*%
X92250000Y-125000000D03*
%TD*%
%TO.C,H10*%
X122500000Y-125000000D03*
%TD*%
%TO.C,H9*%
X62000000Y-125000000D03*
%TD*%
D19*
%TO.C,U3*%
X57000000Y-73030000D03*
X58400000Y-73030000D03*
X59800000Y-73030000D03*
X56000000Y-71750000D03*
X57000000Y-71750000D03*
X58400000Y-71750000D03*
X59800000Y-71750000D03*
X60800000Y-71750000D03*
X57000000Y-70470000D03*
X58400000Y-70470000D03*
X59800000Y-70470000D03*
%TD*%
D16*
%TO.C,H12*%
X122500000Y-153000000D03*
%TD*%
%TO.C,H8*%
X122500000Y-97000000D03*
%TD*%
%TO.C,H7*%
X62000000Y-97000000D03*
%TD*%
D17*
%TO.C,J5*%
X125800000Y-55200000D03*
D18*
X125800000Y-57740000D03*
X125800000Y-60280000D03*
X125800000Y-62820000D03*
%TD*%
D12*
%TO.C,H5*%
X51250000Y-110750000D03*
X51909010Y-109159010D03*
X51909010Y-112340990D03*
X53500000Y-108500000D03*
D13*
X53500000Y-110750000D03*
D12*
X53500000Y-113000000D03*
X55090990Y-109159010D03*
X55090990Y-112340990D03*
X55750000Y-110750000D03*
%TD*%
D20*
%TO.C,J7*%
X99560000Y-52300000D03*
X93780000Y-52300000D03*
D21*
X100990000Y-52800000D03*
D22*
X100990000Y-48620000D03*
D21*
X92350000Y-52800000D03*
D22*
X92350000Y-48620000D03*
%TD*%
D12*
%TO.C,H2*%
X128750000Y-49500000D03*
X129409010Y-47909010D03*
X129409010Y-51090990D03*
X131000000Y-47250000D03*
D13*
X131000000Y-49500000D03*
D12*
X131000000Y-51750000D03*
X132590990Y-47909010D03*
X132590990Y-51090990D03*
X133250000Y-49500000D03*
%TD*%
%TO.C,H3*%
X51250000Y-172000000D03*
X51909010Y-170409010D03*
X51909010Y-173590990D03*
X53500000Y-169750000D03*
D13*
X53500000Y-172000000D03*
D12*
X53500000Y-174250000D03*
X55090990Y-170409010D03*
X55090990Y-173590990D03*
X55750000Y-172000000D03*
%TD*%
D16*
%TO.C,H11*%
X62000000Y-153000000D03*
%TD*%
D12*
%TO.C,H6*%
X128750000Y-110750000D03*
X129409010Y-109159010D03*
X129409010Y-112340990D03*
X131000000Y-108500000D03*
D13*
X131000000Y-110750000D03*
D12*
X131000000Y-113000000D03*
X132590990Y-109159010D03*
X132590990Y-112340990D03*
X133250000Y-110750000D03*
%TD*%
D23*
%TO.C,C12*%
X108600000Y-75670000D03*
X108600000Y-76630000D03*
%TD*%
D24*
%TO.C,TP40*%
X69325000Y-95475000D03*
%TD*%
D25*
%TO.C,C57*%
X98825000Y-103450000D03*
X98825000Y-102490000D03*
%TD*%
%TO.C,C50*%
X97837500Y-89855000D03*
X97837500Y-88895000D03*
%TD*%
D24*
%TO.C,TP12*%
X105450000Y-52350000D03*
%TD*%
D25*
%TO.C,C113*%
X72300000Y-118780000D03*
X72300000Y-117820000D03*
%TD*%
D26*
%TO.C,C44*%
X81505000Y-58475000D03*
X80545000Y-58475000D03*
%TD*%
D25*
%TO.C,C107*%
X69590000Y-130550000D03*
X69590000Y-129590000D03*
%TD*%
D24*
%TO.C,TP51*%
X119400000Y-147600000D03*
%TD*%
D27*
%TO.C,R20*%
X97950000Y-74935000D03*
X97950000Y-73915000D03*
%TD*%
D28*
%TO.C,C18*%
X109700000Y-80500000D03*
X107800000Y-80500000D03*
%TD*%
D27*
%TO.C,R47*%
X58025000Y-109210000D03*
X58025000Y-108190000D03*
%TD*%
D29*
%TO.C,C140*%
X89800000Y-168300000D03*
X96200000Y-168300000D03*
%TD*%
D26*
%TO.C,C132*%
X112180000Y-162100000D03*
X111220000Y-162100000D03*
%TD*%
D25*
%TO.C,C129*%
X100500000Y-159660000D03*
X100500000Y-158700000D03*
%TD*%
D30*
%TO.C,U23*%
X94837500Y-145350000D03*
X94837500Y-146300000D03*
X94837500Y-147250000D03*
X92562500Y-147250000D03*
X92562500Y-145350000D03*
%TD*%
D27*
%TO.C,R37*%
X67275000Y-113710000D03*
X67275000Y-112690000D03*
%TD*%
D24*
%TO.C,TP54*%
X84600000Y-144900000D03*
%TD*%
D25*
%TO.C,C39*%
X78950000Y-53980000D03*
X78950000Y-53020000D03*
%TD*%
D24*
%TO.C,TP22*%
X127100000Y-85400000D03*
%TD*%
D31*
%TO.C,R39*%
X89790000Y-118300000D03*
X90810000Y-118300000D03*
%TD*%
D24*
%TO.C,TP53*%
X99675000Y-145425000D03*
%TD*%
D28*
%TO.C,C3*%
X104100000Y-70800000D03*
X102200000Y-70800000D03*
%TD*%
D25*
%TO.C,C94*%
X86700000Y-130980000D03*
X86700000Y-130020000D03*
%TD*%
D32*
%TO.C,C15*%
X56600000Y-63000000D03*
X56600000Y-64900000D03*
%TD*%
D25*
%TO.C,C72*%
X70850000Y-103550000D03*
X70850000Y-102590000D03*
%TD*%
D31*
%TO.C,R12*%
X103940000Y-80100000D03*
X104960000Y-80100000D03*
%TD*%
D24*
%TO.C,TP30*%
X120200000Y-55650000D03*
%TD*%
%TO.C,TP41*%
X69300000Y-93275000D03*
%TD*%
D25*
%TO.C,C131*%
X99300000Y-158660000D03*
X99300000Y-157700000D03*
%TD*%
D31*
%TO.C,R73*%
X129915000Y-137100000D03*
X130935000Y-137100000D03*
%TD*%
D24*
%TO.C,TP48*%
X86925000Y-120825000D03*
%TD*%
D27*
%TO.C,R69*%
X119350000Y-137085000D03*
X119350000Y-136065000D03*
%TD*%
D24*
%TO.C,TP34*%
X114650000Y-88825000D03*
%TD*%
D33*
%TO.C,U4*%
X126350000Y-70950000D03*
X127300000Y-70950000D03*
X128250000Y-70950000D03*
X128250000Y-73650000D03*
X126350000Y-73650000D03*
%TD*%
D23*
%TO.C,C147*%
X128680000Y-138440000D03*
X128680000Y-139400000D03*
%TD*%
D25*
%TO.C,C70*%
X81475000Y-90805000D03*
X81475000Y-89845000D03*
%TD*%
D34*
%TO.C,R49*%
X61525000Y-104977500D03*
X61525000Y-105997500D03*
%TD*%
D27*
%TO.C,R4*%
X54075000Y-61435000D03*
X54075000Y-60415000D03*
%TD*%
D23*
%TO.C,C87*%
X88200000Y-112120000D03*
X88200000Y-113080000D03*
%TD*%
D26*
%TO.C,C92*%
X101380000Y-118500000D03*
X100420000Y-118500000D03*
%TD*%
D35*
%TO.C,C35*%
X125220000Y-83400000D03*
X126180000Y-83400000D03*
%TD*%
D24*
%TO.C,TP33*%
X115050000Y-90825000D03*
%TD*%
D23*
%TO.C,C52*%
X114925000Y-103125000D03*
X114925000Y-104085000D03*
%TD*%
D24*
%TO.C,TP26*%
X129100000Y-54300000D03*
%TD*%
D36*
%TO.C,R68*%
X99810000Y-156400000D03*
X98790000Y-156400000D03*
%TD*%
D25*
%TO.C,C59*%
X97575000Y-102450000D03*
X97575000Y-101490000D03*
%TD*%
D37*
%TO.C,C28*%
X78300000Y-69850000D03*
X78300000Y-66900000D03*
%TD*%
D24*
%TO.C,TP17*%
X116400000Y-53400000D03*
%TD*%
D25*
%TO.C,C114*%
X68390000Y-127570000D03*
X68390000Y-126610000D03*
%TD*%
D38*
%TO.C,TP62*%
X65500000Y-149900000D03*
%TD*%
D24*
%TO.C,TP11*%
X116800000Y-86000000D03*
%TD*%
D39*
%TO.C,U5*%
X122975000Y-86762500D03*
X122325000Y-86762500D03*
X121675000Y-86762500D03*
X121025000Y-86762500D03*
X120375000Y-86762500D03*
X119725000Y-86762500D03*
X119075000Y-86762500D03*
X118425000Y-86762500D03*
X118425000Y-81037500D03*
X119075000Y-81037500D03*
X119725000Y-81037500D03*
X120375000Y-81037500D03*
X121025000Y-81037500D03*
X121675000Y-81037500D03*
X122325000Y-81037500D03*
X122975000Y-81037500D03*
%TD*%
D26*
%TO.C,C144*%
X71160000Y-159800000D03*
X70200000Y-159800000D03*
%TD*%
D23*
%TO.C,C111*%
X67275000Y-110495000D03*
X67275000Y-111455000D03*
%TD*%
D25*
%TO.C,C91*%
X88100000Y-132380000D03*
X88100000Y-131420000D03*
%TD*%
D30*
%TO.C,U11*%
X94775000Y-83825000D03*
X94775000Y-84775000D03*
X94775000Y-85725000D03*
X92500000Y-85725000D03*
X92500000Y-83825000D03*
%TD*%
D25*
%TO.C,C150*%
X68980000Y-157780000D03*
X68980000Y-156820000D03*
%TD*%
D34*
%TO.C,R15*%
X71425000Y-74190000D03*
X71425000Y-75210000D03*
%TD*%
D25*
%TO.C,C84*%
X97500000Y-117280000D03*
X97500000Y-116320000D03*
%TD*%
%TO.C,C67*%
X82725000Y-90805000D03*
X82725000Y-89845000D03*
%TD*%
D34*
%TO.C,R71*%
X122880000Y-132400000D03*
X122880000Y-133420000D03*
%TD*%
D24*
%TO.C,TP58*%
X68225000Y-148075000D03*
%TD*%
D34*
%TO.C,R19*%
X96325000Y-73940000D03*
X96325000Y-74960000D03*
%TD*%
D25*
%TO.C,C76*%
X73200000Y-90830000D03*
X73200000Y-89870000D03*
%TD*%
D27*
%TO.C,R16*%
X72700000Y-75210000D03*
X72700000Y-74190000D03*
%TD*%
D24*
%TO.C,TP29*%
X120200000Y-57700000D03*
%TD*%
D25*
%TO.C,C108*%
X68390000Y-129550000D03*
X68390000Y-128590000D03*
%TD*%
D24*
%TO.C,TP10*%
X105050000Y-63050000D03*
%TD*%
D23*
%TO.C,C88*%
X88000000Y-117320000D03*
X88000000Y-118280000D03*
%TD*%
D27*
%TO.C,R11*%
X103950000Y-82460000D03*
X103950000Y-81440000D03*
%TD*%
D23*
%TO.C,C126*%
X88000000Y-140520000D03*
X88000000Y-141480000D03*
%TD*%
%TO.C,C66*%
X86350000Y-100735000D03*
X86350000Y-101695000D03*
%TD*%
D35*
%TO.C,C112*%
X58995000Y-111500000D03*
X59955000Y-111500000D03*
%TD*%
D36*
%TO.C,R26*%
X92785000Y-70350000D03*
X91765000Y-70350000D03*
%TD*%
D38*
%TO.C,TP60*%
X65500000Y-155600000D03*
%TD*%
D26*
%TO.C,C19*%
X119852050Y-78760200D03*
X118892050Y-78760200D03*
%TD*%
D23*
%TO.C,C69*%
X87600000Y-101775000D03*
X87600000Y-102735000D03*
%TD*%
D34*
%TO.C,R54*%
X67250000Y-108190000D03*
X67250000Y-109210000D03*
%TD*%
D40*
%TO.C,C8*%
X62200000Y-60400000D03*
X65150000Y-60400000D03*
%TD*%
D23*
%TO.C,C97*%
X84700000Y-136870000D03*
X84700000Y-137830000D03*
%TD*%
D41*
%TO.C,FID2*%
X53800000Y-166825000D03*
%TD*%
D23*
%TO.C,C149*%
X69350000Y-145695000D03*
X69350000Y-146655000D03*
%TD*%
D26*
%TO.C,C124*%
X103580000Y-160700000D03*
X102620000Y-160700000D03*
%TD*%
D31*
%TO.C,R38*%
X89990000Y-113100000D03*
X91010000Y-113100000D03*
%TD*%
D26*
%TO.C,C26*%
X72680000Y-76450000D03*
X71720000Y-76450000D03*
%TD*%
%TO.C,C118*%
X112880000Y-146800000D03*
X111920000Y-146800000D03*
%TD*%
%TO.C,C138*%
X85180000Y-160620000D03*
X84220000Y-160620000D03*
%TD*%
D25*
%TO.C,C60*%
X86125000Y-109880000D03*
X86125000Y-108920000D03*
%TD*%
D23*
%TO.C,C100*%
X99650000Y-129015000D03*
X99650000Y-129975000D03*
%TD*%
D24*
%TO.C,TP2*%
X120722050Y-73360200D03*
%TD*%
D39*
%TO.C,U21*%
X126730000Y-141762500D03*
X126080000Y-141762500D03*
X125430000Y-141762500D03*
X124780000Y-141762500D03*
X124130000Y-141762500D03*
X123480000Y-141762500D03*
X122830000Y-141762500D03*
X122830000Y-136037500D03*
X123480000Y-136037500D03*
X124130000Y-136037500D03*
X124780000Y-136037500D03*
X125430000Y-136037500D03*
X126080000Y-136037500D03*
X126730000Y-136037500D03*
%TD*%
%TO.C,U15*%
X65375000Y-113850000D03*
X64725000Y-113850000D03*
X64075000Y-113850000D03*
X63425000Y-113850000D03*
X62775000Y-113850000D03*
X62125000Y-113850000D03*
X61475000Y-113850000D03*
X61475000Y-108125000D03*
X62125000Y-108125000D03*
X62775000Y-108125000D03*
X63425000Y-108125000D03*
X64075000Y-108125000D03*
X64725000Y-108125000D03*
X65375000Y-108125000D03*
%TD*%
D24*
%TO.C,TP7*%
X129500000Y-88600000D03*
%TD*%
D42*
%TO.C,U2*%
X117044100Y-77300000D03*
X117044100Y-76360200D03*
X117044100Y-75420400D03*
X119800000Y-75420400D03*
X119800000Y-77300000D03*
%TD*%
D26*
%TO.C,C142*%
X112280000Y-144500000D03*
X111320000Y-144500000D03*
%TD*%
D24*
%TO.C,TP39*%
X84500000Y-91450000D03*
%TD*%
D23*
%TO.C,C63*%
X84625000Y-108920000D03*
X84625000Y-109880000D03*
%TD*%
D35*
%TO.C,C130*%
X73220000Y-162500000D03*
X74180000Y-162500000D03*
%TD*%
D36*
%TO.C,R3*%
X63610000Y-89900000D03*
X62590000Y-89900000D03*
%TD*%
D23*
%TO.C,C125*%
X88300000Y-145720000D03*
X88300000Y-146680000D03*
%TD*%
D31*
%TO.C,R30*%
X89227500Y-86075000D03*
X90247500Y-86075000D03*
%TD*%
D23*
%TO.C,C133*%
X86500000Y-157320000D03*
X86500000Y-158280000D03*
%TD*%
D26*
%TO.C,C143*%
X73160000Y-159800000D03*
X72200000Y-159800000D03*
%TD*%
D23*
%TO.C,C116*%
X115900000Y-157140000D03*
X115900000Y-158100000D03*
%TD*%
D35*
%TO.C,C81*%
X114220000Y-118500000D03*
X115180000Y-118500000D03*
%TD*%
D26*
%TO.C,C83*%
X112980000Y-118500000D03*
X112020000Y-118500000D03*
%TD*%
D31*
%TO.C,R23*%
X93850000Y-50300000D03*
X94870000Y-50300000D03*
%TD*%
D24*
%TO.C,TP52*%
X117900000Y-146100000D03*
%TD*%
D35*
%TO.C,C137*%
X111220000Y-163500000D03*
X112180000Y-163500000D03*
%TD*%
D24*
%TO.C,TP37*%
X101925000Y-92025000D03*
%TD*%
D17*
%TO.C,J3*%
X54450000Y-98970000D03*
D18*
X56990000Y-98970000D03*
X54450000Y-96430000D03*
X56990000Y-96430000D03*
X54450000Y-93890000D03*
X56990000Y-93890000D03*
X54450000Y-91350000D03*
X56990000Y-91350000D03*
X54450000Y-88810000D03*
X56990000Y-88810000D03*
%TD*%
D43*
%TO.C,C41*%
X90725000Y-77475000D03*
X85325000Y-77475000D03*
%TD*%
D24*
%TO.C,TP49*%
X92475000Y-120725000D03*
%TD*%
D27*
%TO.C,R28*%
X118050000Y-97660000D03*
X118050000Y-96640000D03*
%TD*%
D41*
%TO.C,FID8*%
X126375000Y-47850000D03*
%TD*%
D34*
%TO.C,R75*%
X126630000Y-132400000D03*
X126630000Y-133420000D03*
%TD*%
D29*
%TO.C,C68*%
X89400000Y-107700000D03*
X95800000Y-107700000D03*
%TD*%
D24*
%TO.C,TP3*%
X110200000Y-85350000D03*
%TD*%
D23*
%TO.C,C17*%
X57375000Y-68470000D03*
X57375000Y-69430000D03*
%TD*%
D44*
%TO.C,U1*%
X107150000Y-78237500D03*
X106200000Y-78237500D03*
X105250000Y-78237500D03*
X105250000Y-75962500D03*
X106200000Y-75962500D03*
X107150000Y-75962500D03*
%TD*%
D25*
%TO.C,C96*%
X88125000Y-130330000D03*
X88125000Y-129370000D03*
%TD*%
D23*
%TO.C,C45*%
X116000000Y-99950000D03*
X116000000Y-100910000D03*
%TD*%
D27*
%TO.C,R59*%
X128850000Y-141760000D03*
X128850000Y-140740000D03*
%TD*%
D25*
%TO.C,C109*%
X69590000Y-128550000D03*
X69590000Y-127590000D03*
%TD*%
D38*
%TO.C,TP63*%
X64725000Y-146500000D03*
%TD*%
D26*
%TO.C,C99*%
X102155000Y-136525000D03*
X101195000Y-136525000D03*
%TD*%
D40*
%TO.C,C4*%
X62175000Y-66925000D03*
X65125000Y-66925000D03*
%TD*%
D34*
%TO.C,R48*%
X62825000Y-104990000D03*
X62825000Y-106010000D03*
%TD*%
D25*
%TO.C,C145*%
X70180000Y-158680000D03*
X70180000Y-157720000D03*
%TD*%
D23*
%TO.C,C64*%
X87600000Y-99775000D03*
X87600000Y-100735000D03*
%TD*%
D27*
%TO.C,R7*%
X54075000Y-58710000D03*
X54075000Y-57690000D03*
%TD*%
D35*
%TO.C,C106*%
X76820000Y-116550000D03*
X77780000Y-116550000D03*
%TD*%
D41*
%TO.C,FID6*%
X55626000Y-53340000D03*
%TD*%
D24*
%TO.C,TP38*%
X86150000Y-92925000D03*
%TD*%
D27*
%TO.C,R62*%
X122880000Y-145400000D03*
X122880000Y-144380000D03*
%TD*%
D45*
%TO.C,U14*%
X122450000Y-105250000D03*
X120150000Y-105250000D03*
X120150000Y-103350000D03*
X122450000Y-103350000D03*
%TD*%
D34*
%TO.C,R34*%
X68750000Y-112690000D03*
X68750000Y-113710000D03*
%TD*%
D24*
%TO.C,TP14*%
X106300000Y-56550000D03*
%TD*%
D25*
%TO.C,C51*%
X96837500Y-84755000D03*
X96837500Y-83795000D03*
%TD*%
D27*
%TO.C,R61*%
X124130000Y-145400000D03*
X124130000Y-144380000D03*
%TD*%
D28*
%TO.C,C20*%
X109700000Y-82700000D03*
X107800000Y-82700000D03*
%TD*%
D27*
%TO.C,R51*%
X68750000Y-109210000D03*
X68750000Y-108190000D03*
%TD*%
D24*
%TO.C,TP16*%
X112250000Y-54100000D03*
%TD*%
D25*
%TO.C,C55*%
X104600000Y-90805000D03*
X104600000Y-89845000D03*
%TD*%
D36*
%TO.C,R22*%
X98970000Y-50300000D03*
X97950000Y-50300000D03*
%TD*%
%TO.C,R32*%
X90247500Y-83775000D03*
X89227500Y-83775000D03*
%TD*%
D30*
%TO.C,U16*%
X95437500Y-111150000D03*
X95437500Y-112100000D03*
X95437500Y-113050000D03*
X93162500Y-113050000D03*
X93162500Y-111150000D03*
%TD*%
D25*
%TO.C,C122*%
X96900000Y-140980000D03*
X96900000Y-140020000D03*
%TD*%
D35*
%TO.C,C117*%
X114020000Y-146800000D03*
X114980000Y-146800000D03*
%TD*%
D31*
%TO.C,R31*%
X90827500Y-89075000D03*
X91847500Y-89075000D03*
%TD*%
D46*
%TO.C,C31*%
X108250000Y-49100000D03*
X110150000Y-49100000D03*
%TD*%
D24*
%TO.C,TP36*%
X101237500Y-85175000D03*
%TD*%
D34*
%TO.C,R55*%
X70250000Y-106265000D03*
X70250000Y-107285000D03*
%TD*%
D24*
%TO.C,TP43*%
X119600000Y-118700000D03*
%TD*%
D25*
%TO.C,C48*%
X111425000Y-90805000D03*
X111425000Y-89845000D03*
%TD*%
D24*
%TO.C,TP31*%
X131000000Y-66100000D03*
%TD*%
%TO.C,TP47*%
X98725000Y-122050000D03*
%TD*%
D25*
%TO.C,C78*%
X69700000Y-100505000D03*
X69700000Y-99545000D03*
%TD*%
D30*
%TO.C,U24*%
X94937500Y-140050000D03*
X94937500Y-141000000D03*
X94937500Y-141950000D03*
X92662500Y-141950000D03*
X92662500Y-140050000D03*
%TD*%
D31*
%TO.C,R21*%
X116090000Y-80500000D03*
X117110000Y-80500000D03*
%TD*%
D24*
%TO.C,TP23*%
X116800000Y-83950000D03*
%TD*%
D25*
%TO.C,C102*%
X83550000Y-118830000D03*
X83550000Y-117870000D03*
%TD*%
D35*
%TO.C,C90*%
X86020000Y-132300000D03*
X86980000Y-132300000D03*
%TD*%
D25*
%TO.C,C110*%
X73500000Y-118780000D03*
X73500000Y-117820000D03*
%TD*%
D45*
%TO.C,U19*%
X75150000Y-115750000D03*
X72850000Y-115750000D03*
X72850000Y-113850000D03*
X75150000Y-113850000D03*
%TD*%
D41*
%TO.C,FID4*%
X130350000Y-166550000D03*
%TD*%
D34*
%TO.C,R52*%
X64125000Y-104977500D03*
X64125000Y-105997500D03*
%TD*%
%TO.C,R72*%
X120625000Y-136065000D03*
X120625000Y-137085000D03*
%TD*%
D27*
%TO.C,R58*%
X126630000Y-145400000D03*
X126630000Y-144380000D03*
%TD*%
D34*
%TO.C,R56*%
X130050000Y-140740000D03*
X130050000Y-141760000D03*
%TD*%
D25*
%TO.C,C61*%
X98825000Y-101450000D03*
X98825000Y-100490000D03*
%TD*%
D35*
%TO.C,C146*%
X72520000Y-146150000D03*
X73480000Y-146150000D03*
%TD*%
D24*
%TO.C,TP20*%
X112800000Y-48800000D03*
%TD*%
D25*
%TO.C,C77*%
X70900000Y-101475000D03*
X70900000Y-100515000D03*
%TD*%
D24*
%TO.C,TP19*%
X103650000Y-61200000D03*
%TD*%
D31*
%TO.C,R64*%
X89690000Y-142200000D03*
X90710000Y-142200000D03*
%TD*%
D26*
%TO.C,C127*%
X101480000Y-160700000D03*
X100520000Y-160700000D03*
%TD*%
D24*
%TO.C,TP18*%
X105050000Y-65100000D03*
%TD*%
%TO.C,TP55*%
X101200000Y-141300000D03*
%TD*%
D25*
%TO.C,C47*%
X112625000Y-90805000D03*
X112625000Y-89845000D03*
%TD*%
D23*
%TO.C,C54*%
X87337500Y-83995000D03*
X87337500Y-84955000D03*
%TD*%
D24*
%TO.C,TP45*%
X101800000Y-114400000D03*
%TD*%
%TO.C,TP46*%
X85850000Y-117000000D03*
%TD*%
%TO.C,TP24*%
X118200000Y-47700000D03*
%TD*%
D23*
%TO.C,C79*%
X117000000Y-128300000D03*
X117000000Y-129260000D03*
%TD*%
%TO.C,C135*%
X85200000Y-158340000D03*
X85200000Y-159300000D03*
%TD*%
D36*
%TO.C,R40*%
X91010000Y-111200000D03*
X89990000Y-111200000D03*
%TD*%
D24*
%TO.C,TP35*%
X88187500Y-88715000D03*
%TD*%
D27*
%TO.C,R43*%
X62775000Y-117700000D03*
X62775000Y-116680000D03*
%TD*%
D26*
%TO.C,C43*%
X86655000Y-70550000D03*
X85695000Y-70550000D03*
%TD*%
D23*
%TO.C,C85*%
X115900000Y-131220000D03*
X115900000Y-132180000D03*
%TD*%
D25*
%TO.C,C121*%
X96900000Y-146280000D03*
X96900000Y-145320000D03*
%TD*%
D24*
%TO.C,TP50*%
X69475000Y-116875000D03*
%TD*%
D25*
%TO.C,C58*%
X103375000Y-90830000D03*
X103375000Y-89870000D03*
%TD*%
D26*
%TO.C,C141*%
X82780000Y-160600000D03*
X81820000Y-160600000D03*
%TD*%
D24*
%TO.C,TP15*%
X103900000Y-56550000D03*
%TD*%
D23*
%TO.C,C105*%
X99650000Y-131015000D03*
X99650000Y-131975000D03*
%TD*%
D27*
%TO.C,R36*%
X65275000Y-117700000D03*
X65275000Y-116680000D03*
%TD*%
D35*
%TO.C,C62*%
X100820000Y-106750000D03*
X101780000Y-106750000D03*
%TD*%
D36*
%TO.C,R66*%
X90810000Y-139700000D03*
X89790000Y-139700000D03*
%TD*%
D34*
%TO.C,R76*%
X128675000Y-136065000D03*
X128675000Y-137085000D03*
%TD*%
D23*
%TO.C,C148*%
X121030000Y-138420000D03*
X121030000Y-139380000D03*
%TD*%
D27*
%TO.C,R10*%
X53475000Y-74260000D03*
X53475000Y-73240000D03*
%TD*%
D30*
%TO.C,U10*%
X96075000Y-88825000D03*
X96075000Y-89775000D03*
X96075000Y-90725000D03*
X93800000Y-90725000D03*
X93800000Y-88825000D03*
%TD*%
D24*
%TO.C,TP28*%
X120200000Y-59750000D03*
%TD*%
D47*
%TO.C,U26*%
X114250000Y-144650000D03*
X114250000Y-142350000D03*
X116150000Y-142350000D03*
X116150000Y-144650000D03*
%TD*%
D27*
%TO.C,R33*%
X100000000Y-100510000D03*
X100000000Y-99490000D03*
%TD*%
D25*
%TO.C,C25*%
X124100000Y-75380000D03*
X124100000Y-74420000D03*
%TD*%
D26*
%TO.C,C134*%
X74180000Y-163800000D03*
X73220000Y-163800000D03*
%TD*%
D36*
%TO.C,R2*%
X63635000Y-87425000D03*
X62615000Y-87425000D03*
%TD*%
D31*
%TO.C,R41*%
X89790000Y-116000000D03*
X90810000Y-116000000D03*
%TD*%
D25*
%TO.C,C56*%
X97575000Y-104450000D03*
X97575000Y-103490000D03*
%TD*%
D23*
%TO.C,C103*%
X98550000Y-130015000D03*
X98550000Y-130975000D03*
%TD*%
%TO.C,C46*%
X114925000Y-100925000D03*
X114925000Y-101885000D03*
%TD*%
%TO.C,C115*%
X117100000Y-156140000D03*
X117100000Y-157100000D03*
%TD*%
D24*
%TO.C,TP56*%
X86475000Y-150625000D03*
%TD*%
D25*
%TO.C,C104*%
X82100000Y-118855000D03*
X82100000Y-117895000D03*
%TD*%
D24*
%TO.C,TP42*%
X116200000Y-136625000D03*
%TD*%
D25*
%TO.C,C75*%
X69700000Y-102600000D03*
X69700000Y-101640000D03*
%TD*%
D23*
%TO.C,C53*%
X89437500Y-89795000D03*
X89437500Y-90755000D03*
%TD*%
D34*
%TO.C,R74*%
X125380000Y-132400000D03*
X125380000Y-133420000D03*
%TD*%
D24*
%TO.C,TP25*%
X126450000Y-51225000D03*
%TD*%
D30*
%TO.C,U17*%
X95537500Y-116350000D03*
X95537500Y-117300000D03*
X95537500Y-118250000D03*
X93262500Y-118250000D03*
X93262500Y-116350000D03*
%TD*%
D34*
%TO.C,R77*%
X128600000Y-130290000D03*
X128600000Y-131310000D03*
%TD*%
D40*
%TO.C,C7*%
X62225000Y-63600000D03*
X65175000Y-63600000D03*
%TD*%
D38*
%TO.C,TP59*%
X64700000Y-159100000D03*
%TD*%
D34*
%TO.C,R50*%
X59250000Y-108190000D03*
X59250000Y-109210000D03*
%TD*%
D31*
%TO.C,R63*%
X89690000Y-147400000D03*
X90710000Y-147400000D03*
%TD*%
D27*
%TO.C,R5*%
X53225000Y-76535000D03*
X53225000Y-75515000D03*
%TD*%
D25*
%TO.C,C74*%
X74450000Y-90830000D03*
X74450000Y-89870000D03*
%TD*%
D35*
%TO.C,C89*%
X103120000Y-118500000D03*
X104080000Y-118500000D03*
%TD*%
%TO.C,C33*%
X108220000Y-50900000D03*
X109180000Y-50900000D03*
%TD*%
D25*
%TO.C,C93*%
X86100000Y-137825000D03*
X86100000Y-136865000D03*
%TD*%
D34*
%TO.C,R42*%
X58050000Y-112690000D03*
X58050000Y-113710000D03*
%TD*%
D23*
%TO.C,C98*%
X98550000Y-128015000D03*
X98550000Y-128975000D03*
%TD*%
D43*
%TO.C,C42*%
X88300000Y-65500000D03*
X82900000Y-65500000D03*
%TD*%
D35*
%TO.C,C123*%
X103220000Y-146800000D03*
X104180000Y-146800000D03*
%TD*%
D48*
%TO.C,L1*%
X111950000Y-74415000D03*
X111950000Y-77485000D03*
%TD*%
D24*
%TO.C,TP13*%
X105400000Y-54400000D03*
%TD*%
D31*
%TO.C,R29*%
X90827500Y-90775000D03*
X91847500Y-90775000D03*
%TD*%
%TO.C,R65*%
X89990000Y-145000000D03*
X91010000Y-145000000D03*
%TD*%
D23*
%TO.C,C11*%
X115272050Y-77330200D03*
X115272050Y-78290200D03*
%TD*%
D49*
%TO.C,C6*%
X102225000Y-75000000D03*
X103775000Y-75000000D03*
%TD*%
D24*
%TO.C,TP44*%
X119600000Y-116600000D03*
%TD*%
D34*
%TO.C,R60*%
X119200000Y-140715000D03*
X119200000Y-141735000D03*
%TD*%
%TO.C,R6*%
X55275000Y-57690000D03*
X55275000Y-58710000D03*
%TD*%
D24*
%TO.C,TP4*%
X130100000Y-75400000D03*
%TD*%
D26*
%TO.C,C139*%
X82880000Y-146600000D03*
X81920000Y-146600000D03*
%TD*%
D23*
%TO.C,C71*%
X86350000Y-102775000D03*
X86350000Y-103735000D03*
%TD*%
D27*
%TO.C,R67*%
X120550000Y-141735000D03*
X120550000Y-140715000D03*
%TD*%
D36*
%TO.C,R1*%
X63635000Y-88675000D03*
X62615000Y-88675000D03*
%TD*%
%TO.C,R46*%
X99560000Y-120525000D03*
X98540000Y-120525000D03*
%TD*%
D26*
%TO.C,C128*%
X101580000Y-146800000D03*
X100620000Y-146800000D03*
%TD*%
D38*
%TO.C,TP61*%
X68300000Y-153200000D03*
%TD*%
D24*
%TO.C,TP21*%
X112800000Y-50900000D03*
%TD*%
D27*
%TO.C,R57*%
X125380000Y-145400000D03*
X125380000Y-144380000D03*
%TD*%
D37*
%TO.C,C29*%
X74750000Y-69825000D03*
X74750000Y-66875000D03*
%TD*%
D23*
%TO.C,C119*%
X115900000Y-159340000D03*
X115900000Y-160300000D03*
%TD*%
%TO.C,C80*%
X115900000Y-129300000D03*
X115900000Y-130260000D03*
%TD*%
D26*
%TO.C,C120*%
X114600000Y-159820000D03*
X113640000Y-159820000D03*
%TD*%
D24*
%TO.C,TP9*%
X129400000Y-93200000D03*
%TD*%
%TO.C,TP27*%
X120200000Y-61800000D03*
%TD*%
%TO.C,TP8*%
X129500000Y-90900000D03*
%TD*%
D26*
%TO.C,C34*%
X126180000Y-81100000D03*
X125220000Y-81100000D03*
%TD*%
D28*
%TO.C,C1*%
X104100000Y-72900000D03*
X102200000Y-72900000D03*
%TD*%
D27*
%TO.C,R45*%
X59275000Y-113720000D03*
X59275000Y-112700000D03*
%TD*%
D34*
%TO.C,R70*%
X124130000Y-132400000D03*
X124130000Y-133420000D03*
%TD*%
D24*
%TO.C,TP57*%
X88350000Y-149600000D03*
%TD*%
D34*
%TO.C,R35*%
X64025000Y-116690000D03*
X64025000Y-117710000D03*
%TD*%
D29*
%TO.C,C101*%
X89800000Y-135700000D03*
X96200000Y-135700000D03*
%TD*%
D23*
%TO.C,C49*%
X116000000Y-102150000D03*
X116000000Y-103110000D03*
%TD*%
D26*
%TO.C,C65*%
X101780000Y-108450000D03*
X100820000Y-108450000D03*
%TD*%
D34*
%TO.C,R53*%
X65375000Y-104977500D03*
X65375000Y-105997500D03*
%TD*%
D35*
%TO.C,C95*%
X101195000Y-135050000D03*
X102155000Y-135050000D03*
%TD*%
D43*
%TO.C,C30*%
X73700000Y-83250000D03*
X68100000Y-83250000D03*
%TD*%
D26*
%TO.C,C86*%
X114580000Y-131700000D03*
X113620000Y-131700000D03*
%TD*%
D27*
%TO.C,R44*%
X61525000Y-117700000D03*
X61525000Y-116680000D03*
%TD*%
D35*
%TO.C,C21*%
X126320000Y-67800000D03*
X127280000Y-67800000D03*
%TD*%
D23*
%TO.C,C136*%
X86500000Y-145695000D03*
X86500000Y-146655000D03*
%TD*%
D25*
%TO.C,C82*%
X97500000Y-112080000D03*
X97500000Y-111120000D03*
%TD*%
D31*
%TO.C,R27*%
X89840000Y-63025000D03*
X90860000Y-63025000D03*
%TD*%
D35*
%TO.C,C73*%
X122520000Y-102000000D03*
X123480000Y-102000000D03*
%TD*%
M02*
