%TF.GenerationSoftware,KiCad,Pcbnew,7.0.7*%
%TF.CreationDate,2024-01-07T22:37:51-07:00*%
%TF.ProjectId,bitaxeHex,62697461-7865-4486-9578-2e6b69636164,302*%
%TF.SameCoordinates,Original*%
%TF.FileFunction,Soldermask,Bot*%
%TF.FilePolarity,Negative*%
%FSLAX46Y46*%
G04 Gerber Fmt 4.6, Leading zero omitted, Abs format (unit mm)*
G04 Created by KiCad (PCBNEW 7.0.7) date 2024-01-07 22:37:51*
%MOMM*%
%LPD*%
G01*
G04 APERTURE LIST*
G04 Aperture macros list*
%AMRoundRect*
0 Rectangle with rounded corners*
0 $1 Rounding radius*
0 $2 $3 $4 $5 $6 $7 $8 $9 X,Y pos of 4 corners*
0 Add a 4 corners polygon primitive as box body*
4,1,4,$2,$3,$4,$5,$6,$7,$8,$9,$2,$3,0*
0 Add four circle primitives for the rounded corners*
1,1,$1+$1,$2,$3*
1,1,$1+$1,$4,$5*
1,1,$1+$1,$6,$7*
1,1,$1+$1,$8,$9*
0 Add four rect primitives between the rounded corners*
20,1,$1+$1,$2,$3,$4,$5,0*
20,1,$1+$1,$4,$5,$6,$7,0*
20,1,$1+$1,$6,$7,$8,$9,0*
20,1,$1+$1,$8,$9,$2,$3,0*%
G04 Aperture macros list end*
%ADD10C,0.990600*%
%ADD11C,3.200000*%
%ADD12C,0.800000*%
%ADD13C,6.000000*%
%ADD14C,1.295400*%
%ADD15C,1.574800*%
%ADD16C,5.000000*%
%ADD17C,0.400000*%
%ADD18R,1.700000X1.700000*%
%ADD19O,1.700000X1.700000*%
%ADD20C,0.650000*%
%ADD21O,1.000000X2.100000*%
%ADD22O,1.000000X1.800000*%
%ADD23RoundRect,0.140000X-0.170000X0.140000X-0.170000X-0.140000X0.170000X-0.140000X0.170000X0.140000X0*%
%ADD24RoundRect,0.135000X0.135000X0.185000X-0.135000X0.185000X-0.135000X-0.185000X0.135000X-0.185000X0*%
%ADD25RoundRect,0.140000X0.170000X-0.140000X0.170000X0.140000X-0.170000X0.140000X-0.170000X-0.140000X0*%
%ADD26RoundRect,0.140000X0.140000X0.170000X-0.140000X0.170000X-0.140000X-0.170000X0.140000X-0.170000X0*%
%ADD27C,1.000000*%
%ADD28RoundRect,0.135000X0.185000X-0.135000X0.185000X0.135000X-0.185000X0.135000X-0.185000X-0.135000X0*%
%ADD29RoundRect,0.250000X0.250000X0.475000X-0.250000X0.475000X-0.250000X-0.475000X0.250000X-0.475000X0*%
%ADD30RoundRect,0.135000X-0.185000X0.135000X-0.185000X-0.135000X0.185000X-0.135000X0.185000X0.135000X0*%
%ADD31RoundRect,0.250000X-0.875000X-1.025000X0.875000X-1.025000X0.875000X1.025000X-0.875000X1.025000X0*%
%ADD32RoundRect,0.150000X0.512500X0.150000X-0.512500X0.150000X-0.512500X-0.150000X0.512500X-0.150000X0*%
%ADD33RoundRect,0.135000X-0.135000X-0.185000X0.135000X-0.185000X0.135000X0.185000X-0.135000X0.185000X0*%
%ADD34RoundRect,0.250000X-0.475000X0.250000X-0.475000X-0.250000X0.475000X-0.250000X0.475000X0.250000X0*%
%ADD35R,0.650000X1.560000*%
%ADD36RoundRect,0.140000X-0.140000X-0.170000X0.140000X-0.170000X0.140000X0.170000X-0.140000X0.170000X0*%
%ADD37RoundRect,0.250000X1.100000X-0.325000X1.100000X0.325000X-1.100000X0.325000X-1.100000X-0.325000X0*%
%ADD38C,1.500000*%
%ADD39RoundRect,0.100000X0.100000X-0.637500X0.100000X0.637500X-0.100000X0.637500X-0.100000X-0.637500X0*%
%ADD40RoundRect,0.250000X-0.325000X-1.100000X0.325000X-1.100000X0.325000X1.100000X-0.325000X1.100000X0*%
%ADD41C,2.000000*%
%ADD42R,0.558800X0.952500*%
%ADD43RoundRect,0.250000X1.500000X0.550000X-1.500000X0.550000X-1.500000X-0.550000X1.500000X-0.550000X0*%
%ADD44RoundRect,0.150000X0.150000X-0.512500X0.150000X0.512500X-0.150000X0.512500X-0.150000X-0.512500X0*%
%ADD45R,1.300000X1.100000*%
%ADD46RoundRect,0.250000X-0.362500X-1.425000X0.362500X-1.425000X0.362500X1.425000X-0.362500X1.425000X0*%
%ADD47RoundRect,0.250000X-0.250000X-0.475000X0.250000X-0.475000X0.250000X0.475000X-0.250000X0.475000X0*%
%ADD48RoundRect,0.250000X1.425000X-0.362500X1.425000X0.362500X-1.425000X0.362500X-1.425000X-0.362500X0*%
%ADD49RoundRect,0.250000X0.362500X1.425000X-0.362500X1.425000X-0.362500X-1.425000X0.362500X-1.425000X0*%
%ADD50R,1.100000X1.300000*%
%ADD51R,3.700000X1.680000*%
%ADD52RoundRect,0.225000X-0.225000X-0.250000X0.225000X-0.250000X0.225000X0.250000X-0.225000X0.250000X0*%
G04 APERTURE END LIST*
D10*
%TO.C,J6*%
X129900000Y-57360000D03*
X130916000Y-62440000D03*
X128884000Y-62440000D03*
%TD*%
D11*
%TO.C,J2*%
X74000000Y-56725000D03*
X74000000Y-49725000D03*
X69000000Y-56725000D03*
X69000000Y-49725000D03*
%TD*%
D12*
%TO.C,H1*%
X51250000Y-49500000D03*
X51909010Y-47909010D03*
X51909010Y-51090990D03*
X53500000Y-47250000D03*
D13*
X53500000Y-49500000D03*
D12*
X53500000Y-51750000D03*
X55090990Y-47909010D03*
X55090990Y-51090990D03*
X55750000Y-49500000D03*
%TD*%
D11*
%TO.C,J1*%
X64275000Y-56725000D03*
X64275000Y-49725000D03*
X59275000Y-56725000D03*
X59275000Y-49725000D03*
%TD*%
D14*
%TO.C,J8*%
X87580000Y-58464999D03*
D15*
X82500000Y-60625000D03*
X85040000Y-60625000D03*
X87580000Y-60625000D03*
X90120000Y-60625000D03*
%TD*%
D12*
%TO.C,SW2*%
X78225000Y-46725000D03*
X82275000Y-46725000D03*
%TD*%
%TO.C,H4*%
X128750000Y-172000000D03*
X129409010Y-170409010D03*
X129409010Y-173590990D03*
X131000000Y-169750000D03*
D13*
X131000000Y-172000000D03*
D12*
X131000000Y-174250000D03*
X132590990Y-170409010D03*
X132590990Y-173590990D03*
X133250000Y-172000000D03*
%TD*%
D14*
%TO.C,J9*%
X89990000Y-70214999D03*
D15*
X84910000Y-72375000D03*
X87450000Y-72375000D03*
X89990000Y-72375000D03*
X92530000Y-72375000D03*
%TD*%
D16*
%TO.C,H8*%
X122500000Y-125000000D03*
%TD*%
%TO.C,H7*%
X62000000Y-125000000D03*
%TD*%
D17*
%TO.C,U3*%
X57000000Y-73030000D03*
X58400000Y-73030000D03*
X59800000Y-73030000D03*
X56000000Y-71750000D03*
X57000000Y-71750000D03*
X58400000Y-71750000D03*
X59800000Y-71750000D03*
X60800000Y-71750000D03*
X57000000Y-70470000D03*
X58400000Y-70470000D03*
X59800000Y-70470000D03*
%TD*%
D16*
%TO.C,H10*%
X122500000Y-153000000D03*
%TD*%
%TO.C,H6*%
X122500000Y-97000000D03*
%TD*%
%TO.C,H5*%
X62000000Y-97000000D03*
%TD*%
D18*
%TO.C,J5*%
X125800000Y-55200000D03*
D19*
X125800000Y-57740000D03*
X125800000Y-60280000D03*
X125800000Y-62820000D03*
%TD*%
D20*
%TO.C,J7*%
X99560000Y-52300000D03*
X93780000Y-52300000D03*
D21*
X100990000Y-52800000D03*
D22*
X100990000Y-48620000D03*
D21*
X92350000Y-52800000D03*
D22*
X92350000Y-48620000D03*
%TD*%
D12*
%TO.C,SW1*%
X85325000Y-46750000D03*
X89375000Y-46750000D03*
%TD*%
%TO.C,H2*%
X128750000Y-49500000D03*
X129409010Y-47909010D03*
X129409010Y-51090990D03*
X131000000Y-47250000D03*
D13*
X131000000Y-49500000D03*
D12*
X131000000Y-51750000D03*
X132590990Y-47909010D03*
X132590990Y-51090990D03*
X133250000Y-49500000D03*
%TD*%
%TO.C,H3*%
X51250000Y-172000000D03*
X51909010Y-170409010D03*
X51909010Y-173590990D03*
X53500000Y-169750000D03*
D13*
X53500000Y-172000000D03*
D12*
X53500000Y-174250000D03*
X55090990Y-170409010D03*
X55090990Y-173590990D03*
X55750000Y-172000000D03*
%TD*%
D16*
%TO.C,H9*%
X62000000Y-153000000D03*
%TD*%
D23*
%TO.C,C12*%
X108600000Y-75670000D03*
X108600000Y-76630000D03*
%TD*%
D24*
%TO.C,R42*%
X70010000Y-99500000D03*
X68990000Y-99500000D03*
%TD*%
D25*
%TO.C,C57*%
X98250000Y-103730000D03*
X98250000Y-102770000D03*
%TD*%
%TO.C,C49*%
X97800000Y-91380000D03*
X97800000Y-90420000D03*
%TD*%
D26*
%TO.C,C117*%
X71680000Y-118000000D03*
X70720000Y-118000000D03*
%TD*%
%TO.C,C44*%
X83505000Y-58650000D03*
X82545000Y-58650000D03*
%TD*%
D25*
%TO.C,C111*%
X69400000Y-131580000D03*
X69400000Y-130620000D03*
%TD*%
D27*
%TO.C,TP50*%
X119400000Y-147600000D03*
%TD*%
D28*
%TO.C,R20*%
X97950000Y-74935000D03*
X97950000Y-73915000D03*
%TD*%
D29*
%TO.C,C19*%
X109700000Y-80500000D03*
X107800000Y-80500000D03*
%TD*%
D30*
%TO.C,R66*%
X53600000Y-109290000D03*
X53600000Y-110310000D03*
%TD*%
D31*
%TO.C,C147*%
X89800000Y-168300000D03*
X96200000Y-168300000D03*
%TD*%
D26*
%TO.C,C138*%
X112180000Y-162100000D03*
X111220000Y-162100000D03*
%TD*%
D25*
%TO.C,C135*%
X100500000Y-159660000D03*
X100500000Y-158700000D03*
%TD*%
D32*
%TO.C,U23*%
X94837500Y-145350000D03*
X94837500Y-146300000D03*
X94837500Y-147250000D03*
X92562500Y-147250000D03*
X92562500Y-145350000D03*
%TD*%
D28*
%TO.C,R52*%
X65630000Y-114130000D03*
X65630000Y-113110000D03*
%TD*%
D27*
%TO.C,TP52*%
X84600000Y-144900000D03*
%TD*%
D26*
%TO.C,C39*%
X80530000Y-52175000D03*
X79570000Y-52175000D03*
%TD*%
D27*
%TO.C,TP16*%
X127100000Y-85400000D03*
%TD*%
D33*
%TO.C,R55*%
X89790000Y-118300000D03*
X90810000Y-118300000D03*
%TD*%
D27*
%TO.C,TP54*%
X99675000Y-145425000D03*
%TD*%
D29*
%TO.C,C3*%
X104100000Y-70800000D03*
X102200000Y-70800000D03*
%TD*%
D25*
%TO.C,C96*%
X86700000Y-130980000D03*
X86700000Y-130020000D03*
%TD*%
D34*
%TO.C,C15*%
X56600000Y-63000000D03*
X56600000Y-64900000D03*
%TD*%
D26*
%TO.C,C72*%
X72450000Y-105150000D03*
X71490000Y-105150000D03*
%TD*%
D33*
%TO.C,R12*%
X103940000Y-80100000D03*
X104960000Y-80100000D03*
%TD*%
D27*
%TO.C,TP21*%
X117800000Y-56100000D03*
%TD*%
%TO.C,TP41*%
X67475000Y-93600000D03*
%TD*%
D25*
%TO.C,C137*%
X99300000Y-158660000D03*
X99300000Y-157700000D03*
%TD*%
D30*
%TO.C,R104*%
X131100000Y-136740000D03*
X131100000Y-137760000D03*
%TD*%
D27*
%TO.C,TP47*%
X90300000Y-121100000D03*
%TD*%
D24*
%TO.C,R103*%
X87110000Y-153800000D03*
X86090000Y-153800000D03*
%TD*%
D28*
%TO.C,R99*%
X118230000Y-137100000D03*
X118230000Y-136080000D03*
%TD*%
D27*
%TO.C,TP35*%
X114500000Y-89900000D03*
%TD*%
D35*
%TO.C,U4*%
X126350000Y-70950000D03*
X127300000Y-70950000D03*
X128250000Y-70950000D03*
X128250000Y-73650000D03*
X126350000Y-73650000D03*
%TD*%
D23*
%TO.C,C155*%
X128680000Y-138440000D03*
X128680000Y-139400000D03*
%TD*%
%TO.C,C86*%
X64330000Y-113160000D03*
X64330000Y-114120000D03*
%TD*%
D26*
%TO.C,C70*%
X83220000Y-91310000D03*
X82260000Y-91310000D03*
%TD*%
D30*
%TO.C,R68*%
X58300000Y-105377500D03*
X58300000Y-106397500D03*
%TD*%
D28*
%TO.C,R2*%
X54075000Y-61435000D03*
X54075000Y-60415000D03*
%TD*%
D23*
%TO.C,C88*%
X88200000Y-112120000D03*
X88200000Y-113080000D03*
%TD*%
D26*
%TO.C,C94*%
X101380000Y-118500000D03*
X100420000Y-118500000D03*
%TD*%
D36*
%TO.C,C35*%
X125220000Y-83400000D03*
X126180000Y-83400000D03*
%TD*%
D27*
%TO.C,TP34*%
X115700000Y-95400000D03*
%TD*%
D26*
%TO.C,C52*%
X114980000Y-103760000D03*
X114020000Y-103760000D03*
%TD*%
D24*
%TO.C,R73*%
X87710000Y-122600000D03*
X86690000Y-122600000D03*
%TD*%
D27*
%TO.C,TP28*%
X129100000Y-54300000D03*
%TD*%
D24*
%TO.C,R97*%
X99810000Y-156400000D03*
X98790000Y-156400000D03*
%TD*%
%TO.C,R43*%
X70010000Y-95000000D03*
X68990000Y-95000000D03*
%TD*%
D25*
%TO.C,C59*%
X97000000Y-102730000D03*
X97000000Y-101770000D03*
%TD*%
D37*
%TO.C,C28*%
X78300000Y-69850000D03*
X78300000Y-66900000D03*
%TD*%
D25*
%TO.C,C118*%
X68200000Y-128600000D03*
X68200000Y-127640000D03*
%TD*%
D38*
%TO.C,TP61*%
X65500000Y-149900000D03*
%TD*%
D27*
%TO.C,TP10*%
X116100000Y-87900000D03*
%TD*%
D39*
%TO.C,U5*%
X122975000Y-86762500D03*
X122325000Y-86762500D03*
X121675000Y-86762500D03*
X121025000Y-86762500D03*
X120375000Y-86762500D03*
X119725000Y-86762500D03*
X119075000Y-86762500D03*
X118425000Y-86762500D03*
X118425000Y-81037500D03*
X119075000Y-81037500D03*
X119725000Y-81037500D03*
X120375000Y-81037500D03*
X121025000Y-81037500D03*
X121675000Y-81037500D03*
X122325000Y-81037500D03*
X122975000Y-81037500D03*
%TD*%
D26*
%TO.C,C152*%
X71160000Y-159800000D03*
X70200000Y-159800000D03*
%TD*%
D24*
%TO.C,R70*%
X87710000Y-123700000D03*
X86690000Y-123700000D03*
%TD*%
D23*
%TO.C,C115*%
X64330000Y-110890000D03*
X64330000Y-111850000D03*
%TD*%
D25*
%TO.C,C93*%
X88000000Y-132080000D03*
X88000000Y-131120000D03*
%TD*%
D32*
%TO.C,U11*%
X94737500Y-85350000D03*
X94737500Y-86300000D03*
X94737500Y-87250000D03*
X92462500Y-87250000D03*
X92462500Y-85350000D03*
%TD*%
D25*
%TO.C,C158*%
X68980000Y-157780000D03*
X68980000Y-156820000D03*
%TD*%
D30*
%TO.C,R16*%
X71425000Y-74190000D03*
X71425000Y-75210000D03*
%TD*%
D25*
%TO.C,C84*%
X97500000Y-117280000D03*
X97500000Y-116320000D03*
%TD*%
D23*
%TO.C,C67*%
X85400000Y-91270000D03*
X85400000Y-92230000D03*
%TD*%
D30*
%TO.C,R101*%
X122880000Y-132400000D03*
X122880000Y-133420000D03*
%TD*%
D27*
%TO.C,TP57*%
X68225000Y-148075000D03*
%TD*%
D30*
%TO.C,R19*%
X96325000Y-73940000D03*
X96325000Y-74960000D03*
%TD*%
D24*
%TO.C,R61*%
X101010000Y-124900000D03*
X99990000Y-124900000D03*
%TD*%
D26*
%TO.C,C76*%
X69980000Y-91500000D03*
X69020000Y-91500000D03*
%TD*%
D28*
%TO.C,R17*%
X72950000Y-75210000D03*
X72950000Y-74190000D03*
%TD*%
D27*
%TO.C,TP20*%
X117800000Y-58100000D03*
%TD*%
D25*
%TO.C,C112*%
X68200000Y-130580000D03*
X68200000Y-129620000D03*
%TD*%
D27*
%TO.C,TP9*%
X105050000Y-63100000D03*
%TD*%
D23*
%TO.C,C89*%
X88000000Y-117320000D03*
X88000000Y-118280000D03*
%TD*%
D28*
%TO.C,R11*%
X103950000Y-82460000D03*
X103950000Y-81440000D03*
%TD*%
D23*
%TO.C,C131*%
X88000000Y-140520000D03*
X88000000Y-141480000D03*
%TD*%
%TO.C,C66*%
X87000000Y-100750000D03*
X87000000Y-101710000D03*
%TD*%
%TO.C,C116*%
X56030000Y-110880000D03*
X56030000Y-111840000D03*
%TD*%
D38*
%TO.C,TP59*%
X65500000Y-155600000D03*
%TD*%
D26*
%TO.C,C17*%
X119380000Y-71050000D03*
X118420000Y-71050000D03*
%TD*%
D23*
%TO.C,C69*%
X88250000Y-101790000D03*
X88250000Y-102750000D03*
%TD*%
D25*
%TO.C,C110*%
X64330000Y-109600000D03*
X64330000Y-108640000D03*
%TD*%
D30*
%TO.C,R77*%
X65630000Y-108610000D03*
X65630000Y-109630000D03*
%TD*%
D40*
%TO.C,C8*%
X62200000Y-60400000D03*
X65150000Y-60400000D03*
%TD*%
D25*
%TO.C,C99*%
X79800000Y-136880000D03*
X79800000Y-135920000D03*
%TD*%
D41*
%TO.C,FID2*%
X53800000Y-166825000D03*
%TD*%
D23*
%TO.C,C157*%
X69350000Y-145695000D03*
X69350000Y-146655000D03*
%TD*%
D26*
%TO.C,C129*%
X103580000Y-160700000D03*
X102620000Y-160700000D03*
%TD*%
D33*
%TO.C,R54*%
X89990000Y-113100000D03*
X91010000Y-113100000D03*
%TD*%
D26*
%TO.C,C26*%
X72680000Y-76450000D03*
X71720000Y-76450000D03*
%TD*%
D24*
%TO.C,R44*%
X70010000Y-98250000D03*
X68990000Y-98250000D03*
%TD*%
D27*
%TO.C,TP24*%
X117800000Y-50100000D03*
%TD*%
D26*
%TO.C,C122*%
X112880000Y-146800000D03*
X111920000Y-146800000D03*
%TD*%
%TO.C,C145*%
X85180000Y-160620000D03*
X84220000Y-160620000D03*
%TD*%
D23*
%TO.C,C60*%
X81200000Y-107920000D03*
X81200000Y-108880000D03*
%TD*%
%TO.C,C102*%
X100400000Y-129040000D03*
X100400000Y-130000000D03*
%TD*%
D27*
%TO.C,TP1*%
X120350000Y-69550000D03*
%TD*%
D39*
%TO.C,U21*%
X126730000Y-141762500D03*
X126080000Y-141762500D03*
X125430000Y-141762500D03*
X124780000Y-141762500D03*
X124130000Y-141762500D03*
X123480000Y-141762500D03*
X122830000Y-141762500D03*
X122830000Y-136037500D03*
X123480000Y-136037500D03*
X124130000Y-136037500D03*
X124780000Y-136037500D03*
X125430000Y-136037500D03*
X126080000Y-136037500D03*
X126730000Y-136037500D03*
%TD*%
%TO.C,U15*%
X62150000Y-114250000D03*
X61500000Y-114250000D03*
X60850000Y-114250000D03*
X60200000Y-114250000D03*
X59550000Y-114250000D03*
X58900000Y-114250000D03*
X58250000Y-114250000D03*
X58250000Y-108525000D03*
X58900000Y-108525000D03*
X59550000Y-108525000D03*
X60200000Y-108525000D03*
X60850000Y-108525000D03*
X61500000Y-108525000D03*
X62150000Y-108525000D03*
%TD*%
D27*
%TO.C,TP6*%
X129500000Y-88600000D03*
%TD*%
D42*
%TO.C,U2*%
X119389800Y-75227950D03*
X118450000Y-75227950D03*
X117510200Y-75227950D03*
X117510200Y-72472050D03*
X119389800Y-72472050D03*
%TD*%
D26*
%TO.C,C149*%
X112280000Y-144500000D03*
X111320000Y-144500000D03*
%TD*%
D27*
%TO.C,TP40*%
X92300000Y-95000000D03*
%TD*%
D25*
%TO.C,C63*%
X79700000Y-108880000D03*
X79700000Y-107920000D03*
%TD*%
D36*
%TO.C,C136*%
X73220000Y-162500000D03*
X74180000Y-162500000D03*
%TD*%
D23*
%TO.C,C130*%
X88300000Y-145720000D03*
X88300000Y-146680000D03*
%TD*%
D24*
%TO.C,R28*%
X92785000Y-70350000D03*
X91765000Y-70350000D03*
%TD*%
D28*
%TO.C,R3*%
X56550000Y-61435000D03*
X56550000Y-60415000D03*
%TD*%
D33*
%TO.C,R32*%
X89190000Y-87600000D03*
X90210000Y-87600000D03*
%TD*%
D23*
%TO.C,C139*%
X86500000Y-157320000D03*
X86500000Y-158280000D03*
%TD*%
D24*
%TO.C,R35*%
X99910000Y-97800000D03*
X98890000Y-97800000D03*
%TD*%
D26*
%TO.C,C151*%
X73160000Y-159800000D03*
X72200000Y-159800000D03*
%TD*%
D33*
%TO.C,R83*%
X116990000Y-152600000D03*
X118010000Y-152600000D03*
%TD*%
D23*
%TO.C,C120*%
X115900000Y-157140000D03*
X115900000Y-158100000D03*
%TD*%
D36*
%TO.C,C81*%
X114220000Y-118500000D03*
X115180000Y-118500000D03*
%TD*%
D26*
%TO.C,C83*%
X112980000Y-118500000D03*
X112020000Y-118500000D03*
%TD*%
D33*
%TO.C,R25*%
X93850000Y-50300000D03*
X94870000Y-50300000D03*
%TD*%
D27*
%TO.C,TP51*%
X117900000Y-146100000D03*
%TD*%
D36*
%TO.C,C144*%
X111220000Y-163500000D03*
X112180000Y-163500000D03*
%TD*%
D27*
%TO.C,TP38*%
X100925000Y-93575000D03*
%TD*%
D18*
%TO.C,J3*%
X54450000Y-98970000D03*
D19*
X56990000Y-98970000D03*
X54450000Y-96430000D03*
X56990000Y-96430000D03*
X54450000Y-93890000D03*
X56990000Y-93890000D03*
X54450000Y-91350000D03*
X56990000Y-91350000D03*
X54450000Y-88810000D03*
X56990000Y-88810000D03*
%TD*%
D43*
%TO.C,C41*%
X90725000Y-77475000D03*
X85325000Y-77475000D03*
%TD*%
D27*
%TO.C,TP48*%
X92500000Y-121100000D03*
%TD*%
D28*
%TO.C,R30*%
X118800000Y-100810000D03*
X118800000Y-99790000D03*
%TD*%
D41*
%TO.C,FID8*%
X126375000Y-47850000D03*
%TD*%
D30*
%TO.C,R106*%
X126630000Y-132400000D03*
X126630000Y-133420000D03*
%TD*%
D31*
%TO.C,C68*%
X89400000Y-107700000D03*
X95800000Y-107700000D03*
%TD*%
D27*
%TO.C,TP2*%
X110200000Y-85350000D03*
%TD*%
D23*
%TO.C,C18*%
X57375000Y-68470000D03*
X57375000Y-69430000D03*
%TD*%
D44*
%TO.C,U1*%
X107150000Y-78237500D03*
X106200000Y-78237500D03*
X105250000Y-78237500D03*
X105250000Y-75962500D03*
X106200000Y-75962500D03*
X107150000Y-75962500D03*
%TD*%
D25*
%TO.C,C98*%
X88000000Y-129980000D03*
X88000000Y-129020000D03*
%TD*%
D23*
%TO.C,C45*%
X117500000Y-99790000D03*
X117500000Y-100750000D03*
%TD*%
D28*
%TO.C,R84*%
X129930000Y-141730000D03*
X129930000Y-140710000D03*
%TD*%
D25*
%TO.C,C114*%
X69400000Y-129580000D03*
X69400000Y-128620000D03*
%TD*%
D38*
%TO.C,TP62*%
X64725000Y-146500000D03*
%TD*%
D25*
%TO.C,C100*%
X106500000Y-138580000D03*
X106500000Y-137620000D03*
%TD*%
D40*
%TO.C,C4*%
X62175000Y-66925000D03*
X65125000Y-66925000D03*
%TD*%
D30*
%TO.C,R67*%
X59600000Y-105390000D03*
X59600000Y-106410000D03*
%TD*%
D25*
%TO.C,C154*%
X70180000Y-158680000D03*
X70180000Y-157720000D03*
%TD*%
D23*
%TO.C,C64*%
X88250000Y-99790000D03*
X88250000Y-100750000D03*
%TD*%
D28*
%TO.C,R6*%
X54075000Y-58710000D03*
X54075000Y-57690000D03*
%TD*%
D36*
%TO.C,C109*%
X73420000Y-116000000D03*
X74380000Y-116000000D03*
%TD*%
D41*
%TO.C,FID6*%
X55626000Y-53340000D03*
%TD*%
D24*
%TO.C,R95*%
X99810000Y-151700000D03*
X98790000Y-151700000D03*
%TD*%
D27*
%TO.C,TP39*%
X89400000Y-95000000D03*
%TD*%
D28*
%TO.C,R87*%
X122880000Y-145400000D03*
X122880000Y-144380000D03*
%TD*%
D45*
%TO.C,U14*%
X122450000Y-105250000D03*
X120150000Y-105250000D03*
X120150000Y-103350000D03*
X122450000Y-103350000D03*
%TD*%
D30*
%TO.C,R46*%
X66880000Y-113110000D03*
X66880000Y-114130000D03*
%TD*%
D25*
%TO.C,C50*%
X96800000Y-86280000D03*
X96800000Y-85320000D03*
%TD*%
D28*
%TO.C,R86*%
X124130000Y-145400000D03*
X124130000Y-144380000D03*
%TD*%
D29*
%TO.C,C20*%
X109700000Y-82700000D03*
X107800000Y-82700000D03*
%TD*%
D28*
%TO.C,R74*%
X66880000Y-109630000D03*
X66880000Y-108610000D03*
%TD*%
D24*
%TO.C,R93*%
X99810000Y-150500000D03*
X98790000Y-150500000D03*
%TD*%
%TO.C,R92*%
X99810000Y-154000000D03*
X98790000Y-154000000D03*
%TD*%
D36*
%TO.C,C55*%
X103320000Y-90500000D03*
X104280000Y-90500000D03*
%TD*%
D24*
%TO.C,R24*%
X98970000Y-50300000D03*
X97950000Y-50300000D03*
%TD*%
D46*
%TO.C,R98*%
X106637500Y-166400000D03*
X112562500Y-166400000D03*
%TD*%
D24*
%TO.C,R34*%
X90210000Y-85300000D03*
X89190000Y-85300000D03*
%TD*%
D32*
%TO.C,U16*%
X95437500Y-111150000D03*
X95437500Y-112100000D03*
X95437500Y-113050000D03*
X93162500Y-113050000D03*
X93162500Y-111150000D03*
%TD*%
D25*
%TO.C,C127*%
X96900000Y-140980000D03*
X96900000Y-140020000D03*
%TD*%
D36*
%TO.C,C121*%
X114020000Y-146800000D03*
X114980000Y-146800000D03*
%TD*%
D33*
%TO.C,R33*%
X90790000Y-90600000D03*
X91810000Y-90600000D03*
%TD*%
D47*
%TO.C,C30*%
X108250000Y-49100000D03*
X110150000Y-49100000D03*
%TD*%
D27*
%TO.C,TP37*%
X101200000Y-86700000D03*
%TD*%
D30*
%TO.C,R79*%
X64400000Y-103490000D03*
X64400000Y-104510000D03*
%TD*%
D27*
%TO.C,TP42*%
X119600000Y-118700000D03*
%TD*%
D26*
%TO.C,C48*%
X112680000Y-90400000D03*
X111720000Y-90400000D03*
%TD*%
D27*
%TO.C,TP29*%
X131000000Y-66100000D03*
%TD*%
D24*
%TO.C,R78*%
X69010000Y-123300000D03*
X67990000Y-123300000D03*
%TD*%
D27*
%TO.C,TP46*%
X98100000Y-121275000D03*
%TD*%
D25*
%TO.C,C78*%
X69000000Y-102230000D03*
X69000000Y-101270000D03*
%TD*%
D32*
%TO.C,U24*%
X94937500Y-140050000D03*
X94937500Y-141000000D03*
X94937500Y-141950000D03*
X92662500Y-141950000D03*
X92662500Y-140050000D03*
%TD*%
D25*
%TO.C,C150*%
X128680000Y-137100000D03*
X128680000Y-136140000D03*
%TD*%
D30*
%TO.C,R21*%
X117150000Y-80040000D03*
X117150000Y-81060000D03*
%TD*%
D27*
%TO.C,TP17*%
X116100000Y-85900000D03*
%TD*%
D36*
%TO.C,C104*%
X84220000Y-118100000D03*
X85180000Y-118100000D03*
%TD*%
%TO.C,C91*%
X86020000Y-132300000D03*
X86980000Y-132300000D03*
%TD*%
%TO.C,C113*%
X73020000Y-118100000D03*
X73980000Y-118100000D03*
%TD*%
D45*
%TO.C,U19*%
X71750000Y-115950000D03*
X69450000Y-115950000D03*
X69450000Y-114050000D03*
X71750000Y-114050000D03*
%TD*%
D23*
%TO.C,C132*%
X120730000Y-140710000D03*
X120730000Y-141670000D03*
%TD*%
D41*
%TO.C,FID4*%
X130350000Y-166550000D03*
%TD*%
D30*
%TO.C,R75*%
X60900000Y-105377500D03*
X60900000Y-106397500D03*
%TD*%
%TO.C,R102*%
X119480000Y-136080000D03*
X119480000Y-137100000D03*
%TD*%
D28*
%TO.C,R82*%
X126630000Y-145400000D03*
X126630000Y-144380000D03*
%TD*%
%TO.C,R80*%
X129980000Y-139410000D03*
X129980000Y-138390000D03*
%TD*%
D25*
%TO.C,C61*%
X98250000Y-101730000D03*
X98250000Y-100770000D03*
%TD*%
D36*
%TO.C,C153*%
X72520000Y-146150000D03*
X73480000Y-146150000D03*
%TD*%
D23*
%TO.C,C92*%
X56030000Y-113130000D03*
X56030000Y-114090000D03*
%TD*%
D27*
%TO.C,TP14*%
X112800000Y-48900000D03*
%TD*%
D25*
%TO.C,C77*%
X70250000Y-103230000D03*
X70250000Y-102270000D03*
%TD*%
D27*
%TO.C,TP13*%
X111450000Y-70550000D03*
%TD*%
D33*
%TO.C,R89*%
X89690000Y-142200000D03*
X90710000Y-142200000D03*
%TD*%
D26*
%TO.C,C133*%
X101480000Y-160700000D03*
X100520000Y-160700000D03*
%TD*%
D27*
%TO.C,TP12*%
X105050000Y-65100000D03*
%TD*%
D24*
%TO.C,R69*%
X87610000Y-125300000D03*
X86590000Y-125300000D03*
%TD*%
D27*
%TO.C,TP53*%
X101200000Y-141300000D03*
%TD*%
D24*
%TO.C,R36*%
X101010000Y-95075000D03*
X99990000Y-95075000D03*
%TD*%
D48*
%TO.C,R63*%
X76700000Y-141862500D03*
X76700000Y-135937500D03*
%TD*%
D36*
%TO.C,C47*%
X115270000Y-91500000D03*
X116230000Y-91500000D03*
%TD*%
D23*
%TO.C,C54*%
X87300000Y-85520000D03*
X87300000Y-86480000D03*
%TD*%
D27*
%TO.C,TP44*%
X101800000Y-114400000D03*
%TD*%
%TO.C,TP45*%
X85600000Y-115300000D03*
%TD*%
D49*
%TO.C,R96*%
X78562500Y-166800000D03*
X72637500Y-166800000D03*
%TD*%
D27*
%TO.C,TP26*%
X118200000Y-47700000D03*
%TD*%
D23*
%TO.C,C79*%
X117000000Y-128300000D03*
X117000000Y-129260000D03*
%TD*%
%TO.C,C141*%
X85200000Y-158340000D03*
X85200000Y-159300000D03*
%TD*%
D24*
%TO.C,R56*%
X91010000Y-111200000D03*
X89990000Y-111200000D03*
%TD*%
D27*
%TO.C,TP36*%
X88150000Y-90240000D03*
%TD*%
D28*
%TO.C,R59*%
X59550000Y-118100000D03*
X59550000Y-117080000D03*
%TD*%
D26*
%TO.C,C43*%
X85905000Y-70425000D03*
X84945000Y-70425000D03*
%TD*%
D24*
%TO.C,R72*%
X87610000Y-126600000D03*
X86590000Y-126600000D03*
%TD*%
D23*
%TO.C,C85*%
X115900000Y-131220000D03*
X115900000Y-132180000D03*
%TD*%
D25*
%TO.C,C126*%
X96900000Y-146280000D03*
X96900000Y-145320000D03*
%TD*%
%TO.C,C143*%
X120730000Y-137070000D03*
X120730000Y-136110000D03*
%TD*%
D27*
%TO.C,TP49*%
X68450000Y-118075000D03*
%TD*%
D26*
%TO.C,C58*%
X100980000Y-91500000D03*
X100020000Y-91500000D03*
%TD*%
%TO.C,C148*%
X82780000Y-160600000D03*
X81820000Y-160600000D03*
%TD*%
D23*
%TO.C,C108*%
X100400000Y-131040000D03*
X100400000Y-132000000D03*
%TD*%
D28*
%TO.C,R48*%
X62050000Y-118100000D03*
X62050000Y-117080000D03*
%TD*%
D23*
%TO.C,C62*%
X104000000Y-109620000D03*
X104000000Y-110580000D03*
%TD*%
D24*
%TO.C,R91*%
X90810000Y-139700000D03*
X89790000Y-139700000D03*
%TD*%
D30*
%TO.C,R107*%
X129930000Y-136110000D03*
X129930000Y-137130000D03*
%TD*%
D23*
%TO.C,C124*%
X128680000Y-140740000D03*
X128680000Y-141700000D03*
%TD*%
%TO.C,C156*%
X121030000Y-138420000D03*
X121030000Y-139380000D03*
%TD*%
D28*
%TO.C,R10*%
X53475000Y-74260000D03*
X53475000Y-73240000D03*
%TD*%
D32*
%TO.C,U10*%
X96037500Y-90350000D03*
X96037500Y-91300000D03*
X96037500Y-92250000D03*
X93762500Y-92250000D03*
X93762500Y-90350000D03*
%TD*%
D27*
%TO.C,TP19*%
X117800000Y-60200000D03*
%TD*%
D50*
%TO.C,U26*%
X114250000Y-144650000D03*
X114250000Y-142350000D03*
X116150000Y-142350000D03*
X116150000Y-144650000D03*
%TD*%
D28*
%TO.C,R40*%
X100000000Y-100510000D03*
X100000000Y-99490000D03*
%TD*%
D25*
%TO.C,C24*%
X124100000Y-75380000D03*
X124100000Y-74420000D03*
%TD*%
D28*
%TO.C,R1*%
X55250000Y-61435000D03*
X55250000Y-60415000D03*
%TD*%
D26*
%TO.C,C140*%
X74180000Y-163800000D03*
X73220000Y-163800000D03*
%TD*%
D48*
%TO.C,R39*%
X76700000Y-113962500D03*
X76700000Y-108037500D03*
%TD*%
D33*
%TO.C,R57*%
X89790000Y-116000000D03*
X90810000Y-116000000D03*
%TD*%
D25*
%TO.C,C56*%
X97000000Y-104730000D03*
X97000000Y-103770000D03*
%TD*%
D23*
%TO.C,C106*%
X99300000Y-130040000D03*
X99300000Y-131000000D03*
%TD*%
%TO.C,C46*%
X116250000Y-100790000D03*
X116250000Y-101750000D03*
%TD*%
%TO.C,C119*%
X117100000Y-156140000D03*
X117100000Y-157100000D03*
%TD*%
D27*
%TO.C,TP55*%
X86800000Y-150600000D03*
%TD*%
%TO.C,TP23*%
X117800000Y-52100000D03*
%TD*%
D26*
%TO.C,C107*%
X82580000Y-118100000D03*
X81620000Y-118100000D03*
%TD*%
D25*
%TO.C,C75*%
X71500000Y-104230000D03*
X71500000Y-103270000D03*
%TD*%
D23*
%TO.C,C53*%
X89400000Y-91320000D03*
X89400000Y-92280000D03*
%TD*%
D30*
%TO.C,R105*%
X125380000Y-132400000D03*
X125380000Y-133420000D03*
%TD*%
D27*
%TO.C,TP27*%
X126450000Y-51225000D03*
%TD*%
D32*
%TO.C,U17*%
X95537500Y-116350000D03*
X95537500Y-117300000D03*
X95537500Y-118250000D03*
X93262500Y-118250000D03*
X93262500Y-116350000D03*
%TD*%
D27*
%TO.C,TP22*%
X117800000Y-54100000D03*
%TD*%
D33*
%TO.C,R50*%
X116900000Y-123600000D03*
X117920000Y-123600000D03*
%TD*%
D30*
%TO.C,R108*%
X128600000Y-130290000D03*
X128600000Y-131310000D03*
%TD*%
D40*
%TO.C,C7*%
X62225000Y-63600000D03*
X65175000Y-63600000D03*
%TD*%
D33*
%TO.C,R51*%
X116900000Y-127200000D03*
X117920000Y-127200000D03*
%TD*%
D38*
%TO.C,TP58*%
X64700000Y-159100000D03*
%TD*%
D30*
%TO.C,R71*%
X54800000Y-108590000D03*
X54800000Y-109610000D03*
%TD*%
D33*
%TO.C,R88*%
X89690000Y-147400000D03*
X90710000Y-147400000D03*
%TD*%
D28*
%TO.C,R4*%
X53225000Y-76535000D03*
X53225000Y-75515000D03*
%TD*%
D36*
%TO.C,C74*%
X73540000Y-91320000D03*
X74500000Y-91320000D03*
%TD*%
D24*
%TO.C,R41*%
X86260000Y-97250000D03*
X85240000Y-97250000D03*
%TD*%
D48*
%TO.C,R38*%
X108800000Y-114062500D03*
X108800000Y-108137500D03*
%TD*%
D36*
%TO.C,C90*%
X103120000Y-118500000D03*
X104080000Y-118500000D03*
%TD*%
%TO.C,C32*%
X108220000Y-50900000D03*
X109180000Y-50900000D03*
%TD*%
D23*
%TO.C,C95*%
X81300000Y-135920000D03*
X81300000Y-136880000D03*
%TD*%
D28*
%TO.C,R58*%
X54800000Y-111910000D03*
X54800000Y-110890000D03*
%TD*%
D30*
%TO.C,R7*%
X56550000Y-57690000D03*
X56550000Y-58710000D03*
%TD*%
D23*
%TO.C,C101*%
X99300000Y-128040000D03*
X99300000Y-129000000D03*
%TD*%
D43*
%TO.C,C42*%
X88300000Y-65500000D03*
X82900000Y-65500000D03*
%TD*%
D36*
%TO.C,C128*%
X103220000Y-146800000D03*
X104180000Y-146800000D03*
%TD*%
D51*
%TO.C,L1*%
X111950000Y-74415000D03*
X111950000Y-77485000D03*
%TD*%
D33*
%TO.C,R31*%
X90790000Y-92300000D03*
X91810000Y-92300000D03*
%TD*%
%TO.C,R90*%
X89990000Y-145000000D03*
X91010000Y-145000000D03*
%TD*%
D23*
%TO.C,C9*%
X119400000Y-77070000D03*
X119400000Y-78030000D03*
%TD*%
D33*
%TO.C,R53*%
X116990000Y-122300000D03*
X118010000Y-122300000D03*
%TD*%
D52*
%TO.C,C6*%
X102225000Y-75000000D03*
X103775000Y-75000000D03*
%TD*%
D27*
%TO.C,TP43*%
X119600000Y-116600000D03*
%TD*%
D30*
%TO.C,R85*%
X118230000Y-140680000D03*
X118230000Y-141700000D03*
%TD*%
%TO.C,R5*%
X55275000Y-57690000D03*
X55275000Y-58710000D03*
%TD*%
D27*
%TO.C,TP3*%
X130100000Y-75400000D03*
%TD*%
D33*
%TO.C,R29*%
X89840000Y-63000000D03*
X90860000Y-63000000D03*
%TD*%
D26*
%TO.C,C146*%
X82880000Y-146600000D03*
X81920000Y-146600000D03*
%TD*%
D23*
%TO.C,C71*%
X87000000Y-102790000D03*
X87000000Y-103750000D03*
%TD*%
D28*
%TO.C,R94*%
X119480000Y-141700000D03*
X119480000Y-140680000D03*
%TD*%
D27*
%TO.C,TP25*%
X124800000Y-52500000D03*
%TD*%
D33*
%TO.C,R64*%
X86790000Y-128020000D03*
X87810000Y-128020000D03*
%TD*%
D26*
%TO.C,C134*%
X101580000Y-146800000D03*
X100620000Y-146800000D03*
%TD*%
D38*
%TO.C,TP60*%
X68300000Y-153200000D03*
%TD*%
D27*
%TO.C,TP15*%
X112800000Y-50900000D03*
%TD*%
D28*
%TO.C,R81*%
X125380000Y-145400000D03*
X125380000Y-144380000D03*
%TD*%
D24*
%TO.C,R37*%
X100985000Y-96275000D03*
X99965000Y-96275000D03*
%TD*%
D23*
%TO.C,C123*%
X115900000Y-159340000D03*
X115900000Y-160300000D03*
%TD*%
%TO.C,C80*%
X115900000Y-129300000D03*
X115900000Y-130260000D03*
%TD*%
D26*
%TO.C,C125*%
X114600000Y-159820000D03*
X113640000Y-159820000D03*
%TD*%
D25*
%TO.C,C105*%
X56030000Y-109590000D03*
X56030000Y-108630000D03*
%TD*%
D27*
%TO.C,TP8*%
X129400000Y-93200000D03*
%TD*%
%TO.C,TP18*%
X120200000Y-61800000D03*
%TD*%
%TO.C,TP7*%
X129500000Y-90900000D03*
%TD*%
D26*
%TO.C,C33*%
X126180000Y-81100000D03*
X125220000Y-81100000D03*
%TD*%
D33*
%TO.C,R49*%
X116900000Y-126000000D03*
X117920000Y-126000000D03*
%TD*%
D29*
%TO.C,C11*%
X104100000Y-72900000D03*
X102200000Y-72900000D03*
%TD*%
D48*
%TO.C,R65*%
X109500000Y-141862500D03*
X109500000Y-135937500D03*
%TD*%
D28*
%TO.C,R62*%
X54780000Y-114120000D03*
X54780000Y-113100000D03*
%TD*%
D30*
%TO.C,R100*%
X124130000Y-132400000D03*
X124130000Y-133420000D03*
%TD*%
D24*
%TO.C,R45*%
X70010000Y-96250000D03*
X68990000Y-96250000D03*
%TD*%
D27*
%TO.C,TP56*%
X89000000Y-150575000D03*
%TD*%
D30*
%TO.C,R47*%
X60800000Y-117090000D03*
X60800000Y-118110000D03*
%TD*%
D31*
%TO.C,C103*%
X89800000Y-135700000D03*
X96200000Y-135700000D03*
%TD*%
D23*
%TO.C,C51*%
X115000000Y-101790000D03*
X115000000Y-102750000D03*
%TD*%
D25*
%TO.C,C65*%
X105700000Y-110580000D03*
X105700000Y-109620000D03*
%TD*%
D30*
%TO.C,R76*%
X62150000Y-105377500D03*
X62150000Y-106397500D03*
%TD*%
D23*
%TO.C,C97*%
X105000000Y-137620000D03*
X105000000Y-138580000D03*
%TD*%
D43*
%TO.C,C29*%
X73700000Y-83250000D03*
X68100000Y-83250000D03*
%TD*%
D26*
%TO.C,C87*%
X114580000Y-131700000D03*
X113620000Y-131700000D03*
%TD*%
D28*
%TO.C,R60*%
X58300000Y-118100000D03*
X58300000Y-117080000D03*
%TD*%
D36*
%TO.C,C21*%
X126320000Y-67800000D03*
X127280000Y-67800000D03*
%TD*%
D23*
%TO.C,C142*%
X86325000Y-147245000D03*
X86325000Y-148205000D03*
%TD*%
D25*
%TO.C,C82*%
X97500000Y-112080000D03*
X97500000Y-111120000D03*
%TD*%
D36*
%TO.C,C73*%
X122520000Y-102000000D03*
X123480000Y-102000000D03*
%TD*%
M02*
