%TF.GenerationSoftware,KiCad,Pcbnew,8.0.1-rc1*%
%TF.CreationDate,2024-03-24T23:57:46-06:00*%
%TF.ProjectId,bitaxeHex,62697461-7865-4486-9578-2e6b69636164,302*%
%TF.SameCoordinates,Original*%
%TF.FileFunction,Copper,L1,Top*%
%TF.FilePolarity,Positive*%
%FSLAX46Y46*%
G04 Gerber Fmt 4.6, Leading zero omitted, Abs format (unit mm)*
G04 Created by KiCad (PCBNEW 8.0.1-rc1) date 2024-03-24 23:57:46*
%MOMM*%
%LPD*%
G01*
G04 APERTURE LIST*
G04 Aperture macros list*
%AMRoundRect*
0 Rectangle with rounded corners*
0 $1 Rounding radius*
0 $2 $3 $4 $5 $6 $7 $8 $9 X,Y pos of 4 corners*
0 Add a 4 corners polygon primitive as box body*
4,1,4,$2,$3,$4,$5,$6,$7,$8,$9,$2,$3,0*
0 Add four circle primitives for the rounded corners*
1,1,$1+$1,$2,$3*
1,1,$1+$1,$4,$5*
1,1,$1+$1,$6,$7*
1,1,$1+$1,$8,$9*
0 Add four rect primitives between the rounded corners*
20,1,$1+$1,$2,$3,$4,$5,0*
20,1,$1+$1,$4,$5,$6,$7,0*
20,1,$1+$1,$6,$7,$8,$9,0*
20,1,$1+$1,$8,$9,$2,$3,0*%
G04 Aperture macros list end*
%TA.AperFunction,NonConductor*%
%ADD10C,0.250000*%
%TD*%
%ADD11C,0.200000*%
%TA.AperFunction,NonConductor*%
%ADD12C,0.200000*%
%TD*%
%TA.AperFunction,SMDPad,CuDef*%
%ADD13C,0.800000*%
%TD*%
%TA.AperFunction,SMDPad,CuDef*%
%ADD14R,0.792000X0.221000*%
%TD*%
%TA.AperFunction,SMDPad,CuDef*%
%ADD15R,4.277000X1.810000*%
%TD*%
%TA.AperFunction,SMDPad,CuDef*%
%ADD16R,4.277000X4.530000*%
%TD*%
%TA.AperFunction,ConnectorPad*%
%ADD17C,0.787400*%
%TD*%
%TA.AperFunction,SMDPad,CuDef*%
%ADD18C,1.000000*%
%TD*%
%TA.AperFunction,SMDPad,CuDef*%
%ADD19RoundRect,0.135000X0.185000X-0.135000X0.185000X0.135000X-0.185000X0.135000X-0.185000X-0.135000X0*%
%TD*%
%TA.AperFunction,ComponentPad*%
%ADD20C,3.200000*%
%TD*%
%TA.AperFunction,ComponentPad*%
%ADD21C,0.800000*%
%TD*%
%TA.AperFunction,ComponentPad*%
%ADD22C,6.000000*%
%TD*%
%TA.AperFunction,SMDPad,CuDef*%
%ADD23R,1.600200X1.168400*%
%TD*%
%TA.AperFunction,ComponentPad*%
%ADD24C,1.574800*%
%TD*%
%TA.AperFunction,ComponentPad*%
%ADD25C,5.000000*%
%TD*%
%TA.AperFunction,SMDPad,CuDef*%
%ADD26RoundRect,0.250000X-0.475000X0.250000X-0.475000X-0.250000X0.475000X-0.250000X0.475000X0.250000X0*%
%TD*%
%TA.AperFunction,SMDPad,CuDef*%
%ADD27RoundRect,0.135000X0.135000X0.185000X-0.135000X0.185000X-0.135000X-0.185000X0.135000X-0.185000X0*%
%TD*%
%TA.AperFunction,SMDPad,CuDef*%
%ADD28RoundRect,0.200000X0.450000X0.200000X-0.450000X0.200000X-0.450000X-0.200000X0.450000X-0.200000X0*%
%TD*%
%TA.AperFunction,SMDPad,CuDef*%
%ADD29O,0.740000X1.750000*%
%TD*%
%TA.AperFunction,SMDPad,CuDef*%
%ADD30RoundRect,0.150000X0.150000X0.750000X-0.150000X0.750000X-0.150000X-0.750000X0.150000X-0.750000X0*%
%TD*%
%TA.AperFunction,SMDPad,CuDef*%
%ADD31R,9.000000X2.380000*%
%TD*%
%TA.AperFunction,SMDPad,CuDef*%
%ADD32RoundRect,0.140000X0.140000X0.170000X-0.140000X0.170000X-0.140000X-0.170000X0.140000X-0.170000X0*%
%TD*%
%TA.AperFunction,SMDPad,CuDef*%
%ADD33RoundRect,0.225000X-0.225000X-0.250000X0.225000X-0.250000X0.225000X0.250000X-0.225000X0.250000X0*%
%TD*%
%TA.AperFunction,SMDPad,CuDef*%
%ADD34RoundRect,0.250000X-1.500000X-0.550000X1.500000X-0.550000X1.500000X0.550000X-1.500000X0.550000X0*%
%TD*%
%TA.AperFunction,ComponentPad*%
%ADD35R,1.700000X1.700000*%
%TD*%
%TA.AperFunction,ComponentPad*%
%ADD36O,1.700000X1.700000*%
%TD*%
%TA.AperFunction,SMDPad,CuDef*%
%ADD37RoundRect,0.135000X-0.185000X0.135000X-0.185000X-0.135000X0.185000X-0.135000X0.185000X0.135000X0*%
%TD*%
%TA.AperFunction,SMDPad,CuDef*%
%ADD38RoundRect,0.140000X0.170000X-0.140000X0.170000X0.140000X-0.170000X0.140000X-0.170000X-0.140000X0*%
%TD*%
%TA.AperFunction,SMDPad,CuDef*%
%ADD39RoundRect,0.250000X1.100000X-0.325000X1.100000X0.325000X-1.100000X0.325000X-1.100000X-0.325000X0*%
%TD*%
%TA.AperFunction,SMDPad,CuDef*%
%ADD40RoundRect,0.140000X-0.140000X-0.170000X0.140000X-0.170000X0.140000X0.170000X-0.140000X0.170000X0*%
%TD*%
%TA.AperFunction,SMDPad,CuDef*%
%ADD41R,1.400000X0.300000*%
%TD*%
%TA.AperFunction,SMDPad,CuDef*%
%ADD42RoundRect,0.062500X0.062500X-0.337500X0.062500X0.337500X-0.062500X0.337500X-0.062500X-0.337500X0*%
%TD*%
%TA.AperFunction,SMDPad,CuDef*%
%ADD43RoundRect,0.062500X0.337500X-0.062500X0.337500X0.062500X-0.337500X0.062500X-0.337500X-0.062500X0*%
%TD*%
%TA.AperFunction,ComponentPad*%
%ADD44C,0.400000*%
%TD*%
%TA.AperFunction,SMDPad,CuDef*%
%ADD45R,5.300000X3.300000*%
%TD*%
%TA.AperFunction,SMDPad,CuDef*%
%ADD46R,0.711200X0.228600*%
%TD*%
%TA.AperFunction,SMDPad,CuDef*%
%ADD47R,1.500000X0.900000*%
%TD*%
%TA.AperFunction,SMDPad,CuDef*%
%ADD48R,0.900000X1.500000*%
%TD*%
%TA.AperFunction,SMDPad,CuDef*%
%ADD49R,0.900000X0.900000*%
%TD*%
%TA.AperFunction,SMDPad,CuDef*%
%ADD50RoundRect,0.250000X-0.325000X-1.100000X0.325000X-1.100000X0.325000X1.100000X-0.325000X1.100000X0*%
%TD*%
%TA.AperFunction,SMDPad,CuDef*%
%ADD51RoundRect,0.140000X-0.170000X0.140000X-0.170000X-0.140000X0.170000X-0.140000X0.170000X0.140000X0*%
%TD*%
%TA.AperFunction,SMDPad,CuDef*%
%ADD52R,0.600000X1.060000*%
%TD*%
%TA.AperFunction,SMDPad,CuDef*%
%ADD53R,0.300000X1.150000*%
%TD*%
%TA.AperFunction,ComponentPad*%
%ADD54O,1.000000X2.100000*%
%TD*%
%TA.AperFunction,ComponentPad*%
%ADD55O,1.000000X1.800000*%
%TD*%
%TA.AperFunction,SMDPad,CuDef*%
%ADD56RoundRect,0.135000X-0.135000X-0.185000X0.135000X-0.185000X0.135000X0.185000X-0.135000X0.185000X0*%
%TD*%
%TA.AperFunction,SMDPad,CuDef*%
%ADD57RoundRect,0.250000X-0.312500X-0.625000X0.312500X-0.625000X0.312500X0.625000X-0.312500X0.625000X0*%
%TD*%
%TA.AperFunction,SMDPad,CuDef*%
%ADD58RoundRect,0.250000X-0.250000X-0.475000X0.250000X-0.475000X0.250000X0.475000X-0.250000X0.475000X0*%
%TD*%
%TA.AperFunction,ViaPad*%
%ADD59C,0.800000*%
%TD*%
%TA.AperFunction,ViaPad*%
%ADD60C,1.000000*%
%TD*%
%TA.AperFunction,Conductor*%
%ADD61C,0.250000*%
%TD*%
%TA.AperFunction,Conductor*%
%ADD62C,0.200000*%
%TD*%
%TA.AperFunction,Conductor*%
%ADD63C,0.400000*%
%TD*%
%TA.AperFunction,Conductor*%
%ADD64C,0.254000*%
%TD*%
%TA.AperFunction,Conductor*%
%ADD65C,0.230000*%
%TD*%
%TA.AperFunction,Conductor*%
%ADD66C,0.300000*%
%TD*%
%TA.AperFunction,Conductor*%
%ADD67C,2.000000*%
%TD*%
%TA.AperFunction,Conductor*%
%ADD68C,1.300000*%
%TD*%
G04 APERTURE END LIST*
D10*
X55125000Y-72000000D02*
X56125000Y-72000000D01*
D11*
D12*
X119045863Y-174992742D02*
X118360149Y-174992742D01*
X118703006Y-174992742D02*
X118703006Y-173792742D01*
X118703006Y-173792742D02*
X118588720Y-173964171D01*
X118588720Y-173964171D02*
X118474435Y-174078457D01*
X118474435Y-174078457D02*
X118360149Y-174135600D01*
D13*
%TO.P,TP1,1,1*%
%TO.N,Net-(U3-ADRSEL)*%
X54700000Y-67950000D03*
%TD*%
D14*
%TO.P,U18,1,VDD3_0*%
%TO.N,Net-(U18-VDD3_0)*%
X110916000Y-128263000D03*
%TO.P,U18,2,VDD2_0*%
%TO.N,Net-(U18-VDD2_0)*%
X110916000Y-127761000D03*
%TO.P,U18,3,VDD1_0*%
%TO.N,Net-(U18-VDD1_0)*%
X110916000Y-127259000D03*
%TO.P,U18,4,VSS*%
%TO.N,/BM1366-1/VDD1*%
X110916000Y-126757000D03*
%TO.P,U18,5,CO*%
%TO.N,/BM1366-2/CO*%
X110916000Y-126255000D03*
%TO.P,U18,6,CLKO*%
%TO.N,Net-(U18-CLKO)*%
X110916000Y-125753000D03*
%TO.P,U18,7,RI*%
%TO.N,/BM1366-2/RI*%
X110916000Y-125251000D03*
%TO.P,U18,8,BO*%
%TO.N,/BM1366-2/BO*%
X110916000Y-124749000D03*
%TO.P,U18,9,NRSTO*%
%TO.N,/BM1366-2/NRSTO*%
X110916000Y-124247000D03*
%TO.P,U18,10,ADDR0*%
%TO.N,Net-(U18-ADDR0)*%
X110916000Y-123745000D03*
%TO.P,U18,11,ADDR1*%
%TO.N,Net-(U18-ADDR1)*%
X110916000Y-123243000D03*
%TO.P,U18,12,PLL_VSS*%
%TO.N,/BM1366-1/VDD1*%
X110916000Y-122741000D03*
%TO.P,U18,13,VDDIO_08_0*%
%TO.N,/BM1366-2/0V8*%
X110916000Y-122239000D03*
%TO.P,U18,14,VDDIO_18_0*%
%TO.N,/BM1366-2/1V8*%
X110916000Y-121737000D03*
%TO.P,U18,15,VDDIO_18_1*%
X105084000Y-121750000D03*
%TO.P,U18,16,VDDIO_08_1*%
%TO.N,/BM1366-2/0V8*%
X105084000Y-122250000D03*
%TO.P,U18,17,VSS*%
%TO.N,/BM1366-1/VDD1*%
X105084000Y-122750000D03*
%TO.P,U18,18,PIN_MODE*%
X105084000Y-123250000D03*
%TO.P,U18,19,INV_CLKO*%
%TO.N,Net-(U18-INV_CLKO)*%
X105084000Y-123750000D03*
%TO.P,U18,20,NRSTI*%
%TO.N,Net-(U18-NRSTI)*%
X105084000Y-124247000D03*
%TO.P,U18,21,BI*%
%TO.N,Net-(U18-BI)*%
X105084000Y-124750000D03*
%TO.P,U18,22,RO*%
%TO.N,Net-(U18-RO)*%
X105084000Y-125251000D03*
%TO.P,U18,23,CLKI*%
%TO.N,Net-(U18-CLKI)*%
X105084000Y-125753000D03*
%TO.P,U18,24,CI*%
%TO.N,Net-(U18-CI)*%
X105084000Y-126255000D03*
%TO.P,U18,25,VSS*%
%TO.N,/BM1366-1/VDD1*%
X105084000Y-126757000D03*
%TO.P,U18,26,VDD1_1*%
%TO.N,Net-(U18-VDD1_1)*%
X105084000Y-127250000D03*
%TO.P,U18,27,VDD2_1*%
%TO.N,Net-(U18-VDD2_1)*%
X105084000Y-127761000D03*
%TO.P,U18,28,VDD3_1*%
%TO.N,Net-(U18-VDD3_1)*%
X105084000Y-128250000D03*
D15*
%TO.P,U18,29,VDD*%
%TO.N,/BM1366-2/VDD2*%
X108000000Y-127468000D03*
D16*
%TO.P,U18,30,VSS*%
%TO.N,/BM1366-1/VDD1*%
X108000000Y-123892000D03*
%TD*%
D17*
%TO.P,J4,1,Pin_1*%
%TO.N,/ESP32/EN*%
X129265000Y-58630000D03*
%TO.P,J4,2,Pin_2*%
%TO.N,/3V3*%
X130535000Y-58630000D03*
%TO.P,J4,3,Pin_3*%
%TO.N,/ESP32/P_TX*%
X129265000Y-59900000D03*
%TO.P,J4,4,Pin_4*%
%TO.N,GND*%
X130535000Y-59900000D03*
%TO.P,J4,5,Pin_5*%
%TO.N,/ESP32/P_RX*%
X129265000Y-61170000D03*
%TO.P,J4,6,Pin_6*%
%TO.N,/ESP32/IO0*%
X130535000Y-61170000D03*
%TD*%
D14*
%TO.P,U20,1,VDD3_0*%
%TO.N,Net-(U18-VDD3_1)*%
X80916000Y-128263000D03*
%TO.P,U20,2,VDD2_0*%
%TO.N,Net-(U18-VDD2_1)*%
X80916000Y-127761000D03*
%TO.P,U20,3,VDD1_0*%
%TO.N,Net-(U18-VDD1_1)*%
X80916000Y-127259000D03*
%TO.P,U20,4,VSS*%
%TO.N,/BM1366-1/VDD1*%
X80916000Y-126757000D03*
%TO.P,U20,5,CO*%
%TO.N,Net-(U18-CI)*%
X80916000Y-126255000D03*
%TO.P,U20,6,CLKO*%
%TO.N,Net-(U18-CLKI)*%
X80916000Y-125753000D03*
%TO.P,U20,7,RI*%
%TO.N,Net-(U18-RO)*%
X80916000Y-125251000D03*
%TO.P,U20,8,BO*%
%TO.N,Net-(U18-BI)*%
X80916000Y-124749000D03*
%TO.P,U20,9,NRSTO*%
%TO.N,Net-(U18-NRSTI)*%
X80916000Y-124247000D03*
%TO.P,U20,10,ADDR0*%
%TO.N,Net-(U20-ADDR0)*%
X80916000Y-123745000D03*
%TO.P,U20,11,ADDR1*%
%TO.N,Net-(U20-ADDR1)*%
X80916000Y-123243000D03*
%TO.P,U20,12,PLL_VSS*%
%TO.N,/BM1366-1/VDD1*%
X80916000Y-122741000D03*
%TO.P,U20,13,VDDIO_08_0*%
%TO.N,/BM1366-2/0V8*%
X80916000Y-122239000D03*
%TO.P,U20,14,VDDIO_18_0*%
%TO.N,/BM1366-2/1V8*%
X80916000Y-121737000D03*
%TO.P,U20,15,VDDIO_18_1*%
X75084000Y-121750000D03*
%TO.P,U20,16,VDDIO_08_1*%
%TO.N,/BM1366-2/0V8*%
X75084000Y-122250000D03*
%TO.P,U20,17,VSS*%
%TO.N,/BM1366-1/VDD1*%
X75084000Y-122750000D03*
%TO.P,U20,18,PIN_MODE*%
X75084000Y-123250000D03*
%TO.P,U20,19,INV_CLKO*%
%TO.N,Net-(U20-INV_CLKO)*%
X75084000Y-123750000D03*
%TO.P,U20,20,NRSTI*%
%TO.N,/BM1366-2/NRSTI2*%
X75084000Y-124247000D03*
%TO.P,U20,21,BI*%
%TO.N,/BM1366-2/BI2*%
X75084000Y-124750000D03*
%TO.P,U20,22,RO*%
%TO.N,/BM1366-2/RO2*%
X75084000Y-125251000D03*
%TO.P,U20,23,CLKI*%
%TO.N,/BM1366-2/CLKI2*%
X75084000Y-125753000D03*
%TO.P,U20,24,CI*%
%TO.N,/BM1366-2/CI2*%
X75084000Y-126255000D03*
%TO.P,U20,25,VSS*%
%TO.N,/BM1366-1/VDD1*%
X75084000Y-126757000D03*
%TO.P,U20,26,VDD1_1*%
%TO.N,Net-(U20-VDD1_1)*%
X75084000Y-127250000D03*
%TO.P,U20,27,VDD2_1*%
%TO.N,Net-(U20-VDD2_1)*%
X75084000Y-127761000D03*
%TO.P,U20,28,VDD3_1*%
%TO.N,Net-(U20-VDD3_1)*%
X75084000Y-128250000D03*
D15*
%TO.P,U20,29,VDD*%
%TO.N,/BM1366-2/VDD2*%
X78000000Y-127468000D03*
D16*
%TO.P,U20,30,VSS*%
%TO.N,/BM1366-1/VDD1*%
X78000000Y-123892000D03*
%TD*%
D18*
%TO.P,TP5,1,1*%
%TO.N,/VDD*%
X80900000Y-71950000D03*
%TD*%
D19*
%TO.P,R18,1*%
%TO.N,/3V3*%
X88850000Y-54430000D03*
%TO.P,R18,2*%
%TO.N,/ESP32/EN*%
X88850000Y-53410000D03*
%TD*%
D20*
%TO.P,J2,1,Pin_1*%
%TO.N,GND*%
X74000000Y-56725000D03*
X74000000Y-49725000D03*
X69000000Y-56725000D03*
X69000000Y-49725000D03*
%TD*%
D21*
%TO.P,H1,1,1*%
%TO.N,GND*%
X51250000Y-49500000D03*
X51909010Y-47909010D03*
X51909010Y-51090990D03*
X53500000Y-47250000D03*
D22*
X53500000Y-49500000D03*
D21*
X53500000Y-51750000D03*
X55090990Y-47909010D03*
X55090990Y-51090990D03*
X55750000Y-49500000D03*
%TD*%
D20*
%TO.P,J1,1,Pin_1*%
%TO.N,/VIN*%
X64275000Y-56725000D03*
X64275000Y-49725000D03*
X59275000Y-56725000D03*
X59275000Y-49725000D03*
%TD*%
D23*
%TO.P,Y1,1,1*%
%TO.N,/ESP32/XIN32*%
X101300000Y-56777600D03*
%TO.P,Y1,2,2*%
%TO.N,/ESP32/XOUT32*%
X101300000Y-59622400D03*
%TD*%
D24*
%TO.P,J8,1,Pin_1*%
%TO.N,GND*%
X79700000Y-60650000D03*
%TO.P,J8,2,Pin_2*%
%TO.N,/VIN*%
X82240000Y-60650000D03*
%TO.P,J8,3,Pin_3*%
%TO.N,/Fan/FAN1_TACH*%
X84780000Y-60650000D03*
%TO.P,J8,4,Pin_4*%
%TO.N,/Fan/FAN1_PWM*%
X87320000Y-60650000D03*
%TD*%
D25*
%TO.P,H13,*%
%TO.N,*%
X92250000Y-97000000D03*
%TD*%
D26*
%TO.P,C23,1*%
%TO.N,Net-(U3-BOOT)*%
X56475000Y-77300000D03*
%TO.P,C23,2*%
%TO.N,/Power/SW*%
X56475000Y-79200000D03*
%TD*%
D27*
%TO.P,R25,1*%
%TO.N,/Fan/FAN2_TACH*%
X88560000Y-67725000D03*
%TO.P,R25,2*%
%TO.N,/3V3*%
X87540000Y-67725000D03*
%TD*%
D28*
%TO.P,SW2,*%
%TO.N,*%
X81650000Y-46667500D03*
X77950000Y-46667500D03*
D29*
%TO.P,SW2,1*%
%TO.N,GND*%
X81030000Y-48867500D03*
X78570000Y-48867500D03*
D30*
%TO.P,SW2,2*%
%TO.N,/ESP32/IO0*%
X79800000Y-48767500D03*
%TD*%
D21*
%TO.P,H4,1*%
%TO.N,N/C*%
X128750000Y-172000000D03*
X129409010Y-170409010D03*
X129409010Y-173590990D03*
X131000000Y-169750000D03*
D22*
X131000000Y-172000000D03*
D21*
X131000000Y-174250000D03*
X132590990Y-170409010D03*
X132590990Y-173590990D03*
X133250000Y-172000000D03*
%TD*%
D18*
%TO.P,FID3,*%
%TO.N,*%
X53340000Y-54356000D03*
%TD*%
D31*
%TO.P,L2,1,1*%
%TO.N,/Power/SW*%
X70200000Y-76925000D03*
%TO.P,L2,2,2*%
%TO.N,/VDD*%
X70200000Y-70275000D03*
%TD*%
D32*
%TO.P,C13,1*%
%TO.N,Net-(U3-EN{slash}UVLO)*%
X55500000Y-64225000D03*
%TO.P,C13,2*%
%TO.N,/Power/AGND*%
X54540000Y-64225000D03*
%TD*%
D33*
%TO.P,C5,1*%
%TO.N,Net-(U3-BP1V5)*%
X53225000Y-79000000D03*
%TO.P,C5,2*%
%TO.N,Net-(U3-DRTN)*%
X54775000Y-79000000D03*
%TD*%
D32*
%TO.P,C36,1*%
%TO.N,/ESP32/XIN32*%
X99380000Y-56800000D03*
%TO.P,C36,2*%
%TO.N,GND*%
X98420000Y-56800000D03*
%TD*%
D34*
%TO.P,C10,1*%
%TO.N,/VIN*%
X67700000Y-63350000D03*
%TO.P,C10,2*%
%TO.N,GND*%
X73300000Y-63350000D03*
%TD*%
D25*
%TO.P,H15,*%
%TO.N,*%
X92250000Y-153000000D03*
%TD*%
D35*
%TO.P,J6,1,Pin_1*%
%TO.N,/5V*%
X121760000Y-69500000D03*
D36*
%TO.P,J6,2,Pin_2*%
%TO.N,GND*%
X119220000Y-69500000D03*
%TO.P,J6,3,Pin_3*%
%TO.N,Net-(J6-Pin_3)*%
X116680000Y-69500000D03*
%TO.P,J6,4,Pin_4*%
%TO.N,Net-(J6-Pin_4)*%
X114140000Y-69500000D03*
%TO.P,J6,5,Pin_5*%
%TO.N,Net-(J6-Pin_5)*%
X111600000Y-69500000D03*
%TO.P,J6,6,Pin_6*%
%TO.N,Net-(J6-Pin_6)*%
X109060000Y-69500000D03*
%TD*%
D14*
%TO.P,U25,1,VDD1_0*%
%TO.N,Net-(U22-VDD1_1)*%
X80916000Y-156263000D03*
%TO.P,U25,2,VDD2_0*%
%TO.N,Net-(U22-VDD2_1)*%
X80916000Y-155761000D03*
%TO.P,U25,3,VDD3_0*%
%TO.N,Net-(U22-VDD3_1)*%
X80916000Y-155259000D03*
%TO.P,U25,4,VSS*%
%TO.N,/BM1366-2/VDD2*%
X80916000Y-154757000D03*
%TO.P,U25,5,NRSTI*%
%TO.N,Net-(U22-NRSTO)*%
X80916000Y-154255000D03*
%TO.P,U25,6,BI*%
%TO.N,Net-(U22-BO)*%
X80916000Y-153753000D03*
%TO.P,U25,7,RO*%
%TO.N,Net-(U22-RI)*%
X80916000Y-153251000D03*
%TO.P,U25,8,CLKI*%
%TO.N,Net-(U22-CLKO)*%
X80916000Y-152749000D03*
%TO.P,U25,9,CI*%
%TO.N,Net-(U22-CO)*%
X80916000Y-152247000D03*
%TO.P,U25,10,ADDR0*%
%TO.N,Net-(U25-ADDR0)*%
X80916000Y-151745000D03*
%TO.P,U25,11,ADDR1*%
%TO.N,Net-(U25-ADDR1)*%
X80916000Y-151243000D03*
%TO.P,U25,12,PLL_VSS*%
%TO.N,/BM1366-2/VDD2*%
X80916000Y-150741000D03*
%TO.P,U25,13,VDDIO_08_0*%
%TO.N,/BM1366-3/0V8*%
X80916000Y-150239000D03*
%TO.P,U25,14,VDDIO_18_0*%
%TO.N,/BM1366-3/1V8*%
X80916000Y-149737000D03*
%TO.P,U25,15,VDDIO_18_1*%
X75084000Y-149750000D03*
%TO.P,U25,16,VDDIO_08_1*%
%TO.N,/BM1366-3/0V8*%
X75084000Y-150250000D03*
%TO.P,U25,17,VSS*%
%TO.N,/BM1366-2/VDD2*%
X75084000Y-150750000D03*
%TO.P,U25,18,PIN_MODE*%
%TO.N,unconnected-(U25-PIN_MODE-Pad18)*%
X75084000Y-151250000D03*
%TO.P,U25,19,INV_CLKO*%
%TO.N,Net-(U25-INV_CLKO)*%
X75084000Y-151750000D03*
%TO.P,U25,20,CO*%
%TO.N,/BM1366-3/CO3*%
X75084000Y-152247000D03*
%TO.P,U25,21,CLKO*%
%TO.N,/BM1366-3/CLKO3*%
X75084000Y-152750000D03*
%TO.P,U25,22,RI*%
%TO.N,/BM1366-3/RI3*%
X75084000Y-153251000D03*
%TO.P,U25,23,BO*%
%TO.N,/BM1366-3/BO3*%
X75084000Y-153753000D03*
%TO.P,U25,24,NRSTO*%
%TO.N,/BM1366-3/NRSTO3*%
X75084000Y-154255000D03*
%TO.P,U25,25,VSS*%
%TO.N,/BM1366-2/VDD2*%
X75084000Y-154757000D03*
%TO.P,U25,26,VDD3_1*%
%TO.N,Net-(U25-VDD3_1)*%
X75084000Y-155250000D03*
%TO.P,U25,27,VDD2_1*%
%TO.N,Net-(U25-VDD2_1)*%
X75084000Y-155761000D03*
%TO.P,U25,28,VDD1_1*%
%TO.N,Net-(U25-VDD1_1)*%
X75084000Y-156250000D03*
D15*
%TO.P,U25,29,VDD*%
%TO.N,/VDD*%
X78000000Y-155468000D03*
D16*
%TO.P,U25,30,VSS*%
%TO.N,/BM1366-2/VDD2*%
X78000000Y-151892000D03*
%TD*%
D37*
%TO.P,R8,1*%
%TO.N,/VIN*%
X55545000Y-61990000D03*
%TO.P,R8,2*%
%TO.N,Net-(U3-EN{slash}UVLO)*%
X55545000Y-63010000D03*
%TD*%
D24*
%TO.P,J9,1,Pin_1*%
%TO.N,GND*%
X84910000Y-72375000D03*
%TO.P,J9,2,Pin_2*%
%TO.N,/VIN*%
X87450000Y-72375000D03*
%TO.P,J9,3,Pin_3*%
%TO.N,/Fan/FAN2_TACH*%
X89990000Y-72375000D03*
%TO.P,J9,4,Pin_4*%
%TO.N,/Fan/FAN2_PWM*%
X92530000Y-72375000D03*
%TD*%
D38*
%TO.P,C40,1*%
%TO.N,/3V3*%
X88900000Y-173180000D03*
%TO.P,C40,2*%
%TO.N,GND*%
X88900000Y-172220000D03*
%TD*%
D25*
%TO.P,H14,*%
%TO.N,*%
X92250000Y-125000000D03*
%TD*%
D18*
%TO.P,TP6,1,1*%
%TO.N,GND*%
X81000000Y-66900000D03*
%TD*%
D25*
%TO.P,H10,*%
%TO.N,*%
X122500000Y-125000000D03*
%TD*%
D39*
%TO.P,C27,1*%
%TO.N,/VDD*%
X78300000Y-69850000D03*
%TO.P,C27,2*%
%TO.N,GND*%
X78300000Y-66900000D03*
%TD*%
D40*
%TO.P,C2,1*%
%TO.N,/VIN*%
X61845000Y-68000000D03*
%TO.P,C2,2*%
%TO.N,GND*%
X62805000Y-68000000D03*
%TD*%
D14*
%TO.P,U22,1,VDD1_0*%
%TO.N,Net-(U22-VDD1_0)*%
X110916000Y-156263000D03*
%TO.P,U22,2,VDD2_0*%
%TO.N,Net-(U22-VDD2_0)*%
X110916000Y-155761000D03*
%TO.P,U22,3,VDD3_0*%
%TO.N,Net-(U22-VDD3_0)*%
X110916000Y-155259000D03*
%TO.P,U22,4,VSS*%
%TO.N,/BM1366-2/VDD2*%
X110916000Y-154757000D03*
%TO.P,U22,5,NRSTI*%
%TO.N,/BM1366-3/NRSTI3*%
X110916000Y-154255000D03*
%TO.P,U22,6,BI*%
%TO.N,/BM1366-3/BI3*%
X110916000Y-153753000D03*
%TO.P,U22,7,RO*%
%TO.N,/BM1366-3/RO3*%
X110916000Y-153251000D03*
%TO.P,U22,8,CLKI*%
%TO.N,/BM1366-3/CLKI3*%
X110916000Y-152749000D03*
%TO.P,U22,9,CI*%
%TO.N,/BM1366-3/CI3*%
X110916000Y-152247000D03*
%TO.P,U22,10,ADDR0*%
%TO.N,Net-(U22-ADDR0)*%
X110916000Y-151745000D03*
%TO.P,U22,11,ADDR1*%
%TO.N,Net-(U22-ADDR1)*%
X110916000Y-151243000D03*
%TO.P,U22,12,PLL_VSS*%
%TO.N,/BM1366-2/VDD2*%
X110916000Y-150741000D03*
%TO.P,U22,13,VDDIO_08_0*%
%TO.N,/BM1366-3/0V8*%
X110916000Y-150239000D03*
%TO.P,U22,14,VDDIO_18_0*%
%TO.N,/BM1366-3/1V8*%
X110916000Y-149737000D03*
%TO.P,U22,15,VDDIO_18_1*%
X105084000Y-149750000D03*
%TO.P,U22,16,VDDIO_08_1*%
%TO.N,/BM1366-3/0V8*%
X105084000Y-150250000D03*
%TO.P,U22,17,VSS*%
%TO.N,/BM1366-2/VDD2*%
X105084000Y-150750000D03*
%TO.P,U22,18,PIN_MODE*%
%TO.N,unconnected-(U22-PIN_MODE-Pad18)*%
X105084000Y-151250000D03*
%TO.P,U22,19,INV_CLKO*%
%TO.N,Net-(U22-INV_CLKO)*%
X105084000Y-151750000D03*
%TO.P,U22,20,CO*%
%TO.N,Net-(U22-CO)*%
X105084000Y-152247000D03*
%TO.P,U22,21,CLKO*%
%TO.N,Net-(U22-CLKO)*%
X105084000Y-152750000D03*
%TO.P,U22,22,RI*%
%TO.N,Net-(U22-RI)*%
X105084000Y-153251000D03*
%TO.P,U22,23,BO*%
%TO.N,Net-(U22-BO)*%
X105084000Y-153753000D03*
%TO.P,U22,24,NRSTO*%
%TO.N,Net-(U22-NRSTO)*%
X105084000Y-154255000D03*
%TO.P,U22,25,VSS*%
%TO.N,/BM1366-2/VDD2*%
X105084000Y-154757000D03*
%TO.P,U22,26,VDD3_1*%
%TO.N,Net-(U22-VDD3_1)*%
X105084000Y-155250000D03*
%TO.P,U22,27,VDD2_1*%
%TO.N,Net-(U22-VDD2_1)*%
X105084000Y-155761000D03*
%TO.P,U22,28,VDD1_1*%
%TO.N,Net-(U22-VDD1_1)*%
X105084000Y-156250000D03*
D15*
%TO.P,U22,29,VDD*%
%TO.N,/VDD*%
X108000000Y-155468000D03*
D16*
%TO.P,U22,30,VSS*%
%TO.N,/BM1366-2/VDD2*%
X108000000Y-151892000D03*
%TD*%
D25*
%TO.P,H9,*%
%TO.N,*%
X62000000Y-125000000D03*
%TD*%
D18*
%TO.P,FID1,*%
%TO.N,*%
X132842000Y-54050000D03*
%TD*%
D41*
%TO.P,U9,1,SMDATA*%
%TO.N,/SDA*%
X95900000Y-67675000D03*
%TO.P,U9,2,SMCLK*%
%TO.N,/SCL*%
X95900000Y-67175000D03*
%TO.P,U9,3,VDD*%
%TO.N,/3V3*%
X95900000Y-66675000D03*
%TO.P,U9,4,GND*%
%TO.N,GND*%
X95900000Y-66175000D03*
%TO.P,U9,5,PWM1*%
%TO.N,/Fan/FAN1_PWM*%
X95900000Y-65675000D03*
%TO.P,U9,6,TACH1*%
%TO.N,/Fan/FAN1_TACH*%
X91500000Y-65675000D03*
%TO.P,U9,7,PWM2*%
%TO.N,/Fan/FAN2_PWM*%
X91500000Y-66175000D03*
%TO.P,U9,8,TACH2*%
%TO.N,/Fan/FAN2_TACH*%
X91500000Y-66675000D03*
%TO.P,U9,9,CLK*%
%TO.N,unconnected-(U9-CLK-Pad9)*%
X91500000Y-67175000D03*
%TO.P,U9,10,\u002AALERT*%
%TO.N,unconnected-(U9-\u002AALERT-Pad10)*%
X91500000Y-67675000D03*
%TD*%
D32*
%TO.P,C37,1*%
%TO.N,/ESP32/XOUT32*%
X99380000Y-59600000D03*
%TO.P,C37,2*%
%TO.N,GND*%
X98420000Y-59600000D03*
%TD*%
D27*
%TO.P,R9,1*%
%TO.N,Net-(U3-EN{slash}UVLO)*%
X55555000Y-65500000D03*
%TO.P,R9,2*%
%TO.N,/Power/AGND*%
X54535000Y-65500000D03*
%TD*%
D37*
%TO.P,R13,1*%
%TO.N,/VIN*%
X56725000Y-63890000D03*
%TO.P,R13,2*%
%TO.N,Net-(U3-AVIN)*%
X56725000Y-64910000D03*
%TD*%
D42*
%TO.P,U3,1,PGD*%
%TO.N,/Power/PGOOD*%
X55650000Y-74250000D03*
%TO.P,U3,2,PMB_DATA*%
%TO.N,/Power/PMB_SDA*%
X56150000Y-74250000D03*
%TO.P,U3,3,PMB_CLK*%
%TO.N,/Power/PMB_SCL*%
X56650000Y-74250000D03*
%TO.P,U3,4,BP1V5*%
%TO.N,Net-(U3-BP1V5)*%
X57150000Y-74250000D03*
%TO.P,U3,5,DRTN*%
%TO.N,Net-(U3-DRTN)*%
X57650000Y-74250000D03*
%TO.P,U3,6,SMB_ALRT*%
%TO.N,/Power/PMB_ALRT*%
X58150000Y-74250000D03*
%TO.P,U3,7,BOOT*%
%TO.N,Net-(U3-BOOT)*%
X58650000Y-74250000D03*
%TO.P,U3,8,SW*%
%TO.N,/Power/SW*%
X59150000Y-74250000D03*
%TO.P,U3,9,SW*%
X59650000Y-74250000D03*
%TO.P,U3,10,SW*%
X60150000Y-74250000D03*
%TO.P,U3,11,SW*%
X60650000Y-74250000D03*
%TO.P,U3,12,SW*%
X61150000Y-74250000D03*
D43*
%TO.P,U3,13,PGND*%
%TO.N,GND*%
X61900000Y-73500000D03*
%TO.P,U3,14,PGND*%
X61900000Y-73000000D03*
%TO.P,U3,15,PGND*%
X61900000Y-72500000D03*
%TO.P,U3,16,PGND*%
X61900000Y-72000000D03*
%TO.P,U3,17,PGND*%
X61900000Y-71500000D03*
%TO.P,U3,18,PGND*%
X61900000Y-71000000D03*
%TO.P,U3,19,PGND*%
X61900000Y-70500000D03*
%TO.P,U3,20,PGND*%
X61900000Y-70000000D03*
D42*
%TO.P,U3,21,PVIN*%
%TO.N,/VIN*%
X61150000Y-69250000D03*
%TO.P,U3,22,PVIN*%
X60650000Y-69250000D03*
%TO.P,U3,23,PVIN*%
X60150000Y-69250000D03*
%TO.P,U3,24,PVIN*%
X59650000Y-69250000D03*
%TO.P,U3,25,PVIN*%
X59150000Y-69250000D03*
%TO.P,U3,26,AVIN*%
%TO.N,Net-(U3-AVIN)*%
X58650000Y-69250000D03*
%TO.P,U3,27,EN/UVLO*%
%TO.N,Net-(U3-EN{slash}UVLO)*%
X58150000Y-69250000D03*
%TO.P,U3,28,VDD5*%
%TO.N,Net-(U3-VDD5)*%
X57650000Y-69250000D03*
%TO.P,U3,29,MSEL2*%
%TO.N,Net-(U3-MSEL2)*%
X57150000Y-69250000D03*
%TO.P,U3,30,VSEL*%
%TO.N,Net-(U3-VSEL)*%
X56650000Y-69250000D03*
%TO.P,U3,31,ADRSEL*%
%TO.N,Net-(U3-ADRSEL)*%
X56150000Y-69250000D03*
%TO.P,U3,32,MSEL1*%
%TO.N,Net-(U3-MSEL1)*%
X55650000Y-69250000D03*
D43*
%TO.P,U3,33,VOSNS*%
%TO.N,Net-(U3-VOSNS)*%
X54900000Y-70000000D03*
%TO.P,U3,34,GOSNS*%
%TO.N,Net-(U3-GOSNS)*%
X54900000Y-70500000D03*
%TO.P,U3,35,VSHARE*%
%TO.N,unconnected-(U3-VSHARE-Pad35)*%
X54900000Y-71000000D03*
%TO.P,U3,36,NC*%
%TO.N,unconnected-(U3-NC-Pad36)*%
X54900000Y-71500000D03*
%TO.P,U3,37,AGND*%
%TO.N,/Power/AGND*%
X54900000Y-72000000D03*
%TO.P,U3,38,SYNC*%
%TO.N,unconnected-(U3-SYNC-Pad38)*%
X54900000Y-72500000D03*
%TO.P,U3,39,BCX_CLK*%
%TO.N,unconnected-(U3-BCX_CLK-Pad39)*%
X54900000Y-73000000D03*
%TO.P,U3,40,BCX_DAT*%
%TO.N,unconnected-(U3-BCX_DAT-Pad40)*%
X54900000Y-73500000D03*
D44*
%TO.P,U3,41,PAD*%
%TO.N,GND*%
X57000000Y-73030000D03*
X58400000Y-73030000D03*
X59800000Y-73030000D03*
X56000000Y-71750000D03*
X57000000Y-71750000D03*
X58400000Y-71750000D03*
D45*
X58400000Y-71750000D03*
D44*
X59800000Y-71750000D03*
X60800000Y-71750000D03*
X57000000Y-70470000D03*
X58400000Y-70470000D03*
X59800000Y-70470000D03*
%TD*%
D18*
%TO.P,FID7,*%
%TO.N,*%
X58725000Y-173825000D03*
%TD*%
D40*
%TO.P,C16,1*%
%TO.N,/VIN*%
X61845000Y-66825000D03*
%TO.P,C16,2*%
%TO.N,GND*%
X62805000Y-66825000D03*
%TD*%
D46*
%TO.P,U7,1,SCL*%
%TO.N,/SCL*%
X83500100Y-54899999D03*
%TO.P,U7,2,GND*%
%TO.N,GND*%
X83500100Y-54400000D03*
%TO.P,U7,3,ALERT*%
%TO.N,unconnected-(U7-ALERT-Pad3)*%
X83500100Y-53900001D03*
%TO.P,U7,4,A0*%
%TO.N,/SDA*%
X81899900Y-53900001D03*
%TO.P,U7,5,V+*%
%TO.N,/3V3*%
X81899900Y-54400000D03*
%TO.P,U7,6,SDA*%
%TO.N,/SDA*%
X81899900Y-54899999D03*
%TD*%
D25*
%TO.P,H12,*%
%TO.N,*%
X122500000Y-153000000D03*
%TD*%
D26*
%TO.P,C22,1*%
%TO.N,/Power/SW*%
X58575000Y-77300000D03*
%TO.P,C22,2*%
%TO.N,Net-(C22-Pad2)*%
X58575000Y-79200000D03*
%TD*%
D14*
%TO.P,U13,1,VDD1_0*%
%TO.N,Net-(U12-VDD1_1)*%
X80916000Y-100263000D03*
%TO.P,U13,2,VDD2_0*%
%TO.N,Net-(U12-VDD2_1)*%
X80916000Y-99761000D03*
%TO.P,U13,3,VDD3_0*%
%TO.N,Net-(U12-VDD3_1)*%
X80916000Y-99259000D03*
%TO.P,U13,4,VSS*%
%TO.N,GND*%
X80916000Y-98757000D03*
%TO.P,U13,5,NRSTI*%
%TO.N,Net-(U12-NRSTO)*%
X80916000Y-98255000D03*
%TO.P,U13,6,BI*%
%TO.N,Net-(U12-BO)*%
X80916000Y-97753000D03*
%TO.P,U13,7,RO*%
%TO.N,Net-(U12-RI)*%
X80916000Y-97251000D03*
%TO.P,U13,8,CLKI*%
%TO.N,Net-(U12-CLKO)*%
X80916000Y-96749000D03*
%TO.P,U13,9,CI*%
%TO.N,Net-(U12-CO)*%
X80916000Y-96247000D03*
%TO.P,U13,10,ADDR0*%
%TO.N,Net-(U13-ADDR0)*%
X80916000Y-95745000D03*
%TO.P,U13,11,ADDR1*%
%TO.N,Net-(U13-ADDR1)*%
X80916000Y-95243000D03*
%TO.P,U13,12,PLL_VSS*%
%TO.N,GND*%
X80916000Y-94741000D03*
%TO.P,U13,13,VDDIO_08_0*%
%TO.N,/BM1366-1/0V8*%
X80916000Y-94239000D03*
%TO.P,U13,14,VDDIO_18_0*%
%TO.N,/BM1366-1/1V8*%
X80916000Y-93737000D03*
%TO.P,U13,15,VDDIO_18_1*%
X75084000Y-93750000D03*
%TO.P,U13,16,VDDIO_08_1*%
%TO.N,/BM1366-1/0V8*%
X75084000Y-94250000D03*
%TO.P,U13,17,VSS*%
%TO.N,GND*%
X75084000Y-94750000D03*
%TO.P,U13,18,PIN_MODE*%
%TO.N,unconnected-(U13-PIN_MODE-Pad18)*%
X75084000Y-95250000D03*
%TO.P,U13,19,INV_CLKO*%
%TO.N,Net-(U13-INV_CLKO)*%
X75084000Y-95750000D03*
%TO.P,U13,20,CO*%
%TO.N,/BM1366-1/CO*%
X75084000Y-96247000D03*
%TO.P,U13,21,CLKO*%
%TO.N,Net-(U13-CLKO)*%
X75084000Y-96750000D03*
%TO.P,U13,22,RI*%
%TO.N,/BM1366-1/RI*%
X75084000Y-97251000D03*
%TO.P,U13,23,BO*%
%TO.N,/BM1366-1/BO*%
X75084000Y-97753000D03*
%TO.P,U13,24,NRSTO*%
%TO.N,/BM1366-1/NRSTO*%
X75084000Y-98255000D03*
%TO.P,U13,25,VSS*%
%TO.N,GND*%
X75084000Y-98757000D03*
%TO.P,U13,26,VDD3_1*%
%TO.N,Net-(U13-VDD3_1)*%
X75084000Y-99250000D03*
%TO.P,U13,27,VDD2_1*%
%TO.N,Net-(U13-VDD2_1)*%
X75084000Y-99761000D03*
%TO.P,U13,28,VDD1_1*%
%TO.N,Net-(U13-VDD1_1)*%
X75084000Y-100250000D03*
D15*
%TO.P,U13,29,VDD*%
%TO.N,/BM1366-1/VDD1*%
X78000000Y-99468000D03*
D16*
%TO.P,U13,30,VSS*%
%TO.N,GND*%
X78000000Y-95892000D03*
%TD*%
D25*
%TO.P,H8,*%
%TO.N,*%
X122500000Y-97000000D03*
%TD*%
%TO.P,H7,*%
%TO.N,*%
X62000000Y-97000000D03*
%TD*%
D35*
%TO.P,J5,1,Pin_1*%
%TO.N,GND*%
X125800000Y-55200000D03*
D36*
%TO.P,J5,2,Pin_2*%
%TO.N,/3V3*%
X125800000Y-57740000D03*
%TO.P,J5,3,Pin_3*%
%TO.N,/SCL*%
X125800000Y-60280000D03*
%TO.P,J5,4,Pin_4*%
%TO.N,/SDA*%
X125800000Y-62820000D03*
%TD*%
D47*
%TO.P,U6,1,GND*%
%TO.N,GND*%
X104350000Y-47780000D03*
%TO.P,U6,2,3V3*%
%TO.N,/3V3*%
X104350000Y-49050000D03*
%TO.P,U6,3,EN*%
%TO.N,/ESP32/EN*%
X104350000Y-50320000D03*
%TO.P,U6,4,GPIO4/TOUCH4/ADC1_CH3*%
%TO.N,Net-(U6-GPIO4{slash}TOUCH4{slash}ADC1_CH3)*%
X104350000Y-51590000D03*
%TO.P,U6,5,GPIO5/TOUCH5/ADC1_CH4*%
%TO.N,Net-(U6-GPIO5{slash}TOUCH5{slash}ADC1_CH4)*%
X104350000Y-52860000D03*
%TO.P,U6,6,GPIO6/TOUCH6/ADC1_CH5*%
%TO.N,Net-(U6-GPIO6{slash}TOUCH6{slash}ADC1_CH5)*%
X104350000Y-54130000D03*
%TO.P,U6,7,GPIO7/TOUCH7/ADC1_CH6*%
%TO.N,Net-(U6-GPIO7{slash}TOUCH7{slash}ADC1_CH6)*%
X104350000Y-55400000D03*
%TO.P,U6,8,GPIO15/U0RTS/ADC2_CH4/XTAL_32K_P*%
%TO.N,/ESP32/XIN32*%
X104350000Y-56670000D03*
%TO.P,U6,9,GPIO16/U0CTS/ADC2_CH5/XTAL_32K_NH5*%
%TO.N,/ESP32/XOUT32*%
X104350000Y-57940000D03*
%TO.P,U6,10,GPIO17/U1TXD/ADC2_CH6*%
%TO.N,/ESP32/ESP32_TX*%
X104350000Y-59210000D03*
%TO.P,U6,11,GPIO18/U1RXD/ADC2_CH7/CLK_OUT3*%
%TO.N,/ESP32/ESP32_RX*%
X104350000Y-60480000D03*
%TO.P,U6,12,GPIO8/TOUCH8/ADC1_CH7/SUBSPICS1*%
%TO.N,Net-(U6-GPIO8{slash}TOUCH8{slash}ADC1_CH7{slash}SUBSPICS1)*%
X104350000Y-61750000D03*
%TO.P,U6,13,GPIO19/U1RTS/ADC2_CH8/CLK_OUT2/USB_D-*%
%TO.N,Net-(U6-GPIO19{slash}U1RTS{slash}ADC2_CH8{slash}CLK_OUT2{slash}USB_D-)*%
X104350000Y-63020000D03*
%TO.P,U6,14,GPIO20/U1CTS/ADC2_CH9/CLK_OUT1/USB_D+*%
%TO.N,Net-(U6-GPIO20{slash}U1CTS{slash}ADC2_CH9{slash}CLK_OUT1{slash}USB_D+)*%
X104350000Y-64290000D03*
D48*
%TO.P,U6,15,GPIO3/TOUCH3/ADC1_CH2\u002A*%
%TO.N,/3V3*%
X106115000Y-65540000D03*
%TO.P,U6,16,\u002AGPIO46*%
%TO.N,unconnected-(U6-\u002AGPIO46-Pad16)*%
X107385000Y-65540000D03*
%TO.P,U6,17,GPIO9/TOUCH9/ADC1_CH8/FSPIHD/SUBSPIHD*%
%TO.N,Net-(U6-GPIO9{slash}TOUCH9{slash}ADC1_CH8{slash}FSPIHD{slash}SUBSPIHD)*%
X108655000Y-65540000D03*
%TO.P,U6,18,GPIO10/TOUCH10/ADC1_CH9/FSPICS0/FSPIIO4/SUBSPICS0*%
%TO.N,unconnected-(U6-GPIO10{slash}TOUCH10{slash}ADC1_CH9{slash}FSPICS0{slash}FSPIIO4{slash}SUBSPICS0-Pad18)*%
X109925000Y-65540000D03*
%TO.P,U6,19,GPIO11/TOUCH11/ADC2_CH0/FSPID/FSPIIO5/SUBSPID*%
%TO.N,/Power/PGOOD*%
X111195000Y-65540000D03*
%TO.P,U6,20,GPIO12/TOUCH12/ADC2_CH1/FSPICLK/FSPIIO6/SUBSPICLK*%
%TO.N,Net-(U6-GPIO12{slash}TOUCH12{slash}ADC2_CH1{slash}FSPICLK{slash}FSPIIO6{slash}SUBSPICLK)*%
X112465000Y-65540000D03*
%TO.P,U6,21,GPIO13/TOUCH13/ADC2_CH2/FSPIQ/FSPIIO7/SUBSPIQ*%
%TO.N,/SMB_ALRT*%
X113735000Y-65540000D03*
%TO.P,U6,22,GPIO14/TOUCH14/ADC2_CH3/FSPIWP/FSPIDQS/SUBSPIWP*%
%TO.N,Net-(U6-GPIO14{slash}TOUCH14{slash}ADC2_CH3{slash}FSPIWP{slash}FSPIDQS{slash}SUBSPIWP)*%
X115005000Y-65540000D03*
%TO.P,U6,23,GPIO21*%
%TO.N,unconnected-(U6-GPIO21-Pad23)*%
X116275000Y-65540000D03*
%TO.P,U6,24,GPIO47/SPICLK_P/SUBSPICLK_P_DIFF*%
%TO.N,/SDA*%
X117545000Y-65540000D03*
%TO.P,U6,25,GPIO48/SPICLK_N/SUBSPICLK_N_DIFF*%
%TO.N,/SCL*%
X118815000Y-65540000D03*
%TO.P,U6,26,\u002AGPIO45*%
%TO.N,unconnected-(U6-\u002AGPIO45-Pad26)*%
X120085000Y-65540000D03*
D47*
%TO.P,U6,27,GPIO0/BOOT\u002A*%
%TO.N,/ESP32/IO0*%
X121850000Y-64290000D03*
%TO.P,U6,28,SPIIO6/GPIO35/FSPID/SUBSPID*%
%TO.N,Net-(U6-SPIIO6{slash}GPIO35{slash}FSPID{slash}SUBSPID)*%
X121850000Y-63020000D03*
%TO.P,U6,29,SPIIO7/GPIO36/FSPICLK/SUBSPICLK*%
%TO.N,Net-(U6-SPIIO7{slash}GPIO36{slash}FSPICLK{slash}SUBSPICLK)*%
X121850000Y-61750000D03*
%TO.P,U6,30,SPIDQS/GPIO37/FSPIQ/SUBSPIQ*%
%TO.N,Net-(U6-SPIDQS{slash}GPIO37{slash}FSPIQ{slash}SUBSPIQ)*%
X121850000Y-60480000D03*
%TO.P,U6,31,GPIO38/FSPIWP/SUBSPIWP*%
%TO.N,Net-(U6-GPIO38{slash}FSPIWP{slash}SUBSPIWP)*%
X121850000Y-59210000D03*
%TO.P,U6,32,MTCK/GPIO39/CLK_OUT3/SUBSPICS1*%
%TO.N,Net-(J6-Pin_3)*%
X121850000Y-57940000D03*
%TO.P,U6,33,MTDO/GPIO40/CLK_OUT2*%
%TO.N,Net-(J6-Pin_4)*%
X121850000Y-56670000D03*
%TO.P,U6,34,MTDI/GPIO41/CLK_OUT1*%
%TO.N,Net-(J6-Pin_5)*%
X121850000Y-55400000D03*
%TO.P,U6,35,MTMS/GPIO42*%
%TO.N,Net-(J6-Pin_6)*%
X121850000Y-54130000D03*
%TO.P,U6,36,U0RXD/GPIO44/CLK_OUT2*%
%TO.N,/ESP32/P_RX*%
X121850000Y-52860000D03*
%TO.P,U6,37,U0TXD/GPIO43/CLK_OUT1*%
%TO.N,/ESP32/P_TX*%
X121850000Y-51590000D03*
%TO.P,U6,38,GPIO2/TOUCH2/ADC1_CH1*%
%TO.N,/ESP32/VDD_SAMPLE*%
X121850000Y-50320000D03*
%TO.P,U6,39,GPIO1/TOUCH1/ADC1_CH0*%
%TO.N,/ESP32/ASIC_RST*%
X121850000Y-49050000D03*
%TO.P,U6,40,GND*%
%TO.N,GND*%
X121850000Y-47780000D03*
D49*
%TO.P,U6,41,GND*%
X110200000Y-54100000D03*
X110200000Y-55500000D03*
X110200000Y-56900000D03*
X111600000Y-54100000D03*
X111600000Y-55500000D03*
X111600000Y-56900000D03*
X113000000Y-54100000D03*
X113000000Y-55500000D03*
X113000000Y-56900000D03*
%TD*%
D50*
%TO.P,C9,1*%
%TO.N,/VIN*%
X62225000Y-60675000D03*
%TO.P,C9,2*%
%TO.N,GND*%
X65175000Y-60675000D03*
%TD*%
D18*
%TO.P,FID5,*%
%TO.N,*%
X125984000Y-173228000D03*
%TD*%
D51*
%TO.P,C32,1*%
%TO.N,/ESP32/EN*%
X90300000Y-53440000D03*
%TO.P,C32,2*%
%TO.N,GND*%
X90300000Y-54400000D03*
%TD*%
D21*
%TO.P,H5,1*%
%TO.N,N/C*%
X51250000Y-110750000D03*
X51909010Y-109159010D03*
X51909010Y-112340990D03*
X53500000Y-108500000D03*
D22*
X53500000Y-110750000D03*
D21*
X53500000Y-113000000D03*
X55090990Y-109159010D03*
X55090990Y-112340990D03*
X55750000Y-110750000D03*
%TD*%
D52*
%TO.P,J7,A1,GND*%
%TO.N,GND*%
X99870000Y-53420000D03*
%TO.P,J7,A4,VBUS*%
%TO.N,Net-(J7-VBUS-PadA4)*%
X99070000Y-53420000D03*
D53*
%TO.P,J7,A5,CC1*%
%TO.N,Net-(J7-CC1)*%
X97920000Y-53375000D03*
%TO.P,J7,A6,D+*%
%TO.N,Net-(U6-GPIO20{slash}U1CTS{slash}ADC2_CH9{slash}CLK_OUT1{slash}USB_D+)*%
X96920000Y-53375000D03*
%TO.P,J7,A7,D-*%
%TO.N,Net-(U6-GPIO19{slash}U1RTS{slash}ADC2_CH8{slash}CLK_OUT2{slash}USB_D-)*%
X96420000Y-53375000D03*
%TO.P,J7,A8,SBU1*%
%TO.N,unconnected-(J7-SBU1-PadA8)*%
X95420000Y-53375000D03*
D52*
%TO.P,J7,A9,VBUS*%
%TO.N,Net-(J7-VBUS-PadA4)*%
X94270000Y-53420000D03*
%TO.P,J7,A12,GND*%
%TO.N,GND*%
X93470000Y-53420000D03*
%TO.P,J7,B1,GND*%
X93470000Y-53420000D03*
%TO.P,J7,B4,VBUS*%
%TO.N,Net-(J7-VBUS-PadA4)*%
X94270000Y-53420000D03*
D53*
%TO.P,J7,B5,CC2*%
%TO.N,Net-(J7-CC2)*%
X94920000Y-53375000D03*
%TO.P,J7,B6,D+*%
%TO.N,Net-(U6-GPIO20{slash}U1CTS{slash}ADC2_CH9{slash}CLK_OUT1{slash}USB_D+)*%
X95920000Y-53375000D03*
%TO.P,J7,B7,D-*%
%TO.N,Net-(U6-GPIO19{slash}U1RTS{slash}ADC2_CH8{slash}CLK_OUT2{slash}USB_D-)*%
X97420000Y-53375000D03*
%TO.P,J7,B8,SBU2*%
%TO.N,unconnected-(J7-SBU2-PadB8)*%
X98420000Y-53375000D03*
D52*
%TO.P,J7,B9,VBUS*%
%TO.N,Net-(J7-VBUS-PadA4)*%
X99070000Y-53420000D03*
%TO.P,J7,B12,GND*%
%TO.N,GND*%
X99870000Y-53420000D03*
D54*
%TO.P,J7,S1,SHIELD*%
X100990000Y-52800000D03*
D55*
X100990000Y-48620000D03*
D54*
X92350000Y-52800000D03*
D55*
X92350000Y-48620000D03*
%TD*%
D56*
%TO.P,R17,1*%
%TO.N,/Power/PGOOD*%
X103090000Y-67225000D03*
%TO.P,R17,2*%
%TO.N,/3V3*%
X104110000Y-67225000D03*
%TD*%
D57*
%TO.P,R14,1*%
%TO.N,Net-(C22-Pad2)*%
X60387500Y-78750000D03*
%TO.P,R14,2*%
%TO.N,GND*%
X63312500Y-78750000D03*
%TD*%
D28*
%TO.P,SW1,*%
%TO.N,*%
X89200000Y-46667500D03*
X85500000Y-46667500D03*
D29*
%TO.P,SW1,1*%
%TO.N,GND*%
X88580000Y-48867500D03*
X86120000Y-48867500D03*
D30*
%TO.P,SW1,2*%
%TO.N,/ESP32/EN*%
X87350000Y-48767500D03*
%TD*%
D21*
%TO.P,H2,1,1*%
%TO.N,GND*%
X128750000Y-49500000D03*
X129409010Y-47909010D03*
X129409010Y-51090990D03*
X131000000Y-47250000D03*
D22*
X131000000Y-49500000D03*
D21*
X131000000Y-51750000D03*
X132590990Y-47909010D03*
X132590990Y-51090990D03*
X133250000Y-49500000D03*
%TD*%
%TO.P,H3,1*%
%TO.N,N/C*%
X51250000Y-172000000D03*
X51909010Y-170409010D03*
X51909010Y-173590990D03*
X53500000Y-169750000D03*
D22*
X53500000Y-172000000D03*
D21*
X53500000Y-174250000D03*
X55090990Y-170409010D03*
X55090990Y-173590990D03*
X55750000Y-172000000D03*
%TD*%
D51*
%TO.P,C24,1*%
%TO.N,Net-(U3-VOSNS)*%
X53025000Y-69795000D03*
%TO.P,C24,2*%
%TO.N,Net-(U3-GOSNS)*%
X53025000Y-70755000D03*
%TD*%
D25*
%TO.P,H11,*%
%TO.N,*%
X62000000Y-153000000D03*
%TD*%
D51*
%TO.P,C38,1*%
%TO.N,/3V3*%
X95600000Y-69120000D03*
%TO.P,C38,2*%
%TO.N,GND*%
X95600000Y-70080000D03*
%TD*%
D21*
%TO.P,H6,1*%
%TO.N,N/C*%
X128750000Y-110750000D03*
X129409010Y-109159010D03*
X129409010Y-112340990D03*
X131000000Y-108500000D03*
D22*
X131000000Y-110750000D03*
D21*
X131000000Y-113000000D03*
X132590990Y-109159010D03*
X132590990Y-112340990D03*
X133250000Y-110750000D03*
%TD*%
D58*
%TO.P,C14,1*%
%TO.N,/VIN*%
X62125000Y-65275000D03*
%TO.P,C14,2*%
%TO.N,GND*%
X64025000Y-65275000D03*
%TD*%
D46*
%TO.P,U8,1,SCL*%
%TO.N,/SCL*%
X92400900Y-173699999D03*
%TO.P,U8,2,GND*%
%TO.N,GND*%
X92400900Y-173200000D03*
%TO.P,U8,3,ALERT*%
%TO.N,unconnected-(U8-ALERT-Pad3)*%
X92400900Y-172700001D03*
%TO.P,U8,4,A0*%
%TO.N,/SCL*%
X90800700Y-172700001D03*
%TO.P,U8,5,V+*%
%TO.N,/3V3*%
X90800700Y-173200000D03*
%TO.P,U8,6,SDA*%
%TO.N,/SDA*%
X90800700Y-173699999D03*
%TD*%
D18*
%TO.P,TP32,1,1*%
%TO.N,Net-(J7-VBUS-PadA4)*%
X93300000Y-56750000D03*
%TD*%
D27*
%TO.P,R24,1*%
%TO.N,/Fan/FAN1_TACH*%
X88535000Y-66125000D03*
%TO.P,R24,2*%
%TO.N,/3V3*%
X87515000Y-66125000D03*
%TD*%
D14*
%TO.P,U12,1,VDD1_0*%
%TO.N,Net-(U12-VDD1_0)*%
X110916000Y-100263000D03*
%TO.P,U12,2,VDD2_0*%
%TO.N,Net-(U12-VDD2_0)*%
X110916000Y-99761000D03*
%TO.P,U12,3,VDD3_0*%
%TO.N,Net-(U12-VDD3_0)*%
X110916000Y-99259000D03*
%TO.P,U12,4,VSS*%
%TO.N,GND*%
X110916000Y-98757000D03*
%TO.P,U12,5,NRSTI*%
%TO.N,/NRSTI*%
X110916000Y-98255000D03*
%TO.P,U12,6,BI*%
%TO.N,/BM1366-1/BI1*%
X110916000Y-97753000D03*
%TO.P,U12,7,RO*%
%TO.N,/RO*%
X110916000Y-97251000D03*
%TO.P,U12,8,CLKI*%
%TO.N,/BM1366-1/CLKI1*%
X110916000Y-96749000D03*
%TO.P,U12,9,CI*%
%TO.N,/CI*%
X110916000Y-96247000D03*
%TO.P,U12,10,ADDR0*%
%TO.N,Net-(U12-ADDR0)*%
X110916000Y-95745000D03*
%TO.P,U12,11,ADDR1*%
%TO.N,Net-(U12-ADDR1)*%
X110916000Y-95243000D03*
%TO.P,U12,12,PLL_VSS*%
%TO.N,GND*%
X110916000Y-94741000D03*
%TO.P,U12,13,VDDIO_08_0*%
%TO.N,/BM1366-1/0V8*%
X110916000Y-94239000D03*
%TO.P,U12,14,VDDIO_18_0*%
%TO.N,/BM1366-1/1V8*%
X110916000Y-93737000D03*
%TO.P,U12,15,VDDIO_18_1*%
X105084000Y-93750000D03*
%TO.P,U12,16,VDDIO_08_1*%
%TO.N,/BM1366-1/0V8*%
X105084000Y-94250000D03*
%TO.P,U12,17,VSS*%
%TO.N,GND*%
X105084000Y-94750000D03*
%TO.P,U12,18,PIN_MODE*%
%TO.N,unconnected-(U12-PIN_MODE-Pad18)*%
X105084000Y-95250000D03*
%TO.P,U12,19,INV_CLKO*%
%TO.N,Net-(U12-INV_CLKO)*%
X105084000Y-95750000D03*
%TO.P,U12,20,CO*%
%TO.N,Net-(U12-CO)*%
X105084000Y-96247000D03*
%TO.P,U12,21,CLKO*%
%TO.N,Net-(U12-CLKO)*%
X105084000Y-96750000D03*
%TO.P,U12,22,RI*%
%TO.N,Net-(U12-RI)*%
X105084000Y-97251000D03*
%TO.P,U12,23,BO*%
%TO.N,Net-(U12-BO)*%
X105084000Y-97753000D03*
%TO.P,U12,24,NRSTO*%
%TO.N,Net-(U12-NRSTO)*%
X105084000Y-98255000D03*
%TO.P,U12,25,VSS*%
%TO.N,GND*%
X105084000Y-98757000D03*
%TO.P,U12,26,VDD3_1*%
%TO.N,Net-(U12-VDD3_1)*%
X105084000Y-99250000D03*
%TO.P,U12,27,VDD2_1*%
%TO.N,Net-(U12-VDD2_1)*%
X105084000Y-99761000D03*
%TO.P,U12,28,VDD1_1*%
%TO.N,Net-(U12-VDD1_1)*%
X105084000Y-100250000D03*
D15*
%TO.P,U12,29,VDD*%
%TO.N,/BM1366-1/VDD1*%
X108000000Y-99468000D03*
D16*
%TO.P,U12,30,VSS*%
%TO.N,GND*%
X108000000Y-95892000D03*
%TD*%
D35*
%TO.P,J3,1,Pin_1*%
%TO.N,unconnected-(J3-Pin_1-Pad1)*%
X54450000Y-98970000D03*
D36*
%TO.P,J3,2,Pin_2*%
%TO.N,unconnected-(J3-Pin_2-Pad2)*%
X56990000Y-98970000D03*
%TO.P,J3,3,Pin_3*%
%TO.N,unconnected-(J3-Pin_3-Pad3)*%
X54450000Y-96430000D03*
%TO.P,J3,4,Pin_4*%
%TO.N,unconnected-(J3-Pin_4-Pad4)*%
X56990000Y-96430000D03*
%TO.P,J3,5,Pin_5*%
%TO.N,unconnected-(J3-Pin_5-Pad5)*%
X54450000Y-93890000D03*
%TO.P,J3,6,Pin_6*%
%TO.N,GND*%
X56990000Y-93890000D03*
%TO.P,J3,7,Pin_7*%
%TO.N,unconnected-(J3-Pin_7-Pad7)*%
X54450000Y-91350000D03*
%TO.P,J3,8,Pin_8*%
%TO.N,/Power/PMB_ALRT*%
X56990000Y-91350000D03*
%TO.P,J3,9,Pin_9*%
%TO.N,/Power/PMB_SCL*%
X54450000Y-88810000D03*
%TO.P,J3,10,Pin_10*%
%TO.N,/Power/PMB_SDA*%
X56990000Y-88810000D03*
%TD*%
D59*
%TO.N,GND*%
X82350000Y-94425000D03*
D60*
X106200000Y-81550000D03*
X103500000Y-77100000D03*
D59*
X65825000Y-83275000D03*
D60*
X68325000Y-59175000D03*
X66800000Y-65150000D03*
X108750000Y-56900000D03*
X99850000Y-55000000D03*
X66800000Y-67625000D03*
D59*
X63200000Y-73600000D03*
D60*
X78000000Y-88180000D03*
X108750000Y-89250000D03*
D59*
X63200000Y-71200000D03*
D60*
X109500000Y-88250000D03*
X114500000Y-54100000D03*
X109500000Y-90250000D03*
D59*
X64200000Y-72800000D03*
D60*
X128900000Y-68800000D03*
X124800000Y-73450000D03*
X98025000Y-107000000D03*
D59*
X64200000Y-71800000D03*
D60*
X66800000Y-61075000D03*
X78000000Y-90250000D03*
D59*
X74025000Y-94900000D03*
X64125000Y-104050000D03*
X64200000Y-69800000D03*
D60*
X108000000Y-88250000D03*
D59*
X95600000Y-71250000D03*
X63900000Y-67425000D03*
D60*
X120000000Y-47900000D03*
X106500000Y-88250000D03*
X77650000Y-65600000D03*
D59*
X84675000Y-100025000D03*
D60*
X100800000Y-73050000D03*
X79500000Y-90250000D03*
D59*
X77600000Y-52550000D03*
X83600000Y-49400000D03*
D60*
X117072050Y-78910200D03*
X106500000Y-90250000D03*
D59*
X96400000Y-85800000D03*
D60*
X99625000Y-108500000D03*
X89750000Y-104650000D03*
X126200000Y-82200000D03*
X76500000Y-92250000D03*
X78750000Y-89250000D03*
X75900000Y-65400000D03*
D59*
X69700000Y-78875000D03*
D60*
X107250000Y-89250000D03*
X77250000Y-91250000D03*
X74550000Y-59200000D03*
D59*
X63200000Y-70000000D03*
D60*
X98025000Y-108500000D03*
D59*
X104072842Y-94752612D03*
X117575000Y-98975000D03*
X124425000Y-102500000D03*
D60*
X106200000Y-80100000D03*
X114850000Y-80450000D03*
X111200000Y-50900000D03*
D59*
X116000000Y-98775000D03*
X101175000Y-89850000D03*
D60*
X107250000Y-91250000D03*
X78750000Y-91250000D03*
X106500000Y-92250000D03*
X75925000Y-62825000D03*
D59*
X72000000Y-99550000D03*
D60*
X108000000Y-92250000D03*
X78000000Y-92250000D03*
X78950000Y-65600000D03*
X71375000Y-67600000D03*
X69075000Y-67625000D03*
D59*
X65800000Y-82325000D03*
D60*
X74650000Y-65400000D03*
X77250000Y-89250000D03*
D59*
X69700000Y-80000000D03*
D60*
X66825000Y-66400000D03*
X99625000Y-107000000D03*
D59*
X112475000Y-94500000D03*
D60*
X87437500Y-86275000D03*
D59*
X65825000Y-84225000D03*
D60*
X75925000Y-64075000D03*
D59*
X63200000Y-72400000D03*
X64200000Y-70800000D03*
D60*
X73300000Y-59175000D03*
X76500000Y-90250000D03*
X84625000Y-111025000D03*
X93250000Y-55000000D03*
X79550000Y-88220000D03*
X100775000Y-70975000D03*
D59*
X94225000Y-66175000D03*
D60*
X76530000Y-88210000D03*
D59*
X131400000Y-59300000D03*
X85100000Y-54050000D03*
D60*
X108000000Y-90250000D03*
D59*
X120000000Y-106700000D03*
D60*
X69625000Y-59150000D03*
D59*
X65850000Y-78850000D03*
X87750000Y-90650000D03*
D60*
X98400000Y-58100000D03*
D59*
X101725000Y-100000000D03*
D60*
X124600000Y-87200000D03*
D59*
X64200000Y-73800000D03*
D60*
X108750000Y-91250000D03*
X66800000Y-59875000D03*
X109500000Y-92250000D03*
D59*
X63425000Y-109800000D03*
D60*
X86125000Y-111025000D03*
X79500000Y-92250000D03*
D59*
%TO.N,/VDD*%
X75975000Y-82300000D03*
D60*
X108000000Y-157750000D03*
X77825000Y-84200000D03*
X78750000Y-158750000D03*
X108750000Y-158750000D03*
X105750000Y-158750000D03*
X75725000Y-71150000D03*
X109500000Y-159750000D03*
X80025000Y-84175000D03*
X81475000Y-78325000D03*
X108000000Y-159750000D03*
X79225000Y-79175000D03*
X76500000Y-159750000D03*
X81475000Y-76050000D03*
X107250000Y-160750000D03*
X78925000Y-84175000D03*
X78750000Y-160750000D03*
X81975000Y-81400000D03*
D59*
X124780000Y-140100000D03*
D60*
X81475000Y-73725000D03*
X78000000Y-159750000D03*
D59*
X124080000Y-131600000D03*
D60*
X109500000Y-157750000D03*
D59*
X124130000Y-146370000D03*
D60*
X106500000Y-159750000D03*
X76500000Y-157750000D03*
X106500000Y-157750000D03*
X110250000Y-158750000D03*
X108750000Y-160750000D03*
X77250000Y-160750000D03*
X79250000Y-75000000D03*
X79150000Y-81725000D03*
X79500000Y-159750000D03*
D59*
X74875000Y-78875000D03*
D60*
X75750000Y-158750000D03*
X79500000Y-157750000D03*
X77000000Y-78350000D03*
D59*
X74900000Y-80000000D03*
X75975000Y-84175000D03*
D60*
X80850000Y-83375000D03*
X77550000Y-71150000D03*
X78000000Y-157750000D03*
X75050000Y-72050000D03*
X77400000Y-73350000D03*
X77250000Y-158750000D03*
X107250000Y-158750000D03*
X81625000Y-82525000D03*
X79000000Y-71150000D03*
D59*
X94725000Y-80150000D03*
D60*
X75200000Y-73950000D03*
X77000000Y-76150000D03*
D59*
X75975000Y-83225000D03*
D60*
X73850000Y-72100000D03*
X80250000Y-158750000D03*
D59*
%TO.N,/ESP32/EN*%
X102650000Y-49550000D03*
X124275000Y-50938100D03*
X87300000Y-52450000D03*
%TO.N,/5V*%
X96350000Y-119800000D03*
X96900000Y-139175000D03*
X98150000Y-85225000D03*
X98725000Y-116325000D03*
X96850000Y-141925000D03*
X98425000Y-111100000D03*
X98900000Y-88895000D03*
D60*
X111050000Y-82800000D03*
X111050000Y-81550000D03*
X112400000Y-81550000D03*
D59*
X95600000Y-148800000D03*
X98587500Y-90900000D03*
X98775000Y-114348100D03*
X92175000Y-61850000D03*
X96900000Y-144325000D03*
%TO.N,/3V3*%
X80050000Y-53250000D03*
D60*
X106200000Y-49100000D03*
X126300000Y-69200000D03*
D59*
X130300000Y-55700000D03*
X87550000Y-66925000D03*
D60*
X125200000Y-84600000D03*
D59*
X99550000Y-65425000D03*
D60*
X121322050Y-77710200D03*
D59*
X106100000Y-67100000D03*
X87775000Y-53350000D03*
X94200000Y-69125000D03*
D60*
X100975000Y-79025000D03*
D59*
%TO.N,/SCL*%
X96700000Y-173200000D03*
X94700000Y-172700000D03*
X62725000Y-84650000D03*
X89900000Y-172400000D03*
X118800000Y-62900000D03*
X98126900Y-63401537D03*
X86250000Y-53525000D03*
%TO.N,Net-(U3-BP1V5)*%
X53250000Y-61450000D03*
X53225000Y-77375000D03*
%TO.N,Net-(U3-AVIN)*%
X56725000Y-66050000D03*
%TO.N,Net-(U3-VDD5)*%
X57350000Y-67675000D03*
%TO.N,Net-(U3-VOSNS)*%
X53900000Y-69725000D03*
X72500000Y-73250000D03*
%TO.N,/ESP32/P_TX*%
X127350000Y-52450000D03*
%TO.N,/ESP32/P_RX*%
X127300000Y-53600000D03*
%TO.N,/ESP32/IO0*%
X83550000Y-51650000D03*
X124250000Y-47200000D03*
X124100000Y-64900000D03*
X131400000Y-64900000D03*
%TO.N,/Power/PGOOD*%
X60325000Y-83875000D03*
X107550000Y-67250000D03*
X98325000Y-69400000D03*
X101450000Y-66275000D03*
X54300000Y-75025000D03*
%TO.N,Net-(U3-GOSNS)*%
X53875000Y-70825000D03*
X71425000Y-73250000D03*
%TO.N,/SDA*%
X63900000Y-84600000D03*
X98775000Y-64375000D03*
X80300000Y-54897600D03*
X117600000Y-63900000D03*
%TO.N,/BM1366-1/0V8*%
X73200000Y-91875000D03*
X103350000Y-91900000D03*
X82725000Y-91775000D03*
X112550000Y-91975000D03*
%TO.N,/BM1366-1/1V8*%
X74450000Y-91825000D03*
X121375000Y-101950000D03*
X111400000Y-91950000D03*
X101200000Y-87050000D03*
X86050000Y-86475000D03*
X104625000Y-91875000D03*
X81450000Y-91750000D03*
%TO.N,Net-(U12-VDD3_0)*%
X114925000Y-99875000D03*
%TO.N,Net-(U13-INV_CLKO)*%
X72000000Y-93325000D03*
%TO.N,/BM1366-2/0V8*%
X72300000Y-120000000D03*
X114200000Y-119700000D03*
X83575000Y-120350000D03*
X101900000Y-119900000D03*
%TO.N,/BM1366-2/1V8*%
X82375000Y-120025000D03*
X73500000Y-119950000D03*
X113000000Y-119700000D03*
X85450000Y-113700000D03*
X103100000Y-119800000D03*
%TO.N,Net-(U13-CLKO)*%
X71950000Y-95550000D03*
%TO.N,Net-(U12-VDD2_0)*%
X113800000Y-100875000D03*
%TO.N,/NRSTI*%
X115975000Y-97675000D03*
%TO.N,/RO*%
X115975000Y-95675000D03*
%TO.N,/CI*%
X116600000Y-92800000D03*
%TO.N,/BM1366-3/0V8*%
X114000000Y-147700000D03*
X70725000Y-146800000D03*
X84800000Y-147300000D03*
X101900000Y-147800000D03*
%TO.N,/BM1366-3/1V8*%
X103200000Y-147800000D03*
X70800000Y-145575000D03*
X84775000Y-146125000D03*
X112900000Y-147700000D03*
%TO.N,Net-(U12-VDD1_0)*%
X113800000Y-102600000D03*
%TO.N,Net-(U12-VDD1_1)*%
X101700000Y-103275000D03*
X84625000Y-103175000D03*
%TO.N,Net-(U12-VDD2_1)*%
X101700000Y-102200000D03*
X84650000Y-102150000D03*
%TO.N,Net-(U12-VDD3_1)*%
X84676432Y-101098465D03*
X101725000Y-101100000D03*
%TO.N,Net-(U18-VDD1_0)*%
X114600000Y-128300000D03*
%TO.N,Net-(U18-VDD2_0)*%
X114600000Y-129400000D03*
%TO.N,Net-(U22-INV_CLKO)*%
X99400000Y-148800000D03*
%TO.N,Net-(U18-VDD3_0)*%
X114600000Y-130500000D03*
%TO.N,Net-(U18-VDD3_1)*%
X100825000Y-131000000D03*
X85325000Y-130950000D03*
%TO.N,Net-(U13-ADDR0)*%
X84625000Y-93875000D03*
%TO.N,Net-(U13-ADDR1)*%
X84625000Y-92875000D03*
%TO.N,Net-(U18-VDD2_1)*%
X100825000Y-129875000D03*
X85400000Y-129400000D03*
%TO.N,/BM1366-1/BI1*%
X116000000Y-96650000D03*
D60*
%TO.N,/VIN*%
X60725000Y-61300000D03*
X59475000Y-67350000D03*
X102800000Y-68675000D03*
X60725000Y-67300000D03*
X58400000Y-59300000D03*
X58400000Y-65300000D03*
X58400000Y-63300000D03*
X103900000Y-68675000D03*
X105000000Y-68675000D03*
X60725000Y-59300000D03*
X60725000Y-65300000D03*
X58400000Y-61300000D03*
X60725000Y-63300000D03*
D59*
%TO.N,Net-(U3-VSEL)*%
X53875000Y-67225000D03*
X54075000Y-59575000D03*
%TO.N,Net-(U18-VDD1_1)*%
X85400000Y-128350000D03*
X100875000Y-128800000D03*
%TO.N,Net-(J6-Pin_4)*%
X113500000Y-62350000D03*
%TO.N,Net-(U20-VDD3_1)*%
X71100000Y-129700000D03*
%TO.N,Net-(U20-VDD2_1)*%
X71100000Y-128600000D03*
%TO.N,Net-(U20-VDD1_1)*%
X71100000Y-127450000D03*
%TO.N,Net-(U22-ADDR0)*%
X116800000Y-147600000D03*
%TO.N,Net-(U22-ADDR1)*%
X116100000Y-146600000D03*
%TO.N,Net-(U22-VDD3_0)*%
X114600000Y-156200000D03*
%TO.N,Net-(U22-VDD2_0)*%
X114600000Y-157400000D03*
%TO.N,Net-(U22-VDD1_0)*%
X114620000Y-158700000D03*
%TO.N,/BM1366-3/NRSTO3*%
X70700000Y-155700000D03*
%TO.N,Net-(J6-Pin_6)*%
X111050000Y-62047600D03*
%TO.N,Net-(J6-Pin_3)*%
X114550000Y-63300000D03*
%TO.N,Net-(J6-Pin_5)*%
X112350000Y-62047600D03*
%TO.N,Net-(U6-GPIO4{slash}TOUCH4{slash}ADC1_CH3)*%
X102650000Y-51050000D03*
%TO.N,Net-(U6-GPIO5{slash}TOUCH5{slash}ADC1_CH4)*%
X102650000Y-52200000D03*
%TO.N,Net-(U25-VDD1_1)*%
X72400000Y-158600000D03*
%TO.N,Net-(U25-VDD2_1)*%
X71300000Y-158600000D03*
%TO.N,Net-(U25-VDD3_1)*%
X71300000Y-157500000D03*
%TO.N,/BM1366-3/BO3*%
X70700000Y-154500000D03*
%TO.N,Net-(U6-GPIO6{slash}TOUCH6{slash}ADC1_CH5)*%
X102700000Y-53450000D03*
D60*
%TO.N,/BM1366-1/VDD1*%
X83075000Y-108175000D03*
D59*
X100875000Y-127750000D03*
X84700000Y-118825000D03*
X102900000Y-111700000D03*
X125400000Y-131600000D03*
X71100000Y-126350000D03*
X85450000Y-127300000D03*
X57300000Y-112025000D03*
X69825000Y-111950000D03*
D60*
X80825000Y-117895000D03*
X81525000Y-108175000D03*
D59*
X100700000Y-119900000D03*
D60*
X100050000Y-136500000D03*
X83075000Y-106700000D03*
D59*
X73150000Y-103675000D03*
D60*
X74650000Y-117400000D03*
X86100000Y-138975000D03*
D59*
X71550000Y-115775000D03*
X113225000Y-104050000D03*
D60*
X100050000Y-135000000D03*
X84725000Y-138950000D03*
D59*
X115400000Y-119700000D03*
X102900000Y-103950000D03*
D60*
X103125000Y-106750000D03*
X98450000Y-136500000D03*
D59*
X115900000Y-128300000D03*
D60*
X98450000Y-135000000D03*
D59*
X87900000Y-114100000D03*
X71100000Y-120050000D03*
X101350000Y-117075000D03*
D60*
X103125000Y-108425000D03*
X106425000Y-118500000D03*
X81525000Y-106700000D03*
D59*
X83430000Y-104050000D03*
X124780000Y-137600000D03*
%TO.N,/BM1366-2/VDD2*%
X115200000Y-147700000D03*
X115920000Y-156140000D03*
D60*
X81750000Y-134700000D03*
D59*
X102900000Y-139775000D03*
X73175000Y-132050000D03*
D60*
X99600000Y-167700000D03*
D59*
X100600000Y-147800000D03*
X103100000Y-131400000D03*
X84800000Y-157100000D03*
D60*
X106025000Y-146800000D03*
D59*
X62825000Y-104050000D03*
D60*
X101100000Y-167700000D03*
D59*
X70200000Y-156700000D03*
D60*
X99600000Y-169000000D03*
X101100000Y-169000000D03*
D59*
X100800000Y-156400000D03*
D60*
X110175000Y-144475000D03*
X83150000Y-136000000D03*
D59*
X130925000Y-140000000D03*
X112600000Y-131700000D03*
D60*
X103450000Y-136525000D03*
X113350000Y-162125000D03*
D59*
X63425000Y-111800000D03*
X86675000Y-142175000D03*
D60*
X103450000Y-135075000D03*
X72075000Y-163825000D03*
X102500000Y-168300000D03*
D59*
X98425000Y-146275000D03*
D60*
X81750000Y-136000000D03*
D59*
X82700000Y-131550000D03*
D60*
X78150000Y-146600000D03*
X72025000Y-162475000D03*
X113325000Y-163525000D03*
X83150000Y-134700000D03*
D59*
X70700000Y-148000000D03*
X64025000Y-118700000D03*
X84800000Y-148500000D03*
%TO.N,/BM1366-3/RI3*%
X70700000Y-153200000D03*
%TO.N,/BM1366-3/CLKO3*%
X70700000Y-151900000D03*
%TO.N,/BM1366-3/CO3*%
X70700000Y-150600000D03*
%TO.N,/BM1366-1/CLKI1*%
X120200000Y-101700000D03*
%TO.N,/BM1366-2/NRSTI2*%
X59850000Y-118850000D03*
X60450000Y-113750000D03*
X71100000Y-122100000D03*
%TO.N,/BM1366-2/BI2*%
X71100000Y-123100000D03*
X59850000Y-120150000D03*
X60450000Y-108200000D03*
%TO.N,/BM1366-2/RO2*%
X66225000Y-104975000D03*
X65800000Y-121500000D03*
X71100000Y-124200000D03*
%TO.N,/BM1366-2/CI2*%
X66300000Y-118747600D03*
%TO.N,/BM1366-3/NRSTI3*%
X115900000Y-155000000D03*
X121780000Y-141700000D03*
%TO.N,/BM1366-3/BI3*%
X121842500Y-136037500D03*
X115900000Y-153700000D03*
%TO.N,/BM1366-3/RO3*%
X127500000Y-132400000D03*
X125200000Y-148900000D03*
X115400000Y-152600000D03*
%TO.N,/BM1366-3/CI3*%
X127680000Y-141700000D03*
%TO.N,/BM1366-1/NRSTO*%
X72000000Y-98500000D03*
X60675000Y-117700000D03*
X68300000Y-98500000D03*
%TO.N,/BM1366-1/CO*%
X65200000Y-115500000D03*
%TO.N,/BM1366-1/BO*%
X72000000Y-97325000D03*
%TO.N,/BM1366-1/RI*%
X69375000Y-104025000D03*
%TO.N,/BM1366-2/RI*%
X127600000Y-130300000D03*
X118100000Y-124700000D03*
X115900000Y-124700000D03*
%TO.N,/BM1366-2/NRSTO*%
X119100000Y-122300000D03*
X116000000Y-122300000D03*
X122000000Y-145400000D03*
%TO.N,/BM1366-2/BO*%
X115910000Y-123600000D03*
%TO.N,/BM1366-2/CO*%
X127600000Y-145400000D03*
X118800000Y-131400000D03*
X115910000Y-127200000D03*
%TO.N,/ESP32/ASIC_RST*%
X109900000Y-61450000D03*
%TO.N,/ESP32/ESP32_TX*%
X107100000Y-60400000D03*
%TO.N,/ESP32/ESP32_RX*%
X106000000Y-60000000D03*
%TO.N,Net-(U6-GPIO7{slash}TOUCH7{slash}ADC1_CH6)*%
X102650000Y-54850000D03*
%TO.N,Net-(U6-GPIO8{slash}TOUCH8{slash}ADC1_CH7{slash}SUBSPICS1)*%
X110100000Y-58100000D03*
%TO.N,Net-(J7-CC1)*%
X97920000Y-51460000D03*
%TO.N,Net-(J7-CC2)*%
X94860000Y-51500000D03*
%TO.N,/Power/PMB_ALRT*%
X57245199Y-76145199D03*
X57975000Y-83125000D03*
%TO.N,Net-(U6-GPIO9{slash}TOUCH9{slash}ADC1_CH8{slash}FSPIHD{slash}SUBSPIHD)*%
X111400000Y-58147600D03*
%TO.N,Net-(U12-BO)*%
X101725000Y-97600000D03*
X84675000Y-97925000D03*
%TO.N,Net-(U18-CLKO)*%
X115910000Y-126000000D03*
%TO.N,Net-(U12-CO)*%
X101750000Y-93925000D03*
X84625000Y-94900000D03*
%TO.N,/BM1366-2/CLKI2*%
X71550000Y-113850000D03*
%TO.N,Net-(U12-INV_CLKO)*%
X103175000Y-94075000D03*
%TO.N,Net-(U12-CLKO)*%
X84650000Y-95900000D03*
X101725000Y-95225000D03*
%TO.N,/BM1366-3/CLKI3*%
X116300000Y-151600000D03*
X119800000Y-146300000D03*
%TO.N,Net-(U12-NRSTO)*%
X84675000Y-98975000D03*
X101725000Y-98750000D03*
%TO.N,Net-(U12-RI)*%
X84675000Y-96900000D03*
X101725000Y-96400000D03*
%TO.N,Net-(U18-RO)*%
X85475000Y-124075000D03*
X100900000Y-124625000D03*
%TO.N,Net-(U18-INV_CLKO)*%
X100925000Y-121350000D03*
%TO.N,Net-(U18-NRSTI)*%
X85500000Y-122025000D03*
X100900000Y-122500000D03*
%TO.N,Net-(U22-VDD3_1)*%
X100700000Y-157500000D03*
X84200000Y-158300000D03*
%TO.N,Net-(U22-VDD2_1)*%
X83500000Y-159200000D03*
X101700000Y-158800000D03*
%TO.N,Net-(U22-VDD1_1)*%
X82300000Y-159200000D03*
X102600000Y-159400000D03*
%TO.N,Net-(U22-RI)*%
X100800000Y-152900000D03*
X84200000Y-153800000D03*
%TO.N,Net-(U22-NRSTO)*%
X100800000Y-155200000D03*
X84800000Y-155900000D03*
%TO.N,Net-(U22-CO)*%
X84800000Y-151800000D03*
X100800000Y-150500000D03*
%TO.N,Net-(U22-CLKO)*%
X84800000Y-152900000D03*
X100800000Y-151700000D03*
%TO.N,Net-(U22-BO)*%
X84800000Y-154800000D03*
X100800000Y-154000000D03*
%TO.N,Net-(U18-CLKI)*%
X100900000Y-125625000D03*
X85450000Y-125150000D03*
%TO.N,Net-(U18-BI)*%
X85475000Y-123050000D03*
X100874037Y-123575963D03*
%TO.N,Net-(U18-CI)*%
X85450000Y-126250000D03*
X100900000Y-126700000D03*
%TO.N,Net-(U20-INV_CLKO)*%
X71100000Y-121100000D03*
%TO.N,Net-(U25-INV_CLKO)*%
X70700000Y-149200000D03*
%TO.N,Net-(U6-GPIO12{slash}TOUCH12{slash}ADC2_CH1{slash}FSPICLK{slash}FSPIIO6{slash}SUBSPICLK)*%
X110250000Y-63950000D03*
%TO.N,Net-(U6-GPIO14{slash}TOUCH14{slash}ADC2_CH3{slash}FSPIWP{slash}FSPIDQS{slash}SUBSPIWP)*%
X109600000Y-62500000D03*
%TO.N,Net-(U6-SPIIO6{slash}GPIO35{slash}FSPID{slash}SUBSPID)*%
X123500000Y-62448100D03*
%TO.N,Net-(U6-SPIIO7{slash}GPIO36{slash}FSPICLK{slash}SUBSPICLK)*%
X123500000Y-61300000D03*
%TO.N,Net-(U6-SPIDQS{slash}GPIO37{slash}FSPIQ{slash}SUBSPIQ)*%
X123500000Y-60000000D03*
%TO.N,Net-(U6-GPIO38{slash}FSPIWP{slash}SUBSPIWP)*%
X123500000Y-58700000D03*
D60*
%TO.N,Net-(J7-VBUS-PadA4)*%
X98450000Y-55000000D03*
X95300000Y-55000000D03*
D59*
%TO.N,Net-(U12-ADDR0)*%
X114025000Y-93025000D03*
%TO.N,Net-(U13-VDD3_1)*%
X71975000Y-100530000D03*
%TO.N,Net-(U12-ADDR1)*%
X113725000Y-91950000D03*
%TO.N,Net-(U13-VDD2_1)*%
X71975000Y-101600000D03*
%TO.N,Net-(U18-ADDR0)*%
X117800000Y-118700000D03*
%TO.N,Net-(U13-VDD1_1)*%
X71950000Y-102590000D03*
%TO.N,Net-(U18-ADDR1)*%
X116600000Y-117600000D03*
%TO.N,Net-(U20-ADDR0)*%
X85500000Y-120875000D03*
%TO.N,Net-(U20-ADDR1)*%
X85475000Y-119725000D03*
%TO.N,Net-(U25-ADDR0)*%
X84800000Y-150700000D03*
%TO.N,Net-(U25-ADDR1)*%
X84800000Y-149600000D03*
%TO.N,Net-(U3-MSEL1)*%
X53850000Y-68675000D03*
%TO.N,/ESP32/VDD_SAMPLE*%
X123800000Y-49900000D03*
%TO.N,/Power/SW*%
X65025000Y-75575000D03*
X65075000Y-77500000D03*
X61675000Y-76675000D03*
X65050000Y-76550000D03*
X59650000Y-75775000D03*
X61025000Y-75750000D03*
X60300000Y-76675000D03*
%TO.N,Net-(U3-MSEL2)*%
X55275000Y-59575000D03*
X54750000Y-66475000D03*
D60*
%TO.N,/Power/AGND*%
X53700000Y-72000000D03*
D59*
X53175000Y-58075000D03*
X54550000Y-63250000D03*
%TO.N,/Power/PMB_SCL*%
X54250718Y-76926555D03*
X55175000Y-85675000D03*
%TO.N,/Power/PMB_SDA*%
X54225000Y-75975000D03*
X56325000Y-85675000D03*
%TO.N,/SMB_ALRT*%
X108700000Y-63200000D03*
X97550000Y-72350000D03*
X63600000Y-91175000D03*
%TD*%
D61*
%TO.N,GND*%
X85100000Y-54050000D02*
X84750000Y-54050000D01*
D62*
X98420000Y-59600000D02*
X98420000Y-58120000D01*
X84675000Y-100025000D02*
X84400000Y-100025000D01*
D63*
X120120000Y-47780000D02*
X120000000Y-47900000D01*
X111600000Y-54100000D02*
X113000000Y-54100000D01*
X101830000Y-47780000D02*
X100990000Y-48620000D01*
X93250000Y-55000000D02*
X93250000Y-54350000D01*
X88900000Y-171425000D02*
X88900000Y-172220000D01*
X111600000Y-56900000D02*
X113000000Y-56900000D01*
X110200000Y-54100000D02*
X111600000Y-54100000D01*
D62*
X95600000Y-70080000D02*
X95600000Y-71250000D01*
X104247388Y-94752612D02*
X104250000Y-94750000D01*
X112250000Y-94500000D02*
X112009000Y-94741000D01*
D63*
X111600000Y-55500000D02*
X113000000Y-55500000D01*
X88900000Y-171425000D02*
X90450000Y-171425000D01*
D61*
X84400000Y-54400000D02*
X83500100Y-54400000D01*
D62*
X82075000Y-94425000D02*
X81759000Y-94741000D01*
D64*
X91700000Y-55000000D02*
X93250000Y-55000000D01*
D62*
X101725000Y-100000000D02*
X102375000Y-100000000D01*
D63*
X110200000Y-55500000D02*
X111600000Y-55500000D01*
D62*
X73243000Y-98757000D02*
X75084000Y-98757000D01*
X131400000Y-59300000D02*
X130800000Y-59900000D01*
X85650000Y-50600000D02*
X86120000Y-50130000D01*
D63*
X88325000Y-122500000D02*
X89750000Y-121075000D01*
D62*
X104072842Y-94752612D02*
X104247388Y-94752612D01*
D63*
X88325000Y-170475000D02*
X88325000Y-122500000D01*
X65750000Y-78750000D02*
X63287500Y-78750000D01*
D64*
X88580000Y-50030000D02*
X88580000Y-48867500D01*
D62*
X104250000Y-94750000D02*
X105084000Y-94750000D01*
D63*
X110200000Y-56900000D02*
X111600000Y-56900000D01*
D62*
X72450000Y-99550000D02*
X73243000Y-98757000D01*
X74175000Y-94750000D02*
X75084000Y-94750000D01*
D63*
X93250000Y-54350000D02*
X93470000Y-54130000D01*
D62*
X115982000Y-98757000D02*
X110916000Y-98757000D01*
D63*
X65850000Y-78850000D02*
X65750000Y-78750000D01*
D61*
X84750000Y-54050000D02*
X84400000Y-54400000D01*
D62*
X81600000Y-50600000D02*
X83600000Y-50600000D01*
X74025000Y-94900000D02*
X74175000Y-94750000D01*
D63*
X121850000Y-47780000D02*
X120120000Y-47780000D01*
D62*
X84400000Y-100025000D02*
X83132000Y-98757000D01*
D64*
X91100000Y-54400000D02*
X91100000Y-52550000D01*
D62*
X78570000Y-51580000D02*
X77600000Y-52550000D01*
D63*
X110200000Y-56900000D02*
X108750000Y-56900000D01*
D62*
X112009000Y-94741000D02*
X110916000Y-94741000D01*
X98420000Y-58080000D02*
X98400000Y-58100000D01*
X98420000Y-58120000D02*
X98400000Y-58100000D01*
X83600000Y-49400000D02*
X83600000Y-50600000D01*
X78375000Y-66975000D02*
X78300000Y-66900000D01*
D63*
X111600000Y-54100000D02*
X111600000Y-55500000D01*
D62*
X83500100Y-54400000D02*
X82800000Y-54400000D01*
X100775000Y-70975000D02*
X100790000Y-70990000D01*
D63*
X88900000Y-171050000D02*
X88325000Y-170475000D01*
X93470000Y-54130000D02*
X93470000Y-53420000D01*
D62*
X81030000Y-50030000D02*
X81600000Y-50600000D01*
X95900000Y-66175000D02*
X94225000Y-66175000D01*
X83132000Y-98757000D02*
X80916000Y-98757000D01*
D63*
X88900000Y-171425000D02*
X88900000Y-171050000D01*
D62*
X102375000Y-100000000D02*
X103618000Y-98757000D01*
D64*
X90300000Y-54400000D02*
X91100000Y-54400000D01*
X91100000Y-54400000D02*
X91700000Y-55000000D01*
D63*
X111600000Y-55500000D02*
X111600000Y-56900000D01*
D62*
X72000000Y-99550000D02*
X72450000Y-99550000D01*
X112475000Y-94500000D02*
X112250000Y-94500000D01*
X86120000Y-50130000D02*
X86120000Y-48867500D01*
X103618000Y-98757000D02*
X105084000Y-98757000D01*
X83600000Y-50600000D02*
X85650000Y-50600000D01*
X78570000Y-48867500D02*
X78570000Y-51580000D01*
X82350000Y-94425000D02*
X82075000Y-94425000D01*
X98420000Y-56800000D02*
X98420000Y-58080000D01*
D63*
X99860000Y-53375000D02*
X99860000Y-54990000D01*
D62*
X130800000Y-59900000D02*
X130535000Y-59900000D01*
D63*
X78300000Y-66900000D02*
X81000000Y-66900000D01*
X104350000Y-47780000D02*
X101830000Y-47780000D01*
D62*
X81759000Y-94741000D02*
X80916000Y-94741000D01*
X92400100Y-173200000D02*
X91750000Y-173200000D01*
D63*
X113000000Y-54100000D02*
X114500000Y-54100000D01*
D64*
X91100000Y-52550000D02*
X88580000Y-50030000D01*
D62*
X116000000Y-98775000D02*
X115982000Y-98757000D01*
D63*
X89750000Y-121075000D02*
X89750000Y-104650000D01*
D62*
X81030000Y-48867500D02*
X81030000Y-50030000D01*
%TO.N,/ESP32/EN*%
X102650000Y-49550000D02*
X103420000Y-50320000D01*
X124275000Y-50938100D02*
X126838100Y-50938100D01*
X88450000Y-52450000D02*
X87300000Y-52450000D01*
X88850000Y-52850000D02*
X88450000Y-52450000D01*
X128600000Y-52700000D02*
X128600000Y-57965000D01*
X87300000Y-52450000D02*
X87350000Y-52400000D01*
X87350000Y-52400000D02*
X87350000Y-48767500D01*
X103420000Y-50320000D02*
X104350000Y-50320000D01*
X88850000Y-53410000D02*
X88850000Y-52850000D01*
X88850000Y-53410000D02*
X90270000Y-53410000D01*
X126838100Y-50938100D02*
X128600000Y-52700000D01*
X128600000Y-57965000D02*
X129265000Y-58630000D01*
%TO.N,/5V*%
X102300000Y-78450000D02*
X102300000Y-82750000D01*
X99100000Y-70750000D02*
X99100000Y-75250000D01*
X99100000Y-75250000D02*
X102300000Y-78450000D01*
X100450000Y-64300000D02*
X100450000Y-69400000D01*
X92175000Y-61850000D02*
X98000000Y-61850000D01*
X96350000Y-119800000D02*
X98100000Y-119800000D01*
X100450000Y-69400000D02*
X99100000Y-70750000D01*
X98000000Y-61850000D02*
X100450000Y-64300000D01*
%TO.N,/3V3*%
X105375000Y-67225000D02*
X104110000Y-67225000D01*
X97030000Y-69120000D02*
X95600000Y-69120000D01*
X106100000Y-67100000D02*
X105500000Y-67100000D01*
X94205000Y-69120000D02*
X94200000Y-69125000D01*
D63*
X106150000Y-49050000D02*
X106200000Y-49100000D01*
D62*
X95600000Y-69120000D02*
X94205000Y-69120000D01*
D63*
X87450000Y-172450000D02*
X87450000Y-122175000D01*
D62*
X87540000Y-66935000D02*
X87550000Y-66925000D01*
D63*
X88652400Y-89097600D02*
X98725000Y-79025000D01*
X98725000Y-79025000D02*
X100975000Y-79025000D01*
X88652400Y-120972600D02*
X88652400Y-89097600D01*
D64*
X88080000Y-54430000D02*
X87775000Y-54125000D01*
D63*
X87450000Y-122175000D02*
X88652400Y-120972600D01*
D64*
X87775000Y-54125000D02*
X87775000Y-53350000D01*
D62*
X87540000Y-66915000D02*
X87540000Y-66150000D01*
D64*
X88850000Y-54430000D02*
X88080000Y-54430000D01*
D65*
X90799900Y-173200000D02*
X88920000Y-173200000D01*
D62*
X131100000Y-58065000D02*
X131100000Y-56500000D01*
X131100000Y-56500000D02*
X130300000Y-55700000D01*
D63*
X88900000Y-173180000D02*
X88180000Y-173180000D01*
D62*
X95000000Y-66675000D02*
X94200000Y-67475000D01*
X87540000Y-66150000D02*
X87515000Y-66125000D01*
X99550000Y-65425000D02*
X99550000Y-65450000D01*
D63*
X104350000Y-49050000D02*
X106150000Y-49050000D01*
D62*
X105500000Y-67100000D02*
X105375000Y-67225000D01*
X99550000Y-66600000D02*
X97030000Y-69120000D01*
X130535000Y-58630000D02*
X131100000Y-58065000D01*
D61*
X81200000Y-54400000D02*
X80050000Y-53250000D01*
X81899900Y-54400000D02*
X81200000Y-54400000D01*
D62*
X87550000Y-66925000D02*
X87540000Y-66915000D01*
X95900000Y-66675000D02*
X95000000Y-66675000D01*
X87540000Y-67725000D02*
X87540000Y-66935000D01*
X94200000Y-67475000D02*
X94200000Y-69125000D01*
X87795000Y-53330000D02*
X87775000Y-53350000D01*
D63*
X88180000Y-173180000D02*
X87450000Y-172450000D01*
D62*
X106115000Y-65540000D02*
X106100000Y-67100000D01*
D66*
X88920000Y-173200000D02*
X88900000Y-173180000D01*
D62*
X99550000Y-66600000D02*
X99550000Y-65425000D01*
%TO.N,/SCL*%
X93700001Y-173699999D02*
X94700000Y-172700000D01*
X83550000Y-66400000D02*
X78375000Y-61225000D01*
X83500100Y-54899999D02*
X84950000Y-54899999D01*
X83600000Y-57400000D02*
X84950000Y-56050000D01*
X130125000Y-103775000D02*
X130125000Y-67025000D01*
X126125000Y-113650000D02*
X126125000Y-107775000D01*
X96700000Y-173200000D02*
X97200000Y-172700000D01*
X118815000Y-62915000D02*
X118815000Y-65540000D01*
X84950000Y-54899999D02*
X85700001Y-54899999D01*
X97975000Y-63553437D02*
X97975000Y-66700000D01*
X116600000Y-172700000D02*
X129550000Y-159750000D01*
X118800000Y-62900000D02*
X118815000Y-62915000D01*
X80673368Y-85875000D02*
X83550000Y-82998368D01*
X129550000Y-159750000D02*
X129550000Y-117075000D01*
X98126900Y-63401537D02*
X97975000Y-63553437D01*
X97500000Y-67175000D02*
X95900000Y-67175000D01*
X97975000Y-66700000D02*
X97500000Y-67175000D01*
X127300000Y-64200000D02*
X127300000Y-61780000D01*
X126125000Y-107775000D02*
X130125000Y-103775000D01*
X85700001Y-54899999D02*
X86250000Y-54350000D01*
X63950000Y-85875000D02*
X80673368Y-85875000D01*
X97200000Y-172700000D02*
X116600000Y-172700000D01*
X62725000Y-84650000D02*
X63950000Y-85875000D01*
X86250000Y-54350000D02*
X86250000Y-53525000D01*
X90799900Y-172700001D02*
X90200001Y-172700001D01*
X90200001Y-172700001D02*
X89900000Y-172400000D01*
X130125000Y-67025000D02*
X127300000Y-64200000D01*
X84950000Y-56050000D02*
X84950000Y-54899999D01*
X78375000Y-61225000D02*
X78375000Y-58575000D01*
X78375000Y-58575000D02*
X79550000Y-57400000D01*
X127300000Y-61780000D02*
X125800000Y-60280000D01*
X83550000Y-82998368D02*
X83550000Y-66400000D01*
X79550000Y-57400000D02*
X83600000Y-57400000D01*
X92400100Y-173699999D02*
X93700001Y-173699999D01*
X129550000Y-117075000D02*
X126125000Y-113650000D01*
%TO.N,Net-(U3-BP1V5)*%
X54903118Y-76745250D02*
X54903118Y-77196788D01*
X53225000Y-79000000D02*
X53225000Y-78050000D01*
X55566168Y-76082200D02*
X54903118Y-76745250D01*
X57150000Y-74820104D02*
X55887904Y-76082200D01*
X54903118Y-77196788D02*
X54049906Y-78050000D01*
X54049906Y-78050000D02*
X53225000Y-78050000D01*
X57150000Y-74250000D02*
X57150000Y-74820104D01*
X53300000Y-77625000D02*
X53225000Y-77550000D01*
X53225000Y-78050000D02*
X53225000Y-77375000D01*
X55887904Y-76082200D02*
X55566168Y-76082200D01*
X53225000Y-77550000D02*
X53225000Y-77375000D01*
%TO.N,Net-(U3-DRTN)*%
X57650000Y-74818472D02*
X56033872Y-76434600D01*
X55712136Y-76434600D02*
X55255518Y-76891218D01*
X55255518Y-76891218D02*
X55255518Y-77342756D01*
X56033872Y-76434600D02*
X55712136Y-76434600D01*
X57650000Y-74250000D02*
X57650000Y-74818472D01*
X54775000Y-77823274D02*
X54775000Y-79000000D01*
X55255518Y-77342756D02*
X54775000Y-77823274D01*
%TO.N,Net-(U3-EN{slash}UVLO)*%
X55555000Y-65500000D02*
X55555000Y-64280000D01*
X57550000Y-66875000D02*
X56212500Y-66875000D01*
X55500000Y-64225000D02*
X55500000Y-63055000D01*
X58150000Y-68350000D02*
X58025000Y-68225000D01*
X58025000Y-68225000D02*
X58025000Y-67350000D01*
X56212500Y-66875000D02*
X55555000Y-66217500D01*
X58025000Y-67350000D02*
X57550000Y-66875000D01*
X55555000Y-66217500D02*
X55555000Y-65500000D01*
X58150000Y-69250000D02*
X58150000Y-68350000D01*
D61*
%TO.N,Net-(U3-AVIN)*%
X58650000Y-68025000D02*
X58425000Y-67800000D01*
X58425000Y-67800000D02*
X58425000Y-67075000D01*
X57400000Y-66050000D02*
X56725000Y-66050000D01*
D66*
X56725000Y-66050000D02*
X56725000Y-64910000D01*
D61*
X58425000Y-67075000D02*
X57400000Y-66050000D01*
X58650000Y-69250000D02*
X58650000Y-68025000D01*
%TO.N,Net-(U3-VDD5)*%
X57350000Y-68200000D02*
X57350000Y-67675000D01*
X57650000Y-68500000D02*
X57350000Y-68200000D01*
X57650000Y-69250000D02*
X57650000Y-68500000D01*
D62*
%TO.N,Net-(U3-VOSNS)*%
X53900000Y-69725000D02*
X54175000Y-70000000D01*
D64*
X53025000Y-69795000D02*
X53830000Y-69795000D01*
X53830000Y-69795000D02*
X53900000Y-69725000D01*
D62*
X54175000Y-70000000D02*
X54900000Y-70000000D01*
D63*
%TO.N,Net-(C22-Pad2)*%
X58725000Y-79050000D02*
X60062500Y-79050000D01*
X60062500Y-79050000D02*
X60362500Y-78750000D01*
X58575000Y-79200000D02*
X58725000Y-79050000D01*
D62*
%TO.N,/ESP32/P_TX*%
X121850000Y-51590000D02*
X126490000Y-51590000D01*
X129265000Y-59900000D02*
X128100000Y-58735000D01*
X128100000Y-53200000D02*
X127350000Y-52450000D01*
X128100000Y-58735000D02*
X128100000Y-53200000D01*
X126490000Y-51590000D02*
X127350000Y-52450000D01*
%TO.N,/ESP32/P_RX*%
X127300000Y-53600000D02*
X127300000Y-59205000D01*
X127300000Y-59205000D02*
X129265000Y-61170000D01*
X127300000Y-53600000D02*
X126560000Y-52860000D01*
X126560000Y-52860000D02*
X121850000Y-52860000D01*
%TO.N,/ESP32/IO0*%
X121850000Y-64290000D02*
X123490000Y-64290000D01*
X132052400Y-55452400D02*
X124250000Y-47650000D01*
X123490000Y-64290000D02*
X124100000Y-64900000D01*
X83550000Y-51650000D02*
X81200000Y-51650000D01*
X124250000Y-47650000D02*
X124250000Y-47200000D01*
X81200000Y-51650000D02*
X79800000Y-50250000D01*
X132052400Y-64247600D02*
X132052400Y-61200000D01*
X79800000Y-50250000D02*
X79800000Y-48767500D01*
X132022400Y-61170000D02*
X132052400Y-61200000D01*
X131400000Y-64900000D02*
X132052400Y-64247600D01*
X132052400Y-61200000D02*
X132052400Y-55452400D01*
X130535000Y-61170000D02*
X132022400Y-61170000D01*
%TO.N,/ESP32/XIN32*%
X104350000Y-56670000D02*
X101407600Y-56670000D01*
X101407600Y-56670000D02*
X101300000Y-56777600D01*
X101300000Y-56777600D02*
X99402400Y-56777600D01*
X99402400Y-56777600D02*
X99380000Y-56800000D01*
%TO.N,/ESP32/XOUT32*%
X99402400Y-59622400D02*
X99380000Y-59600000D01*
X102982400Y-57940000D02*
X101300000Y-59622400D01*
X101300000Y-59622400D02*
X99402400Y-59622400D01*
X104350000Y-57940000D02*
X102982400Y-57940000D01*
%TO.N,/Power/PGOOD*%
X94500000Y-77900000D02*
X94500000Y-74125000D01*
X94500000Y-74125000D02*
X98325000Y-70300000D01*
X102400000Y-67225000D02*
X103090000Y-67225000D01*
X110500000Y-67250000D02*
X111195000Y-66555000D01*
X54300000Y-75025000D02*
X55450000Y-75025000D01*
X83950000Y-80250000D02*
X85150000Y-79050000D01*
X107550000Y-67250000D02*
X110500000Y-67250000D01*
X93350000Y-79050000D02*
X94500000Y-77900000D01*
X60325000Y-84475000D02*
X62100000Y-86250000D01*
X60325000Y-83875000D02*
X60325000Y-84475000D01*
X101450000Y-66275000D02*
X102400000Y-67225000D01*
X62100000Y-86250000D02*
X81025000Y-86250000D01*
X55450000Y-75025000D02*
X55650000Y-74825000D01*
X55650000Y-74825000D02*
X55650000Y-74250000D01*
X81025000Y-86250000D02*
X83950000Y-83325000D01*
X111195000Y-66555000D02*
X111195000Y-65540000D01*
X85150000Y-79050000D02*
X93350000Y-79050000D01*
X83950000Y-83325000D02*
X83950000Y-80250000D01*
X98325000Y-70300000D02*
X98325000Y-69400000D01*
%TO.N,Net-(U3-GOSNS)*%
X54200000Y-70500000D02*
X54900000Y-70500000D01*
X53875000Y-70825000D02*
X54200000Y-70500000D01*
D64*
X53025000Y-70755000D02*
X53805000Y-70755000D01*
X53805000Y-70755000D02*
X53875000Y-70825000D01*
D62*
%TO.N,/SDA*%
X129750000Y-67150000D02*
X125800000Y-63200000D01*
X98775000Y-64375000D02*
X98775000Y-66575000D01*
X78000000Y-61362500D02*
X78000000Y-57197600D01*
X129150000Y-117275000D02*
X125725000Y-113850000D01*
X117600000Y-63900000D02*
X117600000Y-65485000D01*
X78000000Y-57197600D02*
X80300000Y-54897600D01*
X125725000Y-113850000D02*
X125725000Y-107600000D01*
X79200000Y-53000000D02*
X79200000Y-53797600D01*
X64800000Y-85500000D02*
X80550000Y-85500000D01*
X98775000Y-66575000D02*
X97675000Y-67675000D01*
X116400000Y-172300000D02*
X129150000Y-159550000D01*
X63900000Y-84600000D02*
X64800000Y-85500000D01*
X80550000Y-85500000D02*
X83197600Y-82852400D01*
X81897501Y-54897600D02*
X81899900Y-54899999D01*
X125800000Y-63200000D02*
X125800000Y-62820000D01*
X79200000Y-53797600D02*
X80300000Y-54897600D01*
X80850000Y-53250000D02*
X80850000Y-52850000D01*
X125725000Y-107600000D02*
X129750000Y-103575000D01*
X79700000Y-52500000D02*
X79200000Y-53000000D01*
X80500000Y-52500000D02*
X79700000Y-52500000D01*
X91000000Y-174300000D02*
X94300000Y-174300000D01*
X80300000Y-54897600D02*
X81897501Y-54897600D01*
X80850000Y-52850000D02*
X80500000Y-52500000D01*
X96300000Y-172300000D02*
X116400000Y-172300000D01*
X97675000Y-67675000D02*
X95900000Y-67675000D01*
X117600000Y-65485000D02*
X117545000Y-65540000D01*
X90799900Y-174099900D02*
X91000000Y-174300000D01*
X81899900Y-53900001D02*
X81500001Y-53900001D01*
X129150000Y-159550000D02*
X129150000Y-117275000D01*
X83197600Y-82852400D02*
X83197600Y-66560100D01*
X83197600Y-66560100D02*
X78000000Y-61362500D01*
X94300000Y-174300000D02*
X96300000Y-172300000D01*
X81500001Y-53900001D02*
X80850000Y-53250000D01*
X129750000Y-103575000D02*
X129750000Y-67150000D01*
X90799900Y-173699999D02*
X90799900Y-174099900D01*
%TO.N,/BM1366-1/0V8*%
X82725000Y-91775000D02*
X82725000Y-93025000D01*
X73200000Y-91875000D02*
X73200000Y-93200000D01*
X112550000Y-91975000D02*
X112550000Y-93325000D01*
X73200000Y-93200000D02*
X74250000Y-94250000D01*
X103350000Y-93112000D02*
X104488000Y-94250000D01*
X111636000Y-94239000D02*
X110916000Y-94239000D01*
X74250000Y-94250000D02*
X75084000Y-94250000D01*
X103350000Y-91900000D02*
X103350000Y-93112000D01*
X81511000Y-94239000D02*
X80916000Y-94239000D01*
X82725000Y-93025000D02*
X81511000Y-94239000D01*
X104488000Y-94250000D02*
X105084000Y-94250000D01*
X112550000Y-93325000D02*
X111636000Y-94239000D01*
%TO.N,/BM1366-1/1V8*%
X81725000Y-93450000D02*
X81725000Y-92025000D01*
X74525000Y-93750000D02*
X74075000Y-93300000D01*
X121375000Y-101950000D02*
X121375000Y-101775000D01*
X81725000Y-92025000D02*
X81450000Y-91750000D01*
X104625000Y-90500000D02*
X101200000Y-87075000D01*
X117425000Y-97825000D02*
X117425000Y-92350000D01*
X74075000Y-92200000D02*
X74450000Y-91825000D01*
X81438000Y-93737000D02*
X81725000Y-93450000D01*
X84925000Y-86475000D02*
X86050000Y-86475000D01*
X111750000Y-92300000D02*
X111750000Y-93425000D01*
X104625000Y-91875000D02*
X104225000Y-92275000D01*
X81450000Y-91750000D02*
X81450000Y-89950000D01*
X101200000Y-87075000D02*
X101200000Y-87050000D01*
X111750000Y-93425000D02*
X111438000Y-93737000D01*
X111400000Y-91375000D02*
X111400000Y-91950000D01*
X117425000Y-92350000D02*
X116125000Y-91050000D01*
X104225000Y-93375000D02*
X104600000Y-93750000D01*
X121375000Y-101775000D02*
X117425000Y-97825000D01*
X104625000Y-91875000D02*
X104625000Y-90500000D01*
X81450000Y-89950000D02*
X84925000Y-86475000D01*
X111400000Y-91950000D02*
X111750000Y-92300000D01*
X75084000Y-93750000D02*
X74525000Y-93750000D01*
X116125000Y-91050000D02*
X111725000Y-91050000D01*
X80916000Y-93737000D02*
X81438000Y-93737000D01*
X111438000Y-93737000D02*
X110916000Y-93737000D01*
X104600000Y-93750000D02*
X105084000Y-93750000D01*
X104225000Y-92275000D02*
X104225000Y-93375000D01*
X74075000Y-93300000D02*
X74075000Y-92200000D01*
X111725000Y-91050000D02*
X111400000Y-91375000D01*
%TO.N,Net-(U12-VDD3_0)*%
X114925000Y-99875000D02*
X114309000Y-99259000D01*
X114309000Y-99259000D02*
X110916000Y-99259000D01*
%TO.N,Net-(U13-INV_CLKO)*%
X72900000Y-94225000D02*
X72900000Y-94800000D01*
X72000000Y-93325000D02*
X72900000Y-94225000D01*
X72900000Y-94800000D02*
X73850000Y-95750000D01*
X73850000Y-95750000D02*
X75084000Y-95750000D01*
%TO.N,/BM1366-2/0V8*%
X101900000Y-119900000D02*
X101900000Y-120075000D01*
X110916000Y-122239000D02*
X111861000Y-122239000D01*
X101900000Y-120075000D02*
X104075000Y-122250000D01*
X83575000Y-120350000D02*
X83575000Y-120725000D01*
X114200000Y-119900000D02*
X114200000Y-119700000D01*
X82061000Y-122239000D02*
X80916000Y-122239000D01*
X72300000Y-120000000D02*
X72300000Y-120300000D01*
X74250000Y-122250000D02*
X75084000Y-122250000D01*
X104075000Y-122250000D02*
X105084000Y-122250000D01*
X111861000Y-122239000D02*
X114200000Y-119900000D01*
X72300000Y-120300000D02*
X74250000Y-122250000D01*
X83575000Y-120725000D02*
X82061000Y-122239000D01*
%TO.N,/BM1366-2/1V8*%
X111563000Y-121737000D02*
X113000000Y-120300000D01*
X73500000Y-120500000D02*
X74750000Y-121750000D01*
X84425000Y-118100000D02*
X84425000Y-114725000D01*
X103100000Y-119800000D02*
X103100000Y-120600000D01*
X103100000Y-120600000D02*
X104250000Y-121750000D01*
X82375000Y-120862500D02*
X81500500Y-121737000D01*
X73500000Y-119950000D02*
X73500000Y-120500000D01*
X82500000Y-120025000D02*
X84425000Y-118100000D01*
X84425000Y-114725000D02*
X85450000Y-113700000D01*
X113000000Y-120300000D02*
X113000000Y-119700000D01*
X82375000Y-120025000D02*
X82375000Y-120862500D01*
X82375000Y-120025000D02*
X82500000Y-120025000D01*
X110916000Y-121737000D02*
X111563000Y-121737000D01*
X81500500Y-121737000D02*
X80916000Y-121737000D01*
X104250000Y-121750000D02*
X105084000Y-121750000D01*
X74750000Y-121750000D02*
X75084000Y-121750000D01*
%TO.N,Net-(U13-CLKO)*%
X71950000Y-95550000D02*
X73150000Y-96750000D01*
X73150000Y-96750000D02*
X75084000Y-96750000D01*
%TO.N,Net-(U12-VDD2_0)*%
X113800000Y-100875000D02*
X112686000Y-99761000D01*
X112686000Y-99761000D02*
X110916000Y-99761000D01*
%TO.N,/NRSTI*%
X114950000Y-97675000D02*
X114370000Y-98255000D01*
X115975000Y-97675000D02*
X114950000Y-97675000D01*
X114370000Y-98255000D02*
X110916000Y-98255000D01*
%TO.N,/RO*%
X115300000Y-95675000D02*
X113724000Y-97251000D01*
X115975000Y-95675000D02*
X115300000Y-95675000D01*
X113724000Y-97251000D02*
X110916000Y-97251000D01*
%TO.N,/CI*%
X116600000Y-92800000D02*
X116575000Y-92800000D01*
X113128000Y-96247000D02*
X110916000Y-96247000D01*
X116575000Y-92800000D02*
X113128000Y-96247000D01*
%TO.N,/BM1366-3/0V8*%
X114000000Y-148300000D02*
X114000000Y-147700000D01*
X110916000Y-150239000D02*
X112061000Y-150239000D01*
X104250000Y-150250000D02*
X101900000Y-147900000D01*
X84800000Y-147300000D02*
X81861000Y-150239000D01*
X70750000Y-146800000D02*
X70725000Y-146800000D01*
X73850000Y-150250000D02*
X75084000Y-150250000D01*
X71600000Y-147650000D02*
X70750000Y-146800000D01*
X71600000Y-148000000D02*
X71600000Y-147650000D01*
X112061000Y-150239000D02*
X114000000Y-148300000D01*
X81861000Y-150239000D02*
X80916000Y-150239000D01*
X101900000Y-147900000D02*
X101900000Y-147800000D01*
X73850000Y-150250000D02*
X71600000Y-148000000D01*
X105084000Y-150250000D02*
X104250000Y-150250000D01*
%TO.N,/BM1366-3/1V8*%
X72150000Y-147550000D02*
X74350000Y-149750000D01*
X83000000Y-147900000D02*
X83000000Y-148300000D01*
X70800000Y-145575000D02*
X72150000Y-146925000D01*
X84775000Y-146125000D02*
X83000000Y-147900000D01*
X74350000Y-149750000D02*
X75084000Y-149750000D01*
X83000000Y-148300000D02*
X81563000Y-149737000D01*
X103200000Y-147800000D02*
X103200000Y-148500000D01*
X72150000Y-146925000D02*
X72150000Y-147550000D01*
X104450000Y-149750000D02*
X105084000Y-149750000D01*
X110916000Y-149737000D02*
X111563000Y-149737000D01*
X112900000Y-148400000D02*
X112900000Y-147700000D01*
X103200000Y-148500000D02*
X104450000Y-149750000D01*
X81563000Y-149737000D02*
X80916000Y-149737000D01*
X111563000Y-149737000D02*
X112900000Y-148400000D01*
%TO.N,Net-(U12-VDD1_0)*%
X113800000Y-102600000D02*
X113800000Y-101875000D01*
X112188000Y-100263000D02*
X110916000Y-100263000D01*
X113800000Y-101875000D02*
X112188000Y-100263000D01*
%TO.N,Net-(U12-VDD1_1)*%
X101725000Y-103275000D02*
X104750000Y-100250000D01*
X104750000Y-100250000D02*
X105084000Y-100250000D01*
X84425000Y-103175000D02*
X81513000Y-100263000D01*
X84625000Y-103175000D02*
X84425000Y-103175000D01*
X101700000Y-103275000D02*
X101725000Y-103275000D01*
X81513000Y-100263000D02*
X80916000Y-100263000D01*
%TO.N,Net-(U12-VDD2_1)*%
X82011500Y-99761000D02*
X80916000Y-99761000D01*
X101700000Y-102200000D02*
X101975000Y-102200000D01*
X101975000Y-102200000D02*
X104414000Y-99761000D01*
X104414000Y-99761000D02*
X105084000Y-99761000D01*
X84400500Y-102150000D02*
X82011500Y-99761000D01*
X84650000Y-102150000D02*
X84400500Y-102150000D01*
%TO.N,Net-(U12-VDD3_1)*%
X82784000Y-99259000D02*
X80916000Y-99259000D01*
X84676432Y-101098465D02*
X84623465Y-101098465D01*
X101725000Y-101100000D02*
X102300000Y-101100000D01*
X104150000Y-99250000D02*
X105084000Y-99250000D01*
X102300000Y-101100000D02*
X104150000Y-99250000D01*
X84623465Y-101098465D02*
X82784000Y-99259000D01*
%TO.N,/Fan/FAN1_TACH*%
X86375000Y-63025000D02*
X85525000Y-63025000D01*
X91500000Y-65675000D02*
X90150000Y-65675000D01*
X85525000Y-63025000D02*
X84780000Y-62280000D01*
X88560000Y-66100000D02*
X88535000Y-66125000D01*
X84780000Y-62280000D02*
X84780000Y-60650000D01*
X88535000Y-66125000D02*
X88535000Y-65185000D01*
X88535000Y-65185000D02*
X86375000Y-63025000D01*
X90150000Y-65675000D02*
X89725000Y-66100000D01*
X89725000Y-66100000D02*
X88560000Y-66100000D01*
%TO.N,/Fan/FAN1_PWM*%
X87320000Y-62295000D02*
X87320000Y-60650000D01*
X93150000Y-63875000D02*
X88900000Y-63875000D01*
X95900000Y-65675000D02*
X94950000Y-65675000D01*
X88900000Y-63875000D02*
X87320000Y-62295000D01*
X94950000Y-65675000D02*
X93150000Y-63875000D01*
%TO.N,/Fan/FAN2_TACH*%
X92875000Y-68150000D02*
X92375000Y-68650000D01*
X92375000Y-68650000D02*
X90400000Y-68650000D01*
X88560000Y-67725000D02*
X88560000Y-68650000D01*
X88560000Y-70945000D02*
X89990000Y-72375000D01*
X92400000Y-66675000D02*
X92875000Y-67150000D01*
X91500000Y-66675000D02*
X92400000Y-66675000D01*
X92875000Y-67150000D02*
X92875000Y-68150000D01*
X88560000Y-68650000D02*
X88560000Y-70945000D01*
X89475000Y-67725000D02*
X88560000Y-67725000D01*
X90400000Y-68650000D02*
X89475000Y-67725000D01*
%TO.N,/Fan/FAN2_PWM*%
X93350000Y-66725000D02*
X93350000Y-71555000D01*
X92800000Y-66175000D02*
X93350000Y-66725000D01*
X93350000Y-71555000D02*
X92530000Y-72375000D01*
X91500000Y-66175000D02*
X92800000Y-66175000D01*
%TO.N,Net-(U18-VDD1_0)*%
X113459000Y-127259000D02*
X114500000Y-128300000D01*
X114500000Y-128300000D02*
X114600000Y-128300000D01*
X110916000Y-127259000D02*
X113459000Y-127259000D01*
%TO.N,Net-(U18-VDD2_0)*%
X110916000Y-127761000D02*
X112961000Y-127761000D01*
X112961000Y-127761000D02*
X114600000Y-129400000D01*
%TO.N,Net-(U22-INV_CLKO)*%
X103550000Y-151750000D02*
X105084000Y-151750000D01*
X99400000Y-148800000D02*
X100600000Y-148800000D01*
X100600000Y-148800000D02*
X103550000Y-151750000D01*
%TO.N,Net-(U18-VDD3_0)*%
X112363000Y-128263000D02*
X114600000Y-130500000D01*
X110916000Y-128263000D02*
X112363000Y-128263000D01*
%TO.N,Net-(U18-VDD3_1)*%
X101050000Y-131000000D02*
X103800000Y-128250000D01*
X103800000Y-128250000D02*
X105084000Y-128250000D01*
X85325000Y-130950000D02*
X84250000Y-130950000D01*
X84250000Y-130950000D02*
X81563000Y-128263000D01*
X100825000Y-131000000D02*
X101050000Y-131000000D01*
X81563000Y-128263000D02*
X80916000Y-128263000D01*
%TO.N,Net-(U13-ADDR0)*%
X82755000Y-95745000D02*
X80916000Y-95745000D01*
X84625000Y-93875000D02*
X82755000Y-95745000D01*
%TO.N,Net-(U13-ADDR1)*%
X82657000Y-95243000D02*
X83200000Y-94700000D01*
X83200000Y-94700000D02*
X83200000Y-94300000D01*
X80916000Y-95243000D02*
X82657000Y-95243000D01*
X83200000Y-94300000D02*
X84625000Y-92875000D01*
%TO.N,Net-(U18-VDD2_1)*%
X103439000Y-127761000D02*
X105084000Y-127761000D01*
X85400000Y-129400000D02*
X83780000Y-129400000D01*
X82141000Y-127761000D02*
X80916000Y-127761000D01*
X83780000Y-129400000D02*
X82141000Y-127761000D01*
X101325000Y-129875000D02*
X103439000Y-127761000D01*
X100825000Y-129875000D02*
X101325000Y-129875000D01*
%TO.N,/BM1366-1/BI1*%
X113922000Y-97753000D02*
X110916000Y-97753000D01*
X116000000Y-96650000D02*
X115025000Y-96650000D01*
X115025000Y-96650000D02*
X113922000Y-97753000D01*
D63*
%TO.N,/VIN*%
X60750000Y-63325000D02*
X60725000Y-63300000D01*
D67*
X59275000Y-56725000D02*
X59275000Y-49725000D01*
D61*
X59150000Y-69250000D02*
X59150000Y-68450000D01*
D67*
X64275000Y-56725000D02*
X64275000Y-49725000D01*
D61*
X61150000Y-69250000D02*
X61150000Y-68425000D01*
D66*
X57810000Y-63890000D02*
X58400000Y-63300000D01*
D61*
X60650000Y-69250000D02*
X60650000Y-68450000D01*
D62*
X58035000Y-61990000D02*
X58400000Y-61625000D01*
D68*
X67700000Y-63350000D02*
X60750000Y-63325000D01*
D61*
X60150000Y-69250000D02*
X60150000Y-68450000D01*
X59650000Y-69250000D02*
X59650000Y-68450000D01*
D62*
X55545000Y-61990000D02*
X58035000Y-61990000D01*
D66*
X56725000Y-63890000D02*
X57810000Y-63890000D01*
D62*
X58400000Y-61625000D02*
X58400000Y-61300000D01*
%TO.N,Net-(U3-VSEL)*%
X55200000Y-67225000D02*
X56650000Y-68675000D01*
X53875000Y-67225000D02*
X55200000Y-67225000D01*
X56650000Y-68675000D02*
X56650000Y-69250000D01*
%TO.N,Net-(U18-VDD1_1)*%
X83550000Y-128350000D02*
X82459000Y-127259000D01*
X85400000Y-128350000D02*
X83550000Y-128350000D01*
X100875000Y-128800000D02*
X101498368Y-128800000D01*
X101498368Y-128800000D02*
X103048368Y-127250000D01*
X82459000Y-127259000D02*
X80916000Y-127259000D01*
X103048368Y-127250000D02*
X105084000Y-127250000D01*
%TO.N,Net-(U3-ADRSEL)*%
X56150000Y-68700000D02*
X56150000Y-69250000D01*
X55400000Y-67950000D02*
X56150000Y-68700000D01*
X54650000Y-67950000D02*
X55400000Y-67950000D01*
%TO.N,Net-(J6-Pin_4)*%
X113500000Y-60600000D02*
X117430000Y-56670000D01*
X117430000Y-56670000D02*
X121850000Y-56670000D01*
X113500000Y-62350000D02*
X113500000Y-60600000D01*
%TO.N,Net-(U20-VDD3_1)*%
X71850000Y-129700000D02*
X73300000Y-128250000D01*
X73300000Y-128250000D02*
X75084000Y-128250000D01*
X71100000Y-129700000D02*
X71850000Y-129700000D01*
%TO.N,Net-(U20-VDD2_1)*%
X72100000Y-128600000D02*
X72939000Y-127761000D01*
X71100000Y-128600000D02*
X72100000Y-128600000D01*
X72939000Y-127761000D02*
X75084000Y-127761000D01*
%TO.N,Net-(U20-VDD1_1)*%
X71100000Y-127450000D02*
X71300000Y-127250000D01*
X71300000Y-127250000D02*
X75084000Y-127250000D01*
%TO.N,Net-(U22-ADDR0)*%
X113755000Y-151745000D02*
X116800000Y-148700000D01*
X110916000Y-151745000D02*
X113755000Y-151745000D01*
X116800000Y-148700000D02*
X116800000Y-147600000D01*
%TO.N,Net-(U22-ADDR1)*%
X116100000Y-148300000D02*
X116100000Y-146600000D01*
X110916000Y-151243000D02*
X113157000Y-151243000D01*
X113157000Y-151243000D02*
X116100000Y-148300000D01*
%TO.N,Net-(U22-VDD3_0)*%
X110916000Y-155259000D02*
X113659000Y-155259000D01*
X113659000Y-155259000D02*
X114600000Y-156200000D01*
%TO.N,Net-(U22-VDD2_0)*%
X110916000Y-155761000D02*
X112961000Y-155761000D01*
X112961000Y-155761000D02*
X114600000Y-157400000D01*
%TO.N,Net-(U22-VDD1_0)*%
X110916000Y-156263000D02*
X112183000Y-156263000D01*
X112183000Y-156263000D02*
X114620000Y-158700000D01*
%TO.N,/BM1366-3/NRSTO3*%
X75084000Y-154255000D02*
X72145000Y-154255000D01*
X72145000Y-154255000D02*
X70700000Y-155700000D01*
%TO.N,Net-(J6-Pin_6)*%
X111050000Y-61600000D02*
X118520000Y-54130000D01*
X111050000Y-62047600D02*
X111050000Y-61600000D01*
X118520000Y-54130000D02*
X121850000Y-54130000D01*
%TO.N,Net-(J6-Pin_3)*%
X117010000Y-57940000D02*
X121850000Y-57940000D01*
X114550000Y-60400000D02*
X117010000Y-57940000D01*
X114550000Y-63300000D02*
X114550000Y-60400000D01*
%TO.N,Net-(J6-Pin_5)*%
X112350000Y-62047600D02*
X112350000Y-61000000D01*
X112350000Y-61000000D02*
X117950000Y-55400000D01*
X117950000Y-55400000D02*
X121850000Y-55400000D01*
%TO.N,Net-(U6-GPIO4{slash}TOUCH4{slash}ADC1_CH3)*%
X103190000Y-51590000D02*
X104350000Y-51590000D01*
X102650000Y-51050000D02*
X103190000Y-51590000D01*
%TO.N,Net-(U6-GPIO5{slash}TOUCH5{slash}ADC1_CH4)*%
X103310000Y-52860000D02*
X102650000Y-52200000D01*
X104350000Y-52860000D02*
X103310000Y-52860000D01*
%TO.N,Net-(U25-VDD1_1)*%
X72400000Y-158600000D02*
X72400000Y-158400000D01*
X72400000Y-158400000D02*
X74550000Y-156250000D01*
X74550000Y-156250000D02*
X75084000Y-156250000D01*
%TO.N,Net-(U25-VDD2_1)*%
X74139000Y-155761000D02*
X71300000Y-158600000D01*
X75084000Y-155761000D02*
X74139000Y-155761000D01*
%TO.N,Net-(U25-VDD3_1)*%
X75084000Y-155250000D02*
X73550000Y-155250000D01*
X73550000Y-155250000D02*
X71300000Y-157500000D01*
%TO.N,/BM1366-3/BO3*%
X71447000Y-153753000D02*
X70700000Y-154500000D01*
X75084000Y-153753000D02*
X71447000Y-153753000D01*
%TO.N,Net-(U6-GPIO6{slash}TOUCH6{slash}ADC1_CH5)*%
X102700000Y-53450000D02*
X103380000Y-54130000D01*
X103380000Y-54130000D02*
X104350000Y-54130000D01*
%TO.N,/BM1366-1/VDD1*%
X84325000Y-120675000D02*
X82259000Y-122741000D01*
X74250000Y-122750000D02*
X75084000Y-122750000D01*
X71100000Y-126350000D02*
X72500000Y-126350000D01*
X103043000Y-126757000D02*
X105084000Y-126757000D01*
X75084000Y-123250000D02*
X74450000Y-123250000D01*
X103775000Y-122750000D02*
X103800000Y-122750000D01*
X100925000Y-119900000D02*
X103775000Y-122750000D01*
X82259000Y-122741000D02*
X80916000Y-122741000D01*
X74300000Y-123100000D02*
X74300000Y-122800000D01*
X74300000Y-122800000D02*
X74250000Y-122750000D01*
X112359000Y-122741000D02*
X110916000Y-122741000D01*
X115900000Y-128300000D02*
X114357000Y-126757000D01*
X103800000Y-123000000D02*
X103800000Y-122750000D01*
X104050000Y-123250000D02*
X105084000Y-123250000D01*
X100700000Y-119900000D02*
X100925000Y-119900000D01*
X83475000Y-127275000D02*
X82957000Y-126757000D01*
X85450000Y-127300000D02*
X85425000Y-127275000D01*
X84325000Y-119200000D02*
X84325000Y-120675000D01*
X85425000Y-127275000D02*
X83475000Y-127275000D01*
X103800000Y-122750000D02*
X105084000Y-122750000D01*
X104050000Y-123250000D02*
X103800000Y-123000000D01*
X71100000Y-120050000D02*
X71300000Y-120050000D01*
X84700000Y-118825000D02*
X84325000Y-119200000D01*
X71300000Y-120050000D02*
X74000000Y-122750000D01*
X74000000Y-122750000D02*
X74250000Y-122750000D01*
X74450000Y-123250000D02*
X74300000Y-123100000D01*
X114357000Y-126757000D02*
X110916000Y-126757000D01*
X102050000Y-127750000D02*
X103043000Y-126757000D01*
X82957000Y-126757000D02*
X80916000Y-126757000D01*
X115400000Y-119700000D02*
X112359000Y-122741000D01*
X72500000Y-126350000D02*
X72907000Y-126757000D01*
D63*
X101350000Y-117075000D02*
X102875000Y-117075000D01*
D62*
X72907000Y-126757000D02*
X75084000Y-126757000D01*
X100875000Y-127750000D02*
X102050000Y-127750000D01*
%TO.N,/BM1366-2/VDD2*%
X110916000Y-154757000D02*
X114537000Y-154757000D01*
X62225000Y-104650000D02*
X62825000Y-104050000D01*
D63*
X70250000Y-132000000D02*
X69200000Y-130950000D01*
D62*
X80916000Y-150741000D02*
X82259000Y-150741000D01*
X114537000Y-154757000D02*
X115920000Y-156140000D01*
X80916000Y-154757000D02*
X82257000Y-154757000D01*
X75084000Y-150750000D02*
X73400000Y-150750000D01*
X101700000Y-156400000D02*
X103343000Y-154757000D01*
D63*
X73175000Y-132050000D02*
X73125000Y-132000000D01*
X69200000Y-126150000D02*
X64025000Y-120975000D01*
D62*
X62225000Y-110600000D02*
X62225000Y-104650000D01*
X112559000Y-150741000D02*
X115200000Y-148100000D01*
X84500000Y-148500000D02*
X84800000Y-148500000D01*
X82259000Y-150741000D02*
X84500000Y-148500000D01*
D63*
X64025000Y-112400000D02*
X63425000Y-111800000D01*
D62*
X72843000Y-154757000D02*
X75084000Y-154757000D01*
X70700000Y-148050000D02*
X70700000Y-148000000D01*
X103343000Y-154757000D02*
X105084000Y-154757000D01*
D63*
X64025000Y-120975000D02*
X64025000Y-118700000D01*
D62*
X115200000Y-148100000D02*
X115200000Y-147700000D01*
X105084000Y-150750000D02*
X103550000Y-150750000D01*
X70900000Y-156700000D02*
X72843000Y-154757000D01*
X82257000Y-154757000D02*
X84600000Y-157100000D01*
D63*
X64025000Y-118700000D02*
X64025000Y-112400000D01*
D62*
X70200000Y-156700000D02*
X70900000Y-156700000D01*
D63*
X73125000Y-132000000D02*
X70250000Y-132000000D01*
D62*
X100800000Y-156400000D02*
X101700000Y-156400000D01*
X103550000Y-150750000D02*
X100600000Y-147800000D01*
X110916000Y-150741000D02*
X112559000Y-150741000D01*
X63425000Y-111800000D02*
X62225000Y-110600000D01*
X84600000Y-157100000D02*
X84800000Y-157100000D01*
X73400000Y-150750000D02*
X70700000Y-148050000D01*
D63*
X69200000Y-130950000D02*
X69200000Y-126150000D01*
D62*
%TO.N,/BM1366-3/RI3*%
X75084000Y-153251000D02*
X70751000Y-153251000D01*
X70751000Y-153251000D02*
X70700000Y-153200000D01*
%TO.N,/BM1366-3/CLKO3*%
X71550000Y-152750000D02*
X70700000Y-151900000D01*
X75084000Y-152750000D02*
X71550000Y-152750000D01*
%TO.N,/BM1366-3/CO3*%
X72347000Y-152247000D02*
X70700000Y-150600000D01*
X75084000Y-152247000D02*
X72347000Y-152247000D01*
%TO.N,/BM1366-1/CLKI1*%
X113376000Y-96749000D02*
X115125000Y-95000000D01*
X115125000Y-95000000D02*
X116425000Y-95000000D01*
X116825000Y-99800000D02*
X118725000Y-101700000D01*
X116425000Y-95000000D02*
X116825000Y-95400000D01*
X110916000Y-96749000D02*
X113376000Y-96749000D01*
X118725000Y-101700000D02*
X120200000Y-101700000D01*
X116825000Y-95400000D02*
X116825000Y-99800000D01*
%TO.N,/BM1366-2/NRSTI2*%
X59825000Y-114375000D02*
X60450000Y-113750000D01*
X72000000Y-122100000D02*
X74147000Y-124247000D01*
X59825000Y-118825000D02*
X59825000Y-114375000D01*
X59850000Y-118850000D02*
X59825000Y-118825000D01*
X74147000Y-124247000D02*
X75084000Y-124247000D01*
X71100000Y-122100000D02*
X72000000Y-122100000D01*
%TO.N,/BM1366-2/BI2*%
X59100000Y-109550000D02*
X60450000Y-108200000D01*
X59100000Y-119400000D02*
X59100000Y-109550000D01*
X74100000Y-124750000D02*
X75084000Y-124750000D01*
X72450000Y-123100000D02*
X74100000Y-124750000D01*
X59850000Y-120150000D02*
X59100000Y-119400000D01*
X71100000Y-123100000D02*
X72450000Y-123100000D01*
%TO.N,/BM1366-2/RO2*%
X72900000Y-124200000D02*
X73951000Y-125251000D01*
X73951000Y-125251000D02*
X75084000Y-125251000D01*
X71100000Y-124200000D02*
X72900000Y-124200000D01*
X65350000Y-121050000D02*
X65350000Y-117500000D01*
X66975000Y-105725000D02*
X66225000Y-104975000D01*
X66975000Y-115875000D02*
X66975000Y-105725000D01*
X65800000Y-121500000D02*
X65350000Y-121050000D01*
X65350000Y-117500000D02*
X66975000Y-115875000D01*
%TO.N,/BM1366-2/CI2*%
X72600000Y-125500000D02*
X73355000Y-126255000D01*
X69900000Y-125500000D02*
X72600000Y-125500000D01*
X68500000Y-124100000D02*
X69900000Y-125500000D01*
X68500000Y-120947600D02*
X68500000Y-124100000D01*
X73355000Y-126255000D02*
X75084000Y-126255000D01*
X66300000Y-118747600D02*
X68500000Y-120947600D01*
%TO.N,/BM1366-3/NRSTI3*%
X115155000Y-154255000D02*
X110916000Y-154255000D01*
X115900000Y-155000000D02*
X115155000Y-154255000D01*
%TO.N,/BM1366-3/BI3*%
X115900000Y-153700000D02*
X115847000Y-153753000D01*
X115847000Y-153753000D02*
X110916000Y-153753000D01*
%TO.N,/BM1366-3/RO3*%
X114749000Y-153251000D02*
X115400000Y-152600000D01*
X110916000Y-153251000D02*
X114749000Y-153251000D01*
%TO.N,/BM1366-3/CI3*%
X118300000Y-147900000D02*
X126800000Y-147900000D01*
X110916000Y-152247000D02*
X113953000Y-152247000D01*
X127680000Y-142980000D02*
X127680000Y-141700000D01*
X126800000Y-147900000D02*
X128600000Y-146100000D01*
X128600000Y-143900000D02*
X127680000Y-142980000D01*
X113953000Y-152247000D02*
X118300000Y-147900000D01*
X128600000Y-146100000D02*
X128600000Y-143900000D01*
%TO.N,/BM1366-1/NRSTO*%
X68300000Y-98500000D02*
X64275000Y-102525000D01*
X72000000Y-98500000D02*
X72625000Y-98500000D01*
X61350000Y-103850000D02*
X61350000Y-114450000D01*
X72625000Y-98500000D02*
X72870000Y-98255000D01*
X64275000Y-102525000D02*
X62675000Y-102525000D01*
X60675000Y-115125000D02*
X60675000Y-117700000D01*
X62675000Y-102525000D02*
X61350000Y-103850000D01*
X72870000Y-98255000D02*
X75084000Y-98255000D01*
X61350000Y-114450000D02*
X60675000Y-115125000D01*
%TO.N,/BM1366-1/CO*%
X65200000Y-115500000D02*
X65200000Y-103950000D01*
X71975000Y-94450000D02*
X73772000Y-96247000D01*
X69075000Y-95975000D02*
X70600000Y-94450000D01*
X69075000Y-100075000D02*
X69075000Y-95975000D01*
X70600000Y-94450000D02*
X71975000Y-94450000D01*
X65200000Y-103950000D02*
X69075000Y-100075000D01*
X73772000Y-96247000D02*
X75084000Y-96247000D01*
%TO.N,/BM1366-1/BO*%
X72000000Y-97325000D02*
X72428000Y-97753000D01*
X72428000Y-97753000D02*
X75084000Y-97753000D01*
%TO.N,/BM1366-1/RI*%
X70050000Y-97800000D02*
X70050000Y-103350000D01*
X71350000Y-96500000D02*
X70050000Y-97800000D01*
X72250000Y-96500000D02*
X73001000Y-97251000D01*
X73001000Y-97251000D02*
X75084000Y-97251000D01*
X72250000Y-96500000D02*
X71350000Y-96500000D01*
X70050000Y-103350000D02*
X69375000Y-104025000D01*
%TO.N,/BM1366-2/RI*%
X115349000Y-125251000D02*
X110916000Y-125251000D01*
X122300000Y-130300000D02*
X127600000Y-130300000D01*
X115900000Y-124700000D02*
X115349000Y-125251000D01*
X118100000Y-124700000D02*
X118100000Y-126100000D01*
X118100000Y-126100000D02*
X122300000Y-130300000D01*
%TO.N,/BM1366-2/NRSTO*%
X118100000Y-129850000D02*
X118100000Y-141500000D01*
X114053000Y-124247000D02*
X110916000Y-124247000D01*
X118100000Y-141500000D02*
X122000000Y-145400000D01*
X116000000Y-122300000D02*
X114053000Y-124247000D01*
X119100000Y-122300000D02*
X117300000Y-124100000D01*
X117300000Y-129050000D02*
X118100000Y-129850000D01*
X117300000Y-124100000D02*
X117300000Y-129050000D01*
%TO.N,/BM1366-2/BO*%
X114751000Y-124749000D02*
X115900000Y-123600000D01*
X115900000Y-123600000D02*
X115910000Y-123600000D01*
X110916000Y-124749000D02*
X114751000Y-124749000D01*
%TO.N,/BM1366-2/CO*%
X118800000Y-136600000D02*
X127600000Y-145400000D01*
X118800000Y-131400000D02*
X118800000Y-136600000D01*
X114965000Y-126255000D02*
X115910000Y-127200000D01*
X110916000Y-126255000D02*
X114965000Y-126255000D01*
%TO.N,/ESP32/ASIC_RST*%
X118300000Y-53600000D02*
X118300000Y-50500000D01*
X118300000Y-50500000D02*
X119750000Y-49050000D01*
X119750000Y-49050000D02*
X121850000Y-49050000D01*
X110450000Y-61450000D02*
X118300000Y-53600000D01*
X109900000Y-61450000D02*
X110450000Y-61450000D01*
%TO.N,/ESP32/ESP32_TX*%
X107100000Y-59750000D02*
X106560000Y-59210000D01*
X107100000Y-60400000D02*
X107100000Y-59750000D01*
X106560000Y-59210000D02*
X104350000Y-59210000D01*
%TO.N,/ESP32/ESP32_RX*%
X105520000Y-60480000D02*
X104350000Y-60480000D01*
X106000000Y-60000000D02*
X105520000Y-60480000D01*
%TO.N,Net-(U6-GPIO7{slash}TOUCH7{slash}ADC1_CH6)*%
X102650000Y-54850000D02*
X103200000Y-55400000D01*
X103200000Y-55400000D02*
X104350000Y-55400000D01*
%TO.N,Net-(U6-GPIO8{slash}TOUCH8{slash}ADC1_CH7{slash}SUBSPICS1)*%
X106000000Y-61750000D02*
X104350000Y-61750000D01*
X107700000Y-61350000D02*
X106400000Y-61350000D01*
X110100000Y-58950000D02*
X107700000Y-61350000D01*
X106400000Y-61350000D02*
X106000000Y-61750000D01*
X110100000Y-58100000D02*
X110100000Y-58950000D01*
%TO.N,Net-(J7-CC1)*%
X97920000Y-53375000D02*
X97920000Y-51460000D01*
%TO.N,Net-(U6-GPIO20{slash}U1CTS{slash}ADC2_CH9{slash}CLK_OUT1{slash}USB_D+)*%
X96930000Y-54500000D02*
X96930000Y-60080000D01*
X95930000Y-53375000D02*
X95930000Y-54260000D01*
X96930000Y-60080000D02*
X100650000Y-63800000D01*
X95930000Y-54260000D02*
X96170000Y-54500000D01*
X96170000Y-54500000D02*
X96930000Y-54500000D01*
X103290000Y-64290000D02*
X104350000Y-64290000D01*
X102800000Y-63800000D02*
X103290000Y-64290000D01*
X100650000Y-63800000D02*
X102800000Y-63800000D01*
X96930000Y-53375000D02*
X96930000Y-54500000D01*
%TO.N,Net-(U6-GPIO19{slash}U1RTS{slash}ADC2_CH8{slash}CLK_OUT2{slash}USB_D-)*%
X100797600Y-63447600D02*
X102877400Y-63447600D01*
X97160000Y-52100000D02*
X96660000Y-52100000D01*
X97300000Y-59950000D02*
X100797600Y-63447600D01*
X97420000Y-53375000D02*
X97420000Y-54180000D01*
X97420000Y-53375000D02*
X97420000Y-52360000D01*
X97420000Y-52360000D02*
X97160000Y-52100000D01*
X97300000Y-54300000D02*
X97300000Y-59950000D01*
X96660000Y-52100000D02*
X96420000Y-52340000D01*
X96420000Y-52340000D02*
X96420000Y-53375000D01*
X103305000Y-63020000D02*
X104350000Y-63020000D01*
X97420000Y-54180000D02*
X97300000Y-54300000D01*
X102877400Y-63447600D02*
X103305000Y-63020000D01*
%TO.N,Net-(J7-CC2)*%
X94920000Y-53375000D02*
X94920000Y-51560000D01*
%TO.N,/Power/PMB_ALRT*%
X59075000Y-89265000D02*
X59075000Y-84225000D01*
X58150000Y-74250000D02*
X58150000Y-74975000D01*
X58150000Y-74975000D02*
X57245199Y-75879801D01*
X59075000Y-84225000D02*
X57975000Y-83125000D01*
X56990000Y-91350000D02*
X59075000Y-89265000D01*
X57245199Y-75879801D02*
X57245199Y-76145199D01*
%TO.N,Net-(U6-GPIO9{slash}TOUCH9{slash}ADC1_CH8{slash}FSPIHD{slash}SUBSPIHD)*%
X111400000Y-58800000D02*
X107900000Y-62300000D01*
X108655000Y-64305000D02*
X108655000Y-65540000D01*
X107900000Y-63550000D02*
X108655000Y-64305000D01*
X107900000Y-62300000D02*
X107900000Y-63550000D01*
X111400000Y-58147600D02*
X111400000Y-58800000D01*
%TO.N,Net-(U12-BO)*%
X102844000Y-97600000D02*
X102997000Y-97753000D01*
X102997000Y-97753000D02*
X105084000Y-97753000D01*
X84675000Y-97925000D02*
X84503000Y-97753000D01*
X84503000Y-97753000D02*
X80916000Y-97753000D01*
X101725000Y-97600000D02*
X102844000Y-97600000D01*
%TO.N,Net-(U18-CLKO)*%
X110916000Y-125753000D02*
X115663000Y-125753000D01*
X115663000Y-125753000D02*
X115910000Y-126000000D01*
%TO.N,Net-(U12-CO)*%
X101750000Y-93925000D02*
X101750000Y-94125000D01*
X103872000Y-96247000D02*
X105084000Y-96247000D01*
X84550000Y-94900000D02*
X83203000Y-96247000D01*
X84625000Y-94900000D02*
X84550000Y-94900000D01*
X83203000Y-96247000D02*
X80916000Y-96247000D01*
X101750000Y-94125000D02*
X103872000Y-96247000D01*
%TO.N,/BM1366-2/CLKI2*%
X69950000Y-115450000D02*
X71550000Y-113850000D01*
X73703000Y-125753000D02*
X73000000Y-125050000D01*
X69950000Y-124250000D02*
X69950000Y-115450000D01*
X73000000Y-125050000D02*
X70750000Y-125050000D01*
X75084000Y-125753000D02*
X73703000Y-125753000D01*
X70750000Y-125050000D02*
X69950000Y-124250000D01*
%TO.N,Net-(U12-INV_CLKO)*%
X104050000Y-95750000D02*
X105084000Y-95750000D01*
X103175000Y-94075000D02*
X103175000Y-94875000D01*
X103175000Y-94875000D02*
X104050000Y-95750000D01*
%TO.N,Net-(U12-CLKO)*%
X103625000Y-96750000D02*
X105084000Y-96750000D01*
X84650000Y-95900000D02*
X83801000Y-96749000D01*
X102100000Y-95225000D02*
X103625000Y-96750000D01*
X83801000Y-96749000D02*
X80916000Y-96749000D01*
X101725000Y-95225000D02*
X102100000Y-95225000D01*
%TO.N,/BM1366-3/CLKI3*%
X116300000Y-151600000D02*
X115400000Y-151600000D01*
X114251000Y-152749000D02*
X110916000Y-152749000D01*
X115400000Y-151600000D02*
X114251000Y-152749000D01*
%TO.N,Net-(U12-NRSTO)*%
X84312500Y-98975000D02*
X83592500Y-98255000D01*
X102945000Y-98255000D02*
X105084000Y-98255000D01*
X83592500Y-98255000D02*
X80916000Y-98255000D01*
X84675000Y-98975000D02*
X84312500Y-98975000D01*
X102450000Y-98750000D02*
X102945000Y-98255000D01*
X101725000Y-98750000D02*
X102450000Y-98750000D01*
%TO.N,Net-(U12-RI)*%
X84324000Y-97251000D02*
X80916000Y-97251000D01*
X84675000Y-96900000D02*
X84324000Y-97251000D01*
X101725000Y-96400000D02*
X102550000Y-96400000D01*
X103401000Y-97251000D02*
X105084000Y-97251000D01*
X102550000Y-96400000D02*
X103401000Y-97251000D01*
%TO.N,Net-(U18-RO)*%
X100900000Y-124625000D02*
X102275000Y-124625000D01*
X84525000Y-124075000D02*
X83349000Y-125251000D01*
X102275000Y-124625000D02*
X102901000Y-125251000D01*
X102901000Y-125251000D02*
X105084000Y-125251000D01*
X83349000Y-125251000D02*
X80916000Y-125251000D01*
X85475000Y-124075000D02*
X84525000Y-124075000D01*
%TO.N,Net-(U18-INV_CLKO)*%
X103800000Y-123750000D02*
X105084000Y-123750000D01*
X101400000Y-121350000D02*
X103800000Y-123750000D01*
X100925000Y-121350000D02*
X101400000Y-121350000D01*
%TO.N,Net-(U18-NRSTI)*%
X100900000Y-122500000D02*
X101850000Y-122500000D01*
X103597000Y-124247000D02*
X105084000Y-124247000D01*
X101850000Y-122500000D02*
X103597000Y-124247000D01*
X82853000Y-124247000D02*
X80916000Y-124247000D01*
X85075000Y-122025000D02*
X82853000Y-124247000D01*
X85500000Y-122025000D02*
X85075000Y-122025000D01*
%TO.N,Net-(U22-VDD3_1)*%
X101500000Y-157500000D02*
X100700000Y-157500000D01*
X105084000Y-155250000D02*
X103750000Y-155250000D01*
X84200000Y-157500000D02*
X81959000Y-155259000D01*
X81959000Y-155259000D02*
X80916000Y-155259000D01*
X84200000Y-158300000D02*
X84200000Y-157500000D01*
X103750000Y-155250000D02*
X101500000Y-157500000D01*
%TO.N,Net-(U22-VDD2_1)*%
X105084000Y-155761000D02*
X104139000Y-155761000D01*
X104139000Y-155761000D02*
X101700000Y-158200000D01*
X101700000Y-158200000D02*
X101700000Y-158800000D01*
X81512000Y-155761000D02*
X80916000Y-155761000D01*
X83100000Y-157349000D02*
X81512000Y-155761000D01*
X83100000Y-158800000D02*
X83100000Y-157349000D01*
X83500000Y-159200000D02*
X83100000Y-158800000D01*
%TO.N,Net-(U22-VDD1_1)*%
X82300000Y-159200000D02*
X82300000Y-157300000D01*
X104550000Y-156250000D02*
X102600000Y-158200000D01*
X82300000Y-157300000D02*
X81263000Y-156263000D01*
X102600000Y-158200000D02*
X102600000Y-159400000D01*
X81263000Y-156263000D02*
X80916000Y-156263000D01*
X105084000Y-156250000D02*
X104550000Y-156250000D01*
%TO.N,Net-(U22-RI)*%
X100800000Y-152900000D02*
X101800000Y-152900000D01*
X84200000Y-153800000D02*
X83651000Y-153251000D01*
X83651000Y-153251000D02*
X80916000Y-153251000D01*
X102151000Y-153251000D02*
X105084000Y-153251000D01*
X101800000Y-152900000D02*
X102151000Y-153251000D01*
%TO.N,Net-(U22-NRSTO)*%
X100800000Y-155200000D02*
X102000000Y-155200000D01*
X102945000Y-154255000D02*
X105084000Y-154255000D01*
X82455000Y-154255000D02*
X80916000Y-154255000D01*
X84100000Y-155900000D02*
X82455000Y-154255000D01*
X84800000Y-155900000D02*
X84100000Y-155900000D01*
X102000000Y-155200000D02*
X102945000Y-154255000D01*
%TO.N,Net-(U22-CO)*%
X101400000Y-150500000D02*
X103147000Y-152247000D01*
X100800000Y-150500000D02*
X101400000Y-150500000D01*
X84800000Y-151800000D02*
X84247000Y-151800000D01*
X84247000Y-151800000D02*
X83800000Y-152247000D01*
X83800000Y-152247000D02*
X80916000Y-152247000D01*
X103147000Y-152247000D02*
X105084000Y-152247000D01*
%TO.N,Net-(U22-CLKO)*%
X100800000Y-151700000D02*
X101800000Y-151700000D01*
X83849000Y-152749000D02*
X80916000Y-152749000D01*
X84800000Y-152900000D02*
X84000000Y-152900000D01*
X102850000Y-152750000D02*
X105084000Y-152750000D01*
X84000000Y-152900000D02*
X83849000Y-152749000D01*
X101800000Y-151700000D02*
X102850000Y-152750000D01*
%TO.N,Net-(U22-BO)*%
X101900000Y-154000000D02*
X102147000Y-153753000D01*
X82953000Y-153753000D02*
X80916000Y-153753000D01*
X100800000Y-154000000D02*
X101900000Y-154000000D01*
X84000000Y-154800000D02*
X82953000Y-153753000D01*
X84800000Y-154800000D02*
X84000000Y-154800000D01*
X102147000Y-153753000D02*
X105084000Y-153753000D01*
%TO.N,Net-(U18-CLKI)*%
X102419000Y-125625000D02*
X102547000Y-125753000D01*
X83697000Y-125753000D02*
X80916000Y-125753000D01*
X84300000Y-125150000D02*
X83697000Y-125753000D01*
X102547000Y-125753000D02*
X105084000Y-125753000D01*
X100900000Y-125625000D02*
X102419000Y-125625000D01*
X85450000Y-125150000D02*
X84300000Y-125150000D01*
%TO.N,Net-(U18-BI)*%
X83051000Y-124749000D02*
X80916000Y-124749000D01*
X84750000Y-123050000D02*
X83051000Y-124749000D01*
X100874037Y-123575963D02*
X102100963Y-123575963D01*
X103275000Y-124750000D02*
X105084000Y-124750000D01*
X85475000Y-123050000D02*
X84750000Y-123050000D01*
X102100963Y-123575963D02*
X103275000Y-124750000D01*
%TO.N,Net-(U18-CI)*%
X85445000Y-126255000D02*
X80916000Y-126255000D01*
X100900000Y-126700000D02*
X102300000Y-126700000D01*
X85450000Y-126250000D02*
X85445000Y-126255000D01*
X102300000Y-126700000D02*
X102745000Y-126255000D01*
X102745000Y-126255000D02*
X105084000Y-126255000D01*
%TO.N,Net-(U20-INV_CLKO)*%
X71100000Y-121100000D02*
X71650000Y-121100000D01*
X71650000Y-121100000D02*
X74300000Y-123750000D01*
X74300000Y-123750000D02*
X75084000Y-123750000D01*
%TO.N,Net-(U25-INV_CLKO)*%
X73250000Y-151750000D02*
X70700000Y-149200000D01*
X75084000Y-151750000D02*
X73250000Y-151750000D01*
%TO.N,Net-(U6-GPIO12{slash}TOUCH12{slash}ADC2_CH1{slash}FSPICLK{slash}FSPIIO6{slash}SUBSPICLK)*%
X112465000Y-64615000D02*
X112465000Y-65540000D01*
X111800000Y-63950000D02*
X112465000Y-64615000D01*
X110250000Y-63950000D02*
X111800000Y-63950000D01*
%TO.N,Net-(U6-GPIO14{slash}TOUCH14{slash}ADC2_CH3{slash}FSPIWP{slash}FSPIDQS{slash}SUBSPIWP)*%
X109600000Y-62500000D02*
X109800000Y-62700000D01*
X112850000Y-62700000D02*
X115005000Y-64855000D01*
X115005000Y-64855000D02*
X115005000Y-65540000D01*
X109800000Y-62700000D02*
X112850000Y-62700000D01*
%TO.N,Net-(U6-SPIIO6{slash}GPIO35{slash}FSPID{slash}SUBSPID)*%
X123500000Y-62500000D02*
X123500000Y-62448100D01*
X121850000Y-63020000D02*
X122980000Y-63020000D01*
X122980000Y-63020000D02*
X123500000Y-62500000D01*
%TO.N,Net-(U6-SPIIO7{slash}GPIO36{slash}FSPICLK{slash}SUBSPICLK)*%
X121850000Y-61750000D02*
X123050000Y-61750000D01*
X123050000Y-61750000D02*
X123500000Y-61300000D01*
%TO.N,Net-(U6-SPIDQS{slash}GPIO37{slash}FSPIQ{slash}SUBSPIQ)*%
X123020000Y-60480000D02*
X123500000Y-60000000D01*
X121850000Y-60480000D02*
X123020000Y-60480000D01*
%TO.N,Net-(U6-GPIO38{slash}FSPIWP{slash}SUBSPIWP)*%
X122990000Y-59210000D02*
X123500000Y-58700000D01*
X121850000Y-59210000D02*
X122990000Y-59210000D01*
D63*
%TO.N,Net-(J7-VBUS-PadA4)*%
X95300000Y-55000000D02*
X94320000Y-55000000D01*
X94320000Y-55000000D02*
X94270000Y-54950000D01*
X94270000Y-54950000D02*
X94270000Y-53420000D01*
X98450000Y-55000000D02*
X99070000Y-54380000D01*
X94320000Y-55000000D02*
X94320000Y-55730000D01*
X99070000Y-54380000D02*
X99070000Y-53420000D01*
X94320000Y-55730000D02*
X93300000Y-56750000D01*
D62*
%TO.N,Net-(U12-ADDR0)*%
X112930000Y-95745000D02*
X110916000Y-95745000D01*
X114050000Y-93050000D02*
X114050000Y-94625000D01*
X114025000Y-93025000D02*
X114050000Y-93050000D01*
X114050000Y-94625000D02*
X112930000Y-95745000D01*
%TO.N,Net-(U13-VDD3_1)*%
X72220000Y-100530000D02*
X73500000Y-99250000D01*
X71975000Y-100530000D02*
X72220000Y-100530000D01*
X73500000Y-99250000D02*
X75084000Y-99250000D01*
%TO.N,Net-(U12-ADDR1)*%
X113275000Y-92400000D02*
X113275000Y-94750000D01*
X113725000Y-91950000D02*
X113275000Y-92400000D01*
X113275000Y-94750000D02*
X112782000Y-95243000D01*
X112782000Y-95243000D02*
X110916000Y-95243000D01*
%TO.N,Net-(U13-VDD2_1)*%
X73739000Y-99761000D02*
X75084000Y-99761000D01*
X71975000Y-101600000D02*
X71975000Y-101525000D01*
X71975000Y-101525000D02*
X73739000Y-99761000D01*
%TO.N,Net-(U18-ADDR0)*%
X117800000Y-119200000D02*
X117800000Y-118700000D01*
X110916000Y-123745000D02*
X113255000Y-123745000D01*
X113255000Y-123745000D02*
X117800000Y-119200000D01*
%TO.N,Net-(U13-VDD1_1)*%
X71950000Y-102590000D02*
X71950000Y-102579500D01*
X71950000Y-102579500D02*
X74279500Y-100250000D01*
X74279500Y-100250000D02*
X75084000Y-100250000D01*
%TO.N,Net-(U18-ADDR1)*%
X110916000Y-123243000D02*
X112957000Y-123243000D01*
X112957000Y-123243000D02*
X116600000Y-119600000D01*
X116600000Y-119600000D02*
X116600000Y-117600000D01*
%TO.N,Net-(U20-ADDR0)*%
X85500000Y-120875000D02*
X85500000Y-120900000D01*
X85500000Y-120900000D02*
X82655000Y-123745000D01*
X82655000Y-123745000D02*
X80916000Y-123745000D01*
%TO.N,Net-(U20-ADDR1)*%
X85475000Y-119725000D02*
X84750000Y-120450000D01*
X82457000Y-123243000D02*
X80916000Y-123243000D01*
X84750000Y-120450000D02*
X84750000Y-120950000D01*
X84750000Y-120950000D02*
X82457000Y-123243000D01*
%TO.N,Net-(U25-ADDR0)*%
X83055000Y-151745000D02*
X80916000Y-151745000D01*
X84800000Y-150700000D02*
X84100000Y-150700000D01*
X84100000Y-150700000D02*
X83055000Y-151745000D01*
%TO.N,Net-(U25-ADDR1)*%
X82657000Y-151243000D02*
X80916000Y-151243000D01*
X84300000Y-149600000D02*
X82657000Y-151243000D01*
X84800000Y-149600000D02*
X84300000Y-149600000D01*
%TO.N,Net-(U3-MSEL1)*%
X53850000Y-68675000D02*
X53875000Y-68650000D01*
X53875000Y-68650000D02*
X55575000Y-68650000D01*
X55575000Y-68650000D02*
X55650000Y-68725000D01*
X55650000Y-68725000D02*
X55650000Y-69250000D01*
D64*
%TO.N,Net-(U3-BOOT)*%
X58650000Y-75750000D02*
X57100000Y-77300000D01*
X58650000Y-74250000D02*
X58650000Y-75750000D01*
X57100000Y-77300000D02*
X56475000Y-77300000D01*
D62*
%TO.N,/ESP32/VDD_SAMPLE*%
X123380000Y-50320000D02*
X123800000Y-49900000D01*
X121850000Y-50320000D02*
X123380000Y-50320000D01*
D61*
%TO.N,/Power/SW*%
X60650000Y-74250000D02*
X60650000Y-75125000D01*
X59650000Y-74250000D02*
X59650000Y-75125000D01*
D62*
X58925000Y-77300000D02*
X58850000Y-77300000D01*
X56475000Y-78450000D02*
X56475000Y-79200000D01*
D61*
X61150000Y-74250000D02*
X61150000Y-75125000D01*
D62*
X58575000Y-77975000D02*
X58325000Y-78225000D01*
X58325000Y-78225000D02*
X56700000Y-78225000D01*
X58575000Y-77300000D02*
X58575000Y-77975000D01*
D61*
X59150000Y-74250000D02*
X59150000Y-75125000D01*
D62*
X56700000Y-78225000D02*
X56475000Y-78450000D01*
D61*
X60150000Y-74250000D02*
X60150000Y-75125000D01*
D62*
%TO.N,Net-(U3-MSEL2)*%
X55075000Y-66550000D02*
X57150000Y-68625000D01*
X54825000Y-66550000D02*
X55075000Y-66550000D01*
X54750000Y-66475000D02*
X54825000Y-66550000D01*
X57150000Y-68625000D02*
X57150000Y-69250000D01*
D64*
%TO.N,/Power/AGND*%
X54540000Y-63260000D02*
X54550000Y-63250000D01*
X54540000Y-64225000D02*
X54540000Y-63260000D01*
D61*
X54900000Y-72000000D02*
X53700000Y-72000000D01*
D62*
X54535000Y-65500000D02*
X54535000Y-64230000D01*
%TO.N,/Power/PMB_SCL*%
X55741936Y-75729800D02*
X56650000Y-74821736D01*
X54250718Y-76926555D02*
X54250718Y-76899282D01*
X55420200Y-75729800D02*
X55741936Y-75729800D01*
X54250718Y-76899282D02*
X55420200Y-75729800D01*
X56650000Y-74821736D02*
X56650000Y-74250000D01*
%TO.N,/Power/PMB_SDA*%
X56990000Y-88810000D02*
X56325000Y-88145000D01*
X55595968Y-75377400D02*
X56150000Y-74823368D01*
X54275000Y-75975000D02*
X54872600Y-75377400D01*
X56325000Y-88145000D02*
X56325000Y-85675000D01*
X56150000Y-74823368D02*
X56150000Y-74250000D01*
X54872600Y-75377400D02*
X55595968Y-75377400D01*
X54225000Y-75975000D02*
X54275000Y-75975000D01*
%TO.N,/SMB_ALRT*%
X65325000Y-90675000D02*
X64825000Y-91175000D01*
X84425000Y-83525000D02*
X84425000Y-80400000D01*
X81250000Y-86700000D02*
X65950000Y-86700000D01*
X65950000Y-86700000D02*
X65325000Y-87325000D01*
X94950000Y-78100000D02*
X94950000Y-74950000D01*
X93550000Y-79500000D02*
X94950000Y-78100000D01*
X65325000Y-87325000D02*
X65325000Y-90675000D01*
X112250000Y-63200000D02*
X113735000Y-64685000D01*
X85325000Y-79500000D02*
X93550000Y-79500000D01*
X108700000Y-63200000D02*
X112250000Y-63200000D01*
X64825000Y-91175000D02*
X63600000Y-91175000D01*
X81250000Y-86700000D02*
X84425000Y-83525000D01*
X84425000Y-80400000D02*
X85325000Y-79500000D01*
X113735000Y-64685000D02*
X113735000Y-65540000D01*
X94950000Y-74950000D02*
X97550000Y-72350000D01*
%TD*%
%TA.AperFunction,Conductor*%
%TO.N,/BM1366-2/VDD2*%
G36*
X110062539Y-128019685D02*
G01*
X110108294Y-128072489D01*
X110119500Y-128124000D01*
X110119500Y-128405017D01*
X110130292Y-128473157D01*
X110134354Y-128498804D01*
X110191950Y-128611842D01*
X110191952Y-128611844D01*
X110191954Y-128611847D01*
X110281652Y-128701545D01*
X110281654Y-128701546D01*
X110281658Y-128701550D01*
X110394696Y-128759146D01*
X110394698Y-128759147D01*
X110488475Y-128773999D01*
X110488481Y-128774000D01*
X110720212Y-128773999D01*
X110787250Y-128793683D01*
X110808234Y-128810661D01*
X113639024Y-131663741D01*
X113672269Y-131725194D01*
X113675000Y-131751077D01*
X113675000Y-146273637D01*
X113655315Y-146340676D01*
X113638681Y-146361318D01*
X113126973Y-146873025D01*
X113065650Y-146906510D01*
X113025409Y-146908564D01*
X112900004Y-146894435D01*
X112899996Y-146894435D01*
X112720750Y-146914630D01*
X112720745Y-146914631D01*
X112550476Y-146974211D01*
X112397737Y-147070184D01*
X112270184Y-147197737D01*
X112174211Y-147350476D01*
X112114631Y-147520745D01*
X112114630Y-147520750D01*
X112094435Y-147699996D01*
X112094435Y-147700004D01*
X112108564Y-147825409D01*
X112096509Y-147894231D01*
X112073025Y-147926973D01*
X110810317Y-149189681D01*
X110748994Y-149223166D01*
X110722637Y-149226000D01*
X110488482Y-149226000D01*
X110407519Y-149238823D01*
X110394696Y-149240854D01*
X110281658Y-149298450D01*
X110281657Y-149298451D01*
X110281652Y-149298454D01*
X110191954Y-149388152D01*
X110191951Y-149388157D01*
X110191950Y-149388158D01*
X110185327Y-149401157D01*
X110134352Y-149501198D01*
X110119500Y-149594975D01*
X110119500Y-149879017D01*
X110133689Y-149968602D01*
X110133688Y-150007397D01*
X110125452Y-150059398D01*
X110095523Y-150122532D01*
X110036212Y-150159464D01*
X110002979Y-150164000D01*
X105995278Y-150164000D01*
X105928239Y-150144315D01*
X105882484Y-150091511D01*
X105872805Y-150059397D01*
X105866470Y-150019398D01*
X105866470Y-149980602D01*
X105880499Y-149892023D01*
X105880500Y-149892019D01*
X105880499Y-149607982D01*
X105865646Y-149514196D01*
X105808050Y-149401158D01*
X105808046Y-149401154D01*
X105808045Y-149401152D01*
X105718347Y-149311454D01*
X105718344Y-149311452D01*
X105718342Y-149311450D01*
X105641517Y-149272305D01*
X105605301Y-149253852D01*
X105511524Y-149239000D01*
X105292705Y-149239000D01*
X105225666Y-149219315D01*
X105204678Y-149202334D01*
X104027810Y-148016126D01*
X103994568Y-147954671D01*
X103992617Y-147914914D01*
X104005565Y-147800000D01*
X103995066Y-147706814D01*
X103985369Y-147620750D01*
X103985368Y-147620745D01*
X103925788Y-147450476D01*
X103862955Y-147350478D01*
X103829816Y-147297738D01*
X103702262Y-147170184D01*
X103619088Y-147117922D01*
X103549523Y-147074211D01*
X103379254Y-147014631D01*
X103379249Y-147014630D01*
X103200004Y-146994435D01*
X103199997Y-146994435D01*
X103092487Y-147006548D01*
X103023665Y-146994493D01*
X102990580Y-146970664D01*
X102580310Y-146557137D01*
X102385973Y-146361258D01*
X102352731Y-146299803D01*
X102350000Y-146273924D01*
X102350000Y-131726075D01*
X102369685Y-131659036D01*
X102385973Y-131638741D01*
X105204679Y-128797664D01*
X105265868Y-128763938D01*
X105292702Y-128760999D01*
X105511518Y-128760999D01*
X105605304Y-128746146D01*
X105718342Y-128688550D01*
X105808050Y-128598842D01*
X105865646Y-128485804D01*
X105865646Y-128485802D01*
X105865647Y-128485801D01*
X105880499Y-128392024D01*
X105880500Y-128392019D01*
X105880499Y-128123999D01*
X105900183Y-128056961D01*
X105952987Y-128011206D01*
X106004499Y-128000000D01*
X109995500Y-128000000D01*
X110062539Y-128019685D01*
G37*
%TD.AperFunction*%
%TD*%
%TA.AperFunction,Conductor*%
%TO.N,/BM1366-2/VDD2*%
G36*
X80062539Y-128019685D02*
G01*
X80108294Y-128072489D01*
X80119500Y-128124000D01*
X80119500Y-128405017D01*
X80130292Y-128473157D01*
X80134354Y-128498804D01*
X80191950Y-128611842D01*
X80191952Y-128611844D01*
X80191954Y-128611847D01*
X80281652Y-128701545D01*
X80281654Y-128701546D01*
X80281658Y-128701550D01*
X80394696Y-128759146D01*
X80394698Y-128759147D01*
X80488475Y-128773999D01*
X80488481Y-128774000D01*
X80722638Y-128773999D01*
X80789676Y-128793683D01*
X80810318Y-128810318D01*
X83788681Y-131788681D01*
X83822166Y-131850004D01*
X83825000Y-131876362D01*
X83825000Y-138891549D01*
X83824321Y-138904509D01*
X83819540Y-138949999D01*
X83824321Y-138995488D01*
X83825000Y-139008449D01*
X83825000Y-146123637D01*
X83805315Y-146190676D01*
X83788681Y-146211318D01*
X80810317Y-149189681D01*
X80748994Y-149223166D01*
X80722637Y-149226000D01*
X80488482Y-149226000D01*
X80407519Y-149238823D01*
X80394696Y-149240854D01*
X80281658Y-149298450D01*
X80281657Y-149298451D01*
X80281652Y-149298454D01*
X80191954Y-149388152D01*
X80191951Y-149388157D01*
X80191950Y-149388158D01*
X80185327Y-149401157D01*
X80134352Y-149501198D01*
X80119500Y-149594975D01*
X80119500Y-149879017D01*
X80133689Y-149968602D01*
X80133688Y-150007397D01*
X80125452Y-150059398D01*
X80095523Y-150122532D01*
X80036212Y-150159464D01*
X80002979Y-150164000D01*
X75995278Y-150164000D01*
X75928239Y-150144315D01*
X75882484Y-150091511D01*
X75872805Y-150059397D01*
X75866470Y-150019398D01*
X75866470Y-149980602D01*
X75869207Y-149963318D01*
X75880500Y-149892019D01*
X75880499Y-149607982D01*
X75865646Y-149514196D01*
X75808050Y-149401158D01*
X75808046Y-149401154D01*
X75808045Y-149401152D01*
X75718347Y-149311454D01*
X75718344Y-149311452D01*
X75718342Y-149311450D01*
X75628930Y-149265892D01*
X75605301Y-149253852D01*
X75511524Y-149239000D01*
X75292781Y-149239000D01*
X75225742Y-149219315D01*
X75204743Y-149202323D01*
X72485962Y-146461256D01*
X72452727Y-146399796D01*
X72450000Y-146373933D01*
X72450000Y-131601361D01*
X72469685Y-131534322D01*
X72486314Y-131513685D01*
X75202683Y-128797316D01*
X75264004Y-128763833D01*
X75290359Y-128760999D01*
X75511518Y-128760999D01*
X75605304Y-128746146D01*
X75718342Y-128688550D01*
X75808050Y-128598842D01*
X75865646Y-128485804D01*
X75865646Y-128485802D01*
X75865647Y-128485801D01*
X75880499Y-128392024D01*
X75880500Y-128392019D01*
X75880499Y-128123999D01*
X75900183Y-128056961D01*
X75952987Y-128011206D01*
X76004499Y-128000000D01*
X79995500Y-128000000D01*
X80062539Y-128019685D01*
G37*
%TD.AperFunction*%
%TD*%
%TA.AperFunction,Conductor*%
%TO.N,GND*%
G36*
X109790677Y-87219685D02*
G01*
X109811319Y-87236319D01*
X110563442Y-87988442D01*
X110596927Y-88049765D01*
X110599760Y-88076697D01*
X110576473Y-93106731D01*
X110556478Y-93173679D01*
X110503463Y-93219189D01*
X110471872Y-93228630D01*
X110394699Y-93240852D01*
X110377727Y-93249500D01*
X110281658Y-93298450D01*
X110281657Y-93298451D01*
X110281652Y-93298454D01*
X110191954Y-93388152D01*
X110191951Y-93388157D01*
X110191950Y-93388158D01*
X110185327Y-93401157D01*
X110134352Y-93501198D01*
X110119500Y-93594975D01*
X110119500Y-93879017D01*
X110133689Y-93968602D01*
X110133688Y-94007397D01*
X110125452Y-94059398D01*
X110095523Y-94122532D01*
X110036212Y-94159464D01*
X110002979Y-94164000D01*
X105995278Y-94164000D01*
X105928239Y-94144315D01*
X105882484Y-94091511D01*
X105872805Y-94059397D01*
X105866470Y-94019398D01*
X105866470Y-93980602D01*
X105880499Y-93892023D01*
X105880500Y-93892019D01*
X105880499Y-93607982D01*
X105865646Y-93514196D01*
X105808050Y-93401158D01*
X105808046Y-93401154D01*
X105808045Y-93401152D01*
X105718347Y-93311454D01*
X105718344Y-93311452D01*
X105718342Y-93311450D01*
X105641517Y-93272305D01*
X105605301Y-93253852D01*
X105511524Y-93239000D01*
X105499000Y-93239000D01*
X105431961Y-93219315D01*
X105386206Y-93166511D01*
X105375000Y-93115000D01*
X105375000Y-92176397D01*
X105381959Y-92135442D01*
X105384124Y-92129255D01*
X105410368Y-92054255D01*
X105430565Y-91875000D01*
X105418818Y-91770745D01*
X105410369Y-91695750D01*
X105410367Y-91695742D01*
X105381958Y-91614552D01*
X105375000Y-91573598D01*
X105375000Y-88126362D01*
X105394685Y-88059323D01*
X105411319Y-88038681D01*
X106213681Y-87236319D01*
X106275004Y-87202834D01*
X106301362Y-87200000D01*
X109723638Y-87200000D01*
X109790677Y-87219685D01*
G37*
%TD.AperFunction*%
%TD*%
%TA.AperFunction,Conductor*%
%TO.N,GND*%
G36*
X83943039Y-52319685D02*
G01*
X83988794Y-52372489D01*
X84000000Y-52424000D01*
X84000000Y-53076000D01*
X83980315Y-53143039D01*
X83927511Y-53188794D01*
X83876000Y-53200000D01*
X83349999Y-53200000D01*
X82950000Y-53599999D01*
X82950000Y-53723573D01*
X82947618Y-53747762D01*
X82944000Y-53765952D01*
X82944000Y-54034048D01*
X82947617Y-54052231D01*
X82950000Y-54076425D01*
X82950000Y-54150000D01*
X83095552Y-54295552D01*
X83129037Y-54356875D01*
X83124053Y-54426567D01*
X83082181Y-54482500D01*
X83055327Y-54497793D01*
X83050000Y-54499999D01*
X82950000Y-54599999D01*
X82950000Y-54723571D01*
X82947618Y-54747760D01*
X82944000Y-54765950D01*
X82944000Y-55034046D01*
X82947617Y-55052229D01*
X82950000Y-55076423D01*
X82950000Y-55576000D01*
X82930315Y-55643039D01*
X82877511Y-55688794D01*
X82826000Y-55700000D01*
X82574000Y-55700000D01*
X82506961Y-55680315D01*
X82461206Y-55627511D01*
X82450000Y-55576000D01*
X82450000Y-55076423D01*
X82452383Y-55052229D01*
X82456000Y-55034046D01*
X82456000Y-54765950D01*
X82452382Y-54747760D01*
X82450000Y-54723571D01*
X82450000Y-54576424D01*
X82452383Y-54552230D01*
X82456000Y-54534047D01*
X82456000Y-54265951D01*
X82452382Y-54247761D01*
X82450000Y-54223572D01*
X82450000Y-54076425D01*
X82452383Y-54052231D01*
X82456000Y-54034048D01*
X82456000Y-53765952D01*
X82452382Y-53747762D01*
X82450000Y-53723573D01*
X82450000Y-53600000D01*
X82000000Y-53150000D01*
X81374000Y-53150000D01*
X81306961Y-53130315D01*
X81261206Y-53077511D01*
X81250000Y-53026000D01*
X81250000Y-52424000D01*
X81269685Y-52356961D01*
X81322489Y-52311206D01*
X81374000Y-52300000D01*
X83876000Y-52300000D01*
X83943039Y-52319685D01*
G37*
%TD.AperFunction*%
%TD*%
%TA.AperFunction,Conductor*%
%TO.N,GND*%
G36*
X74640677Y-55294685D02*
G01*
X74661319Y-55311319D01*
X75413681Y-56063681D01*
X75447166Y-56125004D01*
X75450000Y-56151362D01*
X75450000Y-57525000D01*
X77575928Y-59650928D01*
X77609413Y-59712251D01*
X77612245Y-59739220D01*
X77599999Y-62224998D01*
X77600000Y-62225000D01*
X79713681Y-64338681D01*
X79747166Y-64400004D01*
X79750000Y-64426362D01*
X79750000Y-66776000D01*
X79730315Y-66843039D01*
X79677511Y-66888794D01*
X79626000Y-66900000D01*
X76850000Y-66900000D01*
X75486447Y-68287902D01*
X75425422Y-68321928D01*
X75397993Y-68325000D01*
X65000000Y-68325000D01*
X65000000Y-74276000D01*
X64980315Y-74343039D01*
X64927511Y-74388794D01*
X64876000Y-74400000D01*
X62951362Y-74400000D01*
X62884323Y-74380315D01*
X62863681Y-74363681D01*
X62125000Y-73625000D01*
X61576362Y-73625000D01*
X61509323Y-73605315D01*
X61488681Y-73588681D01*
X61300000Y-73400000D01*
X60949000Y-73400000D01*
X60881961Y-73380315D01*
X60836206Y-73327511D01*
X60825000Y-73276000D01*
X60825000Y-70224000D01*
X60844685Y-70156961D01*
X60897489Y-70111206D01*
X60949000Y-70100000D01*
X61300000Y-70100000D01*
X61488681Y-69911319D01*
X61550004Y-69877834D01*
X61576362Y-69875000D01*
X62125000Y-69875000D01*
X62875000Y-69125000D01*
X62875000Y-66599000D01*
X62894685Y-66531961D01*
X62947489Y-66486206D01*
X62999000Y-66475000D01*
X63850000Y-66475000D01*
X64175000Y-66150000D01*
X64175000Y-64849000D01*
X64194685Y-64781961D01*
X64247489Y-64736206D01*
X64299000Y-64725000D01*
X73325000Y-64725000D01*
X73325000Y-62025000D01*
X65424000Y-62025000D01*
X65356961Y-62005315D01*
X65311206Y-61952511D01*
X65300000Y-61901000D01*
X65300000Y-59174000D01*
X65319685Y-59106961D01*
X65372489Y-59061206D01*
X65424000Y-59050000D01*
X66150000Y-59050000D01*
X67650000Y-57550000D01*
X67650000Y-56051362D01*
X67669685Y-55984323D01*
X67686319Y-55963681D01*
X68338681Y-55311319D01*
X68400004Y-55277834D01*
X68426362Y-55275000D01*
X74573638Y-55275000D01*
X74640677Y-55294685D01*
G37*
%TD.AperFunction*%
%TD*%
%TA.AperFunction,Conductor*%
%TO.N,/BM1366-1/VDD1*%
G36*
X80062539Y-100019685D02*
G01*
X80108294Y-100072489D01*
X80119500Y-100124000D01*
X80119500Y-100405017D01*
X80130292Y-100473157D01*
X80134354Y-100498804D01*
X80191950Y-100611842D01*
X80191952Y-100611844D01*
X80191954Y-100611847D01*
X80281652Y-100701545D01*
X80281654Y-100701546D01*
X80281658Y-100701550D01*
X80394696Y-100759146D01*
X80394698Y-100759147D01*
X80488475Y-100773999D01*
X80488481Y-100774000D01*
X80722638Y-100773999D01*
X80789676Y-100793683D01*
X80810318Y-100810318D01*
X83838681Y-103838681D01*
X83872166Y-103900004D01*
X83875000Y-103926362D01*
X83875000Y-110489811D01*
X83858387Y-110551811D01*
X83797821Y-110656714D01*
X83739327Y-110836740D01*
X83739326Y-110836744D01*
X83719540Y-111025000D01*
X83739326Y-111213256D01*
X83739327Y-111213259D01*
X83797818Y-111393277D01*
X83797821Y-111393284D01*
X83858387Y-111498187D01*
X83875000Y-111560187D01*
X83875000Y-117890823D01*
X83855315Y-117957862D01*
X83838681Y-117978504D01*
X82617419Y-119199765D01*
X82556096Y-119233250D01*
X82515855Y-119235304D01*
X82375004Y-119219435D01*
X82374996Y-119219435D01*
X82195750Y-119239630D01*
X82195745Y-119239631D01*
X82025476Y-119299211D01*
X81872737Y-119395184D01*
X81745184Y-119522737D01*
X81649211Y-119675476D01*
X81589631Y-119845745D01*
X81589630Y-119845750D01*
X81569435Y-120024996D01*
X81569435Y-120025003D01*
X81589630Y-120204246D01*
X81589630Y-120204248D01*
X81589631Y-120204253D01*
X81589632Y-120204255D01*
X81617326Y-120283400D01*
X81620887Y-120353176D01*
X81587965Y-120412033D01*
X80810317Y-121189681D01*
X80748994Y-121223166D01*
X80722637Y-121226000D01*
X80488482Y-121226000D01*
X80407519Y-121238823D01*
X80394696Y-121240854D01*
X80281658Y-121298450D01*
X80281657Y-121298451D01*
X80281652Y-121298454D01*
X80191954Y-121388152D01*
X80191951Y-121388157D01*
X80191950Y-121388158D01*
X80172751Y-121425837D01*
X80134352Y-121501198D01*
X80119500Y-121594975D01*
X80119500Y-121879017D01*
X80133689Y-121968602D01*
X80133688Y-122007397D01*
X80125452Y-122059398D01*
X80095523Y-122122532D01*
X80036212Y-122159464D01*
X80002979Y-122164000D01*
X75995278Y-122164000D01*
X75928239Y-122144315D01*
X75882484Y-122091511D01*
X75872805Y-122059397D01*
X75866470Y-122019398D01*
X75866470Y-121980602D01*
X75869874Y-121959107D01*
X75880500Y-121892019D01*
X75880499Y-121607982D01*
X75865646Y-121514196D01*
X75808050Y-121401158D01*
X75808046Y-121401154D01*
X75808045Y-121401152D01*
X75718347Y-121311454D01*
X75718344Y-121311452D01*
X75718342Y-121311450D01*
X75641517Y-121272305D01*
X75605301Y-121253852D01*
X75511524Y-121239000D01*
X75511519Y-121239000D01*
X75290362Y-121239000D01*
X75223323Y-121219315D01*
X75202681Y-121202681D01*
X74299994Y-120299994D01*
X74266509Y-120238671D01*
X74270634Y-120171360D01*
X74285368Y-120129255D01*
X74297115Y-120025003D01*
X74305565Y-119950003D01*
X74305565Y-119949996D01*
X74285369Y-119770750D01*
X74285368Y-119770745D01*
X74267676Y-119720184D01*
X74225789Y-119600478D01*
X74203265Y-119564632D01*
X74129815Y-119447737D01*
X74002262Y-119320184D01*
X73849523Y-119224211D01*
X73679254Y-119164631D01*
X73679249Y-119164630D01*
X73500004Y-119144435D01*
X73499996Y-119144435D01*
X73320746Y-119164631D01*
X73320745Y-119164631D01*
X73278638Y-119179365D01*
X73208860Y-119182926D01*
X73150004Y-119150004D01*
X72636319Y-118636319D01*
X72602834Y-118574996D01*
X72600000Y-118548638D01*
X72600000Y-103451361D01*
X72619685Y-103384322D01*
X72636314Y-103363685D01*
X75202683Y-100797316D01*
X75264004Y-100763833D01*
X75290359Y-100760999D01*
X75511518Y-100760999D01*
X75605304Y-100746146D01*
X75718342Y-100688550D01*
X75808050Y-100598842D01*
X75865646Y-100485804D01*
X75865646Y-100485802D01*
X75865647Y-100485801D01*
X75880499Y-100392024D01*
X75880500Y-100392019D01*
X75880499Y-100123999D01*
X75900183Y-100056961D01*
X75952987Y-100011206D01*
X76004499Y-100000000D01*
X79995500Y-100000000D01*
X80062539Y-100019685D01*
G37*
%TD.AperFunction*%
%TD*%
%TA.AperFunction,Conductor*%
%TO.N,/VDD*%
G36*
X76140677Y-68969685D02*
G01*
X76161319Y-68986319D01*
X76900000Y-69725000D01*
X79698638Y-69725000D01*
X79765677Y-69744685D01*
X79786319Y-69761319D01*
X82613681Y-72588681D01*
X82647166Y-72650004D01*
X82650000Y-72676362D01*
X82650000Y-82423638D01*
X82630315Y-82490677D01*
X82613681Y-82511319D01*
X80361319Y-84763681D01*
X80299996Y-84797166D01*
X80273638Y-84800000D01*
X73974000Y-84800000D01*
X73906961Y-84780315D01*
X73861206Y-84727511D01*
X73850000Y-84676000D01*
X73850000Y-82051362D01*
X73869685Y-81984323D01*
X73886319Y-81963681D01*
X75525000Y-80325000D01*
X75525000Y-75275000D01*
X73286338Y-73036338D01*
X73256979Y-72989614D01*
X73225789Y-72900478D01*
X73129816Y-72747738D01*
X73002262Y-72620184D01*
X72849522Y-72524211D01*
X72849519Y-72524209D01*
X72760385Y-72493019D01*
X72713659Y-72463659D01*
X72175000Y-71925000D01*
X71553884Y-71925000D01*
X71486845Y-71905315D01*
X71463233Y-71885607D01*
X71183349Y-71585731D01*
X71151997Y-71523291D01*
X71150000Y-71501124D01*
X71150000Y-69074000D01*
X71169685Y-69006961D01*
X71222489Y-68961206D01*
X71274000Y-68950000D01*
X76073638Y-68950000D01*
X76140677Y-68969685D01*
G37*
%TD.AperFunction*%
%TD*%
%TA.AperFunction,Conductor*%
%TO.N,GND*%
G36*
X92843039Y-171119685D02*
G01*
X92888794Y-171172489D01*
X92900000Y-171224000D01*
X92900000Y-171876000D01*
X92880315Y-171943039D01*
X92827511Y-171988794D01*
X92776000Y-172000000D01*
X92249999Y-172000000D01*
X91850000Y-172399999D01*
X91850000Y-172527596D01*
X91847618Y-172551785D01*
X91844800Y-172565953D01*
X91844800Y-172834048D01*
X91847617Y-172848209D01*
X91850000Y-172872403D01*
X91850000Y-172950000D01*
X91995552Y-173095552D01*
X92029037Y-173156875D01*
X92024053Y-173226567D01*
X91982181Y-173282500D01*
X91955327Y-173297793D01*
X91950000Y-173299999D01*
X91850000Y-173399999D01*
X91850000Y-173527594D01*
X91847618Y-173551783D01*
X91844800Y-173565951D01*
X91844800Y-173834047D01*
X91844800Y-173834049D01*
X91847617Y-173848207D01*
X91850000Y-173872401D01*
X91850000Y-173875500D01*
X91830315Y-173942539D01*
X91777511Y-173988294D01*
X91726000Y-173999500D01*
X91474984Y-173999500D01*
X91407945Y-173979815D01*
X91362190Y-173927011D01*
X91352246Y-173857853D01*
X91353367Y-173851308D01*
X91356800Y-173834049D01*
X91356800Y-173565950D01*
X91356799Y-173565949D01*
X91352383Y-173543745D01*
X91350000Y-173519553D01*
X91350000Y-173380445D01*
X91352382Y-173356256D01*
X91356800Y-173334048D01*
X91356800Y-173065952D01*
X91352383Y-173043746D01*
X91350000Y-173019554D01*
X91350000Y-172880446D01*
X91352382Y-172856257D01*
X91356800Y-172834049D01*
X91356800Y-172565953D01*
X91352383Y-172543747D01*
X91350000Y-172519555D01*
X91350000Y-172400000D01*
X90900000Y-171950000D01*
X90342071Y-171950000D01*
X90275032Y-171930315D01*
X90266590Y-171924380D01*
X90202841Y-171875464D01*
X90202840Y-171875463D01*
X90198513Y-171872143D01*
X90157311Y-171815715D01*
X90150000Y-171773767D01*
X90150000Y-171224000D01*
X90169685Y-171156961D01*
X90222489Y-171111206D01*
X90274000Y-171100000D01*
X92776000Y-171100000D01*
X92843039Y-171119685D01*
G37*
%TD.AperFunction*%
%TD*%
%TA.AperFunction,Conductor*%
%TO.N,/VDD*%
G36*
X110070019Y-155855685D02*
G01*
X110115774Y-155908489D01*
X110125454Y-155940604D01*
X110133689Y-155992603D01*
X110133688Y-156031397D01*
X110119500Y-156120975D01*
X110119500Y-156405017D01*
X110130292Y-156473157D01*
X110134354Y-156498804D01*
X110191950Y-156611842D01*
X110191952Y-156611844D01*
X110191954Y-156611847D01*
X110281652Y-156701545D01*
X110281654Y-156701546D01*
X110281658Y-156701550D01*
X110394696Y-156759146D01*
X110394698Y-156759147D01*
X110488475Y-156773999D01*
X110488481Y-156774000D01*
X110722638Y-156773999D01*
X110789676Y-156793683D01*
X110810318Y-156810318D01*
X111713681Y-157713681D01*
X111747166Y-157775004D01*
X111750000Y-157801362D01*
X111750000Y-159698638D01*
X111730315Y-159765677D01*
X111713681Y-159786319D01*
X109786319Y-161713681D01*
X109724996Y-161747166D01*
X109698638Y-161750000D01*
X106301362Y-161750000D01*
X106234323Y-161730315D01*
X106213681Y-161713681D01*
X104286319Y-159786319D01*
X104252834Y-159724996D01*
X104250000Y-159698638D01*
X104250000Y-157801362D01*
X104269685Y-157734323D01*
X104286319Y-157713681D01*
X105202682Y-156797318D01*
X105264005Y-156763833D01*
X105290363Y-156760999D01*
X105511517Y-156760999D01*
X105511518Y-156760999D01*
X105605304Y-156746146D01*
X105718342Y-156688550D01*
X105808050Y-156598842D01*
X105865646Y-156485804D01*
X105865646Y-156485802D01*
X105865647Y-156485801D01*
X105880499Y-156392024D01*
X105880500Y-156392019D01*
X105880499Y-156107982D01*
X105880499Y-156107976D01*
X105867341Y-156024898D01*
X105867341Y-155986102D01*
X105874548Y-155940601D01*
X105904478Y-155877467D01*
X105963790Y-155840536D01*
X105997021Y-155836000D01*
X110002980Y-155836000D01*
X110070019Y-155855685D01*
G37*
%TD.AperFunction*%
%TD*%
%TA.AperFunction,Conductor*%
%TO.N,/BM1366-1/VDD1*%
G36*
X110062539Y-100019685D02*
G01*
X110108294Y-100072489D01*
X110119500Y-100124000D01*
X110119500Y-100405017D01*
X110130292Y-100473157D01*
X110134354Y-100498804D01*
X110191950Y-100611842D01*
X110191952Y-100611844D01*
X110191954Y-100611847D01*
X110281652Y-100701545D01*
X110281654Y-100701546D01*
X110281658Y-100701550D01*
X110394696Y-100759146D01*
X110394698Y-100759147D01*
X110488475Y-100773999D01*
X110488481Y-100774000D01*
X110720249Y-100773999D01*
X110787287Y-100793683D01*
X110808267Y-100810657D01*
X113503830Y-103527116D01*
X113689019Y-103713740D01*
X113722267Y-103775192D01*
X113725000Y-103801082D01*
X113725000Y-118223637D01*
X113705315Y-118290676D01*
X113688681Y-118311318D01*
X113137099Y-118862899D01*
X113075776Y-118896384D01*
X113035536Y-118898438D01*
X113000004Y-118894435D01*
X112999996Y-118894435D01*
X112820750Y-118914630D01*
X112820745Y-118914631D01*
X112650476Y-118974211D01*
X112497737Y-119070184D01*
X112370184Y-119197737D01*
X112274211Y-119350476D01*
X112214631Y-119520745D01*
X112214630Y-119520750D01*
X112194435Y-119699996D01*
X112194435Y-119700004D01*
X112198438Y-119735536D01*
X112186383Y-119804358D01*
X112162899Y-119837099D01*
X110810317Y-121189681D01*
X110748994Y-121223166D01*
X110722637Y-121226000D01*
X110488482Y-121226000D01*
X110407519Y-121238823D01*
X110394696Y-121240854D01*
X110281658Y-121298450D01*
X110281657Y-121298451D01*
X110281652Y-121298454D01*
X110191954Y-121388152D01*
X110191951Y-121388157D01*
X110191950Y-121388158D01*
X110185327Y-121401157D01*
X110134352Y-121501198D01*
X110119500Y-121594975D01*
X110119500Y-121879017D01*
X110133689Y-121968602D01*
X110133688Y-122007397D01*
X110125452Y-122059398D01*
X110095523Y-122122532D01*
X110036212Y-122159464D01*
X110002979Y-122164000D01*
X105995278Y-122164000D01*
X105928239Y-122144315D01*
X105882484Y-122091511D01*
X105872805Y-122059397D01*
X105866470Y-122019398D01*
X105866470Y-121980602D01*
X105880499Y-121892023D01*
X105880500Y-121892019D01*
X105880499Y-121607982D01*
X105865646Y-121514196D01*
X105808050Y-121401158D01*
X105808046Y-121401154D01*
X105808045Y-121401152D01*
X105718347Y-121311454D01*
X105718344Y-121311452D01*
X105718342Y-121311450D01*
X105641517Y-121272305D01*
X105605301Y-121253852D01*
X105511524Y-121239000D01*
X105292705Y-121239000D01*
X105225666Y-121219315D01*
X105204678Y-121202334D01*
X103938009Y-119925612D01*
X103904767Y-119864157D01*
X103902816Y-119824396D01*
X103905565Y-119800000D01*
X103896635Y-119720745D01*
X103885369Y-119620750D01*
X103885368Y-119620745D01*
X103825789Y-119450478D01*
X103729816Y-119297738D01*
X103602262Y-119170184D01*
X103513852Y-119114632D01*
X103449523Y-119074211D01*
X103279254Y-119014631D01*
X103279249Y-119014630D01*
X103100004Y-118994435D01*
X103100001Y-118994435D01*
X103100000Y-118994435D01*
X103097388Y-118994729D01*
X103082430Y-118996414D01*
X103013608Y-118984356D01*
X102980524Y-118960527D01*
X102385973Y-118361258D01*
X102352731Y-118299803D01*
X102350000Y-118273924D01*
X102350000Y-103780863D01*
X102369007Y-103714890D01*
X102371577Y-103710798D01*
X102425789Y-103624522D01*
X102443522Y-103573842D01*
X102472878Y-103527121D01*
X105202682Y-100797318D01*
X105264005Y-100763833D01*
X105290363Y-100760999D01*
X105511517Y-100760999D01*
X105511518Y-100760999D01*
X105605304Y-100746146D01*
X105718342Y-100688550D01*
X105808050Y-100598842D01*
X105865646Y-100485804D01*
X105865646Y-100485802D01*
X105865647Y-100485801D01*
X105880499Y-100392024D01*
X105880500Y-100392019D01*
X105880499Y-100123999D01*
X105900183Y-100056961D01*
X105952987Y-100011206D01*
X106004499Y-100000000D01*
X109995500Y-100000000D01*
X110062539Y-100019685D01*
G37*
%TD.AperFunction*%
%TD*%
%TA.AperFunction,Conductor*%
%TO.N,/Power/SW*%
G36*
X65114706Y-74819685D02*
G01*
X65136505Y-74837492D01*
X65989844Y-75713893D01*
X66022507Y-75775655D01*
X66025000Y-75800395D01*
X66025000Y-78001000D01*
X66005315Y-78068039D01*
X65952511Y-78113794D01*
X65901000Y-78125000D01*
X64901362Y-78125000D01*
X64834323Y-78105315D01*
X64813681Y-78088681D01*
X64075000Y-77350000D01*
X58274000Y-77350000D01*
X58206961Y-77330315D01*
X58161206Y-77277511D01*
X58150000Y-77226000D01*
X58150000Y-76851362D01*
X58169685Y-76784323D01*
X58186319Y-76763681D01*
X58950000Y-76000000D01*
X58950000Y-75912071D01*
X58954225Y-75879977D01*
X58973724Y-75807207D01*
X58977500Y-75793116D01*
X58977500Y-75706884D01*
X58977500Y-74924000D01*
X58997185Y-74856961D01*
X59049989Y-74811206D01*
X59101500Y-74800000D01*
X65047667Y-74800000D01*
X65114706Y-74819685D01*
G37*
%TD.AperFunction*%
%TD*%
%TA.AperFunction,Conductor*%
%TO.N,/5V*%
G36*
X112943039Y-80969685D02*
G01*
X112988794Y-81022489D01*
X113000000Y-81074000D01*
X113000000Y-82998638D01*
X112980315Y-83065677D01*
X112963681Y-83086319D01*
X110961319Y-85088681D01*
X110899996Y-85122166D01*
X110873638Y-85125000D01*
X101624999Y-85125000D01*
X100325001Y-86424997D01*
X100324999Y-86425001D01*
X100275175Y-100923887D01*
X100255260Y-100990859D01*
X100238857Y-101011142D01*
X97125000Y-104124999D01*
X97125000Y-106941549D01*
X97124321Y-106954509D01*
X97119540Y-106999999D01*
X97124321Y-107045488D01*
X97125000Y-107058449D01*
X97125000Y-108441549D01*
X97124321Y-108454509D01*
X97119540Y-108499999D01*
X97124321Y-108545488D01*
X97125000Y-108558449D01*
X97125000Y-109100000D01*
X99638617Y-111613617D01*
X99672102Y-111674940D01*
X99674936Y-111701451D01*
X99650062Y-131924151D01*
X99630295Y-131991166D01*
X99614254Y-132011165D01*
X97525000Y-134124998D01*
X97500085Y-148973760D01*
X97480288Y-149040766D01*
X97463766Y-149061233D01*
X96961319Y-149563681D01*
X96899996Y-149597166D01*
X96873638Y-149600000D01*
X95051362Y-149600000D01*
X94984323Y-149580315D01*
X94963681Y-149563681D01*
X94511237Y-149111237D01*
X94477752Y-149049914D01*
X94474918Y-149023754D01*
X94474838Y-148973760D01*
X94450082Y-133451476D01*
X94469660Y-133384406D01*
X94486396Y-133363603D01*
X97050000Y-130800000D01*
X97000000Y-112850000D01*
X96999999Y-112849999D01*
X96999999Y-112849998D01*
X94136319Y-109986318D01*
X94102834Y-109924995D01*
X94100000Y-109898637D01*
X94100000Y-103175554D01*
X94119685Y-103108515D01*
X94135342Y-103088859D01*
X97425000Y-99725000D01*
X97400087Y-85076483D01*
X97419658Y-85009412D01*
X97436401Y-84988598D01*
X100188681Y-82236319D01*
X100250004Y-82202834D01*
X100276362Y-82200000D01*
X105522336Y-82200000D01*
X105589375Y-82219685D01*
X105595221Y-82223682D01*
X105747265Y-82334148D01*
X105747270Y-82334151D01*
X105920192Y-82411142D01*
X105920197Y-82411144D01*
X106105354Y-82450500D01*
X106105355Y-82450500D01*
X106294644Y-82450500D01*
X106294646Y-82450500D01*
X106479803Y-82411144D01*
X106652730Y-82334151D01*
X106787385Y-82236319D01*
X106804779Y-82223682D01*
X106870585Y-82200202D01*
X106877664Y-82200000D01*
X108000000Y-82200000D01*
X109213681Y-80986319D01*
X109275004Y-80952834D01*
X109301362Y-80950000D01*
X112876000Y-80950000D01*
X112943039Y-80969685D01*
G37*
%TD.AperFunction*%
%TD*%
%TA.AperFunction,Conductor*%
%TO.N,/VIN*%
G36*
X64765677Y-54469685D02*
G01*
X64786319Y-54486319D01*
X65688681Y-55388681D01*
X65722166Y-55450004D01*
X65725000Y-55476362D01*
X65725000Y-56823015D01*
X65705315Y-56890054D01*
X65687929Y-56911442D01*
X64286186Y-58289427D01*
X64224579Y-58322387D01*
X64199257Y-58325000D01*
X62124999Y-58325000D01*
X61800000Y-58649999D01*
X61800000Y-68273638D01*
X61780315Y-68340677D01*
X61763681Y-68361319D01*
X61411319Y-68713681D01*
X61349996Y-68747166D01*
X61323638Y-68750000D01*
X59099500Y-68750000D01*
X59032461Y-68730315D01*
X58986706Y-68677511D01*
X58975500Y-68626000D01*
X58975500Y-67977854D01*
X58975000Y-67970224D01*
X58975000Y-67750000D01*
X58786819Y-67561819D01*
X58753334Y-67500496D01*
X58750500Y-67474138D01*
X58750500Y-67032147D01*
X58750499Y-67032144D01*
X58739472Y-66990989D01*
X58739472Y-66990988D01*
X58728318Y-66949361D01*
X58685465Y-66875138D01*
X57786319Y-65975992D01*
X57752834Y-65914669D01*
X57750000Y-65888311D01*
X57750000Y-55376362D01*
X57769685Y-55309323D01*
X57786319Y-55288681D01*
X58588681Y-54486319D01*
X58650004Y-54452834D01*
X58676362Y-54450000D01*
X64698638Y-54450000D01*
X64765677Y-54469685D01*
G37*
%TD.AperFunction*%
%TD*%
%TA.AperFunction,Conductor*%
%TO.N,/VDD*%
G36*
X80070019Y-155855685D02*
G01*
X80115774Y-155908489D01*
X80125454Y-155940604D01*
X80133689Y-155992603D01*
X80133688Y-156031397D01*
X80119500Y-156120975D01*
X80119500Y-156405017D01*
X80130292Y-156473157D01*
X80134354Y-156498804D01*
X80191950Y-156611842D01*
X80191952Y-156611844D01*
X80191954Y-156611847D01*
X80281652Y-156701545D01*
X80281654Y-156701546D01*
X80281658Y-156701550D01*
X80394696Y-156759146D01*
X80394698Y-156759147D01*
X80488475Y-156773999D01*
X80488481Y-156774000D01*
X80722638Y-156773999D01*
X80789676Y-156793683D01*
X80810318Y-156810318D01*
X81713681Y-157713681D01*
X81747166Y-157775004D01*
X81750000Y-157801362D01*
X81750000Y-158566560D01*
X81730315Y-158633599D01*
X81713681Y-158654241D01*
X81670184Y-158697737D01*
X81574211Y-158850476D01*
X81514631Y-159020745D01*
X81514630Y-159020750D01*
X81494435Y-159199996D01*
X81494435Y-159200003D01*
X81514630Y-159379249D01*
X81514631Y-159379254D01*
X81574211Y-159549523D01*
X81666793Y-159696866D01*
X81685793Y-159764103D01*
X81665425Y-159830938D01*
X81649480Y-159850519D01*
X79786319Y-161713681D01*
X79724996Y-161747166D01*
X79698638Y-161750000D01*
X76301362Y-161750000D01*
X76234323Y-161730315D01*
X76213681Y-161713681D01*
X74286319Y-159786319D01*
X74252834Y-159724996D01*
X74250000Y-159698638D01*
X74250000Y-157801362D01*
X74269685Y-157734323D01*
X74286319Y-157713681D01*
X75202682Y-156797318D01*
X75264005Y-156763833D01*
X75290363Y-156760999D01*
X75511517Y-156760999D01*
X75511518Y-156760999D01*
X75605304Y-156746146D01*
X75718342Y-156688550D01*
X75808050Y-156598842D01*
X75865646Y-156485804D01*
X75865646Y-156485802D01*
X75865647Y-156485801D01*
X75880499Y-156392024D01*
X75880500Y-156392019D01*
X75880499Y-156107982D01*
X75880499Y-156107976D01*
X75867341Y-156024898D01*
X75867341Y-155986102D01*
X75874548Y-155940601D01*
X75904478Y-155877467D01*
X75963790Y-155840536D01*
X75997021Y-155836000D01*
X80002980Y-155836000D01*
X80070019Y-155855685D01*
G37*
%TD.AperFunction*%
%TD*%
%TA.AperFunction,Conductor*%
%TO.N,GND*%
G36*
X79866177Y-87220185D02*
G01*
X79886819Y-87236819D01*
X80563887Y-87913887D01*
X80597372Y-87975210D01*
X80600205Y-88001069D01*
X80620725Y-93101501D01*
X80601310Y-93168619D01*
X80548691Y-93214586D01*
X80496735Y-93226000D01*
X80488484Y-93226000D01*
X80422188Y-93236500D01*
X80394696Y-93240854D01*
X80281658Y-93298450D01*
X80281657Y-93298451D01*
X80281652Y-93298454D01*
X80191954Y-93388152D01*
X80191951Y-93388157D01*
X80191950Y-93388158D01*
X80185327Y-93401157D01*
X80134352Y-93501198D01*
X80119500Y-93594975D01*
X80119500Y-93879017D01*
X80133689Y-93968602D01*
X80133688Y-94007397D01*
X80125452Y-94059398D01*
X80095523Y-94122532D01*
X80036212Y-94159464D01*
X80002979Y-94164000D01*
X75995278Y-94164000D01*
X75928239Y-94144315D01*
X75882484Y-94091511D01*
X75872805Y-94059397D01*
X75866470Y-94019398D01*
X75866470Y-93980602D01*
X75874217Y-93931686D01*
X75880500Y-93892019D01*
X75880499Y-93607982D01*
X75865646Y-93514196D01*
X75808050Y-93401158D01*
X75808046Y-93401154D01*
X75808045Y-93401152D01*
X75718347Y-93311454D01*
X75718344Y-93311452D01*
X75718342Y-93311450D01*
X75641517Y-93272305D01*
X75605301Y-93253852D01*
X75511524Y-93239000D01*
X75499000Y-93239000D01*
X75431961Y-93219315D01*
X75386206Y-93166511D01*
X75375000Y-93115000D01*
X75375000Y-88101149D01*
X75394685Y-88034110D01*
X75411058Y-88013729D01*
X76183170Y-87237075D01*
X76244395Y-87203412D01*
X76271108Y-87200500D01*
X79799138Y-87200500D01*
X79866177Y-87220185D01*
G37*
%TD.AperFunction*%
%TD*%
M02*
