M48
; DRILL file {KiCad 7.0.7} date Thu Nov  2 18:15:10 2023
; FORMAT={-:-/ absolute / inch / decimal}
; #@! TF.CreationDate,2023-11-02T18:15:10-06:00
; #@! TF.GenerationSoftware,Kicad,Pcbnew,7.0.7
; #@! TF.FileFunction,Plated,1,4,PTH
FMAT,2
INCH
; #@! TA.AperFunction,Plated,PTH,ComponentDrill
T1C0.0118
; #@! TA.AperFunction,Plated,PTH,ViaDrill
T2C0.0157
; #@! TA.AperFunction,Plated,PTH,ViaDrill
T3C0.0236
; #@! TA.AperFunction,Plated,PTH,ComponentDrill
T4C0.0236
; #@! TA.AperFunction,Plated,PTH,ViaDrill
T5C0.0315
; #@! TA.AperFunction,Plated,PTH,ComponentDrill
T6C0.0394
; #@! TA.AperFunction,Plated,PTH,ComponentDrill
T7C0.0420
; #@! TA.AperFunction,Plated,PTH,ComponentDrill
T8C0.0728
; #@! TA.AperFunction,Plated,PTH,ComponentDrill
T9C0.0866
%
G90
G05
T1
X2.4047Y-2.73
X2.4274Y-2.6926
X2.4274Y-2.7674
X2.45Y-2.73
T2
X2.1102Y-4.2323
X2.185Y-2.5472
X2.2047Y-2.8976
X2.2437Y-4.4917
X2.2441Y-4.2756
X2.2598Y-4.6496
X2.311Y-2.9409
X2.3307Y-2.5669
X2.3386Y-2.8114
X2.3485Y-4.1102
X2.3622Y-2.6378
X2.3661Y-2.8417
X2.3701Y-4.3386
X2.3701Y-4.4173
X2.378Y-2.2953
X2.3976Y-4.1102
X2.4094Y-2.8425
X2.4843Y-2.6299
X2.4843Y-4.0315
X2.4843Y-4.6496
X2.4882Y-4.1487
X2.4929Y-4.4929
X2.498Y-2.9035
X2.5079Y-2.5079
X2.5551Y-4.689
X2.5669Y-2.674
X2.5669Y-3.8937
X2.6024Y-4.0512
X2.6102Y-4.7323
X2.6301Y-2.6376
X2.6325Y-2.9738
X2.6339Y-4.5512
X2.6535Y-4.7677
X2.6772Y-4.5827
X2.6811Y-3.7913
X2.6969Y-4.9291
X2.7165Y-3.6516
X2.7165Y-3.9567
X2.7437Y-4.6539
X2.7638Y-6.1693
X2.7657Y-3.9961
X2.7677Y-4.9173
X2.7717Y-4.8543
X2.7756Y-4.6949
X2.7756Y-4.7402
X2.7756Y-5.0236
X2.7756Y-5.0945
X2.7835Y-5.8268
X2.7835Y-5.874
X2.7835Y-5.9291
X2.7835Y-5.9803
X2.7835Y-6.0315
X2.7835Y-6.0827
X2.7835Y-6.1299
X2.7953Y-3.622
X2.7953Y-3.8681
X2.7953Y-3.9173
X2.7992Y-3.6909
X2.7992Y-3.7402
X2.7992Y-3.7894
X2.8031Y-5.0591
X2.8031Y-5.1299
X2.8071Y-6.2008
X2.8071Y-6.2441
X2.815Y-4.0354
X2.8248Y-4.6949
X2.8346Y-5.8268
X2.8445Y-3.5827
X2.8504Y-5.1575
X2.8504Y-6.2441
X2.8642Y-4.065
X2.874Y-4.7047
X2.8819Y-5.8268
X2.9002Y-2.9738
X2.9055Y-2.437
X2.9057Y-2.6376
X2.9764Y-4.1024
X3.0498Y-2.2874
X3.1102Y-2.1496
X3.1339Y-2.189
X3.189Y-2.5591
X3.2165Y-3.2323
X3.2319Y-2.5472
X3.2323Y-2.6142
X3.2402Y-6.2677
X3.2638Y-5.815
X3.2677Y-3.5925
X3.2677Y-4.7047
X3.2756Y-5.1693
X3.2874Y-6.2677
X3.2972Y-3.8681
X3.3071Y-3.7894
X3.3071Y-5.815
X3.315Y-3.5945
X3.315Y-6.0551
X3.315Y-6.2323
X3.3169Y-3.8287
X3.3169Y-4.7047
X3.3257Y-3.9058
X3.3257Y-3.9649
X3.3268Y-4.0256
X3.3268Y-4.9016
X3.3307Y-5.0717
X3.3307Y-5.1268
X3.3366Y-3.6713
X3.3366Y-3.75
X3.3386Y-5.8465
X3.3386Y-5.8898
X3.3386Y-5.9331
X3.3386Y-5.9764
X3.3386Y-6.0197
X3.3386Y-6.0945
X3.3386Y-6.1378
X3.3386Y-6.185
X3.3661Y-3.937
X3.3661Y-3.9961
X3.3661Y-4.7047
X3.3661Y-4.748
X3.3661Y-4.7874
X3.3661Y-4.8268
X3.3661Y-4.8701
X3.3661Y-4.9331
X3.3661Y-4.9843
X3.3661Y-5.0402
X3.3661Y-5.0992
X3.376Y-4.065
X3.3819Y-2.2362
X3.3819Y-2.2953
X3.4134Y-2.563
X3.4134Y-4.6457
X3.4213Y-5.7638
X3.4252Y-3.6339
X3.4252Y-3.685
X3.4409Y-3.4567
X3.4528Y-5.6142
X3.4547Y-3.7165
X3.4606Y-4.4921
X3.5512Y-1.8504
X3.5906Y-2.6457
X3.6299Y-4.8268
X3.6299Y-5.0039
X3.6496Y-2.6457
X3.6732Y-2.5197
X3.6732Y-2.563
X3.6732Y-2.6063
X3.7283Y-6.7992
X3.7638Y-5.8583
X3.7677Y-2.0276
X3.7835Y-3.6969
X3.7874Y-4.7165
X3.7913Y-4.4961
X3.7953Y-5.6142
X3.8071Y-6.8189
X3.8228Y-2.7126
X3.8425Y-2.6457
X3.8504Y-2.5748
X3.8614Y-5.7591
X3.8622Y-3.3465
X3.8622Y-5.7047
X3.8661Y-5.5512
X3.8701Y-2.6102
X3.8819Y-4.6181
X3.8882Y-2.026
X3.8898Y-2.5472
X3.8937Y-3.4291
X3.8976Y-3.5984
X3.8976Y-4.4134
X3.8976Y-5.5118
X3.9016Y-4.3622
X3.9134Y-4.5787
X3.9134Y-4.7205
X3.9134Y-5.8583
X3.9173Y-4.0256
X3.9331Y-3.5472
X3.937Y-3.6417
X3.937Y-4.1043
X3.9449Y-2.4331
X3.9472Y-4.7819
X3.9606Y-5.8189
X3.9646Y-4.7205
X3.9646Y-4.8228
X3.9646Y-4.8701
X3.9646Y-4.9646
X3.9646Y-5.0079
X3.9646Y-6.2008
X3.9685Y-5.9252
X3.9685Y-5.9724
X3.9685Y-6.0197
X3.9685Y-6.063
X3.9685Y-6.1102
X3.9685Y-6.1575
X3.9764Y-5.0472
X3.9803Y-3.9173
X3.9862Y-3.9961
X3.9882Y-3.8681
X3.9882Y-4.0551
X4.0039Y-5.0787
X4.0039Y-5.1181
X4.0039Y-5.1614
X4.0039Y-6.252
X4.0059Y-3.8287
X4.0059Y-3.9567
X4.0118Y-4.7205
X4.0118Y-4.9331
X4.0118Y-5.8189
X4.0157Y-3.6024
X4.0157Y-3.7402
X4.0256Y-3.7008
X4.0256Y-3.7894
X4.0394Y-6.2756
X4.0591Y-4.7165
X4.0591Y-5.1732
X4.063Y-3.2795
X4.063Y-5.8189
X4.065Y-3.6122
X4.1417Y-3.3268
X4.1772Y-2.0315
X4.1772Y-2.0787
X4.1772Y-2.1299
X4.1772Y-2.1811
X4.1772Y-2.6417
X4.1811Y-1.9843
X4.1929Y-2.4252
X4.3543Y-4.0472
X4.378Y-2.6378
X4.3976Y-2.5157
X4.4331Y-5.185
X4.437Y-2.4803
X4.439Y-3.6024
X4.4449Y-5.815
X4.4465Y-2.6575
X4.4488Y-4.7126
X4.4783Y-4.0059
X4.4882Y-2.6575
X4.4882Y-3.6024
X4.4882Y-5.815
X4.4921Y-2.4803
X4.4921Y-3.3622
X4.4921Y-3.4134
X4.4961Y-4.7126
X4.5118Y-5.0512
X4.5118Y-5.0945
X4.5118Y-5.1378
X4.5118Y-6.1496
X4.5118Y-6.1969
X4.5126Y-6.248
X4.5276Y-3.9665
X4.5315Y-2.5079
X4.5354Y-5.815
X4.5433Y-4.7126
X4.5433Y-6.0079
X4.563Y-4.9094
X4.563Y-5.0512
X4.563Y-6.0512
X4.563Y-6.1024
X4.5634Y-4.8661
X4.5634Y-4.9606
X4.5634Y-5.0079
X4.5638Y-6.1472
X4.5669Y-4.815
X4.5709Y-5.7717
X4.5748Y-3.8504
X4.5768Y-3.6417
X4.5768Y-3.9272
X4.5787Y-5.9685
X4.5906Y-4.6299
X4.5945Y-2.0945
X4.5965Y-3.8878
X4.5984Y-5.811
X4.6181Y-3.6654
X4.6181Y-3.7087
X4.6299Y-2.5079
X4.6299Y-3.8031
X4.6299Y-3.8504
X4.6378Y-4.6732
X4.6496Y-4.9094
X4.6772Y-2.4764
X4.6772Y-4.0039
X4.6772Y-5.1732
X4.689Y-4.815
X4.6929Y-2.0906
X4.7008Y-3.5472
X4.7165Y-5.7598
X4.7244Y-4.2008
X4.7323Y-4.0039
X4.7362Y-5.1575
X4.7945Y-5.5787
X4.7969Y-5.3558
X4.8031Y-5.7244
X4.8228Y-3.9724
X4.8622Y-2.1142
X4.8622Y-2.1654
X4.8622Y-2.311
X4.8622Y-2.3622
X4.8622Y-2.4134
X4.8622Y-2.4586
X4.874Y-1.9646
X4.885Y-5.1811
X4.8858Y-2.5551
X4.9055Y-4.0157
X4.9126Y-5.4173
X4.9126Y-5.5157
X4.9291Y-5.8622
X4.937Y-5.1811
X5.0118Y-2.1102
X5.0197Y-2.0039
X5.0197Y-5.2126
X5.0236Y-2.0591
X5.0236Y-5.1299
X5.0236Y-5.7244
X5.0268Y-5.5787
X5.1299Y-2.1929
X5.1417Y-5.3189
X5.1732Y-2.3346
X5.1732Y-2.5551
T3
X2.1772Y-3.1614
X2.1772Y-3.2402
X2.1772Y-3.3189
X2.1772Y-3.3976
X2.2559Y-3.1614
X2.2559Y-3.2402
X2.2559Y-3.3189
X2.2559Y-3.3976
X2.3386Y-3.1614
X2.3386Y-3.2402
X2.3386Y-3.3189
X2.3386Y-3.3976
X2.3937Y-4.689
X2.5433Y-2.3622
X2.5433Y-2.4094
X2.563Y-3.6496
X2.5827Y-3.1181
X2.5906Y-2.3622
X2.5906Y-2.4094
X2.5906Y-3.4567
X2.6299Y-3.1181
X2.6378Y-3.4567
X2.6772Y-3.1181
X2.685Y-3.4567
X2.6929Y-3.0315
X2.7126Y-6.5433
X2.7126Y-6.5984
X2.7244Y-3.1181
X2.7323Y-3.4567
X2.7402Y-3.0315
X2.7559Y-5.3701
X2.7559Y-5.4252
X2.7677Y-6.4843
X2.7677Y-6.5433
X2.7677Y-6.5984
X2.7835Y-4.2677
X2.7835Y-4.3228
X2.7874Y-3.0315
X2.811Y-5.315
X2.811Y-5.3701
X2.811Y-5.4252
X2.8346Y-3.0315
X2.8386Y-4.2126
X2.8386Y-4.2677
X2.8386Y-4.3228
X2.8819Y-3.0315
X2.9293Y-3.0313
X2.937Y-3.4606
X2.9764Y-3.0315
X2.9823Y-3.5925
X2.9823Y-6.25
X3.0118Y-3.5531
X3.0118Y-3.6319
X3.0118Y-6.2106
X3.0118Y-6.2894
X3.0236Y-3.0315
X3.0315Y-4.5512
X3.0315Y-5.6575
X3.0413Y-3.5138
X3.0413Y-3.5925
X3.0413Y-6.25
X3.0413Y-6.3287
X3.0433Y-3.4016
X3.0709Y-3.0315
X3.0709Y-3.5531
X3.0709Y-3.6319
X3.0709Y-6.2106
X3.0709Y-6.2894
X3.0866Y-4.5512
X3.0866Y-4.6024
X3.0866Y-5.6575
X3.0866Y-5.7087
X3.0906Y-3.1929
X3.1004Y-3.5138
X3.1004Y-3.5925
X3.1004Y-6.25
X3.1004Y-6.3287
X3.1299Y-3.5531
X3.1299Y-3.6319
X3.1299Y-6.2106
X3.1299Y-6.2894
X3.1417Y-4.5512
X3.1417Y-4.6024
X3.1417Y-5.6575
X3.1417Y-5.7087
X3.1457Y-3.1417
X3.1457Y-3.1929
X3.1594Y-3.5925
X3.1594Y-6.25
X3.2835Y-3.4528
X3.3976Y-3.1732
X3.4291Y-3.2205
X3.4528Y-3.1732
X3.4843Y-3.2205
X3.5079Y-3.1732
X3.5394Y-3.2205
X3.563Y-3.1732
X3.5669Y-1.9291
X3.5669Y-1.9764
X3.5669Y-2.0236
X3.5669Y-2.0709
X3.5669Y-2.1732
X3.5669Y-2.2205
X3.5669Y-2.2677
X3.5669Y-2.315
X3.5669Y-2.4252
X3.5669Y-2.4724
X3.5669Y-2.5197
X3.5669Y-2.5669
X3.5945Y-3.2205
X3.6181Y-3.1732
X3.6496Y-3.2205
X3.6614Y-2.1969
X3.6732Y-3.1732
X3.7008Y-2.1535
X3.7047Y-3.2205
X3.7756Y-2.165
X3.7953Y-2.8976
X3.7953Y-2.9921
X3.7953Y-3.0866
X3.874Y-2.2874
X3.9016Y-4.2244
X3.9016Y-4.2835
X3.9055Y-2.1654
X3.9055Y-5.3268
X3.9055Y-5.3858
X3.9213Y-6.6024
X3.9213Y-6.6535
X3.9646Y-2.1654
X3.9646Y-4.2244
X3.9646Y-4.2835
X3.9685Y-5.3268
X3.9685Y-5.3858
X3.9803Y-6.6024
X3.9803Y-6.6535
X4.0236Y-4.2244
X4.0276Y-5.3268
X4.0354Y-6.626
X4.1634Y-3.5925
X4.1634Y-6.25
X4.1732Y-5.6535
X4.1732Y-5.7047
X4.1811Y-1.9331
X4.185Y-4.5591
X4.185Y-4.6102
X4.1929Y-3.5531
X4.1929Y-3.6319
X4.1929Y-6.2106
X4.1929Y-6.2894
X4.2224Y-3.5138
X4.2224Y-3.5925
X4.2224Y-6.25
X4.2224Y-6.3287
X4.2283Y-5.6535
X4.2283Y-5.7047
X4.2362Y-4.5591
X4.2362Y-4.6102
X4.252Y-3.5531
X4.252Y-3.6319
X4.252Y-6.2106
X4.252Y-6.2894
X4.2795Y-2.2402
X4.2795Y-5.6535
X4.2815Y-3.5138
X4.2815Y-3.5925
X4.2815Y-6.25
X4.2815Y-6.3287
X4.2874Y-4.5591
X4.311Y-3.5531
X4.311Y-3.6319
X4.311Y-6.2106
X4.311Y-6.2894
X4.3406Y-3.5925
X4.3406Y-6.25
X4.378Y-2.0039
X4.4724Y-4.2087
X4.4724Y-4.2598
X4.4724Y-4.311
X4.4724Y-5.2835
X4.4724Y-5.3346
X4.4724Y-5.3858
X4.5079Y-2.1299
X4.5197Y-6.4843
X4.5197Y-6.5354
X4.5197Y-6.5866
X4.5315Y-4.2598
X4.5315Y-4.311
X4.5315Y-5.3346
X4.5315Y-5.3858
X4.5787Y-6.5354
X4.5787Y-6.5866
X4.7244Y-1.8858
X4.8701Y-2.8583
X4.8858Y-5.7638
X4.9055Y-3.4331
X4.9291Y-3.3307
X4.9685Y-3.2362
X4.9724Y-2.7244
T4
X3.31Y-1.8386
X3.4695Y-1.8386
X4.8888Y-1.8386
X5.0482Y-1.8386
T5
X4.2874Y-2.7244
X4.2874Y-2.7913
X5.1181Y-2.7402
X5.1181Y-2.8071
T6
X4.9528Y-2.1732
X4.9528Y-2.2732
X4.9528Y-2.3732
X4.9528Y-2.4732
T7
X4.0157Y-2.7315
X4.0157Y-2.8315
X4.0157Y-2.9315
X4.0157Y-3.0315
X4.685Y-2.7315
X4.685Y-2.8315
X4.685Y-2.9315
X4.685Y-3.0315
T8
X2.2795Y-1.9522
X2.2795Y-2.2278
X2.4764Y-1.9522
X2.4764Y-2.2278
X2.7216Y-1.9522
X2.7216Y-2.2278
X2.9184Y-1.9522
X2.9184Y-2.2278
T9
X2.0854Y-1.9299
X2.0866Y-6.7717
X2.4409Y-3.8189
X2.4409Y-4.9213
X2.4409Y-6.0236
X4.8228Y-3.8189
X4.8228Y-4.9213
X4.8228Y-6.0236
X5.1772Y-1.9299
X5.1772Y-6.7717
T4
G00X3.6689Y-1.9299
M15
G01X3.6689Y-1.8984
M16
G05
G00X3.6689Y-2.1004
M15
G01X3.6689Y-2.0571
M16
G05
G00X4.0091Y-1.9299
M15
G01X4.0091Y-1.8984
M16
G05
G00X4.0091Y-2.1004
M15
G01X4.0091Y-2.0571
M16
G05
T0
M30
