M48
; DRILL file {KiCad 7.0.7} date Sat Jan  6 23:01:48 2024
; FORMAT={-:-/ absolute / inch / decimal}
; #@! TF.CreationDate,2024-01-06T23:01:48-07:00
; #@! TF.GenerationSoftware,Kicad,Pcbnew,7.0.7
; #@! TF.FileFunction,Plated,1,4,PTH
FMAT,2
INCH
; #@! TA.AperFunction,Plated,PTH,ComponentDrill
T1C0.0118
; #@! TA.AperFunction,Plated,PTH,ViaDrill
T2C0.0157
; #@! TA.AperFunction,Plated,PTH,ComponentDrill
T3C0.0197
; #@! TA.AperFunction,Plated,PTH,ViaDrill
T4C0.0236
; #@! TA.AperFunction,Plated,PTH,ComponentDrill
T5C0.0236
; #@! TA.AperFunction,Plated,PTH,ComponentDrill
T6C0.0394
; #@! TA.AperFunction,Plated,PTH,ComponentDrill
T7C0.0420
; #@! TA.AperFunction,Plated,PTH,ComponentDrill
T8C0.0728
; #@! TA.AperFunction,Plated,PTH,ComponentDrill
T9C0.1181
; #@! TA.AperFunction,Plated,PTH,ComponentDrill
T10C0.1220
%
G90
G05
T1
X2.2047Y-2.8248
X2.2441Y-2.7744
X2.2441Y-2.8248
X2.2441Y-2.8752
X2.2992Y-2.7744
X2.2992Y-2.8248
X2.2992Y-2.8752
X2.3543Y-2.7744
X2.3543Y-2.8248
X2.3543Y-2.8752
X2.3937Y-2.8248
T2
X2.0935Y-2.2864
X2.0955Y-3.0463
X2.0965Y-2.4193
X2.1083Y-4.5354
X2.1201Y-2.7037
X2.1211Y-2.6467
X2.1211Y-2.7884
X2.122Y-2.7451
X2.1289Y-2.3455
X2.1348Y-2.9911
X2.1359Y-3.0286
X2.1378Y-2.9537
X2.1476Y-2.4902
X2.1516Y-2.6752
X2.1555Y-2.6171
X2.1762Y-2.3455
X2.2205Y-2.3455
X2.2333Y-2.6004
X2.2437Y-4.4917
X2.2441Y-4.2756
X2.2537Y-2.9978
X2.2579Y-2.6644
X2.2598Y-4.6496
X2.2825Y-3.2726
X2.3297Y-3.2726
X2.3474Y-3.3612
X2.3484Y-2.9833
X2.3485Y-4.1102
X2.3583Y-3.313
X2.3701Y-4.3386
X2.3701Y-4.4173
X2.374Y-3.0187
X2.3976Y-4.1102
X2.4026Y-2.9823
X2.4281Y-3.0187
X2.4843Y-4.0315
X2.4882Y-2.7559
X2.4882Y-2.8031
X2.4882Y-2.8504
X2.4882Y-2.8976
X2.4882Y-4.1487
X2.4929Y-4.4929
X2.5Y-4.6496
X2.5157Y-2.6545
X2.5276Y-2.748
X2.5276Y-2.7874
X2.5276Y-2.8268
X2.5276Y-2.8661
X2.5276Y-2.9055
X2.5472Y-4.6831
X2.56Y-2.9754
X2.561Y-3.0138
X2.562Y-3.0512
X2.5669Y-3.8937
X2.5906Y-3.2411
X2.5915Y-3.2785
X2.5915Y-3.3159
X2.5925Y-3.1043
X2.6024Y-4.0512
X2.6102Y-4.7323
X2.6339Y-4.5512
X2.6535Y-4.7677
X2.6772Y-4.5827
X2.6811Y-3.7913
X2.6969Y-4.9291
X2.7165Y-3.6516
X2.7165Y-3.9567
X2.7437Y-4.6539
X2.7441Y-3.1053
X2.7441Y-3.1496
X2.7638Y-6.1693
X2.7657Y-3.9961
X2.7677Y-4.9173
X2.7717Y-4.8543
X2.7756Y-4.6949
X2.7756Y-4.7402
X2.7756Y-5.0236
X2.7756Y-5.0945
X2.7835Y-5.8268
X2.7835Y-5.874
X2.7835Y-5.9291
X2.7835Y-5.9803
X2.7835Y-6.0315
X2.7835Y-6.0827
X2.7835Y-6.1299
X2.7844Y-5.7795
X2.7874Y-5.7313
X2.7953Y-3.622
X2.7953Y-3.8681
X2.7953Y-3.9173
X2.7992Y-3.6909
X2.7992Y-3.7402
X2.7992Y-3.7894
X2.8031Y-5.0591
X2.8031Y-5.1299
X2.8071Y-6.2008
X2.8071Y-6.2441
X2.812Y-2.8691
X2.815Y-4.0354
X2.8248Y-4.6949
X2.8445Y-3.5827
X2.8504Y-6.2441
X2.8524Y-2.8839
X2.8642Y-4.065
X2.874Y-4.7047
X2.8809Y-5.1988
X2.9478Y-3.1053
X2.9488Y-3.1496
X2.9764Y-4.1024
X2.9911Y-3.2402
X2.9911Y-3.2766
X2.9911Y-3.314
X3.0965Y-2.0541
X3.1594Y-1.9213
X3.1693Y-2.1073
X3.1811Y-2.1506
X3.2402Y-6.2677
X3.2451Y-4.065
X3.2559Y-5.1791
X3.2677Y-3.5925
X3.2677Y-4.7047
X3.2874Y-6.2677
X3.2972Y-3.8681
X3.3071Y-3.7894
X3.315Y-3.5945
X3.315Y-6.0551
X3.315Y-6.2323
X3.3169Y-3.8287
X3.3169Y-4.7047
X3.3257Y-3.9058
X3.3257Y-3.9649
X3.3268Y-4.0256
X3.3268Y-4.9016
X3.3307Y-5.0717
X3.3307Y-5.1268
X3.3366Y-3.6713
X3.3366Y-3.75
X3.3376Y-5.753
X3.3386Y-5.7992
X3.3386Y-5.8465
X3.3386Y-5.8898
X3.3386Y-5.9331
X3.3386Y-5.9764
X3.3386Y-6.0197
X3.3386Y-6.0945
X3.3386Y-6.1378
X3.3386Y-6.185
X3.3415Y-2.1122
X3.3661Y-3.937
X3.3661Y-3.9961
X3.3661Y-4.748
X3.3661Y-4.7874
X3.3661Y-4.8268
X3.3661Y-4.8701
X3.3661Y-4.9331
X3.3661Y-4.9843
X3.3661Y-5.0402
X3.3661Y-5.0992
X3.378Y-4.687
X3.3957Y-2.1073
X3.4252Y-3.6339
X3.4252Y-3.685
X3.4409Y-1.9231
X3.4469Y-2.6348
X3.4528Y-5.6142
X3.4547Y-3.7165
X3.4557Y-2.1004
X3.4606Y-4.4921
X3.5394Y-6.7874
X3.6014Y-4.8268
X3.6024Y-5.0039
X3.6289Y-2.435
X3.7087Y-2.7215
X3.7096Y-2.6053
X3.7283Y-6.7992
X3.7293Y-3.1555
X3.7346Y-2.0276
X3.7638Y-2.8051
X3.7638Y-5.8583
X3.7874Y-4.7165
X3.7874Y-5.6063
X3.7913Y-4.4961
X3.8071Y-6.8189
X3.8406Y-2.8484
X3.8551Y-2.026
X3.8614Y-5.7591
X3.8622Y-5.7047
X3.8633Y-2.4961
X3.8661Y-5.5512
X3.8711Y-2.7323
X3.8799Y-3.6388
X3.8819Y-4.6181
X3.8888Y-2.5344
X3.8937Y-3.4291
X3.8976Y-3.5984
X3.8976Y-4.4134
X3.8976Y-5.5118
X3.9016Y-4.3622
X3.9134Y-4.5787
X3.9134Y-4.7205
X3.9134Y-5.8583
X3.9173Y-4.0256
X3.9193Y-2.5758
X3.9331Y-3.5472
X3.937Y-3.3061
X3.937Y-3.6417
X3.937Y-4.1043
X3.9472Y-4.7819
X3.9606Y-5.8189
X3.9646Y-4.7205
X3.9646Y-4.8228
X3.9646Y-4.8701
X3.9646Y-4.9646
X3.9646Y-5.0079
X3.9646Y-6.2008
X3.9685Y-5.9252
X3.9685Y-5.9724
X3.9685Y-6.0197
X3.9685Y-6.063
X3.9685Y-6.1102
X3.9685Y-6.1575
X3.9764Y-5.0472
X3.9803Y-3.9173
X3.9862Y-3.9961
X3.9882Y-3.8681
X3.9882Y-4.0551
X3.9941Y-2.6093
X4.0039Y-5.0787
X4.0039Y-5.1181
X4.0039Y-5.1614
X4.0039Y-6.252
X4.0059Y-3.8287
X4.0059Y-3.9567
X4.0118Y-4.7205
X4.0118Y-4.9331
X4.0118Y-5.8189
X4.0157Y-3.6024
X4.0157Y-3.7402
X4.0256Y-3.7008
X4.0256Y-3.7894
X4.0394Y-6.2756
X4.0591Y-4.7165
X4.0591Y-5.1732
X4.063Y-5.8189
X4.065Y-3.6122
X4.1772Y-2.3996
X4.1772Y-2.6417
X4.1811Y-1.9843
X4.1949Y-2.4606
X4.2224Y-2.5177
X4.2283Y-2.4173
X4.2933Y-2.4823
X4.3307Y-2.439
X4.3327Y-2.7264
X4.3543Y-4.0472
X4.374Y-2.6988
X4.378Y-2.6378
X4.3799Y-2.4823
X4.4154Y-2.439
X4.4331Y-5.185
X4.439Y-3.6024
X4.4449Y-5.815
X4.4488Y-4.7126
X4.4508Y-2.7264
X4.4783Y-4.0059
X4.4862Y-2.4783
X4.4882Y-3.6024
X4.4882Y-5.815
X4.4961Y-4.7126
X4.5098Y-2.7067
X4.5118Y-5.0512
X4.5118Y-5.0945
X4.5118Y-5.1378
X4.5118Y-6.1496
X4.5118Y-6.1969
X4.5126Y-6.248
X4.5276Y-3.9665
X4.5354Y-5.815
X4.5433Y-4.7126
X4.5433Y-6.0079
X4.5591Y-2.7067
X4.563Y-4.9094
X4.563Y-5.0512
X4.563Y-6.0512
X4.563Y-6.1024
X4.5634Y-4.8661
X4.5634Y-4.9606
X4.5634Y-5.0079
X4.5638Y-6.1472
X4.5669Y-4.815
X4.5709Y-5.7717
X4.5748Y-3.8504
X4.5768Y-3.6417
X4.5768Y-3.9272
X4.5787Y-5.9685
X4.5906Y-4.6299
X4.5945Y-2.0945
X4.5965Y-3.8878
X4.5984Y-5.811
X4.6102Y-2.7067
X4.6181Y-3.6654
X4.6181Y-3.7087
X4.6299Y-2.5079
X4.6299Y-3.8031
X4.6299Y-3.8504
X4.6378Y-4.6732
X4.6496Y-4.9094
X4.6614Y-2.7067
X4.6772Y-2.4764
X4.6772Y-4.0039
X4.6772Y-5.1732
X4.689Y-4.815
X4.6929Y-2.0906
X4.7008Y-3.5472
X4.7165Y-5.7598
X4.7244Y-4.2008
X4.7323Y-4.0039
X4.7362Y-5.1575
X4.7945Y-5.5787
X4.7969Y-5.3558
X4.8031Y-5.7244
X4.8228Y-3.9724
X4.8622Y-2.1142
X4.8622Y-2.1654
X4.8622Y-2.311
X4.8622Y-2.3622
X4.8622Y-2.4134
X4.8622Y-2.4586
X4.874Y-1.9646
X4.885Y-5.1811
X4.8858Y-2.5551
X4.887Y-5.7626
X4.8917Y-1.8583
X4.8927Y-2.0054
X4.9055Y-4.0157
X4.9126Y-5.4173
X4.9126Y-5.5157
X4.9291Y-5.8622
X4.937Y-5.1811
X5.0118Y-2.1102
X5.0138Y-2.065
X5.0197Y-5.2126
X5.0236Y-5.1299
X5.0236Y-5.7244
X5.0268Y-5.5787
X5.1299Y-2.1929
X5.1614Y-5.6083
X5.1732Y-2.3346
X5.1732Y-2.5551
T3
X2.0177Y-1.9488
X2.0177Y-6.7717
X2.0437Y-1.8862
X2.0437Y-2.0115
X2.0437Y-6.709
X2.0437Y-6.8343
X2.1063Y-1.8602
X2.1063Y-2.0374
X2.1063Y-6.6831
X2.1063Y-6.8602
X2.1689Y-1.8862
X2.1689Y-2.0115
X2.1689Y-6.709
X2.1689Y-6.8343
X2.1949Y-1.9488
X2.1949Y-6.7717
X5.0689Y-1.9488
X5.0689Y-6.7717
X5.0948Y-1.8862
X5.0948Y-2.0115
X5.0948Y-6.709
X5.0948Y-6.8343
X5.1575Y-1.8602
X5.1575Y-2.0374
X5.1575Y-6.6831
X5.1575Y-6.8602
X5.2201Y-1.8862
X5.2201Y-2.0115
X5.2201Y-6.709
X5.2201Y-6.8343
X5.2461Y-1.9488
X5.2461Y-6.7717
T4
X2.1142Y-2.8346
X2.2992Y-2.3346
X2.2992Y-2.4134
X2.2992Y-2.4921
X2.2992Y-2.5709
X2.3415Y-2.6516
X2.3907Y-2.3346
X2.3907Y-2.4134
X2.3907Y-2.4921
X2.3907Y-2.5709
X2.3907Y-2.6496
X2.3937Y-4.689
X2.6299Y-2.3573
X2.6299Y-2.4045
X2.6299Y-2.565
X2.6299Y-2.6624
X2.6309Y-2.6142
X2.69Y-2.3297
X2.7126Y-6.5433
X2.7126Y-6.5984
X2.7195Y-2.6624
X2.7411Y-2.3287
X2.7559Y-5.3701
X2.7559Y-5.4252
X2.7677Y-6.4843
X2.7677Y-6.5433
X2.7677Y-6.5984
X2.7835Y-4.2677
X2.7835Y-4.3228
X2.81Y-2.6614
X2.811Y-5.315
X2.811Y-5.3701
X2.811Y-5.4252
X2.8386Y-4.2126
X2.8386Y-4.2677
X2.8386Y-4.3228
X2.8858Y-2.3297
X2.9183Y-2.6604
X2.9183Y-2.8563
X2.935Y-2.3307
X2.9813Y-2.7461
X2.9813Y-2.8012
X2.9813Y-2.8563
X2.9813Y-2.9085
X2.9823Y-3.5925
X2.9823Y-6.25
X2.9892Y-2.4734
X2.9892Y-2.5226
X3.0118Y-3.5531
X3.0118Y-3.6319
X3.0118Y-6.2106
X3.0118Y-6.2894
X3.0315Y-2.8996
X3.0315Y-2.998
X3.0315Y-3.0846
X3.0315Y-4.5512
X3.0315Y-5.6575
X3.0413Y-3.5138
X3.0413Y-3.5925
X3.0413Y-6.25
X3.0413Y-6.3287
X3.0531Y-2.8012
X3.0571Y-2.5827
X3.064Y-3.315
X3.0709Y-3.5531
X3.0709Y-3.6319
X3.0709Y-6.2106
X3.0709Y-6.2894
X3.0866Y-4.5512
X3.0866Y-4.6024
X3.0866Y-5.6575
X3.0866Y-5.7087
X3.1004Y-3.5138
X3.1004Y-3.5925
X3.1004Y-6.25
X3.1004Y-6.3287
X3.1073Y-3.314
X3.1083Y-2.5827
X3.1102Y-2.8012
X3.1161Y-3.2175
X3.1191Y-3.1171
X3.1299Y-3.5531
X3.1299Y-3.6319
X3.1299Y-6.2106
X3.1299Y-6.2894
X3.1417Y-4.5512
X3.1417Y-4.6024
X3.1417Y-5.6575
X3.1417Y-5.7087
X3.1506Y-3.314
X3.1594Y-3.5925
X3.1594Y-6.25
X3.1831Y-3.2825
X3.2077Y-2.9026
X3.2077Y-2.9941
X3.2077Y-3.0837
X3.2136Y-3.249
X3.2274Y-3.2047
X3.4409Y-3.4567
X3.6713Y-2.1654
X3.752Y-2.1654
X3.874Y-2.2874
X3.876Y-2.1654
X3.9016Y-4.2244
X3.9016Y-4.2835
X3.9055Y-5.3268
X3.9055Y-5.3858
X3.9213Y-6.6024
X3.9213Y-6.6535
X3.9311Y-2.1654
X3.9646Y-4.2244
X3.9646Y-4.2835
X3.9675Y-2.7943
X3.9685Y-2.876
X3.9685Y-5.3268
X3.9685Y-5.3858
X3.9754Y-3.1112
X3.9803Y-6.6024
X3.9803Y-6.6535
X4.0236Y-4.2244
X4.0276Y-5.3268
X4.0354Y-6.626
X4.0472Y-2.7037
X4.0748Y-3.0354
X4.0906Y-2.7037
X4.1339Y-2.7037
X4.1634Y-3.5925
X4.1634Y-6.25
X4.1732Y-5.6535
X4.1732Y-5.7047
X4.1811Y-1.9331
X4.1811Y-3.1535
X4.1811Y-3.2106
X4.185Y-4.5591
X4.185Y-4.6102
X4.1929Y-3.5531
X4.1929Y-3.6319
X4.1929Y-6.2106
X4.1929Y-6.2894
X4.2224Y-3.5138
X4.2224Y-3.5925
X4.2224Y-6.25
X4.2224Y-6.3287
X4.2283Y-5.6535
X4.2283Y-5.7047
X4.2362Y-4.5591
X4.2362Y-4.6102
X4.252Y-3.5531
X4.252Y-3.6319
X4.252Y-6.2106
X4.252Y-6.2894
X4.2795Y-5.6535
X4.2815Y-2.2402
X4.2815Y-3.5138
X4.2815Y-3.5925
X4.2815Y-6.25
X4.2815Y-6.3287
X4.2874Y-4.5591
X4.311Y-3.5531
X4.311Y-3.6319
X4.311Y-6.2106
X4.311Y-6.2894
X4.3406Y-3.5925
X4.3406Y-6.25
X4.372Y-3.2106
X4.372Y-3.2598
X4.378Y-2.0039
X4.4252Y-3.2106
X4.4724Y-4.2087
X4.4724Y-4.2598
X4.4724Y-4.311
X4.4724Y-5.2835
X4.4724Y-5.3346
X4.4724Y-5.3858
X4.5079Y-2.1299
X4.5197Y-6.4843
X4.5197Y-6.5354
X4.5197Y-6.5866
X4.5315Y-4.2598
X4.5315Y-4.311
X4.5315Y-5.3346
X4.5315Y-5.3858
X4.5335Y-3.1713
X4.5551Y-2.8976
X4.5787Y-6.5354
X4.5787Y-6.5866
X4.7008Y-3.1161
X4.7244Y-1.8858
X4.7461Y-2.8209
X4.8701Y-2.8583
X4.9055Y-3.4331
X4.9291Y-3.3307
X4.9685Y-3.2362
X4.9724Y-2.7244
X5.0748Y-2.7087
T5
X3.0797Y-1.8396
X3.2392Y-1.8396
X3.3593Y-1.8406
X3.5187Y-1.8406
T6
X2.1437Y-3.4965
X2.1437Y-3.5965
X2.1437Y-3.6965
X2.1437Y-3.7965
X2.1437Y-3.8965
X2.2437Y-3.4965
X2.2437Y-3.5965
X2.2437Y-3.6965
X2.2437Y-3.7965
X2.2437Y-3.8965
X4.9528Y-2.1732
X4.9528Y-2.2732
X4.9528Y-2.3732
X4.9528Y-2.4732
T7
X3.248Y-2.3868
X3.3429Y-2.8494
X3.348Y-2.3868
X3.4429Y-2.8494
X3.448Y-2.3868
X3.5429Y-2.8494
X3.548Y-2.3868
X3.6429Y-2.8494
T8
X2.3337Y-1.9577
X2.3337Y-2.2333
X2.5305Y-1.9577
X2.5305Y-2.2333
X2.7165Y-1.9577
X2.7165Y-2.2333
X2.9134Y-1.9577
X2.9134Y-2.2333
T9
X2.1063Y-6.7717
X5.1575Y-6.7717
T10
X2.1063Y-1.9488
X2.4409Y-3.8189
X2.4409Y-4.9213
X2.4409Y-6.0236
X4.8228Y-3.8189
X4.8228Y-4.9213
X4.8228Y-6.0236
X5.1575Y-1.9488
T5
G00X3.6358Y-1.9299
M15
G01X3.6358Y-1.8984
M16
G05
G00X3.6358Y-2.1004
M15
G01X3.6358Y-2.0571
M16
G05
G00X3.976Y-1.9299
M15
G01X3.976Y-1.8984
M16
G05
G00X3.976Y-2.1004
M15
G01X3.976Y-2.0571
M16
G05
T0
M30
