M48
; DRILL file {KiCad 8.0.1-rc1} date 2024-03-24T23:57:51-0600
; FORMAT={-:-/ absolute / inch / decimal}
; #@! TF.CreationDate,2024-03-24T23:57:51-06:00
; #@! TF.GenerationSoftware,Kicad,Pcbnew,8.0.1-rc1
; #@! TF.FileFunction,Plated,1,4,PTH
FMAT,2
INCH
; #@! TA.AperFunction,Plated,PTH,ComponentDrill
T1C0.0118
; #@! TA.AperFunction,Plated,PTH,ViaDrill
T2C0.0157
; #@! TA.AperFunction,Plated,PTH,ComponentDrill
T3C0.0197
; #@! TA.AperFunction,Plated,PTH,ViaDrill
T4C0.0236
; #@! TA.AperFunction,Plated,PTH,ComponentDrill
T5C0.0236
; #@! TA.AperFunction,Plated,PTH,ComponentDrill
T6C0.0394
; #@! TA.AperFunction,Plated,PTH,ComponentDrill
T7C0.0420
; #@! TA.AperFunction,Plated,PTH,ComponentDrill
T8C0.0728
; #@! TA.AperFunction,Plated,PTH,ComponentDrill
T9C0.1181
; #@! TA.AperFunction,Plated,PTH,ComponentDrill
T10C0.1220
%
G90
G05
T1
X2.2047Y-2.8248
X2.2441Y-2.7744
X2.2441Y-2.8248
X2.2441Y-2.8752
X2.2992Y-2.7744
X2.2992Y-2.8248
X2.2992Y-2.8752
X2.3543Y-2.7744
X2.3543Y-2.8248
X2.3543Y-2.8752
X2.3937Y-2.8248
T2
X2.0935Y-2.2864
X2.0955Y-3.0463
X2.0965Y-2.4193
X2.1201Y-2.7037
X2.1211Y-2.6467
X2.1211Y-2.7884
X2.122Y-2.7451
X2.1289Y-2.3455
X2.1348Y-2.9911
X2.1359Y-3.0286
X2.1378Y-2.9537
X2.1476Y-2.4902
X2.1555Y-2.6171
X2.1722Y-3.373
X2.1762Y-2.3455
X2.2175Y-3.373
X2.2333Y-2.6004
X2.2537Y-2.9978
X2.2559Y-4.4104
X2.2579Y-2.6644
X2.2825Y-3.2726
X2.3484Y-2.9833
X2.3563Y-4.6791
X2.3563Y-4.7303
X2.374Y-3.0187
X2.375Y-3.3022
X2.3799Y-4.2598
X2.3799Y-4.4783
X2.3888Y-4.6339
X2.4026Y-2.9823
X2.4281Y-3.0187
X2.4695Y-3.3327
X2.4734Y-4.0965
X2.4882Y-2.7559
X2.4882Y-2.8031
X2.4882Y-2.8504
X2.4882Y-2.8976
X2.497Y-4.3228
X2.497Y-4.4016
X2.5039Y-3.5896
X2.5157Y-2.6545
X2.5157Y-3.3307
X2.5207Y-4.6732
X2.5246Y-4.0965
X2.5276Y-2.748
X2.5276Y-2.7874
X2.5276Y-2.8268
X2.5276Y-2.8661
X2.5276Y-2.9055
X2.56Y-2.9754
X2.561Y-3.0138
X2.562Y-3.0512
X2.5669Y-4.5472
X2.5906Y-3.2411
X2.5906Y-4.7835
X2.5915Y-3.2785
X2.5915Y-3.3159
X2.5925Y-3.1043
X2.6073Y-4.1329
X2.6102Y-4.6751
X2.689Y-3.878
X2.7313Y-4.0955
X2.7441Y-3.1053
X2.7441Y-3.1496
X2.749Y-4.4075
X2.7638Y-6.1693
X2.7835Y-5.8268
X2.7835Y-5.874
X2.7835Y-5.9291
X2.7835Y-5.9803
X2.7835Y-6.0315
X2.7835Y-6.0827
X2.7835Y-6.1299
X2.7844Y-5.7795
X2.7874Y-5.7313
X2.7992Y-4.7264
X2.7992Y-4.7677
X2.7992Y-4.8071
X2.7992Y-4.8465
X2.7992Y-4.8898
X2.7992Y-4.9744
X2.7992Y-5.0177
X2.7992Y-5.063
X2.7992Y-5.1063
X2.8071Y-6.2008
X2.8071Y-6.2441
X2.812Y-2.8839
X2.8169Y-4.4823
X2.8169Y-4.5581
X2.8327Y-3.7618
X2.8327Y-4.039
X2.8337Y-3.9579
X2.8337Y-4.0
X2.8346Y-3.6742
X2.8346Y-3.8317
X2.8346Y-3.878
X2.8346Y-3.9193
X2.8465Y-4.7244
X2.8504Y-6.2441
X2.8543Y-2.8839
X2.8799Y-4.0817
X2.8809Y-5.1988
X2.8819Y-3.6171
X2.8937Y-4.7224
X2.9144Y-3.7362
X2.9311Y-3.6152
X2.9478Y-3.1053
X2.9488Y-3.1496
X2.9911Y-3.2402
X2.9911Y-3.2766
X2.9911Y-3.314
X3.0551Y-2.0689
X3.1516Y-2.0965
X3.1614Y-2.1613
X3.2067Y-3.6122
X3.2402Y-6.2677
X3.2421Y-3.7175
X3.2431Y-4.7254
X3.2559Y-5.1791
X3.2569Y-3.6132
X3.2846Y-4.0965
X3.2874Y-6.2677
X3.2894Y-2.0335
X3.2904Y-4.7382
X3.2913Y-1.9449
X3.315Y-6.0551
X3.315Y-6.2323
X3.3317Y-3.6565
X3.3317Y-3.6959
X3.3317Y-3.7362
X3.3317Y-4.062
X3.3327Y-3.7756
X3.3327Y-4.0217
X3.3337Y-3.815
X3.3337Y-3.8553
X3.3337Y-3.8967
X3.3337Y-3.938
X3.3337Y-3.9803
X3.3346Y-4.6781
X3.3376Y-5.753
X3.3386Y-5.7992
X3.3386Y-5.8465
X3.3386Y-5.8898
X3.3386Y-5.9331
X3.3386Y-5.9764
X3.3386Y-6.0197
X3.3386Y-6.0945
X3.3386Y-6.1378
X3.3386Y-6.185
X3.3504Y-2.128
X3.3593Y-5.1555
X3.3622Y-5.0531
X3.3622Y-5.0945
X3.3642Y-4.4764
X3.3642Y-4.9272
X3.3642Y-4.9705
X3.3642Y-5.0118
X3.3652Y-4.7136
X3.3652Y-4.8445
X3.3652Y-4.8848
X3.3661Y-4.7589
X3.3661Y-4.8041
X3.3878Y-3.4045
X3.3957Y-2.1073
X3.4124Y-5.5974
X3.437Y-2.065
X3.4469Y-2.6348
X3.4547Y-3.5689
X3.4557Y-2.1004
X3.4606Y-4.4921
X3.5394Y-6.7874
X3.6289Y-2.435
X3.7087Y-2.7215
X3.7096Y-2.6053
X3.7283Y-6.7992
X3.7293Y-3.1555
X3.7346Y-2.0276
X3.7638Y-2.8051
X3.7638Y-5.8583
X3.7933Y-4.7165
X3.7953Y-3.378
X3.8071Y-6.8189
X3.813Y-5.5876
X3.815Y-5.4793
X3.815Y-5.6821
X3.8406Y-2.8484
X3.8551Y-2.026
X3.8633Y-2.4961
X3.8642Y-3.3553
X3.8711Y-2.7323
X3.875Y-4.374
X3.875Y-5.7589
X3.8814Y-3.5787
X3.8868Y-4.5797
X3.8888Y-2.5344
X3.8888Y-4.5019
X3.8937Y-3.4998
X3.9134Y-5.8583
X3.9193Y-2.5758
X3.9606Y-5.8189
X3.9646Y-4.7205
X3.9646Y-6.2008
X3.9685Y-5.9252
X3.9685Y-5.9724
X3.9685Y-6.0197
X3.9685Y-6.063
X3.9685Y-6.1102
X3.9685Y-6.1575
X3.9695Y-5.1132
X3.9695Y-5.1575
X3.9714Y-4.8652
X3.9715Y-5.0295
X3.9715Y-5.0709
X3.9724Y-4.8228
X3.9724Y-4.9065
X3.9724Y-4.9459
X3.9724Y-4.9882
X3.9734Y-4.7776
X3.9833Y-3.5374
X3.9843Y-3.4272
X3.9902Y-4.6093
X3.9941Y-2.6093
X4.0039Y-4.0236
X4.0039Y-4.0659
X4.0039Y-6.252
X4.0049Y-3.749
X4.0049Y-3.7953
X4.0049Y-3.8425
X4.0049Y-3.8878
X4.0049Y-3.937
X4.0049Y-3.9803
X4.0059Y-3.6978
X4.0118Y-4.7205
X4.0118Y-5.8189
X4.0394Y-6.2756
X4.0413Y-1.9508
X4.0413Y-2.0098
X4.0413Y-2.0551
X4.0413Y-2.1594
X4.0433Y-2.1043
X4.0512Y-4.0925
X4.0512Y-4.3976
X4.0512Y-5.503
X4.0591Y-4.7165
X4.0591Y-5.1732
X4.062Y-3.7037
X4.063Y-5.8189
X4.0689Y-3.6181
X4.0974Y-3.7304
X4.1191Y-3.6171
X4.1732Y-2.3622
X4.1772Y-2.6417
X4.2165Y-2.378
X4.2343Y-2.6476
X4.2795Y-2.4882
X4.315Y-2.4606
X4.3268Y-2.4193
X4.3346Y-2.2874
X4.3406Y-2.5177
X4.372Y-2.4428
X4.3858Y-2.2893
X4.3858Y-3.6201
X4.4232Y-2.4428
X4.4281Y-3.7205
X4.4311Y-3.6211
X4.4331Y-5.185
X4.4449Y-5.815
X4.4488Y-4.7126
X4.4577Y-4.0965
X4.4685Y-2.4547
X4.4774Y-3.6201
X4.4803Y-3.9715
X4.4803Y-4.0394
X4.4882Y-5.815
X4.4892Y-3.6624
X4.4961Y-4.7126
X4.5098Y-2.4921
X4.5118Y-5.0512
X4.5118Y-5.0945
X4.5118Y-5.1378
X4.5118Y-6.1496
X4.5118Y-6.1969
X4.5126Y-6.248
X4.5246Y-3.9321
X4.5354Y-5.815
X4.5433Y-4.7126
X4.5433Y-6.0079
X4.563Y-4.9094
X4.563Y-5.0512
X4.563Y-6.0512
X4.563Y-6.1024
X4.5634Y-4.8661
X4.5634Y-4.9606
X4.5634Y-5.0079
X4.5638Y-6.1472
X4.5659Y-3.7667
X4.5659Y-3.8455
X4.5669Y-3.8051
X4.5669Y-3.8888
X4.5669Y-4.815
X4.5709Y-5.7717
X4.5787Y-5.9685
X4.5906Y-3.6535
X4.5906Y-4.6299
X4.5984Y-5.811
X4.6289Y-3.8967
X4.6299Y-2.5157
X4.6378Y-4.6732
X4.6496Y-4.9094
X4.6772Y-2.4764
X4.6772Y-5.1732
X4.689Y-4.815
X4.7165Y-5.7598
X4.7244Y-4.2008
X4.7323Y-4.0039
X4.7785Y-4.0138
X4.7945Y-5.5787
X4.7969Y-5.3558
X4.8031Y-5.7244
X4.8622Y-2.311
X4.8622Y-2.3622
X4.8622Y-2.4134
X4.8622Y-2.4586
X4.874Y-1.9646
X4.885Y-5.1811
X4.8858Y-2.5551
X4.887Y-5.7626
X4.8917Y-1.8583
X4.8927Y-2.0054
X4.8986Y-4.0354
X4.9126Y-5.4173
X4.9126Y-5.5157
X4.9291Y-5.8622
X4.937Y-5.1811
X5.0118Y-2.1102
X5.0138Y-2.065
X5.0197Y-5.2126
X5.0236Y-5.1299
X5.0236Y-5.7244
X5.0268Y-5.5787
X5.1299Y-2.1929
X5.1545Y-5.5118
X5.1732Y-2.3346
X5.1732Y-2.5551
T3
X2.0177Y-1.9488
X2.0177Y-4.3602
X2.0177Y-6.7717
X2.0437Y-1.8862
X2.0437Y-2.0115
X2.0437Y-4.2976
X2.0437Y-4.4229
X2.0437Y-6.709
X2.0437Y-6.8343
X2.1063Y-1.8602
X2.1063Y-2.0374
X2.1063Y-4.2717
X2.1063Y-4.4488
X2.1063Y-6.6831
X2.1063Y-6.8602
X2.1689Y-1.8862
X2.1689Y-2.0115
X2.1689Y-4.2976
X2.1689Y-4.4229
X2.1689Y-6.709
X2.1689Y-6.8343
X2.1949Y-1.9488
X2.1949Y-4.3602
X2.1949Y-6.7717
X5.0689Y-1.9488
X5.0689Y-4.3602
X5.0689Y-6.7717
X5.0948Y-1.8862
X5.0948Y-2.0115
X5.0948Y-4.2976
X5.0948Y-4.4229
X5.0948Y-6.709
X5.0948Y-6.8343
X5.1575Y-1.8602
X5.1575Y-2.0374
X5.1575Y-4.2717
X5.1575Y-4.4488
X5.1575Y-6.6831
X5.1575Y-6.8602
X5.2201Y-1.8862
X5.2201Y-2.0115
X5.2201Y-4.2976
X5.2201Y-4.4229
X5.2201Y-6.709
X5.2201Y-6.8343
X5.2461Y-1.9488
X5.2461Y-4.3602
X5.2461Y-6.7717
T4
X2.1142Y-2.8346
X2.2992Y-2.3346
X2.2992Y-2.4134
X2.2992Y-2.4921
X2.2992Y-2.5709
X2.3415Y-2.6516
X2.3907Y-2.3346
X2.3907Y-2.4134
X2.3907Y-2.4921
X2.3907Y-2.5709
X2.3907Y-2.6496
X2.6299Y-2.3573
X2.6299Y-2.4045
X2.6299Y-2.565
X2.6299Y-2.6624
X2.6309Y-2.6142
X2.69Y-2.3297
X2.7195Y-2.6624
X2.7411Y-2.3287
X2.81Y-2.6614
X2.8356Y-6.3967
X2.8376Y-6.4498
X2.8858Y-2.3297
X2.9075Y-2.8386
X2.935Y-2.3307
X2.939Y-2.5748
X2.939Y-4.622
X2.9547Y-2.8366
X2.9606Y-2.9114
X2.9813Y-2.8012
X2.9823Y-6.25
X2.9882Y-2.5748
X2.9892Y-2.4734
X2.9892Y-2.5226
X3.0118Y-3.5531
X3.0118Y-3.6319
X3.0118Y-6.2106
X3.0118Y-6.2894
X3.013Y-3.4728
X3.0315Y-2.998
X3.0315Y-3.0846
X3.0413Y-3.5138
X3.0413Y-3.5925
X3.0413Y-6.25
X3.0413Y-6.3287
X3.0472Y-2.8878
X3.0531Y-2.8012
X3.0571Y-2.5827
X3.064Y-3.315
X3.0709Y-3.4717
X3.0709Y-3.5531
X3.0709Y-3.6319
X3.0709Y-6.2106
X3.0709Y-6.2894
X3.0768Y-5.7717
X3.1004Y-3.5138
X3.1004Y-3.5925
X3.1004Y-6.25
X3.1004Y-6.3287
X3.1073Y-3.314
X3.1083Y-2.5827
X3.1102Y-2.8012
X3.1161Y-3.2175
X3.1191Y-3.1171
X3.1201Y-2.9528
X3.1299Y-3.5531
X3.1299Y-3.6319
X3.1299Y-6.2106
X3.1299Y-6.2894
X3.1319Y-3.4732
X3.1506Y-3.314
X3.1594Y-6.25
X3.1821Y-4.6415
X3.1831Y-3.2825
X3.2077Y-2.9026
X3.2077Y-2.9941
X3.2077Y-3.0837
X3.2096Y-4.2008
X3.2096Y-4.2589
X3.2136Y-3.249
X3.2185Y-5.3031
X3.2185Y-5.3543
X3.2274Y-3.2047
X3.2707Y-4.2008
X3.2707Y-4.2589
X3.2736Y-5.3031
X3.2736Y-5.3543
X3.3317Y-4.3711
X3.3356Y-5.4705
X3.3898Y-5.4715
X3.3907Y-4.3711
X3.4424Y-3.3967
X3.5335Y-4.1201
X3.6713Y-2.1654
X3.752Y-2.1654
X3.8593Y-4.2126
X3.8593Y-4.2717
X3.874Y-2.2874
X3.876Y-2.1654
X3.876Y-5.315
X3.876Y-5.374
X3.9213Y-6.6024
X3.9213Y-6.6535
X3.9222Y-4.2126
X3.9222Y-4.2717
X3.9311Y-2.1654
X3.939Y-5.315
X3.939Y-5.374
X3.9675Y-2.7943
X3.9685Y-2.876
X3.9754Y-3.1112
X3.9803Y-6.6024
X3.9803Y-6.6535
X4.0354Y-6.626
X4.0472Y-2.7037
X4.06Y-4.2028
X4.06Y-4.2687
X4.0728Y-5.3179
X4.0728Y-5.375
X4.0748Y-3.0354
X4.0906Y-2.7037
X4.1339Y-2.7037
X4.1634Y-6.25
X4.1742Y-5.7795
X4.1811Y-1.9331
X4.1811Y-3.1535
X4.1811Y-3.2106
X4.19Y-4.6654
X4.1929Y-3.4744
X4.1929Y-3.5531
X4.1929Y-3.6319
X4.1929Y-6.2106
X4.1929Y-6.2894
X4.2224Y-3.5138
X4.2224Y-3.5925
X4.2224Y-6.25
X4.2224Y-6.3287
X4.252Y-3.4744
X4.252Y-3.5531
X4.252Y-3.6319
X4.252Y-6.2106
X4.252Y-6.2894
X4.2815Y-2.2402
X4.2815Y-3.5138
X4.2815Y-3.5925
X4.2815Y-6.25
X4.2815Y-6.3287
X4.311Y-3.4744
X4.311Y-3.5531
X4.311Y-3.6319
X4.311Y-6.2106
X4.311Y-6.2894
X4.3376Y-5.688
X4.3406Y-6.25
X4.372Y-3.2106
X4.372Y-3.2598
X4.378Y-2.0039
X4.4252Y-3.2106
X4.4616Y-6.438
X4.4626Y-6.3829
X4.5079Y-2.1299
X4.5217Y-3.1673
X4.6091Y-3.1067
X4.7244Y-1.8858
X4.7765Y-3.0595
X4.9055Y-3.4331
X4.9134Y-2.8917
X4.9291Y-3.3307
X4.9685Y-3.2362
X4.9724Y-2.7244
X5.0748Y-2.7087
T6
X2.1437Y-3.4965
X2.1437Y-3.5965
X2.1437Y-3.6965
X2.1437Y-3.7965
X2.1437Y-3.8965
X2.2437Y-3.4965
X2.2437Y-3.5965
X2.2437Y-3.6965
X2.2437Y-3.7965
X2.2437Y-3.8965
X4.2937Y-2.7362
X4.3937Y-2.7362
X4.4937Y-2.7362
X4.5937Y-2.7362
X4.6937Y-2.7362
X4.7937Y-2.7362
X4.9528Y-2.1732
X4.9528Y-2.2732
X4.9528Y-2.3732
X4.9528Y-2.4732
T7
X3.1378Y-2.3878
X3.2378Y-2.3878
X3.3378Y-2.3878
X3.3429Y-2.8494
X3.4378Y-2.3878
X3.4429Y-2.8494
X3.5429Y-2.8494
X3.6429Y-2.8494
T8
X2.3337Y-1.9577
X2.3337Y-2.2333
X2.5305Y-1.9577
X2.5305Y-2.2333
X2.7165Y-1.9577
X2.7165Y-2.2333
X2.9134Y-1.9577
X2.9134Y-2.2333
T9
X2.1063Y-4.3602
X2.1063Y-6.7717
X5.1575Y-4.3602
X5.1575Y-6.7717
T10
X2.1063Y-1.9488
X2.4409Y-3.8189
X2.4409Y-4.9213
X2.4409Y-6.0236
X3.6319Y-3.8189
X3.6319Y-4.9213
X3.6319Y-6.0236
X4.8228Y-3.8189
X4.8228Y-4.9213
X4.8228Y-6.0236
X5.1575Y-1.9488
T5
G00X3.6358Y-1.9299
M15
G01X3.6358Y-1.8984
M16
G05
G00X3.6358Y-2.1004
M15
G01X3.6358Y-2.0571
M16
G05
G00X3.976Y-1.9299
M15
G01X3.976Y-1.8984
M16
G05
G00X3.976Y-2.1004
M15
G01X3.976Y-2.0571
M16
G05
M30
