%TF.GenerationSoftware,KiCad,Pcbnew,7.0.7*%
%TF.CreationDate,2024-01-07T22:37:50-07:00*%
%TF.ProjectId,bitaxeHex,62697461-7865-4486-9578-2e6b69636164,302*%
%TF.SameCoordinates,Original*%
%TF.FileFunction,Paste,Top*%
%TF.FilePolarity,Positive*%
%FSLAX46Y46*%
G04 Gerber Fmt 4.6, Leading zero omitted, Abs format (unit mm)*
G04 Created by KiCad (PCBNEW 7.0.7) date 2024-01-07 22:37:50*
%MOMM*%
%LPD*%
G01*
G04 APERTURE LIST*
G04 Aperture macros list*
%AMRoundRect*
0 Rectangle with rounded corners*
0 $1 Rounding radius*
0 $2 $3 $4 $5 $6 $7 $8 $9 X,Y pos of 4 corners*
0 Add a 4 corners polygon primitive as box body*
4,1,4,$2,$3,$4,$5,$6,$7,$8,$9,$2,$3,0*
0 Add four circle primitives for the rounded corners*
1,1,$1+$1,$2,$3*
1,1,$1+$1,$4,$5*
1,1,$1+$1,$6,$7*
1,1,$1+$1,$8,$9*
0 Add four rect primitives between the rounded corners*
20,1,$1+$1,$2,$3,$4,$5,0*
20,1,$1+$1,$4,$5,$6,$7,0*
20,1,$1+$1,$6,$7,$8,$9,0*
20,1,$1+$1,$8,$9,$2,$3,0*%
G04 Aperture macros list end*
%ADD10C,0.001000*%
%ADD11R,0.792000X0.221000*%
%ADD12RoundRect,0.135000X0.185000X-0.135000X0.185000X0.135000X-0.185000X0.135000X-0.185000X-0.135000X0*%
%ADD13R,1.600200X1.168400*%
%ADD14RoundRect,0.140000X-0.140000X-0.170000X0.140000X-0.170000X0.140000X0.170000X-0.140000X0.170000X0*%
%ADD15RoundRect,0.250000X-0.475000X0.250000X-0.475000X-0.250000X0.475000X-0.250000X0.475000X0.250000X0*%
%ADD16RoundRect,0.135000X0.135000X0.185000X-0.135000X0.185000X-0.135000X-0.185000X0.135000X-0.185000X0*%
%ADD17RoundRect,0.262500X-0.562500X-0.262500X0.562500X-0.262500X0.562500X0.262500X-0.562500X0.262500X0*%
%ADD18R,0.450000X0.700000*%
%ADD19R,9.000000X2.380000*%
%ADD20RoundRect,0.140000X0.140000X0.170000X-0.140000X0.170000X-0.140000X-0.170000X0.140000X-0.170000X0*%
%ADD21RoundRect,0.225000X-0.225000X-0.250000X0.225000X-0.250000X0.225000X0.250000X-0.225000X0.250000X0*%
%ADD22RoundRect,0.250000X-1.500000X-0.550000X1.500000X-0.550000X1.500000X0.550000X-1.500000X0.550000X0*%
%ADD23RoundRect,0.135000X-0.185000X0.135000X-0.185000X-0.135000X0.185000X-0.135000X0.185000X0.135000X0*%
%ADD24RoundRect,0.140000X0.170000X-0.140000X0.170000X0.140000X-0.170000X0.140000X-0.170000X-0.140000X0*%
%ADD25RoundRect,0.250000X1.100000X-0.325000X1.100000X0.325000X-1.100000X0.325000X-1.100000X-0.325000X0*%
%ADD26R,1.400000X0.300000*%
%ADD27RoundRect,0.220588X0.229412X-0.429412X0.229412X0.429412X-0.229412X0.429412X-0.229412X-0.429412X0*%
%ADD28RoundRect,0.232843X0.242157X-0.467157X0.242157X0.467157X-0.242157X0.467157X-0.242157X-0.467157X0*%
%ADD29RoundRect,0.062500X0.062500X-0.337500X0.062500X0.337500X-0.062500X0.337500X-0.062500X-0.337500X0*%
%ADD30RoundRect,0.062500X0.337500X-0.062500X0.337500X0.062500X-0.337500X0.062500X-0.337500X-0.062500X0*%
%ADD31R,0.711200X0.228600*%
%ADD32R,1.500000X0.900000*%
%ADD33R,0.900000X1.500000*%
%ADD34R,0.900000X0.900000*%
%ADD35RoundRect,0.150000X-0.150000X-0.700000X0.150000X-0.700000X0.150000X0.700000X-0.150000X0.700000X0*%
%ADD36RoundRect,0.250000X-0.250000X-1.150000X0.250000X-1.150000X0.250000X1.150000X-0.250000X1.150000X0*%
%ADD37RoundRect,0.250000X-0.325000X-1.100000X0.325000X-1.100000X0.325000X1.100000X-0.325000X1.100000X0*%
%ADD38RoundRect,0.140000X-0.170000X0.140000X-0.170000X-0.140000X0.170000X-0.140000X0.170000X0.140000X0*%
%ADD39R,0.600000X1.060000*%
%ADD40R,0.300000X1.150000*%
%ADD41O,1.000000X2.100000*%
%ADD42O,1.000000X1.800000*%
%ADD43RoundRect,0.135000X-0.135000X-0.185000X0.135000X-0.185000X0.135000X0.185000X-0.135000X0.185000X0*%
%ADD44RoundRect,0.250000X-0.312500X-0.625000X0.312500X-0.625000X0.312500X0.625000X-0.312500X0.625000X0*%
%ADD45RoundRect,0.250000X-0.250000X-0.475000X0.250000X-0.475000X0.250000X0.475000X-0.250000X0.475000X0*%
%ADD46RoundRect,0.250000X0.650000X-1.000000X0.650000X1.000000X-0.650000X1.000000X-0.650000X-1.000000X0*%
G04 APERTURE END LIST*
D10*
%TO.C,U18*%
X109210000Y-127905000D02*
X108380000Y-127905000D01*
X108380000Y-127905000D02*
X108380000Y-127115000D01*
X108380000Y-127115000D02*
X109210000Y-127115000D01*
X109210000Y-127115000D02*
X109210000Y-127905000D01*
G36*
X109210000Y-127905000D02*
G01*
X108380000Y-127905000D01*
X108380000Y-127115000D01*
X109210000Y-127115000D01*
X109210000Y-127905000D01*
G37*
X109200000Y-125825000D02*
X108380000Y-125825000D01*
X108380000Y-125825000D02*
X108380000Y-125035000D01*
X108380000Y-125035000D02*
X109200000Y-125035000D01*
X109200000Y-125035000D02*
X109200000Y-125825000D01*
G36*
X109200000Y-125825000D02*
G01*
X108380000Y-125825000D01*
X108380000Y-125035000D01*
X109200000Y-125035000D01*
X109200000Y-125825000D01*
G37*
X109200000Y-122795000D02*
X108385000Y-122795000D01*
X108385000Y-122795000D02*
X108385000Y-122005000D01*
X108385000Y-122005000D02*
X109200000Y-122005000D01*
X109200000Y-122005000D02*
X109200000Y-122795000D01*
G36*
X109200000Y-122795000D02*
G01*
X108385000Y-122795000D01*
X108385000Y-122005000D01*
X109200000Y-122005000D01*
X109200000Y-122795000D01*
G37*
X109195000Y-124235000D02*
X108385000Y-124235000D01*
X108385000Y-124235000D02*
X108385000Y-123445000D01*
X108385000Y-123445000D02*
X109195000Y-123445000D01*
X109195000Y-123445000D02*
X109195000Y-124235000D01*
G36*
X109195000Y-124235000D02*
G01*
X108385000Y-124235000D01*
X108385000Y-123445000D01*
X109195000Y-123445000D01*
X109195000Y-124235000D01*
G37*
X107450000Y-127910000D02*
X106670000Y-127910000D01*
X106670000Y-127910000D02*
X106670000Y-127120000D01*
X106670000Y-127120000D02*
X107450000Y-127120000D01*
X107450000Y-127120000D02*
X107450000Y-127910000D01*
G36*
X107450000Y-127910000D02*
G01*
X106670000Y-127910000D01*
X106670000Y-127120000D01*
X107450000Y-127120000D01*
X107450000Y-127910000D01*
G37*
X107450000Y-124240000D02*
X106660000Y-124240000D01*
X106660000Y-124240000D02*
X106660000Y-123450000D01*
X106660000Y-123450000D02*
X107450000Y-123450000D01*
X107450000Y-123450000D02*
X107450000Y-124240000D01*
G36*
X107450000Y-124240000D02*
G01*
X106660000Y-124240000D01*
X106660000Y-123450000D01*
X107450000Y-123450000D01*
X107450000Y-124240000D01*
G37*
X107450000Y-122800000D02*
X106660000Y-122800000D01*
X106660000Y-122800000D02*
X106660000Y-122010000D01*
X106660000Y-122010000D02*
X107450000Y-122010000D01*
X107450000Y-122010000D02*
X107450000Y-122800000D01*
G36*
X107450000Y-122800000D02*
G01*
X106660000Y-122800000D01*
X106660000Y-122010000D01*
X107450000Y-122010000D01*
X107450000Y-122800000D01*
G37*
X107440000Y-125830000D02*
X106670000Y-125830000D01*
X106670000Y-125830000D02*
X106670000Y-125040000D01*
X106670000Y-125040000D02*
X107440000Y-125040000D01*
X107440000Y-125040000D02*
X107440000Y-125830000D01*
G36*
X107440000Y-125830000D02*
G01*
X106670000Y-125830000D01*
X106670000Y-125040000D01*
X107440000Y-125040000D01*
X107440000Y-125830000D01*
G37*
%TO.C,U20*%
X79210000Y-127905000D02*
X78380000Y-127905000D01*
X78380000Y-127905000D02*
X78380000Y-127115000D01*
X78380000Y-127115000D02*
X79210000Y-127115000D01*
X79210000Y-127115000D02*
X79210000Y-127905000D01*
G36*
X79210000Y-127905000D02*
G01*
X78380000Y-127905000D01*
X78380000Y-127115000D01*
X79210000Y-127115000D01*
X79210000Y-127905000D01*
G37*
X79200000Y-125825000D02*
X78380000Y-125825000D01*
X78380000Y-125825000D02*
X78380000Y-125035000D01*
X78380000Y-125035000D02*
X79200000Y-125035000D01*
X79200000Y-125035000D02*
X79200000Y-125825000D01*
G36*
X79200000Y-125825000D02*
G01*
X78380000Y-125825000D01*
X78380000Y-125035000D01*
X79200000Y-125035000D01*
X79200000Y-125825000D01*
G37*
X79200000Y-122795000D02*
X78385000Y-122795000D01*
X78385000Y-122795000D02*
X78385000Y-122005000D01*
X78385000Y-122005000D02*
X79200000Y-122005000D01*
X79200000Y-122005000D02*
X79200000Y-122795000D01*
G36*
X79200000Y-122795000D02*
G01*
X78385000Y-122795000D01*
X78385000Y-122005000D01*
X79200000Y-122005000D01*
X79200000Y-122795000D01*
G37*
X79195000Y-124235000D02*
X78385000Y-124235000D01*
X78385000Y-124235000D02*
X78385000Y-123445000D01*
X78385000Y-123445000D02*
X79195000Y-123445000D01*
X79195000Y-123445000D02*
X79195000Y-124235000D01*
G36*
X79195000Y-124235000D02*
G01*
X78385000Y-124235000D01*
X78385000Y-123445000D01*
X79195000Y-123445000D01*
X79195000Y-124235000D01*
G37*
X77450000Y-127910000D02*
X76670000Y-127910000D01*
X76670000Y-127910000D02*
X76670000Y-127120000D01*
X76670000Y-127120000D02*
X77450000Y-127120000D01*
X77450000Y-127120000D02*
X77450000Y-127910000D01*
G36*
X77450000Y-127910000D02*
G01*
X76670000Y-127910000D01*
X76670000Y-127120000D01*
X77450000Y-127120000D01*
X77450000Y-127910000D01*
G37*
X77450000Y-124240000D02*
X76660000Y-124240000D01*
X76660000Y-124240000D02*
X76660000Y-123450000D01*
X76660000Y-123450000D02*
X77450000Y-123450000D01*
X77450000Y-123450000D02*
X77450000Y-124240000D01*
G36*
X77450000Y-124240000D02*
G01*
X76660000Y-124240000D01*
X76660000Y-123450000D01*
X77450000Y-123450000D01*
X77450000Y-124240000D01*
G37*
X77450000Y-122800000D02*
X76660000Y-122800000D01*
X76660000Y-122800000D02*
X76660000Y-122010000D01*
X76660000Y-122010000D02*
X77450000Y-122010000D01*
X77450000Y-122010000D02*
X77450000Y-122800000D01*
G36*
X77450000Y-122800000D02*
G01*
X76660000Y-122800000D01*
X76660000Y-122010000D01*
X77450000Y-122010000D01*
X77450000Y-122800000D01*
G37*
X77440000Y-125830000D02*
X76670000Y-125830000D01*
X76670000Y-125830000D02*
X76670000Y-125040000D01*
X76670000Y-125040000D02*
X77440000Y-125040000D01*
X77440000Y-125040000D02*
X77440000Y-125830000D01*
G36*
X77440000Y-125830000D02*
G01*
X76670000Y-125830000D01*
X76670000Y-125040000D01*
X77440000Y-125040000D01*
X77440000Y-125830000D01*
G37*
%TO.C,U25*%
X79210000Y-155905000D02*
X78380000Y-155905000D01*
X78380000Y-155905000D02*
X78380000Y-155115000D01*
X78380000Y-155115000D02*
X79210000Y-155115000D01*
X79210000Y-155115000D02*
X79210000Y-155905000D01*
G36*
X79210000Y-155905000D02*
G01*
X78380000Y-155905000D01*
X78380000Y-155115000D01*
X79210000Y-155115000D01*
X79210000Y-155905000D01*
G37*
X79200000Y-153825000D02*
X78380000Y-153825000D01*
X78380000Y-153825000D02*
X78380000Y-153035000D01*
X78380000Y-153035000D02*
X79200000Y-153035000D01*
X79200000Y-153035000D02*
X79200000Y-153825000D01*
G36*
X79200000Y-153825000D02*
G01*
X78380000Y-153825000D01*
X78380000Y-153035000D01*
X79200000Y-153035000D01*
X79200000Y-153825000D01*
G37*
X79200000Y-150795000D02*
X78385000Y-150795000D01*
X78385000Y-150795000D02*
X78385000Y-150005000D01*
X78385000Y-150005000D02*
X79200000Y-150005000D01*
X79200000Y-150005000D02*
X79200000Y-150795000D01*
G36*
X79200000Y-150795000D02*
G01*
X78385000Y-150795000D01*
X78385000Y-150005000D01*
X79200000Y-150005000D01*
X79200000Y-150795000D01*
G37*
X79195000Y-152235000D02*
X78385000Y-152235000D01*
X78385000Y-152235000D02*
X78385000Y-151445000D01*
X78385000Y-151445000D02*
X79195000Y-151445000D01*
X79195000Y-151445000D02*
X79195000Y-152235000D01*
G36*
X79195000Y-152235000D02*
G01*
X78385000Y-152235000D01*
X78385000Y-151445000D01*
X79195000Y-151445000D01*
X79195000Y-152235000D01*
G37*
X77450000Y-155910000D02*
X76670000Y-155910000D01*
X76670000Y-155910000D02*
X76670000Y-155120000D01*
X76670000Y-155120000D02*
X77450000Y-155120000D01*
X77450000Y-155120000D02*
X77450000Y-155910000D01*
G36*
X77450000Y-155910000D02*
G01*
X76670000Y-155910000D01*
X76670000Y-155120000D01*
X77450000Y-155120000D01*
X77450000Y-155910000D01*
G37*
X77450000Y-152240000D02*
X76660000Y-152240000D01*
X76660000Y-152240000D02*
X76660000Y-151450000D01*
X76660000Y-151450000D02*
X77450000Y-151450000D01*
X77450000Y-151450000D02*
X77450000Y-152240000D01*
G36*
X77450000Y-152240000D02*
G01*
X76660000Y-152240000D01*
X76660000Y-151450000D01*
X77450000Y-151450000D01*
X77450000Y-152240000D01*
G37*
X77450000Y-150800000D02*
X76660000Y-150800000D01*
X76660000Y-150800000D02*
X76660000Y-150010000D01*
X76660000Y-150010000D02*
X77450000Y-150010000D01*
X77450000Y-150010000D02*
X77450000Y-150800000D01*
G36*
X77450000Y-150800000D02*
G01*
X76660000Y-150800000D01*
X76660000Y-150010000D01*
X77450000Y-150010000D01*
X77450000Y-150800000D01*
G37*
X77440000Y-153830000D02*
X76670000Y-153830000D01*
X76670000Y-153830000D02*
X76670000Y-153040000D01*
X76670000Y-153040000D02*
X77440000Y-153040000D01*
X77440000Y-153040000D02*
X77440000Y-153830000D01*
G36*
X77440000Y-153830000D02*
G01*
X76670000Y-153830000D01*
X76670000Y-153040000D01*
X77440000Y-153040000D01*
X77440000Y-153830000D01*
G37*
%TO.C,U22*%
X109210000Y-155905000D02*
X108380000Y-155905000D01*
X108380000Y-155905000D02*
X108380000Y-155115000D01*
X108380000Y-155115000D02*
X109210000Y-155115000D01*
X109210000Y-155115000D02*
X109210000Y-155905000D01*
G36*
X109210000Y-155905000D02*
G01*
X108380000Y-155905000D01*
X108380000Y-155115000D01*
X109210000Y-155115000D01*
X109210000Y-155905000D01*
G37*
X109200000Y-153825000D02*
X108380000Y-153825000D01*
X108380000Y-153825000D02*
X108380000Y-153035000D01*
X108380000Y-153035000D02*
X109200000Y-153035000D01*
X109200000Y-153035000D02*
X109200000Y-153825000D01*
G36*
X109200000Y-153825000D02*
G01*
X108380000Y-153825000D01*
X108380000Y-153035000D01*
X109200000Y-153035000D01*
X109200000Y-153825000D01*
G37*
X109200000Y-150795000D02*
X108385000Y-150795000D01*
X108385000Y-150795000D02*
X108385000Y-150005000D01*
X108385000Y-150005000D02*
X109200000Y-150005000D01*
X109200000Y-150005000D02*
X109200000Y-150795000D01*
G36*
X109200000Y-150795000D02*
G01*
X108385000Y-150795000D01*
X108385000Y-150005000D01*
X109200000Y-150005000D01*
X109200000Y-150795000D01*
G37*
X109195000Y-152235000D02*
X108385000Y-152235000D01*
X108385000Y-152235000D02*
X108385000Y-151445000D01*
X108385000Y-151445000D02*
X109195000Y-151445000D01*
X109195000Y-151445000D02*
X109195000Y-152235000D01*
G36*
X109195000Y-152235000D02*
G01*
X108385000Y-152235000D01*
X108385000Y-151445000D01*
X109195000Y-151445000D01*
X109195000Y-152235000D01*
G37*
X107450000Y-155910000D02*
X106670000Y-155910000D01*
X106670000Y-155910000D02*
X106670000Y-155120000D01*
X106670000Y-155120000D02*
X107450000Y-155120000D01*
X107450000Y-155120000D02*
X107450000Y-155910000D01*
G36*
X107450000Y-155910000D02*
G01*
X106670000Y-155910000D01*
X106670000Y-155120000D01*
X107450000Y-155120000D01*
X107450000Y-155910000D01*
G37*
X107450000Y-152240000D02*
X106660000Y-152240000D01*
X106660000Y-152240000D02*
X106660000Y-151450000D01*
X106660000Y-151450000D02*
X107450000Y-151450000D01*
X107450000Y-151450000D02*
X107450000Y-152240000D01*
G36*
X107450000Y-152240000D02*
G01*
X106660000Y-152240000D01*
X106660000Y-151450000D01*
X107450000Y-151450000D01*
X107450000Y-152240000D01*
G37*
X107450000Y-150800000D02*
X106660000Y-150800000D01*
X106660000Y-150800000D02*
X106660000Y-150010000D01*
X106660000Y-150010000D02*
X107450000Y-150010000D01*
X107450000Y-150010000D02*
X107450000Y-150800000D01*
G36*
X107450000Y-150800000D02*
G01*
X106660000Y-150800000D01*
X106660000Y-150010000D01*
X107450000Y-150010000D01*
X107450000Y-150800000D01*
G37*
X107440000Y-153830000D02*
X106670000Y-153830000D01*
X106670000Y-153830000D02*
X106670000Y-153040000D01*
X106670000Y-153040000D02*
X107440000Y-153040000D01*
X107440000Y-153040000D02*
X107440000Y-153830000D01*
G36*
X107440000Y-153830000D02*
G01*
X106670000Y-153830000D01*
X106670000Y-153040000D01*
X107440000Y-153040000D01*
X107440000Y-153830000D01*
G37*
%TO.C,U13*%
X79210000Y-99905000D02*
X78380000Y-99905000D01*
X78380000Y-99905000D02*
X78380000Y-99115000D01*
X78380000Y-99115000D02*
X79210000Y-99115000D01*
X79210000Y-99115000D02*
X79210000Y-99905000D01*
G36*
X79210000Y-99905000D02*
G01*
X78380000Y-99905000D01*
X78380000Y-99115000D01*
X79210000Y-99115000D01*
X79210000Y-99905000D01*
G37*
X79200000Y-97825000D02*
X78380000Y-97825000D01*
X78380000Y-97825000D02*
X78380000Y-97035000D01*
X78380000Y-97035000D02*
X79200000Y-97035000D01*
X79200000Y-97035000D02*
X79200000Y-97825000D01*
G36*
X79200000Y-97825000D02*
G01*
X78380000Y-97825000D01*
X78380000Y-97035000D01*
X79200000Y-97035000D01*
X79200000Y-97825000D01*
G37*
X79200000Y-94795000D02*
X78385000Y-94795000D01*
X78385000Y-94795000D02*
X78385000Y-94005000D01*
X78385000Y-94005000D02*
X79200000Y-94005000D01*
X79200000Y-94005000D02*
X79200000Y-94795000D01*
G36*
X79200000Y-94795000D02*
G01*
X78385000Y-94795000D01*
X78385000Y-94005000D01*
X79200000Y-94005000D01*
X79200000Y-94795000D01*
G37*
X79195000Y-96235000D02*
X78385000Y-96235000D01*
X78385000Y-96235000D02*
X78385000Y-95445000D01*
X78385000Y-95445000D02*
X79195000Y-95445000D01*
X79195000Y-95445000D02*
X79195000Y-96235000D01*
G36*
X79195000Y-96235000D02*
G01*
X78385000Y-96235000D01*
X78385000Y-95445000D01*
X79195000Y-95445000D01*
X79195000Y-96235000D01*
G37*
X77450000Y-99910000D02*
X76670000Y-99910000D01*
X76670000Y-99910000D02*
X76670000Y-99120000D01*
X76670000Y-99120000D02*
X77450000Y-99120000D01*
X77450000Y-99120000D02*
X77450000Y-99910000D01*
G36*
X77450000Y-99910000D02*
G01*
X76670000Y-99910000D01*
X76670000Y-99120000D01*
X77450000Y-99120000D01*
X77450000Y-99910000D01*
G37*
X77450000Y-96240000D02*
X76660000Y-96240000D01*
X76660000Y-96240000D02*
X76660000Y-95450000D01*
X76660000Y-95450000D02*
X77450000Y-95450000D01*
X77450000Y-95450000D02*
X77450000Y-96240000D01*
G36*
X77450000Y-96240000D02*
G01*
X76660000Y-96240000D01*
X76660000Y-95450000D01*
X77450000Y-95450000D01*
X77450000Y-96240000D01*
G37*
X77450000Y-94800000D02*
X76660000Y-94800000D01*
X76660000Y-94800000D02*
X76660000Y-94010000D01*
X76660000Y-94010000D02*
X77450000Y-94010000D01*
X77450000Y-94010000D02*
X77450000Y-94800000D01*
G36*
X77450000Y-94800000D02*
G01*
X76660000Y-94800000D01*
X76660000Y-94010000D01*
X77450000Y-94010000D01*
X77450000Y-94800000D01*
G37*
X77440000Y-97830000D02*
X76670000Y-97830000D01*
X76670000Y-97830000D02*
X76670000Y-97040000D01*
X76670000Y-97040000D02*
X77440000Y-97040000D01*
X77440000Y-97040000D02*
X77440000Y-97830000D01*
G36*
X77440000Y-97830000D02*
G01*
X76670000Y-97830000D01*
X76670000Y-97040000D01*
X77440000Y-97040000D01*
X77440000Y-97830000D01*
G37*
%TO.C,U12*%
X109210000Y-99905000D02*
X108380000Y-99905000D01*
X108380000Y-99905000D02*
X108380000Y-99115000D01*
X108380000Y-99115000D02*
X109210000Y-99115000D01*
X109210000Y-99115000D02*
X109210000Y-99905000D01*
G36*
X109210000Y-99905000D02*
G01*
X108380000Y-99905000D01*
X108380000Y-99115000D01*
X109210000Y-99115000D01*
X109210000Y-99905000D01*
G37*
X109200000Y-97825000D02*
X108380000Y-97825000D01*
X108380000Y-97825000D02*
X108380000Y-97035000D01*
X108380000Y-97035000D02*
X109200000Y-97035000D01*
X109200000Y-97035000D02*
X109200000Y-97825000D01*
G36*
X109200000Y-97825000D02*
G01*
X108380000Y-97825000D01*
X108380000Y-97035000D01*
X109200000Y-97035000D01*
X109200000Y-97825000D01*
G37*
X109200000Y-94795000D02*
X108385000Y-94795000D01*
X108385000Y-94795000D02*
X108385000Y-94005000D01*
X108385000Y-94005000D02*
X109200000Y-94005000D01*
X109200000Y-94005000D02*
X109200000Y-94795000D01*
G36*
X109200000Y-94795000D02*
G01*
X108385000Y-94795000D01*
X108385000Y-94005000D01*
X109200000Y-94005000D01*
X109200000Y-94795000D01*
G37*
X109195000Y-96235000D02*
X108385000Y-96235000D01*
X108385000Y-96235000D02*
X108385000Y-95445000D01*
X108385000Y-95445000D02*
X109195000Y-95445000D01*
X109195000Y-95445000D02*
X109195000Y-96235000D01*
G36*
X109195000Y-96235000D02*
G01*
X108385000Y-96235000D01*
X108385000Y-95445000D01*
X109195000Y-95445000D01*
X109195000Y-96235000D01*
G37*
X107450000Y-99910000D02*
X106670000Y-99910000D01*
X106670000Y-99910000D02*
X106670000Y-99120000D01*
X106670000Y-99120000D02*
X107450000Y-99120000D01*
X107450000Y-99120000D02*
X107450000Y-99910000D01*
G36*
X107450000Y-99910000D02*
G01*
X106670000Y-99910000D01*
X106670000Y-99120000D01*
X107450000Y-99120000D01*
X107450000Y-99910000D01*
G37*
X107450000Y-96240000D02*
X106660000Y-96240000D01*
X106660000Y-96240000D02*
X106660000Y-95450000D01*
X106660000Y-95450000D02*
X107450000Y-95450000D01*
X107450000Y-95450000D02*
X107450000Y-96240000D01*
G36*
X107450000Y-96240000D02*
G01*
X106660000Y-96240000D01*
X106660000Y-95450000D01*
X107450000Y-95450000D01*
X107450000Y-96240000D01*
G37*
X107450000Y-94800000D02*
X106660000Y-94800000D01*
X106660000Y-94800000D02*
X106660000Y-94010000D01*
X106660000Y-94010000D02*
X107450000Y-94010000D01*
X107450000Y-94010000D02*
X107450000Y-94800000D01*
G36*
X107450000Y-94800000D02*
G01*
X106660000Y-94800000D01*
X106660000Y-94010000D01*
X107450000Y-94010000D01*
X107450000Y-94800000D01*
G37*
X107440000Y-97830000D02*
X106670000Y-97830000D01*
X106670000Y-97830000D02*
X106670000Y-97040000D01*
X106670000Y-97040000D02*
X107440000Y-97040000D01*
X107440000Y-97040000D02*
X107440000Y-97830000D01*
G36*
X107440000Y-97830000D02*
G01*
X106670000Y-97830000D01*
X106670000Y-97040000D01*
X107440000Y-97040000D01*
X107440000Y-97830000D01*
G37*
%TD*%
D11*
%TO.C,U18*%
X110916000Y-128263000D03*
X110916000Y-127761000D03*
X110916000Y-127259000D03*
X110916000Y-126757000D03*
X110916000Y-126255000D03*
X110916000Y-125753000D03*
X110916000Y-125251000D03*
X110916000Y-124749000D03*
X110916000Y-124247000D03*
X110916000Y-123745000D03*
X110916000Y-123243000D03*
X110916000Y-122741000D03*
X110916000Y-122239000D03*
X110916000Y-121737000D03*
X105084000Y-121750000D03*
X105084000Y-122250000D03*
X105084000Y-122750000D03*
X105084000Y-123250000D03*
X105084000Y-123750000D03*
X105084000Y-124247000D03*
X105084000Y-124750000D03*
X105084000Y-125251000D03*
X105084000Y-125753000D03*
X105084000Y-126255000D03*
X105084000Y-126757000D03*
X105084000Y-127250000D03*
X105084000Y-127761000D03*
X105084000Y-128250000D03*
%TD*%
%TO.C,U20*%
X80916000Y-128263000D03*
X80916000Y-127761000D03*
X80916000Y-127259000D03*
X80916000Y-126757000D03*
X80916000Y-126255000D03*
X80916000Y-125753000D03*
X80916000Y-125251000D03*
X80916000Y-124749000D03*
X80916000Y-124247000D03*
X80916000Y-123745000D03*
X80916000Y-123243000D03*
X80916000Y-122741000D03*
X80916000Y-122239000D03*
X80916000Y-121737000D03*
X75084000Y-121750000D03*
X75084000Y-122250000D03*
X75084000Y-122750000D03*
X75084000Y-123250000D03*
X75084000Y-123750000D03*
X75084000Y-124247000D03*
X75084000Y-124750000D03*
X75084000Y-125251000D03*
X75084000Y-125753000D03*
X75084000Y-126255000D03*
X75084000Y-126757000D03*
X75084000Y-127250000D03*
X75084000Y-127761000D03*
X75084000Y-128250000D03*
%TD*%
D12*
%TO.C,R18*%
X89000000Y-53330000D03*
X89000000Y-52310000D03*
%TD*%
D13*
%TO.C,Y1*%
X101300000Y-56777600D03*
X101300000Y-59622400D03*
%TD*%
D14*
%TO.C,C34*%
X114420000Y-78050000D03*
X115380000Y-78050000D03*
%TD*%
D15*
%TO.C,C23*%
X56475000Y-77300000D03*
X56475000Y-79200000D03*
%TD*%
D16*
%TO.C,R27*%
X88560000Y-67725000D03*
X87540000Y-67725000D03*
%TD*%
D17*
%TO.C,SW2*%
X78325000Y-46800000D03*
X82175000Y-46800000D03*
X78325000Y-48250000D03*
X82175000Y-48250000D03*
%TD*%
D18*
%TO.C,Q1*%
X105400000Y-78400000D03*
X106700000Y-78400000D03*
X106050000Y-76400000D03*
%TD*%
D19*
%TO.C,L2*%
X70200000Y-76925000D03*
X70200000Y-70275000D03*
%TD*%
D20*
%TO.C,C13*%
X55500000Y-64225000D03*
X54540000Y-64225000D03*
%TD*%
D21*
%TO.C,C5*%
X53225000Y-79000000D03*
X54775000Y-79000000D03*
%TD*%
D20*
%TO.C,C36*%
X99380000Y-56800000D03*
X98420000Y-56800000D03*
%TD*%
D22*
%TO.C,C2*%
X67700000Y-63350000D03*
X73300000Y-63350000D03*
%TD*%
D11*
%TO.C,U25*%
X80916000Y-156263000D03*
X80916000Y-155761000D03*
X80916000Y-155259000D03*
X80916000Y-154757000D03*
X80916000Y-154255000D03*
X80916000Y-153753000D03*
X80916000Y-153251000D03*
X80916000Y-152749000D03*
X80916000Y-152247000D03*
X80916000Y-151745000D03*
X80916000Y-151243000D03*
X80916000Y-150741000D03*
X80916000Y-150239000D03*
X80916000Y-149737000D03*
X75084000Y-149750000D03*
X75084000Y-150250000D03*
X75084000Y-150750000D03*
X75084000Y-151250000D03*
X75084000Y-151750000D03*
X75084000Y-152247000D03*
X75084000Y-152750000D03*
X75084000Y-153251000D03*
X75084000Y-153753000D03*
X75084000Y-154255000D03*
X75084000Y-154757000D03*
X75084000Y-155250000D03*
X75084000Y-155761000D03*
X75084000Y-156250000D03*
%TD*%
D23*
%TO.C,R8*%
X55545000Y-61990000D03*
X55545000Y-63010000D03*
%TD*%
%TO.C,R22*%
X105400000Y-70990000D03*
X105400000Y-72010000D03*
%TD*%
D24*
%TO.C,C40*%
X88900000Y-173180000D03*
X88900000Y-172220000D03*
%TD*%
D25*
%TO.C,C27*%
X78300000Y-69850000D03*
X78300000Y-66900000D03*
%TD*%
D14*
%TO.C,C1*%
X61845000Y-68000000D03*
X62805000Y-68000000D03*
%TD*%
D11*
%TO.C,U22*%
X110916000Y-156263000D03*
X110916000Y-155761000D03*
X110916000Y-155259000D03*
X110916000Y-154757000D03*
X110916000Y-154255000D03*
X110916000Y-153753000D03*
X110916000Y-153251000D03*
X110916000Y-152749000D03*
X110916000Y-152247000D03*
X110916000Y-151745000D03*
X110916000Y-151243000D03*
X110916000Y-150741000D03*
X110916000Y-150239000D03*
X110916000Y-149737000D03*
X105084000Y-149750000D03*
X105084000Y-150250000D03*
X105084000Y-150750000D03*
X105084000Y-151250000D03*
X105084000Y-151750000D03*
X105084000Y-152247000D03*
X105084000Y-152750000D03*
X105084000Y-153251000D03*
X105084000Y-153753000D03*
X105084000Y-154255000D03*
X105084000Y-154757000D03*
X105084000Y-155250000D03*
X105084000Y-155761000D03*
X105084000Y-156250000D03*
%TD*%
D26*
%TO.C,U9*%
X95900000Y-67675000D03*
X95900000Y-67175000D03*
X95900000Y-66675000D03*
X95900000Y-66175000D03*
X95900000Y-65675000D03*
X91500000Y-65675000D03*
X91500000Y-66175000D03*
X91500000Y-66675000D03*
X91500000Y-67175000D03*
X91500000Y-67675000D03*
%TD*%
D20*
%TO.C,C37*%
X99380000Y-59600000D03*
X98420000Y-59600000D03*
%TD*%
D16*
%TO.C,R9*%
X55555000Y-65500000D03*
X54535000Y-65500000D03*
%TD*%
D23*
%TO.C,R23*%
X105400000Y-73740000D03*
X105400000Y-74760000D03*
%TD*%
%TO.C,R13*%
X56725000Y-63890000D03*
X56725000Y-64910000D03*
%TD*%
D27*
%TO.C,U3*%
X56300000Y-72650000D03*
X60500000Y-72650000D03*
D28*
X57700000Y-72600000D03*
X59100000Y-72600000D03*
X57700000Y-70900000D03*
X59100000Y-70900000D03*
D27*
X56300000Y-70850000D03*
X60500000Y-70850000D03*
D29*
X55650000Y-74250000D03*
X56150000Y-74250000D03*
X56650000Y-74250000D03*
X57150000Y-74250000D03*
X57650000Y-74250000D03*
X58150000Y-74250000D03*
X58650000Y-74250000D03*
X59150000Y-74250000D03*
X59650000Y-74250000D03*
X60150000Y-74250000D03*
X60650000Y-74250000D03*
X61150000Y-74250000D03*
D30*
X61900000Y-73500000D03*
X61900000Y-73000000D03*
X61900000Y-72500000D03*
X61900000Y-72000000D03*
X61900000Y-71500000D03*
X61900000Y-71000000D03*
X61900000Y-70500000D03*
X61900000Y-70000000D03*
D29*
X61150000Y-69250000D03*
X60650000Y-69250000D03*
X60150000Y-69250000D03*
X59650000Y-69250000D03*
X59150000Y-69250000D03*
X58650000Y-69250000D03*
X58150000Y-69250000D03*
X57650000Y-69250000D03*
X57150000Y-69250000D03*
X56650000Y-69250000D03*
X56150000Y-69250000D03*
X55650000Y-69250000D03*
D30*
X54900000Y-70000000D03*
X54900000Y-70500000D03*
X54900000Y-71000000D03*
X54900000Y-71500000D03*
X54900000Y-72000000D03*
X54900000Y-72500000D03*
X54900000Y-73000000D03*
X54900000Y-73500000D03*
%TD*%
D14*
%TO.C,C16*%
X61845000Y-66825000D03*
X62805000Y-66825000D03*
%TD*%
D31*
%TO.C,U7*%
X83375100Y-54149999D03*
X83375100Y-53650000D03*
X83375100Y-53150001D03*
X81774900Y-53150001D03*
X81774900Y-53650000D03*
X81774900Y-54149999D03*
%TD*%
D15*
%TO.C,C22*%
X58575000Y-77300000D03*
X58575000Y-79200000D03*
%TD*%
D11*
%TO.C,U13*%
X80916000Y-100263000D03*
X80916000Y-99761000D03*
X80916000Y-99259000D03*
X80916000Y-98757000D03*
X80916000Y-98255000D03*
X80916000Y-97753000D03*
X80916000Y-97251000D03*
X80916000Y-96749000D03*
X80916000Y-96247000D03*
X80916000Y-95745000D03*
X80916000Y-95243000D03*
X80916000Y-94741000D03*
X80916000Y-94239000D03*
X80916000Y-93737000D03*
X75084000Y-93750000D03*
X75084000Y-94250000D03*
X75084000Y-94750000D03*
X75084000Y-95250000D03*
X75084000Y-95750000D03*
X75084000Y-96247000D03*
X75084000Y-96750000D03*
X75084000Y-97251000D03*
X75084000Y-97753000D03*
X75084000Y-98255000D03*
X75084000Y-98757000D03*
X75084000Y-99250000D03*
X75084000Y-99761000D03*
X75084000Y-100250000D03*
%TD*%
D32*
%TO.C,U6*%
X104350000Y-47780000D03*
X104350000Y-49050000D03*
X104350000Y-50320000D03*
X104350000Y-51590000D03*
X104350000Y-52860000D03*
X104350000Y-54130000D03*
X104350000Y-55400000D03*
X104350000Y-56670000D03*
X104350000Y-57940000D03*
X104350000Y-59210000D03*
X104350000Y-60480000D03*
X104350000Y-61750000D03*
X104350000Y-63020000D03*
X104350000Y-64290000D03*
D33*
X106115000Y-65540000D03*
X107385000Y-65540000D03*
X108655000Y-65540000D03*
X109925000Y-65540000D03*
X111195000Y-65540000D03*
X112465000Y-65540000D03*
X113735000Y-65540000D03*
X115005000Y-65540000D03*
X116275000Y-65540000D03*
X117545000Y-65540000D03*
X118815000Y-65540000D03*
X120085000Y-65540000D03*
D32*
X121850000Y-64290000D03*
X121850000Y-63020000D03*
X121850000Y-61750000D03*
X121850000Y-60480000D03*
X121850000Y-59210000D03*
X121850000Y-57940000D03*
X121850000Y-56670000D03*
X121850000Y-55400000D03*
X121850000Y-54130000D03*
X121850000Y-52860000D03*
X121850000Y-51590000D03*
X121850000Y-50320000D03*
X121850000Y-49050000D03*
X121850000Y-47780000D03*
D34*
X110200000Y-54100000D03*
X110200000Y-55500000D03*
X110200000Y-56900000D03*
X111600000Y-54100000D03*
X111600000Y-55500000D03*
X111600000Y-56900000D03*
X113000000Y-54100000D03*
X113000000Y-55500000D03*
X113000000Y-56900000D03*
%TD*%
D35*
%TO.C,J4*%
X110650000Y-75450000D03*
X111900000Y-75450000D03*
X113150000Y-75450000D03*
X114400000Y-75450000D03*
X115650000Y-75450000D03*
X116900000Y-75450000D03*
X118150000Y-75450000D03*
X119400000Y-75450000D03*
X120650000Y-75450000D03*
X121900000Y-75450000D03*
X123150000Y-75450000D03*
X124400000Y-75450000D03*
D36*
X108800000Y-72100000D03*
X126250000Y-72100000D03*
%TD*%
D37*
%TO.C,C10*%
X62225000Y-60675000D03*
X65175000Y-60675000D03*
%TD*%
D38*
%TO.C,C31*%
X90450000Y-52340000D03*
X90450000Y-53300000D03*
%TD*%
D39*
%TO.C,J7*%
X99870000Y-53420000D03*
X99070000Y-53420000D03*
D40*
X97920000Y-53375000D03*
X96920000Y-53375000D03*
X96420000Y-53375000D03*
X95420000Y-53375000D03*
D39*
X94270000Y-53420000D03*
X93470000Y-53420000D03*
X93470000Y-53420000D03*
X94270000Y-53420000D03*
D40*
X94920000Y-53375000D03*
X95920000Y-53375000D03*
X97420000Y-53375000D03*
X98420000Y-53375000D03*
D39*
X99070000Y-53420000D03*
X99870000Y-53420000D03*
D41*
X100990000Y-52800000D03*
D42*
X100990000Y-48620000D03*
D41*
X92350000Y-52800000D03*
D42*
X92350000Y-48620000D03*
%TD*%
D43*
%TO.C,R15*%
X103090000Y-67225000D03*
X104110000Y-67225000D03*
%TD*%
D44*
%TO.C,R14*%
X60387500Y-78750000D03*
X63312500Y-78750000D03*
%TD*%
D17*
%TO.C,SW1*%
X85425000Y-46825000D03*
X89275000Y-46825000D03*
X85425000Y-48275000D03*
X89275000Y-48275000D03*
%TD*%
D38*
%TO.C,C25*%
X53025000Y-69795000D03*
X53025000Y-70755000D03*
%TD*%
%TO.C,C38*%
X95600000Y-69120000D03*
X95600000Y-70080000D03*
%TD*%
D45*
%TO.C,C14*%
X62125000Y-65275000D03*
X64025000Y-65275000D03*
%TD*%
D46*
%TO.C,D1*%
X94425000Y-62000000D03*
X94425000Y-58000000D03*
%TD*%
D31*
%TO.C,U8*%
X92400900Y-173699999D03*
X92400900Y-173200000D03*
X92400900Y-172700001D03*
X90800700Y-172700001D03*
X90800700Y-173200000D03*
X90800700Y-173699999D03*
%TD*%
D16*
%TO.C,R26*%
X88535000Y-66125000D03*
X87515000Y-66125000D03*
%TD*%
D11*
%TO.C,U12*%
X110916000Y-100263000D03*
X110916000Y-99761000D03*
X110916000Y-99259000D03*
X110916000Y-98757000D03*
X110916000Y-98255000D03*
X110916000Y-97753000D03*
X110916000Y-97251000D03*
X110916000Y-96749000D03*
X110916000Y-96247000D03*
X110916000Y-95745000D03*
X110916000Y-95243000D03*
X110916000Y-94741000D03*
X110916000Y-94239000D03*
X110916000Y-93737000D03*
X105084000Y-93750000D03*
X105084000Y-94250000D03*
X105084000Y-94750000D03*
X105084000Y-95250000D03*
X105084000Y-95750000D03*
X105084000Y-96247000D03*
X105084000Y-96750000D03*
X105084000Y-97251000D03*
X105084000Y-97753000D03*
X105084000Y-98255000D03*
X105084000Y-98757000D03*
X105084000Y-99250000D03*
X105084000Y-99761000D03*
X105084000Y-100250000D03*
%TD*%
M02*
