%TF.GenerationSoftware,KiCad,Pcbnew,7.0.6-0*%
%TF.CreationDate,2023-10-22T16:37:52-04:00*%
%TF.ProjectId,bitaxeUltraHex,62697461-7865-4556-9c74-72614865782e,0.9*%
%TF.SameCoordinates,Original*%
%TF.FileFunction,Copper,L4,Bot*%
%TF.FilePolarity,Positive*%
%FSLAX46Y46*%
G04 Gerber Fmt 4.6, Leading zero omitted, Abs format (unit mm)*
G04 Created by KiCad (PCBNEW 7.0.6-0) date 2023-10-22 16:37:52*
%MOMM*%
%LPD*%
G01*
G04 APERTURE LIST*
G04 Aperture macros list*
%AMRoundRect*
0 Rectangle with rounded corners*
0 $1 Rounding radius*
0 $2 $3 $4 $5 $6 $7 $8 $9 X,Y pos of 4 corners*
0 Add a 4 corners polygon primitive as box body*
4,1,4,$2,$3,$4,$5,$6,$7,$8,$9,$2,$3,0*
0 Add four circle primitives for the rounded corners*
1,1,$1+$1,$2,$3*
1,1,$1+$1,$4,$5*
1,1,$1+$1,$6,$7*
1,1,$1+$1,$8,$9*
0 Add four rect primitives between the rounded corners*
20,1,$1+$1,$2,$3,$4,$5,0*
20,1,$1+$1,$4,$5,$6,$7,0*
20,1,$1+$1,$6,$7,$8,$9,0*
20,1,$1+$1,$8,$9,$2,$3,0*%
%AMFreePoly0*
4,1,17,-2.699995,4.191000,0.495300,4.191000,0.495300,3.429000,0.000000,3.429000,0.000000,0.381000,0.495300,0.381000,0.495300,-0.381000,-2.699995,-0.381000,-2.699995,-0.875995,-3.604995,-0.875995,-3.604995,-0.381000,-4.029995,-0.381000,-4.029995,4.191000,-3.604995,4.191000,-3.604995,4.685995,-2.699995,4.685995,-2.699995,4.191000,-2.699995,4.191000,$1*%
%AMFreePoly1*
4,1,45,-0.199646,1.700354,-0.199500,1.700000,-0.199500,1.200500,0.199500,1.200500,0.199500,1.700000,0.199646,1.700354,0.200000,1.700500,0.450000,1.700500,0.450354,1.700354,0.450500,1.700000,0.450500,1.200500,0.825000,1.200500,0.825354,1.200354,0.825500,1.200000,0.825500,-1.200000,0.825354,-1.200354,0.825000,-1.200500,0.450500,-1.200500,0.450500,-1.700000,0.450354,-1.700354,
0.450000,-1.700500,0.200000,-1.700500,0.199646,-1.700354,0.199500,-1.700000,0.199500,-1.200500,-0.199500,-1.200500,-0.199500,-1.700000,-0.199646,-1.700354,-0.200000,-1.700500,-0.450000,-1.700500,-0.450354,-1.700354,-0.450500,-1.700000,-0.450500,-1.200500,-0.825000,-1.200500,-0.825354,-1.200354,-0.825500,-1.200000,-0.825500,1.200000,-0.825354,1.200354,-0.825000,1.200500,-0.450500,1.200500,
-0.450500,1.700000,-0.450354,1.700354,-0.450000,1.700500,-0.200000,1.700500,-0.199646,1.700354,-0.199646,1.700354,$1*%
G04 Aperture macros list end*
%TA.AperFunction,ComponentPad*%
%ADD10C,2.500000*%
%TD*%
%TA.AperFunction,ComponentPad*%
%ADD11C,4.000000*%
%TD*%
%TA.AperFunction,ComponentPad*%
%ADD12C,3.200000*%
%TD*%
%TA.AperFunction,ComponentPad*%
%ADD13C,1.574800*%
%TD*%
%TA.AperFunction,ComponentPad*%
%ADD14C,0.800000*%
%TD*%
%TA.AperFunction,ComponentPad*%
%ADD15R,1.700000X1.700000*%
%TD*%
%TA.AperFunction,ComponentPad*%
%ADD16O,1.700000X1.700000*%
%TD*%
%TA.AperFunction,ComponentPad*%
%ADD17O,1.000000X2.100000*%
%TD*%
%TA.AperFunction,ComponentPad*%
%ADD18O,1.000000X1.800000*%
%TD*%
%TA.AperFunction,SMDPad,CuDef*%
%ADD19RoundRect,0.135000X0.135000X0.185000X-0.135000X0.185000X-0.135000X-0.185000X0.135000X-0.185000X0*%
%TD*%
%TA.AperFunction,SMDPad,CuDef*%
%ADD20RoundRect,0.140000X0.170000X-0.140000X0.170000X0.140000X-0.170000X0.140000X-0.170000X-0.140000X0*%
%TD*%
%TA.AperFunction,SMDPad,CuDef*%
%ADD21RoundRect,0.250000X-0.325000X-0.650000X0.325000X-0.650000X0.325000X0.650000X-0.325000X0.650000X0*%
%TD*%
%TA.AperFunction,SMDPad,CuDef*%
%ADD22RoundRect,0.140000X-0.170000X0.140000X-0.170000X-0.140000X0.170000X-0.140000X0.170000X0.140000X0*%
%TD*%
%TA.AperFunction,SMDPad,CuDef*%
%ADD23RoundRect,0.140000X0.140000X0.170000X-0.140000X0.170000X-0.140000X-0.170000X0.140000X-0.170000X0*%
%TD*%
%TA.AperFunction,SMDPad,CuDef*%
%ADD24C,1.000000*%
%TD*%
%TA.AperFunction,SMDPad,CuDef*%
%ADD25RoundRect,0.135000X0.185000X-0.135000X0.185000X0.135000X-0.185000X0.135000X-0.185000X-0.135000X0*%
%TD*%
%TA.AperFunction,SMDPad,CuDef*%
%ADD26RoundRect,0.250000X0.475000X-0.250000X0.475000X0.250000X-0.475000X0.250000X-0.475000X-0.250000X0*%
%TD*%
%TA.AperFunction,SMDPad,CuDef*%
%ADD27RoundRect,0.250000X-0.875000X-1.025000X0.875000X-1.025000X0.875000X1.025000X-0.875000X1.025000X0*%
%TD*%
%TA.AperFunction,SMDPad,CuDef*%
%ADD28RoundRect,0.140000X-0.140000X-0.170000X0.140000X-0.170000X0.140000X0.170000X-0.140000X0.170000X0*%
%TD*%
%TA.AperFunction,SMDPad,CuDef*%
%ADD29RoundRect,0.150000X0.512500X0.150000X-0.512500X0.150000X-0.512500X-0.150000X0.512500X-0.150000X0*%
%TD*%
%TA.AperFunction,SMDPad,CuDef*%
%ADD30RoundRect,0.135000X-0.135000X-0.185000X0.135000X-0.185000X0.135000X0.185000X-0.135000X0.185000X0*%
%TD*%
%TA.AperFunction,SMDPad,CuDef*%
%ADD31RoundRect,0.250000X-0.650000X-2.450000X0.650000X-2.450000X0.650000X2.450000X-0.650000X2.450000X0*%
%TD*%
%TA.AperFunction,SMDPad,CuDef*%
%ADD32R,0.650000X1.560000*%
%TD*%
%TA.AperFunction,SMDPad,CuDef*%
%ADD33RoundRect,0.250000X-0.312500X-0.625000X0.312500X-0.625000X0.312500X0.625000X-0.312500X0.625000X0*%
%TD*%
%TA.AperFunction,SMDPad,CuDef*%
%ADD34RoundRect,0.135000X-0.185000X0.135000X-0.185000X-0.135000X0.185000X-0.135000X0.185000X0.135000X0*%
%TD*%
%TA.AperFunction,SMDPad,CuDef*%
%ADD35C,1.500000*%
%TD*%
%TA.AperFunction,SMDPad,CuDef*%
%ADD36RoundRect,0.100000X0.100000X-0.637500X0.100000X0.637500X-0.100000X0.637500X-0.100000X-0.637500X0*%
%TD*%
%TA.AperFunction,SMDPad,CuDef*%
%ADD37R,0.558800X0.952500*%
%TD*%
%TA.AperFunction,SMDPad,CuDef*%
%ADD38R,3.700000X2.420000*%
%TD*%
%TA.AperFunction,SMDPad,CuDef*%
%ADD39RoundRect,0.250000X0.250000X0.475000X-0.250000X0.475000X-0.250000X-0.475000X0.250000X-0.475000X0*%
%TD*%
%TA.AperFunction,SMDPad,CuDef*%
%ADD40R,0.762000X0.990600*%
%TD*%
%TA.AperFunction,SMDPad,CuDef*%
%ADD41FreePoly0,90.000000*%
%TD*%
%TA.AperFunction,SMDPad,CuDef*%
%ADD42R,1.300000X1.100000*%
%TD*%
%TA.AperFunction,SMDPad,CuDef*%
%ADD43R,1.400000X0.300000*%
%TD*%
%TA.AperFunction,SMDPad,CuDef*%
%ADD44RoundRect,0.250000X-0.362500X-1.425000X0.362500X-1.425000X0.362500X1.425000X-0.362500X1.425000X0*%
%TD*%
%TA.AperFunction,SMDPad,CuDef*%
%ADD45RoundRect,0.250000X-0.250000X-0.475000X0.250000X-0.475000X0.250000X0.475000X-0.250000X0.475000X0*%
%TD*%
%TA.AperFunction,SMDPad,CuDef*%
%ADD46R,0.650000X0.630000*%
%TD*%
%TA.AperFunction,SMDPad,CuDef*%
%ADD47R,4.500000X4.300000*%
%TD*%
%TA.AperFunction,SMDPad,CuDef*%
%ADD48RoundRect,0.250000X1.425000X-0.362500X1.425000X0.362500X-1.425000X0.362500X-1.425000X-0.362500X0*%
%TD*%
%TA.AperFunction,SMDPad,CuDef*%
%ADD49RoundRect,0.250000X0.362500X1.425000X-0.362500X1.425000X-0.362500X-1.425000X0.362500X-1.425000X0*%
%TD*%
%TA.AperFunction,SMDPad,CuDef*%
%ADD50R,1.100000X1.300000*%
%TD*%
%TA.AperFunction,SMDPad,CuDef*%
%ADD51RoundRect,0.250000X2.050000X0.300000X-2.050000X0.300000X-2.050000X-0.300000X2.050000X-0.300000X0*%
%TD*%
%TA.AperFunction,SMDPad,CuDef*%
%ADD52RoundRect,0.250000X2.025000X2.375000X-2.025000X2.375000X-2.025000X-2.375000X2.025000X-2.375000X0*%
%TD*%
%TA.AperFunction,SMDPad,CuDef*%
%ADD53RoundRect,0.250002X4.449998X5.149998X-4.449998X5.149998X-4.449998X-5.149998X4.449998X-5.149998X0*%
%TD*%
%TA.AperFunction,SMDPad,CuDef*%
%ADD54RoundRect,0.007874X-0.292126X-0.112126X0.292126X-0.112126X0.292126X0.112126X-0.292126X0.112126X0*%
%TD*%
%TA.AperFunction,ComponentPad*%
%ADD55C,0.400000*%
%TD*%
%TA.AperFunction,SMDPad,CuDef*%
%ADD56FreePoly1,0.000000*%
%TD*%
%TA.AperFunction,ViaPad*%
%ADD57C,1.000000*%
%TD*%
%TA.AperFunction,ViaPad*%
%ADD58C,1.300000*%
%TD*%
%TA.AperFunction,ViaPad*%
%ADD59C,0.800000*%
%TD*%
%TA.AperFunction,Conductor*%
%ADD60C,0.400000*%
%TD*%
%TA.AperFunction,Conductor*%
%ADD61C,0.200000*%
%TD*%
%TA.AperFunction,Conductor*%
%ADD62C,0.500000*%
%TD*%
%TA.AperFunction,Conductor*%
%ADD63C,0.254000*%
%TD*%
%TA.AperFunction,Conductor*%
%ADD64C,0.300000*%
%TD*%
G04 APERTURE END LIST*
D10*
%TO.P,H10,*%
%TO.N,*%
X122500000Y-153000000D03*
%TD*%
%TO.P,H9,*%
%TO.N,*%
X62000000Y-153000000D03*
%TD*%
%TO.P,H8,*%
%TO.N,*%
X122500000Y-125000000D03*
%TD*%
%TO.P,H7,*%
%TO.N,*%
X62000000Y-125000000D03*
%TD*%
%TO.P,H6,*%
%TO.N,*%
X122500000Y-97000000D03*
%TD*%
%TO.P,H5,*%
%TO.N,*%
X62000000Y-97000000D03*
%TD*%
D11*
%TO.P,H4,*%
%TO.N,*%
X131500000Y-172000000D03*
%TD*%
%TO.P,H3,*%
%TO.N,*%
X53000000Y-172000000D03*
%TD*%
%TO.P,H2,*%
%TO.N,*%
X131500000Y-49020000D03*
%TD*%
%TO.P,H1,*%
%TO.N,*%
X52970000Y-49020000D03*
%TD*%
D12*
%TO.P,J2,1,Pin_1*%
%TO.N,GND*%
X62900000Y-56586000D03*
X62900000Y-49586000D03*
X57900000Y-56586000D03*
X57900000Y-49586000D03*
%TD*%
%TO.P,J1,1,Pin_1*%
%TO.N,/Power/VIN*%
X74128000Y-56586000D03*
X74128000Y-49586000D03*
X69128000Y-56586000D03*
X69128000Y-49586000D03*
%TD*%
D13*
%TO.P,J6,1,Pin_1*%
%TO.N,GND*%
X119000000Y-77000000D03*
%TO.P,J6,2,Pin_2*%
%TO.N,/5V*%
X119000000Y-74460000D03*
%TO.P,J6,3,Pin_3*%
%TO.N,/Fan/FAN2_TACH*%
X119000000Y-71920000D03*
%TO.P,J6,4,Pin_4*%
%TO.N,/Fan/FAN2_PWM*%
X119000000Y-69380000D03*
%TD*%
D14*
%TO.P,SW2,1*%
%TO.N,GND*%
X124175000Y-46700000D03*
X128225000Y-46700000D03*
%TD*%
D13*
%TO.P,J5,1,Pin_1*%
%TO.N,GND*%
X102000000Y-77000000D03*
%TO.P,J5,2,Pin_2*%
%TO.N,/5V*%
X102000000Y-74460000D03*
%TO.P,J5,3,Pin_3*%
%TO.N,/Fan/FAN1_TACH*%
X102000000Y-71920000D03*
%TO.P,J5,4,Pin_4*%
%TO.N,/Fan/FAN1_PWM*%
X102000000Y-69380000D03*
%TD*%
D14*
%TO.P,SW1,1*%
%TO.N,GND*%
X84075000Y-46700000D03*
X88125000Y-46700000D03*
%TD*%
D15*
%TO.P,J7,1,Pin_1*%
%TO.N,GND*%
X125800000Y-55200000D03*
D16*
%TO.P,J7,2,Pin_2*%
%TO.N,/3V3*%
X125800000Y-57740000D03*
%TO.P,J7,3,Pin_3*%
%TO.N,/SCL*%
X125800000Y-60280000D03*
%TO.P,J7,4,Pin_4*%
%TO.N,/SDA*%
X125800000Y-62820000D03*
%TD*%
D17*
%TO.P,J4,S1,SHIELD*%
%TO.N,GND*%
X101830000Y-52800000D03*
D18*
X101830000Y-48620000D03*
D17*
X93190000Y-52800000D03*
D18*
X93190000Y-48620000D03*
%TD*%
D19*
%TO.P,R36,1*%
%TO.N,Net-(U16-NRSTO)*%
X70010000Y-99500000D03*
%TO.P,R36,2*%
%TO.N,/BM1366-1/NRSTO*%
X68990000Y-99500000D03*
%TD*%
D20*
%TO.P,C48,1*%
%TO.N,Net-(U13-VDD1_1)*%
X98250000Y-103730000D03*
%TO.P,C48,2*%
%TO.N,Net-(U13-VDD2_1)*%
X98250000Y-102770000D03*
%TD*%
D21*
%TO.P,C21,1*%
%TO.N,/VDD*%
X92125000Y-76000000D03*
%TO.P,C21,2*%
%TO.N,GND*%
X95075000Y-76000000D03*
%TD*%
D22*
%TO.P,C44,1*%
%TO.N,/5V*%
X97800000Y-90420000D03*
%TO.P,C44,2*%
%TO.N,GND*%
X97800000Y-91380000D03*
%TD*%
D23*
%TO.P,C104,1*%
%TO.N,/BM1366-2/0V8*%
X71680000Y-118000000D03*
%TO.P,C104,2*%
%TO.N,Net-(U22-MODE_1)*%
X70720000Y-118000000D03*
%TD*%
D20*
%TO.P,C97,1*%
%TO.N,/BM1366-2/VDD2*%
X69400000Y-131580000D03*
%TO.P,C97,2*%
%TO.N,Net-(U22-VDD1_1)*%
X69400000Y-130620000D03*
%TD*%
D24*
%TO.P,TP33,1,1*%
%TO.N,/BM1366-3/TEMP_P1_3*%
X119400000Y-147600000D03*
%TD*%
D25*
%TO.P,R63,1*%
%TO.N,Net-(U18C--)*%
X53600000Y-109610000D03*
%TO.P,R63,2*%
%TO.N,GND*%
X53600000Y-108590000D03*
%TD*%
D26*
%TO.P,C7,1*%
%TO.N,Net-(U4-COMP)*%
X58099000Y-69088000D03*
%TO.P,C7,2*%
%TO.N,/Power/OUT0*%
X58099000Y-67188000D03*
%TD*%
D24*
%TO.P,TP4,1,1*%
%TO.N,/VDD*%
X83600000Y-80600000D03*
%TD*%
D27*
%TO.P,C150,1*%
%TO.N,/VDD*%
X89800000Y-168300000D03*
%TO.P,C150,2*%
%TO.N,/BM1366-2/VDD2*%
X96200000Y-168300000D03*
%TD*%
D25*
%TO.P,R7,1*%
%TO.N,/3V3*%
X59600000Y-74310000D03*
%TO.P,R7,2*%
%TO.N,/Power/PGOOD*%
X59600000Y-73290000D03*
%TD*%
D28*
%TO.P,C147,1*%
%TO.N,/VDD*%
X111220000Y-162100000D03*
%TO.P,C147,2*%
%TO.N,/BM1366-2/VDD2*%
X112180000Y-162100000D03*
%TD*%
D20*
%TO.P,C122,1*%
%TO.N,Net-(U24-VDD2_1)*%
X100500000Y-159660000D03*
%TO.P,C122,2*%
%TO.N,Net-(U24-VDD3_1)*%
X100500000Y-158700000D03*
%TD*%
D29*
%TO.P,U25,1,VIN*%
%TO.N,/5V*%
X94837500Y-145350000D03*
%TO.P,U25,2,GND*%
%TO.N,/BM1366-2/VDD2*%
X94837500Y-146300000D03*
%TO.P,U25,3,EN*%
%TO.N,/5V*%
X94837500Y-147250000D03*
%TO.P,U25,4,ADJ*%
%TO.N,Net-(U25-ADJ)*%
X92562500Y-147250000D03*
%TO.P,U25,5,VOUT*%
%TO.N,/BM1366-3/0V8*%
X92562500Y-145350000D03*
%TD*%
D25*
%TO.P,R50,1*%
%TO.N,/BM1366-2/CI2*%
X65630000Y-114130000D03*
%TO.P,R50,2*%
%TO.N,Net-(U18A--)*%
X65630000Y-113110000D03*
%TD*%
D24*
%TO.P,TP35,1,1*%
%TO.N,/BM1366-3/0V8*%
X84600000Y-144900000D03*
%TD*%
%TO.P,TP11,1,1*%
%TO.N,Net-(U7-B4)*%
X127100000Y-85400000D03*
%TD*%
D30*
%TO.P,R54,1*%
%TO.N,/BM1366-1/VDD1*%
X89790000Y-118300000D03*
%TO.P,R54,2*%
%TO.N,Net-(U20-ADJ)*%
X90810000Y-118300000D03*
%TD*%
D20*
%TO.P,C83,1*%
%TO.N,Net-(U19-VDD2_1)*%
X86700000Y-130980000D03*
%TO.P,C83,2*%
%TO.N,Net-(U19-VDD3_1)*%
X86700000Y-130020000D03*
%TD*%
D23*
%TO.P,C60,1*%
%TO.N,/BM1366-1/VDD1*%
X74480000Y-104200000D03*
%TO.P,C60,2*%
%TO.N,Net-(U16-VDD1_1)*%
X73520000Y-104200000D03*
%TD*%
D31*
%TO.P,C1,1*%
%TO.N,/Power/VIN_M*%
X83650000Y-50600000D03*
%TO.P,C1,2*%
%TO.N,GND*%
X88750000Y-50600000D03*
%TD*%
D24*
%TO.P,TP50,1,1*%
%TO.N,Net-(U9-GPIO38{slash}FSPIWP{slash}SUBSPIWP)*%
X117800000Y-56100000D03*
%TD*%
D20*
%TO.P,C123,1*%
%TO.N,Net-(U24-VDD3_1)*%
X99300000Y-158660000D03*
%TO.P,C123,2*%
%TO.N,Net-(C123-Pad2)*%
X99300000Y-157700000D03*
%TD*%
D25*
%TO.P,R103,1*%
%TO.N,Net-(U23D--)*%
X131180000Y-137130000D03*
%TO.P,R103,2*%
%TO.N,/BM1366-1/VDD1*%
X131180000Y-136110000D03*
%TD*%
D24*
%TO.P,TP31,1,1*%
%TO.N,/BM1366-2/TEMP_P2_2*%
X90300000Y-121100000D03*
%TD*%
D19*
%TO.P,R92,1*%
%TO.N,Net-(U24-RI)*%
X87110000Y-153800000D03*
%TO.P,R92,2*%
%TO.N,Net-(U27-RO)*%
X86090000Y-153800000D03*
%TD*%
D25*
%TO.P,R93,1*%
%TO.N,Net-(U23C--)*%
X118230000Y-137100000D03*
%TO.P,R93,2*%
%TO.N,/BM1366-1/VDD1*%
X118230000Y-136080000D03*
%TD*%
D24*
%TO.P,TP22,1,1*%
%TO.N,/BM1366-1/TEMP_N1_1*%
X114500000Y-89900000D03*
%TD*%
D32*
%TO.P,U5,1,VIN*%
%TO.N,/3V3*%
X126350000Y-70950000D03*
%TO.P,U5,2,GND*%
%TO.N,GND*%
X127300000Y-70950000D03*
%TO.P,U5,3,EN*%
%TO.N,/3V3*%
X128250000Y-70950000D03*
%TO.P,U5,4,NC*%
%TO.N,unconnected-(U5-NC-Pad4)*%
X128250000Y-73650000D03*
%TO.P,U5,5,VOUT*%
%TO.N,/1V8*%
X126350000Y-73650000D03*
%TD*%
D22*
%TO.P,C136,1*%
%TO.N,/BM1366-1/VDD1*%
X128680000Y-138440000D03*
%TO.P,C136,2*%
%TO.N,/VDD*%
X128680000Y-139400000D03*
%TD*%
%TO.P,C72,1*%
%TO.N,Net-(U18A--)*%
X64330000Y-113160000D03*
%TO.P,C72,2*%
%TO.N,/BM1366-2/CI2*%
X64330000Y-114120000D03*
%TD*%
D23*
%TO.P,C58,1*%
%TO.N,/BM1366-1/1V2*%
X82980000Y-90100000D03*
%TO.P,C58,2*%
%TO.N,GND*%
X82020000Y-90100000D03*
%TD*%
D33*
%TO.P,R1,1*%
%TO.N,/Power/VIN*%
X77837500Y-52800000D03*
%TO.P,R1,2*%
%TO.N,/Power/VIN_M*%
X80762500Y-52800000D03*
%TD*%
D34*
%TO.P,R65,1*%
%TO.N,/BM1366-1/BO*%
X58300000Y-105377500D03*
%TO.P,R65,2*%
%TO.N,Net-(U18C-+)*%
X58300000Y-106397500D03*
%TD*%
D20*
%TO.P,C3,1*%
%TO.N,/Power/VIN_M*%
X71500000Y-80780000D03*
%TO.P,C3,2*%
%TO.N,GND*%
X71500000Y-79820000D03*
%TD*%
D22*
%TO.P,C79,1*%
%TO.N,/BM1366-2/1V2*%
X88200000Y-112120000D03*
%TO.P,C79,2*%
%TO.N,/BM1366-1/VDD1*%
X88200000Y-113080000D03*
%TD*%
D28*
%TO.P,C82,1*%
%TO.N,Net-(U19-MODE_1)*%
X100420000Y-118500000D03*
%TO.P,C82,2*%
%TO.N,/BM1366-2/0V8*%
X101380000Y-118500000D03*
%TD*%
%TO.P,C27,1*%
%TO.N,/3V3*%
X125220000Y-83400000D03*
%TO.P,C27,2*%
%TO.N,GND*%
X126180000Y-83400000D03*
%TD*%
D24*
%TO.P,TP21,1,1*%
%TO.N,/BM1366-1/TEMP_P1_1*%
X115700000Y-95400000D03*
%TD*%
D23*
%TO.P,C43,1*%
%TO.N,Net-(U13-VDD1_0)*%
X112680000Y-102800000D03*
%TO.P,C43,2*%
%TO.N,/BM1366-1/VDD1*%
X111720000Y-102800000D03*
%TD*%
D19*
%TO.P,R70,1*%
%TO.N,Net-(U19-NRSTI)*%
X87710000Y-122600000D03*
%TO.P,R70,2*%
%TO.N,Net-(U22-NRSTO)*%
X86690000Y-122600000D03*
%TD*%
D24*
%TO.P,TP15,1,1*%
%TO.N,/ESP32/P_RX*%
X129100000Y-54300000D03*
%TD*%
D19*
%TO.P,R91,1*%
%TO.N,Net-(C123-Pad2)*%
X99810000Y-156400000D03*
%TO.P,R91,2*%
%TO.N,Net-(U27-NRSTI)*%
X98790000Y-156400000D03*
%TD*%
%TO.P,R37,1*%
%TO.N,Net-(U16-CO)*%
X70010000Y-95000000D03*
%TO.P,R37,2*%
%TO.N,/BM1366-1/CO*%
X68990000Y-95000000D03*
%TD*%
D20*
%TO.P,C50,1*%
%TO.N,Net-(U13-VDD2_1)*%
X97000000Y-102730000D03*
%TO.P,C50,2*%
%TO.N,Net-(U13-VDD3_1)*%
X97000000Y-101770000D03*
%TD*%
%TO.P,C105,1*%
%TO.N,Net-(U22-VDD3_1)*%
X68200000Y-128600000D03*
%TO.P,C105,2*%
%TO.N,Net-(U22-VDD4_1)*%
X68200000Y-127640000D03*
%TD*%
D35*
%TO.P,TP42,1,1*%
%TO.N,/BM1366-3/CLKO3*%
X65500000Y-149900000D03*
%TD*%
D24*
%TO.P,TP10,1,1*%
%TO.N,Net-(U7-A4)*%
X116100000Y-87900000D03*
%TD*%
D36*
%TO.P,U7,1,DIR1*%
%TO.N,/3V3*%
X122975000Y-86762500D03*
%TO.P,U7,2,DIR2*%
%TO.N,GND*%
X122325000Y-86762500D03*
%TO.P,U7,3,A1*%
%TO.N,/RO*%
X121675000Y-86762500D03*
%TO.P,U7,4,A2*%
%TO.N,/CI*%
X121025000Y-86762500D03*
%TO.P,U7,5,A3*%
%TO.N,/NRSTI*%
X120375000Y-86762500D03*
%TO.P,U7,6,A4*%
%TO.N,Net-(U7-A4)*%
X119725000Y-86762500D03*
%TO.P,U7,7,DIR3*%
%TO.N,GND*%
X119075000Y-86762500D03*
%TO.P,U7,8,DIR4*%
%TO.N,Net-(U7-DIR4)*%
X118425000Y-86762500D03*
%TO.P,U7,9,OE*%
%TO.N,Net-(U7-OE)*%
X118425000Y-81037500D03*
%TO.P,U7,10,GND*%
%TO.N,GND*%
X119075000Y-81037500D03*
%TO.P,U7,11,B4*%
%TO.N,Net-(U7-B4)*%
X119725000Y-81037500D03*
%TO.P,U7,12,B3*%
%TO.N,/ESP32/ASIC_RST*%
X120375000Y-81037500D03*
%TO.P,U7,13,B2*%
%TO.N,/ESP32/ESP32_TX*%
X121025000Y-81037500D03*
%TO.P,U7,14,B1*%
%TO.N,/ESP32/ESP32_RX*%
X121675000Y-81037500D03*
%TO.P,U7,15,VCCB*%
%TO.N,/3V3*%
X122325000Y-81037500D03*
%TO.P,U7,16,VCCA*%
%TO.N,/1V8*%
X122975000Y-81037500D03*
%TD*%
D23*
%TO.P,C133,1*%
%TO.N,Net-(U27-VDD1_1)*%
X71160000Y-159800000D03*
%TO.P,C133,2*%
%TO.N,Net-(U27-VDD2_1)*%
X70200000Y-159800000D03*
%TD*%
D19*
%TO.P,R67,1*%
%TO.N,Net-(U19-BI)*%
X87710000Y-123700000D03*
%TO.P,R67,2*%
%TO.N,Net-(U22-BO)*%
X86690000Y-123700000D03*
%TD*%
D22*
%TO.P,C102,1*%
%TO.N,GND*%
X64330000Y-110890000D03*
%TO.P,C102,2*%
%TO.N,/BM1366-2/VDD2*%
X64330000Y-111850000D03*
%TD*%
D20*
%TO.P,C81,1*%
%TO.N,Net-(U19-VDD1_1)*%
X88000000Y-132080000D03*
%TO.P,C81,2*%
%TO.N,Net-(U19-VDD2_1)*%
X88000000Y-131120000D03*
%TD*%
D29*
%TO.P,U15,1,VIN*%
%TO.N,/5V*%
X94737500Y-85350000D03*
%TO.P,U15,2,GND*%
%TO.N,GND*%
X94737500Y-86300000D03*
%TO.P,U15,3,EN*%
%TO.N,/5V*%
X94737500Y-87250000D03*
%TO.P,U15,4,ADJ*%
%TO.N,Net-(U15-ADJ)*%
X92462500Y-87250000D03*
%TO.P,U15,5,VOUT*%
%TO.N,/BM1366-1/1V2*%
X92462500Y-85350000D03*
%TD*%
D20*
%TO.P,C139,1*%
%TO.N,Net-(U27-VDD3_1)*%
X68980000Y-157780000D03*
%TO.P,C139,2*%
%TO.N,Net-(C139-Pad2)*%
X68980000Y-156820000D03*
%TD*%
D22*
%TO.P,C74,1*%
%TO.N,/5V*%
X97500000Y-116320000D03*
%TO.P,C74,2*%
%TO.N,/BM1366-1/VDD1*%
X97500000Y-117280000D03*
%TD*%
D20*
%TO.P,C56,1*%
%TO.N,Net-(U13-MODE_1)*%
X85400000Y-92230000D03*
%TO.P,C56,2*%
%TO.N,/BM1366-1/0V8*%
X85400000Y-91270000D03*
%TD*%
D34*
%TO.P,R95,1*%
%TO.N,/BM1366-2/BO*%
X122880000Y-132400000D03*
%TO.P,R95,2*%
%TO.N,Net-(U23C-+)*%
X122880000Y-133420000D03*
%TD*%
D19*
%TO.P,R6,1*%
%TO.N,Net-(Q2-G)*%
X65710000Y-74000000D03*
%TO.P,R6,2*%
%TO.N,GND*%
X64690000Y-74000000D03*
%TD*%
%TO.P,R61,1*%
%TO.N,Net-(U19-RO)*%
X101010000Y-124900000D03*
%TO.P,R61,2*%
%TO.N,Net-(U22-RI)*%
X99990000Y-124900000D03*
%TD*%
D22*
%TO.P,C65,1*%
%TO.N,/BM1366-1/0V8*%
X69750000Y-89500000D03*
%TO.P,C65,2*%
%TO.N,Net-(U16-MODE_1)*%
X69750000Y-90460000D03*
%TD*%
D24*
%TO.P,TP49,1,1*%
%TO.N,Net-(U9-SPIDQS{slash}GPIO37{slash}FSPIQ{slash}SUBSPIQ)*%
X117800000Y-58100000D03*
%TD*%
D20*
%TO.P,C99,1*%
%TO.N,Net-(U22-VDD1_1)*%
X68200000Y-130580000D03*
%TO.P,C99,2*%
%TO.N,Net-(U22-VDD2_1)*%
X68200000Y-129620000D03*
%TD*%
D24*
%TO.P,TP59,1,1*%
%TO.N,Net-(U9-GPIO14{slash}TOUCH14{slash}ADC2_CH3{slash}FSPIWP{slash}FSPIDQS{slash}SUBSPIWP)*%
X110000000Y-63100000D03*
%TD*%
D22*
%TO.P,C78,1*%
%TO.N,/BM1366-2/0V8*%
X88000000Y-117320000D03*
%TO.P,C78,2*%
%TO.N,/BM1366-1/VDD1*%
X88000000Y-118280000D03*
%TD*%
%TO.P,C121,1*%
%TO.N,/BM1366-3/1V2*%
X88000000Y-140520000D03*
%TO.P,C121,2*%
%TO.N,/BM1366-2/VDD2*%
X88000000Y-141480000D03*
%TD*%
%TO.P,C55,1*%
%TO.N,Net-(U13-VDD3_1)*%
X87000000Y-100750000D03*
%TO.P,C55,2*%
%TO.N,Net-(U13-VDD2_1)*%
X87000000Y-101710000D03*
%TD*%
D24*
%TO.P,TP1,1,1*%
%TO.N,/5V*%
X58100000Y-92100000D03*
%TD*%
D22*
%TO.P,C103,1*%
%TO.N,GND*%
X56030000Y-110880000D03*
%TO.P,C103,2*%
%TO.N,/BM1366-2/VDD2*%
X56030000Y-111840000D03*
%TD*%
D35*
%TO.P,TP40,1,1*%
%TO.N,/BM1366-3/BO3*%
X65500000Y-155600000D03*
%TD*%
D22*
%TO.P,C13,1*%
%TO.N,/3V3*%
X79000000Y-83420000D03*
%TO.P,C13,2*%
%TO.N,GND*%
X79000000Y-84380000D03*
%TD*%
%TO.P,C57,1*%
%TO.N,Net-(U13-VDD2_1)*%
X88250000Y-101790000D03*
%TO.P,C57,2*%
%TO.N,Net-(U13-VDD1_1)*%
X88250000Y-102750000D03*
%TD*%
D20*
%TO.P,C96,1*%
%TO.N,Net-(U18D--)*%
X64330000Y-109600000D03*
%TO.P,C96,2*%
%TO.N,Net-(C96-Pad2)*%
X64330000Y-108640000D03*
%TD*%
D34*
%TO.P,R75,1*%
%TO.N,Net-(C96-Pad2)*%
X65630000Y-108610000D03*
%TO.P,R75,2*%
%TO.N,Net-(U18D--)*%
X65630000Y-109630000D03*
%TD*%
D20*
%TO.P,C94,1*%
%TO.N,/BM1366-2/VDD2*%
X79800000Y-136880000D03*
%TO.P,C94,2*%
%TO.N,/BM1366-1/VDD1*%
X79800000Y-135920000D03*
%TD*%
D24*
%TO.P,FID2,*%
%TO.N,*%
X53100000Y-168060000D03*
%TD*%
D23*
%TO.P,C138,1*%
%TO.N,/BM1366-3/0V8*%
X71480000Y-146900000D03*
%TO.P,C138,2*%
%TO.N,Net-(U27-MODE_1)*%
X70520000Y-146900000D03*
%TD*%
%TO.P,C116,1*%
%TO.N,/VDD*%
X103580000Y-160700000D03*
%TO.P,C116,2*%
%TO.N,Net-(U24-VDD1_1)*%
X102620000Y-160700000D03*
%TD*%
D30*
%TO.P,R55,1*%
%TO.N,/BM1366-1/VDD1*%
X89990000Y-113100000D03*
%TO.P,R55,2*%
%TO.N,Net-(U21-ADJ)*%
X91010000Y-113100000D03*
%TD*%
D19*
%TO.P,R39,1*%
%TO.N,Net-(U16-BO)*%
X70010000Y-98250000D03*
%TO.P,R39,2*%
%TO.N,/BM1366-1/BO*%
X68990000Y-98250000D03*
%TD*%
D24*
%TO.P,TP53,1,1*%
%TO.N,Net-(U9-MTDI{slash}GPIO41{slash}CLK_OUT1)*%
X117800000Y-50100000D03*
%TD*%
D23*
%TO.P,C109,1*%
%TO.N,/BM1366-3/1V2*%
X112880000Y-146800000D03*
%TO.P,C109,2*%
%TO.N,/BM1366-2/VDD2*%
X111920000Y-146800000D03*
%TD*%
%TO.P,C128,1*%
%TO.N,Net-(U24-VDD2_1)*%
X85180000Y-160620000D03*
%TO.P,C128,2*%
%TO.N,Net-(U24-VDD1_1)*%
X84220000Y-160620000D03*
%TD*%
D20*
%TO.P,C141,1*%
%TO.N,/BM1366-1/VDD1*%
X81200000Y-108880000D03*
%TO.P,C141,2*%
%TO.N,GND*%
X81200000Y-107920000D03*
%TD*%
D22*
%TO.P,C86,1*%
%TO.N,Net-(U19-VDD3_1)*%
X100400000Y-129040000D03*
%TO.P,C86,2*%
%TO.N,Net-(U19-VDD2_1)*%
X100400000Y-130000000D03*
%TD*%
D24*
%TO.P,TP2,1,1*%
%TO.N,/3V3*%
X76900000Y-79900000D03*
%TD*%
D36*
%TO.P,U23,1*%
%TO.N,/BM1366-3/CI3*%
X126730000Y-141762500D03*
%TO.P,U23,2,-*%
%TO.N,Net-(U23A--)*%
X126080000Y-141762500D03*
%TO.P,U23,3,+*%
%TO.N,Net-(U23A-+)*%
X125430000Y-141762500D03*
%TO.P,U23,4,V+*%
%TO.N,/VDD*%
X124780000Y-141762500D03*
%TO.P,U23,5,+*%
%TO.N,Net-(U23B-+)*%
X124130000Y-141762500D03*
%TO.P,U23,6,-*%
%TO.N,Net-(U23B--)*%
X123480000Y-141762500D03*
%TO.P,U23,7*%
%TO.N,/BM1366-3/NRSTI3*%
X122830000Y-141762500D03*
%TO.P,U23,8*%
%TO.N,/BM1366-3/BI3*%
X122830000Y-136037500D03*
%TO.P,U23,9,-*%
%TO.N,Net-(U23C--)*%
X123480000Y-136037500D03*
%TO.P,U23,10,+*%
%TO.N,Net-(U23C-+)*%
X124130000Y-136037500D03*
%TO.P,U23,11,V-*%
%TO.N,/BM1366-1/VDD1*%
X124780000Y-136037500D03*
%TO.P,U23,12,+*%
%TO.N,Net-(U23D-+)*%
X125430000Y-136037500D03*
%TO.P,U23,13,-*%
%TO.N,Net-(U23D--)*%
X126080000Y-136037500D03*
%TO.P,U23,14*%
%TO.N,Net-(C131-Pad2)*%
X126730000Y-136037500D03*
%TD*%
%TO.P,U18,1*%
%TO.N,/BM1366-2/CI2*%
X62150000Y-114250000D03*
%TO.P,U18,2,-*%
%TO.N,Net-(U18A--)*%
X61500000Y-114250000D03*
%TO.P,U18,3,+*%
%TO.N,Net-(U18A-+)*%
X60850000Y-114250000D03*
%TO.P,U18,4,V+*%
%TO.N,/BM1366-2/VDD2*%
X60200000Y-114250000D03*
%TO.P,U18,5,+*%
%TO.N,Net-(U18B-+)*%
X59550000Y-114250000D03*
%TO.P,U18,6,-*%
%TO.N,Net-(U18B--)*%
X58900000Y-114250000D03*
%TO.P,U18,7*%
%TO.N,/BM1366-2/NRSTI2*%
X58250000Y-114250000D03*
%TO.P,U18,8*%
%TO.N,/BM1366-2/BI2*%
X58250000Y-108525000D03*
%TO.P,U18,9,-*%
%TO.N,Net-(U18C--)*%
X58900000Y-108525000D03*
%TO.P,U18,10,+*%
%TO.N,Net-(U18C-+)*%
X59550000Y-108525000D03*
%TO.P,U18,11,V-*%
%TO.N,GND*%
X60200000Y-108525000D03*
%TO.P,U18,12,+*%
%TO.N,Net-(U18D-+)*%
X60850000Y-108525000D03*
%TO.P,U18,13,-*%
%TO.N,Net-(U18D--)*%
X61500000Y-108525000D03*
%TO.P,U18,14*%
%TO.N,Net-(C96-Pad2)*%
X62150000Y-108525000D03*
%TD*%
D24*
%TO.P,TP44,1,1*%
%TO.N,/RO*%
X129500000Y-88600000D03*
%TD*%
D37*
%TO.P,U2,1,VIN*%
%TO.N,/5V*%
X77339800Y-84877950D03*
%TO.P,U2,2,GND*%
%TO.N,GND*%
X76400000Y-84877950D03*
%TO.P,U2,3,EN*%
%TO.N,/5V*%
X75460200Y-84877950D03*
%TO.P,U2,4,NC*%
%TO.N,unconnected-(U2-NC-Pad4)*%
X75460200Y-82122050D03*
%TO.P,U2,5,VOUT*%
%TO.N,/3V3*%
X77339800Y-82122050D03*
%TD*%
D25*
%TO.P,R10,1*%
%TO.N,/Power/OUT0*%
X60400000Y-65710000D03*
%TO.P,R10,2*%
%TO.N,GND*%
X60400000Y-64690000D03*
%TD*%
D28*
%TO.P,C151,1*%
%TO.N,/BM1366-2/VDD2*%
X111320000Y-144500000D03*
%TO.P,C151,2*%
%TO.N,/BM1366-3/1V2*%
X112280000Y-144500000D03*
%TD*%
D24*
%TO.P,TP26,1,1*%
%TO.N,/BM1366-1/TEMP_N2_1*%
X92300000Y-95000000D03*
%TD*%
D20*
%TO.P,C143,1*%
%TO.N,/BM1366-1/VDD1*%
X79700000Y-108880000D03*
%TO.P,C143,2*%
%TO.N,GND*%
X79700000Y-107920000D03*
%TD*%
D23*
%TO.P,C146,1*%
%TO.N,/VDD*%
X74180000Y-162500000D03*
%TO.P,C146,2*%
%TO.N,/BM1366-2/VDD2*%
X73220000Y-162500000D03*
%TD*%
D22*
%TO.P,C120,1*%
%TO.N,/BM1366-3/0V8*%
X88300000Y-145720000D03*
%TO.P,C120,2*%
%TO.N,/BM1366-2/VDD2*%
X88300000Y-146680000D03*
%TD*%
D24*
%TO.P,TP5,1,1*%
%TO.N,GND*%
X81000000Y-85800000D03*
%TD*%
D30*
%TO.P,R25,1*%
%TO.N,GND*%
X89190000Y-87600000D03*
%TO.P,R25,2*%
%TO.N,Net-(U15-ADJ)*%
X90210000Y-87600000D03*
%TD*%
D38*
%TO.P,L1,1,1*%
%TO.N,/Power/SW*%
X85200000Y-69180000D03*
%TO.P,L1,2,2*%
%TO.N,/VDD*%
X85200000Y-76420000D03*
%TD*%
D22*
%TO.P,C124,1*%
%TO.N,Net-(C123-Pad2)*%
X86500000Y-157320000D03*
%TO.P,C124,2*%
%TO.N,Net-(U24-VDD3_1)*%
X86500000Y-158280000D03*
%TD*%
D19*
%TO.P,R30,1*%
%TO.N,Net-(U13-BO)*%
X99910000Y-97800000D03*
%TO.P,R30,2*%
%TO.N,Net-(U16-BI)*%
X98890000Y-97800000D03*
%TD*%
D23*
%TO.P,C132,1*%
%TO.N,/VDD*%
X73160000Y-159800000D03*
%TO.P,C132,2*%
%TO.N,Net-(U27-VDD1_1)*%
X72200000Y-159800000D03*
%TD*%
D30*
%TO.P,R109,1*%
%TO.N,Net-(U24-RO)*%
X116990000Y-152600000D03*
%TO.P,R109,2*%
%TO.N,/BM1366-3/RO3*%
X118010000Y-152600000D03*
%TD*%
D22*
%TO.P,C108,1*%
%TO.N,Net-(U24-VDD3_0)*%
X115900000Y-157140000D03*
%TO.P,C108,2*%
%TO.N,Net-(U24-VDD2_0)*%
X115900000Y-158100000D03*
%TD*%
D23*
%TO.P,C68,1*%
%TO.N,Net-(U19-MODEO)*%
X115180000Y-118500000D03*
%TO.P,C68,2*%
%TO.N,/BM1366-2/0V8*%
X114220000Y-118500000D03*
%TD*%
%TO.P,C70,1*%
%TO.N,/BM1366-2/1V2*%
X112980000Y-118500000D03*
%TO.P,C70,2*%
%TO.N,/BM1366-1/VDD1*%
X112020000Y-118500000D03*
%TD*%
D30*
%TO.P,R19,1*%
%TO.N,GND*%
X94690000Y-50300000D03*
%TO.P,R19,2*%
%TO.N,Net-(J4-CC2)*%
X95710000Y-50300000D03*
%TD*%
D24*
%TO.P,TP34,1,1*%
%TO.N,/BM1366-3/TEMP_N1_3*%
X117900000Y-146100000D03*
%TD*%
D28*
%TO.P,C149,1*%
%TO.N,/VDD*%
X111220000Y-163500000D03*
%TO.P,C149,2*%
%TO.N,/BM1366-2/VDD2*%
X112180000Y-163500000D03*
%TD*%
D39*
%TO.P,C15,1*%
%TO.N,Net-(U4-BP)*%
X65350000Y-72400000D03*
%TO.P,C15,2*%
%TO.N,GND*%
X63450000Y-72400000D03*
%TD*%
D24*
%TO.P,TP32,1,1*%
%TO.N,/BM1366-2/TEMP_N2_2*%
X92500000Y-121100000D03*
%TD*%
D25*
%TO.P,R22,1*%
%TO.N,GND*%
X118800000Y-100810000D03*
%TO.P,R22,2*%
%TO.N,/BM1366-1/BI1*%
X118800000Y-99790000D03*
%TD*%
D24*
%TO.P,FID8,*%
%TO.N,*%
X131410000Y-52800000D03*
%TD*%
D34*
%TO.P,R105,1*%
%TO.N,/BM1366-3/RO3*%
X126630000Y-132400000D03*
%TO.P,R105,2*%
%TO.N,Net-(U23D-+)*%
X126630000Y-133420000D03*
%TD*%
D27*
%TO.P,C145,1*%
%TO.N,/BM1366-1/VDD1*%
X89400000Y-107700000D03*
%TO.P,C145,2*%
%TO.N,GND*%
X95800000Y-107700000D03*
%TD*%
D20*
%TO.P,C84,1*%
%TO.N,Net-(U19-VDD3_1)*%
X88000000Y-129980000D03*
%TO.P,C84,2*%
%TO.N,Net-(U19-VDD4_1)*%
X88000000Y-129020000D03*
%TD*%
D22*
%TO.P,C38,1*%
%TO.N,Net-(C38-Pad1)*%
X117500000Y-99790000D03*
%TO.P,C38,2*%
%TO.N,Net-(U13-VDD3_0)*%
X117500000Y-100750000D03*
%TD*%
D25*
%TO.P,R81,1*%
%TO.N,/BM1366-3/CI3*%
X129930000Y-141730000D03*
%TO.P,R81,2*%
%TO.N,Net-(U23A--)*%
X129930000Y-140710000D03*
%TD*%
%TO.P,R107,1*%
%TO.N,Net-(U27-NC)*%
X69196000Y-148110000D03*
%TO.P,R107,2*%
%TO.N,Net-(U27-MODE_1)*%
X69196000Y-147090000D03*
%TD*%
D20*
%TO.P,C101,1*%
%TO.N,Net-(U22-VDD2_1)*%
X69400000Y-129580000D03*
%TO.P,C101,2*%
%TO.N,Net-(U22-VDD3_1)*%
X69400000Y-128620000D03*
%TD*%
D35*
%TO.P,TP43,1,1*%
%TO.N,/BM1366-3/CO3*%
X67100000Y-147900000D03*
%TD*%
D20*
%TO.P,C95,1*%
%TO.N,/BM1366-2/VDD2*%
X106500000Y-138580000D03*
%TO.P,C95,2*%
%TO.N,/BM1366-1/VDD1*%
X106500000Y-137620000D03*
%TD*%
D34*
%TO.P,R64,1*%
%TO.N,/BM1366-2/VDD2*%
X59600000Y-105390000D03*
%TO.P,R64,2*%
%TO.N,Net-(U18C-+)*%
X59600000Y-106410000D03*
%TD*%
D40*
%TO.P,Q3,1*%
%TO.N,/Power/SW*%
X79105000Y-66983294D03*
%TO.P,Q3,2*%
X77835000Y-66983294D03*
%TO.P,Q3,3,S*%
X76565000Y-66983294D03*
%TO.P,Q3,4,G*%
%TO.N,Net-(Q1-G)*%
X75295000Y-66983294D03*
D41*
%TO.P,Q3,5,D*%
%TO.N,/Power/VIN_M*%
X79105000Y-61488298D03*
%TD*%
D20*
%TO.P,C135,1*%
%TO.N,Net-(U27-VDD2_1)*%
X70180000Y-158680000D03*
%TO.P,C135,2*%
%TO.N,Net-(U27-VDD3_1)*%
X70180000Y-157720000D03*
%TD*%
D22*
%TO.P,C54,1*%
%TO.N,Net-(C53-Pad2)*%
X88250000Y-99790000D03*
%TO.P,C54,2*%
%TO.N,Net-(U13-VDD3_1)*%
X88250000Y-100750000D03*
%TD*%
D24*
%TO.P,TP20,1,1*%
%TO.N,/Fan/FAN2_PWM*%
X113800000Y-69100000D03*
%TD*%
D23*
%TO.P,C140,1*%
%TO.N,/BM1366-1/VDD1*%
X74380000Y-116000000D03*
%TO.P,C140,2*%
%TO.N,/BM1366-2/1V2*%
X73420000Y-116000000D03*
%TD*%
D21*
%TO.P,C20,1*%
%TO.N,/VDD*%
X92125000Y-73600000D03*
%TO.P,C20,2*%
%TO.N,GND*%
X95075000Y-73600000D03*
%TD*%
D24*
%TO.P,FID6,*%
%TO.N,*%
X52970000Y-52800000D03*
%TD*%
D19*
%TO.P,R97,1*%
%TO.N,Net-(U24-CLKO)*%
X99810000Y-151700000D03*
%TO.P,R97,2*%
%TO.N,Net-(U27-CLKI)*%
X98790000Y-151700000D03*
%TD*%
D24*
%TO.P,TP25,1,1*%
%TO.N,/BM1366-1/TEMP_P2_1*%
X89400000Y-95000000D03*
%TD*%
D25*
%TO.P,R84,1*%
%TO.N,/BM1366-2/NRSTO*%
X122880000Y-145400000D03*
%TO.P,R84,2*%
%TO.N,Net-(U23B-+)*%
X122880000Y-144380000D03*
%TD*%
D42*
%TO.P,U17,1,EN*%
%TO.N,/BM1366-1/1V2*%
X122450000Y-105250000D03*
%TO.P,U17,2,GND*%
%TO.N,GND*%
X120150000Y-105250000D03*
%TO.P,U17,3,OUT*%
%TO.N,/BM1366-1/CLKI1*%
X120150000Y-103350000D03*
%TO.P,U17,4,VIN*%
%TO.N,/BM1366-1/1V2*%
X122450000Y-103350000D03*
%TD*%
D34*
%TO.P,R44,1*%
%TO.N,Net-(U18A--)*%
X66880000Y-113110000D03*
%TO.P,R44,2*%
%TO.N,GND*%
X66880000Y-114130000D03*
%TD*%
D22*
%TO.P,C45,1*%
%TO.N,/5V*%
X96800000Y-85320000D03*
%TO.P,C45,2*%
%TO.N,GND*%
X96800000Y-86280000D03*
%TD*%
D25*
%TO.P,R83,1*%
%TO.N,/VDD*%
X124130000Y-145400000D03*
%TO.P,R83,2*%
%TO.N,Net-(U23B-+)*%
X124130000Y-144380000D03*
%TD*%
%TO.P,R72,1*%
%TO.N,Net-(U18D--)*%
X66880000Y-109630000D03*
%TO.P,R72,2*%
%TO.N,GND*%
X66880000Y-108610000D03*
%TD*%
D19*
%TO.P,R101,1*%
%TO.N,Net-(U24-CO)*%
X99810000Y-150500000D03*
%TO.P,R101,2*%
%TO.N,Net-(U27-CI)*%
X98790000Y-150500000D03*
%TD*%
D43*
%TO.P,U12,1,SMDATA*%
%TO.N,/SDA*%
X107800000Y-84500000D03*
%TO.P,U12,2,SMCLK*%
%TO.N,/SCL*%
X107800000Y-84000000D03*
%TO.P,U12,3,VDD*%
%TO.N,/3V3*%
X107800000Y-83500000D03*
%TO.P,U12,4,GND*%
%TO.N,GND*%
X107800000Y-83000000D03*
%TO.P,U12,5,PWM1*%
%TO.N,/Fan/FAN1_PWM*%
X107800000Y-82500000D03*
%TO.P,U12,6,TACH1*%
%TO.N,/Fan/FAN1_TACH*%
X112200000Y-82500000D03*
%TO.P,U12,7,PWM2*%
%TO.N,/Fan/FAN2_PWM*%
X112200000Y-83000000D03*
%TO.P,U12,8,TACH2*%
%TO.N,/Fan/FAN2_TACH*%
X112200000Y-83500000D03*
%TO.P,U12,9,CLK*%
%TO.N,unconnected-(U12-CLK-Pad9)*%
X112200000Y-84000000D03*
%TO.P,U12,10,\u002AALERT*%
%TO.N,unconnected-(U12-\u002AALERT-Pad10)*%
X112200000Y-84500000D03*
%TD*%
D19*
%TO.P,R96,1*%
%TO.N,Net-(U24-BO)*%
X99810000Y-154000000D03*
%TO.P,R96,2*%
%TO.N,Net-(U27-BI)*%
X98790000Y-154000000D03*
%TD*%
D28*
%TO.P,C46,1*%
%TO.N,/BM1366-1/1V2*%
X103320000Y-90500000D03*
%TO.P,C46,2*%
%TO.N,GND*%
X104280000Y-90500000D03*
%TD*%
D19*
%TO.P,R18,1*%
%TO.N,GND*%
X99810000Y-50300000D03*
%TO.P,R18,2*%
%TO.N,Net-(J4-CC1)*%
X98790000Y-50300000D03*
%TD*%
D44*
%TO.P,R99,1*%
%TO.N,/VDD*%
X106637500Y-166400000D03*
%TO.P,R99,2*%
%TO.N,/BM1366-2/VDD2*%
X112562500Y-166400000D03*
%TD*%
D19*
%TO.P,R28,1*%
%TO.N,/BM1366-1/1V2*%
X90210000Y-85300000D03*
%TO.P,R28,2*%
%TO.N,Net-(U15-ADJ)*%
X89190000Y-85300000D03*
%TD*%
D29*
%TO.P,U21,1,VIN*%
%TO.N,/5V*%
X95437500Y-111150000D03*
%TO.P,U21,2,GND*%
%TO.N,/BM1366-1/VDD1*%
X95437500Y-112100000D03*
%TO.P,U21,3,EN*%
%TO.N,/5V*%
X95437500Y-113050000D03*
%TO.P,U21,4,ADJ*%
%TO.N,Net-(U21-ADJ)*%
X93162500Y-113050000D03*
%TO.P,U21,5,VOUT*%
%TO.N,/BM1366-2/1V2*%
X93162500Y-111150000D03*
%TD*%
D22*
%TO.P,C114,1*%
%TO.N,/5V*%
X96900000Y-140020000D03*
%TO.P,C114,2*%
%TO.N,/BM1366-2/VDD2*%
X96900000Y-140980000D03*
%TD*%
D23*
%TO.P,C107,1*%
%TO.N,Net-(U24-MODEO)*%
X114980000Y-146800000D03*
%TO.P,C107,2*%
%TO.N,/BM1366-3/0V8*%
X114020000Y-146800000D03*
%TD*%
D19*
%TO.P,R27,1*%
%TO.N,/BM1366-1/0V8*%
X91810000Y-90600000D03*
%TO.P,R27,2*%
%TO.N,Net-(U14-ADJ)*%
X90790000Y-90600000D03*
%TD*%
D45*
%TO.P,C23,1*%
%TO.N,/3V3*%
X108250000Y-49100000D03*
%TO.P,C23,2*%
%TO.N,GND*%
X110150000Y-49100000D03*
%TD*%
D24*
%TO.P,TP24,1,1*%
%TO.N,/BM1366-1/1V2*%
X101200000Y-86700000D03*
%TD*%
D34*
%TO.P,R77,1*%
%TO.N,/BM1366-1/RI*%
X64400000Y-103490000D03*
%TO.P,R77,2*%
%TO.N,Net-(C96-Pad2)*%
X64400000Y-104510000D03*
%TD*%
D24*
%TO.P,TP27,1,1*%
%TO.N,/BM1366-2/TEMP_P1_2*%
X119600000Y-118700000D03*
%TD*%
D23*
%TO.P,C41,1*%
%TO.N,/BM1366-1/1V2*%
X112680000Y-90400000D03*
%TO.P,C41,2*%
%TO.N,GND*%
X111720000Y-90400000D03*
%TD*%
D24*
%TO.P,TP16,1,1*%
%TO.N,/ESP32/IO0*%
X131000000Y-66100000D03*
%TD*%
D23*
%TO.P,C10,1*%
%TO.N,Net-(Q6-D)*%
X58280000Y-70800000D03*
%TO.P,C10,2*%
%TO.N,GND*%
X57320000Y-70800000D03*
%TD*%
D19*
%TO.P,R17,1*%
%TO.N,Net-(U22-RO)*%
X69010000Y-123300000D03*
%TO.P,R17,2*%
%TO.N,/BM1366-2/RO2*%
X67990000Y-123300000D03*
%TD*%
D20*
%TO.P,C66,1*%
%TO.N,Net-(U16-VDD3_1)*%
X69000000Y-102230000D03*
%TO.P,C66,2*%
%TO.N,Net-(C66-Pad2)*%
X69000000Y-101270000D03*
%TD*%
D22*
%TO.P,C12,1*%
%TO.N,/5V*%
X65100000Y-90320000D03*
%TO.P,C12,2*%
%TO.N,GND*%
X65100000Y-91280000D03*
%TD*%
D29*
%TO.P,U26,1,VIN*%
%TO.N,/5V*%
X94937500Y-140050000D03*
%TO.P,U26,2,GND*%
%TO.N,/BM1366-2/VDD2*%
X94937500Y-141000000D03*
%TO.P,U26,3,EN*%
%TO.N,/5V*%
X94937500Y-141950000D03*
%TO.P,U26,4,ADJ*%
%TO.N,Net-(U26-ADJ)*%
X92662500Y-141950000D03*
%TO.P,U26,5,VOUT*%
%TO.N,/BM1366-3/1V2*%
X92662500Y-140050000D03*
%TD*%
D20*
%TO.P,C131,1*%
%TO.N,Net-(U23D--)*%
X128680000Y-137100000D03*
%TO.P,C131,2*%
%TO.N,Net-(C131-Pad2)*%
X128680000Y-136140000D03*
%TD*%
D34*
%TO.P,R14,1*%
%TO.N,GND*%
X116500000Y-79790000D03*
%TO.P,R14,2*%
%TO.N,Net-(U7-OE)*%
X116500000Y-80810000D03*
%TD*%
D24*
%TO.P,TP12,1,1*%
%TO.N,Net-(U7-DIR4)*%
X116100000Y-85900000D03*
%TD*%
D23*
%TO.P,C87,1*%
%TO.N,Net-(U19-MODE_1)*%
X85180000Y-118100000D03*
%TO.P,C87,2*%
%TO.N,/BM1366-2/0V8*%
X84220000Y-118100000D03*
%TD*%
D28*
%TO.P,C77,1*%
%TO.N,/BM1366-2/VDD2*%
X84720000Y-132120000D03*
%TO.P,C77,2*%
%TO.N,Net-(U19-VDD1_1)*%
X85680000Y-132120000D03*
%TD*%
%TO.P,C100,1*%
%TO.N,/BM1366-2/1V2*%
X73020000Y-118100000D03*
%TO.P,C100,2*%
%TO.N,/BM1366-1/VDD1*%
X73980000Y-118100000D03*
%TD*%
D42*
%TO.P,U8,1,EN*%
%TO.N,/BM1366-2/1V2*%
X71750000Y-115950000D03*
%TO.P,U8,2,GND*%
%TO.N,/BM1366-1/VDD1*%
X69450000Y-115950000D03*
%TO.P,U8,3,OUT*%
%TO.N,/BM1366-2/CLKI1*%
X69450000Y-114050000D03*
%TO.P,U8,4,VIN*%
%TO.N,/BM1366-2/1V2*%
X71750000Y-114050000D03*
%TD*%
D22*
%TO.P,C117,1*%
%TO.N,Net-(U23B--)*%
X120730000Y-140710000D03*
%TO.P,C117,2*%
%TO.N,/BM1366-3/NRSTI3*%
X120730000Y-141670000D03*
%TD*%
D24*
%TO.P,FID4,*%
%TO.N,*%
X131570000Y-167670000D03*
%TD*%
D34*
%TO.P,R73,1*%
%TO.N,GND*%
X60900000Y-105377500D03*
%TO.P,R73,2*%
%TO.N,Net-(U18D-+)*%
X60900000Y-106397500D03*
%TD*%
%TO.P,R102,1*%
%TO.N,/BM1366-3/BI3*%
X119480000Y-136080000D03*
%TO.P,R102,2*%
%TO.N,Net-(U23C--)*%
X119480000Y-137100000D03*
%TD*%
D25*
%TO.P,R80,1*%
%TO.N,/BM1366-2/CO*%
X126630000Y-145400000D03*
%TO.P,R80,2*%
%TO.N,Net-(U23A-+)*%
X126630000Y-144380000D03*
%TD*%
%TO.P,R78,1*%
%TO.N,Net-(U23A--)*%
X129980000Y-139410000D03*
%TO.P,R78,2*%
%TO.N,/BM1366-1/VDD1*%
X129980000Y-138390000D03*
%TD*%
D20*
%TO.P,C53,1*%
%TO.N,Net-(U13-VDD3_1)*%
X98250000Y-101730000D03*
%TO.P,C53,2*%
%TO.N,Net-(C53-Pad2)*%
X98250000Y-100770000D03*
%TD*%
D22*
%TO.P,C14,1*%
%TO.N,Net-(U4-BOOT)*%
X66200000Y-67920000D03*
%TO.P,C14,2*%
%TO.N,/Power/SW*%
X66200000Y-68880000D03*
%TD*%
D28*
%TO.P,C134,1*%
%TO.N,/BM1366-3/1V2*%
X73220000Y-146900000D03*
%TO.P,C134,2*%
%TO.N,/BM1366-2/VDD2*%
X74180000Y-146900000D03*
%TD*%
D24*
%TO.P,TP19,1,1*%
%TO.N,/Fan/FAN1_PWM*%
X105600000Y-69500000D03*
%TD*%
D46*
%TO.P,Q2,1*%
%TO.N,GND*%
X72105000Y-75535072D03*
%TO.P,Q2,2*%
X70835000Y-75535072D03*
%TO.P,Q2,3,S*%
X69565000Y-75535072D03*
%TO.P,Q2,4,G*%
%TO.N,Net-(Q2-G)*%
X68295000Y-75535072D03*
D47*
%TO.P,Q2,5,D*%
%TO.N,/Power/SW*%
X70200000Y-72200000D03*
D46*
X68295000Y-70064928D03*
X69565000Y-70064928D03*
X70835000Y-70064928D03*
X72105000Y-70064928D03*
%TD*%
D22*
%TO.P,C80,1*%
%TO.N,Net-(U18B--)*%
X56030000Y-113130000D03*
%TO.P,C80,2*%
%TO.N,/BM1366-2/NRSTI2*%
X56030000Y-114090000D03*
%TD*%
D24*
%TO.P,TP8,1,1*%
%TO.N,/3V3*%
X112800000Y-52900000D03*
%TD*%
D20*
%TO.P,C64,1*%
%TO.N,Net-(U16-VDD2_1)*%
X70250000Y-103230000D03*
%TO.P,C64,2*%
%TO.N,Net-(U16-VDD3_1)*%
X70250000Y-102270000D03*
%TD*%
D24*
%TO.P,TP58,1,1*%
%TO.N,Net-(U9-GPIO13{slash}TOUCH13{slash}ADC2_CH2{slash}FSPIQ{slash}FSPIIO7{slash}SUBSPIQ)*%
X115400000Y-67600000D03*
%TD*%
D30*
%TO.P,R87,1*%
%TO.N,/BM1366-2/VDD2*%
X89690000Y-142200000D03*
%TO.P,R87,2*%
%TO.N,Net-(U26-ADJ)*%
X90710000Y-142200000D03*
%TD*%
D23*
%TO.P,C118,1*%
%TO.N,Net-(U24-VDD1_1)*%
X101480000Y-160700000D03*
%TO.P,C118,2*%
%TO.N,Net-(U24-VDD2_1)*%
X100520000Y-160700000D03*
%TD*%
D24*
%TO.P,TP57,1,1*%
%TO.N,Net-(U9-GPIO12{slash}TOUCH12{slash}ADC2_CH1{slash}FSPICLK{slash}FSPIIO6{slash}SUBSPICLK)*%
X110000000Y-65100000D03*
%TD*%
D19*
%TO.P,R66,1*%
%TO.N,Net-(U19-CLKI)*%
X87610000Y-125300000D03*
%TO.P,R66,2*%
%TO.N,Net-(U22-CLKO)*%
X86590000Y-125300000D03*
%TD*%
D24*
%TO.P,TP36,1,1*%
%TO.N,/BM1366-3/1V2*%
X101200000Y-141300000D03*
%TD*%
D19*
%TO.P,R33,1*%
%TO.N,Net-(U13-CO)*%
X101010000Y-94800000D03*
%TO.P,R33,2*%
%TO.N,Net-(U16-CI)*%
X99990000Y-94800000D03*
%TD*%
D48*
%TO.P,R62,1*%
%TO.N,/BM1366-2/VDD2*%
X76700000Y-141862500D03*
%TO.P,R62,2*%
%TO.N,/BM1366-1/VDD1*%
X76700000Y-135937500D03*
%TD*%
D23*
%TO.P,C39,1*%
%TO.N,Net-(U13-MODEO)*%
X116230000Y-91500000D03*
%TO.P,C39,2*%
%TO.N,/BM1366-1/0V8*%
X115270000Y-91500000D03*
%TD*%
D22*
%TO.P,C52,1*%
%TO.N,/BM1366-1/1V2*%
X87300000Y-85520000D03*
%TO.P,C52,2*%
%TO.N,GND*%
X87300000Y-86480000D03*
%TD*%
D24*
%TO.P,TP30,1,1*%
%TO.N,/BM1366-2/1V2*%
X101800000Y-114400000D03*
%TD*%
%TO.P,TP29,1,1*%
%TO.N,/BM1366-2/0V8*%
X85600000Y-115300000D03*
%TD*%
D49*
%TO.P,R98,1*%
%TO.N,/VDD*%
X78562500Y-166800000D03*
%TO.P,R98,2*%
%TO.N,/BM1366-2/VDD2*%
X72637500Y-166800000D03*
%TD*%
D24*
%TO.P,TP13,1,1*%
%TO.N,/ESP32/EN*%
X118200000Y-47700000D03*
%TD*%
D22*
%TO.P,C67,1*%
%TO.N,Net-(U19-VDD4_0)*%
X117000000Y-128300000D03*
%TO.P,C67,2*%
%TO.N,Net-(U19-VDD3_0)*%
X117000000Y-129260000D03*
%TD*%
%TO.P,C125,1*%
%TO.N,Net-(U24-VDD3_1)*%
X85200000Y-158340000D03*
%TO.P,C125,2*%
%TO.N,Net-(U24-VDD2_1)*%
X85200000Y-159300000D03*
%TD*%
D19*
%TO.P,R57,1*%
%TO.N,/BM1366-2/1V2*%
X91010000Y-111200000D03*
%TO.P,R57,2*%
%TO.N,Net-(U21-ADJ)*%
X89990000Y-111200000D03*
%TD*%
D24*
%TO.P,TP23,1,1*%
%TO.N,/BM1366-1/0V8*%
X84700000Y-89400000D03*
%TD*%
D25*
%TO.P,R52,1*%
%TO.N,/BM1366-2/VDD2*%
X59550000Y-118100000D03*
%TO.P,R52,2*%
%TO.N,Net-(U18B-+)*%
X59550000Y-117080000D03*
%TD*%
D19*
%TO.P,R69,1*%
%TO.N,Net-(U19-CI)*%
X87610000Y-126600000D03*
%TO.P,R69,2*%
%TO.N,Net-(U22-CO)*%
X86590000Y-126600000D03*
%TD*%
D22*
%TO.P,C71,1*%
%TO.N,Net-(U19-VDD2_0)*%
X115900000Y-131220000D03*
%TO.P,C71,2*%
%TO.N,Net-(U19-VDD1_0)*%
X115900000Y-132180000D03*
%TD*%
%TO.P,C113,1*%
%TO.N,/5V*%
X96900000Y-145320000D03*
%TO.P,C113,2*%
%TO.N,/BM1366-2/VDD2*%
X96900000Y-146280000D03*
%TD*%
D20*
%TO.P,C127,1*%
%TO.N,Net-(U23C--)*%
X120730000Y-137070000D03*
%TO.P,C127,2*%
%TO.N,/BM1366-3/BI3*%
X120730000Y-136110000D03*
%TD*%
D28*
%TO.P,C49,1*%
%TO.N,Net-(U13-MODE_1)*%
X100020000Y-91500000D03*
%TO.P,C49,2*%
%TO.N,/BM1366-1/0V8*%
X100980000Y-91500000D03*
%TD*%
D23*
%TO.P,C130,1*%
%TO.N,Net-(U24-VDD1_1)*%
X82780000Y-160600000D03*
%TO.P,C130,2*%
%TO.N,/VDD*%
X81820000Y-160600000D03*
%TD*%
D25*
%TO.P,R58,1*%
%TO.N,Net-(U19-MODE_0)*%
X99100000Y-119510000D03*
%TO.P,R58,2*%
%TO.N,Net-(U19-MODE_1)*%
X99100000Y-118490000D03*
%TD*%
D19*
%TO.P,R100,1*%
%TO.N,Net-(U24-NRSTO)*%
X99810000Y-155200000D03*
%TO.P,R100,2*%
%TO.N,Net-(U27-NRSTI)*%
X98790000Y-155200000D03*
%TD*%
D22*
%TO.P,C92,1*%
%TO.N,Net-(U19-VDD1_1)*%
X100400000Y-131040000D03*
%TO.P,C92,2*%
%TO.N,/BM1366-2/VDD2*%
X100400000Y-132000000D03*
%TD*%
D25*
%TO.P,R46,1*%
%TO.N,/BM1366-1/CO*%
X62050000Y-118100000D03*
%TO.P,R46,2*%
%TO.N,Net-(U18A-+)*%
X62050000Y-117080000D03*
%TD*%
D20*
%TO.P,C142,1*%
%TO.N,/BM1366-1/VDD1*%
X104000000Y-110580000D03*
%TO.P,C142,2*%
%TO.N,GND*%
X104000000Y-109620000D03*
%TD*%
D19*
%TO.P,R90,1*%
%TO.N,/BM1366-3/1V2*%
X90810000Y-139700000D03*
%TO.P,R90,2*%
%TO.N,Net-(U26-ADJ)*%
X89790000Y-139700000D03*
%TD*%
D34*
%TO.P,R106,1*%
%TO.N,Net-(C131-Pad2)*%
X129930000Y-136110000D03*
%TO.P,R106,2*%
%TO.N,Net-(U23D--)*%
X129930000Y-137130000D03*
%TD*%
D22*
%TO.P,C111,1*%
%TO.N,Net-(U23A--)*%
X128680000Y-140740000D03*
%TO.P,C111,2*%
%TO.N,/BM1366-3/CI3*%
X128680000Y-141700000D03*
%TD*%
%TO.P,C137,1*%
%TO.N,/BM1366-1/VDD1*%
X121030000Y-138420000D03*
%TO.P,C137,2*%
%TO.N,/VDD*%
X121030000Y-139380000D03*
%TD*%
D31*
%TO.P,C6,1*%
%TO.N,/Power/VIN_M*%
X83650000Y-63400000D03*
%TO.P,C6,2*%
%TO.N,GND*%
X88750000Y-63400000D03*
%TD*%
D29*
%TO.P,U14,1,VIN*%
%TO.N,/5V*%
X96037500Y-90350000D03*
%TO.P,U14,2,GND*%
%TO.N,GND*%
X96037500Y-91300000D03*
%TO.P,U14,3,EN*%
%TO.N,/5V*%
X96037500Y-92250000D03*
%TO.P,U14,4,ADJ*%
%TO.N,Net-(U14-ADJ)*%
X93762500Y-92250000D03*
%TO.P,U14,5,VOUT*%
%TO.N,/BM1366-1/0V8*%
X93762500Y-90350000D03*
%TD*%
D24*
%TO.P,TP48,1,1*%
%TO.N,Net-(U9-SPIIO7{slash}GPIO36{slash}FSPICLK{slash}SUBSPICLK)*%
X117800000Y-60200000D03*
%TD*%
D50*
%TO.P,U28,1,EN*%
%TO.N,/BM1366-3/1V2*%
X114250000Y-144650000D03*
%TO.P,U28,2,GND*%
%TO.N,/BM1366-2/VDD2*%
X114250000Y-142350000D03*
%TO.P,U28,3,OUT*%
%TO.N,/BM1366-3/CLKI1*%
X116150000Y-142350000D03*
%TO.P,U28,4,VIN*%
%TO.N,/BM1366-3/1V2*%
X116150000Y-144650000D03*
%TD*%
D25*
%TO.P,R26,1*%
%TO.N,Net-(C53-Pad2)*%
X100000000Y-100510000D03*
%TO.P,R26,2*%
%TO.N,Net-(U16-NRSTI)*%
X100000000Y-99490000D03*
%TD*%
D20*
%TO.P,C17,1*%
%TO.N,/1V8*%
X124100000Y-75380000D03*
%TO.P,C17,2*%
%TO.N,GND*%
X124100000Y-74420000D03*
%TD*%
D23*
%TO.P,C148,1*%
%TO.N,/VDD*%
X74180000Y-163800000D03*
%TO.P,C148,2*%
%TO.N,/BM1366-2/VDD2*%
X73220000Y-163800000D03*
%TD*%
D48*
%TO.P,R35,1*%
%TO.N,/BM1366-1/VDD1*%
X76700000Y-113962500D03*
%TO.P,R35,2*%
%TO.N,GND*%
X76700000Y-108037500D03*
%TD*%
D24*
%TO.P,TP18,1,1*%
%TO.N,/Fan/FAN2_TACH*%
X113700000Y-72600000D03*
%TD*%
D19*
%TO.P,R23,1*%
%TO.N,Net-(U13-NC)*%
X101010000Y-93500000D03*
%TO.P,R23,2*%
%TO.N,Net-(U13-MODE_1)*%
X99990000Y-93500000D03*
%TD*%
%TO.P,R56,1*%
%TO.N,/BM1366-2/0V8*%
X90810000Y-116000000D03*
%TO.P,R56,2*%
%TO.N,Net-(U20-ADJ)*%
X89790000Y-116000000D03*
%TD*%
D20*
%TO.P,C47,1*%
%TO.N,/BM1366-1/VDD1*%
X97000000Y-104730000D03*
%TO.P,C47,2*%
%TO.N,Net-(U13-VDD1_1)*%
X97000000Y-103770000D03*
%TD*%
D22*
%TO.P,C89,1*%
%TO.N,Net-(U19-VDD2_1)*%
X99300000Y-130040000D03*
%TO.P,C89,2*%
%TO.N,Net-(U19-VDD1_1)*%
X99300000Y-131000000D03*
%TD*%
%TO.P,C40,1*%
%TO.N,Net-(U13-VDD3_0)*%
X116250000Y-100790000D03*
%TO.P,C40,2*%
%TO.N,Net-(U13-VDD2_0)*%
X116250000Y-101750000D03*
%TD*%
%TO.P,C106,1*%
%TO.N,Net-(C106-Pad1)*%
X117100000Y-156140000D03*
%TO.P,C106,2*%
%TO.N,Net-(U24-VDD3_0)*%
X117100000Y-157100000D03*
%TD*%
D24*
%TO.P,TP37,1,1*%
%TO.N,/BM1366-3/TEMP_P2_3*%
X86800000Y-150000000D03*
%TD*%
%TO.P,TP52,1,1*%
%TO.N,Net-(U9-MTDO{slash}GPIO40{slash}CLK_OUT2)*%
X117800000Y-52100000D03*
%TD*%
D23*
%TO.P,C90,1*%
%TO.N,/BM1366-2/1V2*%
X82580000Y-118100000D03*
%TO.P,C90,2*%
%TO.N,/BM1366-1/VDD1*%
X81620000Y-118100000D03*
%TD*%
D20*
%TO.P,C62,1*%
%TO.N,Net-(U16-VDD1_1)*%
X71500000Y-104230000D03*
%TO.P,C62,2*%
%TO.N,Net-(U16-VDD2_1)*%
X71500000Y-103270000D03*
%TD*%
D22*
%TO.P,C51,1*%
%TO.N,/BM1366-1/0V8*%
X89400000Y-91320000D03*
%TO.P,C51,2*%
%TO.N,GND*%
X89400000Y-92280000D03*
%TD*%
D34*
%TO.P,R104,1*%
%TO.N,/BM1366-1/VDD1*%
X125380000Y-132400000D03*
%TO.P,R104,2*%
%TO.N,Net-(U23D-+)*%
X125380000Y-133420000D03*
%TD*%
D24*
%TO.P,TP14,1,1*%
%TO.N,/ESP32/P_TX*%
X129000000Y-52300000D03*
%TD*%
D29*
%TO.P,U20,1,VIN*%
%TO.N,/5V*%
X95537500Y-116350000D03*
%TO.P,U20,2,GND*%
%TO.N,/BM1366-1/VDD1*%
X95537500Y-117300000D03*
%TO.P,U20,3,EN*%
%TO.N,/5V*%
X95537500Y-118250000D03*
%TO.P,U20,4,ADJ*%
%TO.N,Net-(U20-ADJ)*%
X93262500Y-118250000D03*
%TO.P,U20,5,VOUT*%
%TO.N,/BM1366-2/0V8*%
X93262500Y-116350000D03*
%TD*%
D24*
%TO.P,TP51,1,1*%
%TO.N,Net-(U9-MTCK{slash}GPIO39{slash}CLK_OUT3{slash}SUBSPICS1)*%
X117800000Y-54100000D03*
%TD*%
D51*
%TO.P,U1,1,IN*%
%TO.N,/Power/VIN_M*%
X67525000Y-80772000D03*
D52*
%TO.P,U1,2,GND*%
%TO.N,GND*%
X60800000Y-86087000D03*
X60800000Y-80537000D03*
D53*
X58375000Y-83312000D03*
D52*
X55950000Y-86087000D03*
X55950000Y-80537000D03*
D51*
%TO.P,U1,3,OUT*%
%TO.N,/5V*%
X67525000Y-85852000D03*
%TD*%
D30*
%TO.P,R48,1*%
%TO.N,Net-(U19-BO)*%
X116900000Y-123600000D03*
%TO.P,R48,2*%
%TO.N,/BM1366-2/BO*%
X117920000Y-123600000D03*
%TD*%
D34*
%TO.P,R108,1*%
%TO.N,/BM1366-2/RI*%
X128600000Y-130290000D03*
%TO.P,R108,2*%
%TO.N,Net-(C131-Pad2)*%
X128600000Y-131310000D03*
%TD*%
D30*
%TO.P,R49,1*%
%TO.N,Net-(U19-CO)*%
X116900000Y-127200000D03*
%TO.P,R49,2*%
%TO.N,/BM1366-2/CO*%
X117920000Y-127200000D03*
%TD*%
%TO.P,R4,1*%
%TO.N,Net-(C9-Pad2)*%
X57090000Y-64600000D03*
%TO.P,R4,2*%
%TO.N,/Power/OUT0*%
X58110000Y-64600000D03*
%TD*%
D35*
%TO.P,TP39,1,1*%
%TO.N,/BM1366-3/NRSTO3*%
X64700000Y-159100000D03*
%TD*%
D34*
%TO.P,R71,1*%
%TO.N,/BM1366-2/BI2*%
X54800000Y-108590000D03*
%TO.P,R71,2*%
%TO.N,Net-(U18C--)*%
X54800000Y-109610000D03*
%TD*%
D30*
%TO.P,R86,1*%
%TO.N,/BM1366-2/VDD2*%
X89690000Y-147400000D03*
%TO.P,R86,2*%
%TO.N,Net-(U25-ADJ)*%
X90710000Y-147400000D03*
%TD*%
D28*
%TO.P,C63,1*%
%TO.N,/BM1366-1/1V2*%
X73220000Y-90300000D03*
%TO.P,C63,2*%
%TO.N,GND*%
X74180000Y-90300000D03*
%TD*%
D31*
%TO.P,C2,1*%
%TO.N,/Power/VIN_M*%
X83650000Y-57000000D03*
%TO.P,C2,2*%
%TO.N,GND*%
X88750000Y-57000000D03*
%TD*%
D19*
%TO.P,R29,1*%
%TO.N,Net-(U13-RI)*%
X86260000Y-97250000D03*
%TO.P,R29,2*%
%TO.N,Net-(U16-RO)*%
X85240000Y-97250000D03*
%TD*%
D48*
%TO.P,R34,1*%
%TO.N,/BM1366-1/VDD1*%
X108800000Y-114062500D03*
%TO.P,R34,2*%
%TO.N,GND*%
X108800000Y-108137500D03*
%TD*%
D28*
%TO.P,C76,1*%
%TO.N,/BM1366-2/1V2*%
X103120000Y-118500000D03*
%TO.P,C76,2*%
%TO.N,/BM1366-1/VDD1*%
X104080000Y-118500000D03*
%TD*%
%TO.P,C25,1*%
%TO.N,/3V3*%
X108220000Y-50900000D03*
%TO.P,C25,2*%
%TO.N,GND*%
X109180000Y-50900000D03*
%TD*%
D20*
%TO.P,C91,1*%
%TO.N,/BM1366-2/VDD2*%
X81300000Y-136880000D03*
%TO.P,C91,2*%
%TO.N,/BM1366-1/VDD1*%
X81300000Y-135920000D03*
%TD*%
D25*
%TO.P,R51,1*%
%TO.N,Net-(U18B--)*%
X54800000Y-111910000D03*
%TO.P,R51,2*%
%TO.N,GND*%
X54800000Y-110890000D03*
%TD*%
D22*
%TO.P,C85,1*%
%TO.N,Net-(U19-VDD4_1)*%
X99300000Y-128040000D03*
%TO.P,C85,2*%
%TO.N,Net-(U19-VDD3_1)*%
X99300000Y-129000000D03*
%TD*%
D20*
%TO.P,C31,1*%
%TO.N,/3V3*%
X105200000Y-83480000D03*
%TO.P,C31,2*%
%TO.N,GND*%
X105200000Y-82520000D03*
%TD*%
D28*
%TO.P,C115,1*%
%TO.N,/BM1366-3/1V2*%
X103220000Y-146800000D03*
%TO.P,C115,2*%
%TO.N,/BM1366-2/VDD2*%
X104180000Y-146800000D03*
%TD*%
D54*
%TO.P,U4,1,VDD*%
%TO.N,/Power/VIN_M*%
X60255000Y-70342000D03*
%TO.P,U4,2,EN/SS*%
%TO.N,Net-(Q6-D)*%
X60255000Y-69842000D03*
%TO.P,U4,3,PGOOD*%
%TO.N,/Power/PGOOD*%
X60255000Y-69312000D03*
%TO.P,U4,4,COMP*%
%TO.N,Net-(U4-COMP)*%
X60255000Y-68842000D03*
%TO.P,U4,5,FB*%
%TO.N,/Power/OUT0*%
X60255000Y-68342000D03*
%TO.P,U4,6,BOOT*%
%TO.N,Net-(U4-BOOT)*%
X63055000Y-68342000D03*
%TO.P,U4,7,HDRV*%
%TO.N,Net-(Q1-G)*%
X63055000Y-68842000D03*
%TO.P,U4,8,SW*%
%TO.N,/Power/SW*%
X63055000Y-69342000D03*
%TO.P,U4,9,LDRV*%
%TO.N,Net-(Q2-G)*%
X63055000Y-69842000D03*
%TO.P,U4,10,BP*%
%TO.N,Net-(U4-BP)*%
X63055000Y-70342000D03*
D55*
%TO.P,U4,11,GND*%
%TO.N,GND*%
X61080000Y-69342000D03*
X61655000Y-68392000D03*
D56*
X61655000Y-69342000D03*
D55*
X61655000Y-70292000D03*
X62230000Y-69342000D03*
%TD*%
D30*
%TO.P,R24,1*%
%TO.N,GND*%
X90790000Y-92300000D03*
%TO.P,R24,2*%
%TO.N,Net-(U14-ADJ)*%
X91810000Y-92300000D03*
%TD*%
D19*
%TO.P,R89,1*%
%TO.N,/BM1366-3/0V8*%
X91010000Y-145000000D03*
%TO.P,R89,2*%
%TO.N,Net-(U25-ADJ)*%
X89990000Y-145000000D03*
%TD*%
D23*
%TO.P,C5,1*%
%TO.N,/5V*%
X77380000Y-87600000D03*
%TO.P,C5,2*%
%TO.N,GND*%
X76420000Y-87600000D03*
%TD*%
D30*
%TO.P,R43,1*%
%TO.N,Net-(U19-NRSTO)*%
X116990000Y-122300000D03*
%TO.P,R43,2*%
%TO.N,/BM1366-2/NRSTO*%
X118010000Y-122300000D03*
%TD*%
D24*
%TO.P,TP17,1,1*%
%TO.N,/Fan/FAN1_TACH*%
X105600000Y-72600000D03*
%TD*%
%TO.P,TP28,1,1*%
%TO.N,/BM1366-2/TEMP_N1_2*%
X119600000Y-116600000D03*
%TD*%
D34*
%TO.P,R82,1*%
%TO.N,Net-(U23B--)*%
X118230000Y-140680000D03*
%TO.P,R82,2*%
%TO.N,/BM1366-1/VDD1*%
X118230000Y-141700000D03*
%TD*%
D24*
%TO.P,TP3,1,1*%
%TO.N,/1V8*%
X130100000Y-75400000D03*
%TD*%
D34*
%TO.P,R9,1*%
%TO.N,/VDD*%
X61800000Y-64690000D03*
%TO.P,R9,2*%
%TO.N,/Power/OUT0*%
X61800000Y-65710000D03*
%TD*%
D39*
%TO.P,C19,1*%
%TO.N,Net-(C19-Pad1)*%
X65350000Y-65090000D03*
%TO.P,C19,2*%
%TO.N,/Power/OUT0*%
X63450000Y-65090000D03*
%TD*%
D23*
%TO.P,C129,1*%
%TO.N,/BM1366-3/1V2*%
X82880000Y-146600000D03*
%TO.P,C129,2*%
%TO.N,/BM1366-2/VDD2*%
X81920000Y-146600000D03*
%TD*%
D22*
%TO.P,C59,1*%
%TO.N,Net-(U13-VDD1_1)*%
X87000000Y-102790000D03*
%TO.P,C59,2*%
%TO.N,/BM1366-1/VDD1*%
X87000000Y-103750000D03*
%TD*%
D34*
%TO.P,R32,1*%
%TO.N,Net-(U13-NRSTO)*%
X97700000Y-98690000D03*
%TO.P,R32,2*%
%TO.N,Net-(U16-NRSTI)*%
X97700000Y-99710000D03*
%TD*%
D25*
%TO.P,R88,1*%
%TO.N,/BM1366-3/NRSTI3*%
X119480000Y-141700000D03*
%TO.P,R88,2*%
%TO.N,Net-(U23B--)*%
X119480000Y-140680000D03*
%TD*%
D39*
%TO.P,C8,1*%
%TO.N,/Power/VIN_M*%
X57950000Y-72400000D03*
%TO.P,C8,2*%
%TO.N,GND*%
X56050000Y-72400000D03*
%TD*%
D40*
%TO.P,Q1,1*%
%TO.N,/Power/SW*%
X72105000Y-66995001D03*
%TO.P,Q1,2*%
X70835000Y-66995001D03*
%TO.P,Q1,3,S*%
X69565000Y-66995001D03*
%TO.P,Q1,4,G*%
%TO.N,Net-(Q1-G)*%
X68295000Y-66995001D03*
D41*
%TO.P,Q1,5,D*%
%TO.N,/Power/VIN_M*%
X72105000Y-61500005D03*
%TD*%
D24*
%TO.P,TP54,1,1*%
%TO.N,Net-(U9-MTMS{slash}GPIO42)*%
X124800000Y-52500000D03*
%TD*%
%TO.P,TP55,1,1*%
%TO.N,Net-(U9-\u002AGPIO46)*%
X108500000Y-58800000D03*
%TD*%
D46*
%TO.P,Q4,1*%
%TO.N,GND*%
X78905000Y-75535072D03*
%TO.P,Q4,2*%
X77635000Y-75535072D03*
%TO.P,Q4,3,S*%
X76365000Y-75535072D03*
%TO.P,Q4,4,G*%
%TO.N,Net-(Q2-G)*%
X75095000Y-75535072D03*
D47*
%TO.P,Q4,5,D*%
%TO.N,/Power/SW*%
X77000000Y-72200000D03*
D46*
X75095000Y-70064928D03*
X76365000Y-70064928D03*
X77635000Y-70064928D03*
X78905000Y-70064928D03*
%TD*%
D30*
%TO.P,R60,1*%
%TO.N,Net-(U19-VDD4_1)*%
X86790000Y-128020000D03*
%TO.P,R60,2*%
%TO.N,Net-(U19-NRSTI)*%
X87810000Y-128020000D03*
%TD*%
D28*
%TO.P,C119,1*%
%TO.N,Net-(U24-MODE_1)*%
X100620000Y-146800000D03*
%TO.P,C119,2*%
%TO.N,/BM1366-3/0V8*%
X101580000Y-146800000D03*
%TD*%
D35*
%TO.P,TP41,1,1*%
%TO.N,/BM1366-3/RI3*%
X68300000Y-153200000D03*
%TD*%
D34*
%TO.P,R76,1*%
%TO.N,Net-(U22-MODE_1)*%
X69200000Y-117990000D03*
%TO.P,R76,2*%
%TO.N,Net-(U22-MODE_0)*%
X69200000Y-119010000D03*
%TD*%
D25*
%TO.P,R85,1*%
%TO.N,Net-(U24-NC)*%
X99400000Y-147810000D03*
%TO.P,R85,2*%
%TO.N,Net-(U24-MODE_1)*%
X99400000Y-146790000D03*
%TD*%
D24*
%TO.P,TP9,1,1*%
%TO.N,GND*%
X112800000Y-50900000D03*
%TD*%
D25*
%TO.P,R79,1*%
%TO.N,/VDD*%
X125380000Y-145400000D03*
%TO.P,R79,2*%
%TO.N,Net-(U23A-+)*%
X125380000Y-144380000D03*
%TD*%
D21*
%TO.P,C22,1*%
%TO.N,/VDD*%
X92125000Y-78400000D03*
%TO.P,C22,2*%
%TO.N,GND*%
X95075000Y-78400000D03*
%TD*%
D19*
%TO.P,R31,1*%
%TO.N,Net-(U13-CLKO)*%
X101010000Y-96100000D03*
%TO.P,R31,2*%
%TO.N,Net-(U16-CLKI)*%
X99990000Y-96100000D03*
%TD*%
D22*
%TO.P,C110,1*%
%TO.N,Net-(U24-VDD2_0)*%
X115900000Y-159340000D03*
%TO.P,C110,2*%
%TO.N,Net-(U24-VDD1_0)*%
X115900000Y-160300000D03*
%TD*%
%TO.P,C69,1*%
%TO.N,Net-(U19-VDD3_0)*%
X115900000Y-129300000D03*
%TO.P,C69,2*%
%TO.N,Net-(U19-VDD2_0)*%
X115900000Y-130260000D03*
%TD*%
D23*
%TO.P,C112,1*%
%TO.N,Net-(U24-VDD1_0)*%
X114600000Y-159820000D03*
%TO.P,C112,2*%
%TO.N,/VDD*%
X113640000Y-159820000D03*
%TD*%
D20*
%TO.P,C88,1*%
%TO.N,Net-(U18C--)*%
X56030000Y-109590000D03*
%TO.P,C88,2*%
%TO.N,/BM1366-2/BI2*%
X56030000Y-108630000D03*
%TD*%
D24*
%TO.P,TP46,1,1*%
%TO.N,/NRSTI*%
X129400000Y-93200000D03*
%TD*%
%TO.P,TP47,1,1*%
%TO.N,Net-(U9-SPIIO6{slash}GPIO35{slash}FSPID{slash}SUBSPID)*%
X120200000Y-61800000D03*
%TD*%
%TO.P,TP45,1,1*%
%TO.N,/CI*%
X129500000Y-90900000D03*
%TD*%
D23*
%TO.P,C26,1*%
%TO.N,GND*%
X126180000Y-81100000D03*
%TO.P,C26,2*%
%TO.N,/1V8*%
X125220000Y-81100000D03*
%TD*%
D30*
%TO.P,R47,1*%
%TO.N,Net-(U19-CLKO)*%
X116900000Y-126000000D03*
%TO.P,R47,2*%
%TO.N,/BM1366-3/CLKI1*%
X117920000Y-126000000D03*
%TD*%
D48*
%TO.P,R68,1*%
%TO.N,/BM1366-2/VDD2*%
X109500000Y-141862500D03*
%TO.P,R68,2*%
%TO.N,/BM1366-1/VDD1*%
X109500000Y-135937500D03*
%TD*%
D25*
%TO.P,R59,1*%
%TO.N,/BM1366-2/NRSTI2*%
X54780000Y-114120000D03*
%TO.P,R59,2*%
%TO.N,Net-(U18B--)*%
X54780000Y-113100000D03*
%TD*%
D34*
%TO.P,R94,1*%
%TO.N,/VDD*%
X124130000Y-132400000D03*
%TO.P,R94,2*%
%TO.N,Net-(U23C-+)*%
X124130000Y-133420000D03*
%TD*%
D19*
%TO.P,R40,1*%
%TO.N,Net-(U16-CLKO)*%
X70010000Y-96250000D03*
%TO.P,R40,2*%
%TO.N,/BM1366-2/CLKI1*%
X68990000Y-96250000D03*
%TD*%
D34*
%TO.P,R5,1*%
%TO.N,/Power/PGOOD*%
X61200000Y-73290000D03*
%TO.P,R5,2*%
%TO.N,Net-(U4-BP)*%
X61200000Y-74310000D03*
%TD*%
D24*
%TO.P,TP38,1,1*%
%TO.N,/BM1366-3/TEMP_N2_3*%
X89000000Y-150000000D03*
%TD*%
D34*
%TO.P,R45,1*%
%TO.N,Net-(U18A-+)*%
X60800000Y-117090000D03*
%TO.P,R45,2*%
%TO.N,/BM1366-2/VDD2*%
X60800000Y-118110000D03*
%TD*%
D27*
%TO.P,C98,1*%
%TO.N,/BM1366-2/VDD2*%
X89800000Y-135700000D03*
%TO.P,C98,2*%
%TO.N,/BM1366-1/VDD1*%
X96200000Y-135700000D03*
%TD*%
D22*
%TO.P,C42,1*%
%TO.N,Net-(U13-VDD2_0)*%
X115000000Y-101790000D03*
%TO.P,C42,2*%
%TO.N,Net-(U13-VDD1_0)*%
X115000000Y-102750000D03*
%TD*%
D20*
%TO.P,C144,1*%
%TO.N,/BM1366-1/VDD1*%
X105700000Y-110580000D03*
%TO.P,C144,2*%
%TO.N,GND*%
X105700000Y-109620000D03*
%TD*%
D34*
%TO.P,R74,1*%
%TO.N,/BM1366-2/RO2*%
X62150000Y-105377500D03*
%TO.P,R74,2*%
%TO.N,Net-(U18D-+)*%
X62150000Y-106397500D03*
%TD*%
D26*
%TO.P,C9,1*%
%TO.N,Net-(U4-COMP)*%
X56000000Y-69088000D03*
%TO.P,C9,2*%
%TO.N,Net-(C9-Pad2)*%
X56000000Y-67188000D03*
%TD*%
D20*
%TO.P,C93,1*%
%TO.N,/BM1366-2/VDD2*%
X105000000Y-138580000D03*
%TO.P,C93,2*%
%TO.N,/BM1366-1/VDD1*%
X105000000Y-137620000D03*
%TD*%
D23*
%TO.P,C73,1*%
%TO.N,Net-(U19-VDD1_0)*%
X114580000Y-131700000D03*
%TO.P,C73,2*%
%TO.N,/BM1366-2/VDD2*%
X113620000Y-131700000D03*
%TD*%
D25*
%TO.P,R53,1*%
%TO.N,/BM1366-1/NRSTO*%
X58300000Y-118100000D03*
%TO.P,R53,2*%
%TO.N,Net-(U18B-+)*%
X58300000Y-117080000D03*
%TD*%
D28*
%TO.P,C16,1*%
%TO.N,/3V3*%
X126320000Y-67800000D03*
%TO.P,C16,2*%
%TO.N,GND*%
X127280000Y-67800000D03*
%TD*%
D23*
%TO.P,C126,1*%
%TO.N,Net-(U24-MODE_1)*%
X85480000Y-146700000D03*
%TO.P,C126,2*%
%TO.N,/BM1366-3/0V8*%
X84520000Y-146700000D03*
%TD*%
D22*
%TO.P,C75,1*%
%TO.N,/5V*%
X97500000Y-111120000D03*
%TO.P,C75,2*%
%TO.N,/BM1366-1/VDD1*%
X97500000Y-112080000D03*
%TD*%
D23*
%TO.P,C61,1*%
%TO.N,GND*%
X123480000Y-102000000D03*
%TO.P,C61,2*%
%TO.N,/BM1366-1/1V2*%
X122520000Y-102000000D03*
%TD*%
D19*
%TO.P,R38,1*%
%TO.N,Net-(U16-NC)*%
X70010000Y-93750000D03*
%TO.P,R38,2*%
%TO.N,Net-(U16-MODE_1)*%
X68990000Y-93750000D03*
%TD*%
D30*
%TO.P,R8,1*%
%TO.N,/VDD*%
X63690000Y-62700000D03*
%TO.P,R8,2*%
%TO.N,Net-(C19-Pad1)*%
X64710000Y-62700000D03*
%TD*%
D57*
%TO.N,GND*%
X72000000Y-77000000D03*
X78000000Y-77000000D03*
X90600000Y-58800000D03*
D58*
X130000000Y-71300000D03*
D57*
X74404024Y-76995732D03*
X108700000Y-56900000D03*
X90600000Y-50200000D03*
X100700000Y-55000000D03*
X55300000Y-86300000D03*
X65100000Y-92700000D03*
X76800000Y-77000000D03*
X108750000Y-89250000D03*
X90600000Y-51400000D03*
X114500000Y-54100000D03*
X115100000Y-109500000D03*
X109500000Y-90250000D03*
X123700000Y-72600000D03*
X99100000Y-107300000D03*
D58*
X130000000Y-69600000D03*
D59*
X59200000Y-65200000D03*
D57*
X78000000Y-90250000D03*
X120000000Y-47900000D03*
X90600000Y-57600000D03*
X55300000Y-82300000D03*
X59400000Y-86300000D03*
X90600000Y-55200000D03*
X55300000Y-80300000D03*
X55300000Y-84300000D03*
X79500000Y-90250000D03*
X74600000Y-87900000D03*
X106500000Y-90250000D03*
D59*
X98900000Y-87100000D03*
D57*
X59400000Y-84300000D03*
X96400000Y-76000000D03*
X113600000Y-106900000D03*
D58*
X108900000Y-69200000D03*
D57*
X100700000Y-108800000D03*
D59*
X63450000Y-73750000D03*
D57*
X126200000Y-82200000D03*
X76500000Y-92250000D03*
X78750000Y-89250000D03*
X75600000Y-77000000D03*
X110250000Y-91250000D03*
X107250000Y-89250000D03*
X105750000Y-91250000D03*
X77250000Y-91250000D03*
X57300000Y-86300000D03*
X99100000Y-108800000D03*
D59*
X118800000Y-101700000D03*
X124600000Y-102000000D03*
D57*
X68400000Y-77000000D03*
X111200000Y-50900000D03*
D59*
X56000000Y-73600000D03*
X99000000Y-91400000D03*
D57*
X90600000Y-49000000D03*
D59*
X77100000Y-58400000D03*
D57*
X107250000Y-91250000D03*
X78750000Y-91250000D03*
X106500000Y-92250000D03*
X90600000Y-62800000D03*
X73200000Y-77000000D03*
X108000000Y-92250000D03*
X78000000Y-92250000D03*
X90600000Y-56400000D03*
X90600000Y-65200000D03*
X57300000Y-82300000D03*
D59*
X53600000Y-107500000D03*
D57*
X77250000Y-89250000D03*
X90600000Y-61600000D03*
X100700000Y-107300000D03*
D59*
X87400000Y-87800000D03*
D57*
X113600000Y-109500000D03*
X115100000Y-108200000D03*
X72100000Y-108400000D03*
X76500000Y-90250000D03*
X70700000Y-109800000D03*
X90600000Y-64000000D03*
X94000000Y-54700000D03*
X80250000Y-91250000D03*
X57300000Y-80300000D03*
X96400000Y-78400000D03*
X75750000Y-91250000D03*
D59*
X131400000Y-59300000D03*
D57*
X59400000Y-80300000D03*
D59*
X60900000Y-104400000D03*
D57*
X108000000Y-90250000D03*
X96400000Y-73600000D03*
X72100000Y-107000000D03*
D59*
X120000000Y-106700000D03*
X87000000Y-92300000D03*
D57*
X90600000Y-52600000D03*
X98400000Y-58100000D03*
X57300000Y-84300000D03*
D59*
X81700000Y-82100000D03*
D57*
X113600000Y-108200000D03*
D59*
X103200000Y-83300000D03*
D57*
X102200000Y-107300000D03*
X124600000Y-87200000D03*
X72100000Y-109800000D03*
X108750000Y-91250000D03*
X69600000Y-77000000D03*
X109500000Y-92250000D03*
D58*
X108900000Y-70900000D03*
D57*
X59400000Y-82300000D03*
D59*
X60200000Y-110200000D03*
D57*
X70800000Y-77000000D03*
X70700000Y-108400000D03*
X79500000Y-92250000D03*
D59*
%TO.N,/Power/VIN*%
X79000000Y-54600000D03*
D57*
%TO.N,/VDD*%
X88500000Y-81800000D03*
X108000000Y-157750000D03*
X78750000Y-158750000D03*
X108750000Y-158750000D03*
X105750000Y-158750000D03*
X109500000Y-159750000D03*
X86300000Y-80600000D03*
D59*
X63700000Y-63700000D03*
D57*
X108000000Y-159750000D03*
X93300000Y-80600000D03*
X91900000Y-80600000D03*
X76500000Y-159750000D03*
X124100000Y-146400000D03*
X107250000Y-160750000D03*
X89900000Y-81800000D03*
X78750000Y-160750000D03*
X90500000Y-80600000D03*
D59*
X124780000Y-140100000D03*
D57*
X94100000Y-81800000D03*
X78000000Y-159750000D03*
D59*
X124080000Y-131600000D03*
D57*
X109500000Y-157750000D03*
X106500000Y-159750000D03*
X76500000Y-157750000D03*
X91300000Y-81800000D03*
X106500000Y-157750000D03*
X110250000Y-158750000D03*
X108750000Y-160750000D03*
X77250000Y-160750000D03*
X87700000Y-80600000D03*
X79500000Y-159750000D03*
X75750000Y-158750000D03*
X79500000Y-157750000D03*
D59*
X123800000Y-49900000D03*
D57*
X89100000Y-80600000D03*
X78000000Y-157750000D03*
X77250000Y-158750000D03*
X107250000Y-158750000D03*
X87100000Y-81800000D03*
X92700000Y-81800000D03*
X80250000Y-158750000D03*
D59*
%TO.N,/ESP32/EN*%
X106200000Y-50400000D03*
X127500000Y-50900000D03*
X90200000Y-47000000D03*
%TO.N,/5V*%
X96200000Y-119800000D03*
X99000000Y-140000000D03*
D57*
X69400000Y-87800000D03*
D59*
X98100000Y-85000000D03*
X99400000Y-116300000D03*
X96400000Y-142600000D03*
D57*
X68200000Y-87800000D03*
D59*
X99100000Y-110800000D03*
X99900000Y-90100000D03*
X95600000Y-148800000D03*
D57*
X67000000Y-87800000D03*
D59*
X96100000Y-93900000D03*
D57*
X77300000Y-86400000D03*
X65800000Y-87800000D03*
D59*
X96300000Y-114200000D03*
X98100000Y-144900000D03*
%TO.N,/3V3*%
X97100000Y-68900000D03*
D57*
X79900000Y-81100000D03*
X93000000Y-55800000D03*
X106200000Y-49100000D03*
X78500000Y-81100000D03*
X126300000Y-69200000D03*
D59*
X130300000Y-55700000D03*
X55500000Y-64700000D03*
D57*
X83400000Y-87700000D03*
D59*
X60400000Y-58300000D03*
D57*
X125200000Y-84600000D03*
D59*
X105200000Y-84500000D03*
D57*
X79900000Y-79800000D03*
D59*
X106100000Y-67100000D03*
X58700000Y-74700000D03*
D57*
%TO.N,/Power/VIN_M*%
X64600000Y-60000000D03*
X66800000Y-79200000D03*
D59*
X79600000Y-55600000D03*
D57*
X64600000Y-61200000D03*
X65800000Y-60000000D03*
X65800000Y-61200000D03*
X65600000Y-79200000D03*
D59*
X60100000Y-72180000D03*
D57*
X68000000Y-79200000D03*
X69200000Y-79200000D03*
D59*
%TO.N,/SCL*%
X96700000Y-173200000D03*
X100100000Y-64700000D03*
X94700000Y-172700000D03*
X114100000Y-85400000D03*
X118800000Y-62900000D03*
%TO.N,/Power/OUT0*%
X60000000Y-67000000D03*
%TO.N,Net-(Q6-D)*%
X59400000Y-71410000D03*
%TO.N,Net-(U4-BOOT)*%
X65200000Y-67920000D03*
X63100000Y-66800000D03*
%TO.N,Net-(C38-Pad1)*%
X116750000Y-98750000D03*
%TO.N,/ESP32/P_TX*%
X127600000Y-52300000D03*
%TO.N,/ESP32/P_RX*%
X127300000Y-53600000D03*
%TO.N,/ESP32/IO0*%
X124100000Y-64900000D03*
X131400000Y-64900000D03*
%TO.N,/Power/PGOOD*%
X111200000Y-67000000D03*
X61200000Y-72200000D03*
X101200000Y-66300000D03*
%TO.N,/SDA*%
X80900000Y-66300000D03*
X85900000Y-56800000D03*
X81900000Y-65100000D03*
X85900000Y-58300000D03*
X114100000Y-86700000D03*
X99400000Y-65500000D03*
X117600000Y-63700000D03*
%TO.N,/BM1366-1/0V8*%
X71000000Y-92000000D03*
X102000000Y-91500000D03*
X84200000Y-91300000D03*
X114000000Y-91500000D03*
%TO.N,/BM1366-1/1V2*%
X72250000Y-91000000D03*
X122500000Y-100900000D03*
X112750000Y-91500000D03*
X83000000Y-91250000D03*
X103250000Y-91750000D03*
%TO.N,Net-(C53-Pad2)*%
X85500000Y-100000000D03*
X101750000Y-100500000D03*
%TO.N,Net-(C66-Pad2)*%
X69000000Y-100500000D03*
%TO.N,/BM1366-2/0V8*%
X71750000Y-119250000D03*
X114200000Y-119700000D03*
X84250000Y-119500000D03*
X101900000Y-119900000D03*
%TO.N,/BM1366-2/1V2*%
X83000000Y-119500000D03*
X73000000Y-119500000D03*
X113000000Y-119700000D03*
X103100000Y-119800000D03*
%TO.N,Net-(U22-RO)*%
X70400000Y-123300000D03*
%TO.N,Net-(U24-RO)*%
X115400000Y-152600000D03*
%TO.N,/NRSTI*%
X116200000Y-97800000D03*
%TO.N,/RO*%
X117600000Y-96600000D03*
%TO.N,/CI*%
X119400000Y-90100000D03*
%TO.N,/BM1366-3/0V8*%
X114000000Y-147700000D03*
X72000000Y-148000000D03*
X84000000Y-147700000D03*
X101900000Y-147800000D03*
%TO.N,/BM1366-3/1V2*%
X103200000Y-147800000D03*
X73200000Y-148000000D03*
X82900000Y-147700000D03*
X112900000Y-147700000D03*
%TO.N,Net-(C106-Pad1)*%
X115920000Y-156140000D03*
%TO.N,Net-(U24-VDD1_1)*%
X82300000Y-159200000D03*
X102600000Y-159400000D03*
%TO.N,Net-(U24-VDD2_1)*%
X83500000Y-159200000D03*
X101700000Y-158800000D03*
%TO.N,Net-(U24-MODE_1)*%
X100600000Y-147800000D03*
X84800000Y-148500000D03*
%TO.N,Net-(U24-VDD3_1)*%
X100700000Y-157500000D03*
X84200000Y-158300000D03*
%TO.N,Net-(C123-Pad2)*%
X84800000Y-157100000D03*
X100800000Y-156400000D03*
%TO.N,Net-(U27-VDD1_1)*%
X72400000Y-158600000D03*
%TO.N,Net-(U27-VDD2_1)*%
X71300000Y-158600000D03*
%TO.N,Net-(U27-VDD3_1)*%
X71300000Y-157500000D03*
%TO.N,Net-(U27-MODE_1)*%
X70700000Y-148000000D03*
%TO.N,Net-(C139-Pad2)*%
X70200000Y-156700000D03*
D57*
%TO.N,Net-(D1-Pad2)*%
X99200000Y-55000000D03*
X95900000Y-54990000D03*
D59*
%TO.N,/BM1366-1/BI1*%
X117600000Y-97800000D03*
%TO.N,Net-(Q1-G)*%
X66804999Y-66995001D03*
X73804999Y-66995001D03*
%TO.N,Net-(Q2-G)*%
X66864928Y-75535072D03*
X73664928Y-75535072D03*
%TO.N,/BM1366-1/TEMP_P1_1*%
X117300000Y-94200000D03*
%TO.N,/ESP32/TFT_BLK*%
X86700000Y-65100000D03*
X100300000Y-67200000D03*
%TO.N,/BM1366-1/TEMP_N1_1*%
X117300000Y-93100000D03*
%TO.N,/BM1366-1/TEMP_P2_1*%
X87750000Y-94400000D03*
%TO.N,/BM1366-1/TEMP_N2_1*%
X87000000Y-93600000D03*
%TO.N,/BM1366-2/TEMP_P1_2*%
X117800000Y-118700000D03*
%TO.N,/BM1366-2/TEMP_N1_2*%
X116600000Y-117600000D03*
%TO.N,/BM1366-2/TEMP_P2_2*%
X85500000Y-121600000D03*
%TO.N,/BM1366-2/TEMP_N2_2*%
X85500000Y-120600000D03*
%TO.N,/BM1366-3/TEMP_P1_3*%
X116800000Y-147600000D03*
%TO.N,/BM1366-3/TEMP_N1_3*%
X116100000Y-146600000D03*
%TO.N,/BM1366-3/TEMP_P2_3*%
X84800000Y-150700000D03*
%TO.N,/BM1366-3/TEMP_N2_3*%
X84800000Y-149600000D03*
%TO.N,/BM1366-3/NRSTO3*%
X70700000Y-155700000D03*
%TO.N,/ESP32/TFT_RES*%
X106100000Y-51600000D03*
X93300000Y-64000000D03*
%TO.N,/ESP32/TFT_SDA*%
X106100000Y-52800000D03*
X93300000Y-65100000D03*
%TO.N,/ESP32/TFT_SCL*%
X93300000Y-66200000D03*
X106100000Y-54100000D03*
%TO.N,/ESP32/TFT_CS*%
X106100000Y-55400000D03*
X92700000Y-67200000D03*
%TO.N,/ESP32/TFT_DC*%
X100200000Y-61800000D03*
X91200000Y-67200000D03*
%TO.N,Net-(U27-RO)*%
X84200000Y-153800000D03*
%TO.N,Net-(U27-BI)*%
X84800000Y-154800000D03*
%TO.N,Net-(U27-CLKI)*%
X84800000Y-152900000D03*
%TO.N,Net-(U27-NRSTI)*%
X84800000Y-155900000D03*
%TO.N,Net-(U27-CI)*%
X84800000Y-151800000D03*
%TO.N,Net-(U27-NC)*%
X70700000Y-149200000D03*
%TO.N,/BM1366-3/BO3*%
X70700000Y-154500000D03*
D57*
%TO.N,/BM1366-1/VDD1*%
X77000000Y-115600000D03*
X106300000Y-115800000D03*
X115100000Y-136800000D03*
X78400000Y-116900000D03*
D59*
X99000000Y-112100000D03*
X125400000Y-131600000D03*
D57*
X113600000Y-134200000D03*
X113600000Y-136800000D03*
X78400000Y-115600000D03*
X79800000Y-115600000D03*
X79800000Y-116900000D03*
X71400000Y-137800000D03*
X100800000Y-136800000D03*
X102300000Y-135300000D03*
D59*
X75600000Y-104200000D03*
D57*
X71400000Y-136400000D03*
D59*
X68000000Y-116400000D03*
D57*
X107600000Y-117100000D03*
X70000000Y-137800000D03*
D59*
X110600000Y-102800000D03*
D57*
X100800000Y-135300000D03*
X70000000Y-136400000D03*
D59*
X130600000Y-135100000D03*
D57*
X71400000Y-135000000D03*
X107600000Y-115800000D03*
D59*
X100000000Y-104250000D03*
D57*
X115100000Y-135500000D03*
X99200000Y-136800000D03*
X99200000Y-135300000D03*
D59*
X86700000Y-118000000D03*
X87900000Y-114100000D03*
X98600000Y-117300000D03*
D57*
X113600000Y-135500000D03*
X108900000Y-115800000D03*
X106300000Y-117100000D03*
D59*
X85750000Y-103250000D03*
X124780000Y-137600000D03*
D57*
%TO.N,/BM1366-2/VDD2*%
X68900000Y-166200000D03*
X70300000Y-167600000D03*
D59*
X98200000Y-141000000D03*
X72400000Y-131000000D03*
D57*
X99600000Y-167700000D03*
D59*
X103100000Y-131400000D03*
X86900000Y-146400000D03*
D57*
X68900000Y-167600000D03*
X107400000Y-144900000D03*
X106000000Y-144900000D03*
X114800000Y-167300000D03*
X101100000Y-167700000D03*
X60800000Y-119100000D03*
X107400000Y-143600000D03*
X99600000Y-169000000D03*
X77000000Y-143700000D03*
X101100000Y-169000000D03*
X79800000Y-143700000D03*
X108700000Y-143600000D03*
D59*
X112600000Y-131700000D03*
D57*
X114800000Y-164700000D03*
D59*
X60200000Y-112200000D03*
X87700000Y-142600000D03*
D57*
X106000000Y-143600000D03*
X70300000Y-166200000D03*
X102500000Y-168300000D03*
D59*
X98080000Y-146280000D03*
D57*
X78400000Y-145000000D03*
D59*
X83200000Y-131300000D03*
D57*
X79800000Y-145000000D03*
X70300000Y-164700000D03*
X78400000Y-143700000D03*
D59*
X59651900Y-104400000D03*
D57*
X114800000Y-166000000D03*
X116300000Y-167300000D03*
X116300000Y-166000000D03*
D59*
%TO.N,/BM1366-3/RI3*%
X70700000Y-153200000D03*
%TO.N,/BM1366-3/CLKO3*%
X70700000Y-151900000D03*
%TO.N,/BM1366-3/CO3*%
X70700000Y-150600000D03*
%TO.N,/BM1366-1/CLKI1*%
X120200000Y-101700000D03*
%TO.N,/BM1366-2/NRSTI2*%
X56990000Y-114090000D03*
X66300000Y-120200000D03*
%TO.N,/BM1366-2/BI2*%
X67400000Y-121100000D03*
X57000000Y-108600000D03*
%TO.N,/BM1366-2/RO2*%
X63200000Y-105377500D03*
X64900000Y-119100000D03*
%TO.N,/BM1366-2/CI2*%
X63320000Y-114120000D03*
X68500000Y-125200000D03*
%TO.N,/BM1366-3/NRSTI3*%
X115900000Y-155000000D03*
X121780000Y-141700000D03*
%TO.N,/BM1366-3/BI3*%
X121842500Y-136037500D03*
X115900000Y-153700000D03*
%TO.N,/BM1366-3/RO3*%
X127500000Y-132400000D03*
X125200000Y-148900000D03*
%TO.N,/BM1366-3/CI3*%
X127680000Y-141700000D03*
%TO.N,/BM1366-1/NRSTO*%
X63100000Y-102400000D03*
X57400000Y-118100000D03*
%TO.N,/BM1366-1/CO*%
X65200000Y-98900000D03*
X63100000Y-118100000D03*
%TO.N,/BM1366-1/RI*%
X66100000Y-102900000D03*
%TO.N,/BM1366-2/RI*%
X127600000Y-130300000D03*
X118100000Y-124700000D03*
X115900000Y-124700000D03*
%TO.N,/BM1366-2/NRSTO*%
X119100000Y-122300000D03*
X122000000Y-145400000D03*
%TO.N,/BM1366-2/CO*%
X127600000Y-145400000D03*
X118800000Y-131400000D03*
%TO.N,/ESP32/ASIC_RST*%
X115100000Y-63700000D03*
%TO.N,/ESP32/ESP32_TX*%
X114100000Y-63000000D03*
%TO.N,/ESP32/ESP32_RX*%
X112700000Y-63000000D03*
%TO.N,Net-(U9-SPIIO6{slash}GPIO35{slash}FSPID{slash}SUBSPID)*%
X123500000Y-62448100D03*
%TO.N,Net-(U9-SPIIO7{slash}GPIO36{slash}FSPICLK{slash}SUBSPICLK)*%
X123500000Y-61300000D03*
%TO.N,Net-(U9-SPIDQS{slash}GPIO37{slash}FSPIQ{slash}SUBSPIQ)*%
X123500000Y-60000000D03*
%TO.N,Net-(U9-GPIO38{slash}FSPIWP{slash}SUBSPIWP)*%
X123500000Y-58700000D03*
%TO.N,Net-(U9-MTCK{slash}GPIO39{slash}CLK_OUT3{slash}SUBSPICS1)*%
X123500000Y-55000000D03*
%TO.N,Net-(U9-GPIO12{slash}TOUCH12{slash}ADC2_CH1{slash}FSPICLK{slash}FSPIIO6{slash}SUBSPICLK)*%
X112940000Y-67500000D03*
%TO.N,Net-(U9-GPIO13{slash}TOUCH13{slash}ADC2_CH2{slash}FSPIQ{slash}FSPIIO7{slash}SUBSPIQ)*%
X114000000Y-67500000D03*
%TO.N,Net-(U9-GPIO14{slash}TOUCH14{slash}ADC2_CH3{slash}FSPIWP{slash}FSPIDQS{slash}SUBSPIWP)*%
X111700000Y-63900000D03*
%TO.N,Net-(U9-\u002AGPIO46)*%
X106500000Y-61600000D03*
%TO.N,Net-(U24-VDD3_0)*%
X114600000Y-156200000D03*
%TO.N,Net-(U24-VDD2_0)*%
X114600000Y-157400000D03*
%TO.N,Net-(U24-VDD1_0)*%
X114620000Y-158700000D03*
%TO.N,Net-(U24-RI)*%
X100800000Y-152900000D03*
%TO.N,Net-(U24-NRSTO)*%
X100800000Y-155200000D03*
%TO.N,Net-(U24-NC)*%
X99400000Y-148800000D03*
%TO.N,Net-(U24-MODEO)*%
X115200000Y-147700000D03*
%TO.N,Net-(U24-CO)*%
X100800000Y-150500000D03*
%TO.N,Net-(U24-CLKO)*%
X100800000Y-151700000D03*
%TO.N,Net-(U24-BO)*%
X100800000Y-154000000D03*
%TO.N,Net-(U22-VDD4_1)*%
X70500000Y-127600000D03*
%TO.N,Net-(U22-VDD3_1)*%
X71200000Y-128500000D03*
%TO.N,Net-(U22-VDD2_1)*%
X70500000Y-129400000D03*
%TO.N,Net-(U22-VDD1_1)*%
X71200000Y-130300000D03*
%TO.N,Net-(U22-RI)*%
X84500000Y-124500000D03*
%TO.N,Net-(U22-NRSTO)*%
X85500000Y-122600000D03*
%TO.N,Net-(U22-MODE_1)*%
X70500000Y-119250000D03*
%TO.N,Net-(U22-MODE_0)*%
X70500000Y-120400000D03*
%TO.N,Net-(U22-CO)*%
X85500000Y-126600000D03*
%TO.N,Net-(U22-CLKO)*%
X85500000Y-125300000D03*
%TO.N,Net-(U22-BO)*%
X85500000Y-123700000D03*
%TO.N,Net-(U19-VDD4_1)*%
X101000000Y-128200000D03*
X85500000Y-128020000D03*
%TO.N,Net-(U19-VDD4_0)*%
X115900000Y-128300000D03*
%TO.N,Net-(U19-VDD3_1)*%
X84600000Y-128820000D03*
X101700000Y-129000000D03*
%TO.N,Net-(U19-VDD3_0)*%
X114600000Y-128300000D03*
%TO.N,Net-(U19-VDD2_1)*%
X101700000Y-130000000D03*
X85500000Y-129520000D03*
%TO.N,Net-(U19-VDD2_0)*%
X114600000Y-129400000D03*
%TO.N,Net-(U19-VDD1_1)*%
X101700000Y-131100000D03*
X84600000Y-130220000D03*
%TO.N,Net-(U19-VDD1_0)*%
X114600000Y-130500000D03*
%TO.N,Net-(U19-RO)*%
X101900000Y-125300000D03*
%TO.N,Net-(U19-NRSTO)*%
X116000000Y-122300000D03*
%TO.N,Net-(U19-NRSTI)*%
X100700000Y-122500000D03*
X92200000Y-122600000D03*
X92200000Y-127100000D03*
%TO.N,Net-(U19-MODE_1)*%
X85500000Y-119500000D03*
X100700000Y-119900000D03*
%TO.N,Net-(U19-MODE_0)*%
X99800000Y-120900000D03*
%TO.N,Net-(U19-MODEO)*%
X115400000Y-119700000D03*
%TO.N,Net-(U19-CO)*%
X115910000Y-127200000D03*
%TO.N,Net-(U19-CLKO)*%
X115910000Y-126000000D03*
%TO.N,Net-(U19-CLKI)*%
X100700000Y-126100000D03*
%TO.N,Net-(U19-CI)*%
X100700000Y-127200000D03*
%TO.N,Net-(U19-BO)*%
X115910000Y-123600000D03*
%TO.N,Net-(U19-BI)*%
X100700000Y-123700000D03*
%TO.N,Net-(U16-VDD3_1)*%
X70250000Y-101500000D03*
%TO.N,Net-(U16-VDD2_1)*%
X71500000Y-102500000D03*
%TO.N,Net-(U16-VDD1_1)*%
X72750000Y-103250000D03*
%TO.N,Net-(U16-RO)*%
X84250000Y-97250000D03*
%TO.N,Net-(U16-NRSTO)*%
X71000000Y-99500000D03*
%TO.N,Net-(U16-NRSTI)*%
X84471979Y-99207969D03*
%TO.N,Net-(U16-NC)*%
X71100000Y-93750000D03*
%TO.N,Net-(U16-MODE_1)*%
X69000000Y-92750000D03*
%TO.N,Net-(U16-CO)*%
X71100000Y-95000000D03*
%TO.N,Net-(U16-CLKO)*%
X71100000Y-96250000D03*
%TO.N,Net-(U16-CLKI)*%
X84000000Y-96250000D03*
%TO.N,Net-(U16-CI)*%
X84750000Y-95250000D03*
%TO.N,Net-(U16-BO)*%
X71000000Y-98250000D03*
%TO.N,Net-(U16-BI)*%
X83750000Y-98250000D03*
%TO.N,Net-(U13-VDD3_1)*%
X84471979Y-100707969D03*
X101250000Y-101500000D03*
%TO.N,Net-(U13-VDD3_0)*%
X116250000Y-99750000D03*
%TO.N,Net-(U13-VDD2_1)*%
X99500000Y-102250000D03*
X85500000Y-101500000D03*
%TO.N,Net-(U13-VDD2_0)*%
X115000000Y-100750000D03*
%TO.N,Net-(U13-VDD1_1)*%
X101300000Y-103000000D03*
X84500000Y-102250000D03*
%TO.N,Net-(U13-VDD1_0)*%
X113750000Y-101750000D03*
%TO.N,Net-(U13-RI)*%
X101750000Y-97250000D03*
%TO.N,Net-(U13-NRSTO)*%
X101100000Y-99500000D03*
%TO.N,Net-(U13-NC)*%
X102250000Y-94000000D03*
%TO.N,Net-(U13-MODE_1)*%
X84750000Y-93250000D03*
X100000000Y-92500000D03*
%TO.N,Net-(U13-MODEO)*%
X116250000Y-92500000D03*
%TO.N,Net-(U13-CO)*%
X102000000Y-95000000D03*
%TO.N,Net-(U13-CLKO)*%
X102250000Y-96250000D03*
%TO.N,Net-(U13-BO)*%
X101300000Y-98250000D03*
%TO.N,Net-(J4-CC2)*%
X95700000Y-51500000D03*
%TO.N,Net-(J4-CC1)*%
X98760000Y-51460000D03*
%TO.N,/BM1366-2/CLKI1*%
X70300000Y-124900000D03*
X68100000Y-96300000D03*
X66900000Y-115600000D03*
%TO.N,/BM1366-3/CLKI1*%
X120300000Y-131000000D03*
X116300000Y-151600000D03*
X119800000Y-146300000D03*
%TO.N,Net-(U9-MTDO{slash}GPIO40{slash}CLK_OUT2)*%
X116700000Y-53200000D03*
%TO.N,Net-(U9-MTDI{slash}GPIO41{slash}CLK_OUT1)*%
X119200000Y-53100000D03*
%TO.N,Net-(U9-MTMS{slash}GPIO42)*%
X123500000Y-53700000D03*
%TD*%
D60*
%TO.N,GND*%
X76100000Y-87600000D02*
X75500000Y-87000000D01*
D61*
X123300000Y-85200000D02*
X122400000Y-85200000D01*
X105920000Y-82520000D02*
X105200000Y-82520000D01*
X67710000Y-108610000D02*
X66880000Y-108610000D01*
D60*
X97720000Y-91300000D02*
X97800000Y-91380000D01*
D61*
X89380000Y-92300000D02*
X89400000Y-92280000D01*
D60*
X130000000Y-69600000D02*
X128200000Y-67800000D01*
D61*
X68200000Y-113200000D02*
X68200000Y-109800000D01*
D60*
X96037500Y-91300000D02*
X97720000Y-91300000D01*
X126180000Y-82180000D02*
X126200000Y-82200000D01*
D61*
X56000000Y-73600000D02*
X56050000Y-73550000D01*
X90790000Y-92300000D02*
X89420000Y-92300000D01*
X88300000Y-87600000D02*
X89190000Y-87600000D01*
X53600000Y-108590000D02*
X53600000Y-107500000D01*
X56030000Y-110880000D02*
X59520000Y-110880000D01*
D60*
X127800000Y-69300000D02*
X127300000Y-69800000D01*
D61*
X104280000Y-90500000D02*
X105000000Y-90500000D01*
X124600000Y-86500000D02*
X123300000Y-85200000D01*
D60*
X79000000Y-85800000D02*
X81000000Y-85800000D01*
X99000000Y-91400000D02*
X97820000Y-91400000D01*
X119000000Y-79300000D02*
X119000000Y-77000000D01*
X71500000Y-79820000D02*
X71500000Y-79200000D01*
X109180000Y-50900000D02*
X111200000Y-50900000D01*
X98080000Y-86280000D02*
X96800000Y-86280000D01*
D61*
X116500000Y-79790000D02*
X116500000Y-77500000D01*
D60*
X94757500Y-86280000D02*
X94737500Y-86300000D01*
D61*
X122325000Y-86762500D02*
X122325000Y-85275000D01*
X63450000Y-72400000D02*
X63450000Y-73750000D01*
X106400000Y-83000000D02*
X105920000Y-82520000D01*
X87300000Y-87700000D02*
X87400000Y-87800000D01*
D62*
X96400000Y-73600000D02*
X95075000Y-73600000D01*
D61*
X56600000Y-70800000D02*
X56050000Y-71350000D01*
X117000000Y-77000000D02*
X119000000Y-77000000D01*
X93190000Y-49990000D02*
X93190000Y-48620000D01*
X60890000Y-110890000D02*
X60200000Y-110200000D01*
D60*
X110800000Y-49100000D02*
X111200000Y-49500000D01*
D61*
X119075000Y-85525000D02*
X119075000Y-86762500D01*
D60*
X98900000Y-87100000D02*
X98080000Y-86280000D01*
D61*
X87300000Y-86480000D02*
X87300000Y-87700000D01*
X66880000Y-114130000D02*
X67270000Y-114130000D01*
X64690000Y-74000000D02*
X63700000Y-74000000D01*
X68200000Y-109100000D02*
X67710000Y-108610000D01*
D60*
X111200000Y-49500000D02*
X111200000Y-50900000D01*
D61*
X57320000Y-70800000D02*
X56600000Y-70800000D01*
X87400000Y-87800000D02*
X88100000Y-87800000D01*
D60*
X79000000Y-84380000D02*
X79000000Y-85800000D01*
D61*
X67270000Y-114130000D02*
X68200000Y-113200000D01*
D60*
X124100000Y-74420000D02*
X124100000Y-73000000D01*
D61*
X60200000Y-108525000D02*
X60200000Y-110200000D01*
X107800000Y-83000000D02*
X106400000Y-83000000D01*
X81400000Y-90100000D02*
X80250000Y-91250000D01*
X56050000Y-71350000D02*
X56050000Y-72400000D01*
X99810000Y-50300000D02*
X101500000Y-50300000D01*
X124600000Y-87200000D02*
X124600000Y-86500000D01*
X56020000Y-110890000D02*
X56030000Y-110880000D01*
D60*
X124100000Y-73000000D02*
X123700000Y-72600000D01*
X119075000Y-79375000D02*
X119000000Y-79300000D01*
D61*
X63700000Y-74000000D02*
X63450000Y-73750000D01*
D60*
X75500000Y-87000000D02*
X74600000Y-87900000D01*
D61*
X89420000Y-92300000D02*
X89400000Y-92280000D01*
X87000000Y-92300000D02*
X89380000Y-92300000D01*
X118800000Y-100810000D02*
X118800000Y-101700000D01*
D60*
X65100000Y-91280000D02*
X65100000Y-92700000D01*
D61*
X122325000Y-85275000D02*
X122400000Y-85200000D01*
D60*
X127300000Y-69800000D02*
X127300000Y-70950000D01*
D61*
X111100000Y-90400000D02*
X110250000Y-91250000D01*
D60*
X126180000Y-82220000D02*
X126200000Y-82200000D01*
D61*
X119400000Y-85200000D02*
X119075000Y-85525000D01*
D60*
X96800000Y-86280000D02*
X94757500Y-86280000D01*
D61*
X111720000Y-90400000D02*
X111100000Y-90400000D01*
D60*
X72000000Y-78700000D02*
X72000000Y-77000000D01*
D62*
X96400000Y-78400000D02*
X95075000Y-78400000D01*
D61*
X93500000Y-50300000D02*
X93190000Y-49990000D01*
D60*
X103980000Y-82520000D02*
X103200000Y-83300000D01*
D61*
X101500000Y-50300000D02*
X101830000Y-49970000D01*
X101830000Y-49970000D02*
X101830000Y-48620000D01*
X120000000Y-105400000D02*
X120150000Y-105250000D01*
D60*
X79000000Y-89000000D02*
X78750000Y-89250000D01*
X79000000Y-85800000D02*
X79000000Y-89000000D01*
X119075000Y-81037500D02*
X119075000Y-79375000D01*
X76420000Y-87600000D02*
X76100000Y-87600000D01*
X76400000Y-86100000D02*
X75500000Y-87000000D01*
D61*
X88100000Y-87800000D02*
X88300000Y-87600000D01*
X68200000Y-109800000D02*
X70700000Y-109800000D01*
D60*
X110150000Y-49100000D02*
X110800000Y-49100000D01*
D61*
X74180000Y-90300000D02*
X74800000Y-90300000D01*
D60*
X126180000Y-81100000D02*
X126180000Y-82180000D01*
D61*
X56050000Y-73550000D02*
X56050000Y-72400000D01*
D62*
X96400000Y-76000000D02*
X95075000Y-76000000D01*
D61*
X64330000Y-110890000D02*
X60890000Y-110890000D01*
D60*
X105200000Y-82520000D02*
X103980000Y-82520000D01*
X128200000Y-67800000D02*
X127280000Y-67800000D01*
D61*
X116500000Y-77500000D02*
X117000000Y-77000000D01*
X94690000Y-50300000D02*
X93500000Y-50300000D01*
D60*
X129700000Y-69300000D02*
X127800000Y-69300000D01*
D61*
X74800000Y-90300000D02*
X75750000Y-91250000D01*
X60900000Y-105377500D02*
X60900000Y-104400000D01*
D60*
X130000000Y-69600000D02*
X129700000Y-69300000D01*
D61*
X122400000Y-85200000D02*
X119400000Y-85200000D01*
X59710000Y-64690000D02*
X60400000Y-64690000D01*
D60*
X76400000Y-84877950D02*
X76400000Y-86100000D01*
X126180000Y-83400000D02*
X126180000Y-82220000D01*
D61*
X120000000Y-106700000D02*
X120000000Y-105400000D01*
X68200000Y-109800000D02*
X68200000Y-109100000D01*
X105000000Y-90500000D02*
X105750000Y-91250000D01*
D60*
X97820000Y-91400000D02*
X97800000Y-91380000D01*
D61*
X54800000Y-110890000D02*
X56020000Y-110890000D01*
D60*
X71500000Y-79200000D02*
X72000000Y-78700000D01*
D61*
X59200000Y-65200000D02*
X59710000Y-64690000D01*
X123480000Y-102000000D02*
X124600000Y-102000000D01*
X59520000Y-110880000D02*
X60200000Y-110200000D01*
D60*
X111200000Y-50900000D02*
X112800000Y-50900000D01*
D61*
X82020000Y-90100000D02*
X81400000Y-90100000D01*
%TO.N,/Power/VIN*%
X79000000Y-53200000D02*
X79000000Y-54600000D01*
X77837500Y-52800000D02*
X78600000Y-52800000D01*
X77785500Y-52985500D02*
X77785500Y-52832000D01*
X78600000Y-52800000D02*
X79000000Y-53200000D01*
%TO.N,/VDD*%
X63690000Y-62700000D02*
X62658000Y-62700000D01*
X92125000Y-70975000D02*
X92125000Y-73600000D01*
X103580000Y-160700000D02*
X103800000Y-160700000D01*
X124060000Y-139380000D02*
X124780000Y-140100000D01*
X121030000Y-139380000D02*
X124060000Y-139380000D01*
X105200000Y-57900000D02*
X92125000Y-70975000D01*
D63*
X74700000Y-159800000D02*
X75750000Y-158750000D01*
D61*
X124130000Y-146370000D02*
X124100000Y-146400000D01*
D63*
X73160000Y-159800000D02*
X74700000Y-159800000D01*
D61*
X112820000Y-159820000D02*
X111750000Y-158750000D01*
X124130000Y-132400000D02*
X124130000Y-131650000D01*
X115500000Y-55000000D02*
X112600000Y-57900000D01*
D60*
X83600000Y-80600000D02*
X86300000Y-80600000D01*
D61*
X111750000Y-158750000D02*
X110250000Y-158750000D01*
X81820000Y-160600000D02*
X78900000Y-160600000D01*
X124130000Y-145400000D02*
X125380000Y-145400000D01*
X63690000Y-62700000D02*
X63690000Y-63690000D01*
X123800000Y-49900000D02*
X122800000Y-48900000D01*
X63690000Y-63690000D02*
X63700000Y-63700000D01*
X124130000Y-145400000D02*
X124130000Y-146370000D01*
X115500000Y-50800000D02*
X115500000Y-55000000D01*
X112600000Y-57900000D02*
X105200000Y-57900000D01*
X122800000Y-48900000D02*
X117400000Y-48900000D01*
X128660000Y-139380000D02*
X128680000Y-139400000D01*
X124780000Y-141762500D02*
X124780000Y-140100000D01*
X125500000Y-139380000D02*
X124780000Y-140100000D01*
X78900000Y-160600000D02*
X78750000Y-160750000D01*
X117400000Y-48900000D02*
X115500000Y-50800000D01*
X61800000Y-63558000D02*
X61800000Y-64690000D01*
X103800000Y-160700000D02*
X105750000Y-158750000D01*
X125500000Y-139380000D02*
X128660000Y-139380000D01*
X124130000Y-131650000D02*
X124080000Y-131600000D01*
X62658000Y-62700000D02*
X61800000Y-63558000D01*
X113640000Y-159820000D02*
X112820000Y-159820000D01*
%TO.N,/ESP32/EN*%
X114000000Y-47000000D02*
X114700000Y-47700000D01*
X122800000Y-47000000D02*
X118900000Y-47000000D01*
X114700000Y-47700000D02*
X118200000Y-47700000D01*
X126700000Y-50900000D02*
X122800000Y-47000000D01*
X104600000Y-49500000D02*
X104600000Y-47000000D01*
X105500000Y-50400000D02*
X104600000Y-49500000D01*
X106200000Y-50400000D02*
X105500000Y-50400000D01*
X90200000Y-47000000D02*
X104600000Y-47000000D01*
X118900000Y-47000000D02*
X118200000Y-47700000D01*
X127500000Y-50900000D02*
X126700000Y-50900000D01*
X104600000Y-47000000D02*
X114000000Y-47000000D01*
D60*
%TO.N,/5V*%
X99580000Y-90420000D02*
X99900000Y-90100000D01*
D61*
X100000000Y-85600000D02*
X100000000Y-87500000D01*
X95437500Y-113737500D02*
X95900000Y-114200000D01*
X98100000Y-85000000D02*
X99400000Y-85000000D01*
X63900000Y-89600000D02*
X65100000Y-89600000D01*
D60*
X98980000Y-140020000D02*
X99000000Y-140000000D01*
D61*
X95900000Y-114200000D02*
X96300000Y-114200000D01*
X74800000Y-86400000D02*
X71800000Y-86400000D01*
D60*
X97470000Y-116350000D02*
X97500000Y-116320000D01*
D61*
X75460200Y-84877950D02*
X75460200Y-85739800D01*
X95437500Y-113050000D02*
X95437500Y-113737500D01*
D60*
X94837500Y-145350000D02*
X96870000Y-145350000D01*
D61*
X96037500Y-93837500D02*
X96100000Y-93900000D01*
D60*
X77380000Y-86480000D02*
X77300000Y-86400000D01*
D61*
X95750000Y-141950000D02*
X96400000Y-142600000D01*
D60*
X99400000Y-116300000D02*
X99380000Y-116320000D01*
D61*
X94937500Y-141950000D02*
X95750000Y-141950000D01*
X61400000Y-92100000D02*
X63900000Y-89600000D01*
D60*
X96870000Y-140050000D02*
X96900000Y-140020000D01*
X96770000Y-85350000D02*
X96800000Y-85320000D01*
X94737500Y-85350000D02*
X96770000Y-85350000D01*
D61*
X99400000Y-85000000D02*
X100000000Y-85600000D01*
D60*
X96900000Y-140020000D02*
X98980000Y-140020000D01*
X65800000Y-88900000D02*
X65800000Y-87800000D01*
X99100000Y-110800000D02*
X98780000Y-111120000D01*
X65100000Y-90320000D02*
X65100000Y-89600000D01*
X97780000Y-85320000D02*
X98100000Y-85000000D01*
X97800000Y-90420000D02*
X99580000Y-90420000D01*
X96800000Y-85320000D02*
X97780000Y-85320000D01*
X97730000Y-90350000D02*
X97800000Y-90420000D01*
D61*
X58100000Y-92100000D02*
X61400000Y-92100000D01*
X95537500Y-119137500D02*
X96200000Y-119800000D01*
D60*
X98780000Y-111120000D02*
X97500000Y-111120000D01*
D61*
X95537500Y-118250000D02*
X95537500Y-119137500D01*
D60*
X96037500Y-90350000D02*
X97730000Y-90350000D01*
X77380000Y-87600000D02*
X77380000Y-86480000D01*
D61*
X97600000Y-88100000D02*
X96800000Y-87300000D01*
X99400000Y-88100000D02*
X97600000Y-88100000D01*
X96037500Y-92250000D02*
X96037500Y-93837500D01*
D60*
X95437500Y-111150000D02*
X97430000Y-111150000D01*
X96900000Y-145320000D02*
X97680000Y-145320000D01*
D61*
X75460200Y-85739800D02*
X74800000Y-86400000D01*
D60*
X97680000Y-145320000D02*
X98100000Y-144900000D01*
X77339800Y-84877950D02*
X77339800Y-86360200D01*
D61*
X94787500Y-87300000D02*
X94737500Y-87250000D01*
X71800000Y-86400000D02*
X70400000Y-87800000D01*
X94837500Y-148037500D02*
X95600000Y-148800000D01*
X94837500Y-147250000D02*
X94837500Y-148037500D01*
X70400000Y-87800000D02*
X69400000Y-87800000D01*
D60*
X65100000Y-89600000D02*
X65800000Y-88900000D01*
X99380000Y-116320000D02*
X97500000Y-116320000D01*
X95537500Y-116350000D02*
X97470000Y-116350000D01*
X94937500Y-140050000D02*
X96870000Y-140050000D01*
X96870000Y-145350000D02*
X96900000Y-145320000D01*
X77339800Y-86360200D02*
X77300000Y-86400000D01*
D61*
X96800000Y-87300000D02*
X94787500Y-87300000D01*
X100000000Y-87500000D02*
X99400000Y-88100000D01*
%TO.N,/3V3*%
X126400000Y-88400000D02*
X128900000Y-85900000D01*
X59600000Y-74310000D02*
X59090000Y-74310000D01*
D63*
X124800000Y-71900000D02*
X124800000Y-69600000D01*
D60*
X126350000Y-70950000D02*
X126350000Y-69250000D01*
D61*
X108220000Y-51920000D02*
X109200000Y-52900000D01*
D63*
X128250000Y-71950000D02*
X127900000Y-72300000D01*
D60*
X108250000Y-49100000D02*
X108250000Y-50870000D01*
X80022050Y-82122050D02*
X83400000Y-85500000D01*
D63*
X128250000Y-70950000D02*
X128250000Y-71950000D01*
D61*
X128900000Y-85900000D02*
X128900000Y-84500000D01*
D60*
X78877950Y-82122050D02*
X79000000Y-82244100D01*
D61*
X123500000Y-88400000D02*
X126400000Y-88400000D01*
D60*
X77339800Y-82122050D02*
X78300000Y-82122050D01*
X125200000Y-83420000D02*
X125220000Y-83400000D01*
D63*
X127900000Y-72300000D02*
X125200000Y-72300000D01*
D60*
X122325000Y-82725000D02*
X123000000Y-83400000D01*
D61*
X126200000Y-84600000D02*
X125200000Y-84600000D01*
X128900000Y-84500000D02*
X128700000Y-84300000D01*
X107800000Y-83500000D02*
X105220000Y-83500000D01*
X105220000Y-83500000D02*
X105200000Y-83480000D01*
D60*
X78500000Y-81100000D02*
X78500000Y-82122050D01*
D61*
X128700000Y-84300000D02*
X126500000Y-84300000D01*
D60*
X126320000Y-69180000D02*
X126300000Y-69200000D01*
D63*
X125200000Y-72300000D02*
X124800000Y-71900000D01*
D61*
X108220000Y-50900000D02*
X108220000Y-51920000D01*
D60*
X78877950Y-82122050D02*
X80022050Y-82122050D01*
X83400000Y-85500000D02*
X83400000Y-87600000D01*
D61*
X126500000Y-84300000D02*
X126200000Y-84600000D01*
D60*
X123000000Y-83400000D02*
X125220000Y-83400000D01*
X126320000Y-67800000D02*
X126320000Y-69180000D01*
X78500000Y-82122050D02*
X78877950Y-82122050D01*
X108250000Y-50870000D02*
X108220000Y-50900000D01*
D63*
X124800000Y-69600000D02*
X125200000Y-69200000D01*
D61*
X122975000Y-87875000D02*
X123500000Y-88400000D01*
D60*
X122325000Y-81037500D02*
X122325000Y-82725000D01*
D61*
X59090000Y-74310000D02*
X58700000Y-74700000D01*
X122975000Y-86762500D02*
X122975000Y-87875000D01*
D60*
X106200000Y-49100000D02*
X108250000Y-49100000D01*
X78500000Y-80400000D02*
X78500000Y-81100000D01*
X60400000Y-58300000D02*
X60400000Y-59800000D01*
X125200000Y-84600000D02*
X125200000Y-83420000D01*
X60400000Y-59800000D02*
X55500000Y-64700000D01*
X78500000Y-80400000D02*
X78000000Y-79900000D01*
X126350000Y-69250000D02*
X126300000Y-69200000D01*
X78300000Y-82122050D02*
X78500000Y-82122050D01*
X105200000Y-83480000D02*
X105200000Y-84500000D01*
X78000000Y-79900000D02*
X76900000Y-79900000D01*
D63*
X125200000Y-69200000D02*
X126300000Y-69200000D01*
D60*
X79000000Y-82244100D02*
X79000000Y-83420000D01*
D61*
X109200000Y-52900000D02*
X112800000Y-52900000D01*
%TO.N,/Power/VIN_M*%
X58600000Y-72400000D02*
X57950000Y-72400000D01*
X80762500Y-52800000D02*
X80200000Y-52800000D01*
X58820000Y-72180000D02*
X58600000Y-72400000D01*
D60*
X71500000Y-80780000D02*
X67533000Y-80780000D01*
D61*
X60255000Y-72025000D02*
X60255000Y-70342000D01*
X60100000Y-72180000D02*
X58820000Y-72180000D01*
X79800000Y-55400000D02*
X79600000Y-55600000D01*
D60*
X67533000Y-80780000D02*
X67525000Y-80772000D01*
D61*
X79800000Y-53200000D02*
X79800000Y-55400000D01*
X60100000Y-72180000D02*
X60255000Y-72025000D01*
X80200000Y-52800000D02*
X79800000Y-53200000D01*
%TO.N,/SCL*%
X119200000Y-63300000D02*
X118800000Y-62900000D01*
X108800000Y-84000000D02*
X107800000Y-84000000D01*
X124500000Y-62800000D02*
X124000000Y-63300000D01*
X106200000Y-64700000D02*
X109400000Y-61500000D01*
X96200000Y-172700000D02*
X96700000Y-173200000D01*
X94700000Y-172700000D02*
X96200000Y-172700000D01*
X124000000Y-63300000D02*
X119200000Y-63300000D01*
X124500000Y-61580000D02*
X124500000Y-62800000D01*
X116900000Y-61500000D02*
X118300000Y-62900000D01*
X125800000Y-60280000D02*
X124500000Y-61580000D01*
X109400000Y-61500000D02*
X116900000Y-61500000D01*
X118300000Y-62900000D02*
X118800000Y-62900000D01*
X110200000Y-85400000D02*
X108800000Y-84000000D01*
X114100000Y-85400000D02*
X110200000Y-85400000D01*
X100100000Y-64700000D02*
X106200000Y-64700000D01*
%TO.N,/Power/OUT0*%
X58099000Y-67188000D02*
X59388000Y-67188000D01*
X59400000Y-66200000D02*
X59890000Y-65710000D01*
X59400000Y-67200000D02*
X59400000Y-66600000D01*
X59400000Y-67000000D02*
X60000000Y-67000000D01*
X60400000Y-65710000D02*
X61800000Y-65710000D01*
X60255000Y-68342000D02*
X59742000Y-68342000D01*
X58099000Y-64611000D02*
X58110000Y-64600000D01*
X59890000Y-65710000D02*
X60400000Y-65710000D01*
X59742000Y-68342000D02*
X59400000Y-68000000D01*
X61800000Y-65710000D02*
X62830000Y-65710000D01*
X59400000Y-68000000D02*
X59400000Y-67200000D01*
X59388000Y-67188000D02*
X59400000Y-67200000D01*
X59400000Y-66600000D02*
X59400000Y-66200000D01*
X58099000Y-67188000D02*
X58099000Y-64611000D01*
X62830000Y-65710000D02*
X63450000Y-65090000D01*
%TO.N,/Power/SW*%
X64258000Y-69342000D02*
X64720000Y-68880000D01*
X68120000Y-68880000D02*
X68200000Y-68800000D01*
X63055000Y-69342000D02*
X64258000Y-69342000D01*
X64720000Y-68880000D02*
X65400000Y-68880000D01*
X65400000Y-68880000D02*
X68120000Y-68880000D01*
%TO.N,Net-(C19-Pad1)*%
X65350000Y-62950000D02*
X65100000Y-62700000D01*
X65350000Y-65090000D02*
X65350000Y-62950000D01*
X65100000Y-62700000D02*
X64710000Y-62700000D01*
D60*
%TO.N,/1V8*%
X124100000Y-77700000D02*
X125220000Y-78820000D01*
X126350000Y-73650000D02*
X126350000Y-75350000D01*
X126350000Y-75350000D02*
X126400000Y-75400000D01*
X124120000Y-75400000D02*
X126400000Y-75400000D01*
X123037500Y-81100000D02*
X122975000Y-81037500D01*
X125220000Y-81100000D02*
X123037500Y-81100000D01*
X126400000Y-75400000D02*
X130100000Y-75400000D01*
X124100000Y-75380000D02*
X124120000Y-75400000D01*
X124100000Y-75380000D02*
X124100000Y-77700000D01*
X125220000Y-78820000D02*
X125220000Y-81100000D01*
D61*
%TO.N,Net-(U4-COMP)*%
X58099000Y-69088000D02*
X56000000Y-69088000D01*
X59312000Y-69088000D02*
X58099000Y-69088000D01*
X60255000Y-68842000D02*
X59558000Y-68842000D01*
X59558000Y-68842000D02*
X59312000Y-69088000D01*
%TO.N,Net-(C9-Pad2)*%
X57090000Y-65310000D02*
X56000000Y-66400000D01*
X57090000Y-64600000D02*
X57090000Y-65310000D01*
X56000000Y-66400000D02*
X56000000Y-67188000D01*
%TO.N,Net-(Q6-D)*%
X60255000Y-69842000D02*
X59758000Y-69842000D01*
X59400000Y-71410000D02*
X58890000Y-71410000D01*
X59758000Y-69842000D02*
X58800000Y-70800000D01*
X58890000Y-71410000D02*
X58280000Y-70800000D01*
X58800000Y-70800000D02*
X58280000Y-70800000D01*
%TO.N,Net-(U4-BOOT)*%
X63100000Y-66800000D02*
X63055000Y-66845000D01*
X66200000Y-67920000D02*
X65200000Y-67920000D01*
X63055000Y-66845000D02*
X63055000Y-68342000D01*
%TO.N,Net-(U4-BP)*%
X64000000Y-70342000D02*
X64742000Y-70342000D01*
X63055000Y-70342000D02*
X64000000Y-70342000D01*
X65400000Y-72350000D02*
X65350000Y-72400000D01*
X61890000Y-74310000D02*
X62600000Y-73600000D01*
X65400000Y-71000000D02*
X65400000Y-72350000D01*
X63000000Y-71200000D02*
X63600000Y-71200000D01*
X61200000Y-74310000D02*
X61890000Y-74310000D01*
X62600000Y-71600000D02*
X63000000Y-71200000D01*
X64000000Y-70800000D02*
X64000000Y-70342000D01*
X64742000Y-70342000D02*
X65400000Y-71000000D01*
X62600000Y-73600000D02*
X62600000Y-71600000D01*
X63600000Y-71200000D02*
X64000000Y-70800000D01*
%TO.N,Net-(C38-Pad1)*%
X117500000Y-99200000D02*
X117050000Y-98750000D01*
X117050000Y-98750000D02*
X116750000Y-98750000D01*
X117500000Y-99790000D02*
X117500000Y-99200000D01*
%TO.N,/ESP32/P_TX*%
X127600000Y-52300000D02*
X129000000Y-52300000D01*
%TO.N,/ESP32/P_RX*%
X127300000Y-53600000D02*
X128000000Y-54300000D01*
X128000000Y-54300000D02*
X129100000Y-54300000D01*
%TO.N,/ESP32/IO0*%
X131400000Y-64900000D02*
X131400000Y-65700000D01*
X124100000Y-64900000D02*
X131400000Y-64900000D01*
X131400000Y-65700000D02*
X131000000Y-66100000D01*
%TO.N,/Power/PGOOD*%
X55000000Y-71000000D02*
X55000000Y-73800000D01*
X59000000Y-70000000D02*
X56000000Y-70000000D01*
X61200000Y-72200000D02*
X61200000Y-73290000D01*
X55000000Y-73800000D02*
X55800000Y-74600000D01*
X108000000Y-67000000D02*
X107300000Y-66300000D01*
X58910000Y-73290000D02*
X59600000Y-73290000D01*
X107300000Y-66300000D02*
X101200000Y-66300000D01*
X60255000Y-69312000D02*
X59688000Y-69312000D01*
X59600000Y-73290000D02*
X61200000Y-73290000D01*
X57600000Y-74600000D02*
X58910000Y-73290000D01*
X55800000Y-74600000D02*
X57600000Y-74600000D01*
X56000000Y-70000000D02*
X55000000Y-71000000D01*
X59688000Y-69312000D02*
X59000000Y-70000000D01*
X111200000Y-67000000D02*
X108000000Y-67000000D01*
%TO.N,/SDA*%
X125780000Y-62820000D02*
X125800000Y-62820000D01*
X124700000Y-63900000D02*
X125780000Y-62820000D01*
X110700000Y-86700000D02*
X108500000Y-84500000D01*
X116700000Y-61900000D02*
X117600000Y-62800000D01*
X114100000Y-86700000D02*
X110700000Y-86700000D01*
X100500000Y-65500000D02*
X100900000Y-65100000D01*
X106400000Y-65100000D02*
X109600000Y-61900000D01*
X109600000Y-61900000D02*
X116700000Y-61900000D01*
X117600000Y-63700000D02*
X117800000Y-63900000D01*
X117600000Y-62800000D02*
X117600000Y-63700000D01*
X99400000Y-65500000D02*
X100500000Y-65500000D01*
X108500000Y-84500000D02*
X107800000Y-84500000D01*
X100900000Y-65100000D02*
X106400000Y-65100000D01*
X117800000Y-63900000D02*
X124700000Y-63900000D01*
%TO.N,/BM1366-1/0V8*%
X92950000Y-90350000D02*
X92700000Y-90600000D01*
X85450000Y-91320000D02*
X85400000Y-91270000D01*
X82000000Y-94500000D02*
X73500000Y-94500000D01*
X111900000Y-94400000D02*
X114000000Y-92300000D01*
X71000000Y-92000000D02*
X71000000Y-90000000D01*
X91810000Y-90600000D02*
X91810000Y-89710000D01*
X71000000Y-90000000D02*
X70500000Y-89500000D01*
X102000000Y-91500000D02*
X102000000Y-91800000D01*
X92400000Y-89700000D02*
X92800000Y-89300000D01*
X84200000Y-91300000D02*
X84200000Y-92300000D01*
X89400000Y-91320000D02*
X85450000Y-91320000D01*
X85400000Y-91270000D02*
X84230000Y-91270000D01*
X102000000Y-91800000D02*
X104600000Y-94400000D01*
X101000000Y-91480000D02*
X100980000Y-91500000D01*
X102000000Y-91500000D02*
X100980000Y-91500000D01*
X70500000Y-89500000D02*
X69750000Y-89500000D01*
X89400000Y-91320000D02*
X89400000Y-90300000D01*
X84200000Y-89900000D02*
X84700000Y-89400000D01*
X90000000Y-89700000D02*
X91800000Y-89700000D01*
X100200000Y-89300000D02*
X101000000Y-90100000D01*
X104600000Y-94400000D02*
X111900000Y-94400000D01*
X114000000Y-91500000D02*
X115270000Y-91500000D01*
X92700000Y-90600000D02*
X91810000Y-90600000D01*
X101000000Y-90100000D02*
X101000000Y-91480000D01*
X89400000Y-90300000D02*
X90000000Y-89700000D01*
X92800000Y-89300000D02*
X100200000Y-89300000D01*
X73500000Y-94500000D02*
X71000000Y-92000000D01*
X91810000Y-89710000D02*
X91800000Y-89700000D01*
X84200000Y-92300000D02*
X82000000Y-94500000D01*
X91800000Y-89700000D02*
X92400000Y-89700000D01*
X114000000Y-92300000D02*
X114000000Y-91500000D01*
X84200000Y-91300000D02*
X84200000Y-89900000D01*
X84230000Y-91270000D02*
X84200000Y-91300000D01*
X93762500Y-90350000D02*
X92950000Y-90350000D01*
%TO.N,/BM1366-1/1V2*%
X103250000Y-91750000D02*
X103250000Y-90570000D01*
X103250000Y-91750000D02*
X105100000Y-93600000D01*
X86000000Y-85900000D02*
X86000000Y-87300000D01*
X87300000Y-85520000D02*
X86380000Y-85520000D01*
X122500000Y-100900000D02*
X122500000Y-101980000D01*
X85200000Y-87300000D02*
X86000000Y-87300000D01*
X122520000Y-103280000D02*
X122450000Y-103350000D01*
X90210000Y-85300000D02*
X90210000Y-84710000D01*
X101200000Y-88500000D02*
X101100000Y-88600000D01*
X82980000Y-89520000D02*
X85200000Y-87300000D01*
X122520000Y-102000000D02*
X122520000Y-103280000D01*
X103250000Y-90570000D02*
X103320000Y-90500000D01*
X122450000Y-103350000D02*
X122450000Y-105250000D01*
X103320000Y-89620000D02*
X103320000Y-90500000D01*
X83000000Y-90120000D02*
X82980000Y-90100000D01*
X105100000Y-93600000D02*
X110650000Y-93600000D01*
X101100000Y-88600000D02*
X102300000Y-88600000D01*
X110650000Y-93600000D02*
X112750000Y-91500000D01*
X83000000Y-91250000D02*
X83000000Y-90120000D01*
X102300000Y-88600000D02*
X103320000Y-89620000D01*
X72250000Y-91000000D02*
X72950000Y-90300000D01*
X122500000Y-101980000D02*
X122520000Y-102000000D01*
X87700000Y-84300000D02*
X87300000Y-84700000D01*
X87300000Y-84700000D02*
X87300000Y-85520000D01*
X112680000Y-91430000D02*
X112750000Y-91500000D01*
X87100000Y-89100000D02*
X91600000Y-89100000D01*
X80650000Y-93600000D02*
X83000000Y-91250000D01*
X86380000Y-85520000D02*
X86000000Y-85900000D01*
X90260000Y-85350000D02*
X90210000Y-85300000D01*
X92100000Y-88600000D02*
X101100000Y-88600000D01*
X91600000Y-89100000D02*
X92100000Y-88600000D01*
X82980000Y-90100000D02*
X82980000Y-89520000D01*
X86000000Y-87300000D02*
X86000000Y-88000000D01*
X86000000Y-88000000D02*
X87100000Y-89100000D01*
X89800000Y-84300000D02*
X87700000Y-84300000D01*
X92462500Y-85350000D02*
X90260000Y-85350000D01*
X72950000Y-90300000D02*
X73220000Y-90300000D01*
X90210000Y-84710000D02*
X89800000Y-84300000D01*
X112680000Y-90400000D02*
X112680000Y-91430000D01*
X74850000Y-93600000D02*
X80650000Y-93600000D01*
X101200000Y-86700000D02*
X101200000Y-88500000D01*
X72250000Y-91000000D02*
X74850000Y-93600000D01*
%TO.N,Net-(C53-Pad2)*%
X88250000Y-99790000D02*
X94990000Y-99790000D01*
X101750000Y-100500000D02*
X100010000Y-100500000D01*
X99250000Y-100500000D02*
X98980000Y-100770000D01*
X94990000Y-99790000D02*
X95970000Y-100770000D01*
X99990000Y-100500000D02*
X99250000Y-100500000D01*
X98980000Y-100770000D02*
X98250000Y-100770000D01*
X95970000Y-100770000D02*
X98250000Y-100770000D01*
X85710000Y-99790000D02*
X88250000Y-99790000D01*
X100010000Y-100500000D02*
X100000000Y-100510000D01*
X85500000Y-100000000D02*
X85710000Y-99790000D01*
X100000000Y-100510000D02*
X99990000Y-100500000D01*
%TO.N,Net-(C66-Pad2)*%
X69000000Y-101270000D02*
X69000000Y-100500000D01*
%TO.N,/BM1366-2/0V8*%
X90810000Y-115110000D02*
X90800000Y-115100000D01*
X114200000Y-119700000D02*
X114200000Y-118520000D01*
X93262500Y-116350000D02*
X92150000Y-116350000D01*
X101380000Y-116380000D02*
X101380000Y-118500000D01*
X94400000Y-115500000D02*
X100500000Y-115500000D01*
X90800000Y-115100000D02*
X94000000Y-115100000D01*
X72500000Y-120400000D02*
X83350000Y-120400000D01*
X71730000Y-118000000D02*
X71730000Y-119230000D01*
X84220000Y-116680000D02*
X84220000Y-118100000D01*
X94000000Y-115100000D02*
X94400000Y-115500000D01*
X83350000Y-120400000D02*
X84250000Y-119500000D01*
X84250000Y-118130000D02*
X84220000Y-118100000D01*
X71730000Y-119230000D02*
X71750000Y-119250000D01*
X71750000Y-119250000D02*
X71750000Y-119650000D01*
X114200000Y-118520000D02*
X114220000Y-118500000D01*
X102900000Y-121100000D02*
X112800000Y-121100000D01*
X101900000Y-120100000D02*
X102900000Y-121100000D01*
X112800000Y-121100000D02*
X114200000Y-119700000D01*
X89100000Y-115100000D02*
X88900000Y-115300000D01*
X92150000Y-116350000D02*
X91800000Y-116000000D01*
X100500000Y-115500000D02*
X101380000Y-116380000D01*
X101900000Y-119900000D02*
X101380000Y-119380000D01*
X71750000Y-119650000D02*
X72500000Y-120400000D01*
X90810000Y-116000000D02*
X90810000Y-115110000D01*
X88900000Y-115300000D02*
X85600000Y-115300000D01*
X101900000Y-119900000D02*
X101900000Y-120100000D01*
X84250000Y-119500000D02*
X84250000Y-118130000D01*
X91800000Y-116000000D02*
X90810000Y-116000000D01*
X89100000Y-115100000D02*
X90800000Y-115100000D01*
X88000000Y-117320000D02*
X88000000Y-115300000D01*
X101380000Y-119380000D02*
X101380000Y-118500000D01*
X85600000Y-115300000D02*
X84220000Y-116680000D01*
%TO.N,/BM1366-2/1V2*%
X73420000Y-116000000D02*
X71800000Y-116000000D01*
X86800000Y-113700000D02*
X86800000Y-112700000D01*
X73020000Y-116980000D02*
X73020000Y-118100000D01*
X72950000Y-114050000D02*
X71750000Y-114050000D01*
X103100000Y-118480000D02*
X103120000Y-118500000D01*
X86800000Y-114500000D02*
X87100000Y-114800000D01*
X88900000Y-114500000D02*
X94300000Y-114500000D01*
X89100000Y-110300000D02*
X88200000Y-111200000D01*
X91010000Y-110610000D02*
X90700000Y-110300000D01*
X88600000Y-114800000D02*
X88900000Y-114500000D01*
X94800000Y-115000000D02*
X101200000Y-115000000D01*
X103100000Y-119800000D02*
X103100000Y-118580000D01*
X94300000Y-114500000D02*
X94800000Y-115000000D01*
X103100000Y-115500000D02*
X102000000Y-114400000D01*
X112900000Y-119800000D02*
X113000000Y-119700000D01*
X73420000Y-116580000D02*
X73020000Y-116980000D01*
X87380000Y-112120000D02*
X88200000Y-112120000D01*
X103100000Y-119800000D02*
X112900000Y-119800000D01*
X82580000Y-118100000D02*
X82580000Y-116020000D01*
X113000000Y-119700000D02*
X113000000Y-118680000D01*
X90700000Y-110300000D02*
X89100000Y-110300000D01*
X86800000Y-113700000D02*
X86800000Y-114500000D01*
X87100000Y-114800000D02*
X88600000Y-114800000D01*
X91010000Y-111200000D02*
X91010000Y-110610000D01*
X73420000Y-116000000D02*
X73420000Y-116580000D01*
X102000000Y-114400000D02*
X101800000Y-114400000D01*
X86800000Y-112700000D02*
X87380000Y-112120000D01*
X82580000Y-116020000D02*
X84900000Y-113700000D01*
X88200000Y-111200000D02*
X88200000Y-112120000D01*
X83000000Y-119500000D02*
X82580000Y-119080000D01*
X73000000Y-119500000D02*
X83000000Y-119500000D01*
X73420000Y-114520000D02*
X72950000Y-114050000D01*
X93162500Y-111150000D02*
X91060000Y-111150000D01*
X71800000Y-116000000D02*
X71750000Y-115950000D01*
X82580000Y-119080000D02*
X82580000Y-118100000D01*
X101200000Y-115000000D02*
X101800000Y-114400000D01*
X84900000Y-113700000D02*
X86800000Y-113700000D01*
X103100000Y-115500000D02*
X103100000Y-118480000D01*
X73000000Y-119500000D02*
X73000000Y-118120000D01*
X73420000Y-116000000D02*
X73420000Y-114520000D01*
%TO.N,Net-(U22-RO)*%
X69010000Y-123300000D02*
X70400000Y-123300000D01*
%TO.N,Net-(U24-RO)*%
X115400000Y-152600000D02*
X116990000Y-152600000D01*
%TO.N,/NRSTI*%
X116200000Y-96700000D02*
X118300000Y-94600000D01*
X129400000Y-93200000D02*
X118300000Y-93200000D01*
X116200000Y-97800000D02*
X116200000Y-96700000D01*
X120375000Y-88025000D02*
X120375000Y-86762500D01*
X118300000Y-94600000D02*
X118300000Y-90100000D01*
X118300000Y-90100000D02*
X120375000Y-88025000D01*
%TO.N,/RO*%
X121675000Y-86762500D02*
X121675000Y-87775000D01*
X130800000Y-88600000D02*
X129500000Y-88600000D01*
X130500000Y-94200000D02*
X131400000Y-93300000D01*
X120800000Y-94200000D02*
X130500000Y-94200000D01*
X131400000Y-89200000D02*
X130800000Y-88600000D01*
X131400000Y-93300000D02*
X131400000Y-89200000D01*
X121675000Y-87775000D02*
X123300000Y-89400000D01*
X117600000Y-96600000D02*
X118400000Y-96600000D01*
X128600000Y-88600000D02*
X129500000Y-88600000D01*
X127800000Y-89400000D02*
X128600000Y-88600000D01*
X123300000Y-89400000D02*
X127800000Y-89400000D01*
X118400000Y-96600000D02*
X120800000Y-94200000D01*
%TO.N,/CI*%
X119400000Y-90100000D02*
X119400000Y-89900000D01*
X128700000Y-90100000D02*
X119400000Y-90100000D01*
X129500000Y-90900000D02*
X128700000Y-90100000D01*
X121000000Y-86787500D02*
X121025000Y-86762500D01*
X121000000Y-88300000D02*
X121000000Y-86787500D01*
X119400000Y-89900000D02*
X121000000Y-88300000D01*
%TO.N,/BM1366-3/0V8*%
X73900000Y-150600000D02*
X82100000Y-150600000D01*
X91950000Y-145350000D02*
X91600000Y-145000000D01*
X89700000Y-144000000D02*
X91000000Y-144000000D01*
X101900000Y-148500000D02*
X103800000Y-150400000D01*
X101580000Y-147480000D02*
X101580000Y-146800000D01*
X72000000Y-148000000D02*
X72000000Y-147420000D01*
X83800000Y-148900000D02*
X83800000Y-147900000D01*
X88300000Y-144900000D02*
X88800000Y-144900000D01*
X103800000Y-150400000D02*
X112500000Y-150400000D01*
X101900000Y-147800000D02*
X101580000Y-147480000D01*
X114000000Y-148900000D02*
X114000000Y-147700000D01*
X91000000Y-144000000D02*
X99800000Y-144000000D01*
X112500000Y-150400000D02*
X114000000Y-148900000D01*
X84000000Y-147220000D02*
X84520000Y-146700000D01*
X88800000Y-144900000D02*
X89700000Y-144000000D01*
X101600000Y-145800000D02*
X101600000Y-146780000D01*
X83800000Y-147900000D02*
X84000000Y-147700000D01*
X72000000Y-148700000D02*
X73900000Y-150600000D01*
X72000000Y-148000000D02*
X72000000Y-148700000D01*
X101600000Y-146780000D02*
X101580000Y-146800000D01*
X72000000Y-147420000D02*
X71480000Y-146900000D01*
X88300000Y-145720000D02*
X88300000Y-144900000D01*
X84600000Y-144900000D02*
X88300000Y-144900000D01*
X84000000Y-147700000D02*
X84000000Y-147220000D01*
X114020000Y-147680000D02*
X114000000Y-147700000D01*
X84520000Y-144980000D02*
X84600000Y-144900000D01*
X99800000Y-144000000D02*
X101600000Y-145800000D01*
X101900000Y-147800000D02*
X101900000Y-148500000D01*
X91010000Y-144010000D02*
X91000000Y-144000000D01*
X84520000Y-146700000D02*
X84520000Y-144980000D01*
X91600000Y-145000000D02*
X91010000Y-145000000D01*
X92562500Y-145350000D02*
X91950000Y-145350000D01*
X114020000Y-146800000D02*
X114020000Y-147680000D01*
X91010000Y-145000000D02*
X91010000Y-144010000D01*
X82100000Y-150600000D02*
X83800000Y-148900000D01*
%TO.N,/BM1366-3/1V2*%
X88700000Y-138900000D02*
X88000000Y-139600000D01*
X102300000Y-145600000D02*
X102300000Y-146500000D01*
X81900000Y-149500000D02*
X82900000Y-148500000D01*
X91750000Y-140050000D02*
X91400000Y-139700000D01*
X73200000Y-148500000D02*
X74200000Y-149500000D01*
X103200000Y-147800000D02*
X103200000Y-146780000D01*
X83900000Y-143600000D02*
X86600000Y-143600000D01*
X86600000Y-141100000D02*
X86600000Y-143600000D01*
X112280000Y-145480000D02*
X112900000Y-146100000D01*
X103200000Y-147800000D02*
X103200000Y-148400000D01*
X86600000Y-143600000D02*
X99400000Y-143600000D01*
X99400000Y-143600000D02*
X100300000Y-143600000D01*
X82900000Y-148500000D02*
X82900000Y-147700000D01*
X114250000Y-144650000D02*
X116150000Y-144650000D01*
X100100000Y-141300000D02*
X99400000Y-142000000D01*
X102580000Y-146780000D02*
X103200000Y-146780000D01*
X112900000Y-146100000D02*
X112880000Y-146120000D01*
X88000000Y-139600000D02*
X88000000Y-140520000D01*
X90810000Y-139210000D02*
X90500000Y-138900000D01*
X114100000Y-144500000D02*
X112280000Y-144500000D01*
X82880000Y-144620000D02*
X83900000Y-143600000D01*
X90500000Y-138900000D02*
X88700000Y-138900000D01*
X74200000Y-149500000D02*
X81900000Y-149500000D01*
X101200000Y-141300000D02*
X100100000Y-141300000D01*
X73200000Y-148000000D02*
X73200000Y-147080000D01*
X100300000Y-143600000D02*
X102300000Y-145600000D01*
X114250000Y-144650000D02*
X114100000Y-144500000D01*
X87180000Y-140520000D02*
X86600000Y-141100000D01*
X112900000Y-148300000D02*
X112900000Y-147700000D01*
X102300000Y-146500000D02*
X102580000Y-146780000D01*
X92662500Y-140050000D02*
X91750000Y-140050000D01*
X112880000Y-146120000D02*
X112880000Y-146800000D01*
X112280000Y-144500000D02*
X112280000Y-145480000D01*
X99400000Y-142000000D02*
X99400000Y-143600000D01*
X73200000Y-148000000D02*
X73200000Y-148500000D01*
X111900000Y-149300000D02*
X112900000Y-148300000D01*
X82880000Y-146600000D02*
X82880000Y-144620000D01*
X82900000Y-147700000D02*
X82900000Y-146580000D01*
X88000000Y-140520000D02*
X87180000Y-140520000D01*
X112900000Y-147700000D02*
X112900000Y-146780000D01*
X104100000Y-149300000D02*
X111900000Y-149300000D01*
X90810000Y-139700000D02*
X90810000Y-139210000D01*
X91400000Y-139700000D02*
X90810000Y-139700000D01*
X103200000Y-148400000D02*
X104100000Y-149300000D01*
%TO.N,Net-(C96-Pad2)*%
X65630000Y-108610000D02*
X64360000Y-108610000D01*
X62150000Y-108525000D02*
X62265000Y-108640000D01*
X62265000Y-108640000D02*
X64330000Y-108640000D01*
X64330000Y-108640000D02*
X64400000Y-108570000D01*
X64360000Y-108610000D02*
X64330000Y-108640000D01*
X64400000Y-108570000D02*
X64400000Y-104510000D01*
%TO.N,Net-(C106-Pad1)*%
X117100000Y-156140000D02*
X115920000Y-156140000D01*
%TO.N,Net-(U24-VDD1_1)*%
X84220000Y-161120000D02*
X84600000Y-161500000D01*
X102600000Y-159400000D02*
X102600000Y-160680000D01*
X101480000Y-160700000D02*
X102620000Y-160700000D01*
X84200000Y-160600000D02*
X84220000Y-160620000D01*
X84220000Y-160620000D02*
X84220000Y-161120000D01*
X87300000Y-160600000D02*
X98800000Y-160600000D01*
X98800000Y-160600000D02*
X99800000Y-161600000D01*
X82780000Y-159680000D02*
X82780000Y-160600000D01*
X99800000Y-161600000D02*
X101200000Y-161600000D01*
X101480000Y-161320000D02*
X101480000Y-160700000D01*
X84600000Y-161500000D02*
X86400000Y-161500000D01*
X102600000Y-160680000D02*
X102620000Y-160700000D01*
X82780000Y-160600000D02*
X84200000Y-160600000D01*
X101200000Y-161600000D02*
X101480000Y-161320000D01*
X82300000Y-159200000D02*
X82780000Y-159680000D01*
X86400000Y-161500000D02*
X87300000Y-160600000D01*
%TO.N,Net-(U24-VDD2_1)*%
X101700000Y-159400000D02*
X101500000Y-159600000D01*
X83600000Y-159300000D02*
X85200000Y-159300000D01*
X85980000Y-160620000D02*
X86900000Y-159700000D01*
X86900000Y-159700000D02*
X100460000Y-159700000D01*
X100500000Y-160680000D02*
X100520000Y-160700000D01*
X100500000Y-159660000D02*
X100500000Y-160680000D01*
X83500000Y-159200000D02*
X83600000Y-159300000D01*
X85200000Y-160600000D02*
X85180000Y-160620000D01*
X85200000Y-159300000D02*
X85200000Y-160600000D01*
X100460000Y-159700000D02*
X100500000Y-159660000D01*
X101700000Y-158800000D02*
X101700000Y-159400000D01*
X100560000Y-159600000D02*
X100500000Y-159660000D01*
X101500000Y-159600000D02*
X100560000Y-159600000D01*
X85180000Y-160620000D02*
X85980000Y-160620000D01*
%TO.N,/Fan/FAN1_TACH*%
X109500000Y-79300000D02*
X109500000Y-81500000D01*
X110500000Y-82500000D02*
X112200000Y-82500000D01*
X104920000Y-71920000D02*
X105600000Y-72600000D01*
X105600000Y-72600000D02*
X105600000Y-75400000D01*
X109500000Y-81500000D02*
X110500000Y-82500000D01*
X105600000Y-75400000D02*
X109500000Y-79300000D01*
X102000000Y-71920000D02*
X104920000Y-71920000D01*
%TO.N,/Fan/FAN1_PWM*%
X98400000Y-71100000D02*
X100120000Y-69380000D01*
X98400000Y-75900000D02*
X98400000Y-71100000D01*
X106700000Y-82500000D02*
X105300000Y-81100000D01*
X105480000Y-69380000D02*
X105600000Y-69500000D01*
X100120000Y-69380000D02*
X102000000Y-69380000D01*
X103600000Y-81100000D02*
X98400000Y-75900000D01*
X107800000Y-82500000D02*
X106700000Y-82500000D01*
X102000000Y-69380000D02*
X105480000Y-69380000D01*
X105300000Y-81100000D02*
X103600000Y-81100000D01*
%TO.N,/Fan/FAN2_TACH*%
X117280000Y-70200000D02*
X119000000Y-71920000D01*
X113700000Y-72600000D02*
X113700000Y-76900000D01*
X113700000Y-83500000D02*
X112200000Y-83500000D01*
X114900000Y-78100000D02*
X114900000Y-82300000D01*
X114900000Y-82300000D02*
X113700000Y-83500000D01*
X113700000Y-72600000D02*
X116100000Y-70200000D01*
X116100000Y-70200000D02*
X117280000Y-70200000D01*
X113700000Y-76900000D02*
X114900000Y-78100000D01*
%TO.N,/Fan/FAN2_PWM*%
X113800000Y-69100000D02*
X113800000Y-70200000D01*
X114300000Y-82200000D02*
X113500000Y-83000000D01*
X113500000Y-83000000D02*
X112200000Y-83000000D01*
X118720000Y-69100000D02*
X119000000Y-69380000D01*
X113800000Y-70200000D02*
X111800000Y-72200000D01*
X111800000Y-72200000D02*
X111800000Y-75900000D01*
X111800000Y-75900000D02*
X114300000Y-78400000D01*
X114300000Y-78400000D02*
X114300000Y-82200000D01*
X113800000Y-69100000D02*
X118720000Y-69100000D01*
%TO.N,Net-(U24-MODE_1)*%
X99410000Y-146800000D02*
X99400000Y-146790000D01*
X90900000Y-150100000D02*
X96100000Y-150100000D01*
X85000000Y-148300000D02*
X89100000Y-148300000D01*
X100600000Y-148900000D02*
X100600000Y-147800000D01*
X85480000Y-148300000D02*
X85480000Y-146700000D01*
X96600000Y-149600000D02*
X99900000Y-149600000D01*
X100600000Y-147800000D02*
X100600000Y-146820000D01*
X96100000Y-150100000D02*
X96600000Y-149600000D01*
X84800000Y-148500000D02*
X85000000Y-148300000D01*
X89100000Y-148300000D02*
X90900000Y-150100000D01*
X99900000Y-149600000D02*
X100600000Y-148900000D01*
X100600000Y-146820000D02*
X100620000Y-146800000D01*
X100620000Y-146800000D02*
X99410000Y-146800000D01*
%TO.N,Net-(U24-VDD3_1)*%
X100500000Y-158700000D02*
X99340000Y-158700000D01*
X100700000Y-157500000D02*
X100500000Y-157700000D01*
X97780000Y-158280000D02*
X98200000Y-158700000D01*
X85260000Y-158280000D02*
X86500000Y-158280000D01*
X84200000Y-158300000D02*
X85160000Y-158300000D01*
X100500000Y-157700000D02*
X100500000Y-158700000D01*
X85160000Y-158300000D02*
X85200000Y-158340000D01*
X85200000Y-158340000D02*
X85260000Y-158280000D01*
X98200000Y-158700000D02*
X99260000Y-158700000D01*
X99340000Y-158700000D02*
X99300000Y-158660000D01*
X99260000Y-158700000D02*
X99300000Y-158660000D01*
X86500000Y-158280000D02*
X97780000Y-158280000D01*
%TO.N,Net-(C123-Pad2)*%
X99800000Y-157200000D02*
X99800000Y-156410000D01*
X86500000Y-157320000D02*
X97820000Y-157320000D01*
X85400000Y-157100000D02*
X85620000Y-157320000D01*
X99200000Y-157800000D02*
X99300000Y-157700000D01*
X98300000Y-157800000D02*
X99200000Y-157800000D01*
X99800000Y-156410000D02*
X99810000Y-156400000D01*
X84800000Y-157100000D02*
X85400000Y-157100000D01*
X100800000Y-156400000D02*
X99810000Y-156400000D01*
X85620000Y-157320000D02*
X86500000Y-157320000D01*
X97820000Y-157320000D02*
X98300000Y-157800000D01*
X99300000Y-157700000D02*
X99800000Y-157200000D01*
%TO.N,Net-(C131-Pad2)*%
X128680000Y-136140000D02*
X128680000Y-131390000D01*
X126730000Y-136037500D02*
X126832500Y-136140000D01*
X128680000Y-131390000D02*
X128600000Y-131310000D01*
X126832500Y-136140000D02*
X128680000Y-136140000D01*
X129900000Y-136140000D02*
X129930000Y-136110000D01*
X128680000Y-136140000D02*
X129900000Y-136140000D01*
%TO.N,Net-(U27-VDD1_1)*%
X72400000Y-158600000D02*
X72200000Y-158800000D01*
D63*
X71160000Y-159800000D02*
X72200000Y-159800000D01*
D61*
X72200000Y-158800000D02*
X72200000Y-159800000D01*
%TO.N,Net-(U27-VDD2_1)*%
X71300000Y-158600000D02*
X71220000Y-158680000D01*
X70180000Y-158680000D02*
X70180000Y-159780000D01*
X70180000Y-159780000D02*
X70200000Y-159800000D01*
X71220000Y-158680000D02*
X70180000Y-158680000D01*
%TO.N,Net-(U27-VDD3_1)*%
X70120000Y-157780000D02*
X68980000Y-157780000D01*
X71080000Y-157720000D02*
X70180000Y-157720000D01*
X71300000Y-157500000D02*
X71080000Y-157720000D01*
X70180000Y-157720000D02*
X70120000Y-157780000D01*
%TO.N,Net-(U27-MODE_1)*%
X70520000Y-147820000D02*
X70520000Y-146900000D01*
D63*
X69196000Y-147090000D02*
X69386000Y-146900000D01*
X69386000Y-146900000D02*
X70520000Y-146900000D01*
D61*
X70700000Y-148000000D02*
X70520000Y-147820000D01*
%TO.N,Net-(C139-Pad2)*%
X70200000Y-156700000D02*
X70080000Y-156820000D01*
X70080000Y-156820000D02*
X68980000Y-156820000D01*
D60*
%TO.N,Net-(D1-Pad2)*%
X99200000Y-55000000D02*
X95910000Y-55000000D01*
X95910000Y-55000000D02*
X95900000Y-54990000D01*
D61*
%TO.N,/BM1366-1/BI1*%
X118800000Y-99790000D02*
X118800000Y-99000000D01*
X118800000Y-99000000D02*
X117600000Y-97800000D01*
%TO.N,Net-(U7-OE)*%
X118425000Y-81037500D02*
X118425000Y-82075000D01*
X116500000Y-82000000D02*
X116500000Y-80810000D01*
X118425000Y-82075000D02*
X118000000Y-82500000D01*
X118000000Y-82500000D02*
X117000000Y-82500000D01*
X117000000Y-82500000D02*
X116500000Y-82000000D01*
%TO.N,Net-(U14-ADJ)*%
X93712500Y-92300000D02*
X93762500Y-92250000D01*
X90790000Y-90990000D02*
X90790000Y-90900000D01*
X91810000Y-92300000D02*
X93712500Y-92300000D01*
X91810000Y-92300000D02*
X91810000Y-92010000D01*
X91810000Y-92010000D02*
X90790000Y-90990000D01*
D64*
%TO.N,Net-(Q1-G)*%
X64200000Y-68400000D02*
X64200000Y-67600000D01*
X75295000Y-66983294D02*
X73816706Y-66983294D01*
X68295000Y-66995001D02*
X66804999Y-66995001D01*
X64200000Y-67600000D02*
X64804999Y-66995001D01*
D61*
X63055000Y-68842000D02*
X63758000Y-68842000D01*
D64*
X64804999Y-66995001D02*
X66804999Y-66995001D01*
X63758000Y-68842000D02*
X64200000Y-68400000D01*
%TO.N,Net-(Q2-G)*%
X66864928Y-74000000D02*
X66864928Y-71064928D01*
X68295000Y-75535072D02*
X66864928Y-75535072D01*
D61*
X65710000Y-74000000D02*
X66864928Y-74000000D01*
D64*
X65642000Y-69842000D02*
X63558000Y-69842000D01*
X66864928Y-71064928D02*
X65642000Y-69842000D01*
X66864928Y-75535072D02*
X66864928Y-74000000D01*
D61*
X63055000Y-69842000D02*
X63558000Y-69842000D01*
D64*
X75095000Y-75535072D02*
X73664928Y-75535072D01*
D61*
%TO.N,/BM1366-1/TEMP_P1_1*%
X116200000Y-94200000D02*
X115700000Y-94700000D01*
X115700000Y-94700000D02*
X115700000Y-95400000D01*
X117300000Y-94200000D02*
X116200000Y-94200000D01*
%TO.N,/BM1366-1/TEMP_N1_1*%
X117300000Y-93100000D02*
X117300000Y-91100000D01*
X117300000Y-91100000D02*
X116100000Y-89900000D01*
X116100000Y-89900000D02*
X114500000Y-89900000D01*
%TO.N,/BM1366-1/TEMP_P2_1*%
X88800000Y-94400000D02*
X89400000Y-95000000D01*
X87750000Y-94400000D02*
X88800000Y-94400000D01*
%TO.N,/BM1366-1/TEMP_N2_1*%
X87000000Y-93600000D02*
X90900000Y-93600000D01*
X90900000Y-93600000D02*
X92300000Y-95000000D01*
%TO.N,/BM1366-2/TEMP_P1_2*%
X117800000Y-118700000D02*
X119600000Y-118700000D01*
%TO.N,/BM1366-2/TEMP_N1_2*%
X117600000Y-116600000D02*
X119600000Y-116600000D01*
X116600000Y-117600000D02*
X117600000Y-116600000D01*
%TO.N,/BM1366-2/TEMP_P2_2*%
X87400000Y-121100000D02*
X90300000Y-121100000D01*
X86900000Y-121600000D02*
X87400000Y-121100000D01*
X85500000Y-121600000D02*
X86900000Y-121600000D01*
%TO.N,/BM1366-2/TEMP_N2_2*%
X89300000Y-120100000D02*
X91500000Y-120100000D01*
X91500000Y-120100000D02*
X92500000Y-121100000D01*
X85500000Y-120600000D02*
X85700000Y-120400000D01*
X89000000Y-120400000D02*
X89300000Y-120100000D01*
X85700000Y-120400000D02*
X89000000Y-120400000D01*
%TO.N,/BM1366-3/TEMP_P1_3*%
X116800000Y-147600000D02*
X119400000Y-147600000D01*
%TO.N,/BM1366-3/TEMP_N1_3*%
X116600000Y-146100000D02*
X117900000Y-146100000D01*
X116100000Y-146600000D02*
X116600000Y-146100000D01*
%TO.N,/BM1366-3/TEMP_P2_3*%
X85500000Y-150000000D02*
X86800000Y-150000000D01*
X84800000Y-150700000D02*
X85500000Y-150000000D01*
%TO.N,/BM1366-3/TEMP_N2_3*%
X85600000Y-148800000D02*
X87800000Y-148800000D01*
X84800000Y-149600000D02*
X85600000Y-148800000D01*
X87800000Y-148800000D02*
X89000000Y-150000000D01*
%TO.N,/BM1366-3/NRSTO3*%
X70700000Y-155700000D02*
X68800000Y-155700000D01*
X68800000Y-155700000D02*
X67600000Y-156900000D01*
X66700000Y-156900000D02*
X64500000Y-159100000D01*
X67600000Y-156900000D02*
X66700000Y-156900000D01*
%TO.N,Net-(U20-ADJ)*%
X90810000Y-117610000D02*
X90810000Y-118300000D01*
X89790000Y-116590000D02*
X90810000Y-117610000D01*
X93262500Y-118250000D02*
X90860000Y-118250000D01*
X89790000Y-116000000D02*
X89790000Y-116590000D01*
X90860000Y-118250000D02*
X90810000Y-118300000D01*
%TO.N,Net-(U25-ADJ)*%
X92562500Y-147250000D02*
X91650000Y-147250000D01*
X91650000Y-147250000D02*
X91500000Y-147400000D01*
X90710000Y-146610000D02*
X90710000Y-147400000D01*
X89990000Y-145890000D02*
X90710000Y-146610000D01*
X89990000Y-145000000D02*
X89990000Y-145890000D01*
X91500000Y-147400000D02*
X90710000Y-147400000D01*
%TO.N,/ESP32/TFT_RES*%
X93300000Y-64000000D02*
X94400000Y-64000000D01*
X94400000Y-64000000D02*
X104800000Y-53600000D01*
X104800000Y-52200000D02*
X105400000Y-51600000D01*
X105400000Y-51600000D02*
X106100000Y-51600000D01*
X104800000Y-53600000D02*
X104800000Y-52200000D01*
%TO.N,/ESP32/TFT_SDA*%
X94000000Y-65100000D02*
X105200000Y-53900000D01*
X105200000Y-53900000D02*
X105200000Y-53100000D01*
X105500000Y-52800000D02*
X106100000Y-52800000D01*
X93300000Y-65100000D02*
X94000000Y-65100000D01*
X105200000Y-53100000D02*
X105500000Y-52800000D01*
%TO.N,/ESP32/TFT_SCL*%
X105700000Y-54100000D02*
X106100000Y-54100000D01*
X93300000Y-66200000D02*
X93600000Y-66200000D01*
X93600000Y-66200000D02*
X105700000Y-54100000D01*
%TO.N,/ESP32/TFT_CS*%
X93400000Y-67200000D02*
X105200000Y-55400000D01*
X92700000Y-67200000D02*
X93400000Y-67200000D01*
X105200000Y-55400000D02*
X106100000Y-55400000D01*
%TO.N,/ESP32/TFT_DC*%
X99500000Y-61800000D02*
X93300000Y-68000000D01*
X100200000Y-61800000D02*
X99500000Y-61800000D01*
X93300000Y-68000000D02*
X92000000Y-68000000D01*
X92000000Y-68000000D02*
X91200000Y-67200000D01*
%TO.N,Net-(U27-RO)*%
X84200000Y-153800000D02*
X86090000Y-153800000D01*
%TO.N,Net-(U27-BI)*%
X97000000Y-154800000D02*
X97700000Y-154100000D01*
X84800000Y-154800000D02*
X97000000Y-154800000D01*
X97700000Y-154100000D02*
X98690000Y-154100000D01*
X98690000Y-154100000D02*
X98790000Y-154000000D01*
%TO.N,Net-(U27-CLKI)*%
X97300000Y-151700000D02*
X98790000Y-151700000D01*
X84800000Y-152900000D02*
X96100000Y-152900000D01*
X96100000Y-152900000D02*
X97300000Y-151700000D01*
%TO.N,Net-(U27-NRSTI)*%
X84800000Y-155900000D02*
X85300000Y-156400000D01*
X85300000Y-156400000D02*
X98790000Y-156400000D01*
X98790000Y-156400000D02*
X98790000Y-155200000D01*
%TO.N,Net-(U27-CI)*%
X97300000Y-150500000D02*
X98790000Y-150500000D01*
X84800000Y-151800000D02*
X96000000Y-151800000D01*
X96000000Y-151800000D02*
X97300000Y-150500000D01*
%TO.N,Net-(U27-NC)*%
X70700000Y-149200000D02*
X70286000Y-149200000D01*
X70286000Y-149200000D02*
X69196000Y-148110000D01*
%TO.N,Net-(U7-A4)*%
X117700000Y-88200000D02*
X117400000Y-87900000D01*
X117400000Y-87900000D02*
X116100000Y-87900000D01*
X119400000Y-88200000D02*
X117700000Y-88200000D01*
X119725000Y-86762500D02*
X119725000Y-87875000D01*
X119725000Y-87875000D02*
X119400000Y-88200000D01*
%TO.N,Net-(U7-B4)*%
X119725000Y-82525000D02*
X121600000Y-84400000D01*
X119725000Y-81037500D02*
X119725000Y-82525000D01*
X123500000Y-84400000D02*
X124500000Y-85400000D01*
X121600000Y-84400000D02*
X123500000Y-84400000D01*
X124500000Y-85400000D02*
X127100000Y-85400000D01*
%TO.N,Net-(U7-DIR4)*%
X116800000Y-85200000D02*
X116100000Y-85900000D01*
X118425000Y-85625000D02*
X118000000Y-85200000D01*
X118000000Y-85200000D02*
X116800000Y-85200000D01*
X118425000Y-86762500D02*
X118425000Y-85625000D01*
%TO.N,/BM1366-3/BO3*%
X69000000Y-154500000D02*
X67900000Y-155600000D01*
X67900000Y-155600000D02*
X65500000Y-155600000D01*
X70700000Y-154500000D02*
X69000000Y-154500000D01*
%TO.N,/BM1366-1/VDD1*%
X106300000Y-118500000D02*
X106300000Y-117100000D01*
X89990000Y-113100000D02*
X88220000Y-113100000D01*
X89790000Y-118300000D02*
X88020000Y-118300000D01*
D60*
X76562500Y-114100000D02*
X76700000Y-113962500D01*
D61*
X124780000Y-136037500D02*
X124780000Y-137600000D01*
X74480000Y-104200000D02*
X75600000Y-104200000D01*
X117580000Y-141700000D02*
X117300000Y-141420000D01*
X69450000Y-115950000D02*
X68450000Y-115950000D01*
X105100000Y-118500000D02*
X112020000Y-118500000D01*
X88000000Y-118280000D02*
X86980000Y-118280000D01*
D63*
X108900000Y-114162500D02*
X108800000Y-114062500D01*
D61*
X100000000Y-104250000D02*
X99520000Y-104730000D01*
X77000000Y-115600000D02*
X77000000Y-114262500D01*
X88200000Y-113800000D02*
X87900000Y-114100000D01*
X81620000Y-118100000D02*
X80400000Y-118100000D01*
X68450000Y-115950000D02*
X68000000Y-116400000D01*
X96980000Y-104750000D02*
X97000000Y-104730000D01*
D60*
X97480000Y-117300000D02*
X97500000Y-117280000D01*
D61*
X75250000Y-116000000D02*
X75650000Y-115600000D01*
X125600000Y-138420000D02*
X128660000Y-138420000D01*
D60*
X97500000Y-112080000D02*
X98980000Y-112080000D01*
X95537500Y-117300000D02*
X97480000Y-117300000D01*
D61*
X87000000Y-103750000D02*
X86250000Y-103750000D01*
X104080000Y-118500000D02*
X105100000Y-118500000D01*
X128660000Y-138420000D02*
X128680000Y-138440000D01*
X74380000Y-116000000D02*
X75250000Y-116000000D01*
D63*
X108900000Y-115800000D02*
X108900000Y-114162500D01*
D61*
X88220000Y-113100000D02*
X88200000Y-113080000D01*
X123960000Y-138420000D02*
X124780000Y-137600000D01*
X115600000Y-137700000D02*
X115100000Y-137700000D01*
X131180000Y-136110000D02*
X131180000Y-135680000D01*
X129930000Y-138440000D02*
X129980000Y-138390000D01*
X111720000Y-102800000D02*
X110600000Y-102800000D01*
D60*
X95437500Y-112100000D02*
X97420000Y-112100000D01*
D61*
X80400000Y-118100000D02*
X73980000Y-118100000D01*
X117300000Y-141420000D02*
X117300000Y-139400000D01*
X86250000Y-103750000D02*
X85750000Y-103250000D01*
X75650000Y-115600000D02*
X77000000Y-115600000D01*
X94250000Y-103750000D02*
X95250000Y-104750000D01*
X128680000Y-138440000D02*
X129930000Y-138440000D01*
X87000000Y-103750000D02*
X94250000Y-103750000D01*
X88200000Y-113080000D02*
X88200000Y-113800000D01*
D60*
X98980000Y-112080000D02*
X99000000Y-112100000D01*
D61*
X131180000Y-135680000D02*
X130600000Y-135100000D01*
X88020000Y-118300000D02*
X88000000Y-118280000D01*
X117300000Y-139400000D02*
X115600000Y-137700000D01*
X79800000Y-116900000D02*
X79800000Y-118100000D01*
D60*
X97500000Y-117280000D02*
X97520000Y-117300000D01*
D61*
X77000000Y-114262500D02*
X76700000Y-113962500D01*
X95250000Y-104750000D02*
X96980000Y-104750000D01*
X118230000Y-141700000D02*
X117580000Y-141700000D01*
X121030000Y-138420000D02*
X123960000Y-138420000D01*
X118230000Y-136080000D02*
X115800000Y-136080000D01*
X86980000Y-118280000D02*
X86700000Y-118000000D01*
D60*
X97520000Y-117300000D02*
X98600000Y-117300000D01*
D61*
X125400000Y-132400000D02*
X125400000Y-131600000D01*
X99520000Y-104730000D02*
X97000000Y-104730000D01*
X125600000Y-138420000D02*
X124780000Y-137600000D01*
%TO.N,/BM1366-2/VDD2*%
X105500000Y-146800000D02*
X104180000Y-146800000D01*
X89690000Y-142200000D02*
X89500000Y-142200000D01*
X59550000Y-118100000D02*
X60800000Y-118100000D01*
X89690000Y-147400000D02*
X89690000Y-147190000D01*
X64330000Y-111850000D02*
X60550000Y-111850000D01*
X100400000Y-132000000D02*
X102500000Y-132000000D01*
X88000000Y-142300000D02*
X87700000Y-142600000D01*
X89690000Y-147190000D02*
X89180000Y-146680000D01*
X59651900Y-104400000D02*
X59600000Y-104451900D01*
D60*
X60800000Y-119100000D02*
X60800000Y-118100000D01*
D61*
X88780000Y-141480000D02*
X88000000Y-141480000D01*
X111320000Y-143880000D02*
X111320000Y-144500000D01*
X111920000Y-146800000D02*
X105500000Y-146800000D01*
X75200000Y-146900000D02*
X75500000Y-146600000D01*
X71820000Y-131580000D02*
X72400000Y-131000000D01*
X60200000Y-114250000D02*
X60200000Y-112200000D01*
X87180000Y-146680000D02*
X86900000Y-146400000D01*
X88300000Y-146680000D02*
X87180000Y-146680000D01*
X80400000Y-146600000D02*
X81920000Y-146600000D01*
X56030000Y-111840000D02*
X59840000Y-111840000D01*
X88000000Y-141480000D02*
X88000000Y-142300000D01*
X89180000Y-146680000D02*
X88300000Y-146680000D01*
X106000000Y-144900000D02*
X106000000Y-146800000D01*
X75500000Y-146600000D02*
X80400000Y-146600000D01*
X114250000Y-142350000D02*
X112850000Y-142350000D01*
D60*
X96880000Y-141000000D02*
X96900000Y-140980000D01*
X96900000Y-146280000D02*
X98080000Y-146280000D01*
D61*
X79800000Y-145000000D02*
X79800000Y-146600000D01*
D60*
X96900000Y-140980000D02*
X96920000Y-141000000D01*
D61*
X60550000Y-111850000D02*
X60200000Y-112200000D01*
X112850000Y-142350000D02*
X111320000Y-143880000D01*
D60*
X96880000Y-146300000D02*
X96900000Y-146280000D01*
D61*
X113620000Y-131700000D02*
X112600000Y-131700000D01*
X110700000Y-144500000D02*
X109800000Y-143600000D01*
X109800000Y-143600000D02*
X108700000Y-143600000D01*
X111320000Y-144500000D02*
X110700000Y-144500000D01*
D60*
X96920000Y-141000000D02*
X98200000Y-141000000D01*
D61*
X84020000Y-132120000D02*
X83200000Y-131300000D01*
X84720000Y-132120000D02*
X84020000Y-132120000D01*
X59600000Y-104451900D02*
X59600000Y-105390000D01*
X89500000Y-142200000D02*
X88780000Y-141480000D01*
D60*
X94937500Y-141000000D02*
X96880000Y-141000000D01*
D61*
X75200000Y-146900000D02*
X74180000Y-146900000D01*
X102500000Y-132000000D02*
X103100000Y-131400000D01*
X59840000Y-111840000D02*
X60200000Y-112200000D01*
X69400000Y-131580000D02*
X71820000Y-131580000D01*
D60*
X94837500Y-146300000D02*
X96880000Y-146300000D01*
D61*
%TO.N,/BM1366-3/RI3*%
X70700000Y-153200000D02*
X68300000Y-153200000D01*
%TO.N,/BM1366-3/CLKO3*%
X70700000Y-151900000D02*
X69500000Y-151900000D01*
X69500000Y-151900000D02*
X67500000Y-149900000D01*
X67500000Y-149900000D02*
X65500000Y-149900000D01*
%TO.N,/BM1366-3/CO3*%
X69800000Y-150600000D02*
X67100000Y-147900000D01*
X70700000Y-150600000D02*
X69800000Y-150600000D01*
%TO.N,/BM1366-1/CLKI1*%
X120200000Y-103300000D02*
X120150000Y-103350000D01*
X120200000Y-101700000D02*
X120200000Y-103300000D01*
%TO.N,/BM1366-2/NRSTI2*%
X54780000Y-114120000D02*
X56000000Y-114120000D01*
X56990000Y-114090000D02*
X58090000Y-114090000D01*
X56030000Y-114090000D02*
X56990000Y-114090000D01*
X58090000Y-114090000D02*
X58250000Y-114250000D01*
X56000000Y-114120000D02*
X56030000Y-114090000D01*
%TO.N,/BM1366-2/BI2*%
X58175000Y-108600000D02*
X58250000Y-108525000D01*
X56000000Y-108600000D02*
X56030000Y-108630000D01*
X56030000Y-108630000D02*
X56060000Y-108600000D01*
X56060000Y-108600000D02*
X57000000Y-108600000D01*
X54780000Y-108600000D02*
X56000000Y-108600000D01*
X57000000Y-108600000D02*
X58175000Y-108600000D01*
%TO.N,/BM1366-2/RO2*%
X67400000Y-123300000D02*
X67990000Y-123300000D01*
X64900000Y-120800000D02*
X67400000Y-123300000D01*
X62150000Y-105377500D02*
X63200000Y-105377500D01*
X64900000Y-119100000D02*
X64900000Y-120800000D01*
%TO.N,/BM1366-2/CI2*%
X64330000Y-114120000D02*
X63320000Y-114120000D01*
X62280000Y-114120000D02*
X62150000Y-114250000D01*
X63320000Y-114120000D02*
X62280000Y-114120000D01*
X65630000Y-114130000D02*
X64340000Y-114130000D01*
X64340000Y-114130000D02*
X64330000Y-114120000D01*
%TO.N,/BM1366-3/NRSTI3*%
X119510000Y-141670000D02*
X119480000Y-141700000D01*
X120760000Y-141700000D02*
X120730000Y-141670000D01*
X121842500Y-141762500D02*
X121780000Y-141700000D01*
X120730000Y-141670000D02*
X119510000Y-141670000D01*
X122830000Y-141762500D02*
X121842500Y-141762500D01*
X121780000Y-141700000D02*
X120760000Y-141700000D01*
%TO.N,/BM1366-3/BI3*%
X120730000Y-136110000D02*
X119510000Y-136110000D01*
X121842500Y-136037500D02*
X121770000Y-136110000D01*
X121770000Y-136110000D02*
X120730000Y-136110000D01*
X119510000Y-136110000D02*
X119480000Y-136080000D01*
X122830000Y-136037500D02*
X121842500Y-136037500D01*
%TO.N,/BM1366-3/RO3*%
X125200000Y-148900000D02*
X120200000Y-148900000D01*
X118010000Y-151090000D02*
X118010000Y-152600000D01*
X120200000Y-148900000D02*
X118010000Y-151090000D01*
X126630000Y-132400000D02*
X127500000Y-132400000D01*
%TO.N,/BM1366-3/CI3*%
X129900000Y-141700000D02*
X129930000Y-141730000D01*
X127617500Y-141762500D02*
X126730000Y-141762500D01*
X127680000Y-141700000D02*
X127617500Y-141762500D01*
X127680000Y-141700000D02*
X128680000Y-141700000D01*
X128680000Y-141700000D02*
X129900000Y-141700000D01*
%TO.N,/BM1366-1/NRSTO*%
X67700000Y-99500000D02*
X68990000Y-99500000D01*
X58300000Y-118100000D02*
X57400000Y-118100000D01*
X64800000Y-102400000D02*
X67700000Y-99500000D01*
X63100000Y-102400000D02*
X64800000Y-102400000D01*
%TO.N,/BM1366-1/CO*%
X68990000Y-95000000D02*
X67800000Y-95000000D01*
X62050000Y-118100000D02*
X63100000Y-118100000D01*
X65200000Y-97600000D02*
X65200000Y-98900000D01*
X67800000Y-95000000D02*
X65200000Y-97600000D01*
%TO.N,/BM1366-1/BO*%
X67900000Y-98250000D02*
X68990000Y-98250000D01*
X64550000Y-101600000D02*
X67900000Y-98250000D01*
X61200000Y-101600000D02*
X64550000Y-101600000D01*
X58300000Y-104500000D02*
X61200000Y-101600000D01*
X58300000Y-105377500D02*
X58300000Y-104500000D01*
%TO.N,/BM1366-1/RI*%
X65510000Y-103490000D02*
X64400000Y-103490000D01*
X66100000Y-102900000D02*
X65510000Y-103490000D01*
%TO.N,/BM1366-2/RI*%
X127610000Y-130290000D02*
X128600000Y-130290000D01*
X115900000Y-124700000D02*
X118100000Y-124700000D01*
X127600000Y-130300000D02*
X127610000Y-130290000D01*
%TO.N,/BM1366-2/NRSTO*%
X118010000Y-122300000D02*
X119100000Y-122300000D01*
X122000000Y-145400000D02*
X122880000Y-145400000D01*
%TO.N,/BM1366-2/BO*%
X122880000Y-131280000D02*
X122880000Y-132400000D01*
X118600000Y-123600000D02*
X119400000Y-124400000D01*
X117920000Y-123600000D02*
X118600000Y-123600000D01*
X119400000Y-127800000D02*
X122880000Y-131280000D01*
X119400000Y-124400000D02*
X119400000Y-127800000D01*
%TO.N,/BM1366-2/CO*%
X117920000Y-127200000D02*
X117920000Y-130520000D01*
X126630000Y-145400000D02*
X127600000Y-145400000D01*
X117920000Y-130520000D02*
X118800000Y-131400000D01*
%TO.N,/ESP32/ASIC_RST*%
X121500000Y-78200000D02*
X120400000Y-79300000D01*
X121500000Y-69600000D02*
X121500000Y-78200000D01*
X117400000Y-67700000D02*
X119600000Y-67700000D01*
X119600000Y-67700000D02*
X121500000Y-69600000D01*
X120400000Y-79300000D02*
X120400000Y-81012500D01*
X115100000Y-63700000D02*
X115100000Y-65400000D01*
X115100000Y-65400000D02*
X117400000Y-67700000D01*
X120400000Y-81012500D02*
X120375000Y-81037500D01*
%TO.N,/ESP32/ESP32_TX*%
X119800000Y-67300000D02*
X121900000Y-69400000D01*
X121900000Y-78298368D02*
X121025000Y-79173368D01*
X114100000Y-63000000D02*
X115322633Y-63000000D01*
X117800000Y-67300000D02*
X119800000Y-67300000D01*
X115322633Y-63000000D02*
X116100000Y-63777367D01*
X116100000Y-63777367D02*
X116100000Y-65600000D01*
X121025000Y-79173368D02*
X121025000Y-81037500D01*
X116100000Y-65600000D02*
X117800000Y-67300000D01*
X121900000Y-69400000D02*
X121900000Y-78298368D01*
%TO.N,/ESP32/ESP32_RX*%
X118100000Y-66900000D02*
X120000000Y-66900000D01*
X121700000Y-79200000D02*
X121700000Y-81012500D01*
X120000000Y-66900000D02*
X122300000Y-69200000D01*
X112700000Y-63000000D02*
X113352400Y-62347600D01*
X122300000Y-69200000D02*
X122300000Y-78600000D01*
X116700000Y-65500000D02*
X118100000Y-66900000D01*
X113352400Y-62347600D02*
X115547600Y-62347600D01*
X122300000Y-78600000D02*
X121700000Y-79200000D01*
X121700000Y-81012500D02*
X121675000Y-81037500D01*
X116700000Y-63500000D02*
X116700000Y-65500000D01*
X115547600Y-62347600D02*
X116700000Y-63500000D01*
%TO.N,Net-(U9-SPIIO6{slash}GPIO35{slash}FSPID{slash}SUBSPID)*%
X123500000Y-62448100D02*
X122148100Y-62448100D01*
X121500000Y-61800000D02*
X120200000Y-61800000D01*
X122148100Y-62448100D02*
X121500000Y-61800000D01*
%TO.N,Net-(U9-SPIIO7{slash}GPIO36{slash}FSPICLK{slash}SUBSPICLK)*%
X121600000Y-60200000D02*
X117800000Y-60200000D01*
X123500000Y-61300000D02*
X122700000Y-61300000D01*
X122700000Y-61300000D02*
X121600000Y-60200000D01*
%TO.N,Net-(U9-SPIDQS{slash}GPIO37{slash}FSPIQ{slash}SUBSPIQ)*%
X121600000Y-58100000D02*
X117800000Y-58100000D01*
X123500000Y-60000000D02*
X121600000Y-58100000D01*
%TO.N,Net-(U9-GPIO38{slash}FSPIWP{slash}SUBSPIWP)*%
X123500000Y-58700000D02*
X120900000Y-56100000D01*
X120900000Y-56100000D02*
X117800000Y-56100000D01*
%TO.N,Net-(U9-MTCK{slash}GPIO39{slash}CLK_OUT3{slash}SUBSPICS1)*%
X120500000Y-54100000D02*
X117800000Y-54100000D01*
X123500000Y-55000000D02*
X121400000Y-55000000D01*
X121400000Y-55000000D02*
X120500000Y-54100000D01*
%TO.N,Net-(U9-GPIO12{slash}TOUCH12{slash}ADC2_CH1{slash}FSPICLK{slash}FSPIIO6{slash}SUBSPICLK)*%
X112940000Y-67500000D02*
X112940000Y-66840000D01*
X111200000Y-65100000D02*
X110000000Y-65100000D01*
X112940000Y-66840000D02*
X111200000Y-65100000D01*
%TO.N,Net-(U9-GPIO13{slash}TOUCH13{slash}ADC2_CH2{slash}FSPIQ{slash}FSPIIO7{slash}SUBSPIQ)*%
X114000000Y-67500000D02*
X115300000Y-67500000D01*
X115300000Y-67500000D02*
X115400000Y-67600000D01*
%TO.N,Net-(U9-GPIO14{slash}TOUCH14{slash}ADC2_CH3{slash}FSPIWP{slash}FSPIDQS{slash}SUBSPIWP)*%
X111700000Y-63900000D02*
X110900000Y-63100000D01*
X110900000Y-63100000D02*
X110000000Y-63100000D01*
%TO.N,Net-(U9-\u002AGPIO46)*%
X106500000Y-59500000D02*
X107200000Y-58800000D01*
X106500000Y-61600000D02*
X106500000Y-59500000D01*
X107200000Y-58800000D02*
X108500000Y-58800000D01*
%TO.N,Net-(U26-ADJ)*%
X90710000Y-141410000D02*
X90710000Y-142200000D01*
X91650000Y-141950000D02*
X91400000Y-142200000D01*
X89790000Y-140490000D02*
X90710000Y-141410000D01*
X91400000Y-142200000D02*
X90710000Y-142200000D01*
X89790000Y-139700000D02*
X89790000Y-140490000D01*
X92662500Y-141950000D02*
X91650000Y-141950000D01*
%TO.N,Net-(U24-VDD3_0)*%
X115540000Y-157140000D02*
X115900000Y-157140000D01*
X114600000Y-156200000D02*
X115540000Y-157140000D01*
X117100000Y-157100000D02*
X115940000Y-157100000D01*
X115940000Y-157100000D02*
X115900000Y-157140000D01*
%TO.N,Net-(U24-VDD2_0)*%
X115900000Y-158100000D02*
X115900000Y-159340000D01*
X114600000Y-157400000D02*
X115300000Y-158100000D01*
X115300000Y-158100000D02*
X115900000Y-158100000D01*
%TO.N,Net-(U24-VDD1_0)*%
X114600000Y-158720000D02*
X114600000Y-159820000D01*
X115080000Y-160300000D02*
X114600000Y-159820000D01*
X114620000Y-158700000D02*
X114600000Y-158720000D01*
X115900000Y-160300000D02*
X115080000Y-160300000D01*
%TO.N,Net-(U24-RI)*%
X97600000Y-152900000D02*
X100800000Y-152900000D01*
X96700000Y-153800000D02*
X97600000Y-152900000D01*
X87110000Y-153800000D02*
X96700000Y-153800000D01*
%TO.N,Net-(U24-NRSTO)*%
X100800000Y-155200000D02*
X99810000Y-155200000D01*
%TO.N,Net-(U24-NC)*%
X99400000Y-148800000D02*
X99400000Y-147810000D01*
%TO.N,Net-(U24-MODEO)*%
X115200000Y-147700000D02*
X115200000Y-147400000D01*
X115200000Y-147400000D02*
X114980000Y-147180000D01*
X114980000Y-147180000D02*
X114980000Y-146800000D01*
%TO.N,Net-(U24-CO)*%
X100800000Y-150500000D02*
X99810000Y-150500000D01*
%TO.N,Net-(U24-CLKO)*%
X100800000Y-151700000D02*
X99810000Y-151700000D01*
%TO.N,Net-(U24-BO)*%
X100800000Y-154000000D02*
X99810000Y-154000000D01*
%TO.N,Net-(U23D--)*%
X127680000Y-137620000D02*
X128200000Y-137100000D01*
X129900000Y-137100000D02*
X129930000Y-137130000D01*
X126080000Y-136037500D02*
X126080000Y-137200000D01*
X129930000Y-137130000D02*
X131180000Y-137130000D01*
X126500000Y-137620000D02*
X127680000Y-137620000D01*
X128680000Y-137100000D02*
X129900000Y-137100000D01*
X126080000Y-137200000D02*
X126500000Y-137620000D01*
X128200000Y-137100000D02*
X128680000Y-137100000D01*
%TO.N,Net-(U23D-+)*%
X125430000Y-136037500D02*
X125430000Y-133470000D01*
X126630000Y-133420000D02*
X125380000Y-133420000D01*
%TO.N,Net-(U23C--)*%
X120730000Y-137070000D02*
X119510000Y-137070000D01*
X119480000Y-137100000D02*
X118230000Y-137100000D01*
X121660000Y-137080000D02*
X121030000Y-137080000D01*
X122980000Y-137600000D02*
X122180000Y-137600000D01*
X123480000Y-136037500D02*
X123480000Y-137100000D01*
X123480000Y-137100000D02*
X122980000Y-137600000D01*
X122180000Y-137600000D02*
X121660000Y-137080000D01*
X119510000Y-137070000D02*
X119480000Y-137100000D01*
%TO.N,Net-(U23C-+)*%
X124130000Y-133420000D02*
X122880000Y-133420000D01*
X124130000Y-136037500D02*
X124130000Y-133420000D01*
%TO.N,Net-(U23B--)*%
X119510000Y-140710000D02*
X119480000Y-140680000D01*
X123480000Y-140700000D02*
X122980000Y-140200000D01*
X121760000Y-140720000D02*
X121030000Y-140720000D01*
X122280000Y-140200000D02*
X121760000Y-140720000D01*
X122980000Y-140200000D02*
X122280000Y-140200000D01*
X119480000Y-140680000D02*
X118230000Y-140680000D01*
X123480000Y-141762500D02*
X123480000Y-140700000D01*
X120730000Y-140710000D02*
X119510000Y-140710000D01*
%TO.N,Net-(U23B-+)*%
X124130000Y-144380000D02*
X122880000Y-144380000D01*
X124130000Y-141762500D02*
X124130000Y-144380000D01*
%TO.N,Net-(U23A--)*%
X126580000Y-140100000D02*
X127660000Y-140100000D01*
X129980000Y-140660000D02*
X129930000Y-140710000D01*
X128300000Y-140740000D02*
X128680000Y-140740000D01*
X128680000Y-140740000D02*
X129900000Y-140740000D01*
X126080000Y-141762500D02*
X126080000Y-140600000D01*
X129900000Y-140740000D02*
X129930000Y-140710000D01*
X129980000Y-139410000D02*
X129980000Y-140660000D01*
X126080000Y-140600000D02*
X126580000Y-140100000D01*
X127660000Y-140100000D02*
X128300000Y-140740000D01*
%TO.N,Net-(U23A-+)*%
X125380000Y-144380000D02*
X126630000Y-144380000D01*
X125430000Y-141762500D02*
X125430000Y-144330000D01*
X125430000Y-144330000D02*
X125380000Y-144380000D01*
%TO.N,Net-(U22-VDD4_1)*%
X70500000Y-127600000D02*
X68240000Y-127600000D01*
X68240000Y-127600000D02*
X68200000Y-127640000D01*
%TO.N,Net-(U22-VDD3_1)*%
X71200000Y-128500000D02*
X71080000Y-128620000D01*
X68200000Y-128600000D02*
X69380000Y-128600000D01*
X71080000Y-128620000D02*
X69400000Y-128620000D01*
X69380000Y-128600000D02*
X69400000Y-128620000D01*
%TO.N,Net-(U22-VDD2_1)*%
X69360000Y-129620000D02*
X68200000Y-129620000D01*
X70500000Y-129400000D02*
X70320000Y-129580000D01*
X69400000Y-129580000D02*
X69360000Y-129620000D01*
X70320000Y-129580000D02*
X69400000Y-129580000D01*
%TO.N,Net-(U22-VDD1_1)*%
X71200000Y-130300000D02*
X70500000Y-130300000D01*
X69400000Y-130620000D02*
X69360000Y-130580000D01*
X70500000Y-130300000D02*
X70180000Y-130620000D01*
X69360000Y-130580000D02*
X68200000Y-130580000D01*
X70180000Y-130620000D02*
X69400000Y-130620000D01*
%TO.N,Net-(U22-RI)*%
X98800000Y-124500000D02*
X99200000Y-124900000D01*
X99200000Y-124900000D02*
X99990000Y-124900000D01*
X84500000Y-124500000D02*
X98800000Y-124500000D01*
%TO.N,Net-(U22-NRSTO)*%
X85500000Y-122600000D02*
X86690000Y-122600000D01*
%TO.N,Net-(U22-MODE_1)*%
X70720000Y-118580000D02*
X70720000Y-118000000D01*
X70500000Y-118800000D02*
X70720000Y-118580000D01*
X69210000Y-118000000D02*
X69200000Y-117990000D01*
X70500000Y-119250000D02*
X70500000Y-118800000D01*
X70720000Y-118000000D02*
X69210000Y-118000000D01*
%TO.N,Net-(U22-MODE_0)*%
X70500000Y-120400000D02*
X70000000Y-120400000D01*
X70000000Y-120400000D02*
X69200000Y-119600000D01*
X69200000Y-119600000D02*
X69200000Y-119010000D01*
%TO.N,Net-(U22-CO)*%
X85500000Y-126600000D02*
X86590000Y-126600000D01*
%TO.N,Net-(U22-CLKO)*%
X85500000Y-125300000D02*
X86590000Y-125300000D01*
%TO.N,Net-(U22-BO)*%
X85500000Y-123700000D02*
X86690000Y-123700000D01*
%TO.N,Net-(U21-ADJ)*%
X91010000Y-112610000D02*
X91010000Y-113100000D01*
X93162500Y-113050000D02*
X91060000Y-113050000D01*
X91060000Y-113050000D02*
X91010000Y-113100000D01*
X89990000Y-111200000D02*
X89990000Y-111590000D01*
X89990000Y-111590000D02*
X91010000Y-112610000D01*
%TO.N,Net-(U19-VDD4_1)*%
X86790000Y-128020000D02*
X86790000Y-128510000D01*
X100300000Y-128200000D02*
X100140000Y-128040000D01*
X100140000Y-128040000D02*
X99300000Y-128040000D01*
X88000000Y-129020000D02*
X88880000Y-129020000D01*
X101000000Y-128200000D02*
X100300000Y-128200000D01*
X89860000Y-128040000D02*
X99300000Y-128040000D01*
X85500000Y-128020000D02*
X86790000Y-128020000D01*
X86790000Y-128510000D02*
X87300000Y-129020000D01*
X88880000Y-129020000D02*
X89860000Y-128040000D01*
X87300000Y-129020000D02*
X88000000Y-129020000D01*
%TO.N,Net-(U19-VDD4_0)*%
X115900000Y-128300000D02*
X116900000Y-128300000D01*
%TO.N,Net-(U19-VDD3_1)*%
X87960000Y-130020000D02*
X88000000Y-129980000D01*
X100440000Y-129000000D02*
X100400000Y-129040000D01*
X99340000Y-129040000D02*
X99300000Y-129000000D01*
X90400000Y-129000000D02*
X99300000Y-129000000D01*
X86700000Y-130020000D02*
X87960000Y-130020000D01*
X84600000Y-128820000D02*
X86200000Y-128820000D01*
X101700000Y-129000000D02*
X100440000Y-129000000D01*
X88000000Y-129980000D02*
X89420000Y-129980000D01*
X86700000Y-129320000D02*
X86700000Y-130020000D01*
X86200000Y-128820000D02*
X86700000Y-129320000D01*
X100400000Y-129040000D02*
X99340000Y-129040000D01*
X89420000Y-129980000D02*
X90400000Y-129000000D01*
%TO.N,Net-(U19-VDD3_0)*%
X114600000Y-128300000D02*
X115600000Y-129300000D01*
X115900000Y-129300000D02*
X116860000Y-129300000D01*
X116860000Y-129300000D02*
X116900000Y-129260000D01*
X115600000Y-129300000D02*
X115900000Y-129300000D01*
%TO.N,Net-(U19-VDD2_1)*%
X101700000Y-130000000D02*
X100400000Y-130000000D01*
X99340000Y-130000000D02*
X99300000Y-130040000D01*
X85500000Y-130520000D02*
X85960000Y-130980000D01*
X100400000Y-130000000D02*
X99340000Y-130000000D01*
X85960000Y-130980000D02*
X86700000Y-130980000D01*
X85500000Y-129520000D02*
X85500000Y-130520000D01*
X87300000Y-131120000D02*
X88000000Y-131120000D01*
X87160000Y-130980000D02*
X87300000Y-131120000D01*
X90960000Y-130040000D02*
X99300000Y-130040000D01*
X89880000Y-131120000D02*
X90960000Y-130040000D01*
X88000000Y-131120000D02*
X89880000Y-131120000D01*
X86700000Y-130980000D02*
X87160000Y-130980000D01*
%TO.N,Net-(U19-VDD2_0)*%
X115460000Y-130260000D02*
X115900000Y-130260000D01*
X115900000Y-130260000D02*
X115900000Y-131220000D01*
X114600000Y-129400000D02*
X115460000Y-130260000D01*
%TO.N,Net-(U19-VDD1_1)*%
X100400000Y-131040000D02*
X99340000Y-131040000D01*
X101700000Y-131100000D02*
X100460000Y-131100000D01*
X85680000Y-132120000D02*
X87960000Y-132120000D01*
X91800000Y-131000000D02*
X99300000Y-131000000D01*
X87960000Y-132120000D02*
X88000000Y-132080000D01*
X100460000Y-131100000D02*
X100400000Y-131040000D01*
X99340000Y-131040000D02*
X99300000Y-131000000D01*
X85680000Y-131500000D02*
X85680000Y-132120000D01*
X88000000Y-132080000D02*
X90720000Y-132080000D01*
X84600000Y-130220000D02*
X84600000Y-130420000D01*
X90720000Y-132080000D02*
X91800000Y-131000000D01*
X84600000Y-130420000D02*
X85680000Y-131500000D01*
%TO.N,Net-(U19-VDD1_0)*%
X115900000Y-132180000D02*
X115060000Y-132180000D01*
X114600000Y-131680000D02*
X114580000Y-131700000D01*
X114600000Y-130500000D02*
X114600000Y-131680000D01*
X115060000Y-132180000D02*
X114580000Y-131700000D01*
%TO.N,Net-(U19-RO)*%
X101500000Y-124900000D02*
X101010000Y-124900000D01*
X101900000Y-125300000D02*
X101500000Y-124900000D01*
%TO.N,Net-(U19-NRSTO)*%
X116000000Y-122300000D02*
X116990000Y-122300000D01*
%TO.N,Net-(U19-NRSTI)*%
X89600000Y-127100000D02*
X88680000Y-128020000D01*
X87710000Y-122600000D02*
X100600000Y-122600000D01*
X92200000Y-127100000D02*
X89600000Y-127100000D01*
X100600000Y-122600000D02*
X100700000Y-122500000D01*
X88680000Y-128020000D02*
X87810000Y-128020000D01*
%TO.N,Net-(U19-MODE_1)*%
X100420000Y-119620000D02*
X100420000Y-118500000D01*
X95100000Y-122000000D02*
X99900000Y-122000000D01*
X100700000Y-121200000D02*
X100700000Y-119900000D01*
X85500000Y-119500000D02*
X85180000Y-119180000D01*
X99110000Y-118500000D02*
X99100000Y-118490000D01*
X99900000Y-122000000D02*
X100700000Y-121200000D01*
X100420000Y-118500000D02*
X99110000Y-118500000D01*
X100700000Y-119900000D02*
X100420000Y-119620000D01*
X92600000Y-119500000D02*
X95100000Y-122000000D01*
X85500000Y-119500000D02*
X92600000Y-119500000D01*
X85180000Y-119180000D02*
X85180000Y-118100000D01*
%TO.N,Net-(U19-MODE_0)*%
X99800000Y-120900000D02*
X99100000Y-120200000D01*
X99100000Y-120200000D02*
X99100000Y-119510000D01*
%TO.N,Net-(U19-MODEO)*%
X115400000Y-119000000D02*
X115400000Y-119700000D01*
X115180000Y-118500000D02*
X115180000Y-118780000D01*
X115180000Y-118780000D02*
X115400000Y-119000000D01*
%TO.N,Net-(U19-CO)*%
X115910000Y-127200000D02*
X116900000Y-127200000D01*
%TO.N,Net-(U19-CLKO)*%
X115910000Y-126000000D02*
X116900000Y-126000000D01*
%TO.N,Net-(U19-CLKI)*%
X98600000Y-125300000D02*
X99400000Y-126100000D01*
X87610000Y-125300000D02*
X98600000Y-125300000D01*
X99400000Y-126100000D02*
X100700000Y-126100000D01*
%TO.N,Net-(U19-CI)*%
X87610000Y-126600000D02*
X88200000Y-126600000D01*
X98400000Y-126100000D02*
X99500000Y-127200000D01*
X88200000Y-126600000D02*
X88700000Y-126100000D01*
X88700000Y-126100000D02*
X98400000Y-126100000D01*
X99500000Y-127200000D02*
X100700000Y-127200000D01*
%TO.N,Net-(U19-BO)*%
X115910000Y-123600000D02*
X116900000Y-123600000D01*
%TO.N,Net-(U19-BI)*%
X87710000Y-123700000D02*
X100700000Y-123700000D01*
%TO.N,Net-(U18D--)*%
X61500000Y-109800000D02*
X61500000Y-108525000D01*
X65630000Y-109630000D02*
X66880000Y-109630000D01*
X64330000Y-109600000D02*
X63300000Y-109600000D01*
X63300000Y-109600000D02*
X62800000Y-110100000D01*
X61800000Y-110100000D02*
X61500000Y-109800000D01*
X65600000Y-109600000D02*
X65630000Y-109630000D01*
X64330000Y-109600000D02*
X65600000Y-109600000D01*
X62800000Y-110100000D02*
X61800000Y-110100000D01*
%TO.N,Net-(U18D-+)*%
X60850000Y-106447500D02*
X60900000Y-106397500D01*
X60900000Y-106397500D02*
X62150000Y-106397500D01*
X60850000Y-108525000D02*
X60850000Y-106447500D01*
%TO.N,Net-(U18C--)*%
X56000000Y-109620000D02*
X56030000Y-109590000D01*
X56440000Y-110000000D02*
X58500000Y-110000000D01*
X58900000Y-109600000D02*
X58900000Y-108525000D01*
X54780000Y-109620000D02*
X56000000Y-109620000D01*
X58500000Y-110000000D02*
X58900000Y-109600000D01*
X56030000Y-109590000D02*
X56440000Y-110000000D01*
X54800000Y-109610000D02*
X53600000Y-109610000D01*
%TO.N,Net-(U18C-+)*%
X58312500Y-106410000D02*
X58300000Y-106397500D01*
X59550000Y-106460000D02*
X59600000Y-106410000D01*
X59600000Y-106410000D02*
X58312500Y-106410000D01*
X59550000Y-108525000D02*
X59550000Y-106460000D01*
%TO.N,Net-(U18B--)*%
X58600000Y-112800000D02*
X58900000Y-113100000D01*
X54780000Y-113100000D02*
X56000000Y-113100000D01*
X54780000Y-113100000D02*
X54780000Y-111930000D01*
X56030000Y-113130000D02*
X56360000Y-112800000D01*
X56360000Y-112800000D02*
X58600000Y-112800000D01*
X56000000Y-113100000D02*
X56030000Y-113130000D01*
X58900000Y-113100000D02*
X58900000Y-114250000D01*
X54780000Y-111930000D02*
X54800000Y-111910000D01*
%TO.N,Net-(U18B-+)*%
X58300000Y-117080000D02*
X59550000Y-117080000D01*
X59550000Y-117080000D02*
X59550000Y-114250000D01*
%TO.N,Net-(U18A--)*%
X61500000Y-113100000D02*
X61500000Y-114250000D01*
X64330000Y-113160000D02*
X65580000Y-113160000D01*
X65630000Y-113110000D02*
X66880000Y-113110000D01*
X63460000Y-113160000D02*
X63100000Y-112800000D01*
X63100000Y-112800000D02*
X61800000Y-112800000D01*
X61800000Y-112800000D02*
X61500000Y-113100000D01*
X64330000Y-113160000D02*
X63460000Y-113160000D01*
X65580000Y-113160000D02*
X65630000Y-113110000D01*
%TO.N,Net-(U18A-+)*%
X60850000Y-114250000D02*
X60850000Y-117030000D01*
X62050000Y-117080000D02*
X60800000Y-117080000D01*
X60850000Y-117030000D02*
X60800000Y-117080000D01*
%TO.N,Net-(U16-VDD3_1)*%
X69000000Y-102230000D02*
X70210000Y-102230000D01*
X70250000Y-101500000D02*
X70250000Y-102270000D01*
X70210000Y-102230000D02*
X70250000Y-102270000D01*
%TO.N,Net-(U16-VDD2_1)*%
X71460000Y-103230000D02*
X71500000Y-103270000D01*
X71500000Y-103270000D02*
X71500000Y-102500000D01*
X70250000Y-103230000D02*
X71460000Y-103230000D01*
%TO.N,Net-(U16-VDD1_1)*%
X72700000Y-103300000D02*
X72700000Y-104230000D01*
X72700000Y-104230000D02*
X73490000Y-104230000D01*
X72750000Y-103250000D02*
X72700000Y-103300000D01*
X71500000Y-104230000D02*
X72700000Y-104230000D01*
X73490000Y-104230000D02*
X73520000Y-104200000D01*
%TO.N,Net-(U16-RO)*%
X84250000Y-97250000D02*
X85240000Y-97250000D01*
%TO.N,Net-(U16-NRSTO)*%
X70010000Y-99500000D02*
X71000000Y-99500000D01*
%TO.N,Net-(U16-NRSTI)*%
X97700000Y-99710000D02*
X98690000Y-99710000D01*
X98910000Y-99490000D02*
X100000000Y-99490000D01*
X98690000Y-99710000D02*
X98910000Y-99490000D01*
X84471979Y-99207969D02*
X84679948Y-99000000D01*
X84679948Y-99000000D02*
X95700000Y-99000000D01*
X96410000Y-99710000D02*
X97700000Y-99710000D01*
X95700000Y-99000000D02*
X96410000Y-99710000D01*
%TO.N,Net-(U16-NC)*%
X71100000Y-93750000D02*
X70010000Y-93750000D01*
%TO.N,Net-(U16-MODE_1)*%
X68990000Y-92760000D02*
X68990000Y-93750000D01*
X69750000Y-92000000D02*
X69750000Y-90460000D01*
X69000000Y-92750000D02*
X68990000Y-92760000D01*
X69000000Y-92750000D02*
X69750000Y-92000000D01*
%TO.N,Net-(U16-CO)*%
X70010000Y-95000000D02*
X71100000Y-95000000D01*
%TO.N,Net-(U16-CLKO)*%
X71100000Y-96250000D02*
X70010000Y-96250000D01*
%TO.N,Net-(U16-CLKI)*%
X87250000Y-97000000D02*
X96100000Y-97000000D01*
X84000000Y-96250000D02*
X86500000Y-96250000D01*
X96100000Y-97000000D02*
X97000000Y-96100000D01*
X97000000Y-96100000D02*
X99990000Y-96100000D01*
X86500000Y-96250000D02*
X87250000Y-97000000D01*
%TO.N,Net-(U16-CI)*%
X84750000Y-95250000D02*
X86250000Y-95250000D01*
X95800000Y-96500000D02*
X97500000Y-94800000D01*
X86250000Y-95250000D02*
X87500000Y-96500000D01*
X97500000Y-94800000D02*
X99990000Y-94800000D01*
X87500000Y-96500000D02*
X95800000Y-96500000D01*
%TO.N,Net-(U16-BO)*%
X70010000Y-98250000D02*
X71000000Y-98250000D01*
%TO.N,Net-(U16-BI)*%
X83750000Y-98250000D02*
X96650000Y-98250000D01*
X97100000Y-97800000D02*
X98890000Y-97800000D01*
X96650000Y-98250000D02*
X97100000Y-97800000D01*
%TO.N,Net-(U15-ADJ)*%
X90210000Y-87600000D02*
X90900000Y-87600000D01*
X89190000Y-85990000D02*
X89190000Y-85300000D01*
X90210000Y-87010000D02*
X89190000Y-85990000D01*
X91250000Y-87250000D02*
X92462500Y-87250000D01*
X90210000Y-87600000D02*
X90210000Y-87010000D01*
X90900000Y-87600000D02*
X91250000Y-87250000D01*
%TO.N,Net-(U13-VDD3_1)*%
X97040000Y-101730000D02*
X97000000Y-101770000D01*
X94550000Y-100750000D02*
X95550000Y-101750000D01*
X95550000Y-101750000D02*
X96980000Y-101750000D01*
X99000000Y-101500000D02*
X98750000Y-101750000D01*
X88250000Y-100750000D02*
X94550000Y-100750000D01*
X98730000Y-101730000D02*
X98250000Y-101730000D01*
X96980000Y-101750000D02*
X97000000Y-101770000D01*
X87000000Y-100750000D02*
X88250000Y-100750000D01*
X101250000Y-101500000D02*
X99000000Y-101500000D01*
X98250000Y-101730000D02*
X97040000Y-101730000D01*
X87000000Y-100750000D02*
X84514010Y-100750000D01*
X98750000Y-101750000D02*
X98730000Y-101730000D01*
X84514010Y-100750000D02*
X84471979Y-100707969D01*
%TO.N,Net-(U13-VDD3_0)*%
X117460000Y-100790000D02*
X117500000Y-100750000D01*
X116250000Y-100790000D02*
X117460000Y-100790000D01*
X116250000Y-100790000D02*
X116250000Y-99750000D01*
%TO.N,Net-(U13-VDD2_1)*%
X88250000Y-101790000D02*
X94490000Y-101790000D01*
X94490000Y-101790000D02*
X95450000Y-102750000D01*
X98980000Y-102770000D02*
X98250000Y-102770000D01*
X88170000Y-101710000D02*
X88250000Y-101790000D01*
X87000000Y-101710000D02*
X88170000Y-101710000D01*
X86000000Y-101500000D02*
X85500000Y-101500000D01*
X97040000Y-102770000D02*
X97000000Y-102730000D01*
X86210000Y-101710000D02*
X86000000Y-101500000D01*
X99500000Y-102250000D02*
X98980000Y-102770000D01*
X95450000Y-102750000D02*
X96980000Y-102750000D01*
X96980000Y-102750000D02*
X97000000Y-102730000D01*
X87000000Y-101710000D02*
X86210000Y-101710000D01*
X98250000Y-102770000D02*
X97040000Y-102770000D01*
%TO.N,Net-(U13-VDD2_0)*%
X115000000Y-101790000D02*
X116210000Y-101790000D01*
X116210000Y-101790000D02*
X116250000Y-101750000D01*
X115000000Y-101790000D02*
X115000000Y-100750000D01*
%TO.N,Net-(U13-VDD1_1)*%
X98250000Y-103730000D02*
X97040000Y-103730000D01*
X88210000Y-102790000D02*
X88250000Y-102750000D01*
X94500000Y-102750000D02*
X95520000Y-103770000D01*
X100000000Y-103000000D02*
X99270000Y-103730000D01*
X85750000Y-102250000D02*
X84500000Y-102250000D01*
X88250000Y-102750000D02*
X94500000Y-102750000D01*
X87000000Y-102790000D02*
X88210000Y-102790000D01*
X87000000Y-102790000D02*
X86290000Y-102790000D01*
X99270000Y-103730000D02*
X98250000Y-103730000D01*
X97040000Y-103730000D02*
X97000000Y-103770000D01*
X101300000Y-103000000D02*
X100000000Y-103000000D01*
X86290000Y-102790000D02*
X85750000Y-102250000D01*
X95520000Y-103770000D02*
X97000000Y-103770000D01*
%TO.N,Net-(U13-VDD1_0)*%
X113750000Y-102790000D02*
X113750000Y-101750000D01*
X113750000Y-102790000D02*
X112690000Y-102790000D01*
X112690000Y-102790000D02*
X112680000Y-102800000D01*
X113750000Y-102790000D02*
X114960000Y-102790000D01*
X114960000Y-102790000D02*
X115000000Y-102750000D01*
%TO.N,Net-(U13-RI)*%
X101400000Y-96900000D02*
X97050000Y-96900000D01*
X86750000Y-97250000D02*
X86260000Y-97250000D01*
X101750000Y-97250000D02*
X101400000Y-96900000D01*
X97050000Y-96900000D02*
X96450000Y-97500000D01*
X96450000Y-97500000D02*
X87000000Y-97500000D01*
X87000000Y-97500000D02*
X86750000Y-97250000D01*
%TO.N,Net-(U13-NRSTO)*%
X100590000Y-98690000D02*
X101100000Y-99200000D01*
X101100000Y-99200000D02*
X101100000Y-99500000D01*
X97700000Y-98690000D02*
X100590000Y-98690000D01*
%TO.N,Net-(U13-NC)*%
X101010000Y-93500000D02*
X101750000Y-93500000D01*
X101750000Y-93500000D02*
X102250000Y-94000000D01*
%TO.N,Net-(U13-MODE_1)*%
X85400000Y-92600000D02*
X84750000Y-93250000D01*
X95500000Y-96000000D02*
X87900000Y-96000000D01*
X99990000Y-93500000D02*
X98000000Y-93500000D01*
X87900000Y-96000000D02*
X85150000Y-93250000D01*
X98000000Y-93500000D02*
X95500000Y-96000000D01*
X85400000Y-92230000D02*
X85400000Y-92600000D01*
X100000000Y-92500000D02*
X100000000Y-91520000D01*
X85150000Y-93250000D02*
X84750000Y-93250000D01*
X100000000Y-92500000D02*
X100000000Y-93490000D01*
X100000000Y-91520000D02*
X100020000Y-91500000D01*
X100000000Y-93490000D02*
X99990000Y-93500000D01*
%TO.N,Net-(U13-MODEO)*%
X116250000Y-92500000D02*
X116250000Y-91520000D01*
X116250000Y-91520000D02*
X116230000Y-91500000D01*
%TO.N,Net-(U13-CO)*%
X101010000Y-94800000D02*
X101800000Y-94800000D01*
X101800000Y-94800000D02*
X102000000Y-95000000D01*
%TO.N,Net-(U13-CLKO)*%
X102100000Y-96100000D02*
X102250000Y-96250000D01*
X101010000Y-96100000D02*
X102100000Y-96100000D01*
%TO.N,Net-(U13-BO)*%
X100850000Y-97800000D02*
X99910000Y-97800000D01*
X101300000Y-98250000D02*
X100850000Y-97800000D01*
%TO.N,Net-(J4-CC2)*%
X95710000Y-51490000D02*
X95700000Y-51500000D01*
X95710000Y-50300000D02*
X95710000Y-51490000D01*
%TO.N,Net-(J4-CC1)*%
X98760000Y-51460000D02*
X98790000Y-51430000D01*
X98790000Y-51430000D02*
X98790000Y-50300000D01*
%TO.N,/BM1366-2/CLKI1*%
X68990000Y-96250000D02*
X68150000Y-96250000D01*
X68450000Y-114050000D02*
X66900000Y-115600000D01*
X69450000Y-114050000D02*
X68450000Y-114050000D01*
X68150000Y-96250000D02*
X68100000Y-96300000D01*
%TO.N,/BM1366-3/CLKI1*%
X118800000Y-130100000D02*
X119700000Y-131000000D01*
X118900000Y-144200000D02*
X117050000Y-142350000D01*
X119700000Y-131000000D02*
X120300000Y-131000000D01*
X117050000Y-142350000D02*
X116150000Y-142350000D01*
X119800000Y-146300000D02*
X118900000Y-145400000D01*
X117920000Y-126000000D02*
X118500000Y-126000000D01*
X118800000Y-126300000D02*
X118800000Y-130100000D01*
X118900000Y-145400000D02*
X118900000Y-144200000D01*
X118500000Y-126000000D02*
X118800000Y-126300000D01*
%TO.N,Net-(U9-MTDO{slash}GPIO40{slash}CLK_OUT2)*%
X116700000Y-53200000D02*
X117800000Y-52100000D01*
%TO.N,Net-(U9-MTDI{slash}GPIO41{slash}CLK_OUT1)*%
X119200000Y-53100000D02*
X119200000Y-51500000D01*
X119200000Y-51500000D02*
X117800000Y-50100000D01*
%TO.N,Net-(U9-MTMS{slash}GPIO42)*%
X123600000Y-53700000D02*
X124800000Y-52500000D01*
X123500000Y-53700000D02*
X123600000Y-53700000D01*
%TD*%
%TA.AperFunction,Conductor*%
%TO.N,GND*%
G36*
X114515677Y-106119685D02*
G01*
X114536319Y-106136319D01*
X116163680Y-107763680D01*
X116197165Y-107825003D01*
X116199999Y-107851361D01*
X116200000Y-110048637D01*
X116180315Y-110115676D01*
X116163681Y-110136318D01*
X115436319Y-110863681D01*
X115374996Y-110897166D01*
X115348638Y-110900000D01*
X113551362Y-110900000D01*
X113484323Y-110880315D01*
X113463681Y-110863681D01*
X110800000Y-108200000D01*
X106500000Y-108200000D01*
X106500000Y-109476000D01*
X106480315Y-109543039D01*
X106427511Y-109588794D01*
X106376000Y-109600000D01*
X101800000Y-109600000D01*
X96651362Y-109600000D01*
X96584323Y-109580315D01*
X96563681Y-109563681D01*
X96236319Y-109236319D01*
X96202834Y-109174996D01*
X96200000Y-109148638D01*
X96200000Y-106224000D01*
X96219685Y-106156961D01*
X96272489Y-106111206D01*
X96324000Y-106100000D01*
X114448638Y-106100000D01*
X114515677Y-106119685D01*
G37*
%TD.AperFunction*%
%TD*%
%TA.AperFunction,Conductor*%
%TO.N,/BM1366-1/VDD1*%
G36*
X106015677Y-110619685D02*
G01*
X106036319Y-110636319D01*
X106663681Y-111263681D01*
X106697166Y-111325004D01*
X106700000Y-111351362D01*
X106700000Y-113800000D01*
X106900000Y-114000000D01*
X110476000Y-114000000D01*
X110543039Y-114019685D01*
X110588794Y-114072489D01*
X110600000Y-114124000D01*
X110600000Y-116148638D01*
X110580315Y-116215677D01*
X110563681Y-116236319D01*
X108736319Y-118063681D01*
X108674996Y-118097166D01*
X108648638Y-118100000D01*
X104951362Y-118100000D01*
X104884323Y-118080315D01*
X104863681Y-118063681D01*
X103836319Y-117036319D01*
X103802834Y-116974996D01*
X103800000Y-116948638D01*
X103800000Y-113400000D01*
X102836319Y-112436319D01*
X102802834Y-112374996D01*
X102800000Y-112348638D01*
X102800000Y-111251361D01*
X102819685Y-111184322D01*
X102836314Y-111163685D01*
X103363680Y-110636319D01*
X103425004Y-110602834D01*
X103451362Y-110600000D01*
X105948638Y-110600000D01*
X106015677Y-110619685D01*
G37*
%TD.AperFunction*%
%TD*%
%TA.AperFunction,Conductor*%
%TO.N,/VDD*%
G36*
X80843039Y-157019685D02*
G01*
X80888794Y-157072489D01*
X80900000Y-157124000D01*
X80900000Y-160900000D01*
X82100000Y-162100000D01*
X84491486Y-162100000D01*
X84499582Y-162100530D01*
X84560115Y-162108500D01*
X84560116Y-162108500D01*
X84562129Y-162108765D01*
X84562148Y-162108766D01*
X84600000Y-162113750D01*
X84600001Y-162113750D01*
X84610472Y-162112371D01*
X84635848Y-162109030D01*
X84643946Y-162108500D01*
X86356054Y-162108500D01*
X86364151Y-162109030D01*
X86389527Y-162112371D01*
X86399999Y-162113750D01*
X86400000Y-162113750D01*
X86400001Y-162113750D01*
X86435846Y-162109031D01*
X86437961Y-162108752D01*
X86437974Y-162108751D01*
X86439881Y-162108500D01*
X86439885Y-162108500D01*
X86500415Y-162100530D01*
X86508514Y-162100000D01*
X99409949Y-162100000D01*
X99476988Y-162119685D01*
X99485428Y-162125619D01*
X99493124Y-162131524D01*
X99641149Y-162192838D01*
X99720574Y-162203294D01*
X99799999Y-162213751D01*
X99800000Y-162213751D01*
X99800001Y-162213751D01*
X99835853Y-162209031D01*
X99843954Y-162208500D01*
X101156054Y-162208500D01*
X101164151Y-162209030D01*
X101189527Y-162212371D01*
X101199999Y-162213750D01*
X101200000Y-162213750D01*
X101200001Y-162213750D01*
X101235846Y-162209031D01*
X101237961Y-162208752D01*
X101237974Y-162208751D01*
X101239881Y-162208500D01*
X101239885Y-162208500D01*
X101321002Y-162197820D01*
X101339457Y-162195391D01*
X101358851Y-162192838D01*
X101358850Y-162192837D01*
X101506876Y-162131524D01*
X101514564Y-162125624D01*
X101579732Y-162100430D01*
X101590051Y-162100000D01*
X103900000Y-162100000D01*
X104700000Y-161300000D01*
X104700000Y-159923999D01*
X104719685Y-159856961D01*
X104772489Y-159811206D01*
X104824000Y-159800000D01*
X111076000Y-159800000D01*
X111143039Y-159819685D01*
X111188794Y-159872489D01*
X111200000Y-159924000D01*
X111200000Y-164176000D01*
X111180315Y-164243039D01*
X111127511Y-164288794D01*
X111076000Y-164300000D01*
X110399999Y-164300000D01*
X109100000Y-165599999D01*
X109100000Y-168176000D01*
X109080315Y-168243039D01*
X109027511Y-168288794D01*
X108976000Y-168300000D01*
X106724000Y-168300000D01*
X106656961Y-168280315D01*
X106611206Y-168227511D01*
X106600000Y-168176000D01*
X106600000Y-165800000D01*
X103077562Y-165800000D01*
X103010523Y-165780315D01*
X102989881Y-165763681D01*
X102989695Y-165763495D01*
X102989695Y-165763496D01*
X102989693Y-165763494D01*
X102969229Y-165745113D01*
X102969222Y-165745107D01*
X102969221Y-165745106D01*
X102937881Y-165719851D01*
X102937882Y-165719851D01*
X102893300Y-165687703D01*
X102760354Y-165626987D01*
X102693317Y-165607302D01*
X102693311Y-165607300D01*
X102606505Y-165594820D01*
X102548638Y-165586500D01*
X97137609Y-165586500D01*
X97110142Y-165587972D01*
X97110133Y-165587972D01*
X97110132Y-165587973D01*
X97099747Y-165589089D01*
X97070111Y-165592276D01*
X97070112Y-165592276D01*
X97015855Y-165601067D01*
X97015851Y-165601068D01*
X96878903Y-165652148D01*
X96817587Y-165685629D01*
X96738136Y-165745107D01*
X96713325Y-165763681D01*
X96697848Y-165775267D01*
X96632384Y-165799684D01*
X96623537Y-165800000D01*
X90599999Y-165800000D01*
X89700000Y-166699999D01*
X89700000Y-169576000D01*
X89680315Y-169643039D01*
X89627511Y-169688794D01*
X89576000Y-169700000D01*
X79651362Y-169700000D01*
X79584323Y-169680315D01*
X79563681Y-169663681D01*
X78636319Y-168736319D01*
X78602834Y-168674996D01*
X78600000Y-168648638D01*
X78600000Y-164600000D01*
X74324000Y-164600000D01*
X74256961Y-164580315D01*
X74211206Y-164527511D01*
X74200000Y-164476000D01*
X74200000Y-157124000D01*
X74219685Y-157056961D01*
X74272489Y-157011206D01*
X74324000Y-157000000D01*
X80776000Y-157000000D01*
X80843039Y-157019685D01*
G37*
%TD.AperFunction*%
%TD*%
%TA.AperFunction,Conductor*%
%TO.N,/BM1366-1/VDD1*%
G36*
X88615677Y-105519685D02*
G01*
X88636319Y-105536319D01*
X89063681Y-105963681D01*
X89097166Y-106025004D01*
X89100000Y-106051362D01*
X89100000Y-109148638D01*
X89080315Y-109215677D01*
X89063681Y-109236319D01*
X85736319Y-112563681D01*
X85674996Y-112597166D01*
X85648638Y-112600000D01*
X84699999Y-112600000D01*
X82000000Y-115299999D01*
X82000000Y-115805491D01*
X81990562Y-115852941D01*
X81987163Y-115861146D01*
X81987162Y-115861150D01*
X81970957Y-115984241D01*
X81970955Y-115984254D01*
X81966250Y-116020000D01*
X81970969Y-116055843D01*
X81971500Y-116063945D01*
X81971500Y-116577138D01*
X81951815Y-116644177D01*
X81935181Y-116664819D01*
X81036319Y-117563681D01*
X80974996Y-117597166D01*
X80948638Y-117600000D01*
X77251362Y-117600000D01*
X77184323Y-117580315D01*
X77163681Y-117563681D01*
X74936319Y-115336319D01*
X74902834Y-115274996D01*
X74900000Y-115248638D01*
X74900000Y-114124000D01*
X74919685Y-114056961D01*
X74972489Y-114011206D01*
X75024000Y-114000000D01*
X78500000Y-114000000D01*
X78900000Y-113600000D01*
X78900000Y-109024000D01*
X78919685Y-108956961D01*
X78972489Y-108911206D01*
X79024000Y-108900000D01*
X81800000Y-108900000D01*
X82600000Y-108100000D01*
X82600000Y-106451361D01*
X82619685Y-106384323D01*
X82636319Y-106363681D01*
X83463681Y-105536319D01*
X83525004Y-105502834D01*
X83551362Y-105500000D01*
X88548638Y-105500000D01*
X88615677Y-105519685D01*
G37*
%TD.AperFunction*%
%TD*%
%TA.AperFunction,Conductor*%
%TO.N,/BM1366-1/VDD1*%
G36*
X114815677Y-132919685D02*
G01*
X114836319Y-132936319D01*
X116163681Y-134263681D01*
X116197166Y-134325004D01*
X116200000Y-134351362D01*
X116200000Y-137048638D01*
X116180315Y-137115677D01*
X116163681Y-137136319D01*
X115336319Y-137963681D01*
X115274996Y-137997166D01*
X115248638Y-138000000D01*
X113551362Y-138000000D01*
X113484323Y-137980315D01*
X113463681Y-137963681D01*
X111600000Y-136100000D01*
X107100000Y-136100000D01*
X107100000Y-137476000D01*
X107080315Y-137543039D01*
X107027511Y-137588794D01*
X106976000Y-137600000D01*
X103899999Y-137600000D01*
X103336319Y-138163681D01*
X103274996Y-138197166D01*
X103248638Y-138200000D01*
X97351362Y-138200000D01*
X97284323Y-138180315D01*
X97263681Y-138163681D01*
X96336319Y-137236319D01*
X96302834Y-137174996D01*
X96300000Y-137148638D01*
X96300000Y-134151361D01*
X96319685Y-134084322D01*
X96336314Y-134063685D01*
X97463680Y-132936319D01*
X97525004Y-132902834D01*
X97551362Y-132900000D01*
X114748638Y-132900000D01*
X114815677Y-132919685D01*
G37*
%TD.AperFunction*%
%TD*%
%TA.AperFunction,Conductor*%
%TO.N,/BM1366-2/VDD2*%
G36*
X89115677Y-133419685D02*
G01*
X89136319Y-133436319D01*
X89563681Y-133863681D01*
X89597166Y-133925004D01*
X89600000Y-133951362D01*
X89600000Y-137248638D01*
X89580315Y-137315677D01*
X89563681Y-137336319D01*
X88836319Y-138063681D01*
X88774996Y-138097166D01*
X88748638Y-138100000D01*
X87399999Y-138100000D01*
X81900000Y-143599999D01*
X81900000Y-144848638D01*
X81880315Y-144915677D01*
X81863681Y-144936319D01*
X80836319Y-145963681D01*
X80774996Y-145997166D01*
X80748638Y-146000000D01*
X77751362Y-146000000D01*
X77684323Y-145980315D01*
X77663681Y-145963681D01*
X74936319Y-143236319D01*
X74902834Y-143174996D01*
X74900000Y-143148638D01*
X74900000Y-142024000D01*
X74919685Y-141956961D01*
X74972489Y-141911206D01*
X75024000Y-141900000D01*
X78900000Y-141900000D01*
X78900000Y-137024000D01*
X78919685Y-136956961D01*
X78972489Y-136911206D01*
X79024000Y-136900000D01*
X82500000Y-136900000D01*
X82500000Y-134851362D01*
X82519685Y-134784323D01*
X82536319Y-134763681D01*
X83863681Y-133436319D01*
X83925004Y-133402834D01*
X83951362Y-133400000D01*
X89048638Y-133400000D01*
X89115677Y-133419685D01*
G37*
%TD.AperFunction*%
%TD*%
%TA.AperFunction,Conductor*%
%TO.N,/BM1366-1/VDD1*%
G36*
X80515677Y-133119685D02*
G01*
X80536319Y-133136319D01*
X81663681Y-134263681D01*
X81697166Y-134325004D01*
X81700000Y-134351362D01*
X81700000Y-135676000D01*
X81680315Y-135743039D01*
X81627511Y-135788794D01*
X81576000Y-135800000D01*
X74400000Y-135800000D01*
X74400000Y-138576000D01*
X74380315Y-138643039D01*
X74327511Y-138688794D01*
X74276000Y-138700000D01*
X68751362Y-138700000D01*
X68684323Y-138680315D01*
X68663681Y-138663681D01*
X68336319Y-138336319D01*
X68302834Y-138274996D01*
X68300000Y-138248638D01*
X68300000Y-135951362D01*
X68319685Y-135884323D01*
X68336319Y-135863681D01*
X71063681Y-133136319D01*
X71125004Y-133102834D01*
X71151362Y-133100000D01*
X80448638Y-133100000D01*
X80515677Y-133119685D01*
G37*
%TD.AperFunction*%
%TD*%
%TA.AperFunction,Conductor*%
%TO.N,/5V*%
G36*
X69943039Y-85319685D02*
G01*
X69988794Y-85372489D01*
X70000000Y-85424000D01*
X70000000Y-88276000D01*
X69980315Y-88343039D01*
X69927511Y-88388794D01*
X69876000Y-88400000D01*
X65324000Y-88400000D01*
X65256961Y-88380315D01*
X65211206Y-88327511D01*
X65200000Y-88276000D01*
X65200000Y-85424000D01*
X65219685Y-85356961D01*
X65272489Y-85311206D01*
X65324000Y-85300000D01*
X69876000Y-85300000D01*
X69943039Y-85319685D01*
G37*
%TD.AperFunction*%
%TD*%
%TA.AperFunction,Conductor*%
%TO.N,/Power/VIN_M*%
G36*
X69943039Y-78619685D02*
G01*
X69988794Y-78672489D01*
X70000000Y-78724000D01*
X70000000Y-80876000D01*
X69980315Y-80943039D01*
X69927511Y-80988794D01*
X69876000Y-81000000D01*
X65124000Y-81000000D01*
X65056961Y-80980315D01*
X65011206Y-80927511D01*
X65000000Y-80876000D01*
X65000000Y-78724000D01*
X65019685Y-78656961D01*
X65072489Y-78611206D01*
X65124000Y-78600000D01*
X69876000Y-78600000D01*
X69943039Y-78619685D01*
G37*
%TD.AperFunction*%
%TD*%
%TA.AperFunction,Conductor*%
%TO.N,GND*%
G36*
X72822904Y-75619685D02*
G01*
X72868659Y-75672489D01*
X72879085Y-75710117D01*
X72879558Y-75714321D01*
X72879559Y-75714326D01*
X72939139Y-75884595D01*
X72996179Y-75975373D01*
X73035112Y-76037334D01*
X73162666Y-76164888D01*
X73183720Y-76178117D01*
X73299029Y-76250571D01*
X73315406Y-76260861D01*
X73465520Y-76313388D01*
X73485673Y-76320440D01*
X73485678Y-76320441D01*
X73664924Y-76340637D01*
X73664928Y-76340637D01*
X73664932Y-76340637D01*
X73844177Y-76320441D01*
X73844180Y-76320440D01*
X73844183Y-76320440D01*
X74014450Y-76260861D01*
X74167190Y-76164888D01*
X74210187Y-76121891D01*
X74271510Y-76088406D01*
X74297868Y-76085572D01*
X74387746Y-76085572D01*
X74454785Y-76105257D01*
X74475422Y-76121886D01*
X74531658Y-76178122D01*
X74644694Y-76235717D01*
X74644698Y-76235719D01*
X74738475Y-76250571D01*
X74738481Y-76250572D01*
X75451518Y-76250571D01*
X75545304Y-76235718D01*
X75658342Y-76178122D01*
X75748050Y-76088414D01*
X75805646Y-75975376D01*
X75805646Y-75975374D01*
X75805647Y-75975373D01*
X75820500Y-75881596D01*
X75820500Y-75724000D01*
X75840185Y-75656961D01*
X75892989Y-75611206D01*
X75944500Y-75600000D01*
X79676000Y-75600000D01*
X79743039Y-75619685D01*
X79788794Y-75672489D01*
X79800000Y-75724000D01*
X79800000Y-77676000D01*
X79780315Y-77743039D01*
X79727511Y-77788794D01*
X79676000Y-77800000D01*
X67724000Y-77800000D01*
X67656961Y-77780315D01*
X67611206Y-77727511D01*
X67600000Y-77676000D01*
X67600000Y-76313388D01*
X67619685Y-76246349D01*
X67672489Y-76200594D01*
X67741647Y-76190650D01*
X67780293Y-76202903D01*
X67844694Y-76235717D01*
X67844696Y-76235718D01*
X67844698Y-76235719D01*
X67938475Y-76250571D01*
X67938481Y-76250572D01*
X68651518Y-76250571D01*
X68745304Y-76235718D01*
X68858342Y-76178122D01*
X68948050Y-76088414D01*
X69005646Y-75975376D01*
X69005646Y-75975374D01*
X69005647Y-75975373D01*
X69020500Y-75881596D01*
X69020500Y-75724000D01*
X69040185Y-75656961D01*
X69092989Y-75611206D01*
X69144500Y-75600000D01*
X72755865Y-75600000D01*
X72822904Y-75619685D01*
G37*
%TD.AperFunction*%
%TD*%
%TA.AperFunction,Conductor*%
%TO.N,/Power/VIN_M*%
G36*
X83343039Y-47819685D02*
G01*
X83388794Y-47872489D01*
X83400000Y-47924000D01*
X83400000Y-64276000D01*
X83380315Y-64343039D01*
X83327511Y-64388794D01*
X83276000Y-64400000D01*
X82326289Y-64400000D01*
X82260315Y-64380993D01*
X82249521Y-64374210D01*
X82079254Y-64314631D01*
X82079249Y-64314630D01*
X81900004Y-64294435D01*
X81899996Y-64294435D01*
X81720750Y-64314630D01*
X81720745Y-64314631D01*
X81550478Y-64374210D01*
X81539685Y-64380993D01*
X81473711Y-64400000D01*
X80724000Y-64400000D01*
X80656961Y-64380315D01*
X80611206Y-64327511D01*
X80600000Y-64276000D01*
X80600000Y-61900000D01*
X80000000Y-61300000D01*
X67500000Y-61300000D01*
X67499999Y-61300000D01*
X67036319Y-61763681D01*
X66974996Y-61797166D01*
X66948638Y-61800000D01*
X63724000Y-61800000D01*
X63656961Y-61780315D01*
X63611206Y-61727511D01*
X63600000Y-61676000D01*
X63600000Y-59324000D01*
X63619685Y-59256961D01*
X63672489Y-59211206D01*
X63724000Y-59200000D01*
X77047126Y-59200000D01*
X77054066Y-59200389D01*
X77084223Y-59203787D01*
X77099998Y-59205565D01*
X77100000Y-59205565D01*
X77100002Y-59205565D01*
X77115776Y-59203787D01*
X77145933Y-59200389D01*
X77152874Y-59200000D01*
X77600000Y-59200000D01*
X80200000Y-56600000D01*
X80200000Y-49851361D01*
X80219685Y-49784323D01*
X80236319Y-49763681D01*
X82163681Y-47836319D01*
X82225004Y-47802834D01*
X82251362Y-47800000D01*
X83276000Y-47800000D01*
X83343039Y-47819685D01*
G37*
%TD.AperFunction*%
%TD*%
%TA.AperFunction,Conductor*%
%TO.N,/VDD*%
G36*
X92215677Y-72619685D02*
G01*
X92236319Y-72636319D01*
X92763682Y-73163682D01*
X92797166Y-73225003D01*
X92800000Y-73251361D01*
X92800000Y-78600000D01*
X94963681Y-80763681D01*
X94997166Y-80825004D01*
X95000000Y-80851362D01*
X95000000Y-82476000D01*
X94980315Y-82543039D01*
X94927511Y-82588794D01*
X94876000Y-82600000D01*
X86051362Y-82600000D01*
X85984323Y-82580315D01*
X85963681Y-82563681D01*
X82236319Y-78836319D01*
X82202834Y-78774996D01*
X82200000Y-78748638D01*
X82200000Y-76324000D01*
X82219685Y-76256961D01*
X82272489Y-76211206D01*
X82324000Y-76200000D01*
X88200000Y-76200000D01*
X89800000Y-74600000D01*
X89800000Y-72724000D01*
X89819685Y-72656961D01*
X89872489Y-72611206D01*
X89924000Y-72600000D01*
X92148638Y-72600000D01*
X92215677Y-72619685D01*
G37*
%TD.AperFunction*%
%TD*%
%TA.AperFunction,Conductor*%
%TO.N,GND*%
G36*
X90154066Y-47800389D02*
G01*
X90184223Y-47803787D01*
X90199998Y-47805565D01*
X90200000Y-47805565D01*
X90200002Y-47805565D01*
X90215776Y-47803787D01*
X90245933Y-47800389D01*
X90252874Y-47800000D01*
X91676000Y-47800000D01*
X91743039Y-47819685D01*
X91788794Y-47872489D01*
X91800000Y-47924000D01*
X91800000Y-66276000D01*
X91780315Y-66343039D01*
X91727511Y-66388794D01*
X91676000Y-66400000D01*
X91252874Y-66400000D01*
X91245933Y-66399610D01*
X91215776Y-66396212D01*
X91200002Y-66394435D01*
X91199998Y-66394435D01*
X91184223Y-66396212D01*
X91154066Y-66399610D01*
X91147126Y-66400000D01*
X88924000Y-66400000D01*
X88856961Y-66380315D01*
X88811206Y-66327511D01*
X88800000Y-66276000D01*
X88800000Y-47924000D01*
X88819685Y-47856961D01*
X88872489Y-47811206D01*
X88924000Y-47800000D01*
X90147126Y-47800000D01*
X90154066Y-47800389D01*
G37*
%TD.AperFunction*%
%TD*%
%TA.AperFunction,Conductor*%
%TO.N,/BM1366-2/VDD2*%
G36*
X73143039Y-161619685D02*
G01*
X73188794Y-161672489D01*
X73200000Y-161724000D01*
X73200000Y-164476000D01*
X73180315Y-164543039D01*
X73127511Y-164588794D01*
X73076000Y-164600000D01*
X72600000Y-164600000D01*
X72600000Y-168576000D01*
X72580315Y-168643039D01*
X72527511Y-168688794D01*
X72476000Y-168700000D01*
X68651362Y-168700000D01*
X68584323Y-168680315D01*
X68563681Y-168663681D01*
X67536931Y-167636931D01*
X67503446Y-167575608D01*
X67500621Y-167547780D01*
X67549410Y-163449477D01*
X67569891Y-163382681D01*
X67584487Y-163364527D01*
X69263481Y-161637561D01*
X69324326Y-161603217D01*
X69352388Y-161600000D01*
X73076000Y-161600000D01*
X73143039Y-161619685D01*
G37*
%TD.AperFunction*%
%TD*%
%TA.AperFunction,Conductor*%
%TO.N,/Power/VIN*%
G36*
X76615677Y-48019685D02*
G01*
X76636319Y-48036319D01*
X78363681Y-49763681D01*
X78397166Y-49825004D01*
X78400000Y-49851362D01*
X78400000Y-55647208D01*
X78380315Y-55714247D01*
X78361945Y-55736591D01*
X76685417Y-57348638D01*
X75836002Y-58165383D01*
X75774035Y-58197660D01*
X75750057Y-58200000D01*
X68451362Y-58200000D01*
X68384323Y-58180315D01*
X68363681Y-58163681D01*
X67636319Y-57436319D01*
X67602834Y-57374996D01*
X67600000Y-57348638D01*
X67600000Y-48651361D01*
X67619685Y-48584322D01*
X67636314Y-48563685D01*
X68163680Y-48036319D01*
X68225004Y-48002834D01*
X68251362Y-48000000D01*
X76548638Y-48000000D01*
X76615677Y-48019685D01*
G37*
%TD.AperFunction*%
%TD*%
%TA.AperFunction,Conductor*%
%TO.N,/BM1366-2/VDD2*%
G36*
X107143039Y-138719685D02*
G01*
X107188794Y-138772489D01*
X107200000Y-138824000D01*
X107199999Y-141900000D01*
X107200000Y-141900000D01*
X111276000Y-141900000D01*
X111343039Y-141919685D01*
X111388794Y-141972489D01*
X111400000Y-142024000D01*
X111400000Y-143048637D01*
X111380315Y-143115676D01*
X111363681Y-143136318D01*
X108736319Y-145763681D01*
X108674996Y-145797166D01*
X108648638Y-145800000D01*
X104251362Y-145800000D01*
X104184323Y-145780315D01*
X104163681Y-145763681D01*
X103336319Y-144936319D01*
X103302834Y-144874996D01*
X103300000Y-144848638D01*
X103300000Y-139851362D01*
X103319685Y-139784323D01*
X103336319Y-139763681D01*
X104363681Y-138736319D01*
X104425004Y-138702834D01*
X104451362Y-138700000D01*
X107076000Y-138700000D01*
X107143039Y-138719685D01*
G37*
%TD.AperFunction*%
%TD*%
%TA.AperFunction,Conductor*%
%TO.N,GND*%
G36*
X81015677Y-105819685D02*
G01*
X81036319Y-105836319D01*
X81763681Y-106563681D01*
X81797166Y-106625004D01*
X81800000Y-106651362D01*
X81800000Y-107776000D01*
X81780315Y-107843039D01*
X81727511Y-107888794D01*
X81676000Y-107900000D01*
X74700000Y-107900000D01*
X74700000Y-110876000D01*
X74680315Y-110943039D01*
X74627511Y-110988794D01*
X74576000Y-111000000D01*
X70151362Y-111000000D01*
X70084323Y-110980315D01*
X70063681Y-110963681D01*
X69436319Y-110336318D01*
X69402834Y-110274995D01*
X69400000Y-110248637D01*
X69400000Y-107852261D01*
X69419685Y-107785222D01*
X69437408Y-107763504D01*
X71413876Y-105835243D01*
X71475608Y-105802518D01*
X71500468Y-105800000D01*
X80948638Y-105800000D01*
X81015677Y-105819685D01*
G37*
%TD.AperFunction*%
%TD*%
%TA.AperFunction,Conductor*%
%TO.N,/BM1366-2/VDD2*%
G36*
X115215677Y-161519685D02*
G01*
X115236319Y-161536319D01*
X117863681Y-164163681D01*
X117897166Y-164225004D01*
X117900000Y-164251362D01*
X117900000Y-167448638D01*
X117880315Y-167515677D01*
X117863681Y-167536319D01*
X117236319Y-168163681D01*
X117174996Y-168197166D01*
X117148638Y-168200000D01*
X112724000Y-168200000D01*
X112656961Y-168180315D01*
X112611206Y-168127511D01*
X112600000Y-168076000D01*
X112600000Y-164200000D01*
X112324000Y-164200000D01*
X112256961Y-164180315D01*
X112211206Y-164127511D01*
X112200000Y-164076000D01*
X112200000Y-161624000D01*
X112219685Y-161556961D01*
X112272489Y-161511206D01*
X112324000Y-161500000D01*
X115148638Y-161500000D01*
X115215677Y-161519685D01*
G37*
%TD.AperFunction*%
%TD*%
%TA.AperFunction,Conductor*%
%TO.N,/BM1366-2/VDD2*%
G36*
X102615677Y-166119685D02*
G01*
X102636319Y-166136319D01*
X103763681Y-167263681D01*
X103797166Y-167325004D01*
X103800000Y-167351362D01*
X103800000Y-169348638D01*
X103780315Y-169415677D01*
X103763681Y-169436319D01*
X102536319Y-170663681D01*
X102474996Y-170697166D01*
X102448638Y-170700000D01*
X97151362Y-170700000D01*
X97084323Y-170680315D01*
X97063681Y-170663681D01*
X96336319Y-169936319D01*
X96302834Y-169874996D01*
X96300000Y-169848638D01*
X96300000Y-166951362D01*
X96319685Y-166884323D01*
X96336319Y-166863681D01*
X97063681Y-166136319D01*
X97125004Y-166102834D01*
X97151362Y-166100000D01*
X102548638Y-166100000D01*
X102615677Y-166119685D01*
G37*
%TD.AperFunction*%
%TD*%
%TA.AperFunction,Conductor*%
%TO.N,/Power/SW*%
G36*
X72956223Y-67019685D02*
G01*
X73001978Y-67072489D01*
X73012404Y-67110117D01*
X73019629Y-67174250D01*
X73079209Y-67344522D01*
X73130434Y-67426045D01*
X73175183Y-67497263D01*
X73302737Y-67624817D01*
X73455477Y-67720790D01*
X73625744Y-67780369D01*
X73625749Y-67780370D01*
X73804995Y-67800566D01*
X73804999Y-67800566D01*
X73805003Y-67800566D01*
X73984248Y-67780370D01*
X73984251Y-67780369D01*
X73984254Y-67780369D01*
X74154521Y-67720790D01*
X74307261Y-67624817D01*
X74340105Y-67591972D01*
X74401425Y-67558488D01*
X74471117Y-67563472D01*
X74527051Y-67605342D01*
X74538269Y-67623358D01*
X74585949Y-67716934D01*
X74585954Y-67716941D01*
X74675652Y-67806639D01*
X74675654Y-67806640D01*
X74675658Y-67806644D01*
X74788694Y-67864239D01*
X74788698Y-67864241D01*
X74882475Y-67879093D01*
X74882481Y-67879094D01*
X75707518Y-67879093D01*
X75801304Y-67864240D01*
X75914342Y-67806644D01*
X76004050Y-67716936D01*
X76061646Y-67603898D01*
X76061646Y-67603896D01*
X76061647Y-67603895D01*
X76076500Y-67510118D01*
X76076500Y-67124000D01*
X76096185Y-67056961D01*
X76148989Y-67011206D01*
X76200500Y-67000000D01*
X80473711Y-67000000D01*
X80539685Y-67019007D01*
X80550478Y-67025789D01*
X80720745Y-67085368D01*
X80720750Y-67085369D01*
X80899996Y-67105565D01*
X80900000Y-67105565D01*
X80900004Y-67105565D01*
X81079249Y-67085369D01*
X81079252Y-67085368D01*
X81079255Y-67085368D01*
X81249522Y-67025789D01*
X81260315Y-67019006D01*
X81326289Y-67000000D01*
X86748638Y-67000000D01*
X86815677Y-67019685D01*
X86836319Y-67036319D01*
X87163681Y-67363681D01*
X87197166Y-67425004D01*
X87200000Y-67451362D01*
X87200000Y-70476000D01*
X87180315Y-70543039D01*
X87127511Y-70588794D01*
X87076000Y-70600000D01*
X80651362Y-70600000D01*
X80584323Y-70580315D01*
X80563681Y-70563681D01*
X79900000Y-69900000D01*
X67924000Y-69900000D01*
X67856961Y-69880315D01*
X67811206Y-69827511D01*
X67800000Y-69776000D01*
X67800000Y-68014800D01*
X67819685Y-67947761D01*
X67872489Y-67902006D01*
X67923995Y-67890800D01*
X68707518Y-67890800D01*
X68801304Y-67875947D01*
X68914342Y-67818351D01*
X69004050Y-67728643D01*
X69061646Y-67615605D01*
X69061646Y-67615603D01*
X69061647Y-67615602D01*
X69076500Y-67521825D01*
X69076500Y-67124000D01*
X69096185Y-67056961D01*
X69148989Y-67011206D01*
X69200500Y-67000000D01*
X72889184Y-67000000D01*
X72956223Y-67019685D01*
G37*
%TD.AperFunction*%
%TD*%
M02*
