%TF.GenerationSoftware,KiCad,Pcbnew,7.0.7*%
%TF.CreationDate,2023-12-19T00:29:13-07:00*%
%TF.ProjectId,bitaxeHex,62697461-7865-4486-9578-2e6b69636164,0.9*%
%TF.SameCoordinates,Original*%
%TF.FileFunction,Copper,L1,Top*%
%TF.FilePolarity,Positive*%
%FSLAX46Y46*%
G04 Gerber Fmt 4.6, Leading zero omitted, Abs format (unit mm)*
G04 Created by KiCad (PCBNEW 7.0.7) date 2023-12-19 00:29:13*
%MOMM*%
%LPD*%
G01*
G04 APERTURE LIST*
G04 Aperture macros list*
%AMRoundRect*
0 Rectangle with rounded corners*
0 $1 Rounding radius*
0 $2 $3 $4 $5 $6 $7 $8 $9 X,Y pos of 4 corners*
0 Add a 4 corners polygon primitive as box body*
4,1,4,$2,$3,$4,$5,$6,$7,$8,$9,$2,$3,0*
0 Add four circle primitives for the rounded corners*
1,1,$1+$1,$2,$3*
1,1,$1+$1,$4,$5*
1,1,$1+$1,$6,$7*
1,1,$1+$1,$8,$9*
0 Add four rect primitives between the rounded corners*
20,1,$1+$1,$2,$3,$4,$5,0*
20,1,$1+$1,$4,$5,$6,$7,0*
20,1,$1+$1,$6,$7,$8,$9,0*
20,1,$1+$1,$8,$9,$2,$3,0*%
%AMFreePoly0*
4,1,33,2.767855,2.265355,2.782500,2.230000,2.782500,1.570000,2.767855,1.534645,2.732500,1.520000,2.172500,1.520000,2.172500,1.020000,2.732500,1.020000,2.767855,1.005355,2.782500,0.970000,2.782500,0.310000,2.767855,0.274645,2.732500,0.260000,2.172500,0.260000,2.172500,-0.260000,2.732500,-0.260000,2.767855,-0.274645,2.782500,-0.310000,2.782500,-0.970000,2.767855,-1.005355,
2.732500,-1.020000,2.172500,-1.020000,2.172500,-1.520000,2.732500,-1.520000,2.767855,-1.534645,2.782500,-1.570000,2.782500,-2.230000,2.767855,-2.265355,2.732500,-2.280000,-2.172500,-2.280000,-2.172500,2.280000,2.732500,2.280000,2.767855,2.265355,2.767855,2.265355,$1*%
G04 Aperture macros list end*
%ADD10C,0.200000*%
%TA.AperFunction,NonConductor*%
%ADD11C,0.200000*%
%TD*%
%TA.AperFunction,SMDPad,CuDef*%
%ADD12R,0.792000X0.221000*%
%TD*%
%TA.AperFunction,SMDPad,CuDef*%
%ADD13R,4.277000X1.810000*%
%TD*%
%TA.AperFunction,SMDPad,CuDef*%
%ADD14R,4.277000X4.530000*%
%TD*%
%TA.AperFunction,ConnectorPad*%
%ADD15C,0.787400*%
%TD*%
%TA.AperFunction,SMDPad,CuDef*%
%ADD16RoundRect,0.135000X0.185000X-0.135000X0.185000X0.135000X-0.185000X0.135000X-0.185000X-0.135000X0*%
%TD*%
%TA.AperFunction,ComponentPad*%
%ADD17C,3.200000*%
%TD*%
%TA.AperFunction,SMDPad,CuDef*%
%ADD18RoundRect,0.250000X-0.625000X0.312500X-0.625000X-0.312500X0.625000X-0.312500X0.625000X0.312500X0*%
%TD*%
%TA.AperFunction,ComponentPad*%
%ADD19C,0.800000*%
%TD*%
%TA.AperFunction,ComponentPad*%
%ADD20C,6.000000*%
%TD*%
%TA.AperFunction,SMDPad,CuDef*%
%ADD21R,1.600200X1.168400*%
%TD*%
%TA.AperFunction,SMDPad,CuDef*%
%ADD22RoundRect,0.140000X-0.140000X-0.170000X0.140000X-0.170000X0.140000X0.170000X-0.140000X0.170000X0*%
%TD*%
%TA.AperFunction,ComponentPad*%
%ADD23C,1.574800*%
%TD*%
%TA.AperFunction,SMDPad,CuDef*%
%ADD24R,0.650000X1.372000*%
%TD*%
%TA.AperFunction,SMDPad,CuDef*%
%ADD25FreePoly0,90.000000*%
%TD*%
%TA.AperFunction,SMDPad,CuDef*%
%ADD26C,1.000000*%
%TD*%
%TA.AperFunction,SMDPad,CuDef*%
%ADD27R,0.450000X0.700000*%
%TD*%
%TA.AperFunction,SMDPad,CuDef*%
%ADD28RoundRect,0.262500X-0.562500X-0.262500X0.562500X-0.262500X0.562500X0.262500X-0.562500X0.262500X0*%
%TD*%
%TA.AperFunction,SMDPad,CuDef*%
%ADD29RoundRect,0.140000X0.140000X0.170000X-0.140000X0.170000X-0.140000X-0.170000X0.140000X-0.170000X0*%
%TD*%
%TA.AperFunction,SMDPad,CuDef*%
%ADD30R,3.700000X2.420000*%
%TD*%
%TA.AperFunction,SMDPad,CuDef*%
%ADD31RoundRect,0.250000X-1.100000X0.325000X-1.100000X-0.325000X1.100000X-0.325000X1.100000X0.325000X0*%
%TD*%
%TA.AperFunction,SMDPad,CuDef*%
%ADD32RoundRect,0.135000X-0.185000X0.135000X-0.185000X-0.135000X0.185000X-0.135000X0.185000X0.135000X0*%
%TD*%
%TA.AperFunction,SMDPad,CuDef*%
%ADD33RoundRect,0.250000X0.550000X-1.500000X0.550000X1.500000X-0.550000X1.500000X-0.550000X-1.500000X0*%
%TD*%
%TA.AperFunction,SMDPad,CuDef*%
%ADD34RoundRect,0.140000X0.170000X-0.140000X0.170000X0.140000X-0.170000X0.140000X-0.170000X-0.140000X0*%
%TD*%
%TA.AperFunction,ComponentPad*%
%ADD35C,5.000000*%
%TD*%
%TA.AperFunction,SMDPad,CuDef*%
%ADD36RoundRect,0.135000X0.135000X0.185000X-0.135000X0.185000X-0.135000X-0.185000X0.135000X-0.185000X0*%
%TD*%
%TA.AperFunction,SMDPad,CuDef*%
%ADD37RoundRect,0.250000X0.250000X0.475000X-0.250000X0.475000X-0.250000X-0.475000X0.250000X-0.475000X0*%
%TD*%
%TA.AperFunction,SMDPad,CuDef*%
%ADD38R,0.711200X0.228600*%
%TD*%
%TA.AperFunction,SMDPad,CuDef*%
%ADD39RoundRect,0.250000X0.475000X-0.250000X0.475000X0.250000X-0.475000X0.250000X-0.475000X-0.250000X0*%
%TD*%
%TA.AperFunction,ComponentPad*%
%ADD40R,1.700000X1.700000*%
%TD*%
%TA.AperFunction,ComponentPad*%
%ADD41O,1.700000X1.700000*%
%TD*%
%TA.AperFunction,SMDPad,CuDef*%
%ADD42R,1.500000X0.900000*%
%TD*%
%TA.AperFunction,SMDPad,CuDef*%
%ADD43R,0.900000X1.500000*%
%TD*%
%TA.AperFunction,SMDPad,CuDef*%
%ADD44R,0.900000X0.900000*%
%TD*%
%TA.AperFunction,SMDPad,CuDef*%
%ADD45RoundRect,0.150000X-0.150000X-0.700000X0.150000X-0.700000X0.150000X0.700000X-0.150000X0.700000X0*%
%TD*%
%TA.AperFunction,SMDPad,CuDef*%
%ADD46RoundRect,0.250000X-0.250000X-1.150000X0.250000X-1.150000X0.250000X1.150000X-0.250000X1.150000X0*%
%TD*%
%TA.AperFunction,SMDPad,CuDef*%
%ADD47R,1.372000X0.650000*%
%TD*%
%TA.AperFunction,SMDPad,CuDef*%
%ADD48FreePoly0,180.000000*%
%TD*%
%TA.AperFunction,SMDPad,CuDef*%
%ADD49RoundRect,0.140000X-0.170000X0.140000X-0.170000X-0.140000X0.170000X-0.140000X0.170000X0.140000X0*%
%TD*%
%TA.AperFunction,SMDPad,CuDef*%
%ADD50R,0.600000X1.060000*%
%TD*%
%TA.AperFunction,SMDPad,CuDef*%
%ADD51R,0.300000X1.150000*%
%TD*%
%TA.AperFunction,ComponentPad*%
%ADD52O,1.000000X2.100000*%
%TD*%
%TA.AperFunction,ComponentPad*%
%ADD53O,1.000000X1.800000*%
%TD*%
%TA.AperFunction,SMDPad,CuDef*%
%ADD54RoundRect,0.250000X1.100000X-0.325000X1.100000X0.325000X-1.100000X0.325000X-1.100000X-0.325000X0*%
%TD*%
%TA.AperFunction,SMDPad,CuDef*%
%ADD55RoundRect,0.250000X0.650000X-1.000000X0.650000X1.000000X-0.650000X1.000000X-0.650000X-1.000000X0*%
%TD*%
%TA.AperFunction,ComponentPad*%
%ADD56C,0.500000*%
%TD*%
%TA.AperFunction,ViaPad*%
%ADD57C,0.800000*%
%TD*%
%TA.AperFunction,ViaPad*%
%ADD58C,1.000000*%
%TD*%
%TA.AperFunction,Conductor*%
%ADD59C,0.400000*%
%TD*%
%TA.AperFunction,Conductor*%
%ADD60C,0.200000*%
%TD*%
%TA.AperFunction,Conductor*%
%ADD61C,1.000000*%
%TD*%
%TA.AperFunction,Conductor*%
%ADD62C,0.230000*%
%TD*%
%TA.AperFunction,Conductor*%
%ADD63C,0.500000*%
%TD*%
%TA.AperFunction,Conductor*%
%ADD64C,0.300000*%
%TD*%
G04 APERTURE END LIST*
D10*
D11*
X119045863Y-174992742D02*
X118360149Y-174992742D01*
X118703006Y-174992742D02*
X118703006Y-173792742D01*
X118703006Y-173792742D02*
X118588720Y-173964171D01*
X118588720Y-173964171D02*
X118474435Y-174078457D01*
X118474435Y-174078457D02*
X118360149Y-174135600D01*
D12*
%TO.P,U19,1,VDD3_0*%
%TO.N,Net-(U19-VDD3_0)*%
X110916000Y-128263000D03*
%TO.P,U19,2,VDD2_0*%
%TO.N,Net-(U19-VDD2_0)*%
X110916000Y-127761000D03*
%TO.P,U19,3,VDD1_0*%
%TO.N,Net-(U19-VDD1_0)*%
X110916000Y-127259000D03*
%TO.P,U19,4,VSS*%
%TO.N,/BM1366-1/VDD1*%
X110916000Y-126757000D03*
%TO.P,U19,5,CO*%
%TO.N,Net-(U19-CO)*%
X110916000Y-126255000D03*
%TO.P,U19,6,CLKO*%
%TO.N,Net-(U19-CLKO)*%
X110916000Y-125753000D03*
%TO.P,U19,7,RI*%
%TO.N,/BM1366-2/RI*%
X110916000Y-125251000D03*
%TO.P,U19,8,BO*%
%TO.N,Net-(U19-BO)*%
X110916000Y-124749000D03*
%TO.P,U19,9,NRSTO*%
%TO.N,Net-(U19-NRSTO)*%
X110916000Y-124247000D03*
%TO.P,U19,10,ADDR0*%
%TO.N,Net-(U19-ADDR0)*%
X110916000Y-123745000D03*
%TO.P,U19,11,ADDR1*%
%TO.N,Net-(U19-ADDR1)*%
X110916000Y-123243000D03*
%TO.P,U19,12,PLL_VSS*%
%TO.N,/BM1366-1/VDD1*%
X110916000Y-122741000D03*
%TO.P,U19,13,VDDIO_08_0*%
%TO.N,/BM1366-2/0V8*%
X110916000Y-122239000D03*
%TO.P,U19,14,VDDIO_18_0*%
%TO.N,/BM1366-2/1V8*%
X110916000Y-121737000D03*
%TO.P,U19,15,VDDIO_18_1*%
X105084000Y-121750000D03*
%TO.P,U19,16,VDDIO_08_1*%
%TO.N,/BM1366-2/0V8*%
X105084000Y-122250000D03*
%TO.P,U19,17,VSS*%
%TO.N,/BM1366-1/VDD1*%
X105084000Y-122750000D03*
%TO.P,U19,18,PIN_MODE*%
X105084000Y-123250000D03*
%TO.P,U19,19,INV_CLKO*%
%TO.N,Net-(U19-INV_CLKO)*%
X105084000Y-123750000D03*
%TO.P,U19,20,NRSTI*%
%TO.N,Net-(U19-NRSTI)*%
X105084000Y-124247000D03*
%TO.P,U19,21,BI*%
%TO.N,Net-(U19-BI)*%
X105084000Y-124750000D03*
%TO.P,U19,22,RO*%
%TO.N,Net-(U19-RO)*%
X105084000Y-125251000D03*
%TO.P,U19,23,CLKI*%
%TO.N,Net-(U19-CLKI)*%
X105084000Y-125753000D03*
%TO.P,U19,24,CI*%
%TO.N,Net-(U19-CI)*%
X105084000Y-126255000D03*
%TO.P,U19,25,VSS*%
%TO.N,/BM1366-1/VDD1*%
X105084000Y-126757000D03*
%TO.P,U19,26,VDD1_1*%
%TO.N,Net-(U19-VDD1_1)*%
X105084000Y-127250000D03*
%TO.P,U19,27,VDD2_1*%
%TO.N,Net-(U19-VDD2_1)*%
X105084000Y-127761000D03*
%TO.P,U19,28,VDD3_1*%
%TO.N,Net-(U19-VDD3_1)*%
X105084000Y-128250000D03*
D13*
%TO.P,U19,29,VDD*%
%TO.N,/BM1366-2/VDD2*%
X108000000Y-127468000D03*
D14*
%TO.P,U19,30,VSS*%
%TO.N,/BM1366-1/VDD1*%
X108000000Y-123892000D03*
%TD*%
D15*
%TO.P,J3,1,Pin_1*%
%TO.N,/ESP32/EN*%
X129265000Y-58630000D03*
%TO.P,J3,2,Pin_2*%
%TO.N,/3V3*%
X130535000Y-58630000D03*
%TO.P,J3,3,Pin_3*%
%TO.N,/ESP32/P_TX*%
X129265000Y-59900000D03*
%TO.P,J3,4,Pin_4*%
%TO.N,GND*%
X130535000Y-59900000D03*
%TO.P,J3,5,Pin_5*%
%TO.N,/ESP32/P_RX*%
X129265000Y-61170000D03*
%TO.P,J3,6,Pin_6*%
%TO.N,/ESP32/IO0*%
X130535000Y-61170000D03*
%TD*%
D12*
%TO.P,U22,1,VDD3_0*%
%TO.N,Net-(U19-VDD3_1)*%
X80916000Y-128263000D03*
%TO.P,U22,2,VDD2_0*%
%TO.N,Net-(U19-VDD2_1)*%
X80916000Y-127761000D03*
%TO.P,U22,3,VDD1_0*%
%TO.N,Net-(U19-VDD1_1)*%
X80916000Y-127259000D03*
%TO.P,U22,4,VSS*%
%TO.N,/BM1366-1/VDD1*%
X80916000Y-126757000D03*
%TO.P,U22,5,CO*%
%TO.N,Net-(U22-CO)*%
X80916000Y-126255000D03*
%TO.P,U22,6,CLKO*%
%TO.N,Net-(U22-CLKO)*%
X80916000Y-125753000D03*
%TO.P,U22,7,RI*%
%TO.N,Net-(U22-RI)*%
X80916000Y-125251000D03*
%TO.P,U22,8,BO*%
%TO.N,Net-(U22-BO)*%
X80916000Y-124749000D03*
%TO.P,U22,9,NRSTO*%
%TO.N,Net-(U22-NRSTO)*%
X80916000Y-124247000D03*
%TO.P,U22,10,ADDR0*%
%TO.N,Net-(U22-ADDR0)*%
X80916000Y-123745000D03*
%TO.P,U22,11,ADDR1*%
%TO.N,Net-(U22-ADDR1)*%
X80916000Y-123243000D03*
%TO.P,U22,12,PLL_VSS*%
%TO.N,/BM1366-1/VDD1*%
X80916000Y-122741000D03*
%TO.P,U22,13,VDDIO_08_0*%
%TO.N,/BM1366-2/0V8*%
X80916000Y-122239000D03*
%TO.P,U22,14,VDDIO_18_0*%
%TO.N,/BM1366-2/1V8*%
X80916000Y-121737000D03*
%TO.P,U22,15,VDDIO_18_1*%
X75084000Y-121750000D03*
%TO.P,U22,16,VDDIO_08_1*%
%TO.N,/BM1366-2/0V8*%
X75084000Y-122250000D03*
%TO.P,U22,17,VSS*%
%TO.N,/BM1366-1/VDD1*%
X75084000Y-122750000D03*
%TO.P,U22,18,PIN_MODE*%
X75084000Y-123250000D03*
%TO.P,U22,19,INV_CLKO*%
%TO.N,Net-(U22-INV_CLKO)*%
X75084000Y-123750000D03*
%TO.P,U22,20,NRSTI*%
%TO.N,/BM1366-2/NRSTI2*%
X75084000Y-124247000D03*
%TO.P,U22,21,BI*%
%TO.N,/BM1366-2/BI2*%
X75084000Y-124750000D03*
%TO.P,U22,22,RO*%
%TO.N,Net-(U22-RO)*%
X75084000Y-125251000D03*
%TO.P,U22,23,CLKI*%
%TO.N,/BM1366-2/CLKI1*%
X75084000Y-125753000D03*
%TO.P,U22,24,CI*%
%TO.N,/BM1366-2/CI2*%
X75084000Y-126255000D03*
%TO.P,U22,25,VSS*%
%TO.N,/BM1366-1/VDD1*%
X75084000Y-126757000D03*
%TO.P,U22,26,VDD1_1*%
%TO.N,Net-(U22-VDD1_1)*%
X75084000Y-127250000D03*
%TO.P,U22,27,VDD2_1*%
%TO.N,Net-(U22-VDD2_1)*%
X75084000Y-127761000D03*
%TO.P,U22,28,VDD3_1*%
%TO.N,Net-(U22-VDD3_1)*%
X75084000Y-128250000D03*
D13*
%TO.P,U22,29,VDD*%
%TO.N,/BM1366-2/VDD2*%
X78000000Y-127468000D03*
D14*
%TO.P,U22,30,VSS*%
%TO.N,/BM1366-1/VDD1*%
X78000000Y-123892000D03*
%TD*%
D16*
%TO.P,R13,1*%
%TO.N,/3V3*%
X88650000Y-54010000D03*
%TO.P,R13,2*%
%TO.N,/ESP32/EN*%
X88650000Y-52990000D03*
%TD*%
D17*
%TO.P,J2,1,Pin_1*%
%TO.N,GND*%
X63928000Y-56530000D03*
X63928000Y-49530000D03*
X58928000Y-56530000D03*
X58928000Y-49530000D03*
%TD*%
D18*
%TO.P,R1,1*%
%TO.N,/Power/VIN*%
X71000000Y-60137500D03*
%TO.P,R1,2*%
%TO.N,/VIN_M*%
X71000000Y-63062500D03*
%TD*%
D19*
%TO.P,H1,1,1*%
%TO.N,GND*%
X51250000Y-49500000D03*
X51909010Y-47909010D03*
X51909010Y-51090990D03*
X53500000Y-47250000D03*
D20*
X53500000Y-49500000D03*
D19*
X53500000Y-51750000D03*
X55090990Y-47909010D03*
X55090990Y-51090990D03*
X55750000Y-49500000D03*
%TD*%
D17*
%TO.P,J1,1,Pin_1*%
%TO.N,/Power/VIN*%
X74128000Y-56586000D03*
X74128000Y-49586000D03*
X69128000Y-56586000D03*
X69128000Y-49586000D03*
%TD*%
D21*
%TO.P,Y1,1,1*%
%TO.N,/ESP32/XIN32*%
X101300000Y-56777600D03*
%TO.P,Y1,2,2*%
%TO.N,/ESP32/XOUT32*%
X101300000Y-59622400D03*
%TD*%
D22*
%TO.P,C28,1*%
%TO.N,/3V3*%
X114420000Y-78050000D03*
%TO.P,C28,2*%
%TO.N,GND*%
X115380000Y-78050000D03*
%TD*%
D23*
%TO.P,J6,1,Pin_1*%
%TO.N,GND*%
X64800000Y-70000000D03*
%TO.P,J6,2,Pin_2*%
%TO.N,/VIN_M*%
X64800000Y-72540000D03*
%TO.P,J6,3,Pin_3*%
%TO.N,/Fan/FAN2_TACH*%
X64800000Y-75080000D03*
%TO.P,J6,4,Pin_4*%
%TO.N,/Fan/FAN2_PWM*%
X64800000Y-77620000D03*
%TD*%
D24*
%TO.P,Q2,1*%
%TO.N,GND*%
X81730000Y-74000000D03*
%TO.P,Q2,2*%
X83000000Y-74000000D03*
%TO.P,Q2,3,S*%
X84270000Y-74000000D03*
%TO.P,Q2,4,G*%
%TO.N,Net-(Q2-G)*%
X85540000Y-74000000D03*
D25*
%TO.P,Q2,5,D*%
%TO.N,/Power/SW*%
X83635000Y-70592500D03*
%TD*%
D26*
%TO.P,FID3,*%
%TO.N,*%
X53340000Y-54356000D03*
%TD*%
D27*
%TO.P,Q5,1,G*%
%TO.N,Net-(Q5-G)*%
X105400000Y-78400000D03*
%TO.P,Q5,2,S*%
%TO.N,GND*%
X106700000Y-78400000D03*
%TO.P,Q5,3,D*%
%TO.N,Net-(J8-Pin_2)*%
X106050000Y-76400000D03*
%TD*%
D19*
%TO.P,SW2,1*%
%TO.N,GND*%
X78225000Y-46750000D03*
D28*
X78325000Y-46825000D03*
X82175000Y-46825000D03*
D19*
X82275000Y-46750000D03*
D28*
%TO.P,SW2,2*%
%TO.N,/ESP32/IO0*%
X78325000Y-48275000D03*
X82175000Y-48275000D03*
%TD*%
D29*
%TO.P,C29,1*%
%TO.N,/ESP32/XIN32*%
X99380000Y-56800000D03*
%TO.P,C29,2*%
%TO.N,GND*%
X98420000Y-56800000D03*
%TD*%
D30*
%TO.P,L1,1,1*%
%TO.N,/Power/SW*%
X92500000Y-69880000D03*
%TO.P,L1,2,2*%
%TO.N,/VDD*%
X92500000Y-77120000D03*
%TD*%
D31*
%TO.P,C9,1*%
%TO.N,/VIN_M*%
X70800000Y-68925000D03*
%TO.P,C9,2*%
%TO.N,GND*%
X70800000Y-71875000D03*
%TD*%
D12*
%TO.P,U27,1,VDD1_0*%
%TO.N,Net-(U24-VDD1_1)*%
X80916000Y-156263000D03*
%TO.P,U27,2,VDD2_0*%
%TO.N,Net-(U24-VDD2_1)*%
X80916000Y-155761000D03*
%TO.P,U27,3,VDD3_0*%
%TO.N,Net-(U24-VDD3_1)*%
X80916000Y-155259000D03*
%TO.P,U27,4,VSS*%
%TO.N,/BM1366-2/VDD2*%
X80916000Y-154757000D03*
%TO.P,U27,5,NRSTI*%
%TO.N,Net-(U24-NRSTO)*%
X80916000Y-154255000D03*
%TO.P,U27,6,BI*%
%TO.N,Net-(U27-BI)*%
X80916000Y-153753000D03*
%TO.P,U27,7,RO*%
%TO.N,Net-(U27-RO)*%
X80916000Y-153251000D03*
%TO.P,U27,8,CLKI*%
%TO.N,Net-(U27-CLKI)*%
X80916000Y-152749000D03*
%TO.P,U27,9,CI*%
%TO.N,Net-(U27-CI)*%
X80916000Y-152247000D03*
%TO.P,U27,10,ADDR0*%
%TO.N,Net-(U27-ADDR0)*%
X80916000Y-151745000D03*
%TO.P,U27,11,ADDR1*%
%TO.N,Net-(U27-ADDR1)*%
X80916000Y-151243000D03*
%TO.P,U27,12,PLL_VSS*%
%TO.N,/BM1366-2/VDD2*%
X80916000Y-150741000D03*
%TO.P,U27,13,VDDIO_08_0*%
%TO.N,/BM1366-3/0V8*%
X80916000Y-150239000D03*
%TO.P,U27,14,VDDIO_18_0*%
%TO.N,/BM1366-3/1V8*%
X80916000Y-149737000D03*
%TO.P,U27,15,VDDIO_18_1*%
X75084000Y-149750000D03*
%TO.P,U27,16,VDDIO_08_1*%
%TO.N,/BM1366-3/0V8*%
X75084000Y-150250000D03*
%TO.P,U27,17,VSS*%
%TO.N,/BM1366-2/VDD2*%
X75084000Y-150750000D03*
%TO.P,U27,18,PIN_MODE*%
%TO.N,unconnected-(U27-PIN_MODE-Pad18)*%
X75084000Y-151250000D03*
%TO.P,U27,19,INV_CLKO*%
%TO.N,Net-(U27-INV_CLKO)*%
X75084000Y-151750000D03*
%TO.P,U27,20,CO*%
%TO.N,/BM1366-3/CO3*%
X75084000Y-152247000D03*
%TO.P,U27,21,CLKO*%
%TO.N,/BM1366-3/CLKO3*%
X75084000Y-152750000D03*
%TO.P,U27,22,RI*%
%TO.N,/BM1366-3/RI3*%
X75084000Y-153251000D03*
%TO.P,U27,23,BO*%
%TO.N,/BM1366-3/BO3*%
X75084000Y-153753000D03*
%TO.P,U27,24,NRSTO*%
%TO.N,/BM1366-3/NRSTO3*%
X75084000Y-154255000D03*
%TO.P,U27,25,VSS*%
%TO.N,/BM1366-2/VDD2*%
X75084000Y-154757000D03*
%TO.P,U27,26,VDD3_1*%
%TO.N,Net-(U27-VDD3_1)*%
X75084000Y-155250000D03*
%TO.P,U27,27,VDD2_1*%
%TO.N,Net-(U27-VDD2_1)*%
X75084000Y-155761000D03*
%TO.P,U27,28,VDD1_1*%
%TO.N,Net-(U27-VDD1_1)*%
X75084000Y-156250000D03*
D13*
%TO.P,U27,29,VDD*%
%TO.N,/VDD*%
X78000000Y-155468000D03*
D14*
%TO.P,U27,30,VSS*%
%TO.N,/BM1366-2/VDD2*%
X78000000Y-151892000D03*
%TD*%
D32*
%TO.P,R16,1*%
%TO.N,GND*%
X105400000Y-70990000D03*
%TO.P,R16,2*%
%TO.N,/ESP32/TFT_BLK*%
X105400000Y-72010000D03*
%TD*%
D23*
%TO.P,J5,1,Pin_1*%
%TO.N,GND*%
X56900000Y-70000000D03*
%TO.P,J5,2,Pin_2*%
%TO.N,/VIN_M*%
X56900000Y-72540000D03*
%TO.P,J5,3,Pin_3*%
%TO.N,/Fan/FAN1_TACH*%
X56900000Y-75080000D03*
%TO.P,J5,4,Pin_4*%
%TO.N,/Fan/FAN1_PWM*%
X56900000Y-77620000D03*
%TD*%
D33*
%TO.P,C34,1*%
%TO.N,/VIN_M*%
X57400000Y-65900000D03*
%TO.P,C34,2*%
%TO.N,GND*%
X57400000Y-60500000D03*
%TD*%
D19*
%TO.P,SW1,1*%
%TO.N,GND*%
X85325000Y-46750000D03*
D28*
X85425000Y-46825000D03*
X89275000Y-46825000D03*
D19*
X89375000Y-46750000D03*
D28*
%TO.P,SW1,2*%
%TO.N,/ESP32/EN*%
X85425000Y-48275000D03*
X89275000Y-48275000D03*
%TD*%
D34*
%TO.P,C33,1*%
%TO.N,/3V3*%
X88900000Y-173180000D03*
%TO.P,C33,2*%
%TO.N,GND*%
X88900000Y-172220000D03*
%TD*%
D35*
%TO.P,H8,*%
%TO.N,*%
X122500000Y-125000000D03*
%TD*%
D12*
%TO.P,U24,1,VDD1_0*%
%TO.N,Net-(U24-VDD1_0)*%
X110916000Y-156263000D03*
%TO.P,U24,2,VDD2_0*%
%TO.N,Net-(U24-VDD2_0)*%
X110916000Y-155761000D03*
%TO.P,U24,3,VDD3_0*%
%TO.N,Net-(U24-VDD3_0)*%
X110916000Y-155259000D03*
%TO.P,U24,4,VSS*%
%TO.N,/BM1366-2/VDD2*%
X110916000Y-154757000D03*
%TO.P,U24,5,NRSTI*%
%TO.N,/BM1366-3/NRSTI3*%
X110916000Y-154255000D03*
%TO.P,U24,6,BI*%
%TO.N,/BM1366-3/BI3*%
X110916000Y-153753000D03*
%TO.P,U24,7,RO*%
%TO.N,Net-(U24-RO)*%
X110916000Y-153251000D03*
%TO.P,U24,8,CLKI*%
%TO.N,/BM1366-3/CLKI1*%
X110916000Y-152749000D03*
%TO.P,U24,9,CI*%
%TO.N,/BM1366-3/CI3*%
X110916000Y-152247000D03*
%TO.P,U24,10,ADDR0*%
%TO.N,Net-(U24-ADDR0)*%
X110916000Y-151745000D03*
%TO.P,U24,11,ADDR1*%
%TO.N,Net-(U24-ADDR1)*%
X110916000Y-151243000D03*
%TO.P,U24,12,PLL_VSS*%
%TO.N,/BM1366-2/VDD2*%
X110916000Y-150741000D03*
%TO.P,U24,13,VDDIO_08_0*%
%TO.N,/BM1366-3/0V8*%
X110916000Y-150239000D03*
%TO.P,U24,14,VDDIO_18_0*%
%TO.N,/BM1366-3/1V8*%
X110916000Y-149737000D03*
%TO.P,U24,15,VDDIO_18_1*%
X105084000Y-149750000D03*
%TO.P,U24,16,VDDIO_08_1*%
%TO.N,/BM1366-3/0V8*%
X105084000Y-150250000D03*
%TO.P,U24,17,VSS*%
%TO.N,/BM1366-2/VDD2*%
X105084000Y-150750000D03*
%TO.P,U24,18,PIN_MODE*%
%TO.N,unconnected-(U24-PIN_MODE-Pad18)*%
X105084000Y-151250000D03*
%TO.P,U24,19,INV_CLKO*%
%TO.N,Net-(U24-INV_CLKO)*%
X105084000Y-151750000D03*
%TO.P,U24,20,CO*%
%TO.N,Net-(U24-CO)*%
X105084000Y-152247000D03*
%TO.P,U24,21,CLKO*%
%TO.N,Net-(U24-CLKO)*%
X105084000Y-152750000D03*
%TO.P,U24,22,RI*%
%TO.N,Net-(U24-RI)*%
X105084000Y-153251000D03*
%TO.P,U24,23,BO*%
%TO.N,Net-(U24-BO)*%
X105084000Y-153753000D03*
%TO.P,U24,24,NRSTO*%
%TO.N,Net-(U24-NRSTO)*%
X105084000Y-154255000D03*
%TO.P,U24,25,VSS*%
%TO.N,/BM1366-2/VDD2*%
X105084000Y-154757000D03*
%TO.P,U24,26,VDD3_1*%
%TO.N,Net-(U24-VDD3_1)*%
X105084000Y-155250000D03*
%TO.P,U24,27,VDD2_1*%
%TO.N,Net-(U24-VDD2_1)*%
X105084000Y-155761000D03*
%TO.P,U24,28,VDD1_1*%
%TO.N,Net-(U24-VDD1_1)*%
X105084000Y-156250000D03*
D13*
%TO.P,U24,29,VDD*%
%TO.N,/VDD*%
X108000000Y-155468000D03*
D14*
%TO.P,U24,30,VSS*%
%TO.N,/BM1366-2/VDD2*%
X108000000Y-151892000D03*
%TD*%
D36*
%TO.P,R7,1*%
%TO.N,/3V3*%
X104010000Y-68250000D03*
%TO.P,R7,2*%
%TO.N,/Power/PGOOD*%
X102990000Y-68250000D03*
%TD*%
D35*
%TO.P,H7,*%
%TO.N,*%
X62000000Y-125000000D03*
%TD*%
D26*
%TO.P,FID1,*%
%TO.N,*%
X132842000Y-54050000D03*
%TD*%
D31*
%TO.P,C10,1*%
%TO.N,/VIN_M*%
X74500000Y-68925000D03*
%TO.P,C10,2*%
%TO.N,GND*%
X74500000Y-71875000D03*
%TD*%
D29*
%TO.P,C30,1*%
%TO.N,/ESP32/XOUT32*%
X99380000Y-59600000D03*
%TO.P,C30,2*%
%TO.N,GND*%
X98420000Y-59600000D03*
%TD*%
D32*
%TO.P,R15,1*%
%TO.N,/ESP32/TFT_BLK*%
X105400000Y-73740000D03*
%TO.P,R15,2*%
%TO.N,Net-(Q5-G)*%
X105400000Y-74760000D03*
%TD*%
D26*
%TO.P,FID7,*%
%TO.N,*%
X58166000Y-173736000D03*
%TD*%
D37*
%TO.P,C155,1*%
%TO.N,/VDD*%
X85700000Y-76300000D03*
%TO.P,C155,2*%
%TO.N,GND*%
X83800000Y-76300000D03*
%TD*%
D38*
%TO.P,U10,1,SCL*%
%TO.N,/SCL*%
X84800100Y-54099999D03*
%TO.P,U10,2,GND*%
%TO.N,GND*%
X84800100Y-53600000D03*
%TO.P,U10,3,ALERT*%
%TO.N,unconnected-(U10-ALERT-Pad3)*%
X84800100Y-53100001D03*
%TO.P,U10,4,A0*%
%TO.N,/SDA*%
X83199900Y-53100001D03*
%TO.P,U10,5,V+*%
%TO.N,/3V3*%
X83199900Y-53600000D03*
%TO.P,U10,6,SDA*%
%TO.N,/SDA*%
X83199900Y-54099999D03*
%TD*%
D31*
%TO.P,C6,1*%
%TO.N,/VIN_M*%
X78300000Y-68925000D03*
%TO.P,C6,2*%
%TO.N,GND*%
X78300000Y-71875000D03*
%TD*%
D35*
%TO.P,H10,*%
%TO.N,*%
X122500000Y-153000000D03*
%TD*%
D12*
%TO.P,U16,1,VDD1_0*%
%TO.N,Net-(U13-VDD1_1)*%
X80916000Y-100263000D03*
%TO.P,U16,2,VDD2_0*%
%TO.N,Net-(U13-VDD2_1)*%
X80916000Y-99761000D03*
%TO.P,U16,3,VDD3_0*%
%TO.N,Net-(U13-VDD3_1)*%
X80916000Y-99259000D03*
%TO.P,U16,4,VSS*%
%TO.N,GND*%
X80916000Y-98757000D03*
%TO.P,U16,5,NRSTI*%
%TO.N,Net-(U13-NRSTO)*%
X80916000Y-98255000D03*
%TO.P,U16,6,BI*%
%TO.N,Net-(U16-BI)*%
X80916000Y-97753000D03*
%TO.P,U16,7,RO*%
%TO.N,Net-(U16-RO)*%
X80916000Y-97251000D03*
%TO.P,U16,8,CLKI*%
%TO.N,Net-(U16-CLKI)*%
X80916000Y-96749000D03*
%TO.P,U16,9,CI*%
%TO.N,Net-(U16-CI)*%
X80916000Y-96247000D03*
%TO.P,U16,10,ADDR0*%
%TO.N,Net-(U16-ADDR0)*%
X80916000Y-95745000D03*
%TO.P,U16,11,ADDR1*%
%TO.N,Net-(U16-ADDR1)*%
X80916000Y-95243000D03*
%TO.P,U16,12,PLL_VSS*%
%TO.N,GND*%
X80916000Y-94741000D03*
%TO.P,U16,13,VDDIO_08_0*%
%TO.N,/BM1366-1/0V8*%
X80916000Y-94239000D03*
%TO.P,U16,14,VDDIO_18_0*%
%TO.N,/BM1366-1/1V8*%
X80916000Y-93737000D03*
%TO.P,U16,15,VDDIO_18_1*%
X75084000Y-93750000D03*
%TO.P,U16,16,VDDIO_08_1*%
%TO.N,/BM1366-1/0V8*%
X75084000Y-94250000D03*
%TO.P,U16,17,VSS*%
%TO.N,GND*%
X75084000Y-94750000D03*
%TO.P,U16,18,PIN_MODE*%
%TO.N,unconnected-(U16-PIN_MODE-Pad18)*%
X75084000Y-95250000D03*
%TO.P,U16,19,INV_CLKO*%
%TO.N,Net-(U16-INV_CLKO)*%
X75084000Y-95750000D03*
%TO.P,U16,20,CO*%
%TO.N,Net-(U16-CO)*%
X75084000Y-96247000D03*
%TO.P,U16,21,CLKO*%
%TO.N,Net-(U16-CLKO)*%
X75084000Y-96750000D03*
%TO.P,U16,22,RI*%
%TO.N,/BM1366-1/RI*%
X75084000Y-97251000D03*
%TO.P,U16,23,BO*%
%TO.N,Net-(U16-BO)*%
X75084000Y-97753000D03*
%TO.P,U16,24,NRSTO*%
%TO.N,Net-(U16-NRSTO)*%
X75084000Y-98255000D03*
%TO.P,U16,25,VSS*%
%TO.N,GND*%
X75084000Y-98757000D03*
%TO.P,U16,26,VDD3_1*%
%TO.N,Net-(U16-VDD3_1)*%
X75084000Y-99250000D03*
%TO.P,U16,27,VDD2_1*%
%TO.N,Net-(U16-VDD2_1)*%
X75084000Y-99761000D03*
%TO.P,U16,28,VDD1_1*%
%TO.N,Net-(U16-VDD1_1)*%
X75084000Y-100250000D03*
D13*
%TO.P,U16,29,VDD*%
%TO.N,/BM1366-1/VDD1*%
X78000000Y-99468000D03*
D14*
%TO.P,U16,30,VSS*%
%TO.N,GND*%
X78000000Y-95892000D03*
%TD*%
D39*
%TO.P,C153,1*%
%TO.N,/VDD*%
X81550000Y-79450000D03*
%TO.P,C153,2*%
%TO.N,GND*%
X81550000Y-77550000D03*
%TD*%
D35*
%TO.P,H6,*%
%TO.N,*%
X122500000Y-97000000D03*
%TD*%
%TO.P,H5,*%
%TO.N,*%
X62000000Y-97000000D03*
%TD*%
D40*
%TO.P,J7,1,Pin_1*%
%TO.N,GND*%
X125800000Y-55200000D03*
D41*
%TO.P,J7,2,Pin_2*%
%TO.N,/3V3*%
X125800000Y-57740000D03*
%TO.P,J7,3,Pin_3*%
%TO.N,/SCL*%
X125800000Y-60280000D03*
%TO.P,J7,4,Pin_4*%
%TO.N,/SDA*%
X125800000Y-62820000D03*
%TD*%
D42*
%TO.P,U9,1,GND*%
%TO.N,GND*%
X104350000Y-47780000D03*
%TO.P,U9,2,3V3*%
%TO.N,/3V3*%
X104350000Y-49050000D03*
%TO.P,U9,3,EN*%
%TO.N,/ESP32/EN*%
X104350000Y-50320000D03*
%TO.P,U9,4,GPIO4/TOUCH4/ADC1_CH3*%
%TO.N,/ESP32/TFT_RES*%
X104350000Y-51590000D03*
%TO.P,U9,5,GPIO5/TOUCH5/ADC1_CH4*%
%TO.N,/ESP32/TFT_SDA*%
X104350000Y-52860000D03*
%TO.P,U9,6,GPIO6/TOUCH6/ADC1_CH5*%
%TO.N,/ESP32/TFT_SCL*%
X104350000Y-54130000D03*
%TO.P,U9,7,GPIO7/TOUCH7/ADC1_CH6*%
%TO.N,/ESP32/TFT_CS*%
X104350000Y-55400000D03*
%TO.P,U9,8,GPIO15/U0RTS/ADC2_CH4/XTAL_32K_P*%
%TO.N,/ESP32/XIN32*%
X104350000Y-56670000D03*
%TO.P,U9,9,GPIO16/U0CTS/ADC2_CH5/XTAL_32K_NH5*%
%TO.N,/ESP32/XOUT32*%
X104350000Y-57940000D03*
%TO.P,U9,10,GPIO17/U1TXD/ADC2_CH6*%
%TO.N,/ESP32/ESP32_TX*%
X104350000Y-59210000D03*
%TO.P,U9,11,GPIO18/U1RXD/ADC2_CH7/CLK_OUT3*%
%TO.N,/ESP32/ESP32_RX*%
X104350000Y-60480000D03*
%TO.P,U9,12,GPIO8/TOUCH8/ADC1_CH7/SUBSPICS1*%
%TO.N,/ESP32/TFT_DC*%
X104350000Y-61750000D03*
%TO.P,U9,13,GPIO19/U1RTS/ADC2_CH8/CLK_OUT2/USB_D-*%
%TO.N,Net-(U9-GPIO19{slash}U1RTS{slash}ADC2_CH8{slash}CLK_OUT2{slash}USB_D-)*%
X104350000Y-63020000D03*
%TO.P,U9,14,GPIO20/U1CTS/ADC2_CH9/CLK_OUT1/USB_D+*%
%TO.N,Net-(U9-GPIO20{slash}U1CTS{slash}ADC2_CH9{slash}CLK_OUT1{slash}USB_D+)*%
X104350000Y-64290000D03*
D43*
%TO.P,U9,15,GPIO3/TOUCH3/ADC1_CH2\u002A*%
%TO.N,/3V3*%
X106115000Y-65540000D03*
%TO.P,U9,16,\u002AGPIO46*%
%TO.N,unconnected-(U9-\u002AGPIO46-Pad16)*%
X107385000Y-65540000D03*
%TO.P,U9,17,GPIO9/TOUCH9/ADC1_CH8/FSPIHD/SUBSPIHD*%
%TO.N,/ESP32/TFT_BLK*%
X108655000Y-65540000D03*
%TO.P,U9,18,GPIO10/TOUCH10/ADC1_CH9/FSPICS0/FSPIIO4/SUBSPICS0*%
%TO.N,/ESP32/PWR_EN*%
X109925000Y-65540000D03*
%TO.P,U9,19,GPIO11/TOUCH11/ADC2_CH0/FSPID/FSPIIO5/SUBSPID*%
%TO.N,/Power/PGOOD*%
X111195000Y-65540000D03*
%TO.P,U9,20,GPIO12/TOUCH12/ADC2_CH1/FSPICLK/FSPIIO6/SUBSPICLK*%
%TO.N,Net-(U9-GPIO12{slash}TOUCH12{slash}ADC2_CH1{slash}FSPICLK{slash}FSPIIO6{slash}SUBSPICLK)*%
X112465000Y-65540000D03*
%TO.P,U9,21,GPIO13/TOUCH13/ADC2_CH2/FSPIQ/FSPIIO7/SUBSPIQ*%
%TO.N,Net-(U9-GPIO13{slash}TOUCH13{slash}ADC2_CH2{slash}FSPIQ{slash}FSPIIO7{slash}SUBSPIQ)*%
X113735000Y-65540000D03*
%TO.P,U9,22,GPIO14/TOUCH14/ADC2_CH3/FSPIWP/FSPIDQS/SUBSPIWP*%
%TO.N,Net-(U9-GPIO14{slash}TOUCH14{slash}ADC2_CH3{slash}FSPIWP{slash}FSPIDQS{slash}SUBSPIWP)*%
X115005000Y-65540000D03*
%TO.P,U9,23,GPIO21*%
%TO.N,unconnected-(U9-GPIO21-Pad23)*%
X116275000Y-65540000D03*
%TO.P,U9,24,GPIO47/SPICLK_P/SUBSPICLK_P_DIFF*%
%TO.N,/SDA*%
X117545000Y-65540000D03*
%TO.P,U9,25,GPIO48/SPICLK_N/SUBSPICLK_N_DIFF*%
%TO.N,/SCL*%
X118815000Y-65540000D03*
%TO.P,U9,26,\u002AGPIO45*%
%TO.N,unconnected-(U9-\u002AGPIO45-Pad26)*%
X120085000Y-65540000D03*
D42*
%TO.P,U9,27,GPIO0/BOOT\u002A*%
%TO.N,/ESP32/IO0*%
X121850000Y-64290000D03*
%TO.P,U9,28,SPIIO6/GPIO35/FSPID/SUBSPID*%
%TO.N,Net-(U9-SPIIO6{slash}GPIO35{slash}FSPID{slash}SUBSPID)*%
X121850000Y-63020000D03*
%TO.P,U9,29,SPIIO7/GPIO36/FSPICLK/SUBSPICLK*%
%TO.N,Net-(U9-SPIIO7{slash}GPIO36{slash}FSPICLK{slash}SUBSPICLK)*%
X121850000Y-61750000D03*
%TO.P,U9,30,SPIDQS/GPIO37/FSPIQ/SUBSPIQ*%
%TO.N,Net-(U9-SPIDQS{slash}GPIO37{slash}FSPIQ{slash}SUBSPIQ)*%
X121850000Y-60480000D03*
%TO.P,U9,31,GPIO38/FSPIWP/SUBSPIWP*%
%TO.N,Net-(U9-GPIO38{slash}FSPIWP{slash}SUBSPIWP)*%
X121850000Y-59210000D03*
%TO.P,U9,32,MTCK/GPIO39/CLK_OUT3/SUBSPICS1*%
%TO.N,Net-(U9-MTCK{slash}GPIO39{slash}CLK_OUT3{slash}SUBSPICS1)*%
X121850000Y-57940000D03*
%TO.P,U9,33,MTDO/GPIO40/CLK_OUT2*%
%TO.N,Net-(U9-MTDO{slash}GPIO40{slash}CLK_OUT2)*%
X121850000Y-56670000D03*
%TO.P,U9,34,MTDI/GPIO41/CLK_OUT1*%
%TO.N,Net-(U9-MTDI{slash}GPIO41{slash}CLK_OUT1)*%
X121850000Y-55400000D03*
%TO.P,U9,35,MTMS/GPIO42*%
%TO.N,Net-(U9-MTMS{slash}GPIO42)*%
X121850000Y-54130000D03*
%TO.P,U9,36,U0RXD/GPIO44/CLK_OUT2*%
%TO.N,/ESP32/P_RX*%
X121850000Y-52860000D03*
%TO.P,U9,37,U0TXD/GPIO43/CLK_OUT1*%
%TO.N,/ESP32/P_TX*%
X121850000Y-51590000D03*
%TO.P,U9,38,GPIO2/TOUCH2/ADC1_CH1*%
%TO.N,/ESP32/VDD_SAMPLE*%
X121850000Y-50320000D03*
%TO.P,U9,39,GPIO1/TOUCH1/ADC1_CH0*%
%TO.N,/ESP32/ASIC_RST*%
X121850000Y-49050000D03*
%TO.P,U9,40,GND*%
%TO.N,GND*%
X121850000Y-47780000D03*
D44*
%TO.P,U9,41,GND*%
X110200000Y-54100000D03*
X110200000Y-55500000D03*
X110200000Y-56900000D03*
X111600000Y-54100000D03*
X111600000Y-55500000D03*
X111600000Y-56900000D03*
X113000000Y-54100000D03*
X113000000Y-55500000D03*
X113000000Y-56900000D03*
%TD*%
D45*
%TO.P,J8,1,Pin_1*%
%TO.N,GND*%
X110650000Y-75450000D03*
%TO.P,J8,2,Pin_2*%
%TO.N,Net-(J8-Pin_2)*%
X111900000Y-75450000D03*
%TO.P,J8,3,Pin_3*%
%TO.N,/3V3*%
X113150000Y-75450000D03*
%TO.P,J8,4,Pin_4*%
X114400000Y-75450000D03*
%TO.P,J8,5,Pin_5*%
%TO.N,GND*%
X115650000Y-75450000D03*
%TO.P,J8,6,Pin_6*%
X116900000Y-75450000D03*
%TO.P,J8,7,Pin_7*%
%TO.N,/ESP32/TFT_DC*%
X118150000Y-75450000D03*
%TO.P,J8,8,Pin_8*%
%TO.N,/ESP32/TFT_CS*%
X119400000Y-75450000D03*
%TO.P,J8,9,Pin_9*%
%TO.N,/ESP32/TFT_SCL*%
X120650000Y-75450000D03*
%TO.P,J8,10,Pin_10*%
%TO.N,/ESP32/TFT_SDA*%
X121900000Y-75450000D03*
%TO.P,J8,11,Pin_11*%
%TO.N,/ESP32/TFT_RES*%
X123150000Y-75450000D03*
%TO.P,J8,12,Pin_12*%
%TO.N,GND*%
X124400000Y-75450000D03*
D46*
%TO.P,J8,MP*%
%TO.N,unconnected-(J8-PadMP)*%
X108800000Y-72100000D03*
%TO.P,J8,MP2*%
%TO.N,unconnected-(J8-PadMP2)*%
X126250000Y-72100000D03*
%TD*%
D26*
%TO.P,FID5,*%
%TO.N,*%
X125984000Y-173228000D03*
%TD*%
D38*
%TO.P,U11,1,SCL*%
%TO.N,/SCL*%
X92400100Y-173699999D03*
%TO.P,U11,2,GND*%
%TO.N,GND*%
X92400100Y-173200000D03*
%TO.P,U11,3,ALERT*%
%TO.N,unconnected-(U11-ALERT-Pad3)*%
X92400100Y-172700001D03*
%TO.P,U11,4,A0*%
%TO.N,/SCL*%
X90799900Y-172700001D03*
%TO.P,U11,5,V+*%
%TO.N,/3V3*%
X90799900Y-173200000D03*
%TO.P,U11,6,SDA*%
%TO.N,/SDA*%
X90799900Y-173699999D03*
%TD*%
D47*
%TO.P,Q1,1*%
%TO.N,/Power/SW*%
X86100000Y-64570000D03*
%TO.P,Q1,2*%
X86100000Y-63300000D03*
%TO.P,Q1,3,S*%
X86100000Y-62030000D03*
%TO.P,Q1,4,G*%
%TO.N,Net-(Q1-G)*%
X86100000Y-60760000D03*
D48*
%TO.P,Q1,5,D*%
%TO.N,/VIN_M*%
X82692500Y-62665000D03*
%TD*%
D49*
%TO.P,C24,1*%
%TO.N,/ESP32/EN*%
X90100000Y-53020000D03*
%TO.P,C24,2*%
%TO.N,GND*%
X90100000Y-53980000D03*
%TD*%
D50*
%TO.P,J4,A1,GND*%
%TO.N,GND*%
X99870000Y-53420000D03*
%TO.P,J4,A4,VBUS*%
%TO.N,Net-(D1-Pad2)*%
X99070000Y-53420000D03*
D51*
%TO.P,J4,A5,CC1*%
%TO.N,Net-(J4-CC1)*%
X97920000Y-53375000D03*
%TO.P,J4,A6,D+*%
%TO.N,Net-(U9-GPIO20{slash}U1CTS{slash}ADC2_CH9{slash}CLK_OUT1{slash}USB_D+)*%
X96920000Y-53375000D03*
%TO.P,J4,A7,D-*%
%TO.N,Net-(U9-GPIO19{slash}U1RTS{slash}ADC2_CH8{slash}CLK_OUT2{slash}USB_D-)*%
X96420000Y-53375000D03*
%TO.P,J4,A8,SBU1*%
%TO.N,unconnected-(J4-SBU1-PadA8)*%
X95420000Y-53375000D03*
D50*
%TO.P,J4,A9,VBUS*%
%TO.N,Net-(D1-Pad2)*%
X94270000Y-53420000D03*
%TO.P,J4,A12,GND*%
%TO.N,GND*%
X93470000Y-53420000D03*
%TO.P,J4,B1,GND*%
X93470000Y-53420000D03*
%TO.P,J4,B4,VBUS*%
%TO.N,Net-(D1-Pad2)*%
X94270000Y-53420000D03*
D51*
%TO.P,J4,B5,CC2*%
%TO.N,Net-(J4-CC2)*%
X94920000Y-53375000D03*
%TO.P,J4,B6,D+*%
%TO.N,Net-(U9-GPIO20{slash}U1CTS{slash}ADC2_CH9{slash}CLK_OUT1{slash}USB_D+)*%
X95920000Y-53375000D03*
%TO.P,J4,B7,D-*%
%TO.N,Net-(U9-GPIO19{slash}U1RTS{slash}ADC2_CH8{slash}CLK_OUT2{slash}USB_D-)*%
X97420000Y-53375000D03*
%TO.P,J4,B8,SBU2*%
%TO.N,unconnected-(J4-SBU2-PadB8)*%
X98420000Y-53375000D03*
D50*
%TO.P,J4,B9,VBUS*%
%TO.N,Net-(D1-Pad2)*%
X99070000Y-53420000D03*
%TO.P,J4,B12,GND*%
%TO.N,GND*%
X99870000Y-53420000D03*
D52*
%TO.P,J4,S1,SHIELD*%
X100990000Y-52800000D03*
D53*
X100990000Y-48620000D03*
D52*
X92350000Y-52800000D03*
D53*
X92350000Y-48620000D03*
%TD*%
D19*
%TO.P,H2,1,1*%
%TO.N,GND*%
X128750000Y-49500000D03*
X129409010Y-47909010D03*
X129409010Y-51090990D03*
X131000000Y-47250000D03*
D20*
X131000000Y-49500000D03*
D19*
X131000000Y-51750000D03*
X132590990Y-47909010D03*
X132590990Y-51090990D03*
X133250000Y-49500000D03*
%TD*%
D54*
%TO.P,C1,1*%
%TO.N,/VIN_M*%
X75100000Y-63075000D03*
%TO.P,C1,2*%
%TO.N,GND*%
X75100000Y-60125000D03*
%TD*%
D35*
%TO.P,H9,*%
%TO.N,*%
X62000000Y-153000000D03*
%TD*%
D33*
%TO.P,C35,1*%
%TO.N,/VIN_M*%
X65700000Y-65900000D03*
%TO.P,C35,2*%
%TO.N,GND*%
X65700000Y-60500000D03*
%TD*%
D37*
%TO.P,C154,1*%
%TO.N,/VDD*%
X85700000Y-78410000D03*
%TO.P,C154,2*%
%TO.N,GND*%
X83800000Y-78410000D03*
%TD*%
D55*
%TO.P,D1,1*%
%TO.N,/5V*%
X93550000Y-62000000D03*
%TO.P,D1,2*%
%TO.N,Net-(D1-Pad2)*%
X93550000Y-58000000D03*
%TD*%
D12*
%TO.P,U13,1,VDD1_0*%
%TO.N,Net-(U13-VDD1_0)*%
X110916000Y-100263000D03*
%TO.P,U13,2,VDD2_0*%
%TO.N,Net-(U13-VDD2_0)*%
X110916000Y-99761000D03*
%TO.P,U13,3,VDD3_0*%
%TO.N,Net-(U13-VDD3_0)*%
X110916000Y-99259000D03*
%TO.P,U13,4,VSS*%
%TO.N,GND*%
X110916000Y-98757000D03*
%TO.P,U13,5,NRSTI*%
%TO.N,/NRSTI*%
X110916000Y-98255000D03*
%TO.P,U13,6,BI*%
%TO.N,/BM1366-1/BI1*%
X110916000Y-97753000D03*
%TO.P,U13,7,RO*%
%TO.N,/RO*%
X110916000Y-97251000D03*
%TO.P,U13,8,CLKI*%
%TO.N,/BM1366-1/CLKI1*%
X110916000Y-96749000D03*
%TO.P,U13,9,CI*%
%TO.N,/CI*%
X110916000Y-96247000D03*
%TO.P,U13,10,ADDR0*%
%TO.N,Net-(U13-ADDR0)*%
X110916000Y-95745000D03*
%TO.P,U13,11,ADDR1*%
%TO.N,Net-(U13-ADDR1)*%
X110916000Y-95243000D03*
%TO.P,U13,12,PLL_VSS*%
%TO.N,GND*%
X110916000Y-94741000D03*
%TO.P,U13,13,VDDIO_08_0*%
%TO.N,/BM1366-1/0V8*%
X110916000Y-94239000D03*
%TO.P,U13,14,VDDIO_18_0*%
%TO.N,/BM1366-1/1V8*%
X110916000Y-93737000D03*
%TO.P,U13,15,VDDIO_18_1*%
X105084000Y-93750000D03*
%TO.P,U13,16,VDDIO_08_1*%
%TO.N,/BM1366-1/0V8*%
X105084000Y-94250000D03*
%TO.P,U13,17,VSS*%
%TO.N,GND*%
X105084000Y-94750000D03*
%TO.P,U13,18,PIN_MODE*%
%TO.N,unconnected-(U13-PIN_MODE-Pad18)*%
X105084000Y-95250000D03*
%TO.P,U13,19,INV_CLKO*%
%TO.N,Net-(U13-INV_CLKO)*%
X105084000Y-95750000D03*
%TO.P,U13,20,CO*%
%TO.N,Net-(U13-CO)*%
X105084000Y-96247000D03*
%TO.P,U13,21,CLKO*%
%TO.N,Net-(U13-CLKO)*%
X105084000Y-96750000D03*
%TO.P,U13,22,RI*%
%TO.N,Net-(U13-RI)*%
X105084000Y-97251000D03*
%TO.P,U13,23,BO*%
%TO.N,Net-(U13-BO)*%
X105084000Y-97753000D03*
%TO.P,U13,24,NRSTO*%
%TO.N,Net-(U13-NRSTO)*%
X105084000Y-98255000D03*
%TO.P,U13,25,VSS*%
%TO.N,GND*%
X105084000Y-98757000D03*
%TO.P,U13,26,VDD3_1*%
%TO.N,Net-(U13-VDD3_1)*%
X105084000Y-99250000D03*
%TO.P,U13,27,VDD2_1*%
%TO.N,Net-(U13-VDD2_1)*%
X105084000Y-99761000D03*
%TO.P,U13,28,VDD1_1*%
%TO.N,Net-(U13-VDD1_1)*%
X105084000Y-100250000D03*
D13*
%TO.P,U13,29,VDD*%
%TO.N,/BM1366-1/VDD1*%
X108000000Y-99468000D03*
D14*
%TO.P,U13,30,VSS*%
%TO.N,GND*%
X108000000Y-95892000D03*
%TD*%
D56*
%TO.P,U4,17,PAD*%
%TO.N,GND*%
X78640000Y-75250000D03*
X77750000Y-76140000D03*
X77750000Y-74360000D03*
X76870000Y-75250000D03*
%TD*%
D57*
%TO.N,GND*%
X84750000Y-93250000D03*
D58*
X106200000Y-81550000D03*
X103500000Y-77100000D03*
X108750000Y-56900000D03*
X99850000Y-55000000D03*
X74650000Y-82450000D03*
X54900000Y-60500000D03*
X108750000Y-89250000D03*
X114500000Y-54100000D03*
X115100000Y-109500000D03*
X109500000Y-90250000D03*
X128900000Y-68800000D03*
X123700000Y-72600000D03*
X99100000Y-107300000D03*
X78000000Y-90250000D03*
D57*
X69000000Y-92750000D03*
D58*
X76400000Y-58900000D03*
X120000000Y-47900000D03*
X53600000Y-60500000D03*
D57*
X85500000Y-100000000D03*
D58*
X101150000Y-73150000D03*
X70950000Y-78500000D03*
X79500000Y-90250000D03*
X77400000Y-56100000D03*
D57*
X79850000Y-53950000D03*
D58*
X115700000Y-73600000D03*
X106500000Y-90250000D03*
D57*
X98900000Y-87100000D03*
D58*
X71500000Y-81750000D03*
X113600000Y-106900000D03*
X54900000Y-61700000D03*
X70350000Y-75050000D03*
X100700000Y-108800000D03*
X126200000Y-82200000D03*
X76500000Y-92250000D03*
X78750000Y-89250000D03*
X53600000Y-61700000D03*
X110250000Y-91250000D03*
X107250000Y-89250000D03*
X105750000Y-91250000D03*
X77250000Y-91250000D03*
X99100000Y-108800000D03*
D57*
X100000000Y-92500000D03*
X118800000Y-101700000D03*
X124600000Y-102000000D03*
D58*
X106200000Y-80100000D03*
X119400000Y-79150000D03*
X111200000Y-50900000D03*
D57*
X116750000Y-98750000D03*
X99000000Y-91400000D03*
D58*
X107250000Y-91250000D03*
X55950000Y-85700000D03*
X78750000Y-91250000D03*
X106500000Y-92250000D03*
D57*
X69000000Y-100500000D03*
D58*
X71550000Y-85100000D03*
X108000000Y-92250000D03*
X78000000Y-92250000D03*
X82600000Y-59200000D03*
X77400000Y-83450000D03*
X77250000Y-89250000D03*
X100700000Y-107300000D03*
D57*
X116250000Y-92500000D03*
D58*
X87400000Y-87800000D03*
X113600000Y-109500000D03*
X115100000Y-108200000D03*
X72100000Y-108400000D03*
X76500000Y-90250000D03*
X70700000Y-109800000D03*
X93250000Y-55000000D03*
X80250000Y-91250000D03*
X75150000Y-85250000D03*
X101100000Y-71700000D03*
X75750000Y-91250000D03*
D57*
X131400000Y-59300000D03*
X60900000Y-104400000D03*
X86100000Y-53600000D03*
D58*
X108000000Y-90250000D03*
X72100000Y-107000000D03*
D57*
X120000000Y-106700000D03*
X87000000Y-92300000D03*
D58*
X77400000Y-57750000D03*
X98400000Y-58100000D03*
X113600000Y-108200000D03*
X102200000Y-107300000D03*
D57*
X101750000Y-100500000D03*
D58*
X124600000Y-87200000D03*
X72100000Y-109800000D03*
X108750000Y-91250000D03*
X109500000Y-92250000D03*
D57*
X62800000Y-64350000D03*
X60200000Y-110200000D03*
D58*
X70700000Y-108400000D03*
X79500000Y-92250000D03*
D57*
%TO.N,/Power/VIN*%
X69600000Y-59550000D03*
%TO.N,/VDD*%
X98200000Y-76700000D03*
D58*
X88500000Y-81800000D03*
X108000000Y-157750000D03*
X78750000Y-158750000D03*
X108750000Y-158750000D03*
X105750000Y-158750000D03*
X109500000Y-159750000D03*
X86300000Y-80600000D03*
X108000000Y-159750000D03*
X93300000Y-80600000D03*
X91900000Y-80600000D03*
X76500000Y-159750000D03*
X107250000Y-160750000D03*
X89900000Y-81800000D03*
X78750000Y-160750000D03*
X90500000Y-80600000D03*
D57*
X124780000Y-140100000D03*
D58*
X94100000Y-81800000D03*
X78000000Y-159750000D03*
D57*
X124080000Y-131600000D03*
D58*
X109500000Y-157750000D03*
D57*
X124130000Y-146370000D03*
D58*
X106500000Y-159750000D03*
D57*
X90050000Y-77600000D03*
D58*
X76500000Y-157750000D03*
D57*
X80800000Y-66050000D03*
D58*
X91300000Y-81800000D03*
X106500000Y-157750000D03*
X110250000Y-158750000D03*
X108750000Y-160750000D03*
X77250000Y-160750000D03*
X87700000Y-80600000D03*
X79500000Y-159750000D03*
X75750000Y-158750000D03*
X79500000Y-157750000D03*
D57*
X96050000Y-75400000D03*
D58*
X89100000Y-80600000D03*
X78000000Y-157750000D03*
X77250000Y-158750000D03*
X107250000Y-158750000D03*
X87100000Y-81800000D03*
X92700000Y-81800000D03*
X80250000Y-158750000D03*
D57*
%TO.N,/ESP32/EN*%
X106200000Y-50400000D03*
X124275000Y-50938100D03*
X87400000Y-48847302D03*
%TO.N,/5V*%
X96200000Y-119800000D03*
X99000000Y-140000000D03*
X98100000Y-85000000D03*
X99400000Y-116300000D03*
X96400000Y-142600000D03*
X99100000Y-110800000D03*
X99900000Y-90100000D03*
D58*
X111050000Y-82800000D03*
X111050000Y-81550000D03*
X112400000Y-81550000D03*
D57*
X95600000Y-148800000D03*
X96100000Y-93900000D03*
X96300000Y-114200000D03*
X98100000Y-144900000D03*
%TO.N,/3V3*%
X81950000Y-53800000D03*
D58*
X106200000Y-49100000D03*
X126300000Y-69200000D03*
D57*
X130300000Y-55700000D03*
D58*
X125200000Y-84600000D03*
X62250000Y-67750000D03*
X115150000Y-80550000D03*
X60950000Y-86750000D03*
X120550000Y-71650000D03*
D57*
X106100000Y-67100000D03*
X87550000Y-54000000D03*
D58*
X98300000Y-80800000D03*
%TO.N,/VIN_M*%
X79800000Y-57650000D03*
X79800000Y-56400000D03*
X81100000Y-56400000D03*
X81100000Y-57700000D03*
X68400000Y-80050000D03*
D57*
X69600000Y-63450000D03*
%TO.N,/SCL*%
X96700000Y-173200000D03*
X61850000Y-84400000D03*
X85550000Y-55000000D03*
X99100000Y-65150000D03*
X84950000Y-58950000D03*
X94700000Y-172700000D03*
X89900000Y-172400000D03*
X118800000Y-62900000D03*
X61400000Y-63650000D03*
%TO.N,/Power/SW*%
X74700000Y-70550000D03*
X90250000Y-69400000D03*
%TO.N,Net-(U24-INV_CLKO)*%
X99400000Y-148800000D03*
%TO.N,/ESP32/P_TX*%
X127350000Y-52450000D03*
%TO.N,/ESP32/P_RX*%
X127300000Y-53600000D03*
%TO.N,/ESP32/IO0*%
X80250000Y-48800000D03*
X124250000Y-47200000D03*
X124100000Y-64900000D03*
X131400000Y-64900000D03*
%TO.N,/Power/PGOOD*%
X68250000Y-81750000D03*
X111200000Y-67000000D03*
X101550000Y-66300000D03*
%TO.N,/SDA*%
X61250000Y-62500000D03*
X83199900Y-55100000D03*
X83850000Y-58950000D03*
X100350000Y-65150000D03*
X61850000Y-85700000D03*
X117600000Y-63700000D03*
%TO.N,/BM1366-1/0V8*%
X71000000Y-92000000D03*
X102000000Y-91500000D03*
X84200000Y-91300000D03*
X114000000Y-91500000D03*
%TO.N,/BM1366-1/1V8*%
X72250000Y-91000000D03*
X122500000Y-100900000D03*
X112750000Y-91500000D03*
X83000000Y-91250000D03*
X103250000Y-91750000D03*
%TO.N,Net-(U27-INV_CLKO)*%
X70700000Y-149200000D03*
%TO.N,Net-(U13-INV_CLKO)*%
X102250000Y-94000000D03*
%TO.N,/BM1366-2/0V8*%
X71750000Y-119250000D03*
X114200000Y-119700000D03*
X84250000Y-119500000D03*
X101900000Y-119900000D03*
%TO.N,/BM1366-2/1V8*%
X83000000Y-119500000D03*
X73000000Y-119500000D03*
X113000000Y-119700000D03*
X103100000Y-119800000D03*
%TO.N,Net-(U22-RO)*%
X70400000Y-123300000D03*
%TO.N,Net-(U24-RO)*%
X115400000Y-152600000D03*
%TO.N,/NRSTI*%
X116200000Y-97800000D03*
%TO.N,/RO*%
X117600000Y-96600000D03*
%TO.N,/CI*%
X119400000Y-90100000D03*
%TO.N,/BM1366-3/0V8*%
X114000000Y-147700000D03*
X72000000Y-148000000D03*
X84000000Y-147700000D03*
X101900000Y-147800000D03*
%TO.N,/BM1366-3/1V8*%
X103200000Y-147800000D03*
X73200000Y-148000000D03*
X82900000Y-147700000D03*
X112900000Y-147700000D03*
%TO.N,Net-(U16-INV_CLKO)*%
X71100000Y-93750000D03*
%TO.N,Net-(U24-VDD1_1)*%
X82300000Y-159200000D03*
X102600000Y-159400000D03*
%TO.N,Net-(U24-VDD2_1)*%
X83500000Y-159200000D03*
X101700000Y-158800000D03*
%TO.N,Net-(U19-INV_CLKO)*%
X100260000Y-121460000D03*
%TO.N,Net-(U24-VDD3_1)*%
X100700000Y-157500000D03*
X84200000Y-158300000D03*
%TO.N,Net-(U22-INV_CLKO)*%
X69690000Y-118210000D03*
%TO.N,Net-(U27-VDD1_1)*%
X72400000Y-158600000D03*
%TO.N,Net-(U27-VDD2_1)*%
X71300000Y-158600000D03*
%TO.N,Net-(U27-VDD3_1)*%
X71300000Y-157500000D03*
%TO.N,Net-(U13-ADDR0)*%
X117300000Y-94200000D03*
%TO.N,Net-(U13-ADDR1)*%
X117300000Y-93100000D03*
D58*
%TO.N,Net-(D1-Pad2)*%
X98450000Y-55000000D03*
X95300000Y-55000000D03*
D57*
%TO.N,/BM1366-1/BI1*%
X117600000Y-97800000D03*
%TO.N,Net-(Q2-G)*%
X87050000Y-74000000D03*
X72650000Y-70600000D03*
%TO.N,Net-(U16-ADDR0)*%
X87750000Y-94400000D03*
%TO.N,Net-(U16-ADDR1)*%
X87000000Y-93600000D03*
%TO.N,Net-(U19-ADDR0)*%
X117800000Y-118700000D03*
%TO.N,Net-(U19-ADDR1)*%
X116600000Y-117600000D03*
%TO.N,Net-(U22-ADDR0)*%
X85500000Y-121600000D03*
%TO.N,Net-(U22-ADDR1)*%
X85500000Y-120600000D03*
%TO.N,Net-(U24-ADDR0)*%
X116800000Y-147600000D03*
%TO.N,Net-(U24-ADDR1)*%
X116100000Y-146600000D03*
%TO.N,Net-(U27-ADDR0)*%
X84800000Y-150700000D03*
%TO.N,Net-(U27-ADDR1)*%
X84800000Y-149600000D03*
%TO.N,/BM1366-3/NRSTO3*%
X70700000Y-155700000D03*
%TO.N,/ESP32/TFT_RES*%
X118400000Y-68750000D03*
X112150000Y-61950000D03*
%TO.N,/ESP32/TFT_SDA*%
X117100000Y-68750000D03*
X111250000Y-63050000D03*
%TO.N,/ESP32/TFT_SCL*%
X115800000Y-68750000D03*
X110000000Y-61950000D03*
%TO.N,/ESP32/TFT_CS*%
X114550000Y-68750000D03*
X109050000Y-63050000D03*
%TO.N,/ESP32/TFT_DC*%
X106550000Y-62500000D03*
X113050000Y-69250000D03*
%TO.N,Net-(U27-RO)*%
X84200000Y-153800000D03*
%TO.N,Net-(U27-BI)*%
X84800000Y-154800000D03*
%TO.N,Net-(U27-CLKI)*%
X84800000Y-152900000D03*
%TO.N,Net-(U27-CI)*%
X84800000Y-151800000D03*
%TO.N,/BM1366-3/BO3*%
X70700000Y-154500000D03*
D58*
%TO.N,/BM1366-1/VDD1*%
X77000000Y-115600000D03*
X106300000Y-115800000D03*
X115100000Y-136800000D03*
X78400000Y-116900000D03*
D57*
X101000000Y-128200000D03*
X85500000Y-119500000D03*
X99000000Y-112100000D03*
X125400000Y-131600000D03*
D58*
X113600000Y-134200000D03*
D57*
X70500000Y-127600000D03*
D58*
X113600000Y-136800000D03*
X78400000Y-115600000D03*
X79800000Y-115600000D03*
D57*
X85500000Y-128020000D03*
D58*
X79800000Y-116900000D03*
X71400000Y-137800000D03*
D57*
X100700000Y-119900000D03*
D58*
X100800000Y-136800000D03*
X102300000Y-135300000D03*
D57*
X75600000Y-104200000D03*
D58*
X71400000Y-136400000D03*
D57*
X68000000Y-116400000D03*
D58*
X107600000Y-117100000D03*
X70000000Y-137800000D03*
D57*
X110600000Y-102800000D03*
D58*
X100800000Y-135300000D03*
X70000000Y-136400000D03*
X71400000Y-135000000D03*
X107600000Y-115800000D03*
D57*
X115400000Y-119700000D03*
X53550000Y-115200000D03*
X100000000Y-104250000D03*
D58*
X115100000Y-135500000D03*
X99200000Y-136800000D03*
D57*
X115900000Y-128300000D03*
D58*
X99200000Y-135300000D03*
D57*
X86700000Y-118000000D03*
X87900000Y-114100000D03*
X70500000Y-120400000D03*
X70500000Y-119250000D03*
X98600000Y-117300000D03*
D58*
X113600000Y-135500000D03*
X108900000Y-115800000D03*
X106300000Y-117100000D03*
D57*
X85750000Y-103250000D03*
X99400000Y-119900000D03*
X124780000Y-137600000D03*
%TO.N,/BM1366-2/VDD2*%
X115200000Y-147700000D03*
X115920000Y-156140000D03*
D58*
X68900000Y-166200000D03*
X70300000Y-167600000D03*
D57*
X98200000Y-141000000D03*
X72400000Y-131000000D03*
D58*
X99600000Y-167700000D03*
D57*
X100600000Y-147800000D03*
X103100000Y-131400000D03*
X84800000Y-157100000D03*
X86900000Y-146400000D03*
D58*
X68900000Y-167600000D03*
X107400000Y-144900000D03*
X106000000Y-144900000D03*
X114800000Y-167300000D03*
X101100000Y-167700000D03*
X60800000Y-119100000D03*
D57*
X70200000Y-156700000D03*
D58*
X107400000Y-143600000D03*
X99600000Y-169000000D03*
X77000000Y-143700000D03*
X101100000Y-169000000D03*
D57*
X100800000Y-156400000D03*
D58*
X79800000Y-143700000D03*
X108700000Y-143600000D03*
D57*
X131100000Y-142450000D03*
X112600000Y-131700000D03*
D58*
X114800000Y-164700000D03*
D57*
X60200000Y-112200000D03*
X87700000Y-142600000D03*
D58*
X106000000Y-143600000D03*
X70300000Y-166200000D03*
X102500000Y-168300000D03*
D57*
X98080000Y-146280000D03*
D58*
X78400000Y-145000000D03*
D57*
X83200000Y-131300000D03*
D58*
X79800000Y-145000000D03*
X70300000Y-164700000D03*
X78400000Y-143700000D03*
D57*
X59651900Y-104400000D03*
D58*
X114800000Y-166000000D03*
X116300000Y-167300000D03*
X116300000Y-166000000D03*
D57*
X70700000Y-148000000D03*
X84800000Y-148500000D03*
%TO.N,/BM1366-3/RI3*%
X70700000Y-153200000D03*
%TO.N,/BM1366-3/CLKO3*%
X70700000Y-151900000D03*
%TO.N,/BM1366-3/CO3*%
X70700000Y-150600000D03*
%TO.N,/BM1366-1/CLKI1*%
X120200000Y-101700000D03*
%TO.N,/BM1366-2/NRSTI2*%
X56990000Y-114090000D03*
X66300000Y-120200000D03*
%TO.N,/BM1366-2/BI2*%
X67400000Y-121100000D03*
X57000000Y-108600000D03*
%TO.N,/BM1366-2/RO2*%
X63200000Y-105377500D03*
X64700000Y-118950000D03*
%TO.N,/BM1366-2/CI2*%
X63320000Y-114120000D03*
X68500000Y-125200000D03*
%TO.N,/BM1366-3/NRSTI3*%
X115900000Y-155000000D03*
X121780000Y-141700000D03*
%TO.N,/BM1366-3/BI3*%
X121842500Y-136037500D03*
X115900000Y-153700000D03*
%TO.N,/BM1366-3/RO3*%
X127500000Y-132400000D03*
X125200000Y-148900000D03*
%TO.N,/BM1366-3/CI3*%
X127680000Y-141700000D03*
%TO.N,/BM1366-1/NRSTO*%
X63100000Y-102400000D03*
X57400000Y-118100000D03*
%TO.N,/BM1366-1/CO*%
X65200000Y-98900000D03*
X63500000Y-118100000D03*
%TO.N,/BM1366-1/RI*%
X66100000Y-102900000D03*
%TO.N,/BM1366-2/RI*%
X127600000Y-130300000D03*
X118100000Y-124700000D03*
X115900000Y-124700000D03*
%TO.N,/BM1366-2/NRSTO*%
X119100000Y-122300000D03*
X122000000Y-145400000D03*
%TO.N,/BM1366-2/CO*%
X127600000Y-145400000D03*
X118800000Y-131400000D03*
%TO.N,/ESP32/ASIC_RST*%
X113950000Y-62950000D03*
%TO.N,/ESP32/ESP32_TX*%
X107400000Y-61400000D03*
%TO.N,/ESP32/ESP32_RX*%
X106100000Y-60950000D03*
%TO.N,Net-(U9-SPIIO6{slash}GPIO35{slash}FSPID{slash}SUBSPID)*%
X123500000Y-62448100D03*
%TO.N,Net-(U9-SPIIO7{slash}GPIO36{slash}FSPICLK{slash}SUBSPICLK)*%
X123500000Y-61300000D03*
%TO.N,Net-(U9-SPIDQS{slash}GPIO37{slash}FSPIQ{slash}SUBSPIQ)*%
X123500000Y-60000000D03*
%TO.N,Net-(U9-GPIO38{slash}FSPIWP{slash}SUBSPIWP)*%
X123500000Y-58700000D03*
%TO.N,Net-(U9-MTCK{slash}GPIO39{slash}CLK_OUT3{slash}SUBSPICS1)*%
X123500000Y-55000000D03*
%TO.N,/ESP32/PWR_EN*%
X109600000Y-68000000D03*
X99300000Y-77700000D03*
%TO.N,Net-(U9-GPIO12{slash}TOUCH12{slash}ADC2_CH1{slash}FSPICLK{slash}FSPIIO6{slash}SUBSPICLK)*%
X111100000Y-68550000D03*
%TO.N,Net-(U9-GPIO13{slash}TOUCH13{slash}ADC2_CH2{slash}FSPIQ{slash}FSPIIO7{slash}SUBSPIQ)*%
X110050000Y-69250000D03*
%TO.N,Net-(U9-GPIO14{slash}TOUCH14{slash}ADC2_CH3{slash}FSPIWP{slash}FSPIDQS{slash}SUBSPIWP)*%
X107250000Y-63950000D03*
%TO.N,Net-(U24-VDD3_0)*%
X114600000Y-156200000D03*
%TO.N,Net-(U24-VDD2_0)*%
X114600000Y-157400000D03*
%TO.N,Net-(U24-VDD1_0)*%
X114620000Y-158700000D03*
%TO.N,Net-(U24-RI)*%
X100800000Y-152900000D03*
%TO.N,Net-(U24-NRSTO)*%
X100800000Y-155200000D03*
X84800000Y-155900000D03*
%TO.N,Net-(U24-CO)*%
X100800000Y-150500000D03*
%TO.N,Net-(U24-CLKO)*%
X100800000Y-151700000D03*
%TO.N,Net-(U24-BO)*%
X100800000Y-154000000D03*
%TO.N,Net-(U22-VDD3_1)*%
X71200000Y-130300000D03*
%TO.N,Net-(U22-VDD2_1)*%
X70500000Y-129400000D03*
%TO.N,Net-(U22-VDD1_1)*%
X71200000Y-128500000D03*
%TO.N,Net-(U22-RI)*%
X84500000Y-124500000D03*
%TO.N,Net-(U22-NRSTO)*%
X85500000Y-122600000D03*
%TO.N,Net-(U22-CO)*%
X85500000Y-126600000D03*
%TO.N,Net-(U22-CLKO)*%
X85500000Y-125300000D03*
%TO.N,Net-(U22-BO)*%
X85500000Y-123700000D03*
%TO.N,Net-(U19-VDD3_1)*%
X101700000Y-131100000D03*
X84600000Y-130220000D03*
%TO.N,Net-(U19-VDD3_0)*%
X114600000Y-130500000D03*
%TO.N,Net-(U19-VDD2_1)*%
X101700000Y-130000000D03*
X85500000Y-129520000D03*
%TO.N,Net-(U19-VDD2_0)*%
X114600000Y-129400000D03*
%TO.N,Net-(U19-VDD1_1)*%
X84600000Y-128820000D03*
X101700000Y-129000000D03*
%TO.N,Net-(U19-VDD1_0)*%
X114600000Y-128300000D03*
%TO.N,Net-(U19-RO)*%
X101900000Y-125300000D03*
%TO.N,Net-(U19-NRSTO)*%
X116000000Y-122300000D03*
%TO.N,Net-(U19-NRSTI)*%
X100700000Y-122500000D03*
X92200000Y-122600000D03*
X92200000Y-127100000D03*
%TO.N,Net-(U19-CO)*%
X115910000Y-127200000D03*
%TO.N,Net-(U19-CLKO)*%
X115910000Y-126000000D03*
%TO.N,Net-(U19-CLKI)*%
X100700000Y-126100000D03*
%TO.N,Net-(U19-CI)*%
X100700000Y-127200000D03*
%TO.N,Net-(U19-BO)*%
X115910000Y-123600000D03*
%TO.N,Net-(U19-BI)*%
X100700000Y-123700000D03*
%TO.N,Net-(U16-VDD3_1)*%
X70250000Y-101500000D03*
%TO.N,Net-(U16-VDD2_1)*%
X71500000Y-102500000D03*
%TO.N,Net-(U16-VDD1_1)*%
X72750000Y-103250000D03*
%TO.N,Net-(U16-RO)*%
X84250000Y-97250000D03*
%TO.N,Net-(U16-NRSTO)*%
X71000000Y-99500000D03*
%TO.N,Net-(U16-CO)*%
X71100000Y-95000000D03*
%TO.N,Net-(U16-CLKO)*%
X71100000Y-96250000D03*
%TO.N,Net-(U16-CLKI)*%
X84000000Y-96250000D03*
%TO.N,Net-(U16-CI)*%
X84750000Y-95250000D03*
%TO.N,Net-(U16-BO)*%
X71000000Y-98250000D03*
%TO.N,Net-(U16-BI)*%
X83750000Y-98250000D03*
%TO.N,Net-(U13-VDD3_1)*%
X84471979Y-100707969D03*
X101250000Y-101500000D03*
%TO.N,Net-(U13-VDD3_0)*%
X116250000Y-99750000D03*
%TO.N,Net-(U13-VDD2_1)*%
X99500000Y-102250000D03*
X85500000Y-101500000D03*
%TO.N,Net-(U13-VDD2_0)*%
X115000000Y-100750000D03*
%TO.N,Net-(U13-VDD1_1)*%
X101300000Y-103000000D03*
X84500000Y-102250000D03*
%TO.N,Net-(U13-VDD1_0)*%
X113750000Y-101750000D03*
%TO.N,Net-(U13-RI)*%
X101750000Y-97250000D03*
%TO.N,Net-(U13-NRSTO)*%
X84471979Y-99207969D03*
X101100000Y-99500000D03*
%TO.N,Net-(U13-CO)*%
X102000000Y-95000000D03*
%TO.N,Net-(U13-CLKO)*%
X102250000Y-96250000D03*
%TO.N,Net-(U13-BO)*%
X101300000Y-98250000D03*
%TO.N,Net-(J4-CC2)*%
X94860000Y-51500000D03*
%TO.N,Net-(J4-CC1)*%
X97920000Y-51460000D03*
%TO.N,/BM1366-2/CLKI1*%
X70300000Y-124900000D03*
X68100000Y-96300000D03*
X66900000Y-115600000D03*
%TO.N,/BM1366-3/CLKI1*%
X120300000Y-131000000D03*
X116300000Y-151600000D03*
X119800000Y-146300000D03*
%TO.N,Net-(U9-MTDO{slash}GPIO40{slash}CLK_OUT2)*%
X116700000Y-53200000D03*
%TO.N,Net-(U9-MTDI{slash}GPIO41{slash}CLK_OUT1)*%
X119200000Y-53100000D03*
%TO.N,Net-(U9-MTMS{slash}GPIO42)*%
X123500000Y-53700000D03*
%TO.N,Net-(U4-CS-)*%
X86872092Y-71422092D03*
X77950000Y-70550000D03*
%TO.N,Net-(U4-CS+)*%
X79200000Y-70550000D03*
X87450000Y-70550000D03*
%TO.N,/ESP32/VDD_SAMPLE*%
X98200000Y-73200000D03*
X96550000Y-63350000D03*
X123800000Y-49900000D03*
%TO.N,Net-(Q1-G)*%
X87700000Y-60760000D03*
X76700000Y-70550000D03*
%TD*%
D59*
%TO.N,GND*%
X93250000Y-54350000D02*
X93470000Y-54130000D01*
X93250000Y-55000000D02*
X93250000Y-54350000D01*
X93470000Y-54130000D02*
X93470000Y-53420000D01*
D60*
X93250000Y-55000000D02*
X91650000Y-55000000D01*
X91650000Y-55000000D02*
X90630000Y-53980000D01*
X90630000Y-53980000D02*
X90100000Y-53980000D01*
D59*
%TO.N,Net-(D1-Pad2)*%
X98450000Y-55000000D02*
X99070000Y-54380000D01*
X99070000Y-54380000D02*
X99070000Y-53420000D01*
D60*
%TO.N,/ESP32/EN*%
X90800000Y-48800000D02*
X90275000Y-48275000D01*
X90275000Y-48275000D02*
X89275000Y-48275000D01*
%TO.N,/ESP32/IO0*%
X80250000Y-48325000D02*
X80300000Y-48275000D01*
X80250000Y-48800000D02*
X80250000Y-48325000D01*
X80300000Y-48275000D02*
X82175000Y-48275000D01*
X78325000Y-48275000D02*
X80300000Y-48275000D01*
%TO.N,/ESP32/EN*%
X87400000Y-48275000D02*
X89275000Y-48275000D01*
X87400000Y-48847302D02*
X87400000Y-48275000D01*
X85425000Y-48275000D02*
X87400000Y-48275000D01*
D59*
%TO.N,GND*%
X101830000Y-47780000D02*
X100990000Y-48620000D01*
X104350000Y-47780000D02*
X101830000Y-47780000D01*
%TO.N,Net-(D1-Pad2)*%
X94320000Y-55000000D02*
X94270000Y-54950000D01*
X95300000Y-55000000D02*
X94320000Y-55000000D01*
X94270000Y-54950000D02*
X94270000Y-53420000D01*
X94270000Y-55480000D02*
X94270000Y-54950000D01*
D60*
%TO.N,Net-(U9-GPIO20{slash}U1CTS{slash}ADC2_CH9{slash}CLK_OUT1{slash}USB_D+)*%
X96930000Y-55920000D02*
X96800000Y-56050000D01*
X96930000Y-54500000D02*
X96930000Y-55920000D01*
%TO.N,Net-(U9-GPIO19{slash}U1RTS{slash}ADC2_CH8{slash}CLK_OUT2{slash}USB_D-)*%
X97420000Y-55930000D02*
X97152400Y-56197600D01*
X97420000Y-53375000D02*
X97420000Y-55930000D01*
D59*
%TO.N,Net-(D1-Pad2)*%
X93550000Y-56200000D02*
X94270000Y-55480000D01*
X93550000Y-58000000D02*
X93550000Y-56200000D01*
D60*
%TO.N,/ESP32/EN*%
X90100000Y-52050000D02*
X90100000Y-53020000D01*
X90800000Y-51350000D02*
X90800000Y-48800000D01*
X90100000Y-52050000D02*
X90800000Y-51350000D01*
D61*
%TO.N,GND*%
X65700000Y-60500000D02*
X57400000Y-60500000D01*
D59*
X115430000Y-77220000D02*
X115430000Y-78050000D01*
D60*
X98420000Y-59600000D02*
X98420000Y-58120000D01*
X75084000Y-98757000D02*
X73243000Y-98757000D01*
X84800100Y-53600000D02*
X86100000Y-53600000D01*
X102000000Y-92500000D02*
X100000000Y-92500000D01*
D59*
X89950000Y-166950000D02*
X89950000Y-90350000D01*
X120120000Y-47780000D02*
X120000000Y-47900000D01*
D61*
X57400000Y-60500000D02*
X54900000Y-60500000D01*
X54900000Y-60500000D02*
X53600000Y-60500000D01*
D59*
X111600000Y-54100000D02*
X113000000Y-54100000D01*
X110650000Y-73900000D02*
X111600000Y-72950000D01*
X111600000Y-56900000D02*
X113000000Y-56900000D01*
D60*
X80916000Y-94741000D02*
X81759000Y-94741000D01*
D59*
X110200000Y-54100000D02*
X111600000Y-54100000D01*
D60*
X71500000Y-100500000D02*
X69000000Y-100500000D01*
X101875000Y-100500000D02*
X103618000Y-98757000D01*
X115650000Y-73650000D02*
X115700000Y-73600000D01*
X104250000Y-94750000D02*
X102000000Y-92500000D01*
D59*
X111600000Y-55500000D02*
X113000000Y-55500000D01*
D60*
X124400000Y-73300000D02*
X123700000Y-72600000D01*
D59*
X116900000Y-75450000D02*
X116900000Y-74100000D01*
X115050000Y-72950000D02*
X115700000Y-73600000D01*
D60*
X69000000Y-92750000D02*
X71750000Y-92750000D01*
X110916000Y-98757000D02*
X116743000Y-98757000D01*
D59*
X89400000Y-167500000D02*
X89950000Y-166950000D01*
X110200000Y-55500000D02*
X111600000Y-55500000D01*
D60*
X131400000Y-59300000D02*
X130800000Y-59900000D01*
X73750000Y-94750000D02*
X75084000Y-94750000D01*
X83250000Y-93250000D02*
X84750000Y-93250000D01*
D59*
X115650000Y-75450000D02*
X115650000Y-73650000D01*
D60*
X101750000Y-100500000D02*
X101875000Y-100500000D01*
X105400000Y-70990000D02*
X101810000Y-70990000D01*
X73243000Y-98757000D02*
X71500000Y-100500000D01*
D59*
X110200000Y-56900000D02*
X111600000Y-56900000D01*
D60*
X124400000Y-75450000D02*
X124400000Y-73300000D01*
D61*
X54900000Y-61700000D02*
X53600000Y-61700000D01*
D59*
X115650000Y-77000000D02*
X115430000Y-77220000D01*
D60*
X110916000Y-94741000D02*
X112009000Y-94741000D01*
X57900000Y-56586000D02*
X57890000Y-57540000D01*
D62*
X84800100Y-53600000D02*
X84050000Y-53600000D01*
D59*
X121850000Y-47780000D02*
X120120000Y-47780000D01*
X89950000Y-90350000D02*
X87400000Y-87800000D01*
D60*
X81759000Y-94741000D02*
X83250000Y-93250000D01*
X105084000Y-94750000D02*
X104250000Y-94750000D01*
D59*
X110200000Y-56900000D02*
X108750000Y-56900000D01*
X115650000Y-75450000D02*
X115650000Y-77000000D01*
X110650000Y-75450000D02*
X110650000Y-73900000D01*
D60*
X98420000Y-58080000D02*
X98400000Y-58100000D01*
X98420000Y-58120000D02*
X98400000Y-58100000D01*
X101810000Y-70990000D02*
X101100000Y-71700000D01*
X106700000Y-79600000D02*
X106200000Y-80100000D01*
D61*
X53600000Y-60500000D02*
X53600000Y-61700000D01*
D59*
X89400000Y-171500000D02*
X89400000Y-167500000D01*
D60*
X85500000Y-100000000D02*
X83750000Y-100000000D01*
X83750000Y-100000000D02*
X82507000Y-98757000D01*
D59*
X111600000Y-54100000D02*
X111600000Y-55500000D01*
X118300000Y-78050000D02*
X119400000Y-79150000D01*
X116900000Y-74100000D02*
X116450000Y-73650000D01*
X88900000Y-172000000D02*
X88900000Y-172220000D01*
D61*
X54900000Y-60500000D02*
X54900000Y-61700000D01*
D59*
X89400000Y-171500000D02*
X88900000Y-172000000D01*
D60*
X82507000Y-98757000D02*
X80916000Y-98757000D01*
D59*
X116450000Y-73650000D02*
X115750000Y-73650000D01*
X111600000Y-55500000D02*
X111600000Y-56900000D01*
D60*
X115750000Y-73650000D02*
X115700000Y-73600000D01*
X116743000Y-98757000D02*
X116750000Y-98750000D01*
X106700000Y-78400000D02*
X106700000Y-79600000D01*
D59*
X115430000Y-78050000D02*
X118300000Y-78050000D01*
D60*
X98420000Y-56800000D02*
X98420000Y-58080000D01*
D59*
X99860000Y-53375000D02*
X99860000Y-54990000D01*
D60*
X112009000Y-94741000D02*
X114250000Y-92500000D01*
X114250000Y-92500000D02*
X116250000Y-92500000D01*
D59*
X89400000Y-171500000D02*
X90500000Y-171500000D01*
D60*
X130800000Y-59900000D02*
X130535000Y-59900000D01*
X103618000Y-98757000D02*
X105084000Y-98757000D01*
X71750000Y-92750000D02*
X73750000Y-94750000D01*
X92400100Y-173200000D02*
X91750000Y-173200000D01*
D59*
X113000000Y-54100000D02*
X114500000Y-54100000D01*
X111600000Y-72950000D02*
X115050000Y-72950000D01*
%TO.N,/Power/VIN*%
X71000000Y-59700000D02*
X70450000Y-59150000D01*
X71000000Y-60137500D02*
X71000000Y-59700000D01*
X70450000Y-59150000D02*
X70000000Y-59150000D01*
X70000000Y-59150000D02*
X69600000Y-59550000D01*
D60*
%TO.N,/VDD*%
X96800000Y-78100000D02*
X95300000Y-78100000D01*
X98200000Y-76700000D02*
X96800000Y-78100000D01*
%TO.N,/ESP32/EN*%
X124275000Y-50938100D02*
X126838100Y-50938100D01*
X88650000Y-52990000D02*
X90070000Y-52990000D01*
X128600000Y-52700000D02*
X128600000Y-57965000D01*
X104350000Y-50320000D02*
X106120000Y-50320000D01*
X126838100Y-50938100D02*
X128600000Y-52700000D01*
X106120000Y-50320000D02*
X106200000Y-50400000D01*
X128600000Y-57965000D02*
X129265000Y-58630000D01*
D59*
%TO.N,/5V*%
X98100000Y-139100000D02*
X95400000Y-139100000D01*
X99400000Y-116300000D02*
X98900000Y-115800000D01*
D63*
X100300000Y-74950000D02*
X100300000Y-82850000D01*
X99800000Y-74450000D02*
X100300000Y-74950000D01*
X93550000Y-62000000D02*
X97400000Y-62000000D01*
X99800000Y-67700000D02*
X99800000Y-74450000D01*
D59*
X98900000Y-115800000D02*
X95600000Y-115800000D01*
X99900000Y-90100000D02*
X95300000Y-90100000D01*
D63*
X98100000Y-66000000D02*
X99800000Y-67700000D01*
D59*
X99100000Y-110800000D02*
X98700000Y-110400000D01*
X98100000Y-144900000D02*
X97700000Y-144500000D01*
X98700000Y-110400000D02*
X95800000Y-110400000D01*
D63*
X97400000Y-62000000D02*
X98100000Y-62700000D01*
D59*
X99000000Y-140000000D02*
X98100000Y-139100000D01*
X97700000Y-144500000D02*
X96300000Y-144500000D01*
D63*
X98100000Y-62700000D02*
X98100000Y-66000000D01*
D59*
%TO.N,/3V3*%
X114400000Y-75450000D02*
X114400000Y-77200000D01*
D60*
X88710000Y-54010000D02*
X88700000Y-54000000D01*
D59*
X87700000Y-172700000D02*
X87700000Y-167000000D01*
X87700000Y-172700000D02*
X88180000Y-173180000D01*
D60*
X82650000Y-53600000D02*
X82450000Y-53800000D01*
D59*
X106150000Y-49050000D02*
X106200000Y-49100000D01*
X91650000Y-86100000D02*
X96950000Y-80800000D01*
X85850000Y-87300000D02*
X87050000Y-86100000D01*
X113150000Y-75450000D02*
X113150000Y-76900000D01*
D62*
X90799900Y-173200000D02*
X88920000Y-173200000D01*
D60*
X131100000Y-58065000D02*
X131100000Y-56500000D01*
X131100000Y-56500000D02*
X130300000Y-55700000D01*
D59*
X88180000Y-173180000D02*
X88900000Y-173180000D01*
X114420000Y-79820000D02*
X115150000Y-80550000D01*
X96950000Y-80800000D02*
X98300000Y-80800000D01*
D60*
X82450000Y-53800000D02*
X81950000Y-53800000D01*
D59*
X104350000Y-49050000D02*
X106150000Y-49050000D01*
D60*
X106100000Y-67700000D02*
X106100000Y-67100000D01*
D59*
X114420000Y-78050000D02*
X114420000Y-79820000D01*
D60*
X130535000Y-58630000D02*
X131100000Y-58065000D01*
D59*
X113150000Y-76900000D02*
X113450000Y-77200000D01*
X114400000Y-77200000D02*
X114400000Y-77980000D01*
X87700000Y-167000000D02*
X89100000Y-165600000D01*
X85850000Y-88250000D02*
X85850000Y-87300000D01*
X87050000Y-86100000D02*
X91650000Y-86100000D01*
X89100000Y-91500000D02*
X85850000Y-88250000D01*
D60*
X83199900Y-53600000D02*
X82650000Y-53600000D01*
X104010000Y-68250000D02*
X105550000Y-68250000D01*
D59*
X89100000Y-165600000D02*
X89100000Y-91500000D01*
D60*
X106115000Y-65540000D02*
X106100000Y-67100000D01*
X88650000Y-54010000D02*
X87560000Y-54010000D01*
X105550000Y-68250000D02*
X106100000Y-67700000D01*
D64*
X88920000Y-173200000D02*
X88900000Y-173180000D01*
D59*
X113450000Y-77200000D02*
X114400000Y-77200000D01*
D61*
%TO.N,/VIN_M*%
X60700000Y-65900000D02*
X57400000Y-65900000D01*
X65700000Y-65900000D02*
X69800000Y-65900000D01*
D59*
X70550000Y-64000000D02*
X70150000Y-64000000D01*
D61*
X60700000Y-72560000D02*
X60700000Y-65900000D01*
D60*
X64740000Y-72560000D02*
X64800000Y-72620000D01*
D59*
X70150000Y-64000000D02*
X69600000Y-63450000D01*
D61*
X56900000Y-72560000D02*
X60700000Y-72560000D01*
D59*
X71000000Y-63550000D02*
X70550000Y-64000000D01*
D61*
X65700000Y-65900000D02*
X60700000Y-65900000D01*
X60700000Y-72560000D02*
X64740000Y-72560000D01*
D59*
X68400000Y-68400000D02*
X68950000Y-67850000D01*
X71000000Y-63062500D02*
X71000000Y-63550000D01*
X68400000Y-80050000D02*
X68400000Y-68400000D01*
D60*
%TO.N,/SCL*%
X116600000Y-172700000D02*
X130100000Y-159200000D01*
X93700001Y-173699999D02*
X94700000Y-172700000D01*
X84800100Y-54099999D02*
X85399999Y-54099999D01*
X131500000Y-132400000D02*
X131500000Y-68400000D01*
X118815000Y-62915000D02*
X118815000Y-65540000D01*
X130100000Y-136600000D02*
X129550000Y-136050000D01*
X118800000Y-62900000D02*
X118815000Y-62915000D01*
X130100000Y-159200000D02*
X130100000Y-136600000D01*
X131500000Y-68400000D02*
X127300000Y-64200000D01*
X85399999Y-54099999D02*
X85550000Y-54250000D01*
X129550000Y-136050000D02*
X129550000Y-134350000D01*
X127300000Y-64200000D02*
X127300000Y-61780000D01*
X127300000Y-61780000D02*
X125800000Y-60280000D01*
X96700000Y-173200000D02*
X97200000Y-172700000D01*
X90799900Y-172700001D02*
X90200001Y-172700001D01*
X84950000Y-58950000D02*
X85550000Y-58350000D01*
X90200001Y-172700001D02*
X89900000Y-172400000D01*
X97200000Y-172700000D02*
X116600000Y-172700000D01*
X85550000Y-58350000D02*
X85550000Y-55000000D01*
X92400100Y-173699999D02*
X93700001Y-173699999D01*
X129550000Y-134350000D02*
X131500000Y-132400000D01*
X85550000Y-54250000D02*
X85550000Y-55000000D01*
%TO.N,Net-(U24-INV_CLKO)*%
X103550000Y-151750000D02*
X105084000Y-151750000D01*
X99400000Y-148800000D02*
X100600000Y-148800000D01*
X100600000Y-148800000D02*
X103550000Y-151750000D01*
%TO.N,/ESP32/P_TX*%
X121850000Y-51590000D02*
X126490000Y-51590000D01*
X129265000Y-59900000D02*
X128100000Y-58735000D01*
X128100000Y-53200000D02*
X127350000Y-52450000D01*
X128100000Y-58735000D02*
X128100000Y-53200000D01*
X126490000Y-51590000D02*
X127350000Y-52450000D01*
%TO.N,/ESP32/P_RX*%
X127300000Y-53600000D02*
X127300000Y-59205000D01*
X127300000Y-59205000D02*
X129265000Y-61170000D01*
X127300000Y-53600000D02*
X126560000Y-52860000D01*
X126560000Y-52860000D02*
X121850000Y-52860000D01*
%TO.N,/ESP32/IO0*%
X121850000Y-64290000D02*
X123490000Y-64290000D01*
X132052400Y-55452400D02*
X124250000Y-47650000D01*
X123490000Y-64290000D02*
X124100000Y-64900000D01*
X124250000Y-47650000D02*
X124250000Y-47200000D01*
X132052400Y-64247600D02*
X132052400Y-61200000D01*
X132022400Y-61170000D02*
X132052400Y-61200000D01*
X131400000Y-64900000D02*
X132052400Y-64247600D01*
X132052400Y-61200000D02*
X132052400Y-55452400D01*
X130535000Y-61170000D02*
X132022400Y-61170000D01*
%TO.N,/ESP32/XIN32*%
X104350000Y-56670000D02*
X101407600Y-56670000D01*
X101407600Y-56670000D02*
X101300000Y-56777600D01*
X101300000Y-56777600D02*
X99402400Y-56777600D01*
X99402400Y-56777600D02*
X99380000Y-56800000D01*
%TO.N,/ESP32/XOUT32*%
X99402400Y-59622400D02*
X99380000Y-59600000D01*
X102982400Y-57940000D02*
X101300000Y-59622400D01*
X101300000Y-59622400D02*
X99402400Y-59622400D01*
X104350000Y-57940000D02*
X102982400Y-57940000D01*
%TO.N,/Power/PGOOD*%
X101500000Y-66350000D02*
X101550000Y-66300000D01*
X111195000Y-66995000D02*
X111200000Y-67000000D01*
X102990000Y-68250000D02*
X102250000Y-68250000D01*
X101500000Y-67500000D02*
X101500000Y-66350000D01*
X111195000Y-65540000D02*
X111195000Y-66995000D01*
X102250000Y-68250000D02*
X101500000Y-67500000D01*
%TO.N,/SDA*%
X129600000Y-159100000D02*
X129600000Y-136700000D01*
X90799900Y-174099900D02*
X91000000Y-174300000D01*
X91000000Y-174300000D02*
X94300000Y-174300000D01*
X83199900Y-55100000D02*
X82327367Y-55100000D01*
X83199900Y-55100000D02*
X83199900Y-54099999D01*
X129600000Y-136700000D02*
X129150000Y-136250000D01*
X82327367Y-55100000D02*
X81297600Y-54070233D01*
X116400000Y-172300000D02*
X129600000Y-159100000D01*
X81297600Y-53529767D02*
X81727366Y-53100001D01*
X96300000Y-172300000D02*
X116400000Y-172300000D01*
X84150000Y-58650000D02*
X84150000Y-56050100D01*
X125800000Y-63200000D02*
X125800000Y-62820000D01*
X129150000Y-136250000D02*
X129150000Y-134150000D01*
X84150000Y-56050100D02*
X83199900Y-55100000D01*
X117600000Y-63700000D02*
X117600000Y-65485000D01*
X129150000Y-134150000D02*
X131100000Y-132200000D01*
X83850000Y-58950000D02*
X84150000Y-58650000D01*
X94300000Y-174300000D02*
X96300000Y-172300000D01*
X81297600Y-54070233D02*
X81297600Y-53529767D01*
X81727366Y-53100001D02*
X83199900Y-53100001D01*
X131100000Y-132200000D02*
X131100000Y-68500000D01*
X117600000Y-65485000D02*
X117545000Y-65540000D01*
X131100000Y-68500000D02*
X125800000Y-63200000D01*
X90799900Y-173699999D02*
X90799900Y-174099900D01*
%TO.N,/BM1366-1/0V8*%
X74250000Y-94250000D02*
X72000000Y-92000000D01*
X84200000Y-91550000D02*
X81511000Y-94239000D01*
X114000000Y-91500000D02*
X114000000Y-91875000D01*
X75084000Y-94250000D02*
X74250000Y-94250000D01*
X84200000Y-91300000D02*
X84200000Y-91550000D01*
X105084000Y-94250000D02*
X104488000Y-94250000D01*
X114000000Y-91875000D02*
X111636000Y-94239000D01*
X104488000Y-94250000D02*
X102000000Y-91762000D01*
X81511000Y-94239000D02*
X80916000Y-94239000D01*
X111636000Y-94239000D02*
X110916000Y-94239000D01*
X72000000Y-92000000D02*
X71000000Y-92000000D01*
X102000000Y-91762000D02*
X102000000Y-91500000D01*
%TO.N,/BM1366-1/1V8*%
X74750000Y-93750000D02*
X75084000Y-93750000D01*
X119900000Y-89100000D02*
X115150000Y-89100000D01*
X122500000Y-100900000D02*
X120700000Y-100900000D01*
X72250000Y-91250000D02*
X74750000Y-93750000D01*
X83000000Y-92000000D02*
X83000000Y-91250000D01*
X104750000Y-93750000D02*
X103250000Y-92250000D01*
X115150000Y-89100000D02*
X112750000Y-91500000D01*
X81263000Y-93737000D02*
X83000000Y-92000000D01*
X80916000Y-93737000D02*
X81263000Y-93737000D01*
X120500000Y-89700000D02*
X119900000Y-89100000D01*
X112750000Y-92250000D02*
X112750000Y-91500000D01*
X120500000Y-93000000D02*
X120500000Y-89700000D01*
X110916000Y-93737000D02*
X111263000Y-93737000D01*
X120700000Y-100900000D02*
X119400000Y-99600000D01*
X103250000Y-92250000D02*
X103250000Y-91750000D01*
X72250000Y-91000000D02*
X72250000Y-91250000D01*
X105084000Y-93750000D02*
X104750000Y-93750000D01*
X111263000Y-93737000D02*
X112750000Y-92250000D01*
X119400000Y-99600000D02*
X119400000Y-94100000D01*
X119400000Y-94100000D02*
X120500000Y-93000000D01*
%TO.N,Net-(U27-INV_CLKO)*%
X73250000Y-151750000D02*
X70700000Y-149200000D01*
X75084000Y-151750000D02*
X73250000Y-151750000D01*
%TO.N,Net-(U13-INV_CLKO)*%
X105084000Y-95750000D02*
X104000000Y-95750000D01*
X104000000Y-95750000D02*
X102250000Y-94000000D01*
%TO.N,/BM1366-2/0V8*%
X110916000Y-122239000D02*
X111861000Y-122239000D01*
X84250000Y-119500000D02*
X84250000Y-119750000D01*
X103750000Y-122250000D02*
X105084000Y-122250000D01*
X114200000Y-119900000D02*
X114200000Y-119700000D01*
X101900000Y-120400000D02*
X103750000Y-122250000D01*
X84250000Y-119750000D02*
X81761000Y-122239000D01*
X111861000Y-122239000D02*
X114200000Y-119900000D01*
X81761000Y-122239000D02*
X80916000Y-122239000D01*
X101900000Y-119900000D02*
X101900000Y-120400000D01*
X71750000Y-119750000D02*
X74250000Y-122250000D01*
X71750000Y-119250000D02*
X71750000Y-119750000D01*
X74250000Y-122250000D02*
X75084000Y-122250000D01*
%TO.N,/BM1366-2/1V8*%
X81263000Y-121737000D02*
X80916000Y-121737000D01*
X111563000Y-121737000D02*
X113000000Y-120300000D01*
X73000000Y-119500000D02*
X73000000Y-120000000D01*
X103100000Y-119800000D02*
X103100000Y-120600000D01*
X103100000Y-120600000D02*
X104250000Y-121750000D01*
X113000000Y-120300000D02*
X113000000Y-119700000D01*
X73000000Y-120000000D02*
X74750000Y-121750000D01*
X110916000Y-121737000D02*
X111563000Y-121737000D01*
X83000000Y-119500000D02*
X83000000Y-120000000D01*
X83000000Y-120000000D02*
X81263000Y-121737000D01*
X104250000Y-121750000D02*
X105084000Y-121750000D01*
X74750000Y-121750000D02*
X75084000Y-121750000D01*
%TO.N,Net-(U22-RO)*%
X72361000Y-125251000D02*
X75084000Y-125251000D01*
X70400000Y-123300000D02*
X70410000Y-123300000D01*
X70410000Y-123300000D02*
X72361000Y-125251000D01*
%TO.N,Net-(U24-RO)*%
X114749000Y-153251000D02*
X115400000Y-152600000D01*
X110916000Y-153251000D02*
X114749000Y-153251000D01*
%TO.N,/NRSTI*%
X116200000Y-97800000D02*
X115745000Y-98255000D01*
X115745000Y-98255000D02*
X110916000Y-98255000D01*
%TO.N,/RO*%
X113499000Y-97251000D02*
X110916000Y-97251000D01*
X117600000Y-96600000D02*
X114150000Y-96600000D01*
X114150000Y-96600000D02*
X113499000Y-97251000D01*
%TO.N,/CI*%
X119400000Y-90100000D02*
X119400000Y-93022633D01*
X117222633Y-95200000D02*
X113800816Y-95200000D01*
X119400000Y-93022633D02*
X117222633Y-95200000D01*
X112753816Y-96247000D02*
X110916000Y-96247000D01*
X113800816Y-95200000D02*
X112753816Y-96247000D01*
%TO.N,/BM1366-3/0V8*%
X114000000Y-148300000D02*
X114000000Y-147700000D01*
X110916000Y-150239000D02*
X112061000Y-150239000D01*
X75084000Y-150250000D02*
X73950000Y-150250000D01*
X72000000Y-148300000D02*
X72000000Y-148000000D01*
X104250000Y-150250000D02*
X101900000Y-147900000D01*
X80916000Y-150239000D02*
X81861000Y-150239000D01*
X73950000Y-150250000D02*
X72000000Y-148300000D01*
X112061000Y-150239000D02*
X114000000Y-148300000D01*
X84000000Y-148100000D02*
X84000000Y-147700000D01*
X101900000Y-147900000D02*
X101900000Y-147800000D01*
X105084000Y-150250000D02*
X104250000Y-150250000D01*
X81861000Y-150239000D02*
X84000000Y-148100000D01*
%TO.N,/BM1366-3/1V8*%
X74350000Y-149750000D02*
X73200000Y-148600000D01*
X73200000Y-148600000D02*
X73200000Y-148000000D01*
X81563000Y-149737000D02*
X83000000Y-148300000D01*
X83000000Y-147800000D02*
X82900000Y-147700000D01*
X103200000Y-147800000D02*
X103200000Y-148500000D01*
X104450000Y-149750000D02*
X105084000Y-149750000D01*
X83000000Y-148300000D02*
X83000000Y-147800000D01*
X80916000Y-149737000D02*
X81563000Y-149737000D01*
X110916000Y-149737000D02*
X111563000Y-149737000D01*
X112900000Y-148400000D02*
X112900000Y-147700000D01*
X103200000Y-148500000D02*
X104450000Y-149750000D01*
X111563000Y-149737000D02*
X112900000Y-148400000D01*
X75084000Y-149750000D02*
X74350000Y-149750000D01*
%TO.N,Net-(U16-INV_CLKO)*%
X73750000Y-95750000D02*
X75084000Y-95750000D01*
X71750000Y-93750000D02*
X73750000Y-95750000D01*
X71100000Y-93750000D02*
X71750000Y-93750000D01*
%TO.N,Net-(U24-VDD1_1)*%
X82300000Y-159200000D02*
X82300000Y-157300000D01*
X104550000Y-156250000D02*
X102600000Y-158200000D01*
X82300000Y-157300000D02*
X81263000Y-156263000D01*
X102600000Y-158200000D02*
X102600000Y-159400000D01*
X81263000Y-156263000D02*
X80916000Y-156263000D01*
X105084000Y-156250000D02*
X104550000Y-156250000D01*
%TO.N,Net-(U24-VDD2_1)*%
X105084000Y-155761000D02*
X104139000Y-155761000D01*
X104139000Y-155761000D02*
X101700000Y-158200000D01*
X101700000Y-158200000D02*
X101700000Y-158800000D01*
X81512000Y-155761000D02*
X80916000Y-155761000D01*
X83100000Y-157349000D02*
X81512000Y-155761000D01*
X83100000Y-158800000D02*
X83100000Y-157349000D01*
X83500000Y-159200000D02*
X83100000Y-158800000D01*
%TO.N,Net-(U19-INV_CLKO)*%
X100582633Y-121460000D02*
X100260000Y-121460000D01*
X102872633Y-123750000D02*
X100582633Y-121460000D01*
X105084000Y-123750000D02*
X102872633Y-123750000D01*
%TO.N,Net-(U24-VDD3_1)*%
X101500000Y-157500000D02*
X100700000Y-157500000D01*
X105084000Y-155250000D02*
X103750000Y-155250000D01*
X84200000Y-157500000D02*
X81959000Y-155259000D01*
X81959000Y-155259000D02*
X80916000Y-155259000D01*
X84200000Y-158300000D02*
X84200000Y-157500000D01*
X103750000Y-155250000D02*
X101500000Y-157500000D01*
%TO.N,Net-(U22-INV_CLKO)*%
X73470000Y-123750000D02*
X70990000Y-121270000D01*
X75084000Y-123750000D02*
X73470000Y-123750000D01*
X69690000Y-120830000D02*
X69690000Y-118210000D01*
X70990000Y-121270000D02*
X70130000Y-121270000D01*
X70130000Y-121270000D02*
X69690000Y-120830000D01*
%TO.N,Net-(U27-VDD1_1)*%
X72400000Y-158600000D02*
X72400000Y-158400000D01*
X72400000Y-158400000D02*
X74550000Y-156250000D01*
X74550000Y-156250000D02*
X75084000Y-156250000D01*
%TO.N,Net-(U27-VDD2_1)*%
X74139000Y-155761000D02*
X71300000Y-158600000D01*
X75084000Y-155761000D02*
X74139000Y-155761000D01*
%TO.N,Net-(U27-VDD3_1)*%
X75084000Y-155250000D02*
X73550000Y-155250000D01*
X73550000Y-155250000D02*
X71300000Y-157500000D01*
%TO.N,Net-(U13-ADDR0)*%
X114050000Y-94200000D02*
X112505000Y-95745000D01*
X112505000Y-95745000D02*
X110916000Y-95745000D01*
X117300000Y-94200000D02*
X114050000Y-94200000D01*
%TO.N,Net-(U13-ADDR1)*%
X117150000Y-93250000D02*
X114250000Y-93250000D01*
X112257000Y-95243000D02*
X110916000Y-95243000D01*
X117300000Y-93100000D02*
X117150000Y-93250000D01*
X114250000Y-93250000D02*
X112257000Y-95243000D01*
D63*
%TO.N,Net-(D1-Pad2)*%
X93550000Y-56800000D02*
X93550000Y-57750000D01*
X93550000Y-57750000D02*
X93800000Y-58000000D01*
D60*
%TO.N,Net-(Q5-G)*%
X104900000Y-75650000D02*
X104900000Y-77300000D01*
X105400000Y-77800000D02*
X105400000Y-78400000D01*
X105400000Y-74760000D02*
X105400000Y-75150000D01*
X104900000Y-77300000D02*
X105400000Y-77800000D01*
X105400000Y-75150000D02*
X104900000Y-75650000D01*
%TO.N,/BM1366-1/BI1*%
X117600000Y-97800000D02*
X116900000Y-97100000D01*
X113947000Y-97753000D02*
X110916000Y-97753000D01*
X114600000Y-97100000D02*
X113947000Y-97753000D01*
X116900000Y-97100000D02*
X114600000Y-97100000D01*
D64*
%TO.N,Net-(Q2-G)*%
X87050000Y-74000000D02*
X85540000Y-74000000D01*
D60*
%TO.N,Net-(U16-ADDR0)*%
X82505000Y-95745000D02*
X80916000Y-95745000D01*
X83750000Y-94500000D02*
X82505000Y-95745000D01*
X87750000Y-94400000D02*
X87650000Y-94500000D01*
X87650000Y-94500000D02*
X83750000Y-94500000D01*
%TO.N,/ESP32/TFT_BLK*%
X105400000Y-73740000D02*
X105400000Y-72010000D01*
X108655000Y-65540000D02*
X108655000Y-67345000D01*
X106140000Y-72010000D02*
X105400000Y-72010000D01*
X108655000Y-67345000D02*
X106750000Y-69250000D01*
X106750000Y-71400000D02*
X106140000Y-72010000D01*
X106750000Y-69250000D02*
X106750000Y-71400000D01*
%TO.N,Net-(U16-ADDR1)*%
X86600000Y-94000000D02*
X83500000Y-94000000D01*
X82257000Y-95243000D02*
X80916000Y-95243000D01*
X83500000Y-94000000D02*
X82257000Y-95243000D01*
X87000000Y-93600000D02*
X86600000Y-94000000D01*
%TO.N,Net-(U19-ADDR0)*%
X117800000Y-119200000D02*
X117800000Y-118700000D01*
X110916000Y-123745000D02*
X113255000Y-123745000D01*
X113255000Y-123745000D02*
X117800000Y-119200000D01*
%TO.N,Net-(U19-ADDR1)*%
X110916000Y-123243000D02*
X112957000Y-123243000D01*
X112957000Y-123243000D02*
X116600000Y-119600000D01*
X116600000Y-119600000D02*
X116600000Y-117600000D01*
%TO.N,Net-(U22-ADDR0)*%
X80916000Y-123745000D02*
X82655000Y-123745000D01*
X82655000Y-123745000D02*
X84800000Y-121600000D01*
X84800000Y-121600000D02*
X85500000Y-121600000D01*
%TO.N,Net-(U22-ADDR1)*%
X82457000Y-123243000D02*
X85100000Y-120600000D01*
X85100000Y-120600000D02*
X85500000Y-120600000D01*
X80916000Y-123243000D02*
X82457000Y-123243000D01*
%TO.N,Net-(U24-ADDR0)*%
X113755000Y-151745000D02*
X116800000Y-148700000D01*
X110916000Y-151745000D02*
X113755000Y-151745000D01*
X116800000Y-148700000D02*
X116800000Y-147600000D01*
%TO.N,Net-(U24-ADDR1)*%
X116100000Y-148300000D02*
X116100000Y-146600000D01*
X110916000Y-151243000D02*
X113157000Y-151243000D01*
X113157000Y-151243000D02*
X116100000Y-148300000D01*
%TO.N,Net-(U27-ADDR0)*%
X83055000Y-151745000D02*
X80916000Y-151745000D01*
X84800000Y-150700000D02*
X84100000Y-150700000D01*
X84100000Y-150700000D02*
X83055000Y-151745000D01*
%TO.N,Net-(U27-ADDR1)*%
X82657000Y-151243000D02*
X80916000Y-151243000D01*
X84300000Y-149600000D02*
X82657000Y-151243000D01*
X84800000Y-149600000D02*
X84300000Y-149600000D01*
%TO.N,/BM1366-3/NRSTO3*%
X75084000Y-154255000D02*
X72145000Y-154255000D01*
X72145000Y-154255000D02*
X70700000Y-155700000D01*
%TO.N,/ESP32/TFT_RES*%
X107350000Y-53400000D02*
X105540000Y-51590000D01*
X123200000Y-75400000D02*
X123150000Y-75450000D01*
X105540000Y-51590000D02*
X104350000Y-51590000D01*
X122350000Y-72900000D02*
X123200000Y-73750000D01*
X123200000Y-73750000D02*
X123200000Y-75400000D01*
X118400000Y-68750000D02*
X119400000Y-68750000D01*
X107350000Y-57200000D02*
X107350000Y-53400000D01*
X112150000Y-61950000D02*
X112100000Y-61950000D01*
X112100000Y-61950000D02*
X107350000Y-57200000D01*
X119400000Y-68750000D02*
X122350000Y-71700000D01*
X122350000Y-71700000D02*
X122350000Y-72900000D01*
%TO.N,/ESP32/TFT_SDA*%
X121900000Y-74300000D02*
X121900000Y-75450000D01*
X105610000Y-52860000D02*
X104350000Y-52860000D01*
X111250000Y-63050000D02*
X111250000Y-61950000D01*
X117100000Y-69500000D02*
X121900000Y-74300000D01*
X117100000Y-68750000D02*
X117100000Y-69500000D01*
X111250000Y-61950000D02*
X106900000Y-57600000D01*
X106900000Y-54150000D02*
X105610000Y-52860000D01*
X106900000Y-57600000D02*
X106900000Y-54150000D01*
%TO.N,/ESP32/TFT_SCL*%
X106450000Y-54900000D02*
X105680000Y-54130000D01*
X115800000Y-69150000D02*
X120650000Y-74000000D01*
X120650000Y-74000000D02*
X120650000Y-75450000D01*
X106450000Y-57900000D02*
X106450000Y-54900000D01*
X110000000Y-61450000D02*
X106450000Y-57900000D01*
X105680000Y-54130000D02*
X104350000Y-54130000D01*
X110000000Y-61950000D02*
X110000000Y-61450000D01*
X115800000Y-68750000D02*
X115800000Y-69150000D01*
%TO.N,/ESP32/TFT_CS*%
X119400000Y-74200000D02*
X119400000Y-75450000D01*
X106000000Y-55750000D02*
X105650000Y-55400000D01*
X105650000Y-55400000D02*
X104350000Y-55400000D01*
X106000000Y-58150000D02*
X106000000Y-55750000D01*
X109050000Y-63050000D02*
X109050000Y-61200000D01*
X114550000Y-68750000D02*
X114550000Y-69350000D01*
X114550000Y-69350000D02*
X119400000Y-74200000D01*
X109050000Y-61200000D02*
X106000000Y-58150000D01*
%TO.N,/ESP32/TFT_DC*%
X104350000Y-61750000D02*
X105800000Y-61750000D01*
X118150000Y-74350000D02*
X118150000Y-75450000D01*
X113050000Y-69250000D02*
X118150000Y-74350000D01*
X105800000Y-61750000D02*
X106550000Y-62500000D01*
%TO.N,Net-(U27-RO)*%
X84200000Y-153800000D02*
X83651000Y-153251000D01*
X83651000Y-153251000D02*
X80916000Y-153251000D01*
%TO.N,Net-(U27-BI)*%
X82953000Y-153753000D02*
X80916000Y-153753000D01*
X84000000Y-154800000D02*
X82953000Y-153753000D01*
X84800000Y-154800000D02*
X84000000Y-154800000D01*
%TO.N,Net-(U27-CLKI)*%
X83849000Y-152749000D02*
X80916000Y-152749000D01*
X84800000Y-152900000D02*
X84000000Y-152900000D01*
X84000000Y-152900000D02*
X83849000Y-152749000D01*
%TO.N,Net-(U27-CI)*%
X84800000Y-151800000D02*
X84247000Y-151800000D01*
X84247000Y-151800000D02*
X83800000Y-152247000D01*
X83800000Y-152247000D02*
X80916000Y-152247000D01*
%TO.N,/BM1366-3/BO3*%
X71447000Y-153753000D02*
X70700000Y-154500000D01*
X75084000Y-153753000D02*
X71447000Y-153753000D01*
%TO.N,/BM1366-1/VDD1*%
X85500000Y-119500000D02*
X82259000Y-122741000D01*
X99400000Y-119900000D02*
X99800000Y-119900000D01*
X71943000Y-126757000D02*
X71100000Y-127600000D01*
X101000000Y-128200000D02*
X101600000Y-128200000D01*
X101600000Y-128200000D02*
X103043000Y-126757000D01*
X74000000Y-122750000D02*
X70500000Y-119250000D01*
X84220000Y-128020000D02*
X85500000Y-128020000D01*
X112359000Y-122741000D02*
X110916000Y-122741000D01*
X85750000Y-103250000D02*
X81750000Y-103250000D01*
X115900000Y-128300000D02*
X114357000Y-126757000D01*
X103150000Y-123250000D02*
X105084000Y-123250000D01*
X75084000Y-126757000D02*
X71943000Y-126757000D01*
X82957000Y-126757000D02*
X84220000Y-128020000D01*
X75084000Y-122750000D02*
X74000000Y-122750000D01*
X103450000Y-122750000D02*
X105084000Y-122750000D01*
X82259000Y-122741000D02*
X80916000Y-122741000D01*
X99800000Y-119900000D02*
X103150000Y-123250000D01*
X100700000Y-120000000D02*
X103450000Y-122750000D01*
X103043000Y-126757000D02*
X105084000Y-126757000D01*
X75084000Y-123250000D02*
X73750000Y-123250000D01*
X73750000Y-123250000D02*
X70900000Y-120400000D01*
X71100000Y-127600000D02*
X70500000Y-127600000D01*
X114357000Y-126757000D02*
X110916000Y-126757000D01*
X115400000Y-119700000D02*
X112359000Y-122741000D01*
X70900000Y-120400000D02*
X70500000Y-120400000D01*
X100700000Y-119900000D02*
X100700000Y-120000000D01*
X100000000Y-104250000D02*
X104500000Y-104250000D01*
X80916000Y-126757000D02*
X82957000Y-126757000D01*
D59*
%TO.N,/BM1366-2/VDD2*%
X72400000Y-132000000D02*
X75000000Y-132000000D01*
X67200000Y-128100000D02*
X71100000Y-132000000D01*
D60*
X110916000Y-154757000D02*
X114537000Y-154757000D01*
D59*
X71100000Y-132000000D02*
X72400000Y-132000000D01*
D60*
X80916000Y-150741000D02*
X82259000Y-150741000D01*
X114537000Y-154757000D02*
X115920000Y-156140000D01*
D59*
X61600000Y-119900000D02*
X64300000Y-119900000D01*
D60*
X59300000Y-111300000D02*
X59300000Y-106600000D01*
X60800000Y-112800000D02*
X60800000Y-119100000D01*
X80916000Y-154757000D02*
X82257000Y-154757000D01*
X75084000Y-150750000D02*
X73400000Y-150750000D01*
X101700000Y-156400000D02*
X103343000Y-154757000D01*
D59*
X60800000Y-119100000D02*
X61600000Y-119900000D01*
X64300000Y-119900000D02*
X67200000Y-122800000D01*
X67200000Y-124500000D02*
X67200000Y-128100000D01*
D60*
X112559000Y-150741000D02*
X115200000Y-148100000D01*
X60200000Y-112200000D02*
X59300000Y-111300000D01*
X84500000Y-148500000D02*
X84800000Y-148500000D01*
X112600000Y-131700000D02*
X111200000Y-131700000D01*
X72400000Y-131000000D02*
X72400000Y-132000000D01*
X82259000Y-150741000D02*
X84500000Y-148500000D01*
X103100000Y-131400000D02*
X105100000Y-131400000D01*
X72843000Y-154757000D02*
X75084000Y-154757000D01*
X70700000Y-148050000D02*
X70700000Y-148000000D01*
X103343000Y-154757000D02*
X105084000Y-154757000D01*
D59*
X67200000Y-122800000D02*
X67200000Y-124500000D01*
D60*
X59651900Y-106248100D02*
X59651900Y-104400000D01*
X115200000Y-148100000D02*
X115200000Y-147700000D01*
X105084000Y-150750000D02*
X103550000Y-150750000D01*
X70900000Y-156700000D02*
X72843000Y-154757000D01*
X59300000Y-106600000D02*
X59651900Y-106248100D01*
X83200000Y-131300000D02*
X80800000Y-131300000D01*
X82257000Y-154757000D02*
X84600000Y-157100000D01*
X70200000Y-156700000D02*
X70900000Y-156700000D01*
X100800000Y-156400000D02*
X101700000Y-156400000D01*
X103550000Y-150750000D02*
X100600000Y-147800000D01*
X110916000Y-150741000D02*
X112559000Y-150741000D01*
X84600000Y-157100000D02*
X84800000Y-157100000D01*
X60200000Y-112200000D02*
X60800000Y-112800000D01*
X73400000Y-150750000D02*
X70700000Y-148050000D01*
%TO.N,/BM1366-3/RI3*%
X75084000Y-153251000D02*
X70751000Y-153251000D01*
X70751000Y-153251000D02*
X70700000Y-153200000D01*
%TO.N,/BM1366-3/CLKO3*%
X71550000Y-152750000D02*
X70700000Y-151900000D01*
X75084000Y-152750000D02*
X71550000Y-152750000D01*
%TO.N,/BM1366-3/CO3*%
X72347000Y-152247000D02*
X70700000Y-150600000D01*
X75084000Y-152247000D02*
X72347000Y-152247000D01*
%TO.N,/BM1366-1/CLKI1*%
X118500000Y-100100000D02*
X120100000Y-101700000D01*
X113950000Y-95800000D02*
X117900000Y-95800000D01*
X110916000Y-96749000D02*
X113001000Y-96749000D01*
X113001000Y-96749000D02*
X113950000Y-95800000D01*
X118500000Y-96400000D02*
X118500000Y-100100000D01*
X120100000Y-101700000D02*
X120200000Y-101700000D01*
X117900000Y-95800000D02*
X118500000Y-96400000D01*
%TO.N,/BM1366-2/NRSTI2*%
X69370000Y-121790000D02*
X70660000Y-121790000D01*
X73117000Y-124247000D02*
X75084000Y-124247000D01*
X67780000Y-120200000D02*
X69370000Y-121790000D01*
X70660000Y-121790000D02*
X73117000Y-124247000D01*
X66300000Y-120200000D02*
X67780000Y-120200000D01*
%TO.N,/BM1366-2/BI2*%
X68700000Y-122400000D02*
X70520000Y-122400000D01*
X72870000Y-124750000D02*
X75084000Y-124750000D01*
X70520000Y-122400000D02*
X72870000Y-124750000D01*
X67400000Y-121100000D02*
X68700000Y-122400000D01*
%TO.N,/BM1366-2/RO2*%
X62750000Y-118950000D02*
X61900000Y-118100000D01*
X61900000Y-118100000D02*
X61900000Y-106677500D01*
X64700000Y-118950000D02*
X62750000Y-118950000D01*
X61900000Y-106677500D02*
X63200000Y-105377500D01*
%TO.N,/BM1366-2/CI2*%
X69555000Y-126255000D02*
X75084000Y-126255000D01*
X68500000Y-125200000D02*
X69555000Y-126255000D01*
%TO.N,/BM1366-3/NRSTI3*%
X115155000Y-154255000D02*
X110916000Y-154255000D01*
X115900000Y-155000000D02*
X115155000Y-154255000D01*
%TO.N,/BM1366-3/BI3*%
X115900000Y-153700000D02*
X115847000Y-153753000D01*
X115847000Y-153753000D02*
X110916000Y-153753000D01*
%TO.N,/BM1366-3/CI3*%
X118300000Y-147900000D02*
X126800000Y-147900000D01*
X110916000Y-152247000D02*
X113953000Y-152247000D01*
X127680000Y-142980000D02*
X127680000Y-141700000D01*
X126800000Y-147900000D02*
X128600000Y-146100000D01*
X128600000Y-143900000D02*
X127680000Y-142980000D01*
X113953000Y-152247000D02*
X118300000Y-147900000D01*
X128600000Y-146100000D02*
X128600000Y-143900000D01*
%TO.N,/BM1366-1/NRSTO*%
X58700000Y-103900000D02*
X58700000Y-105800000D01*
X56000000Y-116700000D02*
X57400000Y-118100000D01*
X56000000Y-108500000D02*
X56000000Y-116700000D01*
X58700000Y-105800000D02*
X56000000Y-108500000D01*
X60200000Y-102400000D02*
X58700000Y-103900000D01*
X63100000Y-102400000D02*
X60200000Y-102400000D01*
%TO.N,/BM1366-1/CO*%
X65200000Y-116400000D02*
X65200000Y-98900000D01*
X63500000Y-118100000D02*
X65200000Y-116400000D01*
%TO.N,/BM1366-1/RI*%
X66100000Y-99900000D02*
X66100000Y-102900000D01*
X68749000Y-97251000D02*
X66100000Y-99900000D01*
X75084000Y-97251000D02*
X68749000Y-97251000D01*
%TO.N,/BM1366-2/RI*%
X115349000Y-125251000D02*
X110916000Y-125251000D01*
X122300000Y-130300000D02*
X127600000Y-130300000D01*
X115900000Y-124700000D02*
X115349000Y-125251000D01*
X118100000Y-124700000D02*
X118100000Y-126100000D01*
X118100000Y-126100000D02*
X122300000Y-130300000D01*
%TO.N,/BM1366-2/NRSTO*%
X118100000Y-129850000D02*
X118100000Y-141500000D01*
X118100000Y-141500000D02*
X122000000Y-145400000D01*
X119100000Y-122300000D02*
X117300000Y-124100000D01*
X117300000Y-129050000D02*
X118100000Y-129850000D01*
X117300000Y-124100000D02*
X117300000Y-129050000D01*
%TO.N,/BM1366-2/CO*%
X118800000Y-136600000D02*
X127600000Y-145400000D01*
X118800000Y-131400000D02*
X118800000Y-136600000D01*
%TO.N,/ESP32/ASIC_RST*%
X115700000Y-58500000D02*
X115700000Y-53100000D01*
X115700000Y-53100000D02*
X119750000Y-49050000D01*
X113950000Y-62950000D02*
X113950000Y-60250000D01*
X113950000Y-60250000D02*
X115700000Y-58500000D01*
X119750000Y-49050000D02*
X121850000Y-49050000D01*
%TO.N,/ESP32/ESP32_TX*%
X107400000Y-60500000D02*
X106110000Y-59210000D01*
X107400000Y-61400000D02*
X107400000Y-60500000D01*
X106110000Y-59210000D02*
X104350000Y-59210000D01*
%TO.N,/ESP32/ESP32_RX*%
X105630000Y-60480000D02*
X104350000Y-60480000D01*
X106100000Y-60950000D02*
X105630000Y-60480000D01*
%TO.N,Net-(U9-SPIIO6{slash}GPIO35{slash}FSPID{slash}SUBSPID)*%
X123500000Y-62500000D02*
X123500000Y-62448100D01*
X121850000Y-63020000D02*
X122980000Y-63020000D01*
X122980000Y-63020000D02*
X123500000Y-62500000D01*
%TO.N,Net-(U9-SPIIO7{slash}GPIO36{slash}FSPICLK{slash}SUBSPICLK)*%
X121850000Y-61750000D02*
X123050000Y-61750000D01*
X123050000Y-61750000D02*
X123500000Y-61300000D01*
%TO.N,Net-(U9-SPIDQS{slash}GPIO37{slash}FSPIQ{slash}SUBSPIQ)*%
X123020000Y-60480000D02*
X123500000Y-60000000D01*
X121850000Y-60480000D02*
X123020000Y-60480000D01*
%TO.N,Net-(U9-GPIO38{slash}FSPIWP{slash}SUBSPIWP)*%
X122990000Y-59210000D02*
X123500000Y-58700000D01*
X121850000Y-59210000D02*
X122990000Y-59210000D01*
%TO.N,Net-(U9-MTCK{slash}GPIO39{slash}CLK_OUT3{slash}SUBSPICS1)*%
X122960000Y-57940000D02*
X121850000Y-57940000D01*
X123500000Y-55000000D02*
X123500000Y-57400000D01*
X123500000Y-57400000D02*
X122960000Y-57940000D01*
%TO.N,/ESP32/PWR_EN*%
X109925000Y-67675000D02*
X109600000Y-68000000D01*
X109925000Y-65540000D02*
X109925000Y-67675000D01*
%TO.N,Net-(U9-GPIO12{slash}TOUCH12{slash}ADC2_CH1{slash}FSPICLK{slash}FSPIIO6{slash}SUBSPICLK)*%
X112465000Y-67185000D02*
X112465000Y-65540000D01*
X111100000Y-68550000D02*
X112465000Y-67185000D01*
%TO.N,Net-(U9-GPIO13{slash}TOUCH13{slash}ADC2_CH2{slash}FSPIQ{slash}FSPIIO7{slash}SUBSPIQ)*%
X111550000Y-69250000D02*
X113735000Y-67065000D01*
X113735000Y-67065000D02*
X113735000Y-65540000D01*
X110050000Y-69250000D02*
X111550000Y-69250000D01*
%TO.N,Net-(U9-GPIO14{slash}TOUCH14{slash}ADC2_CH3{slash}FSPIWP{slash}FSPIDQS{slash}SUBSPIWP)*%
X114150000Y-63950000D02*
X115005000Y-64805000D01*
X115005000Y-64805000D02*
X115005000Y-65540000D01*
X107250000Y-63950000D02*
X114150000Y-63950000D01*
%TO.N,Net-(U9-GPIO20{slash}U1CTS{slash}ADC2_CH9{slash}CLK_OUT1{slash}USB_D+)*%
X100300000Y-63800000D02*
X102800000Y-63800000D01*
X95930000Y-53375000D02*
X95930000Y-54260000D01*
X95930000Y-54260000D02*
X96170000Y-54500000D01*
X96800000Y-56050000D02*
X96800000Y-60300000D01*
X102800000Y-63800000D02*
X103290000Y-64290000D01*
X96170000Y-54500000D02*
X96930000Y-54500000D01*
X96800000Y-60300000D02*
X100300000Y-63800000D01*
X103290000Y-64290000D02*
X104350000Y-64290000D01*
X96930000Y-53375000D02*
X96930000Y-54500000D01*
%TO.N,Net-(U9-GPIO19{slash}U1RTS{slash}ADC2_CH8{slash}CLK_OUT2{slash}USB_D-)*%
X97152400Y-60152400D02*
X100400000Y-63400000D01*
X97160000Y-52100000D02*
X96660000Y-52100000D01*
X100400000Y-63400000D02*
X102900000Y-63400000D01*
X103280000Y-63020000D02*
X104350000Y-63020000D01*
X97420000Y-53375000D02*
X97420000Y-52360000D01*
X97420000Y-52360000D02*
X97160000Y-52100000D01*
X96660000Y-52100000D02*
X96420000Y-52340000D01*
X102900000Y-63400000D02*
X103280000Y-63020000D01*
X97152400Y-56197600D02*
X97152400Y-60152400D01*
X96420000Y-52340000D02*
X96420000Y-53375000D01*
%TO.N,Net-(U24-VDD3_0)*%
X110916000Y-155259000D02*
X113659000Y-155259000D01*
X113659000Y-155259000D02*
X114600000Y-156200000D01*
%TO.N,Net-(U24-VDD2_0)*%
X110916000Y-155761000D02*
X112961000Y-155761000D01*
X112961000Y-155761000D02*
X114600000Y-157400000D01*
%TO.N,Net-(U24-VDD1_0)*%
X110916000Y-156263000D02*
X112183000Y-156263000D01*
X112183000Y-156263000D02*
X114620000Y-158700000D01*
%TO.N,Net-(U24-RI)*%
X100800000Y-152900000D02*
X101800000Y-152900000D01*
X102151000Y-153251000D02*
X105084000Y-153251000D01*
X101800000Y-152900000D02*
X102151000Y-153251000D01*
%TO.N,Net-(U24-NRSTO)*%
X100800000Y-155200000D02*
X102000000Y-155200000D01*
X102945000Y-154255000D02*
X105084000Y-154255000D01*
X82455000Y-154255000D02*
X80916000Y-154255000D01*
X84100000Y-155900000D02*
X82455000Y-154255000D01*
X84800000Y-155900000D02*
X84100000Y-155900000D01*
X102000000Y-155200000D02*
X102945000Y-154255000D01*
%TO.N,Net-(U24-CO)*%
X101400000Y-150500000D02*
X103147000Y-152247000D01*
X100800000Y-150500000D02*
X101400000Y-150500000D01*
X103147000Y-152247000D02*
X105084000Y-152247000D01*
%TO.N,Net-(U24-CLKO)*%
X100800000Y-151700000D02*
X101800000Y-151700000D01*
X102850000Y-152750000D02*
X105084000Y-152750000D01*
X101800000Y-151700000D02*
X102850000Y-152750000D01*
%TO.N,Net-(U24-BO)*%
X101900000Y-154000000D02*
X102147000Y-153753000D01*
X100800000Y-154000000D02*
X101900000Y-154000000D01*
X102147000Y-153753000D02*
X105084000Y-153753000D01*
%TO.N,Net-(U22-VDD3_1)*%
X75084000Y-128250000D02*
X73250000Y-128250000D01*
X73250000Y-128250000D02*
X71200000Y-130300000D01*
%TO.N,Net-(U22-VDD2_1)*%
X75084000Y-127761000D02*
X72939000Y-127761000D01*
X71300000Y-129400000D02*
X70500000Y-129400000D01*
X72939000Y-127761000D02*
X71300000Y-129400000D01*
%TO.N,Net-(U22-VDD1_1)*%
X72450000Y-127250000D02*
X75084000Y-127250000D01*
X71200000Y-128500000D02*
X72450000Y-127250000D01*
%TO.N,Net-(U22-RI)*%
X83749000Y-125251000D02*
X84500000Y-124500000D01*
X80916000Y-125251000D02*
X83749000Y-125251000D01*
%TO.N,Net-(U22-NRSTO)*%
X80916000Y-124247000D02*
X82853000Y-124247000D01*
X82853000Y-124247000D02*
X84500000Y-122600000D01*
X84500000Y-122600000D02*
X85500000Y-122600000D01*
%TO.N,Net-(U22-CO)*%
X85155000Y-126255000D02*
X85500000Y-126600000D01*
X80916000Y-126255000D02*
X85155000Y-126255000D01*
%TO.N,Net-(U22-CLKO)*%
X85047000Y-125753000D02*
X85500000Y-125300000D01*
X80916000Y-125753000D02*
X85047000Y-125753000D01*
%TO.N,Net-(U22-BO)*%
X83051000Y-124749000D02*
X84100000Y-123700000D01*
X84100000Y-123700000D02*
X85500000Y-123700000D01*
X80916000Y-124749000D02*
X83051000Y-124749000D01*
%TO.N,Net-(U19-VDD3_1)*%
X81943000Y-128263000D02*
X83900000Y-130220000D01*
X103400000Y-129600000D02*
X101900000Y-131100000D01*
X84600000Y-130220000D02*
X83900000Y-130220000D01*
X103400000Y-129100000D02*
X103400000Y-129600000D01*
X104250000Y-128250000D02*
X103400000Y-129100000D01*
X80916000Y-128263000D02*
X81943000Y-128263000D01*
X105084000Y-128250000D02*
X104250000Y-128250000D01*
X101900000Y-131100000D02*
X101700000Y-131100000D01*
%TO.N,Net-(U19-VDD3_0)*%
X112363000Y-128263000D02*
X114600000Y-130500000D01*
X110916000Y-128263000D02*
X112363000Y-128263000D01*
%TO.N,Net-(U19-VDD2_1)*%
X80916000Y-127761000D02*
X82141000Y-127761000D01*
X102050000Y-130000000D02*
X102700000Y-129350000D01*
X101700000Y-130000000D02*
X102050000Y-130000000D01*
X85500000Y-129520000D02*
X83900000Y-129520000D01*
X102700000Y-129350000D02*
X102700000Y-128900000D01*
X102700000Y-128900000D02*
X103839000Y-127761000D01*
X82141000Y-127761000D02*
X83900000Y-129520000D01*
X103839000Y-127761000D02*
X105084000Y-127761000D01*
%TO.N,Net-(U19-VDD2_0)*%
X110916000Y-127761000D02*
X112961000Y-127761000D01*
X112961000Y-127761000D02*
X114600000Y-129400000D01*
%TO.N,Net-(U19-VDD1_1)*%
X80916000Y-127259000D02*
X82459000Y-127259000D01*
X103450000Y-127250000D02*
X105084000Y-127250000D01*
X84020000Y-128820000D02*
X84600000Y-128820000D01*
X101700000Y-129000000D02*
X103450000Y-127250000D01*
X82459000Y-127259000D02*
X84020000Y-128820000D01*
%TO.N,Net-(U19-VDD1_0)*%
X113459000Y-127259000D02*
X114500000Y-128300000D01*
X114500000Y-128300000D02*
X114600000Y-128300000D01*
X110916000Y-127259000D02*
X113459000Y-127259000D01*
%TO.N,Net-(U19-RO)*%
X101949000Y-125251000D02*
X101900000Y-125300000D01*
X105084000Y-125251000D02*
X101949000Y-125251000D01*
%TO.N,Net-(U19-NRSTO)*%
X114053000Y-124247000D02*
X110916000Y-124247000D01*
X116000000Y-122300000D02*
X114053000Y-124247000D01*
%TO.N,Net-(U19-NRSTI)*%
X105084000Y-124247000D02*
X102467000Y-124247000D01*
X102467000Y-124247000D02*
X100720000Y-122500000D01*
X92200000Y-127100000D02*
X92200000Y-122600000D01*
X100720000Y-122500000D02*
X100700000Y-122500000D01*
%TO.N,Net-(U19-CO)*%
X114965000Y-126255000D02*
X115910000Y-127200000D01*
X110916000Y-126255000D02*
X114965000Y-126255000D01*
%TO.N,Net-(U19-CLKO)*%
X110916000Y-125753000D02*
X115663000Y-125753000D01*
X115663000Y-125753000D02*
X115910000Y-126000000D01*
%TO.N,Net-(U19-CLKI)*%
X102200000Y-126100000D02*
X100700000Y-126100000D01*
X105084000Y-125753000D02*
X102547000Y-125753000D01*
X102547000Y-125753000D02*
X102200000Y-126100000D01*
%TO.N,Net-(U19-CI)*%
X105084000Y-126255000D02*
X102745000Y-126255000D01*
X101800000Y-127200000D02*
X100700000Y-127200000D01*
X102745000Y-126255000D02*
X101800000Y-127200000D01*
%TO.N,Net-(U19-BO)*%
X114751000Y-124749000D02*
X115900000Y-123600000D01*
X115900000Y-123600000D02*
X115910000Y-123600000D01*
X110916000Y-124749000D02*
X114751000Y-124749000D01*
%TO.N,Net-(U19-BI)*%
X102380000Y-124750000D02*
X105084000Y-124750000D01*
X101330000Y-123700000D02*
X102380000Y-124750000D01*
X100700000Y-123700000D02*
X101330000Y-123700000D01*
%TO.N,Net-(U16-VDD3_1)*%
X73750000Y-99250000D02*
X71500000Y-101500000D01*
X71500000Y-101500000D02*
X70250000Y-101500000D01*
X75084000Y-99250000D02*
X73750000Y-99250000D01*
%TO.N,Net-(U16-VDD2_1)*%
X74239000Y-99761000D02*
X75084000Y-99761000D01*
X71500000Y-102500000D02*
X74239000Y-99761000D01*
%TO.N,Net-(U16-VDD1_1)*%
X72750000Y-103250000D02*
X72750000Y-102000000D01*
X72750000Y-102000000D02*
X74500000Y-100250000D01*
X74500000Y-100250000D02*
X75084000Y-100250000D01*
%TO.N,Net-(U16-RO)*%
X80916000Y-97251000D02*
X84249000Y-97251000D01*
X84249000Y-97251000D02*
X84250000Y-97250000D01*
%TO.N,Net-(U16-NRSTO)*%
X71000000Y-99500000D02*
X71625000Y-99500000D01*
X71625000Y-99500000D02*
X72870000Y-98255000D01*
X72870000Y-98255000D02*
X75084000Y-98255000D01*
%TO.N,Net-(U16-CO)*%
X71100000Y-95000000D02*
X72000000Y-95000000D01*
X72000000Y-95000000D02*
X73247000Y-96247000D01*
X73247000Y-96247000D02*
X75084000Y-96247000D01*
%TO.N,Net-(U16-CLKO)*%
X71600000Y-96750000D02*
X75084000Y-96750000D01*
X71100000Y-96250000D02*
X71600000Y-96750000D01*
%TO.N,Net-(U16-CLKI)*%
X83501000Y-96749000D02*
X80916000Y-96749000D01*
X84000000Y-96250000D02*
X83501000Y-96749000D01*
%TO.N,Net-(U16-CI)*%
X83003000Y-96247000D02*
X80916000Y-96247000D01*
X84750000Y-95250000D02*
X84000000Y-95250000D01*
X84000000Y-95250000D02*
X83003000Y-96247000D01*
%TO.N,Net-(U16-BO)*%
X71000000Y-98250000D02*
X71497000Y-97753000D01*
X71497000Y-97753000D02*
X75084000Y-97753000D01*
%TO.N,Net-(U16-BI)*%
X83750000Y-98250000D02*
X83253000Y-97753000D01*
X83253000Y-97753000D02*
X80916000Y-97753000D01*
%TO.N,Net-(U13-VDD3_1)*%
X101250000Y-101500000D02*
X102000000Y-101500000D01*
X82259000Y-99259000D02*
X80916000Y-99259000D01*
X104250000Y-99250000D02*
X105084000Y-99250000D01*
X102000000Y-101500000D02*
X104250000Y-99250000D01*
X84471979Y-100707969D02*
X83707969Y-100707969D01*
X83707969Y-100707969D02*
X82259000Y-99259000D01*
%TO.N,Net-(U13-VDD3_0)*%
X116250000Y-99750000D02*
X115759000Y-99259000D01*
X115759000Y-99259000D02*
X110916000Y-99259000D01*
%TO.N,Net-(U13-VDD2_1)*%
X83750500Y-101500000D02*
X82011500Y-99761000D01*
X102000000Y-102250000D02*
X104489000Y-99761000D01*
X85500000Y-101500000D02*
X83750500Y-101500000D01*
X99500000Y-102250000D02*
X102000000Y-102250000D01*
X82011500Y-99761000D02*
X80916000Y-99761000D01*
X104489000Y-99761000D02*
X105084000Y-99761000D01*
%TO.N,Net-(U13-VDD2_0)*%
X114011000Y-99761000D02*
X115000000Y-100750000D01*
X110916000Y-99761000D02*
X114011000Y-99761000D01*
%TO.N,Net-(U13-VDD1_1)*%
X102000000Y-103000000D02*
X104750000Y-100250000D01*
X80916000Y-100263000D02*
X81763000Y-100263000D01*
X83750000Y-102250000D02*
X84500000Y-102250000D01*
X104750000Y-100250000D02*
X105084000Y-100250000D01*
X81763000Y-100263000D02*
X83750000Y-102250000D01*
X101300000Y-103000000D02*
X102000000Y-103000000D01*
%TO.N,Net-(U13-VDD1_0)*%
X112263000Y-100263000D02*
X113750000Y-101750000D01*
X110916000Y-100263000D02*
X112263000Y-100263000D01*
%TO.N,Net-(U13-RI)*%
X101751000Y-97251000D02*
X105084000Y-97251000D01*
X101750000Y-97250000D02*
X101751000Y-97251000D01*
%TO.N,Net-(U13-NRSTO)*%
X82755000Y-98255000D02*
X80916000Y-98255000D01*
X83707969Y-99207969D02*
X82755000Y-98255000D01*
X84471979Y-99207969D02*
X83707969Y-99207969D01*
X102125000Y-99500000D02*
X103370000Y-98255000D01*
X103370000Y-98255000D02*
X105084000Y-98255000D01*
X101100000Y-99500000D02*
X102125000Y-99500000D01*
%TO.N,Net-(U13-CO)*%
X103708316Y-96247000D02*
X105084000Y-96247000D01*
X102461316Y-95000000D02*
X103708316Y-96247000D01*
X102000000Y-95000000D02*
X102461316Y-95000000D01*
%TO.N,Net-(U13-CLKO)*%
X102750000Y-96750000D02*
X105084000Y-96750000D01*
X102250000Y-96250000D02*
X102750000Y-96750000D01*
%TO.N,Net-(U13-BO)*%
X102997000Y-97753000D02*
X105084000Y-97753000D01*
X101300000Y-98250000D02*
X102500000Y-98250000D01*
X102500000Y-98250000D02*
X102997000Y-97753000D01*
%TO.N,Net-(J8-Pin_2)*%
X108800000Y-76400000D02*
X109550000Y-77150000D01*
X109550000Y-77150000D02*
X111450000Y-77150000D01*
X111450000Y-77150000D02*
X111900000Y-76700000D01*
X111900000Y-76700000D02*
X111900000Y-75450000D01*
X106050000Y-76400000D02*
X108800000Y-76400000D01*
%TO.N,Net-(J4-CC2)*%
X94920000Y-53375000D02*
X94920000Y-51560000D01*
%TO.N,Net-(J4-CC1)*%
X97920000Y-53375000D02*
X97920000Y-51460000D01*
%TO.N,/BM1366-2/CLKI1*%
X71153000Y-125753000D02*
X75084000Y-125753000D01*
X70300000Y-124900000D02*
X71153000Y-125753000D01*
%TO.N,/BM1366-3/CLKI1*%
X116300000Y-151600000D02*
X115400000Y-151600000D01*
X114251000Y-152749000D02*
X110916000Y-152749000D01*
X115400000Y-151600000D02*
X114251000Y-152749000D01*
%TO.N,Net-(U9-MTDO{slash}GPIO40{slash}CLK_OUT2)*%
X118370000Y-56670000D02*
X116700000Y-55000000D01*
X116700000Y-55000000D02*
X116700000Y-53200000D01*
X121850000Y-56670000D02*
X118370000Y-56670000D01*
%TO.N,Net-(U9-MTDI{slash}GPIO41{slash}CLK_OUT1)*%
X119900000Y-55400000D02*
X119200000Y-54700000D01*
X121850000Y-55400000D02*
X119900000Y-55400000D01*
X119200000Y-54700000D02*
X119200000Y-53100000D01*
%TO.N,Net-(U9-MTMS{slash}GPIO42)*%
X121850000Y-54130000D02*
X123070000Y-54130000D01*
X123070000Y-54130000D02*
X123500000Y-53700000D01*
%TO.N,/ESP32/VDD_SAMPLE*%
X123380000Y-50320000D02*
X123800000Y-49900000D01*
X99000000Y-68050000D02*
X99000000Y-72400000D01*
X121850000Y-50320000D02*
X123380000Y-50320000D01*
X97350000Y-64150000D02*
X97350000Y-66400000D01*
X96550000Y-63350000D02*
X97350000Y-64150000D01*
X99000000Y-72400000D02*
X98200000Y-73200000D01*
X97350000Y-66400000D02*
X99000000Y-68050000D01*
D64*
%TO.N,Net-(Q1-G)*%
X87700000Y-60760000D02*
X86100000Y-60760000D01*
%TD*%
%TA.AperFunction,Conductor*%
%TO.N,/Power/SW*%
G36*
X89866017Y-61619685D02*
G01*
X89886245Y-61635906D01*
X94126284Y-65836319D01*
X95163269Y-66863612D01*
X95197041Y-66924777D01*
X95200000Y-66951704D01*
X95200000Y-69676000D01*
X95180315Y-69743039D01*
X95127511Y-69788794D01*
X95076000Y-69800000D01*
X87751401Y-69800000D01*
X87710446Y-69793042D01*
X87629254Y-69764631D01*
X87629249Y-69764630D01*
X87450004Y-69744435D01*
X87449996Y-69744435D01*
X87270750Y-69764630D01*
X87270745Y-69764631D01*
X87189554Y-69793042D01*
X87148599Y-69800000D01*
X85824000Y-69800000D01*
X85756961Y-69780315D01*
X85711206Y-69727511D01*
X85700000Y-69676000D01*
X85700000Y-68924000D01*
X85719685Y-68856961D01*
X85772489Y-68811206D01*
X85824000Y-68800000D01*
X86500000Y-68800000D01*
X86500000Y-68000000D01*
X81224000Y-68000000D01*
X81156961Y-67980315D01*
X81111206Y-67927511D01*
X81100000Y-67876000D01*
X81100000Y-66951362D01*
X81119685Y-66884323D01*
X81136319Y-66863681D01*
X82163681Y-65836319D01*
X82225004Y-65802834D01*
X82251362Y-65800000D01*
X85200000Y-65800000D01*
X86300000Y-64700000D01*
X86300000Y-61723999D01*
X86319685Y-61656961D01*
X86372489Y-61611206D01*
X86424000Y-61600000D01*
X89798978Y-61600000D01*
X89866017Y-61619685D01*
G37*
%TD.AperFunction*%
%TD*%
%TA.AperFunction,Conductor*%
%TO.N,/BM1366-2/VDD2*%
G36*
X110062539Y-128019685D02*
G01*
X110108294Y-128072489D01*
X110119500Y-128124000D01*
X110119500Y-128405017D01*
X110130292Y-128473157D01*
X110134354Y-128498804D01*
X110191950Y-128611842D01*
X110191952Y-128611844D01*
X110191954Y-128611847D01*
X110281652Y-128701545D01*
X110281654Y-128701546D01*
X110281658Y-128701550D01*
X110391797Y-128757669D01*
X110394698Y-128759147D01*
X110488475Y-128773999D01*
X110488481Y-128774000D01*
X110722638Y-128773999D01*
X110789676Y-128793683D01*
X110810318Y-128810318D01*
X111963682Y-129963682D01*
X111997166Y-130025003D01*
X112000000Y-130051361D01*
X112000000Y-147948637D01*
X111980315Y-148015676D01*
X111963681Y-148036318D01*
X110810317Y-149189681D01*
X110748994Y-149223166D01*
X110722637Y-149226000D01*
X110488482Y-149226000D01*
X110407519Y-149238823D01*
X110394696Y-149240854D01*
X110281658Y-149298450D01*
X110281656Y-149298450D01*
X110281657Y-149298451D01*
X110281652Y-149298454D01*
X110191954Y-149388152D01*
X110191951Y-149388157D01*
X110191950Y-149388158D01*
X110185327Y-149401157D01*
X110134352Y-149501198D01*
X110119500Y-149594975D01*
X110119500Y-149879017D01*
X110133689Y-149968602D01*
X110133688Y-150007397D01*
X110125452Y-150059398D01*
X110095523Y-150122532D01*
X110036212Y-150159464D01*
X110002979Y-150164000D01*
X105995278Y-150164000D01*
X105928239Y-150144315D01*
X105882484Y-150091511D01*
X105872805Y-150059397D01*
X105866470Y-150019398D01*
X105866470Y-149980602D01*
X105880499Y-149892023D01*
X105880500Y-149892019D01*
X105880499Y-149607982D01*
X105865646Y-149514196D01*
X105808050Y-149401158D01*
X105808046Y-149401154D01*
X105808045Y-149401152D01*
X105718347Y-149311454D01*
X105718344Y-149311452D01*
X105718342Y-149311450D01*
X105641517Y-149272305D01*
X105605301Y-149253852D01*
X105511524Y-149239000D01*
X105290362Y-149239000D01*
X105223323Y-149219315D01*
X105202681Y-149202681D01*
X104036319Y-148036319D01*
X104002834Y-147974996D01*
X104000000Y-147948638D01*
X104000000Y-147852873D01*
X104000389Y-147845934D01*
X104005565Y-147800000D01*
X104000389Y-147754066D01*
X104000000Y-147747126D01*
X104000000Y-130051361D01*
X104019685Y-129984322D01*
X104036314Y-129963685D01*
X105202683Y-128797316D01*
X105264004Y-128763833D01*
X105290359Y-128760999D01*
X105511518Y-128760999D01*
X105605304Y-128746146D01*
X105718342Y-128688550D01*
X105808050Y-128598842D01*
X105865646Y-128485804D01*
X105865646Y-128485802D01*
X105865647Y-128485801D01*
X105880499Y-128392024D01*
X105880500Y-128392019D01*
X105880499Y-128123999D01*
X105900183Y-128056961D01*
X105952987Y-128011206D01*
X106004499Y-128000000D01*
X109995500Y-128000000D01*
X110062539Y-128019685D01*
G37*
%TD.AperFunction*%
%TD*%
%TA.AperFunction,Conductor*%
%TO.N,/BM1366-2/VDD2*%
G36*
X80062539Y-128019685D02*
G01*
X80108294Y-128072489D01*
X80119500Y-128124000D01*
X80119500Y-128405017D01*
X80128217Y-128460053D01*
X80134354Y-128498804D01*
X80191950Y-128611842D01*
X80191952Y-128611844D01*
X80191954Y-128611847D01*
X80281652Y-128701545D01*
X80281654Y-128701546D01*
X80281658Y-128701550D01*
X80394696Y-128759146D01*
X80394698Y-128759147D01*
X80488475Y-128773999D01*
X80488481Y-128774000D01*
X80722638Y-128773999D01*
X80789676Y-128793683D01*
X80810318Y-128810318D01*
X81963681Y-129963681D01*
X81997166Y-130025004D01*
X82000000Y-130051362D01*
X82000000Y-147948637D01*
X81980315Y-148015676D01*
X81963681Y-148036318D01*
X80810317Y-149189681D01*
X80748994Y-149223166D01*
X80722637Y-149226000D01*
X80488482Y-149226000D01*
X80407519Y-149238823D01*
X80394696Y-149240854D01*
X80281658Y-149298450D01*
X80281656Y-149298450D01*
X80281657Y-149298451D01*
X80281652Y-149298454D01*
X80191954Y-149388152D01*
X80191951Y-149388157D01*
X80191950Y-149388158D01*
X80185327Y-149401157D01*
X80134352Y-149501198D01*
X80119500Y-149594975D01*
X80119500Y-149879017D01*
X80133689Y-149968602D01*
X80133688Y-150007397D01*
X80125452Y-150059398D01*
X80095523Y-150122532D01*
X80036212Y-150159464D01*
X80002979Y-150164000D01*
X75995278Y-150164000D01*
X75928239Y-150144315D01*
X75882484Y-150091511D01*
X75872805Y-150059397D01*
X75866470Y-150019398D01*
X75866470Y-149980602D01*
X75880499Y-149892023D01*
X75880500Y-149892019D01*
X75880499Y-149607982D01*
X75865646Y-149514196D01*
X75808050Y-149401158D01*
X75808046Y-149401154D01*
X75808045Y-149401152D01*
X75718347Y-149311454D01*
X75718344Y-149311452D01*
X75718342Y-149311450D01*
X75641517Y-149272305D01*
X75605301Y-149253852D01*
X75511524Y-149239000D01*
X75290362Y-149239000D01*
X75223323Y-149219315D01*
X75202681Y-149202681D01*
X74036952Y-148036952D01*
X74003467Y-147975629D01*
X74001413Y-147963157D01*
X74000388Y-147954060D01*
X74000000Y-147947122D01*
X74000000Y-130051361D01*
X74019685Y-129984322D01*
X74036314Y-129963685D01*
X75202683Y-128797316D01*
X75264004Y-128763833D01*
X75290359Y-128760999D01*
X75511518Y-128760999D01*
X75605304Y-128746146D01*
X75718342Y-128688550D01*
X75808050Y-128598842D01*
X75865646Y-128485804D01*
X75865646Y-128485802D01*
X75865647Y-128485801D01*
X75880499Y-128392024D01*
X75880500Y-128392019D01*
X75880499Y-128123999D01*
X75900183Y-128056961D01*
X75952987Y-128011206D01*
X76004499Y-128000000D01*
X79995500Y-128000000D01*
X80062539Y-128019685D01*
G37*
%TD.AperFunction*%
%TD*%
%TA.AperFunction,Conductor*%
%TO.N,GND*%
G36*
X109765677Y-88269685D02*
G01*
X109786319Y-88286319D01*
X111713682Y-90213682D01*
X111747166Y-90275003D01*
X111750000Y-90301361D01*
X111750000Y-92198637D01*
X111730315Y-92265676D01*
X111713681Y-92286318D01*
X110810317Y-93189681D01*
X110748994Y-93223166D01*
X110722637Y-93226000D01*
X110488482Y-93226000D01*
X110407519Y-93238823D01*
X110394696Y-93240854D01*
X110281658Y-93298450D01*
X110281657Y-93298450D01*
X110281657Y-93298451D01*
X110281652Y-93298454D01*
X110191954Y-93388152D01*
X110191951Y-93388157D01*
X110191950Y-93388158D01*
X110185327Y-93401157D01*
X110134352Y-93501198D01*
X110119500Y-93594975D01*
X110119500Y-93879017D01*
X110128565Y-93936251D01*
X110132948Y-93963927D01*
X110133689Y-93968602D01*
X110133688Y-94007397D01*
X110125452Y-94059398D01*
X110095523Y-94122532D01*
X110036212Y-94159464D01*
X110002979Y-94164000D01*
X105995278Y-94164000D01*
X105928239Y-94144315D01*
X105882484Y-94091511D01*
X105872805Y-94059397D01*
X105866470Y-94019398D01*
X105866470Y-93980602D01*
X105880499Y-93892023D01*
X105880500Y-93892019D01*
X105880499Y-93607982D01*
X105865646Y-93514196D01*
X105808050Y-93401158D01*
X105808046Y-93401154D01*
X105808045Y-93401152D01*
X105718347Y-93311454D01*
X105718344Y-93311452D01*
X105718342Y-93311450D01*
X105641517Y-93272305D01*
X105605301Y-93253852D01*
X105511524Y-93239000D01*
X105511519Y-93239000D01*
X105290362Y-93239000D01*
X105223323Y-93219315D01*
X105202681Y-93202681D01*
X104286319Y-92286319D01*
X104252834Y-92224996D01*
X104250000Y-92198638D01*
X104250000Y-90301361D01*
X104269685Y-90234322D01*
X104286314Y-90213685D01*
X106213681Y-88286319D01*
X106275004Y-88252834D01*
X106301362Y-88250000D01*
X109698638Y-88250000D01*
X109765677Y-88269685D01*
G37*
%TD.AperFunction*%
%TD*%
%TA.AperFunction,Conductor*%
%TO.N,GND*%
G36*
X85243039Y-51519685D02*
G01*
X85288794Y-51572489D01*
X85300000Y-51624000D01*
X85300000Y-52276000D01*
X85280315Y-52343039D01*
X85227511Y-52388794D01*
X85176000Y-52400000D01*
X84649999Y-52400000D01*
X84250000Y-52799999D01*
X84250000Y-52923573D01*
X84247618Y-52947762D01*
X84244000Y-52965952D01*
X84244000Y-53234048D01*
X84247617Y-53252231D01*
X84250000Y-53276425D01*
X84250000Y-53350000D01*
X84395552Y-53495552D01*
X84429037Y-53556875D01*
X84424053Y-53626567D01*
X84382181Y-53682500D01*
X84355327Y-53697793D01*
X84350000Y-53699999D01*
X84250000Y-53799999D01*
X84250000Y-53923571D01*
X84247618Y-53947760D01*
X84244000Y-53965951D01*
X84244000Y-54234047D01*
X84245780Y-54242998D01*
X84247617Y-54252229D01*
X84250000Y-54276423D01*
X84250000Y-54776000D01*
X84230315Y-54843039D01*
X84177511Y-54888794D01*
X84126000Y-54900000D01*
X83874000Y-54900000D01*
X83806961Y-54880315D01*
X83761206Y-54827511D01*
X83750000Y-54776000D01*
X83750000Y-54276423D01*
X83752383Y-54252229D01*
X83754220Y-54242998D01*
X83756000Y-54234047D01*
X83756000Y-53965951D01*
X83752382Y-53947760D01*
X83750000Y-53923571D01*
X83750000Y-53776424D01*
X83752383Y-53752230D01*
X83756000Y-53734047D01*
X83756000Y-53465951D01*
X83752382Y-53447761D01*
X83750000Y-53423572D01*
X83750000Y-53276425D01*
X83752383Y-53252231D01*
X83756000Y-53234048D01*
X83756000Y-52965952D01*
X83752382Y-52947762D01*
X83750000Y-52923573D01*
X83750000Y-52800000D01*
X83300000Y-52350000D01*
X82674000Y-52350000D01*
X82606961Y-52330315D01*
X82561206Y-52277511D01*
X82550000Y-52226000D01*
X82550000Y-51624000D01*
X82569685Y-51556961D01*
X82622489Y-51511206D01*
X82674000Y-51500000D01*
X85176000Y-51500000D01*
X85243039Y-51519685D01*
G37*
%TD.AperFunction*%
%TD*%
%TA.AperFunction,Conductor*%
%TO.N,GND*%
G36*
X79715677Y-72019685D02*
G01*
X79736319Y-72036319D01*
X80463681Y-72763681D01*
X80497166Y-72825004D01*
X80500000Y-72851362D01*
X80500000Y-73500000D01*
X81100000Y-74100000D01*
X84576000Y-74100000D01*
X84643039Y-74119685D01*
X84688794Y-74172489D01*
X84700000Y-74224000D01*
X84700000Y-75350489D01*
X84680315Y-75417528D01*
X84665900Y-75435894D01*
X83750000Y-76399999D01*
X83750000Y-78776000D01*
X83730315Y-78843039D01*
X83677511Y-78888794D01*
X83626000Y-78900000D01*
X82751362Y-78900000D01*
X82684323Y-78880315D01*
X82663681Y-78863681D01*
X82186319Y-78386319D01*
X82152834Y-78324996D01*
X82150000Y-78298638D01*
X82150000Y-77750000D01*
X80600000Y-77750000D01*
X80599999Y-77750000D01*
X79800000Y-78549999D01*
X79800000Y-85848638D01*
X79780315Y-85915677D01*
X79763681Y-85936319D01*
X78536319Y-87163681D01*
X78474996Y-87197166D01*
X78448638Y-87200000D01*
X70651362Y-87200000D01*
X70584323Y-87180315D01*
X70563681Y-87163681D01*
X69486319Y-86086319D01*
X69452834Y-86024996D01*
X69450000Y-85998638D01*
X69450000Y-72124000D01*
X69469685Y-72056961D01*
X69522489Y-72011206D01*
X69574000Y-72000000D01*
X79648638Y-72000000D01*
X79715677Y-72019685D01*
G37*
%TD.AperFunction*%
%TD*%
%TA.AperFunction,Conductor*%
%TO.N,/BM1366-1/VDD1*%
G36*
X80062539Y-100019685D02*
G01*
X80108294Y-100072489D01*
X80119500Y-100124000D01*
X80119500Y-100405017D01*
X80129101Y-100465638D01*
X80134354Y-100498804D01*
X80191950Y-100611842D01*
X80191952Y-100611844D01*
X80191954Y-100611847D01*
X80281652Y-100701545D01*
X80281654Y-100701546D01*
X80281658Y-100701550D01*
X80394696Y-100759146D01*
X80394698Y-100759147D01*
X80488475Y-100773999D01*
X80488481Y-100774000D01*
X80722638Y-100773999D01*
X80789676Y-100793683D01*
X80810318Y-100810318D01*
X81963681Y-101963681D01*
X81997166Y-102025004D01*
X82000000Y-102051362D01*
X82000000Y-119948637D01*
X81980315Y-120015676D01*
X81963681Y-120036318D01*
X80810317Y-121189681D01*
X80748994Y-121223166D01*
X80722637Y-121226000D01*
X80488482Y-121226000D01*
X80407519Y-121238823D01*
X80394696Y-121240854D01*
X80281658Y-121298450D01*
X80281657Y-121298450D01*
X80281657Y-121298451D01*
X80281652Y-121298454D01*
X80191954Y-121388152D01*
X80191951Y-121388157D01*
X80191950Y-121388158D01*
X80185327Y-121401157D01*
X80134352Y-121501198D01*
X80119500Y-121594975D01*
X80119500Y-121879017D01*
X80133689Y-121968602D01*
X80133688Y-122007397D01*
X80125452Y-122059398D01*
X80095523Y-122122532D01*
X80036212Y-122159464D01*
X80002979Y-122164000D01*
X75995278Y-122164000D01*
X75928239Y-122144315D01*
X75882484Y-122091511D01*
X75872805Y-122059397D01*
X75866470Y-122019398D01*
X75866470Y-121980602D01*
X75880499Y-121892023D01*
X75880500Y-121892019D01*
X75880499Y-121607982D01*
X75865646Y-121514196D01*
X75808050Y-121401158D01*
X75808046Y-121401154D01*
X75808045Y-121401152D01*
X75718347Y-121311454D01*
X75718344Y-121311452D01*
X75718342Y-121311450D01*
X75641517Y-121272305D01*
X75605301Y-121253852D01*
X75511524Y-121239000D01*
X75511519Y-121239000D01*
X75290362Y-121239000D01*
X75223323Y-121219315D01*
X75202681Y-121202681D01*
X74036319Y-120036319D01*
X74002834Y-119974996D01*
X74000000Y-119948638D01*
X74000000Y-102051362D01*
X74019685Y-101984323D01*
X74036319Y-101963681D01*
X75202682Y-100797318D01*
X75264005Y-100763833D01*
X75290363Y-100760999D01*
X75511517Y-100760999D01*
X75511518Y-100760999D01*
X75605304Y-100746146D01*
X75718342Y-100688550D01*
X75808050Y-100598842D01*
X75865646Y-100485804D01*
X75865646Y-100485802D01*
X75865647Y-100485801D01*
X75880499Y-100392024D01*
X75880500Y-100392019D01*
X75880499Y-100123999D01*
X75900183Y-100056961D01*
X75952987Y-100011206D01*
X76004499Y-100000000D01*
X79995500Y-100000000D01*
X80062539Y-100019685D01*
G37*
%TD.AperFunction*%
%TD*%
%TA.AperFunction,Conductor*%
%TO.N,/VIN_M*%
G36*
X81693039Y-55819685D02*
G01*
X81738794Y-55872489D01*
X81750000Y-55924000D01*
X81750000Y-58598637D01*
X81730315Y-58665676D01*
X81713681Y-58686318D01*
X80100000Y-60299999D01*
X80100000Y-65623710D01*
X80080995Y-65689681D01*
X80074211Y-65700477D01*
X80014631Y-65870745D01*
X80014630Y-65870750D01*
X79994435Y-66049996D01*
X79994435Y-66050003D01*
X80014630Y-66229249D01*
X80014633Y-66229262D01*
X80072233Y-66393869D01*
X80074211Y-66399522D01*
X80080992Y-66410314D01*
X80100000Y-66476288D01*
X80100000Y-68676000D01*
X80080315Y-68743039D01*
X80027511Y-68788794D01*
X79976000Y-68800000D01*
X68524000Y-68800000D01*
X68456961Y-68780315D01*
X68411206Y-68727511D01*
X68400000Y-68676000D01*
X68400000Y-63901362D01*
X68419685Y-63834323D01*
X68436319Y-63813681D01*
X69113681Y-63136319D01*
X69175004Y-63102834D01*
X69201362Y-63100000D01*
X77100000Y-63100000D01*
X77100000Y-60402240D01*
X77119685Y-60335201D01*
X77137381Y-60313509D01*
X79200000Y-58300000D01*
X79200000Y-55923999D01*
X79219685Y-55856961D01*
X79272489Y-55811206D01*
X79324000Y-55800000D01*
X81626000Y-55800000D01*
X81693039Y-55819685D01*
G37*
%TD.AperFunction*%
%TD*%
%TA.AperFunction,Conductor*%
%TO.N,/VDD*%
G36*
X87215677Y-75569685D02*
G01*
X87236319Y-75586319D01*
X88750000Y-77100000D01*
X95876000Y-77100000D01*
X95943039Y-77119685D01*
X95988794Y-77172489D01*
X96000000Y-77224000D01*
X96000000Y-80848637D01*
X95980315Y-80915676D01*
X95963681Y-80936318D01*
X91836599Y-85063400D01*
X91775276Y-85096885D01*
X91748240Y-85099717D01*
X82700964Y-85050278D01*
X82634034Y-85030228D01*
X82613961Y-85013961D01*
X80686319Y-83086319D01*
X80652834Y-83024996D01*
X80650000Y-82998638D01*
X80650000Y-79724000D01*
X80669685Y-79656961D01*
X80722489Y-79611206D01*
X80774000Y-79600000D01*
X85300000Y-79600000D01*
X85750000Y-79150000D01*
X85750000Y-75674000D01*
X85769685Y-75606961D01*
X85822489Y-75561206D01*
X85874000Y-75550000D01*
X87148638Y-75550000D01*
X87215677Y-75569685D01*
G37*
%TD.AperFunction*%
%TD*%
%TA.AperFunction,Conductor*%
%TO.N,GND*%
G36*
X92843039Y-171119685D02*
G01*
X92888794Y-171172489D01*
X92900000Y-171224000D01*
X92900000Y-171876000D01*
X92880315Y-171943039D01*
X92827511Y-171988794D01*
X92776000Y-172000000D01*
X92249999Y-172000000D01*
X91850000Y-172399999D01*
X91850000Y-172523573D01*
X91847618Y-172547762D01*
X91844000Y-172565952D01*
X91844000Y-172834048D01*
X91847617Y-172852231D01*
X91850000Y-172876425D01*
X91850000Y-172950000D01*
X91995552Y-173095552D01*
X92029037Y-173156875D01*
X92024053Y-173226567D01*
X91982181Y-173282500D01*
X91955327Y-173297793D01*
X91950000Y-173299999D01*
X91850000Y-173399999D01*
X91850000Y-173523571D01*
X91847618Y-173547760D01*
X91844000Y-173565951D01*
X91844000Y-173834047D01*
X91844000Y-173834049D01*
X91843999Y-173834049D01*
X91847433Y-173851308D01*
X91841206Y-173920900D01*
X91798343Y-173976077D01*
X91732453Y-173999322D01*
X91725816Y-173999500D01*
X91474184Y-173999500D01*
X91407145Y-173979815D01*
X91361390Y-173927011D01*
X91351446Y-173857853D01*
X91352567Y-173851308D01*
X91356000Y-173834049D01*
X91356000Y-173565950D01*
X91352382Y-173547760D01*
X91350000Y-173523571D01*
X91350000Y-173376424D01*
X91352383Y-173352230D01*
X91356000Y-173334047D01*
X91356000Y-173065951D01*
X91352382Y-173047761D01*
X91350000Y-173023572D01*
X91350000Y-172876425D01*
X91352383Y-172852231D01*
X91356000Y-172834048D01*
X91356000Y-172565952D01*
X91352382Y-172547762D01*
X91350000Y-172523573D01*
X91350000Y-172400000D01*
X90900000Y-171950000D01*
X90342071Y-171950000D01*
X90275032Y-171930315D01*
X90266590Y-171924380D01*
X90202841Y-171875464D01*
X90202840Y-171875463D01*
X90198513Y-171872143D01*
X90157311Y-171815715D01*
X90150000Y-171773767D01*
X90150000Y-171224000D01*
X90169685Y-171156961D01*
X90222489Y-171111206D01*
X90274000Y-171100000D01*
X92776000Y-171100000D01*
X92843039Y-171119685D01*
G37*
%TD.AperFunction*%
%TD*%
%TA.AperFunction,Conductor*%
%TO.N,/VDD*%
G36*
X110070019Y-155855685D02*
G01*
X110115774Y-155908489D01*
X110125454Y-155940604D01*
X110133689Y-155992603D01*
X110133688Y-156031397D01*
X110119500Y-156120975D01*
X110119500Y-156405017D01*
X110130292Y-156473157D01*
X110134354Y-156498804D01*
X110191950Y-156611842D01*
X110191952Y-156611844D01*
X110191954Y-156611847D01*
X110281652Y-156701545D01*
X110281654Y-156701546D01*
X110281658Y-156701550D01*
X110394696Y-156759146D01*
X110394698Y-156759147D01*
X110488475Y-156773999D01*
X110488481Y-156774000D01*
X110722638Y-156773999D01*
X110789676Y-156793683D01*
X110810318Y-156810318D01*
X111713681Y-157713681D01*
X111747166Y-157775004D01*
X111750000Y-157801362D01*
X111750000Y-159698638D01*
X111730315Y-159765677D01*
X111713681Y-159786319D01*
X109786319Y-161713681D01*
X109724996Y-161747166D01*
X109698638Y-161750000D01*
X106301362Y-161750000D01*
X106234323Y-161730315D01*
X106213681Y-161713681D01*
X104286319Y-159786319D01*
X104252834Y-159724996D01*
X104250000Y-159698638D01*
X104250000Y-157801362D01*
X104269685Y-157734323D01*
X104286319Y-157713681D01*
X105202682Y-156797318D01*
X105264005Y-156763833D01*
X105290363Y-156760999D01*
X105511517Y-156760999D01*
X105511518Y-156760999D01*
X105605304Y-156746146D01*
X105718342Y-156688550D01*
X105808050Y-156598842D01*
X105865646Y-156485804D01*
X105865646Y-156485802D01*
X105865647Y-156485801D01*
X105880499Y-156392024D01*
X105880500Y-156392019D01*
X105880499Y-156107982D01*
X105880499Y-156107976D01*
X105867341Y-156024898D01*
X105867341Y-155986102D01*
X105874548Y-155940601D01*
X105904478Y-155877467D01*
X105963790Y-155840536D01*
X105997021Y-155836000D01*
X110002980Y-155836000D01*
X110070019Y-155855685D01*
G37*
%TD.AperFunction*%
%TD*%
%TA.AperFunction,Conductor*%
%TO.N,/BM1366-1/VDD1*%
G36*
X110062539Y-100019685D02*
G01*
X110108294Y-100072489D01*
X110119500Y-100124000D01*
X110119500Y-100405017D01*
X110130292Y-100473157D01*
X110134354Y-100498804D01*
X110191950Y-100611842D01*
X110191952Y-100611844D01*
X110191954Y-100611847D01*
X110281652Y-100701545D01*
X110281654Y-100701546D01*
X110281658Y-100701550D01*
X110394696Y-100759146D01*
X110394698Y-100759147D01*
X110488475Y-100773999D01*
X110488481Y-100774000D01*
X110722638Y-100773999D01*
X110789676Y-100793683D01*
X110810318Y-100810318D01*
X111963681Y-101963681D01*
X111997166Y-102025004D01*
X112000000Y-102051362D01*
X112000000Y-119948637D01*
X111980315Y-120015676D01*
X111963681Y-120036318D01*
X110810317Y-121189681D01*
X110748994Y-121223166D01*
X110722637Y-121226000D01*
X110488482Y-121226000D01*
X110407519Y-121238823D01*
X110394696Y-121240854D01*
X110281658Y-121298450D01*
X110281656Y-121298450D01*
X110281657Y-121298451D01*
X110281652Y-121298454D01*
X110191954Y-121388152D01*
X110191951Y-121388157D01*
X110191950Y-121388158D01*
X110185327Y-121401157D01*
X110134352Y-121501198D01*
X110119500Y-121594975D01*
X110119500Y-121879017D01*
X110133689Y-121968602D01*
X110133688Y-122007397D01*
X110125452Y-122059398D01*
X110095523Y-122122532D01*
X110036212Y-122159464D01*
X110002979Y-122164000D01*
X105995278Y-122164000D01*
X105928239Y-122144315D01*
X105882484Y-122091511D01*
X105872805Y-122059397D01*
X105866470Y-122019398D01*
X105866470Y-121980602D01*
X105880499Y-121892023D01*
X105880500Y-121892019D01*
X105880499Y-121607982D01*
X105865646Y-121514196D01*
X105808050Y-121401158D01*
X105808046Y-121401154D01*
X105808045Y-121401152D01*
X105718347Y-121311454D01*
X105718344Y-121311452D01*
X105718342Y-121311450D01*
X105641517Y-121272305D01*
X105605301Y-121253852D01*
X105511524Y-121239000D01*
X105290362Y-121239000D01*
X105223323Y-121219315D01*
X105202681Y-121202681D01*
X104036319Y-120036319D01*
X104002834Y-119974996D01*
X104000000Y-119948638D01*
X104000000Y-102051362D01*
X104019685Y-101984323D01*
X104036319Y-101963681D01*
X105202682Y-100797318D01*
X105264005Y-100763833D01*
X105290363Y-100760999D01*
X105511517Y-100760999D01*
X105511518Y-100760999D01*
X105605304Y-100746146D01*
X105718342Y-100688550D01*
X105808050Y-100598842D01*
X105865646Y-100485804D01*
X105865646Y-100485802D01*
X105865647Y-100485801D01*
X105880499Y-100392024D01*
X105880500Y-100392019D01*
X105880499Y-100123999D01*
X105900183Y-100056961D01*
X105952987Y-100011206D01*
X106004499Y-100000000D01*
X109995500Y-100000000D01*
X110062539Y-100019685D01*
G37*
%TD.AperFunction*%
%TD*%
%TA.AperFunction,Conductor*%
%TO.N,/Power/VIN*%
G36*
X75643039Y-49619685D02*
G01*
X75688794Y-49672489D01*
X75700000Y-49724000D01*
X75700000Y-56299751D01*
X75680315Y-56366790D01*
X75665020Y-56386073D01*
X74100000Y-58000000D01*
X72236319Y-59863681D01*
X72174996Y-59897166D01*
X72148638Y-59900000D01*
X69201362Y-59900000D01*
X69134323Y-59880315D01*
X69113681Y-59863681D01*
X67536319Y-58286319D01*
X67502834Y-58224996D01*
X67500000Y-58198638D01*
X67500000Y-49724000D01*
X67519685Y-49656961D01*
X67572489Y-49611206D01*
X67624000Y-49600000D01*
X75576000Y-49600000D01*
X75643039Y-49619685D01*
G37*
%TD.AperFunction*%
%TD*%
%TA.AperFunction,Conductor*%
%TO.N,/5V*%
G36*
X112943039Y-80969685D02*
G01*
X112988794Y-81022489D01*
X113000000Y-81074000D01*
X113000000Y-82998638D01*
X112980315Y-83065677D01*
X112963681Y-83086319D01*
X109936319Y-86113681D01*
X109874996Y-86147166D01*
X109848638Y-86150000D01*
X98449999Y-86150000D01*
X96800000Y-87799999D01*
X96800000Y-151976000D01*
X96780315Y-152043039D01*
X96727511Y-152088794D01*
X96676000Y-152100000D01*
X90824000Y-152100000D01*
X90756961Y-152080315D01*
X90711206Y-152027511D01*
X90700000Y-151976000D01*
X90700000Y-127100003D01*
X91394435Y-127100003D01*
X91414630Y-127279249D01*
X91414631Y-127279254D01*
X91474211Y-127449523D01*
X91537045Y-127549522D01*
X91570184Y-127602262D01*
X91697738Y-127729816D01*
X91850478Y-127825789D01*
X91861987Y-127829816D01*
X92020745Y-127885368D01*
X92020750Y-127885369D01*
X92199996Y-127905565D01*
X92200000Y-127905565D01*
X92200004Y-127905565D01*
X92379249Y-127885369D01*
X92379252Y-127885368D01*
X92379255Y-127885368D01*
X92549522Y-127825789D01*
X92702262Y-127729816D01*
X92829816Y-127602262D01*
X92925789Y-127449522D01*
X92985368Y-127279255D01*
X92985369Y-127279249D01*
X93005565Y-127100003D01*
X93005565Y-127099996D01*
X92985369Y-126920750D01*
X92985368Y-126920745D01*
X92925789Y-126750478D01*
X92829816Y-126597738D01*
X92736818Y-126504740D01*
X92703334Y-126443416D01*
X92700500Y-126417059D01*
X92700500Y-123282940D01*
X92720185Y-123215901D01*
X92736819Y-123195259D01*
X92829816Y-123102262D01*
X92925789Y-122949522D01*
X92985368Y-122779255D01*
X92985369Y-122779249D01*
X93005565Y-122600003D01*
X93005565Y-122599996D01*
X92985369Y-122420750D01*
X92985368Y-122420745D01*
X92925788Y-122250476D01*
X92829815Y-122097737D01*
X92702262Y-121970184D01*
X92549523Y-121874211D01*
X92379254Y-121814631D01*
X92379249Y-121814630D01*
X92200004Y-121794435D01*
X92199996Y-121794435D01*
X92020750Y-121814630D01*
X92020745Y-121814631D01*
X91850476Y-121874211D01*
X91697737Y-121970184D01*
X91570184Y-122097737D01*
X91474211Y-122250476D01*
X91414631Y-122420745D01*
X91414630Y-122420750D01*
X91394435Y-122599996D01*
X91394435Y-122600003D01*
X91414630Y-122779249D01*
X91414631Y-122779254D01*
X91474211Y-122949523D01*
X91570184Y-123102262D01*
X91663181Y-123195259D01*
X91696666Y-123256582D01*
X91699500Y-123282940D01*
X91699500Y-126417059D01*
X91679815Y-126484098D01*
X91663182Y-126504740D01*
X91570183Y-126597739D01*
X91474211Y-126750476D01*
X91414631Y-126920745D01*
X91414630Y-126920750D01*
X91394435Y-127099996D01*
X91394435Y-127100003D01*
X90700000Y-127100003D01*
X90700000Y-88001362D01*
X90719685Y-87934323D01*
X90736319Y-87913681D01*
X96413681Y-82236319D01*
X96475004Y-82202834D01*
X96501362Y-82200000D01*
X105522336Y-82200000D01*
X105589375Y-82219685D01*
X105595221Y-82223682D01*
X105747265Y-82334148D01*
X105747270Y-82334151D01*
X105920192Y-82411142D01*
X105920197Y-82411144D01*
X106105354Y-82450500D01*
X106105355Y-82450500D01*
X106294644Y-82450500D01*
X106294646Y-82450500D01*
X106479803Y-82411144D01*
X106652730Y-82334151D01*
X106787385Y-82236319D01*
X106804779Y-82223682D01*
X106870585Y-82200202D01*
X106877664Y-82200000D01*
X108000000Y-82200000D01*
X109213681Y-80986318D01*
X109275004Y-80952834D01*
X109301362Y-80950000D01*
X112876000Y-80950000D01*
X112943039Y-80969685D01*
G37*
%TD.AperFunction*%
%TD*%
%TA.AperFunction,Conductor*%
%TO.N,GND*%
G36*
X77715677Y-55069685D02*
G01*
X77736319Y-55086319D01*
X78213681Y-55563681D01*
X78247166Y-55625004D01*
X78250000Y-55651362D01*
X78250000Y-58198638D01*
X78230315Y-58265677D01*
X78213681Y-58286319D01*
X76786319Y-59713681D01*
X76724996Y-59747166D01*
X76698638Y-59750000D01*
X74024000Y-59750000D01*
X73956961Y-59730315D01*
X73911206Y-59677511D01*
X73900000Y-59626000D01*
X73900000Y-59351361D01*
X73919685Y-59284322D01*
X73936314Y-59263685D01*
X74363681Y-58836318D01*
X74425004Y-58802834D01*
X74451362Y-58800000D01*
X75350000Y-58800000D01*
X76600000Y-57550000D01*
X76600000Y-55651361D01*
X76619685Y-55584323D01*
X76636319Y-55563681D01*
X77113681Y-55086319D01*
X77175004Y-55052834D01*
X77201362Y-55050000D01*
X77648638Y-55050000D01*
X77715677Y-55069685D01*
G37*
%TD.AperFunction*%
%TD*%
%TA.AperFunction,Conductor*%
%TO.N,/VDD*%
G36*
X80070019Y-155855685D02*
G01*
X80115774Y-155908489D01*
X80125454Y-155940604D01*
X80133689Y-155992603D01*
X80133688Y-156031397D01*
X80119500Y-156120975D01*
X80119500Y-156405017D01*
X80130292Y-156473157D01*
X80134354Y-156498804D01*
X80191950Y-156611842D01*
X80191952Y-156611844D01*
X80191954Y-156611847D01*
X80281652Y-156701545D01*
X80281654Y-156701546D01*
X80281658Y-156701550D01*
X80394696Y-156759146D01*
X80394698Y-156759147D01*
X80488475Y-156773999D01*
X80488481Y-156774000D01*
X80722638Y-156773999D01*
X80789676Y-156793683D01*
X80810318Y-156810318D01*
X81713681Y-157713681D01*
X81747166Y-157775004D01*
X81750000Y-157801362D01*
X81750000Y-158566558D01*
X81730315Y-158633597D01*
X81713682Y-158654238D01*
X81670186Y-158697733D01*
X81670186Y-158697734D01*
X81574211Y-158850476D01*
X81514631Y-159020745D01*
X81514630Y-159020750D01*
X81494435Y-159199996D01*
X81494435Y-159200003D01*
X81514630Y-159379249D01*
X81514631Y-159379254D01*
X81574211Y-159549523D01*
X81666793Y-159696866D01*
X81685793Y-159764103D01*
X81665425Y-159830938D01*
X81649480Y-159850519D01*
X79786319Y-161713681D01*
X79724996Y-161747166D01*
X79698638Y-161750000D01*
X76301362Y-161750000D01*
X76234323Y-161730315D01*
X76213681Y-161713681D01*
X74286319Y-159786319D01*
X74252834Y-159724996D01*
X74250000Y-159698638D01*
X74250000Y-157801362D01*
X74269685Y-157734323D01*
X74286319Y-157713681D01*
X75202682Y-156797318D01*
X75264005Y-156763833D01*
X75290363Y-156760999D01*
X75511517Y-156760999D01*
X75511518Y-156760999D01*
X75605304Y-156746146D01*
X75718342Y-156688550D01*
X75808050Y-156598842D01*
X75865646Y-156485804D01*
X75865646Y-156485802D01*
X75865647Y-156485801D01*
X75880499Y-156392024D01*
X75880500Y-156392019D01*
X75880499Y-156107982D01*
X75880499Y-156107976D01*
X75867341Y-156024898D01*
X75867341Y-155986102D01*
X75874548Y-155940601D01*
X75904478Y-155877467D01*
X75963790Y-155840536D01*
X75997021Y-155836000D01*
X80002980Y-155836000D01*
X80070019Y-155855685D01*
G37*
%TD.AperFunction*%
%TD*%
%TA.AperFunction,Conductor*%
%TO.N,GND*%
G36*
X79765677Y-88269685D02*
G01*
X79786319Y-88286319D01*
X81713682Y-90213682D01*
X81747166Y-90275003D01*
X81750000Y-90301361D01*
X81750000Y-92198637D01*
X81730315Y-92265676D01*
X81713681Y-92286318D01*
X80810317Y-93189681D01*
X80748994Y-93223166D01*
X80722637Y-93226000D01*
X80488482Y-93226000D01*
X80407519Y-93238823D01*
X80394696Y-93240854D01*
X80281658Y-93298450D01*
X80281657Y-93298450D01*
X80281657Y-93298451D01*
X80281652Y-93298454D01*
X80191954Y-93388152D01*
X80191951Y-93388157D01*
X80191950Y-93388158D01*
X80185327Y-93401157D01*
X80134352Y-93501198D01*
X80119500Y-93594975D01*
X80119500Y-93879017D01*
X80128565Y-93936251D01*
X80132948Y-93963927D01*
X80133689Y-93968602D01*
X80133688Y-94007397D01*
X80125452Y-94059398D01*
X80095523Y-94122532D01*
X80036212Y-94159464D01*
X80002979Y-94164000D01*
X75995278Y-94164000D01*
X75928239Y-94144315D01*
X75882484Y-94091511D01*
X75872805Y-94059397D01*
X75866470Y-94019398D01*
X75866470Y-93980602D01*
X75880499Y-93892023D01*
X75880500Y-93892019D01*
X75880499Y-93607982D01*
X75865646Y-93514196D01*
X75808050Y-93401158D01*
X75808046Y-93401154D01*
X75808045Y-93401152D01*
X75718347Y-93311454D01*
X75718344Y-93311452D01*
X75718342Y-93311450D01*
X75641517Y-93272305D01*
X75605301Y-93253852D01*
X75511524Y-93239000D01*
X75511519Y-93239000D01*
X75290362Y-93239000D01*
X75223323Y-93219315D01*
X75202681Y-93202681D01*
X74286319Y-92286319D01*
X74252834Y-92224996D01*
X74250000Y-92198638D01*
X74250000Y-90301361D01*
X74269685Y-90234322D01*
X74286314Y-90213685D01*
X76213681Y-88286319D01*
X76275004Y-88252834D01*
X76301362Y-88250000D01*
X79698638Y-88250000D01*
X79765677Y-88269685D01*
G37*
%TD.AperFunction*%
%TD*%
M02*
