%TF.GenerationSoftware,KiCad,Pcbnew,7.0.7*%
%TF.CreationDate,2023-11-02T18:15:07-06:00*%
%TF.ProjectId,bitaxeHex,62697461-7865-4486-9578-2e6b69636164,0.9*%
%TF.SameCoordinates,Original*%
%TF.FileFunction,Copper,L1,Top*%
%TF.FilePolarity,Positive*%
%FSLAX46Y46*%
G04 Gerber Fmt 4.6, Leading zero omitted, Abs format (unit mm)*
G04 Created by KiCad (PCBNEW 7.0.7) date 2023-11-02 18:15:07*
%MOMM*%
%LPD*%
G01*
G04 APERTURE LIST*
G04 Aperture macros list*
%AMRoundRect*
0 Rectangle with rounded corners*
0 $1 Rounding radius*
0 $2 $3 $4 $5 $6 $7 $8 $9 X,Y pos of 4 corners*
0 Add a 4 corners polygon primitive as box body*
4,1,4,$2,$3,$4,$5,$6,$7,$8,$9,$2,$3,0*
0 Add four circle primitives for the rounded corners*
1,1,$1+$1,$2,$3*
1,1,$1+$1,$4,$5*
1,1,$1+$1,$6,$7*
1,1,$1+$1,$8,$9*
0 Add four rect primitives between the rounded corners*
20,1,$1+$1,$2,$3,$4,$5,0*
20,1,$1+$1,$4,$5,$6,$7,0*
20,1,$1+$1,$6,$7,$8,$9,0*
20,1,$1+$1,$8,$9,$2,$3,0*%
G04 Aperture macros list end*
%TA.AperFunction,SMDPad,CuDef*%
%ADD10R,0.792000X0.221000*%
%TD*%
%TA.AperFunction,SMDPad,CuDef*%
%ADD11R,4.277000X1.810000*%
%TD*%
%TA.AperFunction,SMDPad,CuDef*%
%ADD12R,4.277000X4.530000*%
%TD*%
%TA.AperFunction,SMDPad,CuDef*%
%ADD13RoundRect,0.150000X-0.150000X0.825000X-0.150000X-0.825000X0.150000X-0.825000X0.150000X0.825000X0*%
%TD*%
%TA.AperFunction,ConnectorPad*%
%ADD14C,0.787400*%
%TD*%
%TA.AperFunction,SMDPad,CuDef*%
%ADD15RoundRect,0.140000X0.140000X0.170000X-0.140000X0.170000X-0.140000X-0.170000X0.140000X-0.170000X0*%
%TD*%
%TA.AperFunction,SMDPad,CuDef*%
%ADD16RoundRect,0.135000X0.185000X-0.135000X0.185000X0.135000X-0.185000X0.135000X-0.185000X-0.135000X0*%
%TD*%
%TA.AperFunction,SMDPad,CuDef*%
%ADD17RoundRect,0.140000X0.170000X-0.140000X0.170000X0.140000X-0.170000X0.140000X-0.170000X-0.140000X0*%
%TD*%
%TA.AperFunction,ComponentPad*%
%ADD18C,3.200000*%
%TD*%
%TA.AperFunction,ComponentPad*%
%ADD19C,4.000000*%
%TD*%
%TA.AperFunction,SMDPad,CuDef*%
%ADD20R,1.600200X1.168400*%
%TD*%
%TA.AperFunction,SMDPad,CuDef*%
%ADD21R,1.100000X0.400000*%
%TD*%
%TA.AperFunction,SMDPad,CuDef*%
%ADD22RoundRect,0.140000X-0.140000X-0.170000X0.140000X-0.170000X0.140000X0.170000X-0.140000X0.170000X0*%
%TD*%
%TA.AperFunction,ComponentPad*%
%ADD23C,1.574800*%
%TD*%
%TA.AperFunction,SMDPad,CuDef*%
%ADD24C,1.000000*%
%TD*%
%TA.AperFunction,SMDPad,CuDef*%
%ADD25RoundRect,0.150000X0.587500X0.150000X-0.587500X0.150000X-0.587500X-0.150000X0.587500X-0.150000X0*%
%TD*%
%TA.AperFunction,ComponentPad*%
%ADD26C,0.800000*%
%TD*%
%TA.AperFunction,SMDPad,CuDef*%
%ADD27RoundRect,0.262500X-0.562500X-0.262500X0.562500X-0.262500X0.562500X0.262500X-0.562500X0.262500X0*%
%TD*%
%TA.AperFunction,SMDPad,CuDef*%
%ADD28RoundRect,0.135000X0.135000X0.185000X-0.135000X0.185000X-0.135000X-0.185000X0.135000X-0.185000X0*%
%TD*%
%TA.AperFunction,SMDPad,CuDef*%
%ADD29RoundRect,0.250000X0.550000X-1.500000X0.550000X1.500000X-0.550000X1.500000X-0.550000X-1.500000X0*%
%TD*%
%TA.AperFunction,SMDPad,CuDef*%
%ADD30RoundRect,0.135000X-0.185000X0.135000X-0.185000X-0.135000X0.185000X-0.135000X0.185000X0.135000X0*%
%TD*%
%TA.AperFunction,SMDPad,CuDef*%
%ADD31R,0.450000X0.700000*%
%TD*%
%TA.AperFunction,SMDPad,CuDef*%
%ADD32RoundRect,0.140000X-0.170000X0.140000X-0.170000X-0.140000X0.170000X-0.140000X0.170000X0.140000X0*%
%TD*%
%TA.AperFunction,SMDPad,CuDef*%
%ADD33R,0.711200X0.228600*%
%TD*%
%TA.AperFunction,ComponentPad*%
%ADD34R,1.700000X1.700000*%
%TD*%
%TA.AperFunction,ComponentPad*%
%ADD35O,1.700000X1.700000*%
%TD*%
%TA.AperFunction,SMDPad,CuDef*%
%ADD36R,1.500000X0.900000*%
%TD*%
%TA.AperFunction,SMDPad,CuDef*%
%ADD37R,0.900000X1.500000*%
%TD*%
%TA.AperFunction,SMDPad,CuDef*%
%ADD38R,0.900000X0.900000*%
%TD*%
%TA.AperFunction,SMDPad,CuDef*%
%ADD39RoundRect,0.150000X-0.150000X-0.700000X0.150000X-0.700000X0.150000X0.700000X-0.150000X0.700000X0*%
%TD*%
%TA.AperFunction,SMDPad,CuDef*%
%ADD40RoundRect,0.250000X-0.250000X-1.150000X0.250000X-1.150000X0.250000X1.150000X-0.250000X1.150000X0*%
%TD*%
%TA.AperFunction,SMDPad,CuDef*%
%ADD41R,0.600000X1.060000*%
%TD*%
%TA.AperFunction,SMDPad,CuDef*%
%ADD42R,0.300000X1.150000*%
%TD*%
%TA.AperFunction,ComponentPad*%
%ADD43O,1.000000X2.100000*%
%TD*%
%TA.AperFunction,ComponentPad*%
%ADD44O,1.000000X1.800000*%
%TD*%
%TA.AperFunction,SMDPad,CuDef*%
%ADD45RoundRect,0.250000X0.650000X-1.000000X0.650000X1.000000X-0.650000X1.000000X-0.650000X-1.000000X0*%
%TD*%
%TA.AperFunction,ComponentPad*%
%ADD46C,0.400000*%
%TD*%
%TA.AperFunction,ViaPad*%
%ADD47C,1.000000*%
%TD*%
%TA.AperFunction,ViaPad*%
%ADD48C,0.800000*%
%TD*%
%TA.AperFunction,ViaPad*%
%ADD49C,1.300000*%
%TD*%
%TA.AperFunction,Conductor*%
%ADD50C,0.200000*%
%TD*%
%TA.AperFunction,Conductor*%
%ADD51C,0.400000*%
%TD*%
%TA.AperFunction,Conductor*%
%ADD52C,0.300000*%
%TD*%
%TA.AperFunction,Conductor*%
%ADD53C,1.000000*%
%TD*%
%TA.AperFunction,Conductor*%
%ADD54C,0.254000*%
%TD*%
G04 APERTURE END LIST*
D10*
%TO.P,U19,1,VDD3_0*%
%TO.N,Net-(U19-VDD3_0)*%
X110916000Y-128263000D03*
%TO.P,U19,2,VDD2_0*%
%TO.N,Net-(U19-VDD2_0)*%
X110916000Y-127761000D03*
%TO.P,U19,3,VDD1_0*%
%TO.N,Net-(U19-VDD1_0)*%
X110916000Y-127259000D03*
%TO.P,U19,4,VSS*%
%TO.N,/BM1366-1/VDD1*%
X110916000Y-126757000D03*
%TO.P,U19,5,CO*%
%TO.N,Net-(U19-CO)*%
X110916000Y-126255000D03*
%TO.P,U19,6,CLKO*%
%TO.N,Net-(U19-CLKO)*%
X110916000Y-125753000D03*
%TO.P,U19,7,RI*%
%TO.N,/BM1366-2/RI*%
X110916000Y-125251000D03*
%TO.P,U19,8,BO*%
%TO.N,Net-(U19-BO)*%
X110916000Y-124749000D03*
%TO.P,U19,9,NRSTO*%
%TO.N,Net-(U19-NRSTO)*%
X110916000Y-124247000D03*
%TO.P,U19,10,ADDR0*%
%TO.N,Net-(U19-ADDR0)*%
X110916000Y-123745000D03*
%TO.P,U19,11,ADDR1*%
%TO.N,Net-(U19-ADDR1)*%
X110916000Y-123243000D03*
%TO.P,U19,12,PLL_VSS*%
%TO.N,/BM1366-1/VDD1*%
X110916000Y-122741000D03*
%TO.P,U19,13,VDDIO_08_0*%
%TO.N,/BM1366-2/0V8*%
X110916000Y-122239000D03*
%TO.P,U19,14,VDDIO_18_0*%
%TO.N,/BM1366-2/1V2*%
X110916000Y-121737000D03*
%TO.P,U19,15,VDDIO_18_1*%
X105084000Y-121750000D03*
%TO.P,U19,16,VDDIO_08_1*%
%TO.N,/BM1366-2/0V8*%
X105084000Y-122250000D03*
%TO.P,U19,17,VSS*%
%TO.N,/BM1366-1/VDD1*%
X105084000Y-122750000D03*
%TO.P,U19,18,PIN_MODE*%
X105084000Y-123250000D03*
%TO.P,U19,19,INV_CLKO*%
%TO.N,Net-(U19-INV_CLKO)*%
X105084000Y-123750000D03*
%TO.P,U19,20,NRSTI*%
%TO.N,Net-(U19-NRSTI)*%
X105084000Y-124247000D03*
%TO.P,U19,21,BI*%
%TO.N,Net-(U19-BI)*%
X105084000Y-124750000D03*
%TO.P,U19,22,RO*%
%TO.N,Net-(U19-RO)*%
X105084000Y-125251000D03*
%TO.P,U19,23,CLKI*%
%TO.N,Net-(U19-CLKI)*%
X105084000Y-125753000D03*
%TO.P,U19,24,CI*%
%TO.N,Net-(U19-CI)*%
X105084000Y-126255000D03*
%TO.P,U19,25,VSS*%
%TO.N,/BM1366-1/VDD1*%
X105084000Y-126757000D03*
%TO.P,U19,26,VDD1_1*%
%TO.N,Net-(U19-VDD1_1)*%
X105084000Y-127250000D03*
%TO.P,U19,27,VDD2_1*%
%TO.N,Net-(U19-VDD2_1)*%
X105084000Y-127761000D03*
%TO.P,U19,28,VDD3_1*%
%TO.N,Net-(U19-VDD3_1)*%
X105084000Y-128250000D03*
D11*
%TO.P,U19,29,VDD*%
%TO.N,/BM1366-2/VDD2*%
X108000000Y-127468000D03*
D12*
%TO.P,U19,30,VSS*%
%TO.N,/BM1366-1/VDD1*%
X108000000Y-123892000D03*
%TD*%
D13*
%TO.P,U3,1,IN+*%
%TO.N,Net-(U3-IN+)*%
X80005000Y-59925000D03*
%TO.P,U3,2,IN-*%
%TO.N,Net-(U3-IN-)*%
X78735000Y-59925000D03*
%TO.P,U3,3,GND*%
%TO.N,GND*%
X77465000Y-59925000D03*
%TO.P,U3,4,VS*%
%TO.N,/3V3*%
X76195000Y-59925000D03*
%TO.P,U3,5,SCL*%
%TO.N,/SCL*%
X76195000Y-64875000D03*
%TO.P,U3,6,SDA*%
%TO.N,/SDA*%
X77465000Y-64875000D03*
%TO.P,U3,7,A0*%
%TO.N,GND*%
X78735000Y-64875000D03*
%TO.P,U3,8,A1*%
X80005000Y-64875000D03*
%TD*%
D14*
%TO.P,J3,1,Pin_1*%
%TO.N,/ESP32/EN*%
X129265000Y-58630000D03*
%TO.P,J3,2,Pin_2*%
%TO.N,/3V3*%
X130535000Y-58630000D03*
%TO.P,J3,3,Pin_3*%
%TO.N,/ESP32/P_TX*%
X129265000Y-59900000D03*
%TO.P,J3,4,Pin_4*%
%TO.N,GND*%
X130535000Y-59900000D03*
%TO.P,J3,5,Pin_5*%
%TO.N,/ESP32/P_RX*%
X129265000Y-61170000D03*
%TO.P,J3,6,Pin_6*%
%TO.N,/ESP32/IO0*%
X130535000Y-61170000D03*
%TD*%
D15*
%TO.P,C37,1*%
%TO.N,/5V*%
X125380000Y-78100000D03*
%TO.P,C37,2*%
%TO.N,GND*%
X124420000Y-78100000D03*
%TD*%
D10*
%TO.P,U22,1,VDD3_0*%
%TO.N,Net-(U19-VDD3_1)*%
X80916000Y-128263000D03*
%TO.P,U22,2,VDD2_0*%
%TO.N,Net-(U19-VDD2_1)*%
X80916000Y-127761000D03*
%TO.P,U22,3,VDD1_0*%
%TO.N,Net-(U19-VDD1_1)*%
X80916000Y-127259000D03*
%TO.P,U22,4,VSS*%
%TO.N,/BM1366-1/VDD1*%
X80916000Y-126757000D03*
%TO.P,U22,5,CO*%
%TO.N,Net-(U22-CO)*%
X80916000Y-126255000D03*
%TO.P,U22,6,CLKO*%
%TO.N,Net-(U22-CLKO)*%
X80916000Y-125753000D03*
%TO.P,U22,7,RI*%
%TO.N,Net-(U22-RI)*%
X80916000Y-125251000D03*
%TO.P,U22,8,BO*%
%TO.N,Net-(U22-BO)*%
X80916000Y-124749000D03*
%TO.P,U22,9,NRSTO*%
%TO.N,Net-(U22-NRSTO)*%
X80916000Y-124247000D03*
%TO.P,U22,10,ADDR0*%
%TO.N,Net-(U22-ADDR0)*%
X80916000Y-123745000D03*
%TO.P,U22,11,ADDR1*%
%TO.N,Net-(U22-ADDR1)*%
X80916000Y-123243000D03*
%TO.P,U22,12,PLL_VSS*%
%TO.N,/BM1366-1/VDD1*%
X80916000Y-122741000D03*
%TO.P,U22,13,VDDIO_08_0*%
%TO.N,/BM1366-2/0V8*%
X80916000Y-122239000D03*
%TO.P,U22,14,VDDIO_18_0*%
%TO.N,/BM1366-2/1V2*%
X80916000Y-121737000D03*
%TO.P,U22,15,VDDIO_18_1*%
X75084000Y-121750000D03*
%TO.P,U22,16,VDDIO_08_1*%
%TO.N,/BM1366-2/0V8*%
X75084000Y-122250000D03*
%TO.P,U22,17,VSS*%
%TO.N,/BM1366-1/VDD1*%
X75084000Y-122750000D03*
%TO.P,U22,18,PIN_MODE*%
X75084000Y-123250000D03*
%TO.P,U22,19,INV_CLKO*%
%TO.N,Net-(U22-INV_CLKO)*%
X75084000Y-123750000D03*
%TO.P,U22,20,NRSTI*%
%TO.N,/BM1366-2/NRSTI2*%
X75084000Y-124247000D03*
%TO.P,U22,21,BI*%
%TO.N,/BM1366-2/BI2*%
X75084000Y-124750000D03*
%TO.P,U22,22,RO*%
%TO.N,Net-(U22-RO)*%
X75084000Y-125251000D03*
%TO.P,U22,23,CLKI*%
%TO.N,/BM1366-2/CLKI1*%
X75084000Y-125753000D03*
%TO.P,U22,24,CI*%
%TO.N,/BM1366-2/CI2*%
X75084000Y-126255000D03*
%TO.P,U22,25,VSS*%
%TO.N,/BM1366-1/VDD1*%
X75084000Y-126757000D03*
%TO.P,U22,26,VDD1_1*%
%TO.N,Net-(U22-VDD1_1)*%
X75084000Y-127250000D03*
%TO.P,U22,27,VDD2_1*%
%TO.N,Net-(U22-VDD2_1)*%
X75084000Y-127761000D03*
%TO.P,U22,28,VDD3_1*%
%TO.N,Net-(U22-VDD3_1)*%
X75084000Y-128250000D03*
D11*
%TO.P,U22,29,VDD*%
%TO.N,/BM1366-2/VDD2*%
X78000000Y-127468000D03*
D12*
%TO.P,U22,30,VSS*%
%TO.N,/BM1366-1/VDD1*%
X78000000Y-123892000D03*
%TD*%
D16*
%TO.P,R13,1*%
%TO.N,/3V3*%
X84120000Y-52850000D03*
%TO.P,R13,2*%
%TO.N,/ESP32/EN*%
X84120000Y-51830000D03*
%TD*%
D17*
%TO.P,C32,1*%
%TO.N,/3V3*%
X86180000Y-52820000D03*
%TO.P,C32,2*%
%TO.N,GND*%
X86180000Y-51860000D03*
%TD*%
D18*
%TO.P,J2,1,Pin_1*%
%TO.N,GND*%
X62900000Y-56586000D03*
X62900000Y-49586000D03*
X57900000Y-56586000D03*
X57900000Y-49586000D03*
%TD*%
D19*
%TO.P,H1,*%
%TO.N,*%
X52970000Y-49020000D03*
%TD*%
D18*
%TO.P,J1,1,Pin_1*%
%TO.N,/Power/VIN*%
X74128000Y-56586000D03*
X74128000Y-49586000D03*
X69128000Y-56586000D03*
X69128000Y-49586000D03*
%TD*%
D20*
%TO.P,Y1,1,1*%
%TO.N,/ESP32/XIN32*%
X101300000Y-56777600D03*
%TO.P,Y1,2,2*%
%TO.N,/ESP32/XOUT32*%
X101300000Y-59622400D03*
%TD*%
D21*
%TO.P,U6,1,SDA*%
%TO.N,/SDA*%
X60150000Y-62975000D03*
%TO.P,U6,2,SCL*%
%TO.N,/SCL*%
X60150000Y-62325000D03*
%TO.P,U6,3,FS1*%
%TO.N,Net-(U6-FS1)*%
X60150000Y-61675000D03*
%TO.P,U6,4,GND*%
%TO.N,GND*%
X60150000Y-61025000D03*
%TO.P,U6,5,FS0*%
%TO.N,Net-(U6-FS0)*%
X55850000Y-61025000D03*
%TO.P,U6,6,OUT0*%
%TO.N,/Power/OUT0*%
X55850000Y-61675000D03*
%TO.P,U6,7,OUT1*%
%TO.N,/Power/OUT1*%
X55850000Y-62325000D03*
%TO.P,U6,8,VCC*%
%TO.N,/3V3*%
X55850000Y-62975000D03*
%TD*%
D22*
%TO.P,C28,1*%
%TO.N,/3V3*%
X82470000Y-77600000D03*
%TO.P,C28,2*%
%TO.N,GND*%
X83430000Y-77600000D03*
%TD*%
D23*
%TO.P,J6,1,Pin_1*%
%TO.N,GND*%
X119000000Y-77000000D03*
%TO.P,J6,2,Pin_2*%
%TO.N,/5V*%
X119000000Y-74460000D03*
%TO.P,J6,3,Pin_3*%
%TO.N,/Fan/FAN2_TACH*%
X119000000Y-71920000D03*
%TO.P,J6,4,Pin_4*%
%TO.N,/Fan/FAN2_PWM*%
X119000000Y-69380000D03*
%TD*%
D16*
%TO.P,R21,1*%
%TO.N,/Fan/FAN2_TACH*%
X123700000Y-68610000D03*
%TO.P,R21,2*%
%TO.N,/3V3*%
X123700000Y-67590000D03*
%TD*%
D19*
%TO.P,H4,*%
%TO.N,*%
X131500000Y-172000000D03*
%TD*%
D24*
%TO.P,FID3,*%
%TO.N,*%
X52970000Y-52800000D03*
%TD*%
D25*
%TO.P,Q5,1,G*%
%TO.N,Net-(Q5-G)*%
X88000000Y-63350000D03*
%TO.P,Q5,2,S*%
%TO.N,GND*%
X88000000Y-61450000D03*
%TO.P,Q5,3,D*%
%TO.N,Net-(J8-Pin_2)*%
X86125000Y-62400000D03*
%TD*%
D15*
%TO.P,C4,1*%
%TO.N,Net-(U3-IN+)*%
X79880000Y-58000000D03*
%TO.P,C4,2*%
%TO.N,Net-(U3-IN-)*%
X78920000Y-58000000D03*
%TD*%
D26*
%TO.P,SW2,1*%
%TO.N,GND*%
X124175000Y-46700000D03*
D27*
X124275000Y-46775000D03*
X128125000Y-46775000D03*
D26*
X128225000Y-46700000D03*
D27*
%TO.P,SW2,2*%
%TO.N,/ESP32/IO0*%
X124275000Y-48225000D03*
X128125000Y-48225000D03*
%TD*%
D15*
%TO.P,C29,1*%
%TO.N,/ESP32/XIN32*%
X99380000Y-56800000D03*
%TO.P,C29,2*%
%TO.N,GND*%
X98420000Y-56800000D03*
%TD*%
D10*
%TO.P,U27,1,VDD1_0*%
%TO.N,Net-(U24-VDD1_1)*%
X80916000Y-156263000D03*
%TO.P,U27,2,VDD2_0*%
%TO.N,Net-(U24-VDD2_1)*%
X80916000Y-155761000D03*
%TO.P,U27,3,VDD3_0*%
%TO.N,Net-(U24-VDD3_1)*%
X80916000Y-155259000D03*
%TO.P,U27,4,VSS*%
%TO.N,/BM1366-2/VDD2*%
X80916000Y-154757000D03*
%TO.P,U27,5,NRSTI*%
%TO.N,Net-(U24-NRSTO)*%
X80916000Y-154255000D03*
%TO.P,U27,6,BI*%
%TO.N,Net-(U27-BI)*%
X80916000Y-153753000D03*
%TO.P,U27,7,RO*%
%TO.N,Net-(U27-RO)*%
X80916000Y-153251000D03*
%TO.P,U27,8,CLKI*%
%TO.N,Net-(U27-CLKI)*%
X80916000Y-152749000D03*
%TO.P,U27,9,CI*%
%TO.N,Net-(U27-CI)*%
X80916000Y-152247000D03*
%TO.P,U27,10,ADDR0*%
%TO.N,Net-(U27-ADDR0)*%
X80916000Y-151745000D03*
%TO.P,U27,11,ADDR1*%
%TO.N,Net-(U27-ADDR1)*%
X80916000Y-151243000D03*
%TO.P,U27,12,PLL_VSS*%
%TO.N,/BM1366-2/VDD2*%
X80916000Y-150741000D03*
%TO.P,U27,13,VDDIO_08_0*%
%TO.N,/BM1366-3/0V8*%
X80916000Y-150239000D03*
%TO.P,U27,14,VDDIO_18_0*%
%TO.N,/BM1366-3/1V2*%
X80916000Y-149737000D03*
%TO.P,U27,15,VDDIO_18_1*%
X75084000Y-149750000D03*
%TO.P,U27,16,VDDIO_08_1*%
%TO.N,/BM1366-3/0V8*%
X75084000Y-150250000D03*
%TO.P,U27,17,VSS*%
%TO.N,/BM1366-2/VDD2*%
X75084000Y-150750000D03*
%TO.P,U27,18,PIN_MODE*%
%TO.N,unconnected-(U27-PIN_MODE-Pad18)*%
X75084000Y-151250000D03*
%TO.P,U27,19,INV_CLKO*%
%TO.N,Net-(U27-INV_CLKO)*%
X75084000Y-151750000D03*
%TO.P,U27,20,CO*%
%TO.N,/BM1366-3/CO3*%
X75084000Y-152247000D03*
%TO.P,U27,21,CLKO*%
%TO.N,/BM1366-3/CLKO3*%
X75084000Y-152750000D03*
%TO.P,U27,22,RI*%
%TO.N,/BM1366-3/RI3*%
X75084000Y-153251000D03*
%TO.P,U27,23,BO*%
%TO.N,/BM1366-3/BO3*%
X75084000Y-153753000D03*
%TO.P,U27,24,NRSTO*%
%TO.N,/BM1366-3/NRSTO3*%
X75084000Y-154255000D03*
%TO.P,U27,25,VSS*%
%TO.N,/BM1366-2/VDD2*%
X75084000Y-154757000D03*
%TO.P,U27,26,VDD3_1*%
%TO.N,Net-(U27-VDD3_1)*%
X75084000Y-155250000D03*
%TO.P,U27,27,VDD2_1*%
%TO.N,Net-(U27-VDD2_1)*%
X75084000Y-155761000D03*
%TO.P,U27,28,VDD1_1*%
%TO.N,Net-(U27-VDD1_1)*%
X75084000Y-156250000D03*
D11*
%TO.P,U27,29,VDD*%
%TO.N,/VDD*%
X78000000Y-155468000D03*
D12*
%TO.P,U27,30,VSS*%
%TO.N,/BM1366-2/VDD2*%
X78000000Y-151892000D03*
%TD*%
D28*
%TO.P,R16,1*%
%TO.N,GND*%
X88810000Y-65100000D03*
%TO.P,R16,2*%
%TO.N,/ESP32/TFT_BLK*%
X87790000Y-65100000D03*
%TD*%
D23*
%TO.P,J5,1,Pin_1*%
%TO.N,GND*%
X102000000Y-77000000D03*
%TO.P,J5,2,Pin_2*%
%TO.N,/5V*%
X102000000Y-74460000D03*
%TO.P,J5,3,Pin_3*%
%TO.N,/Fan/FAN1_TACH*%
X102000000Y-71920000D03*
%TO.P,J5,4,Pin_4*%
%TO.N,/Fan/FAN1_PWM*%
X102000000Y-69380000D03*
%TD*%
D29*
%TO.P,C34,1*%
%TO.N,/5V*%
X111200000Y-75500000D03*
%TO.P,C34,2*%
%TO.N,GND*%
X111200000Y-70100000D03*
%TD*%
D26*
%TO.P,SW1,1*%
%TO.N,GND*%
X84075000Y-46700000D03*
D27*
X84175000Y-46775000D03*
X88025000Y-46775000D03*
D26*
X88125000Y-46700000D03*
D27*
%TO.P,SW1,2*%
%TO.N,/ESP32/EN*%
X84175000Y-48225000D03*
X88025000Y-48225000D03*
%TD*%
D17*
%TO.P,C33,1*%
%TO.N,/3V3*%
X89400000Y-173180000D03*
%TO.P,C33,2*%
%TO.N,GND*%
X89400000Y-172220000D03*
%TD*%
D19*
%TO.P,H8,*%
%TO.N,*%
X122500000Y-125000000D03*
%TD*%
D10*
%TO.P,U24,1,VDD1_0*%
%TO.N,Net-(U24-VDD1_0)*%
X110916000Y-156263000D03*
%TO.P,U24,2,VDD2_0*%
%TO.N,Net-(U24-VDD2_0)*%
X110916000Y-155761000D03*
%TO.P,U24,3,VDD3_0*%
%TO.N,Net-(U24-VDD3_0)*%
X110916000Y-155259000D03*
%TO.P,U24,4,VSS*%
%TO.N,/BM1366-2/VDD2*%
X110916000Y-154757000D03*
%TO.P,U24,5,NRSTI*%
%TO.N,/BM1366-3/NRSTI3*%
X110916000Y-154255000D03*
%TO.P,U24,6,BI*%
%TO.N,/BM1366-3/BI3*%
X110916000Y-153753000D03*
%TO.P,U24,7,RO*%
%TO.N,Net-(U24-RO)*%
X110916000Y-153251000D03*
%TO.P,U24,8,CLKI*%
%TO.N,/BM1366-3/CLKI1*%
X110916000Y-152749000D03*
%TO.P,U24,9,CI*%
%TO.N,/BM1366-3/CI3*%
X110916000Y-152247000D03*
%TO.P,U24,10,ADDR0*%
%TO.N,Net-(U24-ADDR0)*%
X110916000Y-151745000D03*
%TO.P,U24,11,ADDR1*%
%TO.N,Net-(U24-ADDR1)*%
X110916000Y-151243000D03*
%TO.P,U24,12,PLL_VSS*%
%TO.N,/BM1366-2/VDD2*%
X110916000Y-150741000D03*
%TO.P,U24,13,VDDIO_08_0*%
%TO.N,/BM1366-3/0V8*%
X110916000Y-150239000D03*
%TO.P,U24,14,VDDIO_18_0*%
%TO.N,/BM1366-3/1V2*%
X110916000Y-149737000D03*
%TO.P,U24,15,VDDIO_18_1*%
X105084000Y-149750000D03*
%TO.P,U24,16,VDDIO_08_1*%
%TO.N,/BM1366-3/0V8*%
X105084000Y-150250000D03*
%TO.P,U24,17,VSS*%
%TO.N,/BM1366-2/VDD2*%
X105084000Y-150750000D03*
%TO.P,U24,18,PIN_MODE*%
%TO.N,unconnected-(U24-PIN_MODE-Pad18)*%
X105084000Y-151250000D03*
%TO.P,U24,19,INV_CLKO*%
%TO.N,Net-(U24-INV_CLKO)*%
X105084000Y-151750000D03*
%TO.P,U24,20,CO*%
%TO.N,Net-(U24-CO)*%
X105084000Y-152247000D03*
%TO.P,U24,21,CLKO*%
%TO.N,Net-(U24-CLKO)*%
X105084000Y-152750000D03*
%TO.P,U24,22,RI*%
%TO.N,Net-(U24-RI)*%
X105084000Y-153251000D03*
%TO.P,U24,23,BO*%
%TO.N,Net-(U24-BO)*%
X105084000Y-153753000D03*
%TO.P,U24,24,NRSTO*%
%TO.N,Net-(U24-NRSTO)*%
X105084000Y-154255000D03*
%TO.P,U24,25,VSS*%
%TO.N,/BM1366-2/VDD2*%
X105084000Y-154757000D03*
%TO.P,U24,26,VDD3_1*%
%TO.N,Net-(U24-VDD3_1)*%
X105084000Y-155250000D03*
%TO.P,U24,27,VDD2_1*%
%TO.N,Net-(U24-VDD2_1)*%
X105084000Y-155761000D03*
%TO.P,U24,28,VDD1_1*%
%TO.N,Net-(U24-VDD1_1)*%
X105084000Y-156250000D03*
D11*
%TO.P,U24,29,VDD*%
%TO.N,/VDD*%
X108000000Y-155468000D03*
D12*
%TO.P,U24,30,VSS*%
%TO.N,/BM1366-2/VDD2*%
X108000000Y-151892000D03*
%TD*%
D22*
%TO.P,C18,1*%
%TO.N,/3V3*%
X56520000Y-64800000D03*
%TO.P,C18,2*%
%TO.N,GND*%
X57480000Y-64800000D03*
%TD*%
D30*
%TO.P,R3,1*%
%TO.N,/Power/VIN_M*%
X77900000Y-55590000D03*
%TO.P,R3,2*%
%TO.N,Net-(U3-IN-)*%
X77900000Y-56610000D03*
%TD*%
D31*
%TO.P,Q6,1,G*%
%TO.N,/ESP32/PWR_EN*%
X58320000Y-69320000D03*
%TO.P,Q6,2,S*%
%TO.N,GND*%
X57020000Y-69320000D03*
%TO.P,Q6,3,D*%
%TO.N,Net-(Q6-D)*%
X57670000Y-71320000D03*
%TD*%
D19*
%TO.P,H7,*%
%TO.N,*%
X62000000Y-125000000D03*
%TD*%
D24*
%TO.P,FID1,*%
%TO.N,*%
X131410000Y-52800000D03*
%TD*%
%TO.P,TP6,1,1*%
%TO.N,/Power/OUT0*%
X53600000Y-61600000D03*
%TD*%
%TO.P,TP7,1,1*%
%TO.N,/Power/OUT1*%
X53800000Y-65000000D03*
%TD*%
D15*
%TO.P,C30,1*%
%TO.N,/ESP32/XOUT32*%
X99380000Y-59600000D03*
%TO.P,C30,2*%
%TO.N,GND*%
X98420000Y-59600000D03*
%TD*%
D16*
%TO.P,R15,1*%
%TO.N,/ESP32/TFT_BLK*%
X85500000Y-65710000D03*
%TO.P,R15,2*%
%TO.N,Net-(Q5-G)*%
X85500000Y-64690000D03*
%TD*%
D28*
%TO.P,R11,1*%
%TO.N,Net-(U6-FS0)*%
X56710000Y-59600000D03*
%TO.P,R11,2*%
%TO.N,GND*%
X55690000Y-59600000D03*
%TD*%
D24*
%TO.P,FID7,*%
%TO.N,*%
X53100000Y-166200000D03*
%TD*%
D32*
%TO.P,C11,1*%
%TO.N,/3V3*%
X73800000Y-59720000D03*
%TO.P,C11,2*%
%TO.N,GND*%
X73800000Y-60680000D03*
%TD*%
D33*
%TO.P,U10,1,SCL*%
%TO.N,/SCL*%
X87500100Y-55699999D03*
%TO.P,U10,2,GND*%
%TO.N,GND*%
X87500100Y-55200000D03*
%TO.P,U10,3,ALERT*%
%TO.N,unconnected-(U10-ALERT-Pad3)*%
X87500100Y-54700001D03*
%TO.P,U10,4,A0*%
%TO.N,/SDA*%
X85899900Y-54700001D03*
%TO.P,U10,5,V+*%
%TO.N,/3V3*%
X85899900Y-55200000D03*
%TO.P,U10,6,SDA*%
%TO.N,/SDA*%
X85899900Y-55699999D03*
%TD*%
D19*
%TO.P,H10,*%
%TO.N,*%
X122500000Y-153000000D03*
%TD*%
D15*
%TO.P,C36,1*%
%TO.N,/5V*%
X107880000Y-78100000D03*
%TO.P,C36,2*%
%TO.N,GND*%
X106920000Y-78100000D03*
%TD*%
D10*
%TO.P,U16,1,VDD1_0*%
%TO.N,Net-(U13-VDD1_1)*%
X80916000Y-100263000D03*
%TO.P,U16,2,VDD2_0*%
%TO.N,Net-(U13-VDD2_1)*%
X80916000Y-99761000D03*
%TO.P,U16,3,VDD3_0*%
%TO.N,Net-(U13-VDD3_1)*%
X80916000Y-99259000D03*
%TO.P,U16,4,VSS*%
%TO.N,GND*%
X80916000Y-98757000D03*
%TO.P,U16,5,NRSTI*%
%TO.N,Net-(U13-NRSTO)*%
X80916000Y-98255000D03*
%TO.P,U16,6,BI*%
%TO.N,Net-(U16-BI)*%
X80916000Y-97753000D03*
%TO.P,U16,7,RO*%
%TO.N,Net-(U16-RO)*%
X80916000Y-97251000D03*
%TO.P,U16,8,CLKI*%
%TO.N,Net-(U16-CLKI)*%
X80916000Y-96749000D03*
%TO.P,U16,9,CI*%
%TO.N,Net-(U16-CI)*%
X80916000Y-96247000D03*
%TO.P,U16,10,ADDR0*%
%TO.N,Net-(U16-ADDR0)*%
X80916000Y-95745000D03*
%TO.P,U16,11,ADDR1*%
%TO.N,Net-(U16-ADDR1)*%
X80916000Y-95243000D03*
%TO.P,U16,12,PLL_VSS*%
%TO.N,GND*%
X80916000Y-94741000D03*
%TO.P,U16,13,VDDIO_08_0*%
%TO.N,/BM1366-1/0V8*%
X80916000Y-94239000D03*
%TO.P,U16,14,VDDIO_18_0*%
%TO.N,/BM1366-1/1V2*%
X80916000Y-93737000D03*
%TO.P,U16,15,VDDIO_18_1*%
X75084000Y-93750000D03*
%TO.P,U16,16,VDDIO_08_1*%
%TO.N,/BM1366-1/0V8*%
X75084000Y-94250000D03*
%TO.P,U16,17,VSS*%
%TO.N,GND*%
X75084000Y-94750000D03*
%TO.P,U16,18,PIN_MODE*%
%TO.N,unconnected-(U16-PIN_MODE-Pad18)*%
X75084000Y-95250000D03*
%TO.P,U16,19,INV_CLKO*%
%TO.N,Net-(U16-INV_CLKO)*%
X75084000Y-95750000D03*
%TO.P,U16,20,CO*%
%TO.N,Net-(U16-CO)*%
X75084000Y-96247000D03*
%TO.P,U16,21,CLKO*%
%TO.N,Net-(U16-CLKO)*%
X75084000Y-96750000D03*
%TO.P,U16,22,RI*%
%TO.N,/BM1366-1/RI*%
X75084000Y-97251000D03*
%TO.P,U16,23,BO*%
%TO.N,Net-(U16-BO)*%
X75084000Y-97753000D03*
%TO.P,U16,24,NRSTO*%
%TO.N,Net-(U16-NRSTO)*%
X75084000Y-98255000D03*
%TO.P,U16,25,VSS*%
%TO.N,GND*%
X75084000Y-98757000D03*
%TO.P,U16,26,VDD3_1*%
%TO.N,Net-(U16-VDD3_1)*%
X75084000Y-99250000D03*
%TO.P,U16,27,VDD2_1*%
%TO.N,Net-(U16-VDD2_1)*%
X75084000Y-99761000D03*
%TO.P,U16,28,VDD1_1*%
%TO.N,Net-(U16-VDD1_1)*%
X75084000Y-100250000D03*
D11*
%TO.P,U16,29,VDD*%
%TO.N,/BM1366-1/VDD1*%
X78000000Y-99468000D03*
D12*
%TO.P,U16,30,VSS*%
%TO.N,GND*%
X78000000Y-95892000D03*
%TD*%
D19*
%TO.P,H6,*%
%TO.N,*%
X122500000Y-97000000D03*
%TD*%
%TO.P,H5,*%
%TO.N,*%
X62000000Y-97000000D03*
%TD*%
D34*
%TO.P,J7,1,Pin_1*%
%TO.N,GND*%
X125800000Y-55200000D03*
D35*
%TO.P,J7,2,Pin_2*%
%TO.N,/3V3*%
X125800000Y-57740000D03*
%TO.P,J7,3,Pin_3*%
%TO.N,/SCL*%
X125800000Y-60280000D03*
%TO.P,J7,4,Pin_4*%
%TO.N,/SDA*%
X125800000Y-62820000D03*
%TD*%
D36*
%TO.P,U9,1,GND*%
%TO.N,GND*%
X104350000Y-47780000D03*
%TO.P,U9,2,3V3*%
%TO.N,/3V3*%
X104350000Y-49050000D03*
%TO.P,U9,3,EN*%
%TO.N,/ESP32/EN*%
X104350000Y-50320000D03*
%TO.P,U9,4,GPIO4/TOUCH4/ADC1_CH3*%
%TO.N,/ESP32/TFT_RES*%
X104350000Y-51590000D03*
%TO.P,U9,5,GPIO5/TOUCH5/ADC1_CH4*%
%TO.N,/ESP32/TFT_SDA*%
X104350000Y-52860000D03*
%TO.P,U9,6,GPIO6/TOUCH6/ADC1_CH5*%
%TO.N,/ESP32/TFT_SCL*%
X104350000Y-54130000D03*
%TO.P,U9,7,GPIO7/TOUCH7/ADC1_CH6*%
%TO.N,/ESP32/TFT_CS*%
X104350000Y-55400000D03*
%TO.P,U9,8,GPIO15/U0RTS/ADC2_CH4/XTAL_32K_P*%
%TO.N,/ESP32/XIN32*%
X104350000Y-56670000D03*
%TO.P,U9,9,GPIO16/U0CTS/ADC2_CH5/XTAL_32K_NH5*%
%TO.N,/ESP32/XOUT32*%
X104350000Y-57940000D03*
%TO.P,U9,10,GPIO17/U1TXD/ADC2_CH6*%
%TO.N,/ESP32/ESP32_TX*%
X104350000Y-59210000D03*
%TO.P,U9,11,GPIO18/U1RXD/ADC2_CH7/CLK_OUT3*%
%TO.N,/ESP32/ESP32_RX*%
X104350000Y-60480000D03*
%TO.P,U9,12,GPIO8/TOUCH8/ADC1_CH7/SUBSPICS1*%
%TO.N,/ESP32/TFT_DC*%
X104350000Y-61750000D03*
%TO.P,U9,13,GPIO19/U1RTS/ADC2_CH8/CLK_OUT2/USB_D-*%
%TO.N,Net-(U9-GPIO19{slash}U1RTS{slash}ADC2_CH8{slash}CLK_OUT2{slash}USB_D-)*%
X104350000Y-63020000D03*
%TO.P,U9,14,GPIO20/U1CTS/ADC2_CH9/CLK_OUT1/USB_D+*%
%TO.N,Net-(U9-GPIO20{slash}U1CTS{slash}ADC2_CH9{slash}CLK_OUT1{slash}USB_D+)*%
X104350000Y-64290000D03*
D37*
%TO.P,U9,15,GPIO3/TOUCH3/ADC1_CH2\u002A*%
%TO.N,/3V3*%
X106115000Y-65540000D03*
%TO.P,U9,16,\u002AGPIO46*%
%TO.N,Net-(U9-\u002AGPIO46)*%
X107385000Y-65540000D03*
%TO.P,U9,17,GPIO9/TOUCH9/ADC1_CH8/FSPIHD/SUBSPIHD*%
%TO.N,/ESP32/TFT_BLK*%
X108655000Y-65540000D03*
%TO.P,U9,18,GPIO10/TOUCH10/ADC1_CH9/FSPICS0/FSPIIO4/SUBSPICS0*%
%TO.N,/ESP32/PWR_EN*%
X109925000Y-65540000D03*
%TO.P,U9,19,GPIO11/TOUCH11/ADC2_CH0/FSPID/FSPIIO5/SUBSPID*%
%TO.N,/Power/PGOOD*%
X111195000Y-65540000D03*
%TO.P,U9,20,GPIO12/TOUCH12/ADC2_CH1/FSPICLK/FSPIIO6/SUBSPICLK*%
%TO.N,Net-(U9-GPIO12{slash}TOUCH12{slash}ADC2_CH1{slash}FSPICLK{slash}FSPIIO6{slash}SUBSPICLK)*%
X112465000Y-65540000D03*
%TO.P,U9,21,GPIO13/TOUCH13/ADC2_CH2/FSPIQ/FSPIIO7/SUBSPIQ*%
%TO.N,Net-(U9-GPIO13{slash}TOUCH13{slash}ADC2_CH2{slash}FSPIQ{slash}FSPIIO7{slash}SUBSPIQ)*%
X113735000Y-65540000D03*
%TO.P,U9,22,GPIO14/TOUCH14/ADC2_CH3/FSPIWP/FSPIDQS/SUBSPIWP*%
%TO.N,Net-(U9-GPIO14{slash}TOUCH14{slash}ADC2_CH3{slash}FSPIWP{slash}FSPIDQS{slash}SUBSPIWP)*%
X115005000Y-65540000D03*
%TO.P,U9,23,GPIO21*%
%TO.N,unconnected-(U9-GPIO21-Pad23)*%
X116275000Y-65540000D03*
%TO.P,U9,24,GPIO47/SPICLK_P/SUBSPICLK_P_DIFF*%
%TO.N,/SDA*%
X117545000Y-65540000D03*
%TO.P,U9,25,GPIO48/SPICLK_N/SUBSPICLK_N_DIFF*%
%TO.N,/SCL*%
X118815000Y-65540000D03*
%TO.P,U9,26,\u002AGPIO45*%
%TO.N,unconnected-(U9-\u002AGPIO45-Pad26)*%
X120085000Y-65540000D03*
D36*
%TO.P,U9,27,GPIO0/BOOT\u002A*%
%TO.N,/ESP32/IO0*%
X121850000Y-64290000D03*
%TO.P,U9,28,SPIIO6/GPIO35/FSPID/SUBSPID*%
%TO.N,Net-(U9-SPIIO6{slash}GPIO35{slash}FSPID{slash}SUBSPID)*%
X121850000Y-63020000D03*
%TO.P,U9,29,SPIIO7/GPIO36/FSPICLK/SUBSPICLK*%
%TO.N,Net-(U9-SPIIO7{slash}GPIO36{slash}FSPICLK{slash}SUBSPICLK)*%
X121850000Y-61750000D03*
%TO.P,U9,30,SPIDQS/GPIO37/FSPIQ/SUBSPIQ*%
%TO.N,Net-(U9-SPIDQS{slash}GPIO37{slash}FSPIQ{slash}SUBSPIQ)*%
X121850000Y-60480000D03*
%TO.P,U9,31,GPIO38/FSPIWP/SUBSPIWP*%
%TO.N,Net-(U9-GPIO38{slash}FSPIWP{slash}SUBSPIWP)*%
X121850000Y-59210000D03*
%TO.P,U9,32,MTCK/GPIO39/CLK_OUT3/SUBSPICS1*%
%TO.N,Net-(U9-MTCK{slash}GPIO39{slash}CLK_OUT3{slash}SUBSPICS1)*%
X121850000Y-57940000D03*
%TO.P,U9,33,MTDO/GPIO40/CLK_OUT2*%
%TO.N,Net-(U9-MTDO{slash}GPIO40{slash}CLK_OUT2)*%
X121850000Y-56670000D03*
%TO.P,U9,34,MTDI/GPIO41/CLK_OUT1*%
%TO.N,Net-(U9-MTDI{slash}GPIO41{slash}CLK_OUT1)*%
X121850000Y-55400000D03*
%TO.P,U9,35,MTMS/GPIO42*%
%TO.N,Net-(U9-MTMS{slash}GPIO42)*%
X121850000Y-54130000D03*
%TO.P,U9,36,U0RXD/GPIO44/CLK_OUT2*%
%TO.N,/ESP32/P_RX*%
X121850000Y-52860000D03*
%TO.P,U9,37,U0TXD/GPIO43/CLK_OUT1*%
%TO.N,/ESP32/P_TX*%
X121850000Y-51590000D03*
%TO.P,U9,38,GPIO2/TOUCH2/ADC1_CH1*%
%TO.N,/VDD*%
X121850000Y-50320000D03*
%TO.P,U9,39,GPIO1/TOUCH1/ADC1_CH0*%
%TO.N,/ESP32/ASIC_RST*%
X121850000Y-49050000D03*
%TO.P,U9,40,GND*%
%TO.N,GND*%
X121850000Y-47780000D03*
D38*
%TO.P,U9,41,GND*%
X110200000Y-54100000D03*
X110200000Y-55500000D03*
X110200000Y-56900000D03*
X111600000Y-54100000D03*
X111600000Y-55500000D03*
X111600000Y-56900000D03*
X113000000Y-54100000D03*
X113000000Y-55500000D03*
X113000000Y-56900000D03*
%TD*%
D39*
%TO.P,J8,1,Pin_1*%
%TO.N,GND*%
X78725000Y-74050000D03*
%TO.P,J8,2,Pin_2*%
%TO.N,Net-(J8-Pin_2)*%
X79975000Y-74050000D03*
%TO.P,J8,3,Pin_3*%
%TO.N,/3V3*%
X81225000Y-74050000D03*
%TO.P,J8,4,Pin_4*%
X82475000Y-74050000D03*
%TO.P,J8,5,Pin_5*%
%TO.N,GND*%
X83725000Y-74050000D03*
%TO.P,J8,6,Pin_6*%
X84975000Y-74050000D03*
%TO.P,J8,7,Pin_7*%
%TO.N,/ESP32/TFT_DC*%
X86225000Y-74050000D03*
%TO.P,J8,8,Pin_8*%
%TO.N,/ESP32/TFT_CS*%
X87475000Y-74050000D03*
%TO.P,J8,9,Pin_9*%
%TO.N,/ESP32/TFT_SCL*%
X88725000Y-74050000D03*
%TO.P,J8,10,Pin_10*%
%TO.N,/ESP32/TFT_SDA*%
X89975000Y-74050000D03*
%TO.P,J8,11,Pin_11*%
%TO.N,/ESP32/TFT_RES*%
X91225000Y-74050000D03*
%TO.P,J8,12,Pin_12*%
%TO.N,GND*%
X92475000Y-74050000D03*
D40*
%TO.P,J8,MP*%
%TO.N,unconnected-(J8-PadMP)*%
X76875000Y-70700000D03*
%TO.P,J8,MP2*%
%TO.N,unconnected-(J8-PadMP2)*%
X94325000Y-70700000D03*
%TD*%
D24*
%TO.P,FID5,*%
%TO.N,*%
X131570000Y-166200000D03*
%TD*%
D33*
%TO.P,U11,1,SCL*%
%TO.N,/SCL*%
X92400100Y-173699999D03*
%TO.P,U11,2,GND*%
%TO.N,GND*%
X92400100Y-173200000D03*
%TO.P,U11,3,ALERT*%
%TO.N,unconnected-(U11-ALERT-Pad3)*%
X92400100Y-172700001D03*
%TO.P,U11,4,A0*%
%TO.N,/SCL*%
X90799900Y-172700001D03*
%TO.P,U11,5,V+*%
%TO.N,/3V3*%
X90799900Y-173200000D03*
%TO.P,U11,6,SDA*%
%TO.N,/SDA*%
X90799900Y-173699999D03*
%TD*%
D32*
%TO.P,C24,1*%
%TO.N,/ESP32/EN*%
X88040000Y-51870000D03*
%TO.P,C24,2*%
%TO.N,GND*%
X88040000Y-52830000D03*
%TD*%
D41*
%TO.P,J4,A1,GND*%
%TO.N,GND*%
X100710000Y-53420000D03*
%TO.P,J4,A4,VBUS*%
%TO.N,Net-(D1-Pad2)*%
X99910000Y-53420000D03*
D42*
%TO.P,J4,A5,CC1*%
%TO.N,Net-(J4-CC1)*%
X98760000Y-53375000D03*
%TO.P,J4,A6,D+*%
%TO.N,Net-(U9-GPIO20{slash}U1CTS{slash}ADC2_CH9{slash}CLK_OUT1{slash}USB_D+)*%
X97760000Y-53375000D03*
%TO.P,J4,A7,D-*%
%TO.N,Net-(U9-GPIO19{slash}U1RTS{slash}ADC2_CH8{slash}CLK_OUT2{slash}USB_D-)*%
X97260000Y-53375000D03*
%TO.P,J4,A8,SBU1*%
%TO.N,unconnected-(J4-SBU1-PadA8)*%
X96260000Y-53375000D03*
D41*
%TO.P,J4,A9,VBUS*%
%TO.N,Net-(D1-Pad2)*%
X95110000Y-53420000D03*
%TO.P,J4,A12,GND*%
%TO.N,GND*%
X94310000Y-53420000D03*
%TO.P,J4,B1,GND*%
X94310000Y-53420000D03*
%TO.P,J4,B4,VBUS*%
%TO.N,Net-(D1-Pad2)*%
X95110000Y-53420000D03*
D42*
%TO.P,J4,B5,CC2*%
%TO.N,Net-(J4-CC2)*%
X95760000Y-53375000D03*
%TO.P,J4,B6,D+*%
%TO.N,Net-(U9-GPIO20{slash}U1CTS{slash}ADC2_CH9{slash}CLK_OUT1{slash}USB_D+)*%
X96760000Y-53375000D03*
%TO.P,J4,B7,D-*%
%TO.N,Net-(U9-GPIO19{slash}U1RTS{slash}ADC2_CH8{slash}CLK_OUT2{slash}USB_D-)*%
X98260000Y-53375000D03*
%TO.P,J4,B8,SBU2*%
%TO.N,unconnected-(J4-SBU2-PadB8)*%
X99260000Y-53375000D03*
D41*
%TO.P,J4,B9,VBUS*%
%TO.N,Net-(D1-Pad2)*%
X99910000Y-53420000D03*
%TO.P,J4,B12,GND*%
%TO.N,GND*%
X100710000Y-53420000D03*
D43*
%TO.P,J4,S1,SHIELD*%
X101830000Y-52800000D03*
D44*
X101830000Y-48620000D03*
D43*
X93190000Y-52800000D03*
D44*
X93190000Y-48620000D03*
%TD*%
D28*
%TO.P,R12,1*%
%TO.N,Net-(U6-FS1)*%
X58910000Y-59600000D03*
%TO.P,R12,2*%
%TO.N,GND*%
X57890000Y-59600000D03*
%TD*%
D19*
%TO.P,H2,*%
%TO.N,*%
X131500000Y-49020000D03*
%TD*%
%TO.P,H3,*%
%TO.N,*%
X53000000Y-172000000D03*
%TD*%
%TO.P,H9,*%
%TO.N,*%
X62000000Y-153000000D03*
%TD*%
D29*
%TO.P,C35,1*%
%TO.N,/5V*%
X128100000Y-76000000D03*
%TO.P,C35,2*%
%TO.N,GND*%
X128100000Y-70600000D03*
%TD*%
D30*
%TO.P,R2,1*%
%TO.N,/Power/VIN*%
X81000000Y-55590000D03*
%TO.P,R2,2*%
%TO.N,Net-(U3-IN+)*%
X81000000Y-56610000D03*
%TD*%
D45*
%TO.P,D1,1*%
%TO.N,/5V*%
X93600000Y-61900000D03*
%TO.P,D1,2*%
%TO.N,Net-(D1-Pad2)*%
X93600000Y-57900000D03*
%TD*%
D16*
%TO.P,R20,1*%
%TO.N,/Fan/FAN1_TACH*%
X98200000Y-69910000D03*
%TO.P,R20,2*%
%TO.N,/3V3*%
X98200000Y-68890000D03*
%TD*%
D10*
%TO.P,U13,1,VDD1_0*%
%TO.N,Net-(U13-VDD1_0)*%
X110916000Y-100263000D03*
%TO.P,U13,2,VDD2_0*%
%TO.N,Net-(U13-VDD2_0)*%
X110916000Y-99761000D03*
%TO.P,U13,3,VDD3_0*%
%TO.N,Net-(U13-VDD3_0)*%
X110916000Y-99259000D03*
%TO.P,U13,4,VSS*%
%TO.N,GND*%
X110916000Y-98757000D03*
%TO.P,U13,5,NRSTI*%
%TO.N,/NRSTI*%
X110916000Y-98255000D03*
%TO.P,U13,6,BI*%
%TO.N,/BM1366-1/BI1*%
X110916000Y-97753000D03*
%TO.P,U13,7,RO*%
%TO.N,/RO*%
X110916000Y-97251000D03*
%TO.P,U13,8,CLKI*%
%TO.N,/BM1366-1/CLKI1*%
X110916000Y-96749000D03*
%TO.P,U13,9,CI*%
%TO.N,/CI*%
X110916000Y-96247000D03*
%TO.P,U13,10,ADDR0*%
%TO.N,Net-(U13-ADDR0)*%
X110916000Y-95745000D03*
%TO.P,U13,11,ADDR1*%
%TO.N,Net-(U13-ADDR1)*%
X110916000Y-95243000D03*
%TO.P,U13,12,PLL_VSS*%
%TO.N,GND*%
X110916000Y-94741000D03*
%TO.P,U13,13,VDDIO_08_0*%
%TO.N,/BM1366-1/0V8*%
X110916000Y-94239000D03*
%TO.P,U13,14,VDDIO_18_0*%
%TO.N,/BM1366-1/1V2*%
X110916000Y-93737000D03*
%TO.P,U13,15,VDDIO_18_1*%
X105084000Y-93750000D03*
%TO.P,U13,16,VDDIO_08_1*%
%TO.N,/BM1366-1/0V8*%
X105084000Y-94250000D03*
%TO.P,U13,17,VSS*%
%TO.N,GND*%
X105084000Y-94750000D03*
%TO.P,U13,18,PIN_MODE*%
%TO.N,unconnected-(U13-PIN_MODE-Pad18)*%
X105084000Y-95250000D03*
%TO.P,U13,19,INV_CLKO*%
%TO.N,Net-(U13-INV_CLKO)*%
X105084000Y-95750000D03*
%TO.P,U13,20,CO*%
%TO.N,Net-(U13-CO)*%
X105084000Y-96247000D03*
%TO.P,U13,21,CLKO*%
%TO.N,Net-(U13-CLKO)*%
X105084000Y-96750000D03*
%TO.P,U13,22,RI*%
%TO.N,Net-(U13-RI)*%
X105084000Y-97251000D03*
%TO.P,U13,23,BO*%
%TO.N,Net-(U13-BO)*%
X105084000Y-97753000D03*
%TO.P,U13,24,NRSTO*%
%TO.N,Net-(U13-NRSTO)*%
X105084000Y-98255000D03*
%TO.P,U13,25,VSS*%
%TO.N,GND*%
X105084000Y-98757000D03*
%TO.P,U13,26,VDD3_1*%
%TO.N,Net-(U13-VDD3_1)*%
X105084000Y-99250000D03*
%TO.P,U13,27,VDD2_1*%
%TO.N,Net-(U13-VDD2_1)*%
X105084000Y-99761000D03*
%TO.P,U13,28,VDD1_1*%
%TO.N,Net-(U13-VDD1_1)*%
X105084000Y-100250000D03*
D11*
%TO.P,U13,29,VDD*%
%TO.N,/BM1366-1/VDD1*%
X108000000Y-99468000D03*
D12*
%TO.P,U13,30,VSS*%
%TO.N,GND*%
X108000000Y-95892000D03*
%TD*%
D46*
%TO.P,U4,11,GND*%
%TO.N,GND*%
X61080000Y-69342000D03*
X61655000Y-68392000D03*
X61655000Y-70292000D03*
X62230000Y-69342000D03*
%TD*%
D47*
%TO.N,GND*%
X72000000Y-77000000D03*
D48*
X84750000Y-93250000D03*
D47*
X78000000Y-77000000D03*
X90600000Y-58800000D03*
D49*
X130000000Y-71300000D03*
D47*
X74404024Y-76995732D03*
X108700000Y-56900000D03*
X90600000Y-50200000D03*
X100700000Y-55000000D03*
X55300000Y-86300000D03*
D48*
X81000000Y-65000000D03*
D47*
X65100000Y-92700000D03*
X76800000Y-77000000D03*
X108750000Y-89250000D03*
X90600000Y-51400000D03*
X114500000Y-54100000D03*
X115100000Y-109500000D03*
X109500000Y-90250000D03*
X123700000Y-72600000D03*
X99100000Y-107300000D03*
D49*
X130000000Y-69600000D03*
D48*
X59200000Y-65200000D03*
D47*
X78000000Y-90250000D03*
D48*
X69000000Y-92750000D03*
D47*
X120000000Y-47900000D03*
X90600000Y-57600000D03*
X55300000Y-82300000D03*
X59400000Y-86300000D03*
D48*
X85500000Y-100000000D03*
D47*
X90600000Y-55200000D03*
X55300000Y-80300000D03*
X55300000Y-84300000D03*
X79500000Y-90250000D03*
X74600000Y-87900000D03*
X106500000Y-90250000D03*
D48*
X98900000Y-87100000D03*
D47*
X59400000Y-84300000D03*
X96400000Y-76000000D03*
X113600000Y-106900000D03*
D48*
X73800000Y-61900000D03*
D49*
X108900000Y-69200000D03*
D47*
X100700000Y-108800000D03*
D48*
X63450000Y-73750000D03*
D47*
X126200000Y-82200000D03*
X76500000Y-92250000D03*
X78750000Y-89250000D03*
X75600000Y-77000000D03*
X110250000Y-91250000D03*
X107250000Y-89250000D03*
X105750000Y-91250000D03*
X77250000Y-91250000D03*
X57300000Y-86300000D03*
X99100000Y-108800000D03*
D48*
X100000000Y-92500000D03*
X118800000Y-101700000D03*
X124600000Y-102000000D03*
D47*
X68400000Y-77000000D03*
X111200000Y-50900000D03*
D48*
X116750000Y-98750000D03*
X56000000Y-73600000D03*
X99000000Y-91400000D03*
D47*
X90600000Y-49000000D03*
D48*
X77465000Y-58100000D03*
D47*
X107250000Y-91250000D03*
X78750000Y-91250000D03*
X106500000Y-92250000D03*
X90600000Y-62800000D03*
X73200000Y-77000000D03*
D48*
X69000000Y-100500000D03*
D47*
X108000000Y-92250000D03*
X78000000Y-92250000D03*
X90600000Y-56400000D03*
X90600000Y-65200000D03*
X57300000Y-82300000D03*
D48*
X53600000Y-107500000D03*
D47*
X77250000Y-89250000D03*
X90600000Y-61600000D03*
X100700000Y-107300000D03*
D48*
X116250000Y-92500000D03*
X87400000Y-87800000D03*
D47*
X113600000Y-109500000D03*
X115100000Y-108200000D03*
X72100000Y-108400000D03*
X76500000Y-90250000D03*
X70700000Y-109800000D03*
X90600000Y-64000000D03*
X94000000Y-54700000D03*
X80250000Y-91250000D03*
X57300000Y-80300000D03*
X96400000Y-78400000D03*
X75750000Y-91250000D03*
D48*
X131400000Y-59300000D03*
D47*
X59400000Y-80300000D03*
D48*
X60900000Y-104400000D03*
D47*
X108000000Y-90250000D03*
X96400000Y-73600000D03*
X72100000Y-107000000D03*
D48*
X120000000Y-106700000D03*
X87000000Y-92300000D03*
D47*
X90600000Y-52600000D03*
X98400000Y-58100000D03*
X57300000Y-84300000D03*
D48*
X81700000Y-82100000D03*
D47*
X113600000Y-108200000D03*
D48*
X103200000Y-83300000D03*
D47*
X102200000Y-107300000D03*
D48*
X101750000Y-100500000D03*
D47*
X124600000Y-87200000D03*
X72100000Y-109800000D03*
X108750000Y-91250000D03*
X69600000Y-77000000D03*
X109500000Y-92250000D03*
D49*
X108900000Y-70900000D03*
D47*
X59400000Y-82300000D03*
D48*
X60200000Y-110200000D03*
D47*
X70800000Y-77000000D03*
X70700000Y-108400000D03*
X79500000Y-92250000D03*
D48*
%TO.N,/Power/VIN*%
X79000000Y-54600000D03*
D47*
%TO.N,/VDD*%
X88500000Y-81800000D03*
X108000000Y-157750000D03*
X78750000Y-158750000D03*
X108750000Y-158750000D03*
X105750000Y-158750000D03*
X109500000Y-159750000D03*
X86300000Y-80600000D03*
D48*
X63700000Y-63700000D03*
D47*
X108000000Y-159750000D03*
X93300000Y-80600000D03*
X91900000Y-80600000D03*
X76500000Y-159750000D03*
X124100000Y-146400000D03*
X107250000Y-160750000D03*
X89900000Y-81800000D03*
X78750000Y-160750000D03*
X90500000Y-80600000D03*
D48*
X124780000Y-140100000D03*
D47*
X94100000Y-81800000D03*
X78000000Y-159750000D03*
D48*
X124080000Y-131600000D03*
D47*
X109500000Y-157750000D03*
X106500000Y-159750000D03*
X76500000Y-157750000D03*
X91300000Y-81800000D03*
X106500000Y-157750000D03*
X110250000Y-158750000D03*
X108750000Y-160750000D03*
X77250000Y-160750000D03*
X87700000Y-80600000D03*
X79500000Y-159750000D03*
X75750000Y-158750000D03*
X79500000Y-157750000D03*
D48*
X123800000Y-49900000D03*
D47*
X89100000Y-80600000D03*
X78000000Y-157750000D03*
X77250000Y-158750000D03*
X107250000Y-158750000D03*
X87100000Y-81800000D03*
X92700000Y-81800000D03*
X80250000Y-158750000D03*
D48*
%TO.N,/ESP32/EN*%
X106200000Y-50400000D03*
X127500000Y-50900000D03*
X90200000Y-47000000D03*
%TO.N,/5V*%
X96200000Y-119800000D03*
X99000000Y-140000000D03*
D47*
X69400000Y-87800000D03*
D48*
X98100000Y-85000000D03*
X99400000Y-116300000D03*
X96400000Y-142600000D03*
D47*
X68200000Y-87800000D03*
D48*
X99100000Y-110800000D03*
X99900000Y-90100000D03*
X95600000Y-148800000D03*
D47*
X67000000Y-87800000D03*
D48*
X96100000Y-93900000D03*
D47*
X77300000Y-86400000D03*
X65800000Y-87800000D03*
D48*
X96300000Y-114200000D03*
X98100000Y-144900000D03*
%TO.N,/3V3*%
X97100000Y-68900000D03*
D47*
X79900000Y-81100000D03*
X93000000Y-55800000D03*
X106200000Y-49100000D03*
X78500000Y-81100000D03*
X126300000Y-69200000D03*
D48*
X130300000Y-55700000D03*
X55500000Y-64700000D03*
D47*
X83400000Y-87700000D03*
D48*
X60400000Y-58300000D03*
D47*
X125200000Y-84600000D03*
D48*
X105200000Y-84500000D03*
D47*
X79900000Y-79800000D03*
D48*
X106100000Y-67100000D03*
X58700000Y-74700000D03*
D47*
%TO.N,/Power/VIN_M*%
X64600000Y-60000000D03*
X66800000Y-79200000D03*
D48*
X79600000Y-55600000D03*
D47*
X64600000Y-61200000D03*
X65800000Y-60000000D03*
X65800000Y-61200000D03*
X65600000Y-79200000D03*
D48*
X60100000Y-72180000D03*
D47*
X68000000Y-79200000D03*
X69200000Y-79200000D03*
D48*
%TO.N,/SCL*%
X96700000Y-173200000D03*
X98800000Y-64700000D03*
X94700000Y-172700000D03*
X114100000Y-85400000D03*
X118800000Y-62900000D03*
%TO.N,/Power/OUT0*%
X60000000Y-67000000D03*
%TO.N,Net-(Q6-D)*%
X59400000Y-71410000D03*
%TO.N,Net-(U4-BOOT)*%
X65200000Y-67920000D03*
X63100000Y-66800000D03*
%TO.N,Net-(U24-INV_CLKO)*%
X99400000Y-148800000D03*
%TO.N,/ESP32/P_TX*%
X127600000Y-52300000D03*
%TO.N,/ESP32/P_RX*%
X127300000Y-53600000D03*
%TO.N,/ESP32/IO0*%
X124100000Y-64900000D03*
X131400000Y-64900000D03*
%TO.N,/Power/PGOOD*%
X111200000Y-67000000D03*
X61200000Y-72200000D03*
X98300000Y-66300000D03*
%TO.N,/SDA*%
X82100000Y-66400000D03*
X85900000Y-56800000D03*
X82089037Y-64700000D03*
X85900000Y-58300000D03*
X114100000Y-86700000D03*
X97800000Y-65400000D03*
X117600000Y-63700000D03*
%TO.N,/BM1366-1/0V8*%
X71000000Y-92000000D03*
X102000000Y-91500000D03*
X84200000Y-91300000D03*
X114000000Y-91500000D03*
%TO.N,/BM1366-1/1V2*%
X72250000Y-91000000D03*
X122500000Y-100900000D03*
X112750000Y-91500000D03*
X83000000Y-91250000D03*
X103250000Y-91750000D03*
%TO.N,Net-(U27-INV_CLKO)*%
X70700000Y-149200000D03*
%TO.N,Net-(U13-INV_CLKO)*%
X102250000Y-94000000D03*
%TO.N,/BM1366-2/0V8*%
X71750000Y-119250000D03*
X114200000Y-119700000D03*
X84250000Y-119500000D03*
X101900000Y-119900000D03*
%TO.N,/BM1366-2/1V2*%
X83000000Y-119500000D03*
X73000000Y-119500000D03*
X113000000Y-119700000D03*
X103100000Y-119800000D03*
%TO.N,Net-(U22-RO)*%
X70400000Y-123300000D03*
%TO.N,Net-(U24-RO)*%
X115400000Y-152600000D03*
%TO.N,/NRSTI*%
X116200000Y-97800000D03*
%TO.N,/RO*%
X117600000Y-96600000D03*
%TO.N,/CI*%
X119400000Y-90100000D03*
%TO.N,/BM1366-3/0V8*%
X114000000Y-147700000D03*
X72000000Y-148000000D03*
X84000000Y-147700000D03*
X101900000Y-147800000D03*
%TO.N,/BM1366-3/1V2*%
X103200000Y-147800000D03*
X73200000Y-148000000D03*
X82900000Y-147700000D03*
X112900000Y-147700000D03*
%TO.N,Net-(U16-INV_CLKO)*%
X71100000Y-93750000D03*
%TO.N,Net-(U24-VDD1_1)*%
X82300000Y-159200000D03*
X102600000Y-159400000D03*
%TO.N,Net-(U24-VDD2_1)*%
X83500000Y-159200000D03*
X101700000Y-158800000D03*
%TO.N,Net-(U19-INV_CLKO)*%
X100260000Y-121460000D03*
%TO.N,Net-(U24-VDD3_1)*%
X100700000Y-157500000D03*
X84200000Y-158300000D03*
%TO.N,Net-(U22-INV_CLKO)*%
X69690000Y-118210000D03*
%TO.N,Net-(U27-VDD1_1)*%
X72400000Y-158600000D03*
%TO.N,Net-(U27-VDD2_1)*%
X71300000Y-158600000D03*
%TO.N,Net-(U27-VDD3_1)*%
X71300000Y-157500000D03*
%TO.N,Net-(U13-ADDR0)*%
X117300000Y-94200000D03*
%TO.N,Net-(U13-ADDR1)*%
X117300000Y-93100000D03*
D47*
%TO.N,Net-(D1-Pad2)*%
X99200000Y-55000000D03*
X95900000Y-54990000D03*
D48*
%TO.N,/BM1366-1/BI1*%
X117600000Y-97800000D03*
%TO.N,Net-(Q1-G)*%
X66804999Y-66995001D03*
X73804999Y-66995001D03*
%TO.N,Net-(Q2-G)*%
X66864928Y-75535072D03*
X73664928Y-75535072D03*
%TO.N,Net-(U16-ADDR0)*%
X87750000Y-94400000D03*
%TO.N,/ESP32/TFT_BLK*%
X86700000Y-65100000D03*
X97600000Y-67200000D03*
%TO.N,Net-(U16-ADDR1)*%
X87000000Y-93600000D03*
%TO.N,Net-(U19-ADDR0)*%
X117800000Y-118700000D03*
%TO.N,Net-(U19-ADDR1)*%
X116600000Y-117600000D03*
%TO.N,Net-(U22-ADDR0)*%
X85500000Y-121600000D03*
%TO.N,Net-(U22-ADDR1)*%
X85500000Y-120600000D03*
%TO.N,Net-(U24-ADDR0)*%
X116800000Y-147600000D03*
%TO.N,Net-(U24-ADDR1)*%
X116100000Y-146600000D03*
%TO.N,Net-(U27-ADDR0)*%
X84800000Y-150700000D03*
%TO.N,Net-(U27-ADDR1)*%
X84800000Y-149600000D03*
%TO.N,/BM1366-3/NRSTO3*%
X70700000Y-155700000D03*
%TO.N,/ESP32/TFT_RES*%
X106100000Y-51600000D03*
X93300000Y-64000000D03*
%TO.N,/ESP32/TFT_SDA*%
X106100000Y-52800000D03*
X93300000Y-65100000D03*
%TO.N,/ESP32/TFT_SCL*%
X93300000Y-66200000D03*
X106100000Y-54100000D03*
%TO.N,/ESP32/TFT_CS*%
X106100000Y-55400000D03*
X92700000Y-67200000D03*
%TO.N,/ESP32/TFT_DC*%
X100200000Y-61800000D03*
X91200000Y-67200000D03*
%TO.N,Net-(U27-RO)*%
X84200000Y-153800000D03*
%TO.N,Net-(U27-BI)*%
X84800000Y-154800000D03*
%TO.N,Net-(U27-CLKI)*%
X84800000Y-152900000D03*
%TO.N,Net-(U27-CI)*%
X84800000Y-151800000D03*
%TO.N,/BM1366-3/BO3*%
X70700000Y-154500000D03*
D47*
%TO.N,/BM1366-1/VDD1*%
X77000000Y-115600000D03*
X106300000Y-115800000D03*
X115100000Y-136800000D03*
X78400000Y-116900000D03*
D48*
X101000000Y-128200000D03*
X85500000Y-119500000D03*
X99000000Y-112100000D03*
X125400000Y-131600000D03*
D47*
X113600000Y-134200000D03*
D48*
X70500000Y-127600000D03*
D47*
X113600000Y-136800000D03*
X78400000Y-115600000D03*
X79800000Y-115600000D03*
D48*
X85500000Y-128020000D03*
D47*
X79800000Y-116900000D03*
X71400000Y-137800000D03*
D48*
X100700000Y-119900000D03*
D47*
X100800000Y-136800000D03*
X102300000Y-135300000D03*
D48*
X75600000Y-104200000D03*
D47*
X71400000Y-136400000D03*
D48*
X68000000Y-116400000D03*
D47*
X107600000Y-117100000D03*
X70000000Y-137800000D03*
D48*
X110600000Y-102800000D03*
D47*
X100800000Y-135300000D03*
X70000000Y-136400000D03*
D48*
X130600000Y-135100000D03*
D47*
X71400000Y-135000000D03*
X107600000Y-115800000D03*
D48*
X115400000Y-119700000D03*
X100000000Y-104250000D03*
D47*
X115100000Y-135500000D03*
X99200000Y-136800000D03*
D48*
X115900000Y-128300000D03*
D47*
X99200000Y-135300000D03*
D48*
X86700000Y-118000000D03*
X87900000Y-114100000D03*
X70500000Y-120400000D03*
X70500000Y-119250000D03*
X98600000Y-117300000D03*
D47*
X113600000Y-135500000D03*
X108900000Y-115800000D03*
X106300000Y-117100000D03*
D48*
X85750000Y-103250000D03*
X99400000Y-119900000D03*
X124780000Y-137600000D03*
%TO.N,/BM1366-2/VDD2*%
X115200000Y-147700000D03*
X115920000Y-156140000D03*
D47*
X68900000Y-166200000D03*
X70300000Y-167600000D03*
D48*
X98200000Y-141000000D03*
X72400000Y-131000000D03*
D47*
X99600000Y-167700000D03*
D48*
X100600000Y-147800000D03*
X103100000Y-131400000D03*
X84800000Y-157100000D03*
X86900000Y-146400000D03*
D47*
X68900000Y-167600000D03*
X107400000Y-144900000D03*
X106000000Y-144900000D03*
X114800000Y-167300000D03*
X101100000Y-167700000D03*
X60800000Y-119100000D03*
D48*
X70200000Y-156700000D03*
D47*
X107400000Y-143600000D03*
X99600000Y-169000000D03*
X77000000Y-143700000D03*
X101100000Y-169000000D03*
D48*
X100800000Y-156400000D03*
D47*
X79800000Y-143700000D03*
X108700000Y-143600000D03*
D48*
X112600000Y-131700000D03*
D47*
X114800000Y-164700000D03*
D48*
X60200000Y-112200000D03*
X87700000Y-142600000D03*
D47*
X106000000Y-143600000D03*
X70300000Y-166200000D03*
X102500000Y-168300000D03*
D48*
X98080000Y-146280000D03*
D47*
X78400000Y-145000000D03*
D48*
X83200000Y-131300000D03*
D47*
X79800000Y-145000000D03*
X70300000Y-164700000D03*
X78400000Y-143700000D03*
D48*
X59651900Y-104400000D03*
D47*
X114800000Y-166000000D03*
X116300000Y-167300000D03*
X116300000Y-166000000D03*
D48*
X70700000Y-148000000D03*
X84800000Y-148500000D03*
%TO.N,/BM1366-3/RI3*%
X70700000Y-153200000D03*
%TO.N,/BM1366-3/CLKO3*%
X70700000Y-151900000D03*
%TO.N,/BM1366-3/CO3*%
X70700000Y-150600000D03*
%TO.N,/BM1366-1/CLKI1*%
X120200000Y-101700000D03*
%TO.N,/BM1366-2/NRSTI2*%
X56990000Y-114090000D03*
X66300000Y-120200000D03*
%TO.N,/BM1366-2/BI2*%
X67400000Y-121100000D03*
X57000000Y-108600000D03*
%TO.N,/BM1366-2/RO2*%
X63200000Y-105377500D03*
X64900000Y-119100000D03*
%TO.N,/BM1366-2/CI2*%
X63320000Y-114120000D03*
X68500000Y-125200000D03*
%TO.N,/BM1366-3/NRSTI3*%
X115900000Y-155000000D03*
X121780000Y-141700000D03*
%TO.N,/BM1366-3/BI3*%
X121842500Y-136037500D03*
X115900000Y-153700000D03*
%TO.N,/BM1366-3/RO3*%
X127500000Y-132400000D03*
X125200000Y-148900000D03*
%TO.N,/BM1366-3/CI3*%
X127680000Y-141700000D03*
%TO.N,/BM1366-1/NRSTO*%
X63100000Y-102400000D03*
X57400000Y-118100000D03*
%TO.N,/BM1366-1/CO*%
X65200000Y-98900000D03*
X63100000Y-118100000D03*
%TO.N,/BM1366-1/RI*%
X66100000Y-102900000D03*
%TO.N,/BM1366-2/RI*%
X127600000Y-130300000D03*
X118100000Y-124700000D03*
X115900000Y-124700000D03*
%TO.N,/BM1366-2/NRSTO*%
X119100000Y-122300000D03*
X122000000Y-145400000D03*
%TO.N,/BM1366-2/CO*%
X127600000Y-145400000D03*
X118800000Y-131400000D03*
%TO.N,/ESP32/ASIC_RST*%
X115100000Y-63700000D03*
%TO.N,/ESP32/ESP32_TX*%
X114100000Y-63000000D03*
%TO.N,/ESP32/ESP32_RX*%
X112700000Y-63000000D03*
%TO.N,Net-(U9-SPIIO6{slash}GPIO35{slash}FSPID{slash}SUBSPID)*%
X123500000Y-62448100D03*
%TO.N,Net-(U9-SPIIO7{slash}GPIO36{slash}FSPICLK{slash}SUBSPICLK)*%
X123500000Y-61300000D03*
%TO.N,Net-(U9-SPIDQS{slash}GPIO37{slash}FSPIQ{slash}SUBSPIQ)*%
X123500000Y-60000000D03*
%TO.N,Net-(U9-GPIO38{slash}FSPIWP{slash}SUBSPIWP)*%
X123500000Y-58700000D03*
%TO.N,Net-(U9-MTCK{slash}GPIO39{slash}CLK_OUT3{slash}SUBSPICS1)*%
X123500000Y-55000000D03*
%TO.N,Net-(U9-GPIO12{slash}TOUCH12{slash}ADC2_CH1{slash}FSPICLK{slash}FSPIIO6{slash}SUBSPICLK)*%
X112940000Y-67500000D03*
%TO.N,Net-(U9-GPIO13{slash}TOUCH13{slash}ADC2_CH2{slash}FSPIQ{slash}FSPIIO7{slash}SUBSPIQ)*%
X114000000Y-67500000D03*
%TO.N,Net-(U9-GPIO14{slash}TOUCH14{slash}ADC2_CH3{slash}FSPIWP{slash}FSPIDQS{slash}SUBSPIWP)*%
X111700000Y-63900000D03*
%TO.N,Net-(U9-\u002AGPIO46)*%
X106500000Y-61600000D03*
%TO.N,Net-(U24-VDD3_0)*%
X114600000Y-156200000D03*
%TO.N,Net-(U24-VDD2_0)*%
X114600000Y-157400000D03*
%TO.N,Net-(U24-VDD1_0)*%
X114620000Y-158700000D03*
%TO.N,Net-(U24-RI)*%
X100800000Y-152900000D03*
%TO.N,Net-(U24-NRSTO)*%
X100800000Y-155200000D03*
X84800000Y-155900000D03*
%TO.N,Net-(U24-CO)*%
X100800000Y-150500000D03*
%TO.N,Net-(U24-CLKO)*%
X100800000Y-151700000D03*
%TO.N,Net-(U24-BO)*%
X100800000Y-154000000D03*
%TO.N,Net-(U22-VDD3_1)*%
X71200000Y-130300000D03*
%TO.N,Net-(U22-VDD2_1)*%
X70500000Y-129400000D03*
%TO.N,Net-(U22-VDD1_1)*%
X71200000Y-128500000D03*
%TO.N,Net-(U22-RI)*%
X84500000Y-124500000D03*
%TO.N,Net-(U22-NRSTO)*%
X85500000Y-122600000D03*
%TO.N,Net-(U22-CO)*%
X85500000Y-126600000D03*
%TO.N,Net-(U22-CLKO)*%
X85500000Y-125300000D03*
%TO.N,Net-(U22-BO)*%
X85500000Y-123700000D03*
%TO.N,Net-(U19-VDD3_1)*%
X101700000Y-131100000D03*
X84600000Y-130220000D03*
%TO.N,Net-(U19-VDD3_0)*%
X114600000Y-130500000D03*
%TO.N,Net-(U19-VDD2_1)*%
X101700000Y-130000000D03*
X85500000Y-129520000D03*
%TO.N,Net-(U19-VDD2_0)*%
X114600000Y-129400000D03*
%TO.N,Net-(U19-VDD1_1)*%
X84600000Y-128820000D03*
X101700000Y-129000000D03*
%TO.N,Net-(U19-VDD1_0)*%
X114600000Y-128300000D03*
%TO.N,Net-(U19-RO)*%
X101900000Y-125300000D03*
%TO.N,Net-(U19-NRSTO)*%
X116000000Y-122300000D03*
%TO.N,Net-(U19-NRSTI)*%
X100700000Y-122500000D03*
X92200000Y-122600000D03*
X92200000Y-127100000D03*
%TO.N,Net-(U19-CO)*%
X115910000Y-127200000D03*
%TO.N,Net-(U19-CLKO)*%
X115910000Y-126000000D03*
%TO.N,Net-(U19-CLKI)*%
X100700000Y-126100000D03*
%TO.N,Net-(U19-CI)*%
X100700000Y-127200000D03*
%TO.N,Net-(U19-BO)*%
X115910000Y-123600000D03*
%TO.N,Net-(U19-BI)*%
X100700000Y-123700000D03*
%TO.N,Net-(U16-VDD3_1)*%
X70250000Y-101500000D03*
%TO.N,Net-(U16-VDD2_1)*%
X71500000Y-102500000D03*
%TO.N,Net-(U16-VDD1_1)*%
X72750000Y-103250000D03*
%TO.N,Net-(U16-RO)*%
X84250000Y-97250000D03*
%TO.N,Net-(U16-NRSTO)*%
X71000000Y-99500000D03*
%TO.N,Net-(U16-CO)*%
X71100000Y-95000000D03*
%TO.N,Net-(U16-CLKO)*%
X71100000Y-96250000D03*
%TO.N,Net-(U16-CLKI)*%
X84000000Y-96250000D03*
%TO.N,Net-(U16-CI)*%
X84750000Y-95250000D03*
%TO.N,Net-(U16-BO)*%
X71000000Y-98250000D03*
%TO.N,Net-(U16-BI)*%
X83750000Y-98250000D03*
%TO.N,Net-(U13-VDD3_1)*%
X84471979Y-100707969D03*
X101250000Y-101500000D03*
%TO.N,Net-(U13-VDD3_0)*%
X116250000Y-99750000D03*
%TO.N,Net-(U13-VDD2_1)*%
X99500000Y-102250000D03*
X85500000Y-101500000D03*
%TO.N,Net-(U13-VDD2_0)*%
X115000000Y-100750000D03*
%TO.N,Net-(U13-VDD1_1)*%
X101300000Y-103000000D03*
X84500000Y-102250000D03*
%TO.N,Net-(U13-VDD1_0)*%
X113750000Y-101750000D03*
%TO.N,Net-(U13-RI)*%
X101750000Y-97250000D03*
%TO.N,Net-(U13-NRSTO)*%
X84471979Y-99207969D03*
X101100000Y-99500000D03*
%TO.N,Net-(U13-CO)*%
X102000000Y-95000000D03*
%TO.N,Net-(U13-CLKO)*%
X102250000Y-96250000D03*
%TO.N,Net-(U13-BO)*%
X101300000Y-98250000D03*
%TO.N,Net-(J4-CC2)*%
X95700000Y-51500000D03*
%TO.N,Net-(J4-CC1)*%
X98760000Y-51460000D03*
%TO.N,/BM1366-2/CLKI1*%
X70300000Y-124900000D03*
X68100000Y-96300000D03*
X66900000Y-115600000D03*
%TO.N,/BM1366-3/CLKI1*%
X120300000Y-131000000D03*
X116300000Y-151600000D03*
X119800000Y-146300000D03*
%TO.N,Net-(U9-MTDO{slash}GPIO40{slash}CLK_OUT2)*%
X116700000Y-53200000D03*
%TO.N,Net-(U9-MTDI{slash}GPIO41{slash}CLK_OUT1)*%
X119200000Y-53100000D03*
%TO.N,Net-(U9-MTMS{slash}GPIO42)*%
X123500000Y-53700000D03*
%TD*%
D50*
%TO.N,GND*%
X98420000Y-59600000D02*
X98420000Y-58120000D01*
X75084000Y-98757000D02*
X73243000Y-98757000D01*
D51*
X78725000Y-74050000D02*
X78725000Y-76275000D01*
D50*
X92400100Y-173200000D02*
X93200000Y-173200000D01*
D51*
X84500000Y-75900000D02*
X83725000Y-75900000D01*
D50*
X102000000Y-92500000D02*
X100000000Y-92500000D01*
D51*
X120120000Y-47780000D02*
X120000000Y-47900000D01*
D50*
X58800000Y-64800000D02*
X57480000Y-64800000D01*
D51*
X92475000Y-74975000D02*
X93600000Y-76100000D01*
D52*
X80005000Y-64875000D02*
X78735000Y-64875000D01*
D51*
X123600000Y-78100000D02*
X122500000Y-77000000D01*
X82400000Y-86600000D02*
X84800000Y-86600000D01*
X111600000Y-54100000D02*
X113000000Y-54100000D01*
D50*
X57890000Y-57540000D02*
X57890000Y-59600000D01*
D51*
X111600000Y-56900000D02*
X113000000Y-56900000D01*
D50*
X80916000Y-94741000D02*
X81759000Y-94741000D01*
D51*
X110200000Y-54100000D02*
X111600000Y-54100000D01*
X83725000Y-75900000D02*
X83725000Y-76375000D01*
D50*
X71500000Y-100500000D02*
X69000000Y-100500000D01*
X101875000Y-100500000D02*
X103618000Y-98757000D01*
X104250000Y-94750000D02*
X102000000Y-92500000D01*
D51*
X73800000Y-60680000D02*
X73800000Y-61900000D01*
X111600000Y-55500000D02*
X113000000Y-55500000D01*
D53*
X130000000Y-69600000D02*
X129100000Y-69600000D01*
D50*
X69000000Y-92750000D02*
X71750000Y-92750000D01*
X110916000Y-98757000D02*
X116743000Y-98757000D01*
D54*
X87470000Y-52830000D02*
X86500000Y-51860000D01*
D51*
X110200000Y-55500000D02*
X111600000Y-55500000D01*
D50*
X59400000Y-58600000D02*
X57890000Y-58600000D01*
X131400000Y-59300000D02*
X130800000Y-59900000D01*
X73750000Y-94750000D02*
X75084000Y-94750000D01*
D51*
X84975000Y-75425000D02*
X84500000Y-75900000D01*
D50*
X83250000Y-93250000D02*
X84750000Y-93250000D01*
D51*
X105100000Y-78100000D02*
X104000000Y-77000000D01*
D53*
X108900000Y-70900000D02*
X110400000Y-70900000D01*
D51*
X81700000Y-82100000D02*
X83430000Y-80370000D01*
X93600000Y-76100000D02*
X96300000Y-76100000D01*
D50*
X56000000Y-73600000D02*
X56000000Y-69470000D01*
X101750000Y-100500000D02*
X101875000Y-100500000D01*
X60150000Y-59350000D02*
X59400000Y-58600000D01*
X88810000Y-65100000D02*
X90500000Y-65100000D01*
X73243000Y-98757000D02*
X71500000Y-100500000D01*
D51*
X110200000Y-56900000D02*
X108700000Y-56900000D01*
D53*
X128800000Y-71300000D02*
X128100000Y-70600000D01*
D51*
X110200000Y-56900000D02*
X111600000Y-56900000D01*
X122500000Y-77000000D02*
X119000000Y-77000000D01*
X78750000Y-89250000D02*
X79750000Y-89250000D01*
D50*
X110916000Y-94741000D02*
X112009000Y-94741000D01*
D51*
X83430000Y-76670000D02*
X83430000Y-77600000D01*
D54*
X90370000Y-52830000D02*
X90600000Y-52600000D01*
D50*
X57900000Y-56586000D02*
X57890000Y-57540000D01*
D51*
X104350000Y-47780000D02*
X102670000Y-47780000D01*
D53*
X110300000Y-69200000D02*
X111200000Y-70100000D01*
D51*
X121850000Y-47780000D02*
X120120000Y-47780000D01*
X90300000Y-92100000D02*
X90300000Y-166600000D01*
X100710000Y-54990000D02*
X100700000Y-55000000D01*
D50*
X81759000Y-94741000D02*
X83250000Y-93250000D01*
X56150000Y-69320000D02*
X57020000Y-69320000D01*
X105084000Y-94750000D02*
X104250000Y-94750000D01*
X93600000Y-172800000D02*
X93600000Y-172000000D01*
D54*
X88040000Y-52830000D02*
X87470000Y-52830000D01*
D53*
X129100000Y-69600000D02*
X128100000Y-70600000D01*
D50*
X56000000Y-69470000D02*
X56150000Y-69320000D01*
D51*
X94310000Y-53375000D02*
X94310000Y-54390000D01*
D50*
X87500100Y-55200000D02*
X90600000Y-55200000D01*
D51*
X90300000Y-166600000D02*
X89400000Y-167500000D01*
D50*
X98420000Y-58080000D02*
X98400000Y-58100000D01*
X98420000Y-58120000D02*
X98400000Y-58100000D01*
X60150000Y-61025000D02*
X60150000Y-59350000D01*
D51*
X102670000Y-47780000D02*
X101830000Y-48620000D01*
X84800000Y-86600000D02*
X90300000Y-92100000D01*
D50*
X90500000Y-65100000D02*
X90600000Y-65200000D01*
D51*
X83725000Y-74050000D02*
X83725000Y-75900000D01*
D50*
X55690000Y-58800000D02*
X57900000Y-56586000D01*
X55690000Y-59600000D02*
X55690000Y-58800000D01*
X85500000Y-100000000D02*
X83750000Y-100000000D01*
X83750000Y-100000000D02*
X82507000Y-98757000D01*
D51*
X111600000Y-54100000D02*
X111600000Y-55500000D01*
X89400000Y-167500000D02*
X89400000Y-171700000D01*
D54*
X88040000Y-52830000D02*
X90370000Y-52830000D01*
D51*
X83430000Y-80370000D02*
X83430000Y-77600000D01*
D50*
X93300000Y-171700000D02*
X89400000Y-171700000D01*
D54*
X86500000Y-51860000D02*
X86180000Y-51860000D01*
D51*
X123600000Y-78100000D02*
X124420000Y-78100000D01*
D50*
X82507000Y-98757000D02*
X80916000Y-98757000D01*
D51*
X104000000Y-77000000D02*
X102000000Y-77000000D01*
D53*
X110400000Y-70900000D02*
X111200000Y-70100000D01*
D51*
X92475000Y-74050000D02*
X92475000Y-74975000D01*
X111600000Y-55500000D02*
X111600000Y-56900000D01*
X96300000Y-76100000D02*
X96400000Y-76000000D01*
D52*
X81000000Y-65000000D02*
X80875000Y-64875000D01*
D51*
X83725000Y-76375000D02*
X83430000Y-76670000D01*
X89400000Y-171700000D02*
X89400000Y-172220000D01*
X78725000Y-76275000D02*
X78000000Y-77000000D01*
D53*
X108900000Y-69200000D02*
X110300000Y-69200000D01*
D50*
X59200000Y-65200000D02*
X58800000Y-64800000D01*
X116743000Y-98757000D02*
X116750000Y-98750000D01*
X98420000Y-56800000D02*
X98420000Y-58080000D01*
D51*
X100710000Y-53375000D02*
X100710000Y-54990000D01*
X106920000Y-78100000D02*
X105100000Y-78100000D01*
X94310000Y-54390000D02*
X94000000Y-54700000D01*
D50*
X112009000Y-94741000D02*
X114250000Y-92500000D01*
D53*
X130000000Y-71300000D02*
X128800000Y-71300000D01*
D51*
X79750000Y-89250000D02*
X82400000Y-86600000D01*
D50*
X114250000Y-92500000D02*
X116250000Y-92500000D01*
D51*
X90450000Y-61450000D02*
X90600000Y-61600000D01*
D50*
X130800000Y-59900000D02*
X130535000Y-59900000D01*
X93600000Y-172000000D02*
X93300000Y-171700000D01*
X103618000Y-98757000D02*
X105084000Y-98757000D01*
X71750000Y-92750000D02*
X73750000Y-94750000D01*
D51*
X77465000Y-58100000D02*
X77465000Y-59925000D01*
X113000000Y-54100000D02*
X114500000Y-54100000D01*
D50*
X93200000Y-173200000D02*
X93600000Y-172800000D01*
D51*
X84975000Y-74050000D02*
X84975000Y-75425000D01*
D52*
X80875000Y-64875000D02*
X80005000Y-64875000D01*
D51*
X88000000Y-61450000D02*
X90450000Y-61450000D01*
D50*
%TO.N,/Power/VIN*%
X81000000Y-55000000D02*
X81000000Y-55590000D01*
X80600000Y-54600000D02*
X81000000Y-55000000D01*
X79000000Y-54600000D02*
X80600000Y-54600000D01*
%TO.N,/VDD*%
X123380000Y-50320000D02*
X123800000Y-49900000D01*
X121850000Y-50320000D02*
X123380000Y-50320000D01*
%TO.N,/ESP32/EN*%
X128600000Y-56182283D02*
X128600000Y-57965000D01*
X88025000Y-48225000D02*
X88975000Y-48225000D01*
X127800000Y-50900000D02*
X129400000Y-52500000D01*
X88975000Y-48225000D02*
X90200000Y-47000000D01*
X84175000Y-51775000D02*
X84120000Y-51830000D01*
X127500000Y-50900000D02*
X127800000Y-50900000D01*
X84175000Y-48225000D02*
X84175000Y-51775000D01*
X128600000Y-57965000D02*
X129265000Y-58630000D01*
X88025000Y-48225000D02*
X88025000Y-51855000D01*
X129400000Y-52500000D02*
X129400000Y-55382283D01*
X104350000Y-50320000D02*
X106120000Y-50320000D01*
X129400000Y-55382283D02*
X128600000Y-56182283D01*
X88025000Y-51855000D02*
X88040000Y-51870000D01*
X84175000Y-48225000D02*
X88025000Y-48225000D01*
X106120000Y-50320000D02*
X106200000Y-50400000D01*
D51*
%TO.N,/5V*%
X98100000Y-139100000D02*
X95400000Y-139100000D01*
X99400000Y-116300000D02*
X98900000Y-115800000D01*
X98000000Y-78900000D02*
X100600000Y-81500000D01*
X95700000Y-70300000D02*
X95700000Y-64000000D01*
X107880000Y-79280000D02*
X107900000Y-79300000D01*
X125380000Y-79180000D02*
X125400000Y-79200000D01*
D53*
X125900000Y-76000000D02*
X128100000Y-76000000D01*
X119000000Y-74460000D02*
X124360000Y-74460000D01*
X111200000Y-78100000D02*
X111200000Y-79900000D01*
X128100000Y-78300000D02*
X128100000Y-79900000D01*
X124360000Y-74460000D02*
X125900000Y-76000000D01*
X111200000Y-75500000D02*
X111200000Y-78100000D01*
D51*
X98900000Y-115800000D02*
X95600000Y-115800000D01*
X99900000Y-90100000D02*
X95300000Y-90100000D01*
X98000000Y-78900000D02*
X98000000Y-72600000D01*
D53*
X108800000Y-75500000D02*
X111200000Y-75500000D01*
D51*
X99100000Y-110800000D02*
X98700000Y-110400000D01*
X98100000Y-144900000D02*
X97700000Y-144500000D01*
X98000000Y-72600000D02*
X95700000Y-70300000D01*
X98700000Y-110400000D02*
X95800000Y-110400000D01*
X99000000Y-140000000D02*
X98100000Y-139100000D01*
D53*
X102000000Y-74460000D02*
X107760000Y-74460000D01*
D51*
X97700000Y-144500000D02*
X96300000Y-144500000D01*
D53*
X107760000Y-74460000D02*
X108800000Y-75500000D01*
D51*
X107880000Y-78100000D02*
X107880000Y-79280000D01*
X95700000Y-64000000D02*
X93600000Y-61900000D01*
X125380000Y-78100000D02*
X125380000Y-79180000D01*
D53*
X128100000Y-76000000D02*
X128100000Y-78300000D01*
D50*
%TO.N,/3V3*%
X86200000Y-53800000D02*
X84600000Y-53800000D01*
D51*
X84400000Y-87700000D02*
X89100000Y-92400000D01*
X61400000Y-59300000D02*
X63500000Y-59300000D01*
D50*
X89420000Y-173200000D02*
X89400000Y-173180000D01*
D51*
X60400000Y-58300000D02*
X61400000Y-59300000D01*
X82475000Y-76100000D02*
X82475000Y-76500000D01*
X55600000Y-64800000D02*
X56520000Y-64800000D01*
X106150000Y-49050000D02*
X106200000Y-49100000D01*
X73800000Y-59720000D02*
X74820000Y-59720000D01*
X79900000Y-79800000D02*
X79900000Y-81100000D01*
X64000000Y-58800000D02*
X67200000Y-58800000D01*
X75000000Y-81100000D02*
X78500000Y-81100000D01*
X87700000Y-172700000D02*
X88200000Y-173200000D01*
X73780000Y-59700000D02*
X73800000Y-59720000D01*
X81225000Y-76100000D02*
X81225000Y-77075000D01*
X68100000Y-59700000D02*
X73780000Y-59700000D01*
X81225000Y-76100000D02*
X81225000Y-74050000D01*
X88200000Y-173200000D02*
X88220000Y-173180000D01*
D50*
X91000000Y-53800000D02*
X86200000Y-53800000D01*
D51*
X62500000Y-75400000D02*
X65300000Y-78200000D01*
X75025000Y-59925000D02*
X76195000Y-59925000D01*
X78500000Y-81100000D02*
X79900000Y-81100000D01*
X81225000Y-77075000D02*
X79900000Y-78400000D01*
X55500000Y-64700000D02*
X55600000Y-64800000D01*
D50*
X90799900Y-173200000D02*
X89420000Y-173200000D01*
X84600000Y-53800000D02*
X84300000Y-54100000D01*
X84700000Y-55200000D02*
X85899900Y-55200000D01*
X93000000Y-55800000D02*
X91000000Y-53800000D01*
X131100000Y-58065000D02*
X131100000Y-56500000D01*
X131100000Y-56500000D02*
X130300000Y-55700000D01*
D51*
X83400000Y-87700000D02*
X84400000Y-87700000D01*
X72100000Y-78200000D02*
X75000000Y-81100000D01*
D50*
X98200000Y-68890000D02*
X97110000Y-68890000D01*
D51*
X55740000Y-75400000D02*
X58700000Y-75400000D01*
X88220000Y-173180000D02*
X89400000Y-173180000D01*
X89100000Y-165600000D02*
X87700000Y-167000000D01*
X55500000Y-64700000D02*
X55247600Y-64952400D01*
X82475000Y-77595000D02*
X82470000Y-77600000D01*
D50*
X55850000Y-62975000D02*
X55850000Y-64350000D01*
D51*
X55247600Y-74907600D02*
X55740000Y-75400000D01*
X55247600Y-64952400D02*
X55247600Y-74907600D01*
X74820000Y-59720000D02*
X75025000Y-59925000D01*
D50*
X55850000Y-64350000D02*
X55500000Y-64700000D01*
X84300000Y-53030000D02*
X84120000Y-52850000D01*
D51*
X58700000Y-75400000D02*
X62500000Y-75400000D01*
X67200000Y-58800000D02*
X68100000Y-59700000D01*
X104350000Y-49050000D02*
X106150000Y-49050000D01*
D50*
X97110000Y-68890000D02*
X97100000Y-68900000D01*
D51*
X82475000Y-74050000D02*
X82475000Y-76100000D01*
D50*
X84300000Y-54800000D02*
X84700000Y-55200000D01*
D51*
X87700000Y-167000000D02*
X87700000Y-172700000D01*
D50*
X123700000Y-67590000D02*
X124690000Y-67590000D01*
X130535000Y-58630000D02*
X131100000Y-58065000D01*
X84300000Y-54100000D02*
X84300000Y-53030000D01*
D51*
X81225000Y-76100000D02*
X82475000Y-76100000D01*
X89100000Y-92400000D02*
X89100000Y-165600000D01*
X82475000Y-76500000D02*
X82475000Y-77595000D01*
X63500000Y-59300000D02*
X64000000Y-58800000D01*
X65300000Y-78200000D02*
X72100000Y-78200000D01*
D50*
X84300000Y-54800000D02*
X84300000Y-54100000D01*
X58700000Y-74700000D02*
X58700000Y-75400000D01*
X124690000Y-67590000D02*
X126300000Y-69200000D01*
X86200000Y-52840000D02*
X86180000Y-52820000D01*
D51*
X79900000Y-78400000D02*
X79900000Y-79800000D01*
D50*
X106115000Y-65540000D02*
X106100000Y-67100000D01*
X86200000Y-53800000D02*
X86200000Y-52840000D01*
%TO.N,/Power/VIN_M*%
X79590000Y-55590000D02*
X79600000Y-55600000D01*
X77900000Y-55590000D02*
X79590000Y-55590000D01*
%TO.N,/SCL*%
X93700001Y-173699999D02*
X94700000Y-172700000D01*
X128900000Y-95200000D02*
X120600000Y-86900000D01*
X82900000Y-65100000D02*
X82900000Y-59300000D01*
X76195000Y-64875000D02*
X76195000Y-66995000D01*
X96100000Y-62000000D02*
X96100000Y-60260000D01*
X120400000Y-168900000D02*
X120400000Y-164800000D01*
X84700000Y-57500000D02*
X87500000Y-57500000D01*
X90799900Y-172700001D02*
X91300001Y-172700001D01*
X118815000Y-62915000D02*
X118815000Y-65540000D01*
X128900000Y-139900000D02*
X128900000Y-95200000D01*
X98800000Y-64700000D02*
X96100000Y-62000000D01*
X81200000Y-66600000D02*
X81200000Y-66100000D01*
X91600000Y-173500000D02*
X91799999Y-173699999D01*
X76195000Y-66995000D02*
X76200000Y-67000000D01*
X118800000Y-62900000D02*
X118815000Y-62915000D01*
X130100000Y-83500000D02*
X131500000Y-82100000D01*
X87500100Y-55699999D02*
X87500100Y-57499900D01*
X81700000Y-65600000D02*
X82400000Y-65600000D01*
X130100000Y-141100000D02*
X128900000Y-139900000D01*
X95375200Y-59535200D02*
X91406431Y-59535200D01*
X114100000Y-85400000D02*
X116000000Y-83500000D01*
X75900000Y-67000000D02*
X76200000Y-67000000D01*
X90300000Y-59800000D02*
X88000000Y-57500000D01*
X96100000Y-60260000D02*
X95375200Y-59535200D01*
X68425000Y-62325000D02*
X71600000Y-65500000D01*
X120600000Y-86900000D02*
X115600000Y-86900000D01*
X120400000Y-164800000D02*
X130100000Y-155100000D01*
X80800000Y-67000000D02*
X81200000Y-66600000D01*
X97200000Y-172700000D02*
X116600000Y-172700000D01*
X91300001Y-172700001D02*
X91600000Y-173000000D01*
X76200000Y-67000000D02*
X80800000Y-67000000D01*
X91799999Y-173699999D02*
X92400100Y-173699999D01*
X60150000Y-62325000D02*
X68425000Y-62325000D01*
X91600000Y-173000000D02*
X91600000Y-173500000D01*
X91141631Y-59800000D02*
X90300000Y-59800000D01*
X96700000Y-173200000D02*
X97200000Y-172700000D01*
X82900000Y-59300000D02*
X84700000Y-57500000D01*
X130100000Y-155100000D02*
X130100000Y-141100000D01*
X131500000Y-68400000D02*
X127300000Y-64200000D01*
X127300000Y-64200000D02*
X127300000Y-61780000D01*
X115600000Y-86900000D02*
X114100000Y-85400000D01*
X82400000Y-65600000D02*
X82900000Y-65100000D01*
X92400100Y-173699999D02*
X93700001Y-173699999D01*
X81200000Y-66100000D02*
X81700000Y-65600000D01*
X88000000Y-57500000D02*
X87500000Y-57500000D01*
X91406431Y-59535200D02*
X91141631Y-59800000D01*
X71600000Y-65500000D02*
X74400000Y-65500000D01*
X116600000Y-172700000D02*
X120400000Y-168900000D01*
X74400000Y-65500000D02*
X75900000Y-67000000D01*
X127300000Y-61780000D02*
X125800000Y-60280000D01*
X131500000Y-82100000D02*
X131500000Y-68400000D01*
X87500100Y-57499900D02*
X87500000Y-57500000D01*
X116000000Y-83500000D02*
X130100000Y-83500000D01*
%TO.N,/Power/OUT0*%
X53675000Y-61675000D02*
X53600000Y-61600000D01*
X60000000Y-64600000D02*
X57075000Y-61675000D01*
X55850000Y-61675000D02*
X53675000Y-61675000D01*
X60000000Y-67000000D02*
X60000000Y-64600000D01*
X57075000Y-61675000D02*
X55850000Y-61675000D01*
%TO.N,Net-(U3-IN+)*%
X79880000Y-57020000D02*
X79880000Y-58000000D01*
X79880000Y-58480000D02*
X80005000Y-58605000D01*
X80290000Y-56610000D02*
X81000000Y-56610000D01*
X79880000Y-58000000D02*
X79880000Y-58480000D01*
X79880000Y-57020000D02*
X80290000Y-56610000D01*
X80005000Y-58605000D02*
X80005000Y-59925000D01*
%TO.N,Net-(U3-IN-)*%
X78920000Y-58000000D02*
X78920000Y-58480000D01*
X78735000Y-58665000D02*
X78735000Y-59925000D01*
X78920000Y-57020000D02*
X78920000Y-58000000D01*
X78510000Y-56610000D02*
X77900000Y-56610000D01*
X78920000Y-58480000D02*
X78735000Y-58665000D01*
X78920000Y-57020000D02*
X78510000Y-56610000D01*
%TO.N,Net-(Q6-D)*%
X57670000Y-71320000D02*
X59310000Y-71320000D01*
X59310000Y-71320000D02*
X59400000Y-71410000D01*
%TO.N,Net-(U24-INV_CLKO)*%
X103550000Y-151750000D02*
X105084000Y-151750000D01*
X99400000Y-148800000D02*
X100600000Y-148800000D01*
X100600000Y-148800000D02*
X103550000Y-151750000D01*
%TO.N,/ESP32/P_TX*%
X127600000Y-52300000D02*
X128100000Y-52800000D01*
X126890000Y-51590000D02*
X121850000Y-51590000D01*
X128100000Y-58735000D02*
X129265000Y-59900000D01*
X127600000Y-52300000D02*
X126890000Y-51590000D01*
X128100000Y-52800000D02*
X128100000Y-58735000D01*
%TO.N,/ESP32/P_RX*%
X127300000Y-53600000D02*
X127300000Y-59205000D01*
X127300000Y-59205000D02*
X129265000Y-61170000D01*
X127300000Y-53600000D02*
X126560000Y-52860000D01*
X126560000Y-52860000D02*
X121850000Y-52860000D01*
%TO.N,/ESP32/IO0*%
X132052400Y-56200000D02*
X132052400Y-61200000D01*
X121850000Y-64290000D02*
X123490000Y-64290000D01*
X123490000Y-64290000D02*
X124100000Y-64900000D01*
X129930000Y-52130000D02*
X129930000Y-54077600D01*
X124275000Y-48225000D02*
X128125000Y-48225000D01*
X128125000Y-50325000D02*
X129930000Y-52130000D01*
X128125000Y-48225000D02*
X128125000Y-50325000D01*
X132052400Y-64247600D02*
X132052400Y-61200000D01*
X132022400Y-61170000D02*
X132052400Y-61200000D01*
X131400000Y-64900000D02*
X132052400Y-64247600D01*
X130535000Y-61170000D02*
X132022400Y-61170000D01*
X129930000Y-54077600D02*
X132052400Y-56200000D01*
%TO.N,/ESP32/XIN32*%
X104350000Y-56670000D02*
X101407600Y-56670000D01*
X101407600Y-56670000D02*
X101300000Y-56777600D01*
X101300000Y-56777600D02*
X99402400Y-56777600D01*
X99402400Y-56777600D02*
X99380000Y-56800000D01*
%TO.N,/ESP32/XOUT32*%
X99402400Y-59622400D02*
X99380000Y-59600000D01*
X102982400Y-57940000D02*
X101300000Y-59622400D01*
X101300000Y-59622400D02*
X99402400Y-59622400D01*
X104350000Y-57940000D02*
X102982400Y-57940000D01*
%TO.N,/Power/PGOOD*%
X111195000Y-66995000D02*
X111200000Y-67000000D01*
X111195000Y-65540000D02*
X111195000Y-66995000D01*
%TO.N,/Power/OUT1*%
X53800000Y-63600000D02*
X53800000Y-65000000D01*
X55075000Y-62325000D02*
X53800000Y-63600000D01*
X55850000Y-62325000D02*
X55075000Y-62325000D01*
%TO.N,/SDA*%
X77465000Y-63535000D02*
X78200000Y-62800000D01*
X74200000Y-65900000D02*
X71450000Y-65900000D01*
X87800000Y-57900000D02*
X86300000Y-57900000D01*
X84700000Y-56800000D02*
X85900000Y-56800000D01*
X77465000Y-64875000D02*
X77465000Y-63535000D01*
X95700000Y-62100000D02*
X95700000Y-60358368D01*
X115200000Y-83100000D02*
X130000000Y-83100000D01*
X86300000Y-57900000D02*
X85900000Y-58300000D01*
X114100000Y-86700000D02*
X113300000Y-85900000D01*
X95229232Y-59887600D02*
X91694031Y-59887600D01*
X128400000Y-140057367D02*
X128400000Y-95300000D01*
X86400001Y-54700001D02*
X86700000Y-55000000D01*
X90799900Y-174099900D02*
X91000000Y-174300000D01*
X82100000Y-67100000D02*
X81700000Y-67500000D01*
X131100000Y-68500000D02*
X125800000Y-63200000D01*
X91694031Y-59887600D02*
X91354032Y-60227600D01*
X61125000Y-62975000D02*
X60150000Y-62975000D01*
X91000000Y-174300000D02*
X94300000Y-174300000D01*
X129600000Y-141257367D02*
X128400000Y-140057367D01*
X71450000Y-65900000D02*
X68227400Y-62677400D01*
X68227400Y-62677400D02*
X61422600Y-62677400D01*
X97800000Y-64200000D02*
X95700000Y-62100000D01*
X113300000Y-85900000D02*
X113300000Y-85000000D01*
X82089037Y-64210963D02*
X82300000Y-64000000D01*
X85899900Y-55699999D02*
X85899900Y-56799900D01*
X120000000Y-164600000D02*
X129600000Y-155000000D01*
X129600000Y-155000000D02*
X129600000Y-141257367D01*
X81700000Y-67500000D02*
X75800000Y-67500000D01*
X94300000Y-174300000D02*
X96300000Y-172300000D01*
X82300000Y-63047600D02*
X82300000Y-62800000D01*
X120000000Y-168700000D02*
X120000000Y-164600000D01*
X82089037Y-64700000D02*
X82089037Y-64210963D01*
X86700000Y-55400000D02*
X86400001Y-55699999D01*
X78200000Y-62800000D02*
X82300000Y-62800000D01*
X120400000Y-87300000D02*
X114700000Y-87300000D01*
X117600000Y-63700000D02*
X117600000Y-65485000D01*
X90127600Y-60227600D02*
X87800000Y-57900000D01*
X86700000Y-55000000D02*
X86700000Y-55400000D01*
X85899900Y-56799900D02*
X85900000Y-56800000D01*
X85899900Y-54700001D02*
X86400001Y-54700001D01*
X95700000Y-60358368D02*
X95229232Y-59887600D01*
X82300000Y-64000000D02*
X82300000Y-63047600D01*
X75800000Y-67500000D02*
X74200000Y-65900000D01*
X82300000Y-59200000D02*
X84700000Y-56800000D01*
X86400001Y-55699999D02*
X85899900Y-55699999D01*
X82100000Y-66400000D02*
X82100000Y-67100000D01*
X130000000Y-83100000D02*
X131100000Y-82000000D01*
X61422600Y-62677400D02*
X61125000Y-62975000D01*
X113300000Y-85000000D02*
X115200000Y-83100000D01*
X117600000Y-65485000D02*
X117545000Y-65540000D01*
X96300000Y-172300000D02*
X116400000Y-172300000D01*
X125800000Y-63200000D02*
X125800000Y-62820000D01*
X90799900Y-173699999D02*
X90799900Y-174099900D01*
X131100000Y-82000000D02*
X131100000Y-68500000D01*
X97800000Y-65400000D02*
X97800000Y-64200000D01*
X91354032Y-60227600D02*
X90127600Y-60227600D01*
X116400000Y-172300000D02*
X120000000Y-168700000D01*
X114700000Y-87300000D02*
X114100000Y-86700000D01*
X82300000Y-62800000D02*
X82300000Y-59200000D01*
X128400000Y-95300000D02*
X120400000Y-87300000D01*
%TO.N,/BM1366-1/0V8*%
X74250000Y-94250000D02*
X72000000Y-92000000D01*
X84200000Y-91550000D02*
X81511000Y-94239000D01*
X114000000Y-91500000D02*
X114000000Y-91875000D01*
X75084000Y-94250000D02*
X74250000Y-94250000D01*
X84200000Y-91300000D02*
X84200000Y-91550000D01*
X105084000Y-94250000D02*
X104488000Y-94250000D01*
X114000000Y-91875000D02*
X111636000Y-94239000D01*
X104488000Y-94250000D02*
X102000000Y-91762000D01*
X81511000Y-94239000D02*
X80916000Y-94239000D01*
X111636000Y-94239000D02*
X110916000Y-94239000D01*
X72000000Y-92000000D02*
X71000000Y-92000000D01*
X102000000Y-91762000D02*
X102000000Y-91500000D01*
%TO.N,/BM1366-1/1V2*%
X74750000Y-93750000D02*
X75084000Y-93750000D01*
X119900000Y-89100000D02*
X115150000Y-89100000D01*
X122500000Y-100900000D02*
X120700000Y-100900000D01*
X72250000Y-91250000D02*
X74750000Y-93750000D01*
X83000000Y-92000000D02*
X83000000Y-91250000D01*
X104750000Y-93750000D02*
X103250000Y-92250000D01*
X115150000Y-89100000D02*
X112750000Y-91500000D01*
X81263000Y-93737000D02*
X83000000Y-92000000D01*
X80916000Y-93737000D02*
X81263000Y-93737000D01*
X120500000Y-89700000D02*
X119900000Y-89100000D01*
X112750000Y-92250000D02*
X112750000Y-91500000D01*
X120500000Y-93000000D02*
X120500000Y-89700000D01*
X110916000Y-93737000D02*
X111263000Y-93737000D01*
X120700000Y-100900000D02*
X119400000Y-99600000D01*
X103250000Y-92250000D02*
X103250000Y-91750000D01*
X72250000Y-91000000D02*
X72250000Y-91250000D01*
X105084000Y-93750000D02*
X104750000Y-93750000D01*
X111263000Y-93737000D02*
X112750000Y-92250000D01*
X119400000Y-99600000D02*
X119400000Y-94100000D01*
X119400000Y-94100000D02*
X120500000Y-93000000D01*
%TO.N,Net-(U27-INV_CLKO)*%
X73250000Y-151750000D02*
X70700000Y-149200000D01*
X75084000Y-151750000D02*
X73250000Y-151750000D01*
%TO.N,Net-(U13-INV_CLKO)*%
X105084000Y-95750000D02*
X104000000Y-95750000D01*
X104000000Y-95750000D02*
X102250000Y-94000000D01*
%TO.N,/BM1366-2/0V8*%
X110916000Y-122239000D02*
X111861000Y-122239000D01*
X84250000Y-119500000D02*
X84250000Y-119750000D01*
X103750000Y-122250000D02*
X105084000Y-122250000D01*
X114200000Y-119900000D02*
X114200000Y-119700000D01*
X101900000Y-120400000D02*
X103750000Y-122250000D01*
X84250000Y-119750000D02*
X81761000Y-122239000D01*
X111861000Y-122239000D02*
X114200000Y-119900000D01*
X81761000Y-122239000D02*
X80916000Y-122239000D01*
X101900000Y-119900000D02*
X101900000Y-120400000D01*
X71750000Y-119750000D02*
X74250000Y-122250000D01*
X71750000Y-119250000D02*
X71750000Y-119750000D01*
X74250000Y-122250000D02*
X75084000Y-122250000D01*
%TO.N,/BM1366-2/1V2*%
X81263000Y-121737000D02*
X80916000Y-121737000D01*
X111563000Y-121737000D02*
X113000000Y-120300000D01*
X73000000Y-119500000D02*
X73000000Y-120000000D01*
X103100000Y-119800000D02*
X103100000Y-120600000D01*
X103100000Y-120600000D02*
X104250000Y-121750000D01*
X113000000Y-120300000D02*
X113000000Y-119700000D01*
X73000000Y-120000000D02*
X74750000Y-121750000D01*
X110916000Y-121737000D02*
X111563000Y-121737000D01*
X83000000Y-119500000D02*
X83000000Y-120000000D01*
X83000000Y-120000000D02*
X81263000Y-121737000D01*
X104250000Y-121750000D02*
X105084000Y-121750000D01*
X74750000Y-121750000D02*
X75084000Y-121750000D01*
%TO.N,Net-(U22-RO)*%
X72361000Y-125251000D02*
X75084000Y-125251000D01*
X70400000Y-123300000D02*
X70410000Y-123300000D01*
X70410000Y-123300000D02*
X72361000Y-125251000D01*
%TO.N,Net-(U24-RO)*%
X114749000Y-153251000D02*
X115400000Y-152600000D01*
X110916000Y-153251000D02*
X114749000Y-153251000D01*
%TO.N,/NRSTI*%
X116200000Y-97800000D02*
X115745000Y-98255000D01*
X115745000Y-98255000D02*
X110916000Y-98255000D01*
%TO.N,/RO*%
X113499000Y-97251000D02*
X110916000Y-97251000D01*
X117600000Y-96600000D02*
X114150000Y-96600000D01*
X114150000Y-96600000D02*
X113499000Y-97251000D01*
%TO.N,/CI*%
X119400000Y-90100000D02*
X119400000Y-93022633D01*
X117222633Y-95200000D02*
X113800816Y-95200000D01*
X119400000Y-93022633D02*
X117222633Y-95200000D01*
X112753816Y-96247000D02*
X110916000Y-96247000D01*
X113800816Y-95200000D02*
X112753816Y-96247000D01*
%TO.N,/BM1366-3/0V8*%
X114000000Y-148300000D02*
X114000000Y-147700000D01*
X110916000Y-150239000D02*
X112061000Y-150239000D01*
X75084000Y-150250000D02*
X73950000Y-150250000D01*
X72000000Y-148300000D02*
X72000000Y-148000000D01*
X104250000Y-150250000D02*
X101900000Y-147900000D01*
X80916000Y-150239000D02*
X81861000Y-150239000D01*
X73950000Y-150250000D02*
X72000000Y-148300000D01*
X112061000Y-150239000D02*
X114000000Y-148300000D01*
X84000000Y-148100000D02*
X84000000Y-147700000D01*
X101900000Y-147900000D02*
X101900000Y-147800000D01*
X105084000Y-150250000D02*
X104250000Y-150250000D01*
X81861000Y-150239000D02*
X84000000Y-148100000D01*
%TO.N,/BM1366-3/1V2*%
X74350000Y-149750000D02*
X73200000Y-148600000D01*
X73200000Y-148600000D02*
X73200000Y-148000000D01*
X81563000Y-149737000D02*
X83000000Y-148300000D01*
X83000000Y-147800000D02*
X82900000Y-147700000D01*
X103200000Y-147800000D02*
X103200000Y-148500000D01*
X104450000Y-149750000D02*
X105084000Y-149750000D01*
X83000000Y-148300000D02*
X83000000Y-147800000D01*
X80916000Y-149737000D02*
X81563000Y-149737000D01*
X110916000Y-149737000D02*
X111563000Y-149737000D01*
X112900000Y-148400000D02*
X112900000Y-147700000D01*
X103200000Y-148500000D02*
X104450000Y-149750000D01*
X111563000Y-149737000D02*
X112900000Y-148400000D01*
X75084000Y-149750000D02*
X74350000Y-149750000D01*
%TO.N,Net-(U16-INV_CLKO)*%
X73750000Y-95750000D02*
X75084000Y-95750000D01*
X71750000Y-93750000D02*
X73750000Y-95750000D01*
X71100000Y-93750000D02*
X71750000Y-93750000D01*
%TO.N,Net-(U24-VDD1_1)*%
X82300000Y-159200000D02*
X82300000Y-157300000D01*
X104550000Y-156250000D02*
X102600000Y-158200000D01*
X82300000Y-157300000D02*
X81263000Y-156263000D01*
X102600000Y-158200000D02*
X102600000Y-159400000D01*
X81263000Y-156263000D02*
X80916000Y-156263000D01*
X105084000Y-156250000D02*
X104550000Y-156250000D01*
%TO.N,Net-(U24-VDD2_1)*%
X105084000Y-155761000D02*
X104139000Y-155761000D01*
X104139000Y-155761000D02*
X101700000Y-158200000D01*
X101700000Y-158200000D02*
X101700000Y-158800000D01*
X81512000Y-155761000D02*
X80916000Y-155761000D01*
X83100000Y-157349000D02*
X81512000Y-155761000D01*
X83100000Y-158800000D02*
X83100000Y-157349000D01*
X83500000Y-159200000D02*
X83100000Y-158800000D01*
%TO.N,/Fan/FAN1_TACH*%
X99990000Y-69910000D02*
X102000000Y-71920000D01*
X98200000Y-69910000D02*
X99990000Y-69910000D01*
%TO.N,/Fan/FAN2_TACH*%
X123700000Y-69800000D02*
X121580000Y-71920000D01*
X123700000Y-68610000D02*
X123700000Y-69800000D01*
X121580000Y-71920000D02*
X119000000Y-71920000D01*
%TO.N,Net-(U19-INV_CLKO)*%
X100582633Y-121460000D02*
X100260000Y-121460000D01*
X102872633Y-123750000D02*
X100582633Y-121460000D01*
X105084000Y-123750000D02*
X102872633Y-123750000D01*
%TO.N,Net-(U24-VDD3_1)*%
X101500000Y-157500000D02*
X100700000Y-157500000D01*
X105084000Y-155250000D02*
X103750000Y-155250000D01*
X84200000Y-157500000D02*
X81959000Y-155259000D01*
X81959000Y-155259000D02*
X80916000Y-155259000D01*
X84200000Y-158300000D02*
X84200000Y-157500000D01*
X103750000Y-155250000D02*
X101500000Y-157500000D01*
%TO.N,Net-(U22-INV_CLKO)*%
X73470000Y-123750000D02*
X70990000Y-121270000D01*
X75084000Y-123750000D02*
X73470000Y-123750000D01*
X69690000Y-120830000D02*
X69690000Y-118210000D01*
X70990000Y-121270000D02*
X70130000Y-121270000D01*
X70130000Y-121270000D02*
X69690000Y-120830000D01*
%TO.N,Net-(U27-VDD1_1)*%
X72400000Y-158600000D02*
X72400000Y-158400000D01*
X72400000Y-158400000D02*
X74550000Y-156250000D01*
X74550000Y-156250000D02*
X75084000Y-156250000D01*
%TO.N,Net-(U27-VDD2_1)*%
X74139000Y-155761000D02*
X71300000Y-158600000D01*
X75084000Y-155761000D02*
X74139000Y-155761000D01*
%TO.N,Net-(U27-VDD3_1)*%
X75084000Y-155250000D02*
X73550000Y-155250000D01*
X73550000Y-155250000D02*
X71300000Y-157500000D01*
%TO.N,Net-(U13-ADDR0)*%
X114050000Y-94200000D02*
X112505000Y-95745000D01*
X112505000Y-95745000D02*
X110916000Y-95745000D01*
X117300000Y-94200000D02*
X114050000Y-94200000D01*
%TO.N,Net-(U13-ADDR1)*%
X117150000Y-93250000D02*
X114250000Y-93250000D01*
X112257000Y-95243000D02*
X110916000Y-95243000D01*
X117300000Y-93100000D02*
X117150000Y-93250000D01*
X114250000Y-93250000D02*
X112257000Y-95243000D01*
D51*
%TO.N,Net-(D1-Pad2)*%
X99910000Y-54290000D02*
X99200000Y-55000000D01*
X99910000Y-53375000D02*
X99910000Y-54290000D01*
X95110000Y-53375000D02*
X95110000Y-54990000D01*
X95110000Y-57490000D02*
X94900000Y-57700000D01*
X95110000Y-54990000D02*
X95110000Y-57490000D01*
X94900000Y-57700000D02*
X93600000Y-57700000D01*
X95900000Y-54990000D02*
X95110000Y-54990000D01*
D50*
%TO.N,Net-(Q5-G)*%
X88000000Y-63350000D02*
X86150000Y-63350000D01*
X85500000Y-64000000D02*
X85500000Y-64690000D01*
X86150000Y-63350000D02*
X85500000Y-64000000D01*
%TO.N,/BM1366-1/BI1*%
X117600000Y-97800000D02*
X116900000Y-97100000D01*
X113947000Y-97753000D02*
X110916000Y-97753000D01*
X114600000Y-97100000D02*
X113947000Y-97753000D01*
X116900000Y-97100000D02*
X114600000Y-97100000D01*
%TO.N,Net-(U6-FS0)*%
X57000000Y-59890000D02*
X56710000Y-59600000D01*
X55850000Y-61025000D02*
X56775000Y-61025000D01*
X57000000Y-60800000D02*
X57000000Y-59890000D01*
X56775000Y-61025000D02*
X57000000Y-60800000D01*
%TO.N,Net-(U6-FS1)*%
X59400000Y-61675000D02*
X58910000Y-61185000D01*
X58910000Y-61185000D02*
X58910000Y-59600000D01*
X60150000Y-61675000D02*
X59400000Y-61675000D01*
%TO.N,Net-(U16-ADDR0)*%
X82505000Y-95745000D02*
X80916000Y-95745000D01*
X83750000Y-94500000D02*
X82505000Y-95745000D01*
X87750000Y-94400000D02*
X87650000Y-94500000D01*
X87650000Y-94500000D02*
X83750000Y-94500000D01*
%TO.N,/ESP32/TFT_BLK*%
X85500000Y-65710000D02*
X86090000Y-65710000D01*
X86090000Y-65710000D02*
X86700000Y-65100000D01*
X108655000Y-67145000D02*
X108655000Y-65540000D01*
X104900000Y-67200000D02*
X105540000Y-67840000D01*
X107960000Y-67840000D02*
X108655000Y-67145000D01*
X87790000Y-65100000D02*
X86700000Y-65100000D01*
X105540000Y-67840000D02*
X107960000Y-67840000D01*
X97600000Y-67200000D02*
X104900000Y-67200000D01*
%TO.N,Net-(U16-ADDR1)*%
X86600000Y-94000000D02*
X83500000Y-94000000D01*
X82257000Y-95243000D02*
X80916000Y-95243000D01*
X83500000Y-94000000D02*
X82257000Y-95243000D01*
X87000000Y-93600000D02*
X86600000Y-94000000D01*
%TO.N,Net-(U19-ADDR0)*%
X117800000Y-119200000D02*
X117800000Y-118700000D01*
X110916000Y-123745000D02*
X113255000Y-123745000D01*
X113255000Y-123745000D02*
X117800000Y-119200000D01*
%TO.N,Net-(U19-ADDR1)*%
X110916000Y-123243000D02*
X112957000Y-123243000D01*
X112957000Y-123243000D02*
X116600000Y-119600000D01*
X116600000Y-119600000D02*
X116600000Y-117600000D01*
%TO.N,Net-(U22-ADDR0)*%
X80916000Y-123745000D02*
X82655000Y-123745000D01*
X82655000Y-123745000D02*
X84800000Y-121600000D01*
X84800000Y-121600000D02*
X85500000Y-121600000D01*
%TO.N,Net-(U22-ADDR1)*%
X82457000Y-123243000D02*
X85100000Y-120600000D01*
X85100000Y-120600000D02*
X85500000Y-120600000D01*
X80916000Y-123243000D02*
X82457000Y-123243000D01*
%TO.N,Net-(U24-ADDR0)*%
X113755000Y-151745000D02*
X116800000Y-148700000D01*
X110916000Y-151745000D02*
X113755000Y-151745000D01*
X116800000Y-148700000D02*
X116800000Y-147600000D01*
%TO.N,Net-(U24-ADDR1)*%
X116100000Y-148300000D02*
X116100000Y-146600000D01*
X110916000Y-151243000D02*
X113157000Y-151243000D01*
X113157000Y-151243000D02*
X116100000Y-148300000D01*
%TO.N,Net-(U27-ADDR0)*%
X83055000Y-151745000D02*
X80916000Y-151745000D01*
X84800000Y-150700000D02*
X84100000Y-150700000D01*
X84100000Y-150700000D02*
X83055000Y-151745000D01*
%TO.N,Net-(U27-ADDR1)*%
X82657000Y-151243000D02*
X80916000Y-151243000D01*
X84300000Y-149600000D02*
X82657000Y-151243000D01*
X84800000Y-149600000D02*
X84300000Y-149600000D01*
%TO.N,/BM1366-3/NRSTO3*%
X75084000Y-154255000D02*
X72145000Y-154255000D01*
X72145000Y-154255000D02*
X70700000Y-155700000D01*
%TO.N,/ESP32/TFT_RES*%
X91225000Y-71375000D02*
X91225000Y-74050000D01*
X106100000Y-51600000D02*
X104360000Y-51600000D01*
X94900000Y-67700000D02*
X91225000Y-71375000D01*
X93300000Y-64000000D02*
X94900000Y-65600000D01*
X104360000Y-51600000D02*
X104350000Y-51590000D01*
X94900000Y-65600000D02*
X94900000Y-67700000D01*
%TO.N,/ESP32/TFT_SDA*%
X93300000Y-65100000D02*
X94500000Y-66300000D01*
X89975000Y-71925000D02*
X89975000Y-74050000D01*
X94500000Y-67400000D02*
X89975000Y-71925000D01*
X106100000Y-52800000D02*
X104410000Y-52800000D01*
X104410000Y-52800000D02*
X104350000Y-52860000D01*
X94500000Y-66300000D02*
X94500000Y-67400000D01*
%TO.N,/ESP32/TFT_SCL*%
X104380000Y-54100000D02*
X104350000Y-54130000D01*
X93900000Y-66800000D02*
X93900000Y-67300000D01*
X93900000Y-67300000D02*
X88725000Y-72475000D01*
X88725000Y-72475000D02*
X88725000Y-74050000D01*
X93300000Y-66200000D02*
X93900000Y-66800000D01*
X106100000Y-54100000D02*
X104380000Y-54100000D01*
%TO.N,/ESP32/TFT_CS*%
X106100000Y-55400000D02*
X104350000Y-55400000D01*
X92700000Y-67200000D02*
X92400000Y-67200000D01*
X87475000Y-72125000D02*
X87475000Y-74050000D01*
X92400000Y-67200000D02*
X87475000Y-72125000D01*
%TO.N,/ESP32/TFT_DC*%
X100200000Y-61800000D02*
X100250000Y-61750000D01*
X86225000Y-74050000D02*
X86225000Y-72175000D01*
X100250000Y-61750000D02*
X104350000Y-61750000D01*
X86225000Y-72175000D02*
X91200000Y-67200000D01*
%TO.N,Net-(U27-RO)*%
X84200000Y-153800000D02*
X83651000Y-153251000D01*
X83651000Y-153251000D02*
X80916000Y-153251000D01*
%TO.N,Net-(U27-BI)*%
X82953000Y-153753000D02*
X80916000Y-153753000D01*
X84000000Y-154800000D02*
X82953000Y-153753000D01*
X84800000Y-154800000D02*
X84000000Y-154800000D01*
%TO.N,Net-(U27-CLKI)*%
X83849000Y-152749000D02*
X80916000Y-152749000D01*
X84800000Y-152900000D02*
X84000000Y-152900000D01*
X84000000Y-152900000D02*
X83849000Y-152749000D01*
%TO.N,Net-(U27-CI)*%
X84800000Y-151800000D02*
X84247000Y-151800000D01*
X84247000Y-151800000D02*
X83800000Y-152247000D01*
X83800000Y-152247000D02*
X80916000Y-152247000D01*
%TO.N,/BM1366-3/BO3*%
X71447000Y-153753000D02*
X70700000Y-154500000D01*
X75084000Y-153753000D02*
X71447000Y-153753000D01*
%TO.N,/BM1366-1/VDD1*%
X85500000Y-119500000D02*
X82259000Y-122741000D01*
X99400000Y-119900000D02*
X99800000Y-119900000D01*
X71943000Y-126757000D02*
X71100000Y-127600000D01*
X101000000Y-128200000D02*
X101600000Y-128200000D01*
X101600000Y-128200000D02*
X103043000Y-126757000D01*
X74000000Y-122750000D02*
X70500000Y-119250000D01*
X84220000Y-128020000D02*
X85500000Y-128020000D01*
X112359000Y-122741000D02*
X110916000Y-122741000D01*
X85750000Y-103250000D02*
X81750000Y-103250000D01*
X115900000Y-128300000D02*
X114357000Y-126757000D01*
X103150000Y-123250000D02*
X105084000Y-123250000D01*
X75084000Y-126757000D02*
X71943000Y-126757000D01*
X82957000Y-126757000D02*
X84220000Y-128020000D01*
X75084000Y-122750000D02*
X74000000Y-122750000D01*
X103450000Y-122750000D02*
X105084000Y-122750000D01*
X82259000Y-122741000D02*
X80916000Y-122741000D01*
X99800000Y-119900000D02*
X103150000Y-123250000D01*
X100700000Y-120000000D02*
X103450000Y-122750000D01*
X103043000Y-126757000D02*
X105084000Y-126757000D01*
X75084000Y-123250000D02*
X73750000Y-123250000D01*
X73750000Y-123250000D02*
X70900000Y-120400000D01*
X71100000Y-127600000D02*
X70500000Y-127600000D01*
X114357000Y-126757000D02*
X110916000Y-126757000D01*
X115400000Y-119700000D02*
X112359000Y-122741000D01*
X70900000Y-120400000D02*
X70500000Y-120400000D01*
X100700000Y-119900000D02*
X100700000Y-120000000D01*
X100000000Y-104250000D02*
X104500000Y-104250000D01*
X80916000Y-126757000D02*
X82957000Y-126757000D01*
D51*
%TO.N,/BM1366-2/VDD2*%
X72400000Y-132000000D02*
X75000000Y-132000000D01*
X67200000Y-128100000D02*
X71100000Y-132000000D01*
D50*
X110916000Y-154757000D02*
X114537000Y-154757000D01*
D51*
X71100000Y-132000000D02*
X72400000Y-132000000D01*
D50*
X80916000Y-150741000D02*
X82259000Y-150741000D01*
X114537000Y-154757000D02*
X115920000Y-156140000D01*
D51*
X61600000Y-119900000D02*
X64300000Y-119900000D01*
D50*
X59300000Y-111300000D02*
X59300000Y-106600000D01*
X60800000Y-112800000D02*
X60800000Y-119100000D01*
X80916000Y-154757000D02*
X82257000Y-154757000D01*
X75084000Y-150750000D02*
X73400000Y-150750000D01*
X101700000Y-156400000D02*
X103343000Y-154757000D01*
D51*
X60800000Y-119100000D02*
X61600000Y-119900000D01*
X64300000Y-119900000D02*
X67200000Y-122800000D01*
X67200000Y-124500000D02*
X67200000Y-128100000D01*
D50*
X112559000Y-150741000D02*
X115200000Y-148100000D01*
X60200000Y-112200000D02*
X59300000Y-111300000D01*
X84500000Y-148500000D02*
X84800000Y-148500000D01*
X112600000Y-131700000D02*
X111200000Y-131700000D01*
X72400000Y-131000000D02*
X72400000Y-132000000D01*
X82259000Y-150741000D02*
X84500000Y-148500000D01*
X103100000Y-131400000D02*
X105100000Y-131400000D01*
X72843000Y-154757000D02*
X75084000Y-154757000D01*
X70700000Y-148050000D02*
X70700000Y-148000000D01*
X103343000Y-154757000D02*
X105084000Y-154757000D01*
D51*
X67200000Y-122800000D02*
X67200000Y-124500000D01*
D50*
X59651900Y-106248100D02*
X59651900Y-104400000D01*
X115200000Y-148100000D02*
X115200000Y-147700000D01*
X105084000Y-150750000D02*
X103550000Y-150750000D01*
X70900000Y-156700000D02*
X72843000Y-154757000D01*
X59300000Y-106600000D02*
X59651900Y-106248100D01*
X83200000Y-131300000D02*
X80800000Y-131300000D01*
X82257000Y-154757000D02*
X84600000Y-157100000D01*
X70200000Y-156700000D02*
X70900000Y-156700000D01*
X100800000Y-156400000D02*
X101700000Y-156400000D01*
X103550000Y-150750000D02*
X100600000Y-147800000D01*
X110916000Y-150741000D02*
X112559000Y-150741000D01*
X84600000Y-157100000D02*
X84800000Y-157100000D01*
X60200000Y-112200000D02*
X60800000Y-112800000D01*
X73400000Y-150750000D02*
X70700000Y-148050000D01*
%TO.N,/BM1366-3/RI3*%
X75084000Y-153251000D02*
X70751000Y-153251000D01*
X70751000Y-153251000D02*
X70700000Y-153200000D01*
%TO.N,/BM1366-3/CLKO3*%
X71550000Y-152750000D02*
X70700000Y-151900000D01*
X75084000Y-152750000D02*
X71550000Y-152750000D01*
%TO.N,/BM1366-3/CO3*%
X72347000Y-152247000D02*
X70700000Y-150600000D01*
X75084000Y-152247000D02*
X72347000Y-152247000D01*
%TO.N,/BM1366-1/CLKI1*%
X118500000Y-100100000D02*
X120100000Y-101700000D01*
X113950000Y-95800000D02*
X117900000Y-95800000D01*
X110916000Y-96749000D02*
X113001000Y-96749000D01*
X113001000Y-96749000D02*
X113950000Y-95800000D01*
X118500000Y-96400000D02*
X118500000Y-100100000D01*
X120100000Y-101700000D02*
X120200000Y-101700000D01*
X117900000Y-95800000D02*
X118500000Y-96400000D01*
%TO.N,/BM1366-2/NRSTI2*%
X69370000Y-121790000D02*
X70660000Y-121790000D01*
X73117000Y-124247000D02*
X75084000Y-124247000D01*
X67780000Y-120200000D02*
X69370000Y-121790000D01*
X70660000Y-121790000D02*
X73117000Y-124247000D01*
X66300000Y-120200000D02*
X67780000Y-120200000D01*
%TO.N,/BM1366-2/BI2*%
X68700000Y-122400000D02*
X70520000Y-122400000D01*
X72870000Y-124750000D02*
X75084000Y-124750000D01*
X70520000Y-122400000D02*
X72870000Y-124750000D01*
X67400000Y-121100000D02*
X68700000Y-122400000D01*
%TO.N,/BM1366-2/RO2*%
X62900000Y-119100000D02*
X61900000Y-118100000D01*
X61900000Y-106677500D02*
X63200000Y-105377500D01*
X61900000Y-118100000D02*
X61900000Y-106677500D01*
X64900000Y-119100000D02*
X62900000Y-119100000D01*
%TO.N,/BM1366-2/CI2*%
X69555000Y-126255000D02*
X75084000Y-126255000D01*
X68500000Y-125200000D02*
X69555000Y-126255000D01*
%TO.N,/BM1366-3/NRSTI3*%
X115155000Y-154255000D02*
X110916000Y-154255000D01*
X115900000Y-155000000D02*
X115155000Y-154255000D01*
%TO.N,/BM1366-3/BI3*%
X115900000Y-153700000D02*
X115847000Y-153753000D01*
X115847000Y-153753000D02*
X110916000Y-153753000D01*
%TO.N,/BM1366-3/CI3*%
X118300000Y-147900000D02*
X126800000Y-147900000D01*
X110916000Y-152247000D02*
X113953000Y-152247000D01*
X127680000Y-142980000D02*
X127680000Y-141700000D01*
X126800000Y-147900000D02*
X128600000Y-146100000D01*
X128600000Y-143900000D02*
X127680000Y-142980000D01*
X113953000Y-152247000D02*
X118300000Y-147900000D01*
X128600000Y-146100000D02*
X128600000Y-143900000D01*
%TO.N,/BM1366-1/NRSTO*%
X57700000Y-106400000D02*
X56000000Y-108100000D01*
X63100000Y-102400000D02*
X60200000Y-102400000D01*
X56000000Y-108100000D02*
X56000000Y-116700000D01*
X56000000Y-116700000D02*
X57400000Y-118100000D01*
X60200000Y-102400000D02*
X57700000Y-104900000D01*
X57700000Y-104900000D02*
X57700000Y-106400000D01*
%TO.N,/BM1366-1/CO*%
X65200000Y-116000000D02*
X63100000Y-118100000D01*
X65200000Y-98900000D02*
X65200000Y-116000000D01*
%TO.N,/BM1366-1/RI*%
X66100000Y-99900000D02*
X66100000Y-102900000D01*
X68749000Y-97251000D02*
X66100000Y-99900000D01*
X75084000Y-97251000D02*
X68749000Y-97251000D01*
%TO.N,/BM1366-2/RI*%
X115349000Y-125251000D02*
X110916000Y-125251000D01*
X122300000Y-130300000D02*
X127600000Y-130300000D01*
X115900000Y-124700000D02*
X115349000Y-125251000D01*
X118100000Y-124700000D02*
X118100000Y-126100000D01*
X118100000Y-126100000D02*
X122300000Y-130300000D01*
%TO.N,/BM1366-2/NRSTO*%
X118100000Y-129850000D02*
X118100000Y-141500000D01*
X118100000Y-141500000D02*
X122000000Y-145400000D01*
X119100000Y-122300000D02*
X117300000Y-124100000D01*
X117300000Y-129050000D02*
X118100000Y-129850000D01*
X117300000Y-124100000D02*
X117300000Y-129050000D01*
%TO.N,/BM1366-2/CO*%
X118800000Y-136600000D02*
X127600000Y-145400000D01*
X118800000Y-131400000D02*
X118800000Y-136600000D01*
%TO.N,/ESP32/ASIC_RST*%
X115700000Y-63100000D02*
X115700000Y-53100000D01*
X119750000Y-49050000D02*
X121850000Y-49050000D01*
X115700000Y-53100000D02*
X119750000Y-49050000D01*
X115100000Y-63700000D02*
X115700000Y-63100000D01*
%TO.N,/ESP32/ESP32_TX*%
X114100000Y-61400000D02*
X111910000Y-59210000D01*
X111910000Y-59210000D02*
X104350000Y-59210000D01*
X114100000Y-63000000D02*
X114100000Y-61400000D01*
%TO.N,/ESP32/ESP32_RX*%
X110180000Y-60480000D02*
X104350000Y-60480000D01*
X112700000Y-63000000D02*
X110180000Y-60480000D01*
%TO.N,Net-(U9-SPIIO6{slash}GPIO35{slash}FSPID{slash}SUBSPID)*%
X123500000Y-62500000D02*
X123500000Y-62448100D01*
X121850000Y-63020000D02*
X122980000Y-63020000D01*
X122980000Y-63020000D02*
X123500000Y-62500000D01*
%TO.N,Net-(U9-SPIIO7{slash}GPIO36{slash}FSPICLK{slash}SUBSPICLK)*%
X121850000Y-61750000D02*
X123050000Y-61750000D01*
X123050000Y-61750000D02*
X123500000Y-61300000D01*
%TO.N,Net-(U9-SPIDQS{slash}GPIO37{slash}FSPIQ{slash}SUBSPIQ)*%
X123020000Y-60480000D02*
X123500000Y-60000000D01*
X121850000Y-60480000D02*
X123020000Y-60480000D01*
%TO.N,Net-(U9-GPIO38{slash}FSPIWP{slash}SUBSPIWP)*%
X122990000Y-59210000D02*
X123500000Y-58700000D01*
X121850000Y-59210000D02*
X122990000Y-59210000D01*
%TO.N,Net-(U9-MTCK{slash}GPIO39{slash}CLK_OUT3{slash}SUBSPICS1)*%
X122960000Y-57940000D02*
X121850000Y-57940000D01*
X123500000Y-55000000D02*
X123500000Y-57400000D01*
X123500000Y-57400000D02*
X122960000Y-57940000D01*
%TO.N,/ESP32/PWR_EN*%
X58650000Y-69320000D02*
X58320000Y-69320000D01*
X109925000Y-66915000D02*
X108647600Y-68192400D01*
X95347600Y-60504336D02*
X95083264Y-60240000D01*
X108647600Y-68192400D02*
X97392400Y-68192400D01*
X88440000Y-59240000D02*
X84060000Y-59240000D01*
X97392400Y-68192400D02*
X96400000Y-67200000D01*
X96400000Y-63422633D02*
X95347600Y-62370233D01*
X91960000Y-60240000D02*
X91600000Y-60600000D01*
X109925000Y-65540000D02*
X109925000Y-66915000D01*
X82600000Y-68000000D02*
X69700000Y-68000000D01*
X95347600Y-62370233D02*
X95347600Y-60504336D01*
X83400000Y-59900000D02*
X83400000Y-67200000D01*
X67350000Y-65650000D02*
X62320000Y-65650000D01*
X84060000Y-59240000D02*
X83400000Y-59900000D01*
X96400000Y-67200000D02*
X96400000Y-63422633D01*
X91600000Y-60600000D02*
X89800000Y-60600000D01*
X83400000Y-67200000D02*
X82600000Y-68000000D01*
X95083264Y-60240000D02*
X91960000Y-60240000D01*
X62320000Y-65650000D02*
X58650000Y-69320000D01*
X69700000Y-68000000D02*
X67350000Y-65650000D01*
X89800000Y-60600000D02*
X88440000Y-59240000D01*
%TO.N,Net-(U9-GPIO12{slash}TOUCH12{slash}ADC2_CH1{slash}FSPICLK{slash}FSPIIO6{slash}SUBSPICLK)*%
X112465000Y-67025000D02*
X112465000Y-65540000D01*
X112940000Y-67500000D02*
X112465000Y-67025000D01*
%TO.N,Net-(U9-GPIO13{slash}TOUCH13{slash}ADC2_CH2{slash}FSPIQ{slash}FSPIIO7{slash}SUBSPIQ)*%
X113735000Y-67235000D02*
X114000000Y-67500000D01*
X113735000Y-65540000D02*
X113735000Y-67235000D01*
%TO.N,Net-(U9-GPIO14{slash}TOUCH14{slash}ADC2_CH3{slash}FSPIWP{slash}FSPIDQS{slash}SUBSPIWP)*%
X114100000Y-63900000D02*
X111700000Y-63900000D01*
X115005000Y-65540000D02*
X115005000Y-64805000D01*
X115005000Y-64805000D02*
X114100000Y-63900000D01*
%TO.N,Net-(U9-\u002AGPIO46)*%
X107385000Y-65540000D02*
X107385000Y-62485000D01*
X107385000Y-62485000D02*
X106500000Y-61600000D01*
%TO.N,Net-(U9-GPIO20{slash}U1CTS{slash}ADC2_CH9{slash}CLK_OUT1{slash}USB_D+)*%
X96760000Y-53375000D02*
X96760000Y-54260000D01*
X96760000Y-54260000D02*
X97000000Y-54500000D01*
X97760000Y-55090000D02*
X96800000Y-56050000D01*
X97760000Y-54500000D02*
X97760000Y-55090000D01*
X96800000Y-61900000D02*
X98700000Y-63800000D01*
X97000000Y-54500000D02*
X97760000Y-54500000D01*
X102800000Y-63800000D02*
X103290000Y-64290000D01*
X96800000Y-56050000D02*
X96800000Y-61900000D01*
X103290000Y-64290000D02*
X104350000Y-64290000D01*
X98700000Y-63800000D02*
X102800000Y-63800000D01*
X97760000Y-53375000D02*
X97760000Y-54500000D01*
%TO.N,Net-(U9-GPIO19{slash}U1RTS{slash}ADC2_CH8{slash}CLK_OUT2{slash}USB_D-)*%
X102900000Y-63400000D02*
X103280000Y-63020000D01*
X98000000Y-52100000D02*
X97500000Y-52100000D01*
X97152400Y-61754032D02*
X98798368Y-63400000D01*
X97152400Y-56197600D02*
X97152400Y-61754032D01*
X98260000Y-53375000D02*
X98260000Y-52360000D01*
X98260000Y-52360000D02*
X98000000Y-52100000D01*
X97500000Y-52100000D02*
X97260000Y-52340000D01*
X98260000Y-55090000D02*
X97152400Y-56197600D01*
X98798368Y-63400000D02*
X102900000Y-63400000D01*
X98260000Y-53375000D02*
X98260000Y-55090000D01*
X97260000Y-52340000D02*
X97260000Y-53375000D01*
X103280000Y-63020000D02*
X104350000Y-63020000D01*
%TO.N,Net-(U24-VDD3_0)*%
X110916000Y-155259000D02*
X113659000Y-155259000D01*
X113659000Y-155259000D02*
X114600000Y-156200000D01*
%TO.N,Net-(U24-VDD2_0)*%
X110916000Y-155761000D02*
X112961000Y-155761000D01*
X112961000Y-155761000D02*
X114600000Y-157400000D01*
%TO.N,Net-(U24-VDD1_0)*%
X110916000Y-156263000D02*
X112183000Y-156263000D01*
X112183000Y-156263000D02*
X114620000Y-158700000D01*
%TO.N,Net-(U24-RI)*%
X100800000Y-152900000D02*
X101800000Y-152900000D01*
X102151000Y-153251000D02*
X105084000Y-153251000D01*
X101800000Y-152900000D02*
X102151000Y-153251000D01*
%TO.N,Net-(U24-NRSTO)*%
X100800000Y-155200000D02*
X102000000Y-155200000D01*
X102945000Y-154255000D02*
X105084000Y-154255000D01*
X82455000Y-154255000D02*
X80916000Y-154255000D01*
X84100000Y-155900000D02*
X82455000Y-154255000D01*
X84800000Y-155900000D02*
X84100000Y-155900000D01*
X102000000Y-155200000D02*
X102945000Y-154255000D01*
%TO.N,Net-(U24-CO)*%
X101400000Y-150500000D02*
X103147000Y-152247000D01*
X100800000Y-150500000D02*
X101400000Y-150500000D01*
X103147000Y-152247000D02*
X105084000Y-152247000D01*
%TO.N,Net-(U24-CLKO)*%
X100800000Y-151700000D02*
X101800000Y-151700000D01*
X102850000Y-152750000D02*
X105084000Y-152750000D01*
X101800000Y-151700000D02*
X102850000Y-152750000D01*
%TO.N,Net-(U24-BO)*%
X101900000Y-154000000D02*
X102147000Y-153753000D01*
X100800000Y-154000000D02*
X101900000Y-154000000D01*
X102147000Y-153753000D02*
X105084000Y-153753000D01*
%TO.N,Net-(U22-VDD3_1)*%
X75084000Y-128250000D02*
X73250000Y-128250000D01*
X73250000Y-128250000D02*
X71200000Y-130300000D01*
%TO.N,Net-(U22-VDD2_1)*%
X75084000Y-127761000D02*
X72939000Y-127761000D01*
X71300000Y-129400000D02*
X70500000Y-129400000D01*
X72939000Y-127761000D02*
X71300000Y-129400000D01*
%TO.N,Net-(U22-VDD1_1)*%
X72450000Y-127250000D02*
X75084000Y-127250000D01*
X71200000Y-128500000D02*
X72450000Y-127250000D01*
%TO.N,Net-(U22-RI)*%
X83749000Y-125251000D02*
X84500000Y-124500000D01*
X80916000Y-125251000D02*
X83749000Y-125251000D01*
%TO.N,Net-(U22-NRSTO)*%
X80916000Y-124247000D02*
X82853000Y-124247000D01*
X82853000Y-124247000D02*
X84500000Y-122600000D01*
X84500000Y-122600000D02*
X85500000Y-122600000D01*
%TO.N,Net-(U22-CO)*%
X85155000Y-126255000D02*
X85500000Y-126600000D01*
X80916000Y-126255000D02*
X85155000Y-126255000D01*
%TO.N,Net-(U22-CLKO)*%
X85047000Y-125753000D02*
X85500000Y-125300000D01*
X80916000Y-125753000D02*
X85047000Y-125753000D01*
%TO.N,Net-(U22-BO)*%
X83051000Y-124749000D02*
X84100000Y-123700000D01*
X84100000Y-123700000D02*
X85500000Y-123700000D01*
X80916000Y-124749000D02*
X83051000Y-124749000D01*
%TO.N,Net-(U19-VDD3_1)*%
X81943000Y-128263000D02*
X83900000Y-130220000D01*
X103400000Y-129600000D02*
X101900000Y-131100000D01*
X84600000Y-130220000D02*
X83900000Y-130220000D01*
X103400000Y-129100000D02*
X103400000Y-129600000D01*
X104250000Y-128250000D02*
X103400000Y-129100000D01*
X80916000Y-128263000D02*
X81943000Y-128263000D01*
X105084000Y-128250000D02*
X104250000Y-128250000D01*
X101900000Y-131100000D02*
X101700000Y-131100000D01*
%TO.N,Net-(U19-VDD3_0)*%
X112363000Y-128263000D02*
X114600000Y-130500000D01*
X110916000Y-128263000D02*
X112363000Y-128263000D01*
%TO.N,Net-(U19-VDD2_1)*%
X80916000Y-127761000D02*
X82141000Y-127761000D01*
X102050000Y-130000000D02*
X102700000Y-129350000D01*
X101700000Y-130000000D02*
X102050000Y-130000000D01*
X85500000Y-129520000D02*
X83900000Y-129520000D01*
X102700000Y-129350000D02*
X102700000Y-128900000D01*
X102700000Y-128900000D02*
X103839000Y-127761000D01*
X82141000Y-127761000D02*
X83900000Y-129520000D01*
X103839000Y-127761000D02*
X105084000Y-127761000D01*
%TO.N,Net-(U19-VDD2_0)*%
X110916000Y-127761000D02*
X112961000Y-127761000D01*
X112961000Y-127761000D02*
X114600000Y-129400000D01*
%TO.N,Net-(U19-VDD1_1)*%
X80916000Y-127259000D02*
X82459000Y-127259000D01*
X103450000Y-127250000D02*
X105084000Y-127250000D01*
X84020000Y-128820000D02*
X84600000Y-128820000D01*
X101700000Y-129000000D02*
X103450000Y-127250000D01*
X82459000Y-127259000D02*
X84020000Y-128820000D01*
%TO.N,Net-(U19-VDD1_0)*%
X113459000Y-127259000D02*
X114500000Y-128300000D01*
X114500000Y-128300000D02*
X114600000Y-128300000D01*
X110916000Y-127259000D02*
X113459000Y-127259000D01*
%TO.N,Net-(U19-RO)*%
X101949000Y-125251000D02*
X101900000Y-125300000D01*
X105084000Y-125251000D02*
X101949000Y-125251000D01*
%TO.N,Net-(U19-NRSTO)*%
X114053000Y-124247000D02*
X110916000Y-124247000D01*
X116000000Y-122300000D02*
X114053000Y-124247000D01*
%TO.N,Net-(U19-NRSTI)*%
X105084000Y-124247000D02*
X102467000Y-124247000D01*
X102467000Y-124247000D02*
X100720000Y-122500000D01*
X92200000Y-127100000D02*
X92200000Y-122600000D01*
X100720000Y-122500000D02*
X100700000Y-122500000D01*
%TO.N,Net-(U19-CO)*%
X114965000Y-126255000D02*
X115910000Y-127200000D01*
X110916000Y-126255000D02*
X114965000Y-126255000D01*
%TO.N,Net-(U19-CLKO)*%
X110916000Y-125753000D02*
X115663000Y-125753000D01*
X115663000Y-125753000D02*
X115910000Y-126000000D01*
%TO.N,Net-(U19-CLKI)*%
X102200000Y-126100000D02*
X100700000Y-126100000D01*
X105084000Y-125753000D02*
X102547000Y-125753000D01*
X102547000Y-125753000D02*
X102200000Y-126100000D01*
%TO.N,Net-(U19-CI)*%
X105084000Y-126255000D02*
X102745000Y-126255000D01*
X101800000Y-127200000D02*
X100700000Y-127200000D01*
X102745000Y-126255000D02*
X101800000Y-127200000D01*
%TO.N,Net-(U19-BO)*%
X114751000Y-124749000D02*
X115900000Y-123600000D01*
X115900000Y-123600000D02*
X115910000Y-123600000D01*
X110916000Y-124749000D02*
X114751000Y-124749000D01*
%TO.N,Net-(U19-BI)*%
X102380000Y-124750000D02*
X105084000Y-124750000D01*
X101330000Y-123700000D02*
X102380000Y-124750000D01*
X100700000Y-123700000D02*
X101330000Y-123700000D01*
%TO.N,Net-(U16-VDD3_1)*%
X73750000Y-99250000D02*
X71500000Y-101500000D01*
X71500000Y-101500000D02*
X70250000Y-101500000D01*
X75084000Y-99250000D02*
X73750000Y-99250000D01*
%TO.N,Net-(U16-VDD2_1)*%
X74239000Y-99761000D02*
X75084000Y-99761000D01*
X71500000Y-102500000D02*
X74239000Y-99761000D01*
%TO.N,Net-(U16-VDD1_1)*%
X72750000Y-103250000D02*
X72750000Y-102000000D01*
X72750000Y-102000000D02*
X74500000Y-100250000D01*
X74500000Y-100250000D02*
X75084000Y-100250000D01*
%TO.N,Net-(U16-RO)*%
X80916000Y-97251000D02*
X84249000Y-97251000D01*
X84249000Y-97251000D02*
X84250000Y-97250000D01*
%TO.N,Net-(U16-NRSTO)*%
X71000000Y-99500000D02*
X71625000Y-99500000D01*
X71625000Y-99500000D02*
X72870000Y-98255000D01*
X72870000Y-98255000D02*
X75084000Y-98255000D01*
%TO.N,Net-(U16-CO)*%
X71100000Y-95000000D02*
X72000000Y-95000000D01*
X72000000Y-95000000D02*
X73247000Y-96247000D01*
X73247000Y-96247000D02*
X75084000Y-96247000D01*
%TO.N,Net-(U16-CLKO)*%
X71600000Y-96750000D02*
X75084000Y-96750000D01*
X71100000Y-96250000D02*
X71600000Y-96750000D01*
%TO.N,Net-(U16-CLKI)*%
X83501000Y-96749000D02*
X80916000Y-96749000D01*
X84000000Y-96250000D02*
X83501000Y-96749000D01*
%TO.N,Net-(U16-CI)*%
X83003000Y-96247000D02*
X80916000Y-96247000D01*
X84750000Y-95250000D02*
X84000000Y-95250000D01*
X84000000Y-95250000D02*
X83003000Y-96247000D01*
%TO.N,Net-(U16-BO)*%
X71000000Y-98250000D02*
X71497000Y-97753000D01*
X71497000Y-97753000D02*
X75084000Y-97753000D01*
%TO.N,Net-(U16-BI)*%
X83750000Y-98250000D02*
X83253000Y-97753000D01*
X83253000Y-97753000D02*
X80916000Y-97753000D01*
%TO.N,Net-(U13-VDD3_1)*%
X101250000Y-101500000D02*
X102000000Y-101500000D01*
X82259000Y-99259000D02*
X80916000Y-99259000D01*
X104250000Y-99250000D02*
X105084000Y-99250000D01*
X102000000Y-101500000D02*
X104250000Y-99250000D01*
X84471979Y-100707969D02*
X83707969Y-100707969D01*
X83707969Y-100707969D02*
X82259000Y-99259000D01*
%TO.N,Net-(U13-VDD3_0)*%
X116250000Y-99750000D02*
X115759000Y-99259000D01*
X115759000Y-99259000D02*
X110916000Y-99259000D01*
%TO.N,Net-(U13-VDD2_1)*%
X83750500Y-101500000D02*
X82011500Y-99761000D01*
X102000000Y-102250000D02*
X104489000Y-99761000D01*
X85500000Y-101500000D02*
X83750500Y-101500000D01*
X99500000Y-102250000D02*
X102000000Y-102250000D01*
X82011500Y-99761000D02*
X80916000Y-99761000D01*
X104489000Y-99761000D02*
X105084000Y-99761000D01*
%TO.N,Net-(U13-VDD2_0)*%
X114011000Y-99761000D02*
X115000000Y-100750000D01*
X110916000Y-99761000D02*
X114011000Y-99761000D01*
%TO.N,Net-(U13-VDD1_1)*%
X102000000Y-103000000D02*
X104750000Y-100250000D01*
X80916000Y-100263000D02*
X81763000Y-100263000D01*
X83750000Y-102250000D02*
X84500000Y-102250000D01*
X104750000Y-100250000D02*
X105084000Y-100250000D01*
X81763000Y-100263000D02*
X83750000Y-102250000D01*
X101300000Y-103000000D02*
X102000000Y-103000000D01*
%TO.N,Net-(U13-VDD1_0)*%
X112263000Y-100263000D02*
X113750000Y-101750000D01*
X110916000Y-100263000D02*
X112263000Y-100263000D01*
%TO.N,Net-(U13-RI)*%
X101751000Y-97251000D02*
X105084000Y-97251000D01*
X101750000Y-97250000D02*
X101751000Y-97251000D01*
%TO.N,Net-(U13-NRSTO)*%
X82755000Y-98255000D02*
X80916000Y-98255000D01*
X83707969Y-99207969D02*
X82755000Y-98255000D01*
X84471979Y-99207969D02*
X83707969Y-99207969D01*
X102125000Y-99500000D02*
X103370000Y-98255000D01*
X103370000Y-98255000D02*
X105084000Y-98255000D01*
X101100000Y-99500000D02*
X102125000Y-99500000D01*
%TO.N,Net-(U13-CO)*%
X103708316Y-96247000D02*
X105084000Y-96247000D01*
X102461316Y-95000000D02*
X103708316Y-96247000D01*
X102000000Y-95000000D02*
X102461316Y-95000000D01*
%TO.N,Net-(U13-CLKO)*%
X102750000Y-96750000D02*
X105084000Y-96750000D01*
X102250000Y-96250000D02*
X102750000Y-96750000D01*
%TO.N,Net-(U13-BO)*%
X102997000Y-97753000D02*
X105084000Y-97753000D01*
X101300000Y-98250000D02*
X102500000Y-98250000D01*
X102500000Y-98250000D02*
X102997000Y-97753000D01*
D51*
%TO.N,Net-(J8-Pin_2)*%
X84230000Y-68270000D02*
X79975000Y-72525000D01*
X86125000Y-62400000D02*
X85120000Y-62400000D01*
X85120000Y-62400000D02*
X84230000Y-63290000D01*
X84230000Y-63290000D02*
X84230000Y-68270000D01*
X79975000Y-72525000D02*
X79975000Y-74050000D01*
D50*
%TO.N,Net-(J4-CC2)*%
X95760000Y-53375000D02*
X95760000Y-51560000D01*
X95760000Y-51560000D02*
X95700000Y-51500000D01*
%TO.N,Net-(J4-CC1)*%
X98760000Y-53375000D02*
X98760000Y-51460000D01*
%TO.N,/BM1366-2/CLKI1*%
X71153000Y-125753000D02*
X75084000Y-125753000D01*
X70300000Y-124900000D02*
X71153000Y-125753000D01*
%TO.N,/BM1366-3/CLKI1*%
X116300000Y-151600000D02*
X115400000Y-151600000D01*
X114251000Y-152749000D02*
X110916000Y-152749000D01*
X115400000Y-151600000D02*
X114251000Y-152749000D01*
%TO.N,Net-(U9-MTDO{slash}GPIO40{slash}CLK_OUT2)*%
X118370000Y-56670000D02*
X116700000Y-55000000D01*
X116700000Y-55000000D02*
X116700000Y-53200000D01*
X121850000Y-56670000D02*
X118370000Y-56670000D01*
%TO.N,Net-(U9-MTDI{slash}GPIO41{slash}CLK_OUT1)*%
X119900000Y-55400000D02*
X119200000Y-54700000D01*
X121850000Y-55400000D02*
X119900000Y-55400000D01*
X119200000Y-54700000D02*
X119200000Y-53100000D01*
%TO.N,Net-(U9-MTMS{slash}GPIO42)*%
X121850000Y-54130000D02*
X123070000Y-54130000D01*
X123070000Y-54130000D02*
X123500000Y-53700000D01*
%TD*%
%TA.AperFunction,Conductor*%
%TO.N,/BM1366-2/VDD2*%
G36*
X110062539Y-128019685D02*
G01*
X110108294Y-128072489D01*
X110119500Y-128124000D01*
X110119500Y-128405017D01*
X110130292Y-128473157D01*
X110134354Y-128498804D01*
X110191950Y-128611842D01*
X110191952Y-128611844D01*
X110191954Y-128611847D01*
X110281652Y-128701545D01*
X110281654Y-128701546D01*
X110281658Y-128701550D01*
X110391797Y-128757669D01*
X110394698Y-128759147D01*
X110488475Y-128773999D01*
X110488481Y-128774000D01*
X110722638Y-128773999D01*
X110789676Y-128793683D01*
X110810318Y-128810318D01*
X111963682Y-129963682D01*
X111997166Y-130025003D01*
X112000000Y-130051361D01*
X112000000Y-147948637D01*
X111980315Y-148015676D01*
X111963681Y-148036318D01*
X110810317Y-149189681D01*
X110748994Y-149223166D01*
X110722637Y-149226000D01*
X110488482Y-149226000D01*
X110407519Y-149238823D01*
X110394696Y-149240854D01*
X110281658Y-149298450D01*
X110281656Y-149298450D01*
X110281657Y-149298451D01*
X110281652Y-149298454D01*
X110191954Y-149388152D01*
X110191951Y-149388157D01*
X110191950Y-149388158D01*
X110185327Y-149401157D01*
X110134352Y-149501198D01*
X110119500Y-149594975D01*
X110119500Y-149879017D01*
X110133689Y-149968602D01*
X110133688Y-150007397D01*
X110125452Y-150059398D01*
X110095523Y-150122532D01*
X110036212Y-150159464D01*
X110002979Y-150164000D01*
X105995278Y-150164000D01*
X105928239Y-150144315D01*
X105882484Y-150091511D01*
X105872805Y-150059397D01*
X105866470Y-150019398D01*
X105866470Y-149980602D01*
X105880499Y-149892023D01*
X105880500Y-149892019D01*
X105880499Y-149607982D01*
X105865646Y-149514196D01*
X105808050Y-149401158D01*
X105808046Y-149401154D01*
X105808045Y-149401152D01*
X105718347Y-149311454D01*
X105718344Y-149311452D01*
X105718342Y-149311450D01*
X105641517Y-149272305D01*
X105605301Y-149253852D01*
X105511524Y-149239000D01*
X105290362Y-149239000D01*
X105223323Y-149219315D01*
X105202681Y-149202681D01*
X104036319Y-148036319D01*
X104002834Y-147974996D01*
X104000000Y-147948638D01*
X104000000Y-147852873D01*
X104000389Y-147845934D01*
X104005565Y-147800000D01*
X104000389Y-147754066D01*
X104000000Y-147747126D01*
X104000000Y-130051361D01*
X104019685Y-129984322D01*
X104036314Y-129963685D01*
X105202683Y-128797316D01*
X105264004Y-128763833D01*
X105290359Y-128760999D01*
X105511518Y-128760999D01*
X105605304Y-128746146D01*
X105718342Y-128688550D01*
X105808050Y-128598842D01*
X105865646Y-128485804D01*
X105865646Y-128485802D01*
X105865647Y-128485801D01*
X105880499Y-128392024D01*
X105880500Y-128392019D01*
X105880499Y-128123999D01*
X105900183Y-128056961D01*
X105952987Y-128011206D01*
X106004499Y-128000000D01*
X109995500Y-128000000D01*
X110062539Y-128019685D01*
G37*
%TD.AperFunction*%
%TD*%
%TA.AperFunction,Conductor*%
%TO.N,/BM1366-2/VDD2*%
G36*
X80062539Y-128019685D02*
G01*
X80108294Y-128072489D01*
X80119500Y-128124000D01*
X80119500Y-128405017D01*
X80128217Y-128460053D01*
X80134354Y-128498804D01*
X80191950Y-128611842D01*
X80191952Y-128611844D01*
X80191954Y-128611847D01*
X80281652Y-128701545D01*
X80281654Y-128701546D01*
X80281658Y-128701550D01*
X80394696Y-128759146D01*
X80394698Y-128759147D01*
X80488475Y-128773999D01*
X80488481Y-128774000D01*
X80722638Y-128773999D01*
X80789676Y-128793683D01*
X80810318Y-128810318D01*
X81963681Y-129963681D01*
X81997166Y-130025004D01*
X82000000Y-130051362D01*
X82000000Y-147948637D01*
X81980315Y-148015676D01*
X81963681Y-148036318D01*
X80810317Y-149189681D01*
X80748994Y-149223166D01*
X80722637Y-149226000D01*
X80488482Y-149226000D01*
X80407519Y-149238823D01*
X80394696Y-149240854D01*
X80281658Y-149298450D01*
X80281656Y-149298450D01*
X80281657Y-149298451D01*
X80281652Y-149298454D01*
X80191954Y-149388152D01*
X80191951Y-149388157D01*
X80191950Y-149388158D01*
X80185327Y-149401157D01*
X80134352Y-149501198D01*
X80119500Y-149594975D01*
X80119500Y-149879017D01*
X80133689Y-149968602D01*
X80133688Y-150007397D01*
X80125452Y-150059398D01*
X80095523Y-150122532D01*
X80036212Y-150159464D01*
X80002979Y-150164000D01*
X75995278Y-150164000D01*
X75928239Y-150144315D01*
X75882484Y-150091511D01*
X75872805Y-150059397D01*
X75866470Y-150019398D01*
X75866470Y-149980602D01*
X75880499Y-149892023D01*
X75880500Y-149892019D01*
X75880499Y-149607982D01*
X75865646Y-149514196D01*
X75808050Y-149401158D01*
X75808046Y-149401154D01*
X75808045Y-149401152D01*
X75718347Y-149311454D01*
X75718344Y-149311452D01*
X75718342Y-149311450D01*
X75641517Y-149272305D01*
X75605301Y-149253852D01*
X75511524Y-149239000D01*
X75290362Y-149239000D01*
X75223323Y-149219315D01*
X75202681Y-149202681D01*
X74036952Y-148036952D01*
X74003467Y-147975629D01*
X74001413Y-147963157D01*
X74000388Y-147954060D01*
X74000000Y-147947122D01*
X74000000Y-130051361D01*
X74019685Y-129984322D01*
X74036314Y-129963685D01*
X75202683Y-128797316D01*
X75264004Y-128763833D01*
X75290359Y-128760999D01*
X75511518Y-128760999D01*
X75605304Y-128746146D01*
X75718342Y-128688550D01*
X75808050Y-128598842D01*
X75865646Y-128485804D01*
X75865646Y-128485802D01*
X75865647Y-128485801D01*
X75880499Y-128392024D01*
X75880500Y-128392019D01*
X75880499Y-128123999D01*
X75900183Y-128056961D01*
X75952987Y-128011206D01*
X76004499Y-128000000D01*
X79995500Y-128000000D01*
X80062539Y-128019685D01*
G37*
%TD.AperFunction*%
%TD*%
%TA.AperFunction,Conductor*%
%TO.N,GND*%
G36*
X109765677Y-88269685D02*
G01*
X109786319Y-88286319D01*
X111713682Y-90213682D01*
X111747166Y-90275003D01*
X111750000Y-90301361D01*
X111750000Y-92198637D01*
X111730315Y-92265676D01*
X111713681Y-92286318D01*
X110810317Y-93189681D01*
X110748994Y-93223166D01*
X110722637Y-93226000D01*
X110488482Y-93226000D01*
X110407519Y-93238823D01*
X110394696Y-93240854D01*
X110281658Y-93298450D01*
X110281657Y-93298450D01*
X110281657Y-93298451D01*
X110281652Y-93298454D01*
X110191954Y-93388152D01*
X110191951Y-93388157D01*
X110191950Y-93388158D01*
X110185327Y-93401157D01*
X110134352Y-93501198D01*
X110119500Y-93594975D01*
X110119500Y-93879017D01*
X110128565Y-93936251D01*
X110132948Y-93963927D01*
X110133689Y-93968602D01*
X110133688Y-94007397D01*
X110125452Y-94059398D01*
X110095523Y-94122532D01*
X110036212Y-94159464D01*
X110002979Y-94164000D01*
X105995278Y-94164000D01*
X105928239Y-94144315D01*
X105882484Y-94091511D01*
X105872805Y-94059397D01*
X105866470Y-94019398D01*
X105866470Y-93980602D01*
X105880499Y-93892023D01*
X105880500Y-93892019D01*
X105880499Y-93607982D01*
X105865646Y-93514196D01*
X105808050Y-93401158D01*
X105808046Y-93401154D01*
X105808045Y-93401152D01*
X105718347Y-93311454D01*
X105718344Y-93311452D01*
X105718342Y-93311450D01*
X105641517Y-93272305D01*
X105605301Y-93253852D01*
X105511524Y-93239000D01*
X105511519Y-93239000D01*
X105290362Y-93239000D01*
X105223323Y-93219315D01*
X105202681Y-93202681D01*
X104286319Y-92286319D01*
X104252834Y-92224996D01*
X104250000Y-92198638D01*
X104250000Y-90301361D01*
X104269685Y-90234322D01*
X104286314Y-90213685D01*
X106213681Y-88286319D01*
X106275004Y-88252834D01*
X106301362Y-88250000D01*
X109698638Y-88250000D01*
X109765677Y-88269685D01*
G37*
%TD.AperFunction*%
%TD*%
%TA.AperFunction,Conductor*%
%TO.N,/BM1366-1/VDD1*%
G36*
X80062539Y-100019685D02*
G01*
X80108294Y-100072489D01*
X80119500Y-100124000D01*
X80119500Y-100405017D01*
X80129101Y-100465638D01*
X80134354Y-100498804D01*
X80191950Y-100611842D01*
X80191952Y-100611844D01*
X80191954Y-100611847D01*
X80281652Y-100701545D01*
X80281654Y-100701546D01*
X80281658Y-100701550D01*
X80394696Y-100759146D01*
X80394698Y-100759147D01*
X80488475Y-100773999D01*
X80488481Y-100774000D01*
X80722638Y-100773999D01*
X80789676Y-100793683D01*
X80810318Y-100810318D01*
X81963681Y-101963681D01*
X81997166Y-102025004D01*
X82000000Y-102051362D01*
X82000000Y-119948637D01*
X81980315Y-120015676D01*
X81963681Y-120036318D01*
X80810317Y-121189681D01*
X80748994Y-121223166D01*
X80722637Y-121226000D01*
X80488482Y-121226000D01*
X80407519Y-121238823D01*
X80394696Y-121240854D01*
X80281658Y-121298450D01*
X80281657Y-121298450D01*
X80281657Y-121298451D01*
X80281652Y-121298454D01*
X80191954Y-121388152D01*
X80191951Y-121388157D01*
X80191950Y-121388158D01*
X80185327Y-121401157D01*
X80134352Y-121501198D01*
X80119500Y-121594975D01*
X80119500Y-121879017D01*
X80133689Y-121968602D01*
X80133688Y-122007397D01*
X80125452Y-122059398D01*
X80095523Y-122122532D01*
X80036212Y-122159464D01*
X80002979Y-122164000D01*
X75995278Y-122164000D01*
X75928239Y-122144315D01*
X75882484Y-122091511D01*
X75872805Y-122059397D01*
X75866470Y-122019398D01*
X75866470Y-121980602D01*
X75880499Y-121892023D01*
X75880500Y-121892019D01*
X75880499Y-121607982D01*
X75865646Y-121514196D01*
X75808050Y-121401158D01*
X75808046Y-121401154D01*
X75808045Y-121401152D01*
X75718347Y-121311454D01*
X75718344Y-121311452D01*
X75718342Y-121311450D01*
X75641517Y-121272305D01*
X75605301Y-121253852D01*
X75511524Y-121239000D01*
X75511519Y-121239000D01*
X75290362Y-121239000D01*
X75223323Y-121219315D01*
X75202681Y-121202681D01*
X74036319Y-120036319D01*
X74002834Y-119974996D01*
X74000000Y-119948638D01*
X74000000Y-102051362D01*
X74019685Y-101984323D01*
X74036319Y-101963681D01*
X75202682Y-100797318D01*
X75264005Y-100763833D01*
X75290363Y-100760999D01*
X75511517Y-100760999D01*
X75511518Y-100760999D01*
X75605304Y-100746146D01*
X75718342Y-100688550D01*
X75808050Y-100598842D01*
X75865646Y-100485804D01*
X75865646Y-100485802D01*
X75865647Y-100485801D01*
X75880499Y-100392024D01*
X75880500Y-100392019D01*
X75880499Y-100123999D01*
X75900183Y-100056961D01*
X75952987Y-100011206D01*
X76004499Y-100000000D01*
X79995500Y-100000000D01*
X80062539Y-100019685D01*
G37*
%TD.AperFunction*%
%TD*%
%TA.AperFunction,Conductor*%
%TO.N,/VDD*%
G36*
X110070019Y-155855685D02*
G01*
X110115774Y-155908489D01*
X110125454Y-155940604D01*
X110133689Y-155992603D01*
X110133688Y-156031397D01*
X110119500Y-156120975D01*
X110119500Y-156405017D01*
X110130292Y-156473157D01*
X110134354Y-156498804D01*
X110191950Y-156611842D01*
X110191952Y-156611844D01*
X110191954Y-156611847D01*
X110281652Y-156701545D01*
X110281654Y-156701546D01*
X110281658Y-156701550D01*
X110394696Y-156759146D01*
X110394698Y-156759147D01*
X110488475Y-156773999D01*
X110488481Y-156774000D01*
X110722638Y-156773999D01*
X110789676Y-156793683D01*
X110810318Y-156810318D01*
X111713681Y-157713681D01*
X111747166Y-157775004D01*
X111750000Y-157801362D01*
X111750000Y-159698638D01*
X111730315Y-159765677D01*
X111713681Y-159786319D01*
X109786319Y-161713681D01*
X109724996Y-161747166D01*
X109698638Y-161750000D01*
X106301362Y-161750000D01*
X106234323Y-161730315D01*
X106213681Y-161713681D01*
X104286319Y-159786319D01*
X104252834Y-159724996D01*
X104250000Y-159698638D01*
X104250000Y-157801362D01*
X104269685Y-157734323D01*
X104286319Y-157713681D01*
X105202682Y-156797318D01*
X105264005Y-156763833D01*
X105290363Y-156760999D01*
X105511517Y-156760999D01*
X105511518Y-156760999D01*
X105605304Y-156746146D01*
X105718342Y-156688550D01*
X105808050Y-156598842D01*
X105865646Y-156485804D01*
X105865646Y-156485802D01*
X105865647Y-156485801D01*
X105880499Y-156392024D01*
X105880500Y-156392019D01*
X105880499Y-156107982D01*
X105880499Y-156107976D01*
X105867341Y-156024898D01*
X105867341Y-155986102D01*
X105874548Y-155940601D01*
X105904478Y-155877467D01*
X105963790Y-155840536D01*
X105997021Y-155836000D01*
X110002980Y-155836000D01*
X110070019Y-155855685D01*
G37*
%TD.AperFunction*%
%TD*%
%TA.AperFunction,Conductor*%
%TO.N,/BM1366-1/VDD1*%
G36*
X110062539Y-100019685D02*
G01*
X110108294Y-100072489D01*
X110119500Y-100124000D01*
X110119500Y-100405017D01*
X110130292Y-100473157D01*
X110134354Y-100498804D01*
X110191950Y-100611842D01*
X110191952Y-100611844D01*
X110191954Y-100611847D01*
X110281652Y-100701545D01*
X110281654Y-100701546D01*
X110281658Y-100701550D01*
X110394696Y-100759146D01*
X110394698Y-100759147D01*
X110488475Y-100773999D01*
X110488481Y-100774000D01*
X110722638Y-100773999D01*
X110789676Y-100793683D01*
X110810318Y-100810318D01*
X111963681Y-101963681D01*
X111997166Y-102025004D01*
X112000000Y-102051362D01*
X112000000Y-119948637D01*
X111980315Y-120015676D01*
X111963681Y-120036318D01*
X110810317Y-121189681D01*
X110748994Y-121223166D01*
X110722637Y-121226000D01*
X110488482Y-121226000D01*
X110407519Y-121238823D01*
X110394696Y-121240854D01*
X110281658Y-121298450D01*
X110281656Y-121298450D01*
X110281657Y-121298451D01*
X110281652Y-121298454D01*
X110191954Y-121388152D01*
X110191951Y-121388157D01*
X110191950Y-121388158D01*
X110185327Y-121401157D01*
X110134352Y-121501198D01*
X110119500Y-121594975D01*
X110119500Y-121879017D01*
X110133689Y-121968602D01*
X110133688Y-122007397D01*
X110125452Y-122059398D01*
X110095523Y-122122532D01*
X110036212Y-122159464D01*
X110002979Y-122164000D01*
X105995278Y-122164000D01*
X105928239Y-122144315D01*
X105882484Y-122091511D01*
X105872805Y-122059397D01*
X105866470Y-122019398D01*
X105866470Y-121980602D01*
X105880499Y-121892023D01*
X105880500Y-121892019D01*
X105880499Y-121607982D01*
X105865646Y-121514196D01*
X105808050Y-121401158D01*
X105808046Y-121401154D01*
X105808045Y-121401152D01*
X105718347Y-121311454D01*
X105718344Y-121311452D01*
X105718342Y-121311450D01*
X105641517Y-121272305D01*
X105605301Y-121253852D01*
X105511524Y-121239000D01*
X105290362Y-121239000D01*
X105223323Y-121219315D01*
X105202681Y-121202681D01*
X104036319Y-120036319D01*
X104002834Y-119974996D01*
X104000000Y-119948638D01*
X104000000Y-102051362D01*
X104019685Y-101984323D01*
X104036319Y-101963681D01*
X105202682Y-100797318D01*
X105264005Y-100763833D01*
X105290363Y-100760999D01*
X105511517Y-100760999D01*
X105511518Y-100760999D01*
X105605304Y-100746146D01*
X105718342Y-100688550D01*
X105808050Y-100598842D01*
X105865646Y-100485804D01*
X105865646Y-100485802D01*
X105865647Y-100485801D01*
X105880499Y-100392024D01*
X105880500Y-100392019D01*
X105880499Y-100123999D01*
X105900183Y-100056961D01*
X105952987Y-100011206D01*
X106004499Y-100000000D01*
X109995500Y-100000000D01*
X110062539Y-100019685D01*
G37*
%TD.AperFunction*%
%TD*%
%TA.AperFunction,Conductor*%
%TO.N,/5V*%
G36*
X106653930Y-78800443D02*
G01*
X106675584Y-78803043D01*
X106737680Y-78810500D01*
X106737686Y-78810500D01*
X107102314Y-78810500D01*
X107102320Y-78810500D01*
X107164415Y-78803043D01*
X107186070Y-78800443D01*
X107193469Y-78800000D01*
X124146531Y-78800000D01*
X124153930Y-78800443D01*
X124175584Y-78803043D01*
X124237680Y-78810500D01*
X124237686Y-78810500D01*
X124602314Y-78810500D01*
X124602320Y-78810500D01*
X124664415Y-78803043D01*
X124686070Y-78800443D01*
X124693469Y-78800000D01*
X129076000Y-78800000D01*
X129143039Y-78819685D01*
X129188794Y-78872489D01*
X129200000Y-78924000D01*
X129200000Y-82176000D01*
X129180315Y-82243039D01*
X129127511Y-82288794D01*
X129076000Y-82300000D01*
X127227620Y-82300000D01*
X127160581Y-82280315D01*
X127114826Y-82227511D01*
X127104300Y-82188965D01*
X127085674Y-82011744D01*
X127027179Y-81831716D01*
X126932533Y-81667784D01*
X126805871Y-81527112D01*
X126764127Y-81496783D01*
X126652734Y-81415851D01*
X126652729Y-81415848D01*
X126479807Y-81338857D01*
X126479802Y-81338855D01*
X126334000Y-81307865D01*
X126294646Y-81299500D01*
X126105354Y-81299500D01*
X126072897Y-81306398D01*
X125920197Y-81338855D01*
X125920192Y-81338857D01*
X125747270Y-81415848D01*
X125747265Y-81415851D01*
X125594129Y-81527111D01*
X125467466Y-81667785D01*
X125372821Y-81831715D01*
X125372818Y-81831722D01*
X125317979Y-82000500D01*
X125314326Y-82011744D01*
X125295699Y-82188963D01*
X125269117Y-82253576D01*
X125211819Y-82293561D01*
X125172380Y-82300000D01*
X102699999Y-82300000D01*
X98686337Y-86313661D01*
X98639612Y-86343021D01*
X98550476Y-86374211D01*
X98550475Y-86374212D01*
X98397737Y-86470184D01*
X98270184Y-86597737D01*
X98174212Y-86750475D01*
X98174211Y-86750476D01*
X98143021Y-86839612D01*
X98113661Y-86886337D01*
X96800000Y-88199999D01*
X96800000Y-151976000D01*
X96780315Y-152043039D01*
X96727511Y-152088794D01*
X96676000Y-152100000D01*
X91024500Y-152100000D01*
X90957461Y-152080315D01*
X90911706Y-152027511D01*
X90900500Y-151976000D01*
X90900500Y-127100003D01*
X91394435Y-127100003D01*
X91414630Y-127279249D01*
X91414631Y-127279254D01*
X91474211Y-127449523D01*
X91517074Y-127517738D01*
X91570184Y-127602262D01*
X91697738Y-127729816D01*
X91850478Y-127825789D01*
X91985199Y-127872930D01*
X92020745Y-127885368D01*
X92020750Y-127885369D01*
X92199996Y-127905565D01*
X92200000Y-127905565D01*
X92200004Y-127905565D01*
X92379249Y-127885369D01*
X92379252Y-127885368D01*
X92379255Y-127885368D01*
X92549522Y-127825789D01*
X92702262Y-127729816D01*
X92829816Y-127602262D01*
X92925789Y-127449522D01*
X92985368Y-127279255D01*
X92985369Y-127279249D01*
X93005565Y-127100003D01*
X93005565Y-127099996D01*
X92985369Y-126920750D01*
X92985368Y-126920745D01*
X92961759Y-126853274D01*
X92925789Y-126750478D01*
X92924917Y-126749091D01*
X92886479Y-126687916D01*
X92829816Y-126597738D01*
X92736818Y-126504740D01*
X92703334Y-126443416D01*
X92700500Y-126417059D01*
X92700500Y-123282940D01*
X92720185Y-123215901D01*
X92736819Y-123195259D01*
X92782078Y-123150000D01*
X92829816Y-123102262D01*
X92925789Y-122949522D01*
X92985368Y-122779255D01*
X92990791Y-122731128D01*
X93005565Y-122600003D01*
X93005565Y-122599996D01*
X92985369Y-122420750D01*
X92985368Y-122420745D01*
X92925788Y-122250476D01*
X92844272Y-122120745D01*
X92829816Y-122097738D01*
X92702262Y-121970184D01*
X92599422Y-121905565D01*
X92549523Y-121874211D01*
X92379254Y-121814631D01*
X92379249Y-121814630D01*
X92200004Y-121794435D01*
X92199996Y-121794435D01*
X92020750Y-121814630D01*
X92020745Y-121814631D01*
X91850476Y-121874211D01*
X91697737Y-121970184D01*
X91570184Y-122097737D01*
X91474211Y-122250476D01*
X91414631Y-122420745D01*
X91414630Y-122420750D01*
X91394435Y-122599996D01*
X91394435Y-122600003D01*
X91414630Y-122779249D01*
X91414631Y-122779254D01*
X91474211Y-122949523D01*
X91570184Y-123102262D01*
X91663181Y-123195259D01*
X91696666Y-123256582D01*
X91699500Y-123282940D01*
X91699500Y-126417059D01*
X91679815Y-126484098D01*
X91663182Y-126504740D01*
X91570183Y-126597739D01*
X91474211Y-126750476D01*
X91414631Y-126920745D01*
X91414630Y-126920750D01*
X91394435Y-127099996D01*
X91394435Y-127100003D01*
X90900500Y-127100003D01*
X90900500Y-92143434D01*
X90901031Y-92135333D01*
X90905683Y-92100000D01*
X90905683Y-92099999D01*
X90885044Y-91943238D01*
X90824536Y-91797159D01*
X90769772Y-91725789D01*
X90725624Y-91668254D01*
X90700430Y-91603085D01*
X90700000Y-91592768D01*
X90700000Y-87100000D01*
X87826289Y-87100000D01*
X87760315Y-87080993D01*
X87749521Y-87074210D01*
X87579254Y-87014631D01*
X87579249Y-87014630D01*
X87400004Y-86994435D01*
X87399996Y-86994435D01*
X87220750Y-87014630D01*
X87220745Y-87014631D01*
X87050478Y-87074210D01*
X87039685Y-87080993D01*
X86973711Y-87100000D01*
X86200597Y-87100000D01*
X86133558Y-87080315D01*
X86112916Y-87063681D01*
X85717019Y-86667784D01*
X85255320Y-86206085D01*
X85249979Y-86199994D01*
X85228282Y-86171718D01*
X85102841Y-86075464D01*
X84958632Y-86015730D01*
X84956985Y-86014984D01*
X84800001Y-85994318D01*
X84799999Y-85994318D01*
X84786792Y-85996056D01*
X84764670Y-85998969D01*
X84756573Y-85999500D01*
X82443427Y-85999500D01*
X82435329Y-85998969D01*
X82413207Y-85996056D01*
X82400001Y-85994318D01*
X82399997Y-85994318D01*
X82229431Y-86016772D01*
X82216524Y-86026021D01*
X82097157Y-86075464D01*
X81971719Y-86171716D01*
X81950019Y-86199994D01*
X81944668Y-86206096D01*
X81087083Y-87063681D01*
X81025760Y-87097166D01*
X80999402Y-87100000D01*
X75043490Y-87100000D01*
X74993054Y-87089279D01*
X74879807Y-87038857D01*
X74879802Y-87038855D01*
X74734001Y-87007865D01*
X74694646Y-86999500D01*
X74505354Y-86999500D01*
X74472897Y-87006398D01*
X74320197Y-87038855D01*
X74320192Y-87038857D01*
X74206946Y-87089279D01*
X74156510Y-87100000D01*
X72399999Y-87100000D01*
X70636319Y-88863681D01*
X70574996Y-88897166D01*
X70548638Y-88900000D01*
X65024000Y-88900000D01*
X64956961Y-88880315D01*
X64911206Y-88827511D01*
X64900000Y-88776000D01*
X64900000Y-86551362D01*
X64919685Y-86484323D01*
X64936319Y-86463681D01*
X68063681Y-83336319D01*
X68125004Y-83302834D01*
X68151362Y-83300000D01*
X95999998Y-83300000D01*
X96000000Y-83300000D01*
X100363520Y-78837308D01*
X100424463Y-78803138D01*
X100452181Y-78800000D01*
X106646531Y-78800000D01*
X106653930Y-78800443D01*
G37*
%TD.AperFunction*%
%TD*%
%TA.AperFunction,Conductor*%
%TO.N,/VDD*%
G36*
X80070019Y-155855685D02*
G01*
X80115774Y-155908489D01*
X80125454Y-155940604D01*
X80133689Y-155992603D01*
X80133688Y-156031397D01*
X80119500Y-156120975D01*
X80119500Y-156405017D01*
X80130292Y-156473157D01*
X80134354Y-156498804D01*
X80191950Y-156611842D01*
X80191952Y-156611844D01*
X80191954Y-156611847D01*
X80281652Y-156701545D01*
X80281654Y-156701546D01*
X80281658Y-156701550D01*
X80394696Y-156759146D01*
X80394698Y-156759147D01*
X80488475Y-156773999D01*
X80488481Y-156774000D01*
X80722638Y-156773999D01*
X80789676Y-156793683D01*
X80810318Y-156810318D01*
X81713681Y-157713681D01*
X81747166Y-157775004D01*
X81750000Y-157801362D01*
X81750000Y-158566558D01*
X81730315Y-158633597D01*
X81713682Y-158654238D01*
X81670186Y-158697733D01*
X81670186Y-158697734D01*
X81574211Y-158850476D01*
X81514631Y-159020745D01*
X81514630Y-159020750D01*
X81494435Y-159199996D01*
X81494435Y-159200003D01*
X81514630Y-159379249D01*
X81514631Y-159379254D01*
X81574211Y-159549523D01*
X81666793Y-159696866D01*
X81685793Y-159764103D01*
X81665425Y-159830938D01*
X81649480Y-159850519D01*
X79786319Y-161713681D01*
X79724996Y-161747166D01*
X79698638Y-161750000D01*
X76301362Y-161750000D01*
X76234323Y-161730315D01*
X76213681Y-161713681D01*
X74286319Y-159786319D01*
X74252834Y-159724996D01*
X74250000Y-159698638D01*
X74250000Y-157801362D01*
X74269685Y-157734323D01*
X74286319Y-157713681D01*
X75202682Y-156797318D01*
X75264005Y-156763833D01*
X75290363Y-156760999D01*
X75511517Y-156760999D01*
X75511518Y-156760999D01*
X75605304Y-156746146D01*
X75718342Y-156688550D01*
X75808050Y-156598842D01*
X75865646Y-156485804D01*
X75865646Y-156485802D01*
X75865647Y-156485801D01*
X75880499Y-156392024D01*
X75880500Y-156392019D01*
X75880499Y-156107982D01*
X75880499Y-156107976D01*
X75867341Y-156024898D01*
X75867341Y-155986102D01*
X75874548Y-155940601D01*
X75904478Y-155877467D01*
X75963790Y-155840536D01*
X75997021Y-155836000D01*
X80002980Y-155836000D01*
X80070019Y-155855685D01*
G37*
%TD.AperFunction*%
%TD*%
%TA.AperFunction,Conductor*%
%TO.N,GND*%
G36*
X79765677Y-88269685D02*
G01*
X79786319Y-88286319D01*
X81713682Y-90213682D01*
X81747166Y-90275003D01*
X81750000Y-90301361D01*
X81750000Y-92198637D01*
X81730315Y-92265676D01*
X81713681Y-92286318D01*
X80810317Y-93189681D01*
X80748994Y-93223166D01*
X80722637Y-93226000D01*
X80488482Y-93226000D01*
X80407519Y-93238823D01*
X80394696Y-93240854D01*
X80281658Y-93298450D01*
X80281657Y-93298450D01*
X80281657Y-93298451D01*
X80281652Y-93298454D01*
X80191954Y-93388152D01*
X80191951Y-93388157D01*
X80191950Y-93388158D01*
X80185327Y-93401157D01*
X80134352Y-93501198D01*
X80119500Y-93594975D01*
X80119500Y-93879017D01*
X80128565Y-93936251D01*
X80132948Y-93963927D01*
X80133689Y-93968602D01*
X80133688Y-94007397D01*
X80125452Y-94059398D01*
X80095523Y-94122532D01*
X80036212Y-94159464D01*
X80002979Y-94164000D01*
X75995278Y-94164000D01*
X75928239Y-94144315D01*
X75882484Y-94091511D01*
X75872805Y-94059397D01*
X75866470Y-94019398D01*
X75866470Y-93980602D01*
X75880499Y-93892023D01*
X75880500Y-93892019D01*
X75880499Y-93607982D01*
X75865646Y-93514196D01*
X75808050Y-93401158D01*
X75808046Y-93401154D01*
X75808045Y-93401152D01*
X75718347Y-93311454D01*
X75718344Y-93311452D01*
X75718342Y-93311450D01*
X75641517Y-93272305D01*
X75605301Y-93253852D01*
X75511524Y-93239000D01*
X75511519Y-93239000D01*
X75290362Y-93239000D01*
X75223323Y-93219315D01*
X75202681Y-93202681D01*
X74286319Y-92286319D01*
X74252834Y-92224996D01*
X74250000Y-92198638D01*
X74250000Y-90301361D01*
X74269685Y-90234322D01*
X74286314Y-90213685D01*
X76213681Y-88286319D01*
X76275004Y-88252834D01*
X76301362Y-88250000D01*
X79698638Y-88250000D01*
X79765677Y-88269685D01*
G37*
%TD.AperFunction*%
%TD*%
M02*
