%TF.GenerationSoftware,KiCad,Pcbnew,7.0.7*%
%TF.CreationDate,2023-12-16T21:43:43-07:00*%
%TF.ProjectId,bitaxeHex,62697461-7865-4486-9578-2e6b69636164,0.9*%
%TF.SameCoordinates,Original*%
%TF.FileFunction,Soldermask,Top*%
%TF.FilePolarity,Negative*%
%FSLAX46Y46*%
G04 Gerber Fmt 4.6, Leading zero omitted, Abs format (unit mm)*
G04 Created by KiCad (PCBNEW 7.0.7) date 2023-12-16 21:43:43*
%MOMM*%
%LPD*%
G01*
G04 APERTURE LIST*
G04 Aperture macros list*
%AMRoundRect*
0 Rectangle with rounded corners*
0 $1 Rounding radius*
0 $2 $3 $4 $5 $6 $7 $8 $9 X,Y pos of 4 corners*
0 Add a 4 corners polygon primitive as box body*
4,1,4,$2,$3,$4,$5,$6,$7,$8,$9,$2,$3,0*
0 Add four circle primitives for the rounded corners*
1,1,$1+$1,$2,$3*
1,1,$1+$1,$4,$5*
1,1,$1+$1,$6,$7*
1,1,$1+$1,$8,$9*
0 Add four rect primitives between the rounded corners*
20,1,$1+$1,$2,$3,$4,$5,0*
20,1,$1+$1,$4,$5,$6,$7,0*
20,1,$1+$1,$6,$7,$8,$9,0*
20,1,$1+$1,$8,$9,$2,$3,0*%
%AMFreePoly0*
4,1,33,2.767855,2.265355,2.782500,2.230000,2.782500,1.570000,2.767855,1.534645,2.732500,1.520000,2.172500,1.520000,2.172500,1.020000,2.732500,1.020000,2.767855,1.005355,2.782500,0.970000,2.782500,0.310000,2.767855,0.274645,2.732500,0.260000,2.172500,0.260000,2.172500,-0.260000,2.732500,-0.260000,2.767855,-0.274645,2.782500,-0.310000,2.782500,-0.970000,2.767855,-1.005355,
2.732500,-1.020000,2.172500,-1.020000,2.172500,-1.520000,2.732500,-1.520000,2.767855,-1.534645,2.782500,-1.570000,2.782500,-2.230000,2.767855,-2.265355,2.732500,-2.280000,-2.172500,-2.280000,-2.172500,2.280000,2.732500,2.280000,2.767855,2.265355,2.767855,2.265355,$1*%
G04 Aperture macros list end*
%ADD10R,0.792000X0.221000*%
%ADD11R,4.277000X1.810000*%
%ADD12R,4.277000X4.530000*%
%ADD13C,0.990600*%
%ADD14C,0.787400*%
%ADD15RoundRect,0.135000X0.185000X-0.135000X0.185000X0.135000X-0.185000X0.135000X-0.185000X-0.135000X0*%
%ADD16C,3.200000*%
%ADD17RoundRect,0.250000X-0.625000X0.312500X-0.625000X-0.312500X0.625000X-0.312500X0.625000X0.312500X0*%
%ADD18C,0.800000*%
%ADD19C,6.000000*%
%ADD20R,1.600200X1.168400*%
%ADD21RoundRect,0.140000X-0.140000X-0.170000X0.140000X-0.170000X0.140000X0.170000X-0.140000X0.170000X0*%
%ADD22C,1.295400*%
%ADD23C,1.574800*%
%ADD24R,0.650000X1.372000*%
%ADD25FreePoly0,90.000000*%
%ADD26C,2.000000*%
%ADD27R,0.450000X0.700000*%
%ADD28RoundRect,0.262500X-0.562500X-0.262500X0.562500X-0.262500X0.562500X0.262500X-0.562500X0.262500X0*%
%ADD29RoundRect,0.140000X0.140000X0.170000X-0.140000X0.170000X-0.140000X-0.170000X0.140000X-0.170000X0*%
%ADD30R,3.700000X2.420000*%
%ADD31RoundRect,0.250000X-1.100000X0.325000X-1.100000X-0.325000X1.100000X-0.325000X1.100000X0.325000X0*%
%ADD32RoundRect,0.135000X-0.185000X0.135000X-0.185000X-0.135000X0.185000X-0.135000X0.185000X0.135000X0*%
%ADD33RoundRect,0.250000X0.550000X-1.500000X0.550000X1.500000X-0.550000X1.500000X-0.550000X-1.500000X0*%
%ADD34RoundRect,0.140000X0.170000X-0.140000X0.170000X0.140000X-0.170000X0.140000X-0.170000X-0.140000X0*%
%ADD35C,5.000000*%
%ADD36RoundRect,0.135000X0.135000X0.185000X-0.135000X0.185000X-0.135000X-0.185000X0.135000X-0.185000X0*%
%ADD37RoundRect,0.250000X0.250000X0.475000X-0.250000X0.475000X-0.250000X-0.475000X0.250000X-0.475000X0*%
%ADD38R,0.711200X0.228600*%
%ADD39RoundRect,0.250000X0.475000X-0.250000X0.475000X0.250000X-0.475000X0.250000X-0.475000X-0.250000X0*%
%ADD40R,1.700000X1.700000*%
%ADD41O,1.700000X1.700000*%
%ADD42R,1.500000X0.900000*%
%ADD43R,0.900000X1.500000*%
%ADD44R,0.900000X0.900000*%
%ADD45RoundRect,0.150000X-0.150000X-0.700000X0.150000X-0.700000X0.150000X0.700000X-0.150000X0.700000X0*%
%ADD46RoundRect,0.250000X-0.250000X-1.150000X0.250000X-1.150000X0.250000X1.150000X-0.250000X1.150000X0*%
%ADD47R,1.372000X0.650000*%
%ADD48FreePoly0,180.000000*%
%ADD49RoundRect,0.140000X-0.170000X0.140000X-0.170000X-0.140000X0.170000X-0.140000X0.170000X0.140000X0*%
%ADD50C,0.650000*%
%ADD51R,0.600000X1.060000*%
%ADD52R,0.300000X1.150000*%
%ADD53O,1.000000X2.100000*%
%ADD54O,1.000000X1.800000*%
%ADD55RoundRect,0.250000X1.100000X-0.325000X1.100000X0.325000X-1.100000X0.325000X-1.100000X-0.325000X0*%
%ADD56RoundRect,0.250000X0.650000X-1.000000X0.650000X1.000000X-0.650000X1.000000X-0.650000X-1.000000X0*%
G04 APERTURE END LIST*
D10*
%TO.C,U19*%
X110916000Y-128263000D03*
X110916000Y-127761000D03*
X110916000Y-127259000D03*
X110916000Y-126757000D03*
X110916000Y-126255000D03*
X110916000Y-125753000D03*
X110916000Y-125251000D03*
X110916000Y-124749000D03*
X110916000Y-124247000D03*
X110916000Y-123745000D03*
X110916000Y-123243000D03*
X110916000Y-122741000D03*
X110916000Y-122239000D03*
X110916000Y-121737000D03*
X105084000Y-121750000D03*
X105084000Y-122250000D03*
X105084000Y-122750000D03*
X105084000Y-123250000D03*
X105084000Y-123750000D03*
X105084000Y-124247000D03*
X105084000Y-124750000D03*
X105084000Y-125251000D03*
X105084000Y-125753000D03*
X105084000Y-126255000D03*
X105084000Y-126757000D03*
X105084000Y-127250000D03*
X105084000Y-127761000D03*
X105084000Y-128250000D03*
D11*
X108000000Y-127468000D03*
D12*
X108000000Y-123892000D03*
%TD*%
D13*
%TO.C,J3*%
X129900000Y-57360000D03*
X130916000Y-62440000D03*
X128884000Y-62440000D03*
D14*
X129265000Y-58630000D03*
X130535000Y-58630000D03*
X129265000Y-59900000D03*
X130535000Y-59900000D03*
X129265000Y-61170000D03*
X130535000Y-61170000D03*
%TD*%
D10*
%TO.C,U22*%
X80916000Y-128263000D03*
X80916000Y-127761000D03*
X80916000Y-127259000D03*
X80916000Y-126757000D03*
X80916000Y-126255000D03*
X80916000Y-125753000D03*
X80916000Y-125251000D03*
X80916000Y-124749000D03*
X80916000Y-124247000D03*
X80916000Y-123745000D03*
X80916000Y-123243000D03*
X80916000Y-122741000D03*
X80916000Y-122239000D03*
X80916000Y-121737000D03*
X75084000Y-121750000D03*
X75084000Y-122250000D03*
X75084000Y-122750000D03*
X75084000Y-123250000D03*
X75084000Y-123750000D03*
X75084000Y-124247000D03*
X75084000Y-124750000D03*
X75084000Y-125251000D03*
X75084000Y-125753000D03*
X75084000Y-126255000D03*
X75084000Y-126757000D03*
X75084000Y-127250000D03*
X75084000Y-127761000D03*
X75084000Y-128250000D03*
D11*
X78000000Y-127468000D03*
D12*
X78000000Y-123892000D03*
%TD*%
D15*
%TO.C,R13*%
X89800000Y-54010000D03*
X89800000Y-52990000D03*
%TD*%
D16*
%TO.C,J2*%
X63928000Y-56530000D03*
X63928000Y-49530000D03*
X58928000Y-56530000D03*
X58928000Y-49530000D03*
%TD*%
D17*
%TO.C,R1*%
X71000000Y-60137500D03*
X71000000Y-63062500D03*
%TD*%
D18*
%TO.C,H1*%
X51250000Y-49500000D03*
X51909010Y-47909010D03*
X51909010Y-51090990D03*
X53500000Y-47250000D03*
D19*
X53500000Y-49500000D03*
D18*
X53500000Y-51750000D03*
X55090990Y-47909010D03*
X55090990Y-51090990D03*
X55750000Y-49500000D03*
%TD*%
D16*
%TO.C,J1*%
X74128000Y-56586000D03*
X74128000Y-49586000D03*
X69128000Y-56586000D03*
X69128000Y-49586000D03*
%TD*%
D20*
%TO.C,Y1*%
X101300000Y-56777600D03*
X101300000Y-59622400D03*
%TD*%
D21*
%TO.C,C28*%
X114420000Y-78050000D03*
X115380000Y-78050000D03*
%TD*%
D22*
%TO.C,J6*%
X66960001Y-75080000D03*
D23*
X64800000Y-70000000D03*
X64800000Y-72540000D03*
X64800000Y-75080000D03*
X64800000Y-77620000D03*
%TD*%
D24*
%TO.C,Q2*%
X81730000Y-74000000D03*
X83000000Y-74000000D03*
X84270000Y-74000000D03*
X85540000Y-74000000D03*
D25*
X83635000Y-70592500D03*
%TD*%
D18*
%TO.C,H4*%
X128750000Y-172000000D03*
X129409010Y-170409010D03*
X129409010Y-173590990D03*
X131000000Y-169750000D03*
D19*
X131000000Y-172000000D03*
D18*
X131000000Y-174250000D03*
X132590990Y-170409010D03*
X132590990Y-173590990D03*
X133250000Y-172000000D03*
%TD*%
D26*
%TO.C,FID3*%
X53340000Y-54356000D03*
%TD*%
D27*
%TO.C,Q5*%
X105400000Y-78400000D03*
X106700000Y-78400000D03*
X106050000Y-76400000D03*
%TD*%
D18*
%TO.C,SW2*%
X78675000Y-46700000D03*
D28*
X78775000Y-46775000D03*
X82625000Y-46775000D03*
D18*
X82725000Y-46700000D03*
D28*
X78775000Y-48225000D03*
X82625000Y-48225000D03*
%TD*%
D29*
%TO.C,C29*%
X99380000Y-56800000D03*
X98420000Y-56800000D03*
%TD*%
D30*
%TO.C,L1*%
X92500000Y-69880000D03*
X92500000Y-77120000D03*
%TD*%
D31*
%TO.C,C9*%
X70800000Y-68925000D03*
X70800000Y-71875000D03*
%TD*%
D10*
%TO.C,U27*%
X80916000Y-156263000D03*
X80916000Y-155761000D03*
X80916000Y-155259000D03*
X80916000Y-154757000D03*
X80916000Y-154255000D03*
X80916000Y-153753000D03*
X80916000Y-153251000D03*
X80916000Y-152749000D03*
X80916000Y-152247000D03*
X80916000Y-151745000D03*
X80916000Y-151243000D03*
X80916000Y-150741000D03*
X80916000Y-150239000D03*
X80916000Y-149737000D03*
X75084000Y-149750000D03*
X75084000Y-150250000D03*
X75084000Y-150750000D03*
X75084000Y-151250000D03*
X75084000Y-151750000D03*
X75084000Y-152247000D03*
X75084000Y-152750000D03*
X75084000Y-153251000D03*
X75084000Y-153753000D03*
X75084000Y-154255000D03*
X75084000Y-154757000D03*
X75084000Y-155250000D03*
X75084000Y-155761000D03*
X75084000Y-156250000D03*
D11*
X78000000Y-155468000D03*
D12*
X78000000Y-151892000D03*
%TD*%
D32*
%TO.C,R16*%
X105400000Y-70990000D03*
X105400000Y-72010000D03*
%TD*%
D22*
%TO.C,J5*%
X59060001Y-75080000D03*
D23*
X56900000Y-70000000D03*
X56900000Y-72540000D03*
X56900000Y-75080000D03*
X56900000Y-77620000D03*
%TD*%
D33*
%TO.C,C34*%
X57400000Y-65900000D03*
X57400000Y-60500000D03*
%TD*%
D18*
%TO.C,SW1*%
X86125000Y-46700000D03*
D28*
X86225000Y-46775000D03*
X90075000Y-46775000D03*
D18*
X90175000Y-46700000D03*
D28*
X86225000Y-48225000D03*
X90075000Y-48225000D03*
%TD*%
D34*
%TO.C,C33*%
X88900000Y-173180000D03*
X88900000Y-172220000D03*
%TD*%
D35*
%TO.C,H8*%
X122500000Y-125000000D03*
%TD*%
D10*
%TO.C,U24*%
X110916000Y-156263000D03*
X110916000Y-155761000D03*
X110916000Y-155259000D03*
X110916000Y-154757000D03*
X110916000Y-154255000D03*
X110916000Y-153753000D03*
X110916000Y-153251000D03*
X110916000Y-152749000D03*
X110916000Y-152247000D03*
X110916000Y-151745000D03*
X110916000Y-151243000D03*
X110916000Y-150741000D03*
X110916000Y-150239000D03*
X110916000Y-149737000D03*
X105084000Y-149750000D03*
X105084000Y-150250000D03*
X105084000Y-150750000D03*
X105084000Y-151250000D03*
X105084000Y-151750000D03*
X105084000Y-152247000D03*
X105084000Y-152750000D03*
X105084000Y-153251000D03*
X105084000Y-153753000D03*
X105084000Y-154255000D03*
X105084000Y-154757000D03*
X105084000Y-155250000D03*
X105084000Y-155761000D03*
X105084000Y-156250000D03*
D11*
X108000000Y-155468000D03*
D12*
X108000000Y-151892000D03*
%TD*%
D36*
%TO.C,R7*%
X104010000Y-68250000D03*
X102990000Y-68250000D03*
%TD*%
D35*
%TO.C,H7*%
X62000000Y-125000000D03*
%TD*%
D26*
%TO.C,FID1*%
X132842000Y-54050000D03*
%TD*%
D31*
%TO.C,C10*%
X74500000Y-68925000D03*
X74500000Y-71875000D03*
%TD*%
D29*
%TO.C,C30*%
X99380000Y-59600000D03*
X98420000Y-59600000D03*
%TD*%
D32*
%TO.C,R15*%
X105400000Y-73740000D03*
X105400000Y-74760000D03*
%TD*%
D26*
%TO.C,FID7*%
X58166000Y-173736000D03*
%TD*%
D37*
%TO.C,C155*%
X85700000Y-76300000D03*
X83800000Y-76300000D03*
%TD*%
D38*
%TO.C,U10*%
X84800100Y-54099999D03*
X84800100Y-53600000D03*
X84800100Y-53100001D03*
X83199900Y-53100001D03*
X83199900Y-53600000D03*
X83199900Y-54099999D03*
%TD*%
D31*
%TO.C,C6*%
X78300000Y-68925000D03*
X78300000Y-71875000D03*
%TD*%
D35*
%TO.C,H10*%
X122500000Y-153000000D03*
%TD*%
D10*
%TO.C,U16*%
X80916000Y-100263000D03*
X80916000Y-99761000D03*
X80916000Y-99259000D03*
X80916000Y-98757000D03*
X80916000Y-98255000D03*
X80916000Y-97753000D03*
X80916000Y-97251000D03*
X80916000Y-96749000D03*
X80916000Y-96247000D03*
X80916000Y-95745000D03*
X80916000Y-95243000D03*
X80916000Y-94741000D03*
X80916000Y-94239000D03*
X80916000Y-93737000D03*
X75084000Y-93750000D03*
X75084000Y-94250000D03*
X75084000Y-94750000D03*
X75084000Y-95250000D03*
X75084000Y-95750000D03*
X75084000Y-96247000D03*
X75084000Y-96750000D03*
X75084000Y-97251000D03*
X75084000Y-97753000D03*
X75084000Y-98255000D03*
X75084000Y-98757000D03*
X75084000Y-99250000D03*
X75084000Y-99761000D03*
X75084000Y-100250000D03*
D11*
X78000000Y-99468000D03*
D12*
X78000000Y-95892000D03*
%TD*%
D39*
%TO.C,C153*%
X81550000Y-79450000D03*
X81550000Y-77550000D03*
%TD*%
D35*
%TO.C,H6*%
X122500000Y-97000000D03*
%TD*%
%TO.C,H5*%
X62000000Y-97000000D03*
%TD*%
D40*
%TO.C,J7*%
X125800000Y-55200000D03*
D41*
X125800000Y-57740000D03*
X125800000Y-60280000D03*
X125800000Y-62820000D03*
%TD*%
D42*
%TO.C,U9*%
X104350000Y-47780000D03*
X104350000Y-49050000D03*
X104350000Y-50320000D03*
X104350000Y-51590000D03*
X104350000Y-52860000D03*
X104350000Y-54130000D03*
X104350000Y-55400000D03*
X104350000Y-56670000D03*
X104350000Y-57940000D03*
X104350000Y-59210000D03*
X104350000Y-60480000D03*
X104350000Y-61750000D03*
X104350000Y-63020000D03*
X104350000Y-64290000D03*
D43*
X106115000Y-65540000D03*
X107385000Y-65540000D03*
X108655000Y-65540000D03*
X109925000Y-65540000D03*
X111195000Y-65540000D03*
X112465000Y-65540000D03*
X113735000Y-65540000D03*
X115005000Y-65540000D03*
X116275000Y-65540000D03*
X117545000Y-65540000D03*
X118815000Y-65540000D03*
X120085000Y-65540000D03*
D42*
X121850000Y-64290000D03*
X121850000Y-63020000D03*
X121850000Y-61750000D03*
X121850000Y-60480000D03*
X121850000Y-59210000D03*
X121850000Y-57940000D03*
X121850000Y-56670000D03*
X121850000Y-55400000D03*
X121850000Y-54130000D03*
X121850000Y-52860000D03*
X121850000Y-51590000D03*
X121850000Y-50320000D03*
X121850000Y-49050000D03*
X121850000Y-47780000D03*
D44*
X110200000Y-54100000D03*
X110200000Y-55500000D03*
X110200000Y-56900000D03*
X111600000Y-54100000D03*
X111600000Y-55500000D03*
X111600000Y-56900000D03*
X113000000Y-54100000D03*
X113000000Y-55500000D03*
X113000000Y-56900000D03*
%TD*%
D45*
%TO.C,J8*%
X110650000Y-75450000D03*
X111900000Y-75450000D03*
X113150000Y-75450000D03*
X114400000Y-75450000D03*
X115650000Y-75450000D03*
X116900000Y-75450000D03*
X118150000Y-75450000D03*
X119400000Y-75450000D03*
X120650000Y-75450000D03*
X121900000Y-75450000D03*
X123150000Y-75450000D03*
X124400000Y-75450000D03*
D46*
X108800000Y-72100000D03*
X126250000Y-72100000D03*
%TD*%
D26*
%TO.C,FID5*%
X125984000Y-173228000D03*
%TD*%
D38*
%TO.C,U11*%
X92400100Y-173699999D03*
X92400100Y-173200000D03*
X92400100Y-172700001D03*
X90799900Y-172700001D03*
X90799900Y-173200000D03*
X90799900Y-173699999D03*
%TD*%
D47*
%TO.C,Q1*%
X86100000Y-64570000D03*
X86100000Y-63300000D03*
X86100000Y-62030000D03*
X86100000Y-60760000D03*
D48*
X82692500Y-62665000D03*
%TD*%
D49*
%TO.C,C24*%
X91250000Y-53020000D03*
X91250000Y-53980000D03*
%TD*%
D50*
%TO.C,J4*%
X100400000Y-52300000D03*
X94620000Y-52300000D03*
D51*
X100710000Y-53420000D03*
X99910000Y-53420000D03*
D52*
X98760000Y-53375000D03*
X97760000Y-53375000D03*
X97260000Y-53375000D03*
X96260000Y-53375000D03*
D51*
X95110000Y-53420000D03*
X94310000Y-53420000D03*
X94310000Y-53420000D03*
X95110000Y-53420000D03*
D52*
X95760000Y-53375000D03*
X96760000Y-53375000D03*
X98260000Y-53375000D03*
X99260000Y-53375000D03*
D51*
X99910000Y-53420000D03*
X100710000Y-53420000D03*
D53*
X101830000Y-52800000D03*
D54*
X101830000Y-48620000D03*
D53*
X93190000Y-52800000D03*
D54*
X93190000Y-48620000D03*
%TD*%
D18*
%TO.C,H2*%
X128750000Y-49500000D03*
X129409010Y-47909010D03*
X129409010Y-51090990D03*
X131000000Y-47250000D03*
D19*
X131000000Y-49500000D03*
D18*
X131000000Y-51750000D03*
X132590990Y-47909010D03*
X132590990Y-51090990D03*
X133250000Y-49500000D03*
%TD*%
D55*
%TO.C,C1*%
X75100000Y-63075000D03*
X75100000Y-60125000D03*
%TD*%
D18*
%TO.C,H3*%
X51250000Y-172000000D03*
X51909010Y-170409010D03*
X51909010Y-173590990D03*
X53500000Y-169750000D03*
D19*
X53500000Y-172000000D03*
D18*
X53500000Y-174250000D03*
X55090990Y-170409010D03*
X55090990Y-173590990D03*
X55750000Y-172000000D03*
%TD*%
D35*
%TO.C,H9*%
X62000000Y-153000000D03*
%TD*%
D33*
%TO.C,C35*%
X65700000Y-65900000D03*
X65700000Y-60500000D03*
%TD*%
D37*
%TO.C,C154*%
X85700000Y-78410000D03*
X83800000Y-78410000D03*
%TD*%
D56*
%TO.C,D1*%
X93550000Y-62000000D03*
X93550000Y-58000000D03*
%TD*%
D10*
%TO.C,U13*%
X110916000Y-100263000D03*
X110916000Y-99761000D03*
X110916000Y-99259000D03*
X110916000Y-98757000D03*
X110916000Y-98255000D03*
X110916000Y-97753000D03*
X110916000Y-97251000D03*
X110916000Y-96749000D03*
X110916000Y-96247000D03*
X110916000Y-95745000D03*
X110916000Y-95243000D03*
X110916000Y-94741000D03*
X110916000Y-94239000D03*
X110916000Y-93737000D03*
X105084000Y-93750000D03*
X105084000Y-94250000D03*
X105084000Y-94750000D03*
X105084000Y-95250000D03*
X105084000Y-95750000D03*
X105084000Y-96247000D03*
X105084000Y-96750000D03*
X105084000Y-97251000D03*
X105084000Y-97753000D03*
X105084000Y-98255000D03*
X105084000Y-98757000D03*
X105084000Y-99250000D03*
X105084000Y-99761000D03*
X105084000Y-100250000D03*
D11*
X108000000Y-99468000D03*
D12*
X108000000Y-95892000D03*
%TD*%
M02*
