%TF.GenerationSoftware,KiCad,Pcbnew,7.0.7*%
%TF.CreationDate,2024-01-06T23:01:44-07:00*%
%TF.ProjectId,bitaxeHex,62697461-7865-4486-9578-2e6b69636164,302*%
%TF.SameCoordinates,Original*%
%TF.FileFunction,Legend,Top*%
%TF.FilePolarity,Positive*%
%FSLAX46Y46*%
G04 Gerber Fmt 4.6, Leading zero omitted, Abs format (unit mm)*
G04 Created by KiCad (PCBNEW 7.0.7) date 2024-01-06 23:01:44*
%MOMM*%
%LPD*%
G01*
G04 APERTURE LIST*
G04 Aperture macros list*
%AMRoundRect*
0 Rectangle with rounded corners*
0 $1 Rounding radius*
0 $2 $3 $4 $5 $6 $7 $8 $9 X,Y pos of 4 corners*
0 Add a 4 corners polygon primitive as box body*
4,1,4,$2,$3,$4,$5,$6,$7,$8,$9,$2,$3,0*
0 Add four circle primitives for the rounded corners*
1,1,$1+$1,$2,$3*
1,1,$1+$1,$4,$5*
1,1,$1+$1,$6,$7*
1,1,$1+$1,$8,$9*
0 Add four rect primitives between the rounded corners*
20,1,$1+$1,$2,$3,$4,$5,0*
20,1,$1+$1,$4,$5,$6,$7,0*
20,1,$1+$1,$6,$7,$8,$9,0*
20,1,$1+$1,$8,$9,$2,$3,0*%
G04 Aperture macros list end*
%ADD10C,0.150000*%
%ADD11C,0.200000*%
%ADD12C,0.152400*%
%ADD13C,0.050000*%
%ADD14C,0.227485*%
%ADD15C,0.120000*%
%ADD16C,6.000000*%
%ADD17C,0.800000*%
%ADD18R,0.711200X0.228600*%
%ADD19RoundRect,0.262500X-0.562500X-0.262500X0.562500X-0.262500X0.562500X0.262500X-0.562500X0.262500X0*%
%ADD20R,0.792000X0.221000*%
%ADD21R,4.277000X1.810000*%
%ADD22R,4.277000X4.530000*%
%ADD23C,0.990600*%
%ADD24C,0.787400*%
%ADD25C,1.000000*%
%ADD26RoundRect,0.135000X0.185000X-0.135000X0.185000X0.135000X-0.185000X0.135000X-0.185000X-0.135000X0*%
%ADD27C,3.200000*%
%ADD28R,1.600200X1.168400*%
%ADD29RoundRect,0.140000X-0.140000X-0.170000X0.140000X-0.170000X0.140000X0.170000X-0.140000X0.170000X0*%
%ADD30C,1.295400*%
%ADD31C,1.574800*%
%ADD32RoundRect,0.250000X-0.475000X0.250000X-0.475000X-0.250000X0.475000X-0.250000X0.475000X0.250000X0*%
%ADD33RoundRect,0.135000X0.135000X0.185000X-0.135000X0.185000X-0.135000X-0.185000X0.135000X-0.185000X0*%
%ADD34C,2.000000*%
%ADD35R,0.450000X0.700000*%
%ADD36R,9.000000X2.380000*%
%ADD37RoundRect,0.140000X0.140000X0.170000X-0.140000X0.170000X-0.140000X-0.170000X0.140000X-0.170000X0*%
%ADD38RoundRect,0.225000X-0.225000X-0.250000X0.225000X-0.250000X0.225000X0.250000X-0.225000X0.250000X0*%
%ADD39RoundRect,0.250000X-1.500000X-0.550000X1.500000X-0.550000X1.500000X0.550000X-1.500000X0.550000X0*%
%ADD40RoundRect,0.135000X-0.185000X0.135000X-0.185000X-0.135000X0.185000X-0.135000X0.185000X0.135000X0*%
%ADD41R,1.700000X1.700000*%
%ADD42O,1.700000X1.700000*%
%ADD43RoundRect,0.140000X0.170000X-0.140000X0.170000X0.140000X-0.170000X0.140000X-0.170000X-0.140000X0*%
%ADD44C,5.000000*%
%ADD45RoundRect,0.250000X1.100000X-0.325000X1.100000X0.325000X-1.100000X0.325000X-1.100000X-0.325000X0*%
%ADD46R,1.400000X0.300000*%
%ADD47RoundRect,0.062500X0.062500X-0.337500X0.062500X0.337500X-0.062500X0.337500X-0.062500X-0.337500X0*%
%ADD48RoundRect,0.062500X0.337500X-0.062500X0.337500X0.062500X-0.337500X0.062500X-0.337500X-0.062500X0*%
%ADD49C,0.400000*%
%ADD50R,5.300000X3.300000*%
%ADD51R,1.500000X0.900000*%
%ADD52R,0.900000X1.500000*%
%ADD53R,0.900000X0.900000*%
%ADD54RoundRect,0.150000X-0.150000X-0.700000X0.150000X-0.700000X0.150000X0.700000X-0.150000X0.700000X0*%
%ADD55RoundRect,0.250000X-0.250000X-1.150000X0.250000X-1.150000X0.250000X1.150000X-0.250000X1.150000X0*%
%ADD56RoundRect,0.250000X-0.325000X-1.100000X0.325000X-1.100000X0.325000X1.100000X-0.325000X1.100000X0*%
%ADD57RoundRect,0.140000X-0.170000X0.140000X-0.170000X-0.140000X0.170000X-0.140000X0.170000X0.140000X0*%
%ADD58C,0.650000*%
%ADD59R,0.600000X1.060000*%
%ADD60R,0.300000X1.150000*%
%ADD61O,1.000000X2.100000*%
%ADD62O,1.000000X1.800000*%
%ADD63RoundRect,0.135000X-0.135000X-0.185000X0.135000X-0.185000X0.135000X0.185000X-0.135000X0.185000X0*%
%ADD64RoundRect,0.250000X-0.312500X-0.625000X0.312500X-0.625000X0.312500X0.625000X-0.312500X0.625000X0*%
%ADD65RoundRect,0.250000X-0.250000X-0.475000X0.250000X-0.475000X0.250000X0.475000X-0.250000X0.475000X0*%
%ADD66RoundRect,0.250000X0.650000X-1.000000X0.650000X1.000000X-0.650000X1.000000X-0.650000X-1.000000X0*%
G04 APERTURE END LIST*
D10*
X81986779Y-69338866D02*
X82748684Y-69338866D01*
X82367731Y-69719819D02*
X82367731Y-68957914D01*
D11*
X70903006Y-173592742D02*
X71645863Y-173592742D01*
X71645863Y-173592742D02*
X71245863Y-174049885D01*
X71245863Y-174049885D02*
X71417292Y-174049885D01*
X71417292Y-174049885D02*
X71531578Y-174107028D01*
X71531578Y-174107028D02*
X71588720Y-174164171D01*
X71588720Y-174164171D02*
X71645863Y-174278457D01*
X71645863Y-174278457D02*
X71645863Y-174564171D01*
X71645863Y-174564171D02*
X71588720Y-174678457D01*
X71588720Y-174678457D02*
X71531578Y-174735600D01*
X71531578Y-174735600D02*
X71417292Y-174792742D01*
X71417292Y-174792742D02*
X71074435Y-174792742D01*
X71074435Y-174792742D02*
X70960149Y-174735600D01*
X70960149Y-174735600D02*
X70903006Y-174678457D01*
X72388720Y-173592742D02*
X72503006Y-173592742D01*
X72503006Y-173592742D02*
X72617292Y-173649885D01*
X72617292Y-173649885D02*
X72674435Y-173707028D01*
X72674435Y-173707028D02*
X72731577Y-173821314D01*
X72731577Y-173821314D02*
X72788720Y-174049885D01*
X72788720Y-174049885D02*
X72788720Y-174335600D01*
X72788720Y-174335600D02*
X72731577Y-174564171D01*
X72731577Y-174564171D02*
X72674435Y-174678457D01*
X72674435Y-174678457D02*
X72617292Y-174735600D01*
X72617292Y-174735600D02*
X72503006Y-174792742D01*
X72503006Y-174792742D02*
X72388720Y-174792742D01*
X72388720Y-174792742D02*
X72274435Y-174735600D01*
X72274435Y-174735600D02*
X72217292Y-174678457D01*
X72217292Y-174678457D02*
X72160149Y-174564171D01*
X72160149Y-174564171D02*
X72103006Y-174335600D01*
X72103006Y-174335600D02*
X72103006Y-174049885D01*
X72103006Y-174049885D02*
X72160149Y-173821314D01*
X72160149Y-173821314D02*
X72217292Y-173707028D01*
X72217292Y-173707028D02*
X72274435Y-173649885D01*
X72274435Y-173649885D02*
X72388720Y-173592742D01*
X73245863Y-173707028D02*
X73303006Y-173649885D01*
X73303006Y-173649885D02*
X73417292Y-173592742D01*
X73417292Y-173592742D02*
X73703006Y-173592742D01*
X73703006Y-173592742D02*
X73817292Y-173649885D01*
X73817292Y-173649885D02*
X73874434Y-173707028D01*
X73874434Y-173707028D02*
X73931577Y-173821314D01*
X73931577Y-173821314D02*
X73931577Y-173935600D01*
X73931577Y-173935600D02*
X73874434Y-174107028D01*
X73874434Y-174107028D02*
X73188720Y-174792742D01*
X73188720Y-174792742D02*
X73931577Y-174792742D01*
D10*
X82086779Y-67238866D02*
X82848684Y-67238866D01*
X90838095Y-170979819D02*
X90838095Y-171789342D01*
X90838095Y-171789342D02*
X90885714Y-171884580D01*
X90885714Y-171884580D02*
X90933333Y-171932200D01*
X90933333Y-171932200D02*
X91028571Y-171979819D01*
X91028571Y-171979819D02*
X91219047Y-171979819D01*
X91219047Y-171979819D02*
X91314285Y-171932200D01*
X91314285Y-171932200D02*
X91361904Y-171884580D01*
X91361904Y-171884580D02*
X91409523Y-171789342D01*
X91409523Y-171789342D02*
X91409523Y-170979819D01*
X92028571Y-171408390D02*
X91933333Y-171360771D01*
X91933333Y-171360771D02*
X91885714Y-171313152D01*
X91885714Y-171313152D02*
X91838095Y-171217914D01*
X91838095Y-171217914D02*
X91838095Y-171170295D01*
X91838095Y-171170295D02*
X91885714Y-171075057D01*
X91885714Y-171075057D02*
X91933333Y-171027438D01*
X91933333Y-171027438D02*
X92028571Y-170979819D01*
X92028571Y-170979819D02*
X92219047Y-170979819D01*
X92219047Y-170979819D02*
X92314285Y-171027438D01*
X92314285Y-171027438D02*
X92361904Y-171075057D01*
X92361904Y-171075057D02*
X92409523Y-171170295D01*
X92409523Y-171170295D02*
X92409523Y-171217914D01*
X92409523Y-171217914D02*
X92361904Y-171313152D01*
X92361904Y-171313152D02*
X92314285Y-171360771D01*
X92314285Y-171360771D02*
X92219047Y-171408390D01*
X92219047Y-171408390D02*
X92028571Y-171408390D01*
X92028571Y-171408390D02*
X91933333Y-171456009D01*
X91933333Y-171456009D02*
X91885714Y-171503628D01*
X91885714Y-171503628D02*
X91838095Y-171598866D01*
X91838095Y-171598866D02*
X91838095Y-171789342D01*
X91838095Y-171789342D02*
X91885714Y-171884580D01*
X91885714Y-171884580D02*
X91933333Y-171932200D01*
X91933333Y-171932200D02*
X92028571Y-171979819D01*
X92028571Y-171979819D02*
X92219047Y-171979819D01*
X92219047Y-171979819D02*
X92314285Y-171932200D01*
X92314285Y-171932200D02*
X92361904Y-171884580D01*
X92361904Y-171884580D02*
X92409523Y-171789342D01*
X92409523Y-171789342D02*
X92409523Y-171598866D01*
X92409523Y-171598866D02*
X92361904Y-171503628D01*
X92361904Y-171503628D02*
X92314285Y-171456009D01*
X92314285Y-171456009D02*
X92219047Y-171408390D01*
X106711905Y-120204819D02*
X106711905Y-121014342D01*
X106711905Y-121014342D02*
X106759524Y-121109580D01*
X106759524Y-121109580D02*
X106807143Y-121157200D01*
X106807143Y-121157200D02*
X106902381Y-121204819D01*
X106902381Y-121204819D02*
X107092857Y-121204819D01*
X107092857Y-121204819D02*
X107188095Y-121157200D01*
X107188095Y-121157200D02*
X107235714Y-121109580D01*
X107235714Y-121109580D02*
X107283333Y-121014342D01*
X107283333Y-121014342D02*
X107283333Y-120204819D01*
X108283333Y-121204819D02*
X107711905Y-121204819D01*
X107997619Y-121204819D02*
X107997619Y-120204819D01*
X107997619Y-120204819D02*
X107902381Y-120347676D01*
X107902381Y-120347676D02*
X107807143Y-120442914D01*
X107807143Y-120442914D02*
X107711905Y-120490533D01*
X108854762Y-120633390D02*
X108759524Y-120585771D01*
X108759524Y-120585771D02*
X108711905Y-120538152D01*
X108711905Y-120538152D02*
X108664286Y-120442914D01*
X108664286Y-120442914D02*
X108664286Y-120395295D01*
X108664286Y-120395295D02*
X108711905Y-120300057D01*
X108711905Y-120300057D02*
X108759524Y-120252438D01*
X108759524Y-120252438D02*
X108854762Y-120204819D01*
X108854762Y-120204819D02*
X109045238Y-120204819D01*
X109045238Y-120204819D02*
X109140476Y-120252438D01*
X109140476Y-120252438D02*
X109188095Y-120300057D01*
X109188095Y-120300057D02*
X109235714Y-120395295D01*
X109235714Y-120395295D02*
X109235714Y-120442914D01*
X109235714Y-120442914D02*
X109188095Y-120538152D01*
X109188095Y-120538152D02*
X109140476Y-120585771D01*
X109140476Y-120585771D02*
X109045238Y-120633390D01*
X109045238Y-120633390D02*
X108854762Y-120633390D01*
X108854762Y-120633390D02*
X108759524Y-120681009D01*
X108759524Y-120681009D02*
X108711905Y-120728628D01*
X108711905Y-120728628D02*
X108664286Y-120823866D01*
X108664286Y-120823866D02*
X108664286Y-121014342D01*
X108664286Y-121014342D02*
X108711905Y-121109580D01*
X108711905Y-121109580D02*
X108759524Y-121157200D01*
X108759524Y-121157200D02*
X108854762Y-121204819D01*
X108854762Y-121204819D02*
X109045238Y-121204819D01*
X109045238Y-121204819D02*
X109140476Y-121157200D01*
X109140476Y-121157200D02*
X109188095Y-121109580D01*
X109188095Y-121109580D02*
X109235714Y-121014342D01*
X109235714Y-121014342D02*
X109235714Y-120823866D01*
X109235714Y-120823866D02*
X109188095Y-120728628D01*
X109188095Y-120728628D02*
X109140476Y-120681009D01*
X109140476Y-120681009D02*
X109045238Y-120633390D01*
X129516666Y-63254819D02*
X129516666Y-63969104D01*
X129516666Y-63969104D02*
X129469047Y-64111961D01*
X129469047Y-64111961D02*
X129373809Y-64207200D01*
X129373809Y-64207200D02*
X129230952Y-64254819D01*
X129230952Y-64254819D02*
X129135714Y-64254819D01*
X130421428Y-63254819D02*
X130230952Y-63254819D01*
X130230952Y-63254819D02*
X130135714Y-63302438D01*
X130135714Y-63302438D02*
X130088095Y-63350057D01*
X130088095Y-63350057D02*
X129992857Y-63492914D01*
X129992857Y-63492914D02*
X129945238Y-63683390D01*
X129945238Y-63683390D02*
X129945238Y-64064342D01*
X129945238Y-64064342D02*
X129992857Y-64159580D01*
X129992857Y-64159580D02*
X130040476Y-64207200D01*
X130040476Y-64207200D02*
X130135714Y-64254819D01*
X130135714Y-64254819D02*
X130326190Y-64254819D01*
X130326190Y-64254819D02*
X130421428Y-64207200D01*
X130421428Y-64207200D02*
X130469047Y-64159580D01*
X130469047Y-64159580D02*
X130516666Y-64064342D01*
X130516666Y-64064342D02*
X130516666Y-63826247D01*
X130516666Y-63826247D02*
X130469047Y-63731009D01*
X130469047Y-63731009D02*
X130421428Y-63683390D01*
X130421428Y-63683390D02*
X130326190Y-63635771D01*
X130326190Y-63635771D02*
X130135714Y-63635771D01*
X130135714Y-63635771D02*
X130040476Y-63683390D01*
X130040476Y-63683390D02*
X129992857Y-63731009D01*
X129992857Y-63731009D02*
X129945238Y-63826247D01*
X76761905Y-120204819D02*
X76761905Y-121014342D01*
X76761905Y-121014342D02*
X76809524Y-121109580D01*
X76809524Y-121109580D02*
X76857143Y-121157200D01*
X76857143Y-121157200D02*
X76952381Y-121204819D01*
X76952381Y-121204819D02*
X77142857Y-121204819D01*
X77142857Y-121204819D02*
X77238095Y-121157200D01*
X77238095Y-121157200D02*
X77285714Y-121109580D01*
X77285714Y-121109580D02*
X77333333Y-121014342D01*
X77333333Y-121014342D02*
X77333333Y-120204819D01*
X77761905Y-120300057D02*
X77809524Y-120252438D01*
X77809524Y-120252438D02*
X77904762Y-120204819D01*
X77904762Y-120204819D02*
X78142857Y-120204819D01*
X78142857Y-120204819D02*
X78238095Y-120252438D01*
X78238095Y-120252438D02*
X78285714Y-120300057D01*
X78285714Y-120300057D02*
X78333333Y-120395295D01*
X78333333Y-120395295D02*
X78333333Y-120490533D01*
X78333333Y-120490533D02*
X78285714Y-120633390D01*
X78285714Y-120633390D02*
X77714286Y-121204819D01*
X77714286Y-121204819D02*
X78333333Y-121204819D01*
X78952381Y-120204819D02*
X79047619Y-120204819D01*
X79047619Y-120204819D02*
X79142857Y-120252438D01*
X79142857Y-120252438D02*
X79190476Y-120300057D01*
X79190476Y-120300057D02*
X79238095Y-120395295D01*
X79238095Y-120395295D02*
X79285714Y-120585771D01*
X79285714Y-120585771D02*
X79285714Y-120823866D01*
X79285714Y-120823866D02*
X79238095Y-121014342D01*
X79238095Y-121014342D02*
X79190476Y-121109580D01*
X79190476Y-121109580D02*
X79142857Y-121157200D01*
X79142857Y-121157200D02*
X79047619Y-121204819D01*
X79047619Y-121204819D02*
X78952381Y-121204819D01*
X78952381Y-121204819D02*
X78857143Y-121157200D01*
X78857143Y-121157200D02*
X78809524Y-121109580D01*
X78809524Y-121109580D02*
X78761905Y-121014342D01*
X78761905Y-121014342D02*
X78714286Y-120823866D01*
X78714286Y-120823866D02*
X78714286Y-120585771D01*
X78714286Y-120585771D02*
X78761905Y-120395295D01*
X78761905Y-120395295D02*
X78809524Y-120300057D01*
X78809524Y-120300057D02*
X78857143Y-120252438D01*
X78857143Y-120252438D02*
X78952381Y-120204819D01*
X80113095Y-70304819D02*
X80684523Y-70304819D01*
X80398809Y-71304819D02*
X80398809Y-70304819D01*
X81017857Y-71304819D02*
X81017857Y-70304819D01*
X81017857Y-70304819D02*
X81398809Y-70304819D01*
X81398809Y-70304819D02*
X81494047Y-70352438D01*
X81494047Y-70352438D02*
X81541666Y-70400057D01*
X81541666Y-70400057D02*
X81589285Y-70495295D01*
X81589285Y-70495295D02*
X81589285Y-70638152D01*
X81589285Y-70638152D02*
X81541666Y-70733390D01*
X81541666Y-70733390D02*
X81494047Y-70781009D01*
X81494047Y-70781009D02*
X81398809Y-70828628D01*
X81398809Y-70828628D02*
X81017857Y-70828628D01*
X82446428Y-70638152D02*
X82446428Y-71304819D01*
X82208333Y-70257200D02*
X81970238Y-70971485D01*
X81970238Y-70971485D02*
X82589285Y-70971485D01*
X89554819Y-55742857D02*
X89078628Y-56076190D01*
X89554819Y-56314285D02*
X88554819Y-56314285D01*
X88554819Y-56314285D02*
X88554819Y-55933333D01*
X88554819Y-55933333D02*
X88602438Y-55838095D01*
X88602438Y-55838095D02*
X88650057Y-55790476D01*
X88650057Y-55790476D02*
X88745295Y-55742857D01*
X88745295Y-55742857D02*
X88888152Y-55742857D01*
X88888152Y-55742857D02*
X88983390Y-55790476D01*
X88983390Y-55790476D02*
X89031009Y-55838095D01*
X89031009Y-55838095D02*
X89078628Y-55933333D01*
X89078628Y-55933333D02*
X89078628Y-56314285D01*
X89554819Y-54790476D02*
X89554819Y-55361904D01*
X89554819Y-55076190D02*
X88554819Y-55076190D01*
X88554819Y-55076190D02*
X88697676Y-55171428D01*
X88697676Y-55171428D02*
X88792914Y-55266666D01*
X88792914Y-55266666D02*
X88840533Y-55361904D01*
X88983390Y-54219047D02*
X88935771Y-54314285D01*
X88935771Y-54314285D02*
X88888152Y-54361904D01*
X88888152Y-54361904D02*
X88792914Y-54409523D01*
X88792914Y-54409523D02*
X88745295Y-54409523D01*
X88745295Y-54409523D02*
X88650057Y-54361904D01*
X88650057Y-54361904D02*
X88602438Y-54314285D01*
X88602438Y-54314285D02*
X88554819Y-54219047D01*
X88554819Y-54219047D02*
X88554819Y-54028571D01*
X88554819Y-54028571D02*
X88602438Y-53933333D01*
X88602438Y-53933333D02*
X88650057Y-53885714D01*
X88650057Y-53885714D02*
X88745295Y-53838095D01*
X88745295Y-53838095D02*
X88792914Y-53838095D01*
X88792914Y-53838095D02*
X88888152Y-53885714D01*
X88888152Y-53885714D02*
X88935771Y-53933333D01*
X88935771Y-53933333D02*
X88983390Y-54028571D01*
X88983390Y-54028571D02*
X88983390Y-54219047D01*
X88983390Y-54219047D02*
X89031009Y-54314285D01*
X89031009Y-54314285D02*
X89078628Y-54361904D01*
X89078628Y-54361904D02*
X89173866Y-54409523D01*
X89173866Y-54409523D02*
X89364342Y-54409523D01*
X89364342Y-54409523D02*
X89459580Y-54361904D01*
X89459580Y-54361904D02*
X89507200Y-54314285D01*
X89507200Y-54314285D02*
X89554819Y-54219047D01*
X89554819Y-54219047D02*
X89554819Y-54028571D01*
X89554819Y-54028571D02*
X89507200Y-53933333D01*
X89507200Y-53933333D02*
X89459580Y-53885714D01*
X89459580Y-53885714D02*
X89364342Y-53838095D01*
X89364342Y-53838095D02*
X89173866Y-53838095D01*
X89173866Y-53838095D02*
X89078628Y-53885714D01*
X89078628Y-53885714D02*
X89031009Y-53933333D01*
X89031009Y-53933333D02*
X88983390Y-54028571D01*
X100823809Y-61128628D02*
X100823809Y-61604819D01*
X100490476Y-60604819D02*
X100823809Y-61128628D01*
X100823809Y-61128628D02*
X101157142Y-60604819D01*
X102014285Y-61604819D02*
X101442857Y-61604819D01*
X101728571Y-61604819D02*
X101728571Y-60604819D01*
X101728571Y-60604819D02*
X101633333Y-60747676D01*
X101633333Y-60747676D02*
X101538095Y-60842914D01*
X101538095Y-60842914D02*
X101442857Y-60890533D01*
X111857142Y-78509580D02*
X111809523Y-78557200D01*
X111809523Y-78557200D02*
X111666666Y-78604819D01*
X111666666Y-78604819D02*
X111571428Y-78604819D01*
X111571428Y-78604819D02*
X111428571Y-78557200D01*
X111428571Y-78557200D02*
X111333333Y-78461961D01*
X111333333Y-78461961D02*
X111285714Y-78366723D01*
X111285714Y-78366723D02*
X111238095Y-78176247D01*
X111238095Y-78176247D02*
X111238095Y-78033390D01*
X111238095Y-78033390D02*
X111285714Y-77842914D01*
X111285714Y-77842914D02*
X111333333Y-77747676D01*
X111333333Y-77747676D02*
X111428571Y-77652438D01*
X111428571Y-77652438D02*
X111571428Y-77604819D01*
X111571428Y-77604819D02*
X111666666Y-77604819D01*
X111666666Y-77604819D02*
X111809523Y-77652438D01*
X111809523Y-77652438D02*
X111857142Y-77700057D01*
X112190476Y-77604819D02*
X112809523Y-77604819D01*
X112809523Y-77604819D02*
X112476190Y-77985771D01*
X112476190Y-77985771D02*
X112619047Y-77985771D01*
X112619047Y-77985771D02*
X112714285Y-78033390D01*
X112714285Y-78033390D02*
X112761904Y-78081009D01*
X112761904Y-78081009D02*
X112809523Y-78176247D01*
X112809523Y-78176247D02*
X112809523Y-78414342D01*
X112809523Y-78414342D02*
X112761904Y-78509580D01*
X112761904Y-78509580D02*
X112714285Y-78557200D01*
X112714285Y-78557200D02*
X112619047Y-78604819D01*
X112619047Y-78604819D02*
X112333333Y-78604819D01*
X112333333Y-78604819D02*
X112238095Y-78557200D01*
X112238095Y-78557200D02*
X112190476Y-78509580D01*
X113666666Y-77938152D02*
X113666666Y-78604819D01*
X113428571Y-77557200D02*
X113190476Y-78271485D01*
X113190476Y-78271485D02*
X113809523Y-78271485D01*
X79691666Y-61529819D02*
X79691666Y-62244104D01*
X79691666Y-62244104D02*
X79644047Y-62386961D01*
X79644047Y-62386961D02*
X79548809Y-62482200D01*
X79548809Y-62482200D02*
X79405952Y-62529819D01*
X79405952Y-62529819D02*
X79310714Y-62529819D01*
X80310714Y-61958390D02*
X80215476Y-61910771D01*
X80215476Y-61910771D02*
X80167857Y-61863152D01*
X80167857Y-61863152D02*
X80120238Y-61767914D01*
X80120238Y-61767914D02*
X80120238Y-61720295D01*
X80120238Y-61720295D02*
X80167857Y-61625057D01*
X80167857Y-61625057D02*
X80215476Y-61577438D01*
X80215476Y-61577438D02*
X80310714Y-61529819D01*
X80310714Y-61529819D02*
X80501190Y-61529819D01*
X80501190Y-61529819D02*
X80596428Y-61577438D01*
X80596428Y-61577438D02*
X80644047Y-61625057D01*
X80644047Y-61625057D02*
X80691666Y-61720295D01*
X80691666Y-61720295D02*
X80691666Y-61767914D01*
X80691666Y-61767914D02*
X80644047Y-61863152D01*
X80644047Y-61863152D02*
X80596428Y-61910771D01*
X80596428Y-61910771D02*
X80501190Y-61958390D01*
X80501190Y-61958390D02*
X80310714Y-61958390D01*
X80310714Y-61958390D02*
X80215476Y-62006009D01*
X80215476Y-62006009D02*
X80167857Y-62053628D01*
X80167857Y-62053628D02*
X80120238Y-62148866D01*
X80120238Y-62148866D02*
X80120238Y-62339342D01*
X80120238Y-62339342D02*
X80167857Y-62434580D01*
X80167857Y-62434580D02*
X80215476Y-62482200D01*
X80215476Y-62482200D02*
X80310714Y-62529819D01*
X80310714Y-62529819D02*
X80501190Y-62529819D01*
X80501190Y-62529819D02*
X80596428Y-62482200D01*
X80596428Y-62482200D02*
X80644047Y-62434580D01*
X80644047Y-62434580D02*
X80691666Y-62339342D01*
X80691666Y-62339342D02*
X80691666Y-62148866D01*
X80691666Y-62148866D02*
X80644047Y-62053628D01*
X80644047Y-62053628D02*
X80596428Y-62006009D01*
X80596428Y-62006009D02*
X80501190Y-61958390D01*
X56984580Y-81892857D02*
X57032200Y-81940476D01*
X57032200Y-81940476D02*
X57079819Y-82083333D01*
X57079819Y-82083333D02*
X57079819Y-82178571D01*
X57079819Y-82178571D02*
X57032200Y-82321428D01*
X57032200Y-82321428D02*
X56936961Y-82416666D01*
X56936961Y-82416666D02*
X56841723Y-82464285D01*
X56841723Y-82464285D02*
X56651247Y-82511904D01*
X56651247Y-82511904D02*
X56508390Y-82511904D01*
X56508390Y-82511904D02*
X56317914Y-82464285D01*
X56317914Y-82464285D02*
X56222676Y-82416666D01*
X56222676Y-82416666D02*
X56127438Y-82321428D01*
X56127438Y-82321428D02*
X56079819Y-82178571D01*
X56079819Y-82178571D02*
X56079819Y-82083333D01*
X56079819Y-82083333D02*
X56127438Y-81940476D01*
X56127438Y-81940476D02*
X56175057Y-81892857D01*
X56175057Y-81511904D02*
X56127438Y-81464285D01*
X56127438Y-81464285D02*
X56079819Y-81369047D01*
X56079819Y-81369047D02*
X56079819Y-81130952D01*
X56079819Y-81130952D02*
X56127438Y-81035714D01*
X56127438Y-81035714D02*
X56175057Y-80988095D01*
X56175057Y-80988095D02*
X56270295Y-80940476D01*
X56270295Y-80940476D02*
X56365533Y-80940476D01*
X56365533Y-80940476D02*
X56508390Y-80988095D01*
X56508390Y-80988095D02*
X57079819Y-81559523D01*
X57079819Y-81559523D02*
X57079819Y-80940476D01*
X56079819Y-80607142D02*
X56079819Y-79988095D01*
X56079819Y-79988095D02*
X56460771Y-80321428D01*
X56460771Y-80321428D02*
X56460771Y-80178571D01*
X56460771Y-80178571D02*
X56508390Y-80083333D01*
X56508390Y-80083333D02*
X56556009Y-80035714D01*
X56556009Y-80035714D02*
X56651247Y-79988095D01*
X56651247Y-79988095D02*
X56889342Y-79988095D01*
X56889342Y-79988095D02*
X56984580Y-80035714D01*
X56984580Y-80035714D02*
X57032200Y-80083333D01*
X57032200Y-80083333D02*
X57079819Y-80178571D01*
X57079819Y-80178571D02*
X57079819Y-80464285D01*
X57079819Y-80464285D02*
X57032200Y-80559523D01*
X57032200Y-80559523D02*
X56984580Y-80607142D01*
X85207142Y-68179819D02*
X84873809Y-67703628D01*
X84635714Y-68179819D02*
X84635714Y-67179819D01*
X84635714Y-67179819D02*
X85016666Y-67179819D01*
X85016666Y-67179819D02*
X85111904Y-67227438D01*
X85111904Y-67227438D02*
X85159523Y-67275057D01*
X85159523Y-67275057D02*
X85207142Y-67370295D01*
X85207142Y-67370295D02*
X85207142Y-67513152D01*
X85207142Y-67513152D02*
X85159523Y-67608390D01*
X85159523Y-67608390D02*
X85111904Y-67656009D01*
X85111904Y-67656009D02*
X85016666Y-67703628D01*
X85016666Y-67703628D02*
X84635714Y-67703628D01*
X85588095Y-67275057D02*
X85635714Y-67227438D01*
X85635714Y-67227438D02*
X85730952Y-67179819D01*
X85730952Y-67179819D02*
X85969047Y-67179819D01*
X85969047Y-67179819D02*
X86064285Y-67227438D01*
X86064285Y-67227438D02*
X86111904Y-67275057D01*
X86111904Y-67275057D02*
X86159523Y-67370295D01*
X86159523Y-67370295D02*
X86159523Y-67465533D01*
X86159523Y-67465533D02*
X86111904Y-67608390D01*
X86111904Y-67608390D02*
X85540476Y-68179819D01*
X85540476Y-68179819D02*
X86159523Y-68179819D01*
X86492857Y-67179819D02*
X87159523Y-67179819D01*
X87159523Y-67179819D02*
X86730952Y-68179819D01*
X108304761Y-78150057D02*
X108209523Y-78102438D01*
X108209523Y-78102438D02*
X108114285Y-78007200D01*
X108114285Y-78007200D02*
X107971428Y-77864342D01*
X107971428Y-77864342D02*
X107876190Y-77816723D01*
X107876190Y-77816723D02*
X107780952Y-77816723D01*
X107828571Y-78054819D02*
X107733333Y-78007200D01*
X107733333Y-78007200D02*
X107638095Y-77911961D01*
X107638095Y-77911961D02*
X107590476Y-77721485D01*
X107590476Y-77721485D02*
X107590476Y-77388152D01*
X107590476Y-77388152D02*
X107638095Y-77197676D01*
X107638095Y-77197676D02*
X107733333Y-77102438D01*
X107733333Y-77102438D02*
X107828571Y-77054819D01*
X107828571Y-77054819D02*
X108019047Y-77054819D01*
X108019047Y-77054819D02*
X108114285Y-77102438D01*
X108114285Y-77102438D02*
X108209523Y-77197676D01*
X108209523Y-77197676D02*
X108257142Y-77388152D01*
X108257142Y-77388152D02*
X108257142Y-77721485D01*
X108257142Y-77721485D02*
X108209523Y-77911961D01*
X108209523Y-77911961D02*
X108114285Y-78007200D01*
X108114285Y-78007200D02*
X108019047Y-78054819D01*
X108019047Y-78054819D02*
X107828571Y-78054819D01*
X109209523Y-78054819D02*
X108638095Y-78054819D01*
X108923809Y-78054819D02*
X108923809Y-77054819D01*
X108923809Y-77054819D02*
X108828571Y-77197676D01*
X108828571Y-77197676D02*
X108733333Y-77292914D01*
X108733333Y-77292914D02*
X108638095Y-77340533D01*
X77158333Y-75354819D02*
X76682143Y-75354819D01*
X76682143Y-75354819D02*
X76682143Y-74354819D01*
X77444048Y-74450057D02*
X77491667Y-74402438D01*
X77491667Y-74402438D02*
X77586905Y-74354819D01*
X77586905Y-74354819D02*
X77825000Y-74354819D01*
X77825000Y-74354819D02*
X77920238Y-74402438D01*
X77920238Y-74402438D02*
X77967857Y-74450057D01*
X77967857Y-74450057D02*
X78015476Y-74545295D01*
X78015476Y-74545295D02*
X78015476Y-74640533D01*
X78015476Y-74640533D02*
X77967857Y-74783390D01*
X77967857Y-74783390D02*
X77396429Y-75354819D01*
X77396429Y-75354819D02*
X78015476Y-75354819D01*
X52027142Y-64509580D02*
X51979523Y-64557200D01*
X51979523Y-64557200D02*
X51836666Y-64604819D01*
X51836666Y-64604819D02*
X51741428Y-64604819D01*
X51741428Y-64604819D02*
X51598571Y-64557200D01*
X51598571Y-64557200D02*
X51503333Y-64461961D01*
X51503333Y-64461961D02*
X51455714Y-64366723D01*
X51455714Y-64366723D02*
X51408095Y-64176247D01*
X51408095Y-64176247D02*
X51408095Y-64033390D01*
X51408095Y-64033390D02*
X51455714Y-63842914D01*
X51455714Y-63842914D02*
X51503333Y-63747676D01*
X51503333Y-63747676D02*
X51598571Y-63652438D01*
X51598571Y-63652438D02*
X51741428Y-63604819D01*
X51741428Y-63604819D02*
X51836666Y-63604819D01*
X51836666Y-63604819D02*
X51979523Y-63652438D01*
X51979523Y-63652438D02*
X52027142Y-63700057D01*
X52979523Y-64604819D02*
X52408095Y-64604819D01*
X52693809Y-64604819D02*
X52693809Y-63604819D01*
X52693809Y-63604819D02*
X52598571Y-63747676D01*
X52598571Y-63747676D02*
X52503333Y-63842914D01*
X52503333Y-63842914D02*
X52408095Y-63890533D01*
X53312857Y-63604819D02*
X53931904Y-63604819D01*
X53931904Y-63604819D02*
X53598571Y-63985771D01*
X53598571Y-63985771D02*
X53741428Y-63985771D01*
X53741428Y-63985771D02*
X53836666Y-64033390D01*
X53836666Y-64033390D02*
X53884285Y-64081009D01*
X53884285Y-64081009D02*
X53931904Y-64176247D01*
X53931904Y-64176247D02*
X53931904Y-64414342D01*
X53931904Y-64414342D02*
X53884285Y-64509580D01*
X53884285Y-64509580D02*
X53836666Y-64557200D01*
X53836666Y-64557200D02*
X53741428Y-64604819D01*
X53741428Y-64604819D02*
X53455714Y-64604819D01*
X53455714Y-64604819D02*
X53360476Y-64557200D01*
X53360476Y-64557200D02*
X53312857Y-64509580D01*
X53808333Y-80709580D02*
X53760714Y-80757200D01*
X53760714Y-80757200D02*
X53617857Y-80804819D01*
X53617857Y-80804819D02*
X53522619Y-80804819D01*
X53522619Y-80804819D02*
X53379762Y-80757200D01*
X53379762Y-80757200D02*
X53284524Y-80661961D01*
X53284524Y-80661961D02*
X53236905Y-80566723D01*
X53236905Y-80566723D02*
X53189286Y-80376247D01*
X53189286Y-80376247D02*
X53189286Y-80233390D01*
X53189286Y-80233390D02*
X53236905Y-80042914D01*
X53236905Y-80042914D02*
X53284524Y-79947676D01*
X53284524Y-79947676D02*
X53379762Y-79852438D01*
X53379762Y-79852438D02*
X53522619Y-79804819D01*
X53522619Y-79804819D02*
X53617857Y-79804819D01*
X53617857Y-79804819D02*
X53760714Y-79852438D01*
X53760714Y-79852438D02*
X53808333Y-79900057D01*
X54713095Y-79804819D02*
X54236905Y-79804819D01*
X54236905Y-79804819D02*
X54189286Y-80281009D01*
X54189286Y-80281009D02*
X54236905Y-80233390D01*
X54236905Y-80233390D02*
X54332143Y-80185771D01*
X54332143Y-80185771D02*
X54570238Y-80185771D01*
X54570238Y-80185771D02*
X54665476Y-80233390D01*
X54665476Y-80233390D02*
X54713095Y-80281009D01*
X54713095Y-80281009D02*
X54760714Y-80376247D01*
X54760714Y-80376247D02*
X54760714Y-80614342D01*
X54760714Y-80614342D02*
X54713095Y-80709580D01*
X54713095Y-80709580D02*
X54665476Y-80757200D01*
X54665476Y-80757200D02*
X54570238Y-80804819D01*
X54570238Y-80804819D02*
X54332143Y-80804819D01*
X54332143Y-80804819D02*
X54236905Y-80757200D01*
X54236905Y-80757200D02*
X54189286Y-80709580D01*
X95957142Y-57259580D02*
X95909523Y-57307200D01*
X95909523Y-57307200D02*
X95766666Y-57354819D01*
X95766666Y-57354819D02*
X95671428Y-57354819D01*
X95671428Y-57354819D02*
X95528571Y-57307200D01*
X95528571Y-57307200D02*
X95433333Y-57211961D01*
X95433333Y-57211961D02*
X95385714Y-57116723D01*
X95385714Y-57116723D02*
X95338095Y-56926247D01*
X95338095Y-56926247D02*
X95338095Y-56783390D01*
X95338095Y-56783390D02*
X95385714Y-56592914D01*
X95385714Y-56592914D02*
X95433333Y-56497676D01*
X95433333Y-56497676D02*
X95528571Y-56402438D01*
X95528571Y-56402438D02*
X95671428Y-56354819D01*
X95671428Y-56354819D02*
X95766666Y-56354819D01*
X95766666Y-56354819D02*
X95909523Y-56402438D01*
X95909523Y-56402438D02*
X95957142Y-56450057D01*
X96290476Y-56354819D02*
X96909523Y-56354819D01*
X96909523Y-56354819D02*
X96576190Y-56735771D01*
X96576190Y-56735771D02*
X96719047Y-56735771D01*
X96719047Y-56735771D02*
X96814285Y-56783390D01*
X96814285Y-56783390D02*
X96861904Y-56831009D01*
X96861904Y-56831009D02*
X96909523Y-56926247D01*
X96909523Y-56926247D02*
X96909523Y-57164342D01*
X96909523Y-57164342D02*
X96861904Y-57259580D01*
X96861904Y-57259580D02*
X96814285Y-57307200D01*
X96814285Y-57307200D02*
X96719047Y-57354819D01*
X96719047Y-57354819D02*
X96433333Y-57354819D01*
X96433333Y-57354819D02*
X96338095Y-57307200D01*
X96338095Y-57307200D02*
X96290476Y-57259580D01*
X97766666Y-56354819D02*
X97576190Y-56354819D01*
X97576190Y-56354819D02*
X97480952Y-56402438D01*
X97480952Y-56402438D02*
X97433333Y-56450057D01*
X97433333Y-56450057D02*
X97338095Y-56592914D01*
X97338095Y-56592914D02*
X97290476Y-56783390D01*
X97290476Y-56783390D02*
X97290476Y-57164342D01*
X97290476Y-57164342D02*
X97338095Y-57259580D01*
X97338095Y-57259580D02*
X97385714Y-57307200D01*
X97385714Y-57307200D02*
X97480952Y-57354819D01*
X97480952Y-57354819D02*
X97671428Y-57354819D01*
X97671428Y-57354819D02*
X97766666Y-57307200D01*
X97766666Y-57307200D02*
X97814285Y-57259580D01*
X97814285Y-57259580D02*
X97861904Y-57164342D01*
X97861904Y-57164342D02*
X97861904Y-56926247D01*
X97861904Y-56926247D02*
X97814285Y-56831009D01*
X97814285Y-56831009D02*
X97766666Y-56783390D01*
X97766666Y-56783390D02*
X97671428Y-56735771D01*
X97671428Y-56735771D02*
X97480952Y-56735771D01*
X97480952Y-56735771D02*
X97385714Y-56783390D01*
X97385714Y-56783390D02*
X97338095Y-56831009D01*
X97338095Y-56831009D02*
X97290476Y-56926247D01*
X71183333Y-59684580D02*
X71135714Y-59732200D01*
X71135714Y-59732200D02*
X70992857Y-59779819D01*
X70992857Y-59779819D02*
X70897619Y-59779819D01*
X70897619Y-59779819D02*
X70754762Y-59732200D01*
X70754762Y-59732200D02*
X70659524Y-59636961D01*
X70659524Y-59636961D02*
X70611905Y-59541723D01*
X70611905Y-59541723D02*
X70564286Y-59351247D01*
X70564286Y-59351247D02*
X70564286Y-59208390D01*
X70564286Y-59208390D02*
X70611905Y-59017914D01*
X70611905Y-59017914D02*
X70659524Y-58922676D01*
X70659524Y-58922676D02*
X70754762Y-58827438D01*
X70754762Y-58827438D02*
X70897619Y-58779819D01*
X70897619Y-58779819D02*
X70992857Y-58779819D01*
X70992857Y-58779819D02*
X71135714Y-58827438D01*
X71135714Y-58827438D02*
X71183333Y-58875057D01*
X71564286Y-58875057D02*
X71611905Y-58827438D01*
X71611905Y-58827438D02*
X71707143Y-58779819D01*
X71707143Y-58779819D02*
X71945238Y-58779819D01*
X71945238Y-58779819D02*
X72040476Y-58827438D01*
X72040476Y-58827438D02*
X72088095Y-58875057D01*
X72088095Y-58875057D02*
X72135714Y-58970295D01*
X72135714Y-58970295D02*
X72135714Y-59065533D01*
X72135714Y-59065533D02*
X72088095Y-59208390D01*
X72088095Y-59208390D02*
X71516667Y-59779819D01*
X71516667Y-59779819D02*
X72135714Y-59779819D01*
X76761905Y-148204819D02*
X76761905Y-149014342D01*
X76761905Y-149014342D02*
X76809524Y-149109580D01*
X76809524Y-149109580D02*
X76857143Y-149157200D01*
X76857143Y-149157200D02*
X76952381Y-149204819D01*
X76952381Y-149204819D02*
X77142857Y-149204819D01*
X77142857Y-149204819D02*
X77238095Y-149157200D01*
X77238095Y-149157200D02*
X77285714Y-149109580D01*
X77285714Y-149109580D02*
X77333333Y-149014342D01*
X77333333Y-149014342D02*
X77333333Y-148204819D01*
X77761905Y-148300057D02*
X77809524Y-148252438D01*
X77809524Y-148252438D02*
X77904762Y-148204819D01*
X77904762Y-148204819D02*
X78142857Y-148204819D01*
X78142857Y-148204819D02*
X78238095Y-148252438D01*
X78238095Y-148252438D02*
X78285714Y-148300057D01*
X78285714Y-148300057D02*
X78333333Y-148395295D01*
X78333333Y-148395295D02*
X78333333Y-148490533D01*
X78333333Y-148490533D02*
X78285714Y-148633390D01*
X78285714Y-148633390D02*
X77714286Y-149204819D01*
X77714286Y-149204819D02*
X78333333Y-149204819D01*
X79238095Y-148204819D02*
X78761905Y-148204819D01*
X78761905Y-148204819D02*
X78714286Y-148681009D01*
X78714286Y-148681009D02*
X78761905Y-148633390D01*
X78761905Y-148633390D02*
X78857143Y-148585771D01*
X78857143Y-148585771D02*
X79095238Y-148585771D01*
X79095238Y-148585771D02*
X79190476Y-148633390D01*
X79190476Y-148633390D02*
X79238095Y-148681009D01*
X79238095Y-148681009D02*
X79285714Y-148776247D01*
X79285714Y-148776247D02*
X79285714Y-149014342D01*
X79285714Y-149014342D02*
X79238095Y-149109580D01*
X79238095Y-149109580D02*
X79190476Y-149157200D01*
X79190476Y-149157200D02*
X79095238Y-149204819D01*
X79095238Y-149204819D02*
X78857143Y-149204819D01*
X78857143Y-149204819D02*
X78761905Y-149157200D01*
X78761905Y-149157200D02*
X78714286Y-149109580D01*
X53903333Y-62904819D02*
X53570000Y-62428628D01*
X53331905Y-62904819D02*
X53331905Y-61904819D01*
X53331905Y-61904819D02*
X53712857Y-61904819D01*
X53712857Y-61904819D02*
X53808095Y-61952438D01*
X53808095Y-61952438D02*
X53855714Y-62000057D01*
X53855714Y-62000057D02*
X53903333Y-62095295D01*
X53903333Y-62095295D02*
X53903333Y-62238152D01*
X53903333Y-62238152D02*
X53855714Y-62333390D01*
X53855714Y-62333390D02*
X53808095Y-62381009D01*
X53808095Y-62381009D02*
X53712857Y-62428628D01*
X53712857Y-62428628D02*
X53331905Y-62428628D01*
X54474762Y-62333390D02*
X54379524Y-62285771D01*
X54379524Y-62285771D02*
X54331905Y-62238152D01*
X54331905Y-62238152D02*
X54284286Y-62142914D01*
X54284286Y-62142914D02*
X54284286Y-62095295D01*
X54284286Y-62095295D02*
X54331905Y-62000057D01*
X54331905Y-62000057D02*
X54379524Y-61952438D01*
X54379524Y-61952438D02*
X54474762Y-61904819D01*
X54474762Y-61904819D02*
X54665238Y-61904819D01*
X54665238Y-61904819D02*
X54760476Y-61952438D01*
X54760476Y-61952438D02*
X54808095Y-62000057D01*
X54808095Y-62000057D02*
X54855714Y-62095295D01*
X54855714Y-62095295D02*
X54855714Y-62142914D01*
X54855714Y-62142914D02*
X54808095Y-62238152D01*
X54808095Y-62238152D02*
X54760476Y-62285771D01*
X54760476Y-62285771D02*
X54665238Y-62333390D01*
X54665238Y-62333390D02*
X54474762Y-62333390D01*
X54474762Y-62333390D02*
X54379524Y-62381009D01*
X54379524Y-62381009D02*
X54331905Y-62428628D01*
X54331905Y-62428628D02*
X54284286Y-62523866D01*
X54284286Y-62523866D02*
X54284286Y-62714342D01*
X54284286Y-62714342D02*
X54331905Y-62809580D01*
X54331905Y-62809580D02*
X54379524Y-62857200D01*
X54379524Y-62857200D02*
X54474762Y-62904819D01*
X54474762Y-62904819D02*
X54665238Y-62904819D01*
X54665238Y-62904819D02*
X54760476Y-62857200D01*
X54760476Y-62857200D02*
X54808095Y-62809580D01*
X54808095Y-62809580D02*
X54855714Y-62714342D01*
X54855714Y-62714342D02*
X54855714Y-62523866D01*
X54855714Y-62523866D02*
X54808095Y-62428628D01*
X54808095Y-62428628D02*
X54760476Y-62381009D01*
X54760476Y-62381009D02*
X54665238Y-62333390D01*
X102707142Y-71904819D02*
X102373809Y-71428628D01*
X102135714Y-71904819D02*
X102135714Y-70904819D01*
X102135714Y-70904819D02*
X102516666Y-70904819D01*
X102516666Y-70904819D02*
X102611904Y-70952438D01*
X102611904Y-70952438D02*
X102659523Y-71000057D01*
X102659523Y-71000057D02*
X102707142Y-71095295D01*
X102707142Y-71095295D02*
X102707142Y-71238152D01*
X102707142Y-71238152D02*
X102659523Y-71333390D01*
X102659523Y-71333390D02*
X102611904Y-71381009D01*
X102611904Y-71381009D02*
X102516666Y-71428628D01*
X102516666Y-71428628D02*
X102135714Y-71428628D01*
X103088095Y-71000057D02*
X103135714Y-70952438D01*
X103135714Y-70952438D02*
X103230952Y-70904819D01*
X103230952Y-70904819D02*
X103469047Y-70904819D01*
X103469047Y-70904819D02*
X103564285Y-70952438D01*
X103564285Y-70952438D02*
X103611904Y-71000057D01*
X103611904Y-71000057D02*
X103659523Y-71095295D01*
X103659523Y-71095295D02*
X103659523Y-71190533D01*
X103659523Y-71190533D02*
X103611904Y-71333390D01*
X103611904Y-71333390D02*
X103040476Y-71904819D01*
X103040476Y-71904819D02*
X103659523Y-71904819D01*
X104040476Y-71000057D02*
X104088095Y-70952438D01*
X104088095Y-70952438D02*
X104183333Y-70904819D01*
X104183333Y-70904819D02*
X104421428Y-70904819D01*
X104421428Y-70904819D02*
X104516666Y-70952438D01*
X104516666Y-70952438D02*
X104564285Y-71000057D01*
X104564285Y-71000057D02*
X104611904Y-71095295D01*
X104611904Y-71095295D02*
X104611904Y-71190533D01*
X104611904Y-71190533D02*
X104564285Y-71333390D01*
X104564285Y-71333390D02*
X103992857Y-71904819D01*
X103992857Y-71904819D02*
X104611904Y-71904819D01*
X82091666Y-72054819D02*
X82091666Y-72769104D01*
X82091666Y-72769104D02*
X82044047Y-72911961D01*
X82044047Y-72911961D02*
X81948809Y-73007200D01*
X81948809Y-73007200D02*
X81805952Y-73054819D01*
X81805952Y-73054819D02*
X81710714Y-73054819D01*
X82615476Y-73054819D02*
X82805952Y-73054819D01*
X82805952Y-73054819D02*
X82901190Y-73007200D01*
X82901190Y-73007200D02*
X82948809Y-72959580D01*
X82948809Y-72959580D02*
X83044047Y-72816723D01*
X83044047Y-72816723D02*
X83091666Y-72626247D01*
X83091666Y-72626247D02*
X83091666Y-72245295D01*
X83091666Y-72245295D02*
X83044047Y-72150057D01*
X83044047Y-72150057D02*
X82996428Y-72102438D01*
X82996428Y-72102438D02*
X82901190Y-72054819D01*
X82901190Y-72054819D02*
X82710714Y-72054819D01*
X82710714Y-72054819D02*
X82615476Y-72102438D01*
X82615476Y-72102438D02*
X82567857Y-72150057D01*
X82567857Y-72150057D02*
X82520238Y-72245295D01*
X82520238Y-72245295D02*
X82520238Y-72483390D01*
X82520238Y-72483390D02*
X82567857Y-72578628D01*
X82567857Y-72578628D02*
X82615476Y-72626247D01*
X82615476Y-72626247D02*
X82710714Y-72673866D01*
X82710714Y-72673866D02*
X82901190Y-72673866D01*
X82901190Y-72673866D02*
X82996428Y-72626247D01*
X82996428Y-72626247D02*
X83044047Y-72578628D01*
X83044047Y-72578628D02*
X83091666Y-72483390D01*
X87657142Y-174659580D02*
X87609523Y-174707200D01*
X87609523Y-174707200D02*
X87466666Y-174754819D01*
X87466666Y-174754819D02*
X87371428Y-174754819D01*
X87371428Y-174754819D02*
X87228571Y-174707200D01*
X87228571Y-174707200D02*
X87133333Y-174611961D01*
X87133333Y-174611961D02*
X87085714Y-174516723D01*
X87085714Y-174516723D02*
X87038095Y-174326247D01*
X87038095Y-174326247D02*
X87038095Y-174183390D01*
X87038095Y-174183390D02*
X87085714Y-173992914D01*
X87085714Y-173992914D02*
X87133333Y-173897676D01*
X87133333Y-173897676D02*
X87228571Y-173802438D01*
X87228571Y-173802438D02*
X87371428Y-173754819D01*
X87371428Y-173754819D02*
X87466666Y-173754819D01*
X87466666Y-173754819D02*
X87609523Y-173802438D01*
X87609523Y-173802438D02*
X87657142Y-173850057D01*
X88514285Y-174088152D02*
X88514285Y-174754819D01*
X88276190Y-173707200D02*
X88038095Y-174421485D01*
X88038095Y-174421485D02*
X88657142Y-174421485D01*
X89228571Y-173754819D02*
X89323809Y-173754819D01*
X89323809Y-173754819D02*
X89419047Y-173802438D01*
X89419047Y-173802438D02*
X89466666Y-173850057D01*
X89466666Y-173850057D02*
X89514285Y-173945295D01*
X89514285Y-173945295D02*
X89561904Y-174135771D01*
X89561904Y-174135771D02*
X89561904Y-174373866D01*
X89561904Y-174373866D02*
X89514285Y-174564342D01*
X89514285Y-174564342D02*
X89466666Y-174659580D01*
X89466666Y-174659580D02*
X89419047Y-174707200D01*
X89419047Y-174707200D02*
X89323809Y-174754819D01*
X89323809Y-174754819D02*
X89228571Y-174754819D01*
X89228571Y-174754819D02*
X89133333Y-174707200D01*
X89133333Y-174707200D02*
X89085714Y-174659580D01*
X89085714Y-174659580D02*
X89038095Y-174564342D01*
X89038095Y-174564342D02*
X88990476Y-174373866D01*
X88990476Y-174373866D02*
X88990476Y-174135771D01*
X88990476Y-174135771D02*
X89038095Y-173945295D01*
X89038095Y-173945295D02*
X89085714Y-173850057D01*
X89085714Y-173850057D02*
X89133333Y-173802438D01*
X89133333Y-173802438D02*
X89228571Y-173754819D01*
X80188095Y-65179819D02*
X80759523Y-65179819D01*
X80473809Y-66179819D02*
X80473809Y-65179819D01*
X81092857Y-66179819D02*
X81092857Y-65179819D01*
X81092857Y-65179819D02*
X81473809Y-65179819D01*
X81473809Y-65179819D02*
X81569047Y-65227438D01*
X81569047Y-65227438D02*
X81616666Y-65275057D01*
X81616666Y-65275057D02*
X81664285Y-65370295D01*
X81664285Y-65370295D02*
X81664285Y-65513152D01*
X81664285Y-65513152D02*
X81616666Y-65608390D01*
X81616666Y-65608390D02*
X81569047Y-65656009D01*
X81569047Y-65656009D02*
X81473809Y-65703628D01*
X81473809Y-65703628D02*
X81092857Y-65703628D01*
X82569047Y-65179819D02*
X82092857Y-65179819D01*
X82092857Y-65179819D02*
X82045238Y-65656009D01*
X82045238Y-65656009D02*
X82092857Y-65608390D01*
X82092857Y-65608390D02*
X82188095Y-65560771D01*
X82188095Y-65560771D02*
X82426190Y-65560771D01*
X82426190Y-65560771D02*
X82521428Y-65608390D01*
X82521428Y-65608390D02*
X82569047Y-65656009D01*
X82569047Y-65656009D02*
X82616666Y-65751247D01*
X82616666Y-65751247D02*
X82616666Y-65989342D01*
X82616666Y-65989342D02*
X82569047Y-66084580D01*
X82569047Y-66084580D02*
X82521428Y-66132200D01*
X82521428Y-66132200D02*
X82426190Y-66179819D01*
X82426190Y-66179819D02*
X82188095Y-66179819D01*
X82188095Y-66179819D02*
X82092857Y-66132200D01*
X82092857Y-66132200D02*
X82045238Y-66084580D01*
X77657142Y-64734580D02*
X77609523Y-64782200D01*
X77609523Y-64782200D02*
X77466666Y-64829819D01*
X77466666Y-64829819D02*
X77371428Y-64829819D01*
X77371428Y-64829819D02*
X77228571Y-64782200D01*
X77228571Y-64782200D02*
X77133333Y-64686961D01*
X77133333Y-64686961D02*
X77085714Y-64591723D01*
X77085714Y-64591723D02*
X77038095Y-64401247D01*
X77038095Y-64401247D02*
X77038095Y-64258390D01*
X77038095Y-64258390D02*
X77085714Y-64067914D01*
X77085714Y-64067914D02*
X77133333Y-63972676D01*
X77133333Y-63972676D02*
X77228571Y-63877438D01*
X77228571Y-63877438D02*
X77371428Y-63829819D01*
X77371428Y-63829819D02*
X77466666Y-63829819D01*
X77466666Y-63829819D02*
X77609523Y-63877438D01*
X77609523Y-63877438D02*
X77657142Y-63925057D01*
X78038095Y-63925057D02*
X78085714Y-63877438D01*
X78085714Y-63877438D02*
X78180952Y-63829819D01*
X78180952Y-63829819D02*
X78419047Y-63829819D01*
X78419047Y-63829819D02*
X78514285Y-63877438D01*
X78514285Y-63877438D02*
X78561904Y-63925057D01*
X78561904Y-63925057D02*
X78609523Y-64020295D01*
X78609523Y-64020295D02*
X78609523Y-64115533D01*
X78609523Y-64115533D02*
X78561904Y-64258390D01*
X78561904Y-64258390D02*
X77990476Y-64829819D01*
X77990476Y-64829819D02*
X78609523Y-64829819D01*
X78942857Y-63829819D02*
X79609523Y-63829819D01*
X79609523Y-63829819D02*
X79180952Y-64829819D01*
X62883333Y-69384580D02*
X62835714Y-69432200D01*
X62835714Y-69432200D02*
X62692857Y-69479819D01*
X62692857Y-69479819D02*
X62597619Y-69479819D01*
X62597619Y-69479819D02*
X62454762Y-69432200D01*
X62454762Y-69432200D02*
X62359524Y-69336961D01*
X62359524Y-69336961D02*
X62311905Y-69241723D01*
X62311905Y-69241723D02*
X62264286Y-69051247D01*
X62264286Y-69051247D02*
X62264286Y-68908390D01*
X62264286Y-68908390D02*
X62311905Y-68717914D01*
X62311905Y-68717914D02*
X62359524Y-68622676D01*
X62359524Y-68622676D02*
X62454762Y-68527438D01*
X62454762Y-68527438D02*
X62597619Y-68479819D01*
X62597619Y-68479819D02*
X62692857Y-68479819D01*
X62692857Y-68479819D02*
X62835714Y-68527438D01*
X62835714Y-68527438D02*
X62883333Y-68575057D01*
X63835714Y-69479819D02*
X63264286Y-69479819D01*
X63550000Y-69479819D02*
X63550000Y-68479819D01*
X63550000Y-68479819D02*
X63454762Y-68622676D01*
X63454762Y-68622676D02*
X63359524Y-68717914D01*
X63359524Y-68717914D02*
X63264286Y-68765533D01*
X106761905Y-148204819D02*
X106761905Y-149014342D01*
X106761905Y-149014342D02*
X106809524Y-149109580D01*
X106809524Y-149109580D02*
X106857143Y-149157200D01*
X106857143Y-149157200D02*
X106952381Y-149204819D01*
X106952381Y-149204819D02*
X107142857Y-149204819D01*
X107142857Y-149204819D02*
X107238095Y-149157200D01*
X107238095Y-149157200D02*
X107285714Y-149109580D01*
X107285714Y-149109580D02*
X107333333Y-149014342D01*
X107333333Y-149014342D02*
X107333333Y-148204819D01*
X107761905Y-148300057D02*
X107809524Y-148252438D01*
X107809524Y-148252438D02*
X107904762Y-148204819D01*
X107904762Y-148204819D02*
X108142857Y-148204819D01*
X108142857Y-148204819D02*
X108238095Y-148252438D01*
X108238095Y-148252438D02*
X108285714Y-148300057D01*
X108285714Y-148300057D02*
X108333333Y-148395295D01*
X108333333Y-148395295D02*
X108333333Y-148490533D01*
X108333333Y-148490533D02*
X108285714Y-148633390D01*
X108285714Y-148633390D02*
X107714286Y-149204819D01*
X107714286Y-149204819D02*
X108333333Y-149204819D01*
X108714286Y-148300057D02*
X108761905Y-148252438D01*
X108761905Y-148252438D02*
X108857143Y-148204819D01*
X108857143Y-148204819D02*
X109095238Y-148204819D01*
X109095238Y-148204819D02*
X109190476Y-148252438D01*
X109190476Y-148252438D02*
X109238095Y-148300057D01*
X109238095Y-148300057D02*
X109285714Y-148395295D01*
X109285714Y-148395295D02*
X109285714Y-148490533D01*
X109285714Y-148490533D02*
X109238095Y-148633390D01*
X109238095Y-148633390D02*
X108666667Y-149204819D01*
X108666667Y-149204819D02*
X109285714Y-149204819D01*
X83386905Y-56004819D02*
X83958333Y-56004819D01*
X83672619Y-57004819D02*
X83672619Y-56004819D01*
X84291667Y-57004819D02*
X84291667Y-56004819D01*
X84291667Y-56004819D02*
X84672619Y-56004819D01*
X84672619Y-56004819D02*
X84767857Y-56052438D01*
X84767857Y-56052438D02*
X84815476Y-56100057D01*
X84815476Y-56100057D02*
X84863095Y-56195295D01*
X84863095Y-56195295D02*
X84863095Y-56338152D01*
X84863095Y-56338152D02*
X84815476Y-56433390D01*
X84815476Y-56433390D02*
X84767857Y-56481009D01*
X84767857Y-56481009D02*
X84672619Y-56528628D01*
X84672619Y-56528628D02*
X84291667Y-56528628D01*
X85196429Y-56004819D02*
X85815476Y-56004819D01*
X85815476Y-56004819D02*
X85482143Y-56385771D01*
X85482143Y-56385771D02*
X85625000Y-56385771D01*
X85625000Y-56385771D02*
X85720238Y-56433390D01*
X85720238Y-56433390D02*
X85767857Y-56481009D01*
X85767857Y-56481009D02*
X85815476Y-56576247D01*
X85815476Y-56576247D02*
X85815476Y-56814342D01*
X85815476Y-56814342D02*
X85767857Y-56909580D01*
X85767857Y-56909580D02*
X85720238Y-56957200D01*
X85720238Y-56957200D02*
X85625000Y-57004819D01*
X85625000Y-57004819D02*
X85339286Y-57004819D01*
X85339286Y-57004819D02*
X85244048Y-56957200D01*
X85244048Y-56957200D02*
X85196429Y-56909580D01*
X86148810Y-56004819D02*
X86767857Y-56004819D01*
X86767857Y-56004819D02*
X86434524Y-56385771D01*
X86434524Y-56385771D02*
X86577381Y-56385771D01*
X86577381Y-56385771D02*
X86672619Y-56433390D01*
X86672619Y-56433390D02*
X86720238Y-56481009D01*
X86720238Y-56481009D02*
X86767857Y-56576247D01*
X86767857Y-56576247D02*
X86767857Y-56814342D01*
X86767857Y-56814342D02*
X86720238Y-56909580D01*
X86720238Y-56909580D02*
X86672619Y-56957200D01*
X86672619Y-56957200D02*
X86577381Y-57004819D01*
X86577381Y-57004819D02*
X86291667Y-57004819D01*
X86291667Y-57004819D02*
X86196429Y-56957200D01*
X86196429Y-56957200D02*
X86148810Y-56909580D01*
X92913095Y-63804819D02*
X92913095Y-64614342D01*
X92913095Y-64614342D02*
X92960714Y-64709580D01*
X92960714Y-64709580D02*
X93008333Y-64757200D01*
X93008333Y-64757200D02*
X93103571Y-64804819D01*
X93103571Y-64804819D02*
X93294047Y-64804819D01*
X93294047Y-64804819D02*
X93389285Y-64757200D01*
X93389285Y-64757200D02*
X93436904Y-64709580D01*
X93436904Y-64709580D02*
X93484523Y-64614342D01*
X93484523Y-64614342D02*
X93484523Y-63804819D01*
X94008333Y-64804819D02*
X94198809Y-64804819D01*
X94198809Y-64804819D02*
X94294047Y-64757200D01*
X94294047Y-64757200D02*
X94341666Y-64709580D01*
X94341666Y-64709580D02*
X94436904Y-64566723D01*
X94436904Y-64566723D02*
X94484523Y-64376247D01*
X94484523Y-64376247D02*
X94484523Y-63995295D01*
X94484523Y-63995295D02*
X94436904Y-63900057D01*
X94436904Y-63900057D02*
X94389285Y-63852438D01*
X94389285Y-63852438D02*
X94294047Y-63804819D01*
X94294047Y-63804819D02*
X94103571Y-63804819D01*
X94103571Y-63804819D02*
X94008333Y-63852438D01*
X94008333Y-63852438D02*
X93960714Y-63900057D01*
X93960714Y-63900057D02*
X93913095Y-63995295D01*
X93913095Y-63995295D02*
X93913095Y-64233390D01*
X93913095Y-64233390D02*
X93960714Y-64328628D01*
X93960714Y-64328628D02*
X94008333Y-64376247D01*
X94008333Y-64376247D02*
X94103571Y-64423866D01*
X94103571Y-64423866D02*
X94294047Y-64423866D01*
X94294047Y-64423866D02*
X94389285Y-64376247D01*
X94389285Y-64376247D02*
X94436904Y-64328628D01*
X94436904Y-64328628D02*
X94484523Y-64233390D01*
X97932142Y-61084580D02*
X97884523Y-61132200D01*
X97884523Y-61132200D02*
X97741666Y-61179819D01*
X97741666Y-61179819D02*
X97646428Y-61179819D01*
X97646428Y-61179819D02*
X97503571Y-61132200D01*
X97503571Y-61132200D02*
X97408333Y-61036961D01*
X97408333Y-61036961D02*
X97360714Y-60941723D01*
X97360714Y-60941723D02*
X97313095Y-60751247D01*
X97313095Y-60751247D02*
X97313095Y-60608390D01*
X97313095Y-60608390D02*
X97360714Y-60417914D01*
X97360714Y-60417914D02*
X97408333Y-60322676D01*
X97408333Y-60322676D02*
X97503571Y-60227438D01*
X97503571Y-60227438D02*
X97646428Y-60179819D01*
X97646428Y-60179819D02*
X97741666Y-60179819D01*
X97741666Y-60179819D02*
X97884523Y-60227438D01*
X97884523Y-60227438D02*
X97932142Y-60275057D01*
X98265476Y-60179819D02*
X98884523Y-60179819D01*
X98884523Y-60179819D02*
X98551190Y-60560771D01*
X98551190Y-60560771D02*
X98694047Y-60560771D01*
X98694047Y-60560771D02*
X98789285Y-60608390D01*
X98789285Y-60608390D02*
X98836904Y-60656009D01*
X98836904Y-60656009D02*
X98884523Y-60751247D01*
X98884523Y-60751247D02*
X98884523Y-60989342D01*
X98884523Y-60989342D02*
X98836904Y-61084580D01*
X98836904Y-61084580D02*
X98789285Y-61132200D01*
X98789285Y-61132200D02*
X98694047Y-61179819D01*
X98694047Y-61179819D02*
X98408333Y-61179819D01*
X98408333Y-61179819D02*
X98313095Y-61132200D01*
X98313095Y-61132200D02*
X98265476Y-61084580D01*
X99217857Y-60179819D02*
X99884523Y-60179819D01*
X99884523Y-60179819D02*
X99455952Y-61179819D01*
X91611905Y-78204819D02*
X92183333Y-78204819D01*
X91897619Y-79204819D02*
X91897619Y-78204819D01*
X92516667Y-79204819D02*
X92516667Y-78204819D01*
X92516667Y-78204819D02*
X92897619Y-78204819D01*
X92897619Y-78204819D02*
X92992857Y-78252438D01*
X92992857Y-78252438D02*
X93040476Y-78300057D01*
X93040476Y-78300057D02*
X93088095Y-78395295D01*
X93088095Y-78395295D02*
X93088095Y-78538152D01*
X93088095Y-78538152D02*
X93040476Y-78633390D01*
X93040476Y-78633390D02*
X92992857Y-78681009D01*
X92992857Y-78681009D02*
X92897619Y-78728628D01*
X92897619Y-78728628D02*
X92516667Y-78728628D01*
X93421429Y-78204819D02*
X94040476Y-78204819D01*
X94040476Y-78204819D02*
X93707143Y-78585771D01*
X93707143Y-78585771D02*
X93850000Y-78585771D01*
X93850000Y-78585771D02*
X93945238Y-78633390D01*
X93945238Y-78633390D02*
X93992857Y-78681009D01*
X93992857Y-78681009D02*
X94040476Y-78776247D01*
X94040476Y-78776247D02*
X94040476Y-79014342D01*
X94040476Y-79014342D02*
X93992857Y-79109580D01*
X93992857Y-79109580D02*
X93945238Y-79157200D01*
X93945238Y-79157200D02*
X93850000Y-79204819D01*
X93850000Y-79204819D02*
X93564286Y-79204819D01*
X93564286Y-79204819D02*
X93469048Y-79157200D01*
X93469048Y-79157200D02*
X93421429Y-79109580D01*
X94421429Y-78300057D02*
X94469048Y-78252438D01*
X94469048Y-78252438D02*
X94564286Y-78204819D01*
X94564286Y-78204819D02*
X94802381Y-78204819D01*
X94802381Y-78204819D02*
X94897619Y-78252438D01*
X94897619Y-78252438D02*
X94945238Y-78300057D01*
X94945238Y-78300057D02*
X94992857Y-78395295D01*
X94992857Y-78395295D02*
X94992857Y-78490533D01*
X94992857Y-78490533D02*
X94945238Y-78633390D01*
X94945238Y-78633390D02*
X94373810Y-79204819D01*
X94373810Y-79204819D02*
X94992857Y-79204819D01*
X52978333Y-66029819D02*
X52645000Y-65553628D01*
X52406905Y-66029819D02*
X52406905Y-65029819D01*
X52406905Y-65029819D02*
X52787857Y-65029819D01*
X52787857Y-65029819D02*
X52883095Y-65077438D01*
X52883095Y-65077438D02*
X52930714Y-65125057D01*
X52930714Y-65125057D02*
X52978333Y-65220295D01*
X52978333Y-65220295D02*
X52978333Y-65363152D01*
X52978333Y-65363152D02*
X52930714Y-65458390D01*
X52930714Y-65458390D02*
X52883095Y-65506009D01*
X52883095Y-65506009D02*
X52787857Y-65553628D01*
X52787857Y-65553628D02*
X52406905Y-65553628D01*
X53454524Y-66029819D02*
X53645000Y-66029819D01*
X53645000Y-66029819D02*
X53740238Y-65982200D01*
X53740238Y-65982200D02*
X53787857Y-65934580D01*
X53787857Y-65934580D02*
X53883095Y-65791723D01*
X53883095Y-65791723D02*
X53930714Y-65601247D01*
X53930714Y-65601247D02*
X53930714Y-65220295D01*
X53930714Y-65220295D02*
X53883095Y-65125057D01*
X53883095Y-65125057D02*
X53835476Y-65077438D01*
X53835476Y-65077438D02*
X53740238Y-65029819D01*
X53740238Y-65029819D02*
X53549762Y-65029819D01*
X53549762Y-65029819D02*
X53454524Y-65077438D01*
X53454524Y-65077438D02*
X53406905Y-65125057D01*
X53406905Y-65125057D02*
X53359286Y-65220295D01*
X53359286Y-65220295D02*
X53359286Y-65458390D01*
X53359286Y-65458390D02*
X53406905Y-65553628D01*
X53406905Y-65553628D02*
X53454524Y-65601247D01*
X53454524Y-65601247D02*
X53549762Y-65648866D01*
X53549762Y-65648866D02*
X53740238Y-65648866D01*
X53740238Y-65648866D02*
X53835476Y-65601247D01*
X53835476Y-65601247D02*
X53883095Y-65553628D01*
X53883095Y-65553628D02*
X53930714Y-65458390D01*
X102657142Y-74554819D02*
X102323809Y-74078628D01*
X102085714Y-74554819D02*
X102085714Y-73554819D01*
X102085714Y-73554819D02*
X102466666Y-73554819D01*
X102466666Y-73554819D02*
X102561904Y-73602438D01*
X102561904Y-73602438D02*
X102609523Y-73650057D01*
X102609523Y-73650057D02*
X102657142Y-73745295D01*
X102657142Y-73745295D02*
X102657142Y-73888152D01*
X102657142Y-73888152D02*
X102609523Y-73983390D01*
X102609523Y-73983390D02*
X102561904Y-74031009D01*
X102561904Y-74031009D02*
X102466666Y-74078628D01*
X102466666Y-74078628D02*
X102085714Y-74078628D01*
X103038095Y-73650057D02*
X103085714Y-73602438D01*
X103085714Y-73602438D02*
X103180952Y-73554819D01*
X103180952Y-73554819D02*
X103419047Y-73554819D01*
X103419047Y-73554819D02*
X103514285Y-73602438D01*
X103514285Y-73602438D02*
X103561904Y-73650057D01*
X103561904Y-73650057D02*
X103609523Y-73745295D01*
X103609523Y-73745295D02*
X103609523Y-73840533D01*
X103609523Y-73840533D02*
X103561904Y-73983390D01*
X103561904Y-73983390D02*
X102990476Y-74554819D01*
X102990476Y-74554819D02*
X103609523Y-74554819D01*
X103942857Y-73554819D02*
X104561904Y-73554819D01*
X104561904Y-73554819D02*
X104228571Y-73935771D01*
X104228571Y-73935771D02*
X104371428Y-73935771D01*
X104371428Y-73935771D02*
X104466666Y-73983390D01*
X104466666Y-73983390D02*
X104514285Y-74031009D01*
X104514285Y-74031009D02*
X104561904Y-74126247D01*
X104561904Y-74126247D02*
X104561904Y-74364342D01*
X104561904Y-74364342D02*
X104514285Y-74459580D01*
X104514285Y-74459580D02*
X104466666Y-74507200D01*
X104466666Y-74507200D02*
X104371428Y-74554819D01*
X104371428Y-74554819D02*
X104085714Y-74554819D01*
X104085714Y-74554819D02*
X103990476Y-74507200D01*
X103990476Y-74507200D02*
X103942857Y-74459580D01*
X57104819Y-62867857D02*
X56628628Y-63201190D01*
X57104819Y-63439285D02*
X56104819Y-63439285D01*
X56104819Y-63439285D02*
X56104819Y-63058333D01*
X56104819Y-63058333D02*
X56152438Y-62963095D01*
X56152438Y-62963095D02*
X56200057Y-62915476D01*
X56200057Y-62915476D02*
X56295295Y-62867857D01*
X56295295Y-62867857D02*
X56438152Y-62867857D01*
X56438152Y-62867857D02*
X56533390Y-62915476D01*
X56533390Y-62915476D02*
X56581009Y-62963095D01*
X56581009Y-62963095D02*
X56628628Y-63058333D01*
X56628628Y-63058333D02*
X56628628Y-63439285D01*
X57104819Y-61915476D02*
X57104819Y-62486904D01*
X57104819Y-62201190D02*
X56104819Y-62201190D01*
X56104819Y-62201190D02*
X56247676Y-62296428D01*
X56247676Y-62296428D02*
X56342914Y-62391666D01*
X56342914Y-62391666D02*
X56390533Y-62486904D01*
X56104819Y-61582142D02*
X56104819Y-60963095D01*
X56104819Y-60963095D02*
X56485771Y-61296428D01*
X56485771Y-61296428D02*
X56485771Y-61153571D01*
X56485771Y-61153571D02*
X56533390Y-61058333D01*
X56533390Y-61058333D02*
X56581009Y-61010714D01*
X56581009Y-61010714D02*
X56676247Y-60963095D01*
X56676247Y-60963095D02*
X56914342Y-60963095D01*
X56914342Y-60963095D02*
X57009580Y-61010714D01*
X57009580Y-61010714D02*
X57057200Y-61058333D01*
X57057200Y-61058333D02*
X57104819Y-61153571D01*
X57104819Y-61153571D02*
X57104819Y-61439285D01*
X57104819Y-61439285D02*
X57057200Y-61534523D01*
X57057200Y-61534523D02*
X57009580Y-61582142D01*
X55238095Y-67454819D02*
X55238095Y-68264342D01*
X55238095Y-68264342D02*
X55285714Y-68359580D01*
X55285714Y-68359580D02*
X55333333Y-68407200D01*
X55333333Y-68407200D02*
X55428571Y-68454819D01*
X55428571Y-68454819D02*
X55619047Y-68454819D01*
X55619047Y-68454819D02*
X55714285Y-68407200D01*
X55714285Y-68407200D02*
X55761904Y-68359580D01*
X55761904Y-68359580D02*
X55809523Y-68264342D01*
X55809523Y-68264342D02*
X55809523Y-67454819D01*
X56190476Y-67454819D02*
X56809523Y-67454819D01*
X56809523Y-67454819D02*
X56476190Y-67835771D01*
X56476190Y-67835771D02*
X56619047Y-67835771D01*
X56619047Y-67835771D02*
X56714285Y-67883390D01*
X56714285Y-67883390D02*
X56761904Y-67931009D01*
X56761904Y-67931009D02*
X56809523Y-68026247D01*
X56809523Y-68026247D02*
X56809523Y-68264342D01*
X56809523Y-68264342D02*
X56761904Y-68359580D01*
X56761904Y-68359580D02*
X56714285Y-68407200D01*
X56714285Y-68407200D02*
X56619047Y-68454819D01*
X56619047Y-68454819D02*
X56333333Y-68454819D01*
X56333333Y-68454819D02*
X56238095Y-68407200D01*
X56238095Y-68407200D02*
X56190476Y-68359580D01*
X64057142Y-67209580D02*
X64009523Y-67257200D01*
X64009523Y-67257200D02*
X63866666Y-67304819D01*
X63866666Y-67304819D02*
X63771428Y-67304819D01*
X63771428Y-67304819D02*
X63628571Y-67257200D01*
X63628571Y-67257200D02*
X63533333Y-67161961D01*
X63533333Y-67161961D02*
X63485714Y-67066723D01*
X63485714Y-67066723D02*
X63438095Y-66876247D01*
X63438095Y-66876247D02*
X63438095Y-66733390D01*
X63438095Y-66733390D02*
X63485714Y-66542914D01*
X63485714Y-66542914D02*
X63533333Y-66447676D01*
X63533333Y-66447676D02*
X63628571Y-66352438D01*
X63628571Y-66352438D02*
X63771428Y-66304819D01*
X63771428Y-66304819D02*
X63866666Y-66304819D01*
X63866666Y-66304819D02*
X64009523Y-66352438D01*
X64009523Y-66352438D02*
X64057142Y-66400057D01*
X65009523Y-67304819D02*
X64438095Y-67304819D01*
X64723809Y-67304819D02*
X64723809Y-66304819D01*
X64723809Y-66304819D02*
X64628571Y-66447676D01*
X64628571Y-66447676D02*
X64533333Y-66542914D01*
X64533333Y-66542914D02*
X64438095Y-66590533D01*
X65866666Y-66304819D02*
X65676190Y-66304819D01*
X65676190Y-66304819D02*
X65580952Y-66352438D01*
X65580952Y-66352438D02*
X65533333Y-66400057D01*
X65533333Y-66400057D02*
X65438095Y-66542914D01*
X65438095Y-66542914D02*
X65390476Y-66733390D01*
X65390476Y-66733390D02*
X65390476Y-67114342D01*
X65390476Y-67114342D02*
X65438095Y-67209580D01*
X65438095Y-67209580D02*
X65485714Y-67257200D01*
X65485714Y-67257200D02*
X65580952Y-67304819D01*
X65580952Y-67304819D02*
X65771428Y-67304819D01*
X65771428Y-67304819D02*
X65866666Y-67257200D01*
X65866666Y-67257200D02*
X65914285Y-67209580D01*
X65914285Y-67209580D02*
X65961904Y-67114342D01*
X65961904Y-67114342D02*
X65961904Y-66876247D01*
X65961904Y-66876247D02*
X65914285Y-66781009D01*
X65914285Y-66781009D02*
X65866666Y-66733390D01*
X65866666Y-66733390D02*
X65771428Y-66685771D01*
X65771428Y-66685771D02*
X65580952Y-66685771D01*
X65580952Y-66685771D02*
X65485714Y-66733390D01*
X65485714Y-66733390D02*
X65438095Y-66781009D01*
X65438095Y-66781009D02*
X65390476Y-66876247D01*
X85711905Y-78404819D02*
X86283333Y-78404819D01*
X85997619Y-79404819D02*
X85997619Y-78404819D01*
X86616667Y-79404819D02*
X86616667Y-78404819D01*
X86616667Y-78404819D02*
X86997619Y-78404819D01*
X86997619Y-78404819D02*
X87092857Y-78452438D01*
X87092857Y-78452438D02*
X87140476Y-78500057D01*
X87140476Y-78500057D02*
X87188095Y-78595295D01*
X87188095Y-78595295D02*
X87188095Y-78738152D01*
X87188095Y-78738152D02*
X87140476Y-78833390D01*
X87140476Y-78833390D02*
X87092857Y-78881009D01*
X87092857Y-78881009D02*
X86997619Y-78928628D01*
X86997619Y-78928628D02*
X86616667Y-78928628D01*
X87521429Y-78404819D02*
X88140476Y-78404819D01*
X88140476Y-78404819D02*
X87807143Y-78785771D01*
X87807143Y-78785771D02*
X87950000Y-78785771D01*
X87950000Y-78785771D02*
X88045238Y-78833390D01*
X88045238Y-78833390D02*
X88092857Y-78881009D01*
X88092857Y-78881009D02*
X88140476Y-78976247D01*
X88140476Y-78976247D02*
X88140476Y-79214342D01*
X88140476Y-79214342D02*
X88092857Y-79309580D01*
X88092857Y-79309580D02*
X88045238Y-79357200D01*
X88045238Y-79357200D02*
X87950000Y-79404819D01*
X87950000Y-79404819D02*
X87664286Y-79404819D01*
X87664286Y-79404819D02*
X87569048Y-79357200D01*
X87569048Y-79357200D02*
X87521429Y-79309580D01*
X89092857Y-79404819D02*
X88521429Y-79404819D01*
X88807143Y-79404819D02*
X88807143Y-78404819D01*
X88807143Y-78404819D02*
X88711905Y-78547676D01*
X88711905Y-78547676D02*
X88616667Y-78642914D01*
X88616667Y-78642914D02*
X88521429Y-78690533D01*
X81938095Y-51454819D02*
X81938095Y-52264342D01*
X81938095Y-52264342D02*
X81985714Y-52359580D01*
X81985714Y-52359580D02*
X82033333Y-52407200D01*
X82033333Y-52407200D02*
X82128571Y-52454819D01*
X82128571Y-52454819D02*
X82319047Y-52454819D01*
X82319047Y-52454819D02*
X82414285Y-52407200D01*
X82414285Y-52407200D02*
X82461904Y-52359580D01*
X82461904Y-52359580D02*
X82509523Y-52264342D01*
X82509523Y-52264342D02*
X82509523Y-51454819D01*
X82890476Y-51454819D02*
X83557142Y-51454819D01*
X83557142Y-51454819D02*
X83128571Y-52454819D01*
X59059580Y-81842857D02*
X59107200Y-81890476D01*
X59107200Y-81890476D02*
X59154819Y-82033333D01*
X59154819Y-82033333D02*
X59154819Y-82128571D01*
X59154819Y-82128571D02*
X59107200Y-82271428D01*
X59107200Y-82271428D02*
X59011961Y-82366666D01*
X59011961Y-82366666D02*
X58916723Y-82414285D01*
X58916723Y-82414285D02*
X58726247Y-82461904D01*
X58726247Y-82461904D02*
X58583390Y-82461904D01*
X58583390Y-82461904D02*
X58392914Y-82414285D01*
X58392914Y-82414285D02*
X58297676Y-82366666D01*
X58297676Y-82366666D02*
X58202438Y-82271428D01*
X58202438Y-82271428D02*
X58154819Y-82128571D01*
X58154819Y-82128571D02*
X58154819Y-82033333D01*
X58154819Y-82033333D02*
X58202438Y-81890476D01*
X58202438Y-81890476D02*
X58250057Y-81842857D01*
X58250057Y-81461904D02*
X58202438Y-81414285D01*
X58202438Y-81414285D02*
X58154819Y-81319047D01*
X58154819Y-81319047D02*
X58154819Y-81080952D01*
X58154819Y-81080952D02*
X58202438Y-80985714D01*
X58202438Y-80985714D02*
X58250057Y-80938095D01*
X58250057Y-80938095D02*
X58345295Y-80890476D01*
X58345295Y-80890476D02*
X58440533Y-80890476D01*
X58440533Y-80890476D02*
X58583390Y-80938095D01*
X58583390Y-80938095D02*
X59154819Y-81509523D01*
X59154819Y-81509523D02*
X59154819Y-80890476D01*
X58250057Y-80509523D02*
X58202438Y-80461904D01*
X58202438Y-80461904D02*
X58154819Y-80366666D01*
X58154819Y-80366666D02*
X58154819Y-80128571D01*
X58154819Y-80128571D02*
X58202438Y-80033333D01*
X58202438Y-80033333D02*
X58250057Y-79985714D01*
X58250057Y-79985714D02*
X58345295Y-79938095D01*
X58345295Y-79938095D02*
X58440533Y-79938095D01*
X58440533Y-79938095D02*
X58583390Y-79985714D01*
X58583390Y-79985714D02*
X59154819Y-80557142D01*
X59154819Y-80557142D02*
X59154819Y-79938095D01*
X76739905Y-100704819D02*
X76739905Y-101514342D01*
X76739905Y-101514342D02*
X76787524Y-101609580D01*
X76787524Y-101609580D02*
X76835143Y-101657200D01*
X76835143Y-101657200D02*
X76930381Y-101704819D01*
X76930381Y-101704819D02*
X77120857Y-101704819D01*
X77120857Y-101704819D02*
X77216095Y-101657200D01*
X77216095Y-101657200D02*
X77263714Y-101609580D01*
X77263714Y-101609580D02*
X77311333Y-101514342D01*
X77311333Y-101514342D02*
X77311333Y-100704819D01*
X78311333Y-101704819D02*
X77739905Y-101704819D01*
X78025619Y-101704819D02*
X78025619Y-100704819D01*
X78025619Y-100704819D02*
X77930381Y-100847676D01*
X77930381Y-100847676D02*
X77835143Y-100942914D01*
X77835143Y-100942914D02*
X77739905Y-100990533D01*
X78644667Y-100704819D02*
X79263714Y-100704819D01*
X79263714Y-100704819D02*
X78930381Y-101085771D01*
X78930381Y-101085771D02*
X79073238Y-101085771D01*
X79073238Y-101085771D02*
X79168476Y-101133390D01*
X79168476Y-101133390D02*
X79216095Y-101181009D01*
X79216095Y-101181009D02*
X79263714Y-101276247D01*
X79263714Y-101276247D02*
X79263714Y-101514342D01*
X79263714Y-101514342D02*
X79216095Y-101609580D01*
X79216095Y-101609580D02*
X79168476Y-101657200D01*
X79168476Y-101657200D02*
X79073238Y-101704819D01*
X79073238Y-101704819D02*
X78787524Y-101704819D01*
X78787524Y-101704819D02*
X78692286Y-101657200D01*
X78692286Y-101657200D02*
X78644667Y-101609580D01*
X125266666Y-64534819D02*
X125266666Y-65249104D01*
X125266666Y-65249104D02*
X125219047Y-65391961D01*
X125219047Y-65391961D02*
X125123809Y-65487200D01*
X125123809Y-65487200D02*
X124980952Y-65534819D01*
X124980952Y-65534819D02*
X124885714Y-65534819D01*
X126219047Y-64534819D02*
X125742857Y-64534819D01*
X125742857Y-64534819D02*
X125695238Y-65011009D01*
X125695238Y-65011009D02*
X125742857Y-64963390D01*
X125742857Y-64963390D02*
X125838095Y-64915771D01*
X125838095Y-64915771D02*
X126076190Y-64915771D01*
X126076190Y-64915771D02*
X126171428Y-64963390D01*
X126171428Y-64963390D02*
X126219047Y-65011009D01*
X126219047Y-65011009D02*
X126266666Y-65106247D01*
X126266666Y-65106247D02*
X126266666Y-65344342D01*
X126266666Y-65344342D02*
X126219047Y-65439580D01*
X126219047Y-65439580D02*
X126171428Y-65487200D01*
X126171428Y-65487200D02*
X126076190Y-65534819D01*
X126076190Y-65534819D02*
X125838095Y-65534819D01*
X125838095Y-65534819D02*
X125742857Y-65487200D01*
X125742857Y-65487200D02*
X125695238Y-65439580D01*
X121038095Y-66254819D02*
X121038095Y-67064342D01*
X121038095Y-67064342D02*
X121085714Y-67159580D01*
X121085714Y-67159580D02*
X121133333Y-67207200D01*
X121133333Y-67207200D02*
X121228571Y-67254819D01*
X121228571Y-67254819D02*
X121419047Y-67254819D01*
X121419047Y-67254819D02*
X121514285Y-67207200D01*
X121514285Y-67207200D02*
X121561904Y-67159580D01*
X121561904Y-67159580D02*
X121609523Y-67064342D01*
X121609523Y-67064342D02*
X121609523Y-66254819D01*
X122514285Y-66254819D02*
X122323809Y-66254819D01*
X122323809Y-66254819D02*
X122228571Y-66302438D01*
X122228571Y-66302438D02*
X122180952Y-66350057D01*
X122180952Y-66350057D02*
X122085714Y-66492914D01*
X122085714Y-66492914D02*
X122038095Y-66683390D01*
X122038095Y-66683390D02*
X122038095Y-67064342D01*
X122038095Y-67064342D02*
X122085714Y-67159580D01*
X122085714Y-67159580D02*
X122133333Y-67207200D01*
X122133333Y-67207200D02*
X122228571Y-67254819D01*
X122228571Y-67254819D02*
X122419047Y-67254819D01*
X122419047Y-67254819D02*
X122514285Y-67207200D01*
X122514285Y-67207200D02*
X122561904Y-67159580D01*
X122561904Y-67159580D02*
X122609523Y-67064342D01*
X122609523Y-67064342D02*
X122609523Y-66826247D01*
X122609523Y-66826247D02*
X122561904Y-66731009D01*
X122561904Y-66731009D02*
X122514285Y-66683390D01*
X122514285Y-66683390D02*
X122419047Y-66635771D01*
X122419047Y-66635771D02*
X122228571Y-66635771D01*
X122228571Y-66635771D02*
X122133333Y-66683390D01*
X122133333Y-66683390D02*
X122085714Y-66731009D01*
X122085714Y-66731009D02*
X122038095Y-66826247D01*
X125616666Y-75704819D02*
X125616666Y-76419104D01*
X125616666Y-76419104D02*
X125569047Y-76561961D01*
X125569047Y-76561961D02*
X125473809Y-76657200D01*
X125473809Y-76657200D02*
X125330952Y-76704819D01*
X125330952Y-76704819D02*
X125235714Y-76704819D01*
X126521428Y-76038152D02*
X126521428Y-76704819D01*
X126283333Y-75657200D02*
X126045238Y-76371485D01*
X126045238Y-76371485D02*
X126664285Y-76371485D01*
X65732142Y-59084580D02*
X65684523Y-59132200D01*
X65684523Y-59132200D02*
X65541666Y-59179819D01*
X65541666Y-59179819D02*
X65446428Y-59179819D01*
X65446428Y-59179819D02*
X65303571Y-59132200D01*
X65303571Y-59132200D02*
X65208333Y-59036961D01*
X65208333Y-59036961D02*
X65160714Y-58941723D01*
X65160714Y-58941723D02*
X65113095Y-58751247D01*
X65113095Y-58751247D02*
X65113095Y-58608390D01*
X65113095Y-58608390D02*
X65160714Y-58417914D01*
X65160714Y-58417914D02*
X65208333Y-58322676D01*
X65208333Y-58322676D02*
X65303571Y-58227438D01*
X65303571Y-58227438D02*
X65446428Y-58179819D01*
X65446428Y-58179819D02*
X65541666Y-58179819D01*
X65541666Y-58179819D02*
X65684523Y-58227438D01*
X65684523Y-58227438D02*
X65732142Y-58275057D01*
X66684523Y-59179819D02*
X66113095Y-59179819D01*
X66398809Y-59179819D02*
X66398809Y-58179819D01*
X66398809Y-58179819D02*
X66303571Y-58322676D01*
X66303571Y-58322676D02*
X66208333Y-58417914D01*
X66208333Y-58417914D02*
X66113095Y-58465533D01*
X67303571Y-58179819D02*
X67398809Y-58179819D01*
X67398809Y-58179819D02*
X67494047Y-58227438D01*
X67494047Y-58227438D02*
X67541666Y-58275057D01*
X67541666Y-58275057D02*
X67589285Y-58370295D01*
X67589285Y-58370295D02*
X67636904Y-58560771D01*
X67636904Y-58560771D02*
X67636904Y-58798866D01*
X67636904Y-58798866D02*
X67589285Y-58989342D01*
X67589285Y-58989342D02*
X67541666Y-59084580D01*
X67541666Y-59084580D02*
X67494047Y-59132200D01*
X67494047Y-59132200D02*
X67398809Y-59179819D01*
X67398809Y-59179819D02*
X67303571Y-59179819D01*
X67303571Y-59179819D02*
X67208333Y-59132200D01*
X67208333Y-59132200D02*
X67160714Y-59084580D01*
X67160714Y-59084580D02*
X67113095Y-58989342D01*
X67113095Y-58989342D02*
X67065476Y-58798866D01*
X67065476Y-58798866D02*
X67065476Y-58560771D01*
X67065476Y-58560771D02*
X67113095Y-58370295D01*
X67113095Y-58370295D02*
X67160714Y-58275057D01*
X67160714Y-58275057D02*
X67208333Y-58227438D01*
X67208333Y-58227438D02*
X67303571Y-58179819D01*
X90959580Y-55692857D02*
X91007200Y-55740476D01*
X91007200Y-55740476D02*
X91054819Y-55883333D01*
X91054819Y-55883333D02*
X91054819Y-55978571D01*
X91054819Y-55978571D02*
X91007200Y-56121428D01*
X91007200Y-56121428D02*
X90911961Y-56216666D01*
X90911961Y-56216666D02*
X90816723Y-56264285D01*
X90816723Y-56264285D02*
X90626247Y-56311904D01*
X90626247Y-56311904D02*
X90483390Y-56311904D01*
X90483390Y-56311904D02*
X90292914Y-56264285D01*
X90292914Y-56264285D02*
X90197676Y-56216666D01*
X90197676Y-56216666D02*
X90102438Y-56121428D01*
X90102438Y-56121428D02*
X90054819Y-55978571D01*
X90054819Y-55978571D02*
X90054819Y-55883333D01*
X90054819Y-55883333D02*
X90102438Y-55740476D01*
X90102438Y-55740476D02*
X90150057Y-55692857D01*
X90054819Y-55359523D02*
X90054819Y-54740476D01*
X90054819Y-54740476D02*
X90435771Y-55073809D01*
X90435771Y-55073809D02*
X90435771Y-54930952D01*
X90435771Y-54930952D02*
X90483390Y-54835714D01*
X90483390Y-54835714D02*
X90531009Y-54788095D01*
X90531009Y-54788095D02*
X90626247Y-54740476D01*
X90626247Y-54740476D02*
X90864342Y-54740476D01*
X90864342Y-54740476D02*
X90959580Y-54788095D01*
X90959580Y-54788095D02*
X91007200Y-54835714D01*
X91007200Y-54835714D02*
X91054819Y-54930952D01*
X91054819Y-54930952D02*
X91054819Y-55216666D01*
X91054819Y-55216666D02*
X91007200Y-55311904D01*
X91007200Y-55311904D02*
X90959580Y-55359523D01*
X91054819Y-53788095D02*
X91054819Y-54359523D01*
X91054819Y-54073809D02*
X90054819Y-54073809D01*
X90054819Y-54073809D02*
X90197676Y-54169047D01*
X90197676Y-54169047D02*
X90292914Y-54264285D01*
X90292914Y-54264285D02*
X90340533Y-54359523D01*
X106561905Y-67081819D02*
X107133333Y-67081819D01*
X106847619Y-68081819D02*
X106847619Y-67081819D01*
X107466667Y-68081819D02*
X107466667Y-67081819D01*
X107466667Y-67081819D02*
X107847619Y-67081819D01*
X107847619Y-67081819D02*
X107942857Y-67129438D01*
X107942857Y-67129438D02*
X107990476Y-67177057D01*
X107990476Y-67177057D02*
X108038095Y-67272295D01*
X108038095Y-67272295D02*
X108038095Y-67415152D01*
X108038095Y-67415152D02*
X107990476Y-67510390D01*
X107990476Y-67510390D02*
X107942857Y-67558009D01*
X107942857Y-67558009D02*
X107847619Y-67605628D01*
X107847619Y-67605628D02*
X107466667Y-67605628D01*
X108990476Y-68081819D02*
X108419048Y-68081819D01*
X108704762Y-68081819D02*
X108704762Y-67081819D01*
X108704762Y-67081819D02*
X108609524Y-67224676D01*
X108609524Y-67224676D02*
X108514286Y-67319914D01*
X108514286Y-67319914D02*
X108419048Y-67367533D01*
X109942857Y-68081819D02*
X109371429Y-68081819D01*
X109657143Y-68081819D02*
X109657143Y-67081819D01*
X109657143Y-67081819D02*
X109561905Y-67224676D01*
X109561905Y-67224676D02*
X109466667Y-67319914D01*
X109466667Y-67319914D02*
X109371429Y-67367533D01*
X101016666Y-54379819D02*
X101016666Y-55094104D01*
X101016666Y-55094104D02*
X100969047Y-55236961D01*
X100969047Y-55236961D02*
X100873809Y-55332200D01*
X100873809Y-55332200D02*
X100730952Y-55379819D01*
X100730952Y-55379819D02*
X100635714Y-55379819D01*
X101397619Y-54379819D02*
X102064285Y-54379819D01*
X102064285Y-54379819D02*
X101635714Y-55379819D01*
X77861905Y-56054819D02*
X78433333Y-56054819D01*
X78147619Y-57054819D02*
X78147619Y-56054819D01*
X78766667Y-57054819D02*
X78766667Y-56054819D01*
X78766667Y-56054819D02*
X79147619Y-56054819D01*
X79147619Y-56054819D02*
X79242857Y-56102438D01*
X79242857Y-56102438D02*
X79290476Y-56150057D01*
X79290476Y-56150057D02*
X79338095Y-56245295D01*
X79338095Y-56245295D02*
X79338095Y-56388152D01*
X79338095Y-56388152D02*
X79290476Y-56483390D01*
X79290476Y-56483390D02*
X79242857Y-56531009D01*
X79242857Y-56531009D02*
X79147619Y-56578628D01*
X79147619Y-56578628D02*
X78766667Y-56578628D01*
X79671429Y-56054819D02*
X80290476Y-56054819D01*
X80290476Y-56054819D02*
X79957143Y-56435771D01*
X79957143Y-56435771D02*
X80100000Y-56435771D01*
X80100000Y-56435771D02*
X80195238Y-56483390D01*
X80195238Y-56483390D02*
X80242857Y-56531009D01*
X80242857Y-56531009D02*
X80290476Y-56626247D01*
X80290476Y-56626247D02*
X80290476Y-56864342D01*
X80290476Y-56864342D02*
X80242857Y-56959580D01*
X80242857Y-56959580D02*
X80195238Y-57007200D01*
X80195238Y-57007200D02*
X80100000Y-57054819D01*
X80100000Y-57054819D02*
X79814286Y-57054819D01*
X79814286Y-57054819D02*
X79719048Y-57007200D01*
X79719048Y-57007200D02*
X79671429Y-56959580D01*
X80909524Y-56054819D02*
X81004762Y-56054819D01*
X81004762Y-56054819D02*
X81100000Y-56102438D01*
X81100000Y-56102438D02*
X81147619Y-56150057D01*
X81147619Y-56150057D02*
X81195238Y-56245295D01*
X81195238Y-56245295D02*
X81242857Y-56435771D01*
X81242857Y-56435771D02*
X81242857Y-56673866D01*
X81242857Y-56673866D02*
X81195238Y-56864342D01*
X81195238Y-56864342D02*
X81147619Y-56959580D01*
X81147619Y-56959580D02*
X81100000Y-57007200D01*
X81100000Y-57007200D02*
X81004762Y-57054819D01*
X81004762Y-57054819D02*
X80909524Y-57054819D01*
X80909524Y-57054819D02*
X80814286Y-57007200D01*
X80814286Y-57007200D02*
X80766667Y-56959580D01*
X80766667Y-56959580D02*
X80719048Y-56864342D01*
X80719048Y-56864342D02*
X80671429Y-56673866D01*
X80671429Y-56673866D02*
X80671429Y-56435771D01*
X80671429Y-56435771D02*
X80719048Y-56245295D01*
X80719048Y-56245295D02*
X80766667Y-56150057D01*
X80766667Y-56150057D02*
X80814286Y-56102438D01*
X80814286Y-56102438D02*
X80909524Y-56054819D01*
X100007142Y-67829819D02*
X99673809Y-67353628D01*
X99435714Y-67829819D02*
X99435714Y-66829819D01*
X99435714Y-66829819D02*
X99816666Y-66829819D01*
X99816666Y-66829819D02*
X99911904Y-66877438D01*
X99911904Y-66877438D02*
X99959523Y-66925057D01*
X99959523Y-66925057D02*
X100007142Y-67020295D01*
X100007142Y-67020295D02*
X100007142Y-67163152D01*
X100007142Y-67163152D02*
X99959523Y-67258390D01*
X99959523Y-67258390D02*
X99911904Y-67306009D01*
X99911904Y-67306009D02*
X99816666Y-67353628D01*
X99816666Y-67353628D02*
X99435714Y-67353628D01*
X100959523Y-67829819D02*
X100388095Y-67829819D01*
X100673809Y-67829819D02*
X100673809Y-66829819D01*
X100673809Y-66829819D02*
X100578571Y-66972676D01*
X100578571Y-66972676D02*
X100483333Y-67067914D01*
X100483333Y-67067914D02*
X100388095Y-67115533D01*
X101864285Y-66829819D02*
X101388095Y-66829819D01*
X101388095Y-66829819D02*
X101340476Y-67306009D01*
X101340476Y-67306009D02*
X101388095Y-67258390D01*
X101388095Y-67258390D02*
X101483333Y-67210771D01*
X101483333Y-67210771D02*
X101721428Y-67210771D01*
X101721428Y-67210771D02*
X101816666Y-67258390D01*
X101816666Y-67258390D02*
X101864285Y-67306009D01*
X101864285Y-67306009D02*
X101911904Y-67401247D01*
X101911904Y-67401247D02*
X101911904Y-67639342D01*
X101911904Y-67639342D02*
X101864285Y-67734580D01*
X101864285Y-67734580D02*
X101816666Y-67782200D01*
X101816666Y-67782200D02*
X101721428Y-67829819D01*
X101721428Y-67829819D02*
X101483333Y-67829819D01*
X101483333Y-67829819D02*
X101388095Y-67782200D01*
X101388095Y-67782200D02*
X101340476Y-67734580D01*
X62329819Y-82092857D02*
X61853628Y-82426190D01*
X62329819Y-82664285D02*
X61329819Y-82664285D01*
X61329819Y-82664285D02*
X61329819Y-82283333D01*
X61329819Y-82283333D02*
X61377438Y-82188095D01*
X61377438Y-82188095D02*
X61425057Y-82140476D01*
X61425057Y-82140476D02*
X61520295Y-82092857D01*
X61520295Y-82092857D02*
X61663152Y-82092857D01*
X61663152Y-82092857D02*
X61758390Y-82140476D01*
X61758390Y-82140476D02*
X61806009Y-82188095D01*
X61806009Y-82188095D02*
X61853628Y-82283333D01*
X61853628Y-82283333D02*
X61853628Y-82664285D01*
X62329819Y-81140476D02*
X62329819Y-81711904D01*
X62329819Y-81426190D02*
X61329819Y-81426190D01*
X61329819Y-81426190D02*
X61472676Y-81521428D01*
X61472676Y-81521428D02*
X61567914Y-81616666D01*
X61567914Y-81616666D02*
X61615533Y-81711904D01*
X61663152Y-80283333D02*
X62329819Y-80283333D01*
X61282200Y-80521428D02*
X61996485Y-80759523D01*
X61996485Y-80759523D02*
X61996485Y-80140476D01*
X52359580Y-70942857D02*
X52407200Y-70990476D01*
X52407200Y-70990476D02*
X52454819Y-71133333D01*
X52454819Y-71133333D02*
X52454819Y-71228571D01*
X52454819Y-71228571D02*
X52407200Y-71371428D01*
X52407200Y-71371428D02*
X52311961Y-71466666D01*
X52311961Y-71466666D02*
X52216723Y-71514285D01*
X52216723Y-71514285D02*
X52026247Y-71561904D01*
X52026247Y-71561904D02*
X51883390Y-71561904D01*
X51883390Y-71561904D02*
X51692914Y-71514285D01*
X51692914Y-71514285D02*
X51597676Y-71466666D01*
X51597676Y-71466666D02*
X51502438Y-71371428D01*
X51502438Y-71371428D02*
X51454819Y-71228571D01*
X51454819Y-71228571D02*
X51454819Y-71133333D01*
X51454819Y-71133333D02*
X51502438Y-70990476D01*
X51502438Y-70990476D02*
X51550057Y-70942857D01*
X51550057Y-70561904D02*
X51502438Y-70514285D01*
X51502438Y-70514285D02*
X51454819Y-70419047D01*
X51454819Y-70419047D02*
X51454819Y-70180952D01*
X51454819Y-70180952D02*
X51502438Y-70085714D01*
X51502438Y-70085714D02*
X51550057Y-70038095D01*
X51550057Y-70038095D02*
X51645295Y-69990476D01*
X51645295Y-69990476D02*
X51740533Y-69990476D01*
X51740533Y-69990476D02*
X51883390Y-70038095D01*
X51883390Y-70038095D02*
X52454819Y-70609523D01*
X52454819Y-70609523D02*
X52454819Y-69990476D01*
X51454819Y-69085714D02*
X51454819Y-69561904D01*
X51454819Y-69561904D02*
X51931009Y-69609523D01*
X51931009Y-69609523D02*
X51883390Y-69561904D01*
X51883390Y-69561904D02*
X51835771Y-69466666D01*
X51835771Y-69466666D02*
X51835771Y-69228571D01*
X51835771Y-69228571D02*
X51883390Y-69133333D01*
X51883390Y-69133333D02*
X51931009Y-69085714D01*
X51931009Y-69085714D02*
X52026247Y-69038095D01*
X52026247Y-69038095D02*
X52264342Y-69038095D01*
X52264342Y-69038095D02*
X52359580Y-69085714D01*
X52359580Y-69085714D02*
X52407200Y-69133333D01*
X52407200Y-69133333D02*
X52454819Y-69228571D01*
X52454819Y-69228571D02*
X52454819Y-69466666D01*
X52454819Y-69466666D02*
X52407200Y-69561904D01*
X52407200Y-69561904D02*
X52359580Y-69609523D01*
X96832142Y-70009580D02*
X96784523Y-70057200D01*
X96784523Y-70057200D02*
X96641666Y-70104819D01*
X96641666Y-70104819D02*
X96546428Y-70104819D01*
X96546428Y-70104819D02*
X96403571Y-70057200D01*
X96403571Y-70057200D02*
X96308333Y-69961961D01*
X96308333Y-69961961D02*
X96260714Y-69866723D01*
X96260714Y-69866723D02*
X96213095Y-69676247D01*
X96213095Y-69676247D02*
X96213095Y-69533390D01*
X96213095Y-69533390D02*
X96260714Y-69342914D01*
X96260714Y-69342914D02*
X96308333Y-69247676D01*
X96308333Y-69247676D02*
X96403571Y-69152438D01*
X96403571Y-69152438D02*
X96546428Y-69104819D01*
X96546428Y-69104819D02*
X96641666Y-69104819D01*
X96641666Y-69104819D02*
X96784523Y-69152438D01*
X96784523Y-69152438D02*
X96832142Y-69200057D01*
X97165476Y-69104819D02*
X97784523Y-69104819D01*
X97784523Y-69104819D02*
X97451190Y-69485771D01*
X97451190Y-69485771D02*
X97594047Y-69485771D01*
X97594047Y-69485771D02*
X97689285Y-69533390D01*
X97689285Y-69533390D02*
X97736904Y-69581009D01*
X97736904Y-69581009D02*
X97784523Y-69676247D01*
X97784523Y-69676247D02*
X97784523Y-69914342D01*
X97784523Y-69914342D02*
X97736904Y-70009580D01*
X97736904Y-70009580D02*
X97689285Y-70057200D01*
X97689285Y-70057200D02*
X97594047Y-70104819D01*
X97594047Y-70104819D02*
X97308333Y-70104819D01*
X97308333Y-70104819D02*
X97213095Y-70057200D01*
X97213095Y-70057200D02*
X97165476Y-70009580D01*
X98355952Y-69533390D02*
X98260714Y-69485771D01*
X98260714Y-69485771D02*
X98213095Y-69438152D01*
X98213095Y-69438152D02*
X98165476Y-69342914D01*
X98165476Y-69342914D02*
X98165476Y-69295295D01*
X98165476Y-69295295D02*
X98213095Y-69200057D01*
X98213095Y-69200057D02*
X98260714Y-69152438D01*
X98260714Y-69152438D02*
X98355952Y-69104819D01*
X98355952Y-69104819D02*
X98546428Y-69104819D01*
X98546428Y-69104819D02*
X98641666Y-69152438D01*
X98641666Y-69152438D02*
X98689285Y-69200057D01*
X98689285Y-69200057D02*
X98736904Y-69295295D01*
X98736904Y-69295295D02*
X98736904Y-69342914D01*
X98736904Y-69342914D02*
X98689285Y-69438152D01*
X98689285Y-69438152D02*
X98641666Y-69485771D01*
X98641666Y-69485771D02*
X98546428Y-69533390D01*
X98546428Y-69533390D02*
X98355952Y-69533390D01*
X98355952Y-69533390D02*
X98260714Y-69581009D01*
X98260714Y-69581009D02*
X98213095Y-69628628D01*
X98213095Y-69628628D02*
X98165476Y-69723866D01*
X98165476Y-69723866D02*
X98165476Y-69914342D01*
X98165476Y-69914342D02*
X98213095Y-70009580D01*
X98213095Y-70009580D02*
X98260714Y-70057200D01*
X98260714Y-70057200D02*
X98355952Y-70104819D01*
X98355952Y-70104819D02*
X98546428Y-70104819D01*
X98546428Y-70104819D02*
X98641666Y-70057200D01*
X98641666Y-70057200D02*
X98689285Y-70009580D01*
X98689285Y-70009580D02*
X98736904Y-69914342D01*
X98736904Y-69914342D02*
X98736904Y-69723866D01*
X98736904Y-69723866D02*
X98689285Y-69628628D01*
X98689285Y-69628628D02*
X98641666Y-69581009D01*
X98641666Y-69581009D02*
X98546428Y-69533390D01*
X62382142Y-64159580D02*
X62334523Y-64207200D01*
X62334523Y-64207200D02*
X62191666Y-64254819D01*
X62191666Y-64254819D02*
X62096428Y-64254819D01*
X62096428Y-64254819D02*
X61953571Y-64207200D01*
X61953571Y-64207200D02*
X61858333Y-64111961D01*
X61858333Y-64111961D02*
X61810714Y-64016723D01*
X61810714Y-64016723D02*
X61763095Y-63826247D01*
X61763095Y-63826247D02*
X61763095Y-63683390D01*
X61763095Y-63683390D02*
X61810714Y-63492914D01*
X61810714Y-63492914D02*
X61858333Y-63397676D01*
X61858333Y-63397676D02*
X61953571Y-63302438D01*
X61953571Y-63302438D02*
X62096428Y-63254819D01*
X62096428Y-63254819D02*
X62191666Y-63254819D01*
X62191666Y-63254819D02*
X62334523Y-63302438D01*
X62334523Y-63302438D02*
X62382142Y-63350057D01*
X63334523Y-64254819D02*
X62763095Y-64254819D01*
X63048809Y-64254819D02*
X63048809Y-63254819D01*
X63048809Y-63254819D02*
X62953571Y-63397676D01*
X62953571Y-63397676D02*
X62858333Y-63492914D01*
X62858333Y-63492914D02*
X62763095Y-63540533D01*
X64191666Y-63588152D02*
X64191666Y-64254819D01*
X63953571Y-63207200D02*
X63715476Y-63921485D01*
X63715476Y-63921485D02*
X64334523Y-63921485D01*
X96336905Y-62554819D02*
X96336905Y-61554819D01*
X96336905Y-61554819D02*
X96575000Y-61554819D01*
X96575000Y-61554819D02*
X96717857Y-61602438D01*
X96717857Y-61602438D02*
X96813095Y-61697676D01*
X96813095Y-61697676D02*
X96860714Y-61792914D01*
X96860714Y-61792914D02*
X96908333Y-61983390D01*
X96908333Y-61983390D02*
X96908333Y-62126247D01*
X96908333Y-62126247D02*
X96860714Y-62316723D01*
X96860714Y-62316723D02*
X96813095Y-62411961D01*
X96813095Y-62411961D02*
X96717857Y-62507200D01*
X96717857Y-62507200D02*
X96575000Y-62554819D01*
X96575000Y-62554819D02*
X96336905Y-62554819D01*
X97860714Y-62554819D02*
X97289286Y-62554819D01*
X97575000Y-62554819D02*
X97575000Y-61554819D01*
X97575000Y-61554819D02*
X97479762Y-61697676D01*
X97479762Y-61697676D02*
X97384524Y-61792914D01*
X97384524Y-61792914D02*
X97289286Y-61840533D01*
X84982142Y-66654819D02*
X84648809Y-66178628D01*
X84410714Y-66654819D02*
X84410714Y-65654819D01*
X84410714Y-65654819D02*
X84791666Y-65654819D01*
X84791666Y-65654819D02*
X84886904Y-65702438D01*
X84886904Y-65702438D02*
X84934523Y-65750057D01*
X84934523Y-65750057D02*
X84982142Y-65845295D01*
X84982142Y-65845295D02*
X84982142Y-65988152D01*
X84982142Y-65988152D02*
X84934523Y-66083390D01*
X84934523Y-66083390D02*
X84886904Y-66131009D01*
X84886904Y-66131009D02*
X84791666Y-66178628D01*
X84791666Y-66178628D02*
X84410714Y-66178628D01*
X85363095Y-65750057D02*
X85410714Y-65702438D01*
X85410714Y-65702438D02*
X85505952Y-65654819D01*
X85505952Y-65654819D02*
X85744047Y-65654819D01*
X85744047Y-65654819D02*
X85839285Y-65702438D01*
X85839285Y-65702438D02*
X85886904Y-65750057D01*
X85886904Y-65750057D02*
X85934523Y-65845295D01*
X85934523Y-65845295D02*
X85934523Y-65940533D01*
X85934523Y-65940533D02*
X85886904Y-66083390D01*
X85886904Y-66083390D02*
X85315476Y-66654819D01*
X85315476Y-66654819D02*
X85934523Y-66654819D01*
X86791666Y-65654819D02*
X86601190Y-65654819D01*
X86601190Y-65654819D02*
X86505952Y-65702438D01*
X86505952Y-65702438D02*
X86458333Y-65750057D01*
X86458333Y-65750057D02*
X86363095Y-65892914D01*
X86363095Y-65892914D02*
X86315476Y-66083390D01*
X86315476Y-66083390D02*
X86315476Y-66464342D01*
X86315476Y-66464342D02*
X86363095Y-66559580D01*
X86363095Y-66559580D02*
X86410714Y-66607200D01*
X86410714Y-66607200D02*
X86505952Y-66654819D01*
X86505952Y-66654819D02*
X86696428Y-66654819D01*
X86696428Y-66654819D02*
X86791666Y-66607200D01*
X86791666Y-66607200D02*
X86839285Y-66559580D01*
X86839285Y-66559580D02*
X86886904Y-66464342D01*
X86886904Y-66464342D02*
X86886904Y-66226247D01*
X86886904Y-66226247D02*
X86839285Y-66131009D01*
X86839285Y-66131009D02*
X86791666Y-66083390D01*
X86791666Y-66083390D02*
X86696428Y-66035771D01*
X86696428Y-66035771D02*
X86505952Y-66035771D01*
X86505952Y-66035771D02*
X86410714Y-66083390D01*
X86410714Y-66083390D02*
X86363095Y-66131009D01*
X86363095Y-66131009D02*
X86315476Y-66226247D01*
X106965905Y-100704819D02*
X106965905Y-101514342D01*
X106965905Y-101514342D02*
X107013524Y-101609580D01*
X107013524Y-101609580D02*
X107061143Y-101657200D01*
X107061143Y-101657200D02*
X107156381Y-101704819D01*
X107156381Y-101704819D02*
X107346857Y-101704819D01*
X107346857Y-101704819D02*
X107442095Y-101657200D01*
X107442095Y-101657200D02*
X107489714Y-101609580D01*
X107489714Y-101609580D02*
X107537333Y-101514342D01*
X107537333Y-101514342D02*
X107537333Y-100704819D01*
X108537333Y-101704819D02*
X107965905Y-101704819D01*
X108251619Y-101704819D02*
X108251619Y-100704819D01*
X108251619Y-100704819D02*
X108156381Y-100847676D01*
X108156381Y-100847676D02*
X108061143Y-100942914D01*
X108061143Y-100942914D02*
X107965905Y-100990533D01*
X108918286Y-100800057D02*
X108965905Y-100752438D01*
X108965905Y-100752438D02*
X109061143Y-100704819D01*
X109061143Y-100704819D02*
X109299238Y-100704819D01*
X109299238Y-100704819D02*
X109394476Y-100752438D01*
X109394476Y-100752438D02*
X109442095Y-100800057D01*
X109442095Y-100800057D02*
X109489714Y-100895295D01*
X109489714Y-100895295D02*
X109489714Y-100990533D01*
X109489714Y-100990533D02*
X109442095Y-101133390D01*
X109442095Y-101133390D02*
X108870667Y-101704819D01*
X108870667Y-101704819D02*
X109489714Y-101704819D01*
D12*
%TO.C,U8*%
X92375500Y-172222100D02*
X90826100Y-172222100D01*
X90826100Y-174177900D02*
X92375500Y-174177900D01*
X93408900Y-173700000D02*
G75*
G03*
X93408900Y-173700000I-101600J0D01*
G01*
D11*
%TO.C,SW2*%
X79350000Y-47825000D02*
X81150000Y-47825000D01*
X79750000Y-47225000D02*
X80750000Y-47225000D01*
X79750000Y-47825000D02*
X79750000Y-47225000D01*
X80750000Y-47225000D02*
X80750000Y-47825000D01*
%TO.C,SW1*%
X86450000Y-47850000D02*
X88250000Y-47850000D01*
X86850000Y-47250000D02*
X87850000Y-47250000D01*
X86850000Y-47850000D02*
X86850000Y-47250000D01*
X87850000Y-47250000D02*
X87850000Y-47850000D01*
D13*
%TO.C,U18*%
X111000000Y-128500000D02*
X105000000Y-128500000D01*
X105000000Y-128500000D02*
X105000000Y-121500000D01*
X105000000Y-121500000D02*
X111000000Y-121500000D01*
X111000000Y-121500000D02*
X111000000Y-128500000D01*
D14*
X111433742Y-128810000D02*
G75*
G03*
X111433742Y-128810000I-113742J0D01*
G01*
D15*
%TO.C,J6*%
X128630000Y-57995000D02*
X129265000Y-57995000D01*
X128630000Y-58630000D02*
X128630000Y-57995000D01*
D13*
%TO.C,U20*%
X81000000Y-128500000D02*
X75000000Y-128500000D01*
X75000000Y-128500000D02*
X75000000Y-121500000D01*
X75000000Y-121500000D02*
X81000000Y-121500000D01*
X81000000Y-121500000D02*
X81000000Y-128500000D01*
D14*
X81433742Y-128810000D02*
G75*
G03*
X81433742Y-128810000I-113742J0D01*
G01*
D15*
%TO.C,TP4*%
X81675000Y-69350000D02*
G75*
G03*
X81675000Y-69350000I-700000J0D01*
G01*
%TO.C,R18*%
X88620000Y-52973641D02*
X88620000Y-52666359D01*
X89380000Y-52973641D02*
X89380000Y-52666359D01*
%TO.C,G\u002A\u002A\u002A*%
G36*
X57666993Y-169054887D02*
G01*
X57667911Y-169062438D01*
X57643870Y-169093112D01*
X57636319Y-169094030D01*
X57605645Y-169069989D01*
X57604727Y-169062438D01*
X57628768Y-169031764D01*
X57636319Y-169030846D01*
X57666993Y-169054887D01*
G37*
G36*
X75327861Y-169015050D02*
G01*
X75357999Y-169043439D01*
X75359453Y-169048506D01*
X75335011Y-169062076D01*
X75327861Y-169062438D01*
X75297483Y-169038152D01*
X75296269Y-169028982D01*
X75315624Y-169010114D01*
X75327861Y-169015050D01*
G37*
G36*
X63203822Y-166937824D02*
G01*
X63432270Y-167166273D01*
X63228429Y-167371942D01*
X63133215Y-167462862D01*
X63049829Y-167533215D01*
X62990976Y-167572675D01*
X62975374Y-167577612D01*
X62932486Y-167556291D01*
X62859078Y-167499210D01*
X62767856Y-167416696D01*
X62722319Y-167371942D01*
X62518477Y-167166273D01*
X62746925Y-166937824D01*
X62975374Y-166709376D01*
X63203822Y-166937824D01*
G37*
G36*
X62768870Y-168039832D02*
G01*
X62827251Y-168090147D01*
X62857191Y-168118225D01*
X63052659Y-168278366D01*
X63252236Y-168390349D01*
X63362376Y-168429401D01*
X63448861Y-168457075D01*
X63503091Y-168482209D01*
X63512438Y-168492380D01*
X63491599Y-168526795D01*
X63440700Y-168581662D01*
X63433458Y-168588557D01*
X63354478Y-168662755D01*
X63354478Y-169460422D01*
X63354478Y-170258088D01*
X63436266Y-170355288D01*
X63518055Y-170452488D01*
X63436266Y-170549688D01*
X63354478Y-170646888D01*
X63354478Y-171470272D01*
X63354674Y-171732898D01*
X63356328Y-171939165D01*
X63361045Y-172095899D01*
X63370425Y-172209926D01*
X63386072Y-172288071D01*
X63409589Y-172337160D01*
X63442576Y-172364018D01*
X63486637Y-172375471D01*
X63543375Y-172378344D01*
X63567724Y-172378597D01*
X63637666Y-172383236D01*
X63670117Y-172393181D01*
X63670398Y-172394271D01*
X63649787Y-172421632D01*
X63594184Y-172483768D01*
X63512938Y-172570437D01*
X63446893Y-172639109D01*
X63342913Y-172751191D01*
X63249100Y-172861219D01*
X63179298Y-172952560D01*
X63156747Y-172987749D01*
X63112057Y-173060218D01*
X63078630Y-173102099D01*
X63071440Y-173106219D01*
X63042767Y-173085186D01*
X62980186Y-173028418D01*
X62893907Y-172945416D01*
X62824521Y-172876434D01*
X62596269Y-172646649D01*
X62596269Y-171646768D01*
X62596269Y-170646888D01*
X62514481Y-170549688D01*
X62432692Y-170452488D01*
X62514481Y-170355288D01*
X62596269Y-170258088D01*
X62596269Y-169584285D01*
X62596269Y-168910482D01*
X62454105Y-168827168D01*
X62373305Y-168770956D01*
X62321803Y-168718101D01*
X62311941Y-168694195D01*
X62327864Y-168653119D01*
X62370300Y-168574445D01*
X62431245Y-168470837D01*
X62502699Y-168354959D01*
X62576658Y-168239475D01*
X62645122Y-168137048D01*
X62700088Y-168060344D01*
X62733554Y-168022026D01*
X62738006Y-168019901D01*
X62768870Y-168039832D01*
G37*
G36*
X65042367Y-167228980D02*
G01*
X65052464Y-167316055D01*
X65058645Y-167453215D01*
X65060448Y-167609204D01*
X65060448Y-168019901D01*
X65281592Y-168019901D01*
X65411945Y-168024998D01*
X65484032Y-168044588D01*
X65500273Y-168085117D01*
X65463088Y-168153032D01*
X65374896Y-168254779D01*
X65371229Y-168258697D01*
X65275444Y-168348710D01*
X65197054Y-168391962D01*
X65150085Y-168399005D01*
X65060448Y-168399005D01*
X65060448Y-169345005D01*
X65060448Y-170291004D01*
X65136136Y-170378996D01*
X65211823Y-170466989D01*
X65136136Y-170556938D01*
X65113251Y-170585356D01*
X65095517Y-170614855D01*
X65082278Y-170653363D01*
X65072878Y-170708808D01*
X65066658Y-170789117D01*
X65062961Y-170902217D01*
X65061132Y-171056035D01*
X65060514Y-171258499D01*
X65060448Y-171470272D01*
X65060644Y-171732898D01*
X65062298Y-171939165D01*
X65067015Y-172095899D01*
X65076395Y-172209926D01*
X65092043Y-172288071D01*
X65115559Y-172337160D01*
X65148546Y-172364018D01*
X65192607Y-172375471D01*
X65249345Y-172378344D01*
X65273694Y-172378597D01*
X65343627Y-172384721D01*
X65376086Y-172398282D01*
X65376369Y-172399786D01*
X65355842Y-172429501D01*
X65300285Y-172494263D01*
X65218736Y-172583836D01*
X65141587Y-172665712D01*
X65038448Y-172777811D01*
X64947706Y-172883964D01*
X64881396Y-172969690D01*
X64856447Y-173008837D01*
X64816847Y-173073848D01*
X64785996Y-173105169D01*
X64783207Y-173105689D01*
X64752386Y-173084682D01*
X64687524Y-173028454D01*
X64599240Y-172946479D01*
X64531282Y-172880900D01*
X64302239Y-172656641D01*
X64302082Y-171657238D01*
X64301925Y-170657836D01*
X64226507Y-170563574D01*
X64151088Y-170469312D01*
X64226664Y-170379496D01*
X64302239Y-170289680D01*
X64302239Y-169344342D01*
X64302239Y-168399005D01*
X64128483Y-168399005D01*
X64017947Y-168392622D01*
X63961167Y-168374306D01*
X63954727Y-168362281D01*
X63970772Y-168317209D01*
X64012181Y-168239340D01*
X64052796Y-168172729D01*
X64111955Y-168085886D01*
X64159607Y-168040267D01*
X64216348Y-168022677D01*
X64291305Y-168019901D01*
X64455303Y-167997067D01*
X64595863Y-167923625D01*
X64686342Y-167841067D01*
X64751037Y-167758960D01*
X64822748Y-167648114D01*
X64892285Y-167525501D01*
X64950455Y-167408093D01*
X64988069Y-167312861D01*
X64997264Y-167266966D01*
X65009574Y-167212832D01*
X65028856Y-167198508D01*
X65042367Y-167228980D01*
G37*
G36*
X73628271Y-168062812D02*
G01*
X73716680Y-168092935D01*
X73832763Y-168136592D01*
X73897020Y-168162065D01*
X74019242Y-168210300D01*
X74119403Y-168247876D01*
X74183087Y-168269479D01*
X74197031Y-168272637D01*
X74239265Y-168284492D01*
X74316227Y-168314463D01*
X74356750Y-168331884D01*
X74567045Y-168421351D01*
X74731176Y-168481951D01*
X74858112Y-168515684D01*
X74956818Y-168524553D01*
X75036263Y-168510557D01*
X75077202Y-168492670D01*
X75122327Y-168473931D01*
X75134687Y-168489292D01*
X75115123Y-168546920D01*
X75088704Y-168604562D01*
X75023888Y-168692700D01*
X74944060Y-168748463D01*
X74891917Y-168773261D01*
X74864712Y-168804251D01*
X74856074Y-168859258D01*
X74859630Y-168956106D01*
X74861140Y-168980420D01*
X74871245Y-169091533D01*
X74884954Y-169181323D01*
X74896079Y-169221744D01*
X74895646Y-169255784D01*
X74853278Y-169288721D01*
X74759364Y-169327834D01*
X74752940Y-169330155D01*
X74628616Y-169395945D01*
X74474498Y-169513679D01*
X74293146Y-169681029D01*
X74087121Y-169895666D01*
X73905375Y-170100884D01*
X73718143Y-170294908D01*
X73537058Y-170432106D01*
X73355381Y-170517509D01*
X73341478Y-170521987D01*
X73210125Y-170562982D01*
X73218558Y-171331456D01*
X73226990Y-172099930D01*
X73590299Y-172226566D01*
X73776544Y-172292116D01*
X73910758Y-172337807D01*
X74001378Y-172362099D01*
X74056843Y-172363455D01*
X74085590Y-172340337D01*
X74096059Y-172291207D01*
X74096686Y-172214525D01*
X74095772Y-172134417D01*
X74091878Y-171991144D01*
X74079019Y-171899763D01*
X74055429Y-171849395D01*
X74048383Y-171842538D01*
X74009280Y-171801626D01*
X74015077Y-171771477D01*
X74072287Y-171743117D01*
X74135262Y-171722848D01*
X74202294Y-171695240D01*
X74275860Y-171647503D01*
X74365091Y-171572115D01*
X74479121Y-171461552D01*
X74585620Y-171351848D01*
X74711934Y-171223975D01*
X74821023Y-171121822D01*
X74905147Y-171052194D01*
X74956566Y-171021896D01*
X74961723Y-171021145D01*
X75002264Y-171026550D01*
X74993077Y-171053560D01*
X74974251Y-171076431D01*
X74937537Y-171125290D01*
X74910253Y-171181046D01*
X74890507Y-171254380D01*
X74876408Y-171355974D01*
X74866064Y-171496510D01*
X74857584Y-171686668D01*
X74855373Y-171747761D01*
X74838184Y-172237438D01*
X74759204Y-172246805D01*
X74555080Y-172298701D01*
X74348160Y-172399911D01*
X74153324Y-172539088D01*
X73985449Y-172704885D01*
X73859415Y-172885956D01*
X73824121Y-172959947D01*
X73778892Y-173047889D01*
X73734426Y-173098297D01*
X73716667Y-173104590D01*
X73668011Y-173092882D01*
X73576366Y-173062589D01*
X73457237Y-173019016D01*
X73384951Y-172991051D01*
X73113509Y-172884207D01*
X72894180Y-172798863D01*
X72720365Y-172733170D01*
X72585465Y-172685280D01*
X72482879Y-172653344D01*
X72406010Y-172635515D01*
X72348257Y-172629942D01*
X72303022Y-172634779D01*
X72263706Y-172648177D01*
X72226775Y-172666642D01*
X72181587Y-172685298D01*
X72175995Y-172660924D01*
X72185330Y-172627152D01*
X72232368Y-172526291D01*
X72311946Y-172453762D01*
X72363806Y-172424096D01*
X72452985Y-172377980D01*
X72452985Y-171514318D01*
X72452985Y-170650656D01*
X72369079Y-170566750D01*
X72285173Y-170482843D01*
X72361181Y-170402017D01*
X72385927Y-170373776D01*
X72404850Y-170342823D01*
X72418967Y-170300491D01*
X72429298Y-170238116D01*
X72436861Y-170147034D01*
X72442673Y-170018578D01*
X72447752Y-169844086D01*
X72452985Y-169620732D01*
X72457395Y-169425185D01*
X73211060Y-169425185D01*
X73211194Y-169599503D01*
X73212346Y-169859497D01*
X73215694Y-170075282D01*
X73221079Y-170242592D01*
X73228342Y-170357162D01*
X73237325Y-170414726D01*
X73241826Y-170420896D01*
X73286632Y-170406510D01*
X73361266Y-170370580D01*
X73387755Y-170356136D01*
X73583327Y-170220487D01*
X73769676Y-170044345D01*
X73930143Y-169845969D01*
X74048072Y-169643616D01*
X74057812Y-169621710D01*
X74079504Y-169539288D01*
X74091986Y-169427314D01*
X74095312Y-169304962D01*
X74089536Y-169191405D01*
X74074711Y-169105817D01*
X74056282Y-169070298D01*
X74007630Y-169044314D01*
X73918521Y-169006777D01*
X73811443Y-168966964D01*
X73680584Y-168919523D01*
X73550933Y-168869883D01*
X73469210Y-168836605D01*
X73392797Y-168803276D01*
X73333127Y-168780405D01*
X73288139Y-168774086D01*
X73255770Y-168790417D01*
X73233959Y-168835494D01*
X73220645Y-168915413D01*
X73213765Y-169036270D01*
X73211257Y-169204162D01*
X73211060Y-169425185D01*
X72457395Y-169425185D01*
X72468782Y-168920274D01*
X72547762Y-168910907D01*
X72751598Y-168859210D01*
X72958329Y-168758531D01*
X73152967Y-168620253D01*
X73320522Y-168455760D01*
X73446006Y-168276435D01*
X73481647Y-168201673D01*
X73523686Y-168116277D01*
X73564178Y-168061916D01*
X73582858Y-168051611D01*
X73628271Y-168062812D01*
G37*
G36*
X81336728Y-168062812D02*
G01*
X81425138Y-168092935D01*
X81541220Y-168136592D01*
X81605477Y-168162065D01*
X81727700Y-168210300D01*
X81827860Y-168247876D01*
X81891544Y-168269479D01*
X81905489Y-168272637D01*
X81947722Y-168284492D01*
X82024685Y-168314463D01*
X82065208Y-168331884D01*
X82275503Y-168421351D01*
X82439634Y-168481951D01*
X82566569Y-168515684D01*
X82665276Y-168524553D01*
X82744721Y-168510557D01*
X82785659Y-168492670D01*
X82830784Y-168473931D01*
X82843145Y-168489292D01*
X82823581Y-168546920D01*
X82797162Y-168604562D01*
X82732345Y-168692700D01*
X82652517Y-168748463D01*
X82600374Y-168773261D01*
X82573170Y-168804251D01*
X82564531Y-168859258D01*
X82568088Y-168956106D01*
X82569598Y-168980420D01*
X82579703Y-169091533D01*
X82593411Y-169181323D01*
X82604536Y-169221744D01*
X82604104Y-169255784D01*
X82561736Y-169288721D01*
X82467822Y-169327834D01*
X82461398Y-169330155D01*
X82337074Y-169395945D01*
X82182956Y-169513679D01*
X82001604Y-169681029D01*
X81795579Y-169895666D01*
X81613833Y-170100884D01*
X81426601Y-170294908D01*
X81245515Y-170432106D01*
X81063839Y-170517509D01*
X81049936Y-170521987D01*
X80918583Y-170562982D01*
X80927015Y-171331456D01*
X80935448Y-172099930D01*
X81298757Y-172226566D01*
X81485002Y-172292116D01*
X81619215Y-172337807D01*
X81709835Y-172362099D01*
X81765300Y-172363455D01*
X81794048Y-172340337D01*
X81804516Y-172291207D01*
X81805144Y-172214525D01*
X81804229Y-172134417D01*
X81800336Y-171991144D01*
X81787477Y-171899763D01*
X81763887Y-171849395D01*
X81756841Y-171842538D01*
X81717738Y-171801626D01*
X81723534Y-171771477D01*
X81780745Y-171743117D01*
X81843719Y-171722848D01*
X81910751Y-171695240D01*
X81984317Y-171647503D01*
X82073549Y-171572115D01*
X82187578Y-171461552D01*
X82294078Y-171351848D01*
X82420392Y-171223975D01*
X82529481Y-171121822D01*
X82613605Y-171052194D01*
X82665023Y-171021896D01*
X82670181Y-171021145D01*
X82710722Y-171026550D01*
X82701535Y-171053560D01*
X82682709Y-171076431D01*
X82645995Y-171125290D01*
X82618711Y-171181046D01*
X82598965Y-171254380D01*
X82584866Y-171355974D01*
X82574522Y-171496510D01*
X82566042Y-171686668D01*
X82563831Y-171747761D01*
X82546642Y-172237438D01*
X82467662Y-172246805D01*
X82263538Y-172298701D01*
X82056618Y-172399911D01*
X81861781Y-172539088D01*
X81693907Y-172704885D01*
X81567873Y-172885956D01*
X81532578Y-172959947D01*
X81487350Y-173047889D01*
X81442883Y-173098297D01*
X81425125Y-173104590D01*
X81376468Y-173092882D01*
X81284824Y-173062589D01*
X81165695Y-173019016D01*
X81093408Y-172991051D01*
X80821967Y-172884207D01*
X80602638Y-172798863D01*
X80428823Y-172733170D01*
X80293922Y-172685280D01*
X80191337Y-172653344D01*
X80114467Y-172635515D01*
X80056715Y-172629942D01*
X80011480Y-172634779D01*
X79972164Y-172648177D01*
X79935233Y-172666642D01*
X79890044Y-172685298D01*
X79884453Y-172660924D01*
X79893788Y-172627152D01*
X79940825Y-172526291D01*
X80020404Y-172453762D01*
X80072264Y-172424096D01*
X80161443Y-172377980D01*
X80161443Y-171514318D01*
X80161443Y-170650656D01*
X80077537Y-170566750D01*
X79993631Y-170482843D01*
X80069639Y-170402017D01*
X80094385Y-170373776D01*
X80113307Y-170342823D01*
X80127425Y-170300491D01*
X80137756Y-170238116D01*
X80145318Y-170147034D01*
X80151130Y-170018578D01*
X80156210Y-169844086D01*
X80161443Y-169620732D01*
X80165853Y-169425185D01*
X80919518Y-169425185D01*
X80919652Y-169599503D01*
X80920803Y-169859497D01*
X80924151Y-170075282D01*
X80929536Y-170242592D01*
X80936800Y-170357162D01*
X80945783Y-170414726D01*
X80950283Y-170420896D01*
X80995090Y-170406510D01*
X81069724Y-170370580D01*
X81096213Y-170356136D01*
X81291785Y-170220487D01*
X81478133Y-170044345D01*
X81638601Y-169845969D01*
X81756529Y-169643616D01*
X81766270Y-169621710D01*
X81787961Y-169539288D01*
X81800444Y-169427314D01*
X81803770Y-169304962D01*
X81797994Y-169191405D01*
X81783169Y-169105817D01*
X81764739Y-169070298D01*
X81716088Y-169044314D01*
X81626979Y-169006777D01*
X81519901Y-168966964D01*
X81389042Y-168919523D01*
X81259391Y-168869883D01*
X81177667Y-168836605D01*
X81101254Y-168803276D01*
X81041585Y-168780405D01*
X80996596Y-168774086D01*
X80964228Y-168790417D01*
X80942417Y-168835494D01*
X80929103Y-168915413D01*
X80922222Y-169036270D01*
X80919715Y-169204162D01*
X80919518Y-169425185D01*
X80165853Y-169425185D01*
X80177239Y-168920274D01*
X80256219Y-168910907D01*
X80460056Y-168859210D01*
X80666787Y-168758531D01*
X80861425Y-168620253D01*
X81028980Y-168455760D01*
X81154463Y-168276435D01*
X81190104Y-168201673D01*
X81232143Y-168116277D01*
X81272636Y-168061916D01*
X81291316Y-168051611D01*
X81336728Y-168062812D01*
G37*
G36*
X71091836Y-168072905D02*
G01*
X71151105Y-168125405D01*
X71160103Y-168134970D01*
X71269398Y-168235159D01*
X71401068Y-168328003D01*
X71537308Y-168403302D01*
X71660313Y-168450856D01*
X71731266Y-168462189D01*
X71819237Y-168471142D01*
X71847926Y-168500013D01*
X71818303Y-168551820D01*
X71773757Y-168594464D01*
X71694777Y-168663136D01*
X71694293Y-169281381D01*
X71693003Y-169474060D01*
X71689697Y-169645816D01*
X71684746Y-169786363D01*
X71678524Y-169885414D01*
X71671405Y-169932680D01*
X71670599Y-169934253D01*
X71624469Y-169967451D01*
X71565503Y-169988888D01*
X71502000Y-170016584D01*
X71406581Y-170072218D01*
X71297293Y-170145053D01*
X71269547Y-170164963D01*
X71055475Y-170321029D01*
X71182636Y-170385902D01*
X71401198Y-170483903D01*
X71580007Y-170534325D01*
X71720534Y-170537474D01*
X71794619Y-170512960D01*
X71839807Y-170494305D01*
X71845398Y-170518678D01*
X71836064Y-170552450D01*
X71787812Y-170655173D01*
X71706613Y-170724556D01*
X71667035Y-170745337D01*
X71584204Y-170785017D01*
X71575725Y-171538912D01*
X71573183Y-171790246D01*
X71573055Y-171985501D01*
X71577084Y-172131780D01*
X71587011Y-172236184D01*
X71604577Y-172305814D01*
X71631524Y-172347774D01*
X71669594Y-172369163D01*
X71720529Y-172377085D01*
X71781655Y-172378597D01*
X71851596Y-172383369D01*
X71884048Y-172393640D01*
X71884329Y-172394767D01*
X71863886Y-172422774D01*
X71809279Y-172484633D01*
X71730587Y-172569089D01*
X71693338Y-172608013D01*
X71589755Y-172721309D01*
X71490112Y-172840169D01*
X71413394Y-172941772D01*
X71403689Y-172956157D01*
X71347015Y-173037654D01*
X71303192Y-173092153D01*
X71285867Y-173106219D01*
X71256973Y-173085182D01*
X71194224Y-173028415D01*
X71107867Y-172945433D01*
X71039020Y-172877007D01*
X70811337Y-172647794D01*
X70802870Y-171863108D01*
X70794403Y-171078421D01*
X70683831Y-171037250D01*
X70597933Y-171004781D01*
X70478903Y-170959191D01*
X70352465Y-170910331D01*
X70352115Y-170910195D01*
X70233831Y-170865797D01*
X70130391Y-170829675D01*
X70062905Y-170809175D01*
X70059888Y-170808474D01*
X69988806Y-170792634D01*
X69988806Y-171536939D01*
X69988970Y-171772445D01*
X69989934Y-171952788D01*
X69992408Y-172085990D01*
X69997103Y-172180073D01*
X70004727Y-172243057D01*
X70015991Y-172282965D01*
X70031604Y-172307817D01*
X70052277Y-172325635D01*
X70059020Y-172330423D01*
X70145823Y-172368519D01*
X70216980Y-172379602D01*
X70280481Y-172384328D01*
X70304727Y-172394767D01*
X70284284Y-172422774D01*
X70229677Y-172484633D01*
X70150985Y-172569089D01*
X70113736Y-172608013D01*
X70010153Y-172721309D01*
X69910510Y-172840169D01*
X69833792Y-172941772D01*
X69824087Y-172956157D01*
X69767413Y-173037654D01*
X69723590Y-173092153D01*
X69706265Y-173106219D01*
X69677379Y-173085181D01*
X69614621Y-173028401D01*
X69528224Y-172945382D01*
X69458849Y-172876434D01*
X69230597Y-172646649D01*
X69230597Y-171852232D01*
X69230597Y-171057814D01*
X69386596Y-171006000D01*
X69474509Y-170966944D01*
X69574684Y-170908092D01*
X69671690Y-170840556D01*
X69750097Y-170775445D01*
X69794475Y-170723870D01*
X69799254Y-170708873D01*
X69771494Y-170684050D01*
X69697217Y-170645491D01*
X69589933Y-170599196D01*
X69463148Y-170551163D01*
X69381851Y-170523521D01*
X69288449Y-170496406D01*
X69228980Y-170492363D01*
X69178374Y-170511858D01*
X69152809Y-170527782D01*
X69091275Y-170558081D01*
X69067246Y-170548184D01*
X69077925Y-170506558D01*
X69120511Y-170441667D01*
X69192206Y-170361975D01*
X69214801Y-170340310D01*
X69356966Y-170207921D01*
X69356966Y-169575629D01*
X69356966Y-168943337D01*
X69270087Y-168888134D01*
X69182999Y-168826626D01*
X69114180Y-168770350D01*
X69045151Y-168707769D01*
X69159175Y-168529693D01*
X69234048Y-168412852D01*
X69309233Y-168295673D01*
X69354483Y-168225249D01*
X69408977Y-168145608D01*
X69453364Y-168089447D01*
X69466255Y-168077077D01*
X69503839Y-168084920D01*
X69572743Y-168126562D01*
X69655896Y-168191223D01*
X69823580Y-168324786D01*
X69960503Y-168411420D01*
X70073482Y-168454989D01*
X70133603Y-168462071D01*
X70222483Y-168470694D01*
X70252620Y-168499555D01*
X70226571Y-168553576D01*
X70198172Y-168586367D01*
X70172133Y-168616567D01*
X70152582Y-168649857D01*
X70138317Y-168695574D01*
X70128138Y-168763057D01*
X70120842Y-168861641D01*
X70115229Y-169000663D01*
X70110096Y-169189462D01*
X70107711Y-169289416D01*
X70104138Y-169482036D01*
X70102773Y-169653199D01*
X70103549Y-169792812D01*
X70106398Y-169890779D01*
X70111254Y-169937008D01*
X70112034Y-169938699D01*
X70153814Y-169969713D01*
X70238823Y-170014148D01*
X70353052Y-170066371D01*
X70482491Y-170120745D01*
X70613131Y-170171637D01*
X70730962Y-170213410D01*
X70821974Y-170240429D01*
X70872159Y-170247061D01*
X70875542Y-170245806D01*
X70884783Y-170209713D01*
X70892780Y-170119493D01*
X70899122Y-169984199D01*
X70903399Y-169812882D01*
X70905202Y-169614593D01*
X70905233Y-169589740D01*
X70905490Y-168951866D01*
X70765724Y-168825498D01*
X70625959Y-168699130D01*
X70820739Y-168375311D01*
X70899088Y-168249520D01*
X70968351Y-168146526D01*
X71021009Y-168076970D01*
X71049516Y-168051493D01*
X71091836Y-168072905D01*
G37*
G36*
X85181886Y-168072905D02*
G01*
X85241154Y-168125405D01*
X85250153Y-168134970D01*
X85359447Y-168235159D01*
X85491117Y-168328003D01*
X85627358Y-168403302D01*
X85750363Y-168450856D01*
X85821316Y-168462189D01*
X85909287Y-168471142D01*
X85937975Y-168500013D01*
X85908353Y-168551820D01*
X85863806Y-168594464D01*
X85784826Y-168663136D01*
X85784343Y-169281381D01*
X85783053Y-169474060D01*
X85779746Y-169645816D01*
X85774795Y-169786363D01*
X85768574Y-169885414D01*
X85761455Y-169932680D01*
X85760648Y-169934253D01*
X85714518Y-169967451D01*
X85655553Y-169988888D01*
X85592050Y-170016584D01*
X85496631Y-170072218D01*
X85387343Y-170145053D01*
X85359596Y-170164963D01*
X85145525Y-170321029D01*
X85272686Y-170385902D01*
X85491247Y-170483903D01*
X85670057Y-170534325D01*
X85810584Y-170537474D01*
X85884669Y-170512960D01*
X85929857Y-170494305D01*
X85935448Y-170518678D01*
X85926113Y-170552450D01*
X85877862Y-170655173D01*
X85796662Y-170724556D01*
X85757085Y-170745337D01*
X85674254Y-170785017D01*
X85665775Y-171538912D01*
X85663233Y-171790246D01*
X85663105Y-171985501D01*
X85667134Y-172131780D01*
X85677060Y-172236184D01*
X85694626Y-172305814D01*
X85721574Y-172347774D01*
X85759644Y-172369163D01*
X85810579Y-172377085D01*
X85871704Y-172378597D01*
X85941646Y-172383369D01*
X85974097Y-172393640D01*
X85974379Y-172394767D01*
X85953936Y-172422774D01*
X85899329Y-172484633D01*
X85820637Y-172569089D01*
X85783387Y-172608013D01*
X85679805Y-172721309D01*
X85580162Y-172840169D01*
X85503444Y-172941772D01*
X85493738Y-172956157D01*
X85437065Y-173037654D01*
X85393241Y-173092153D01*
X85375917Y-173106219D01*
X85347023Y-173085182D01*
X85284274Y-173028415D01*
X85197916Y-172945433D01*
X85129070Y-172877007D01*
X84901387Y-172647794D01*
X84892920Y-171863108D01*
X84884453Y-171078421D01*
X84773881Y-171037250D01*
X84687983Y-171004781D01*
X84568952Y-170959191D01*
X84442515Y-170910331D01*
X84442165Y-170910195D01*
X84323880Y-170865797D01*
X84220441Y-170829675D01*
X84152955Y-170809175D01*
X84149938Y-170808474D01*
X84078856Y-170792634D01*
X84078856Y-171536939D01*
X84079020Y-171772445D01*
X84079984Y-171952788D01*
X84082458Y-172085990D01*
X84087152Y-172180073D01*
X84094777Y-172243057D01*
X84106041Y-172282965D01*
X84121654Y-172307817D01*
X84142326Y-172325635D01*
X84149070Y-172330423D01*
X84235873Y-172368519D01*
X84307030Y-172379602D01*
X84370531Y-172384328D01*
X84394777Y-172394767D01*
X84374334Y-172422774D01*
X84319727Y-172484633D01*
X84241035Y-172569089D01*
X84203785Y-172608013D01*
X84100203Y-172721309D01*
X84000560Y-172840169D01*
X83923842Y-172941772D01*
X83914136Y-172956157D01*
X83857463Y-173037654D01*
X83813639Y-173092153D01*
X83796315Y-173106219D01*
X83767429Y-173085181D01*
X83704671Y-173028401D01*
X83618274Y-172945382D01*
X83548899Y-172876434D01*
X83320647Y-172646649D01*
X83320647Y-171852232D01*
X83320647Y-171057814D01*
X83476646Y-171006000D01*
X83564559Y-170966944D01*
X83664734Y-170908092D01*
X83761740Y-170840556D01*
X83840147Y-170775445D01*
X83884525Y-170723870D01*
X83889304Y-170708873D01*
X83861543Y-170684050D01*
X83787267Y-170645491D01*
X83679982Y-170599196D01*
X83553197Y-170551163D01*
X83471901Y-170523521D01*
X83378499Y-170496406D01*
X83319029Y-170492363D01*
X83268424Y-170511858D01*
X83242859Y-170527782D01*
X83181324Y-170558081D01*
X83157296Y-170548184D01*
X83167975Y-170506558D01*
X83210561Y-170441667D01*
X83282256Y-170361975D01*
X83304851Y-170340310D01*
X83447015Y-170207921D01*
X83447015Y-169575629D01*
X83447015Y-168943337D01*
X83360137Y-168888134D01*
X83273049Y-168826626D01*
X83204230Y-168770350D01*
X83135201Y-168707769D01*
X83249225Y-168529693D01*
X83324098Y-168412852D01*
X83399283Y-168295673D01*
X83444533Y-168225249D01*
X83499026Y-168145608D01*
X83543414Y-168089447D01*
X83556305Y-168077077D01*
X83593889Y-168084920D01*
X83662792Y-168126562D01*
X83745946Y-168191223D01*
X83913630Y-168324786D01*
X84050552Y-168411420D01*
X84163531Y-168454989D01*
X84223653Y-168462071D01*
X84312533Y-168470694D01*
X84342670Y-168499555D01*
X84316621Y-168553576D01*
X84288222Y-168586367D01*
X84262182Y-168616567D01*
X84242631Y-168649857D01*
X84228367Y-168695574D01*
X84218187Y-168763057D01*
X84210892Y-168861641D01*
X84205278Y-169000663D01*
X84200146Y-169189462D01*
X84197761Y-169289416D01*
X84194188Y-169482036D01*
X84192823Y-169653199D01*
X84193599Y-169792812D01*
X84196448Y-169890779D01*
X84201303Y-169937008D01*
X84202084Y-169938699D01*
X84243864Y-169969713D01*
X84328873Y-170014148D01*
X84443101Y-170066371D01*
X84572540Y-170120745D01*
X84703180Y-170171637D01*
X84821011Y-170213410D01*
X84912024Y-170240429D01*
X84962209Y-170247061D01*
X84965591Y-170245806D01*
X84974833Y-170209713D01*
X84982830Y-170119493D01*
X84989172Y-169984199D01*
X84993449Y-169812882D01*
X84995252Y-169614593D01*
X84995282Y-169589740D01*
X84995539Y-168951866D01*
X84855774Y-168825498D01*
X84716008Y-168699130D01*
X84910788Y-168375311D01*
X84989138Y-168249520D01*
X85058401Y-168146526D01*
X85111059Y-168076970D01*
X85139566Y-168051493D01*
X85181886Y-168072905D01*
G37*
G36*
X67183482Y-168063469D02*
G01*
X67271867Y-168093182D01*
X67387921Y-168136598D01*
X67452244Y-168162065D01*
X67574466Y-168210300D01*
X67674627Y-168247876D01*
X67738311Y-168269479D01*
X67752255Y-168272637D01*
X67794489Y-168284492D01*
X67871451Y-168314463D01*
X67911974Y-168331884D01*
X68121535Y-168421095D01*
X68285015Y-168481571D01*
X68411535Y-168515318D01*
X68510214Y-168524344D01*
X68590173Y-168510654D01*
X68635415Y-168491070D01*
X68680603Y-168472414D01*
X68686194Y-168496787D01*
X68676860Y-168530560D01*
X68628608Y-168633283D01*
X68547408Y-168702666D01*
X68507831Y-168723445D01*
X68425000Y-168763125D01*
X68416510Y-169501373D01*
X68408020Y-170239622D01*
X68493677Y-170351925D01*
X68544997Y-170431729D01*
X68547997Y-170472850D01*
X68540993Y-170477008D01*
X68500647Y-170512021D01*
X68456695Y-170578666D01*
X68455928Y-170580141D01*
X68440948Y-170620614D01*
X68429383Y-170681933D01*
X68420845Y-170771500D01*
X68414949Y-170896720D01*
X68411309Y-171064996D01*
X68409539Y-171283730D01*
X68409204Y-171475869D01*
X68409341Y-171721948D01*
X68410170Y-171912516D01*
X68412323Y-172055245D01*
X68416429Y-172157808D01*
X68423120Y-172227878D01*
X68433025Y-172273127D01*
X68446776Y-172301228D01*
X68465002Y-172319853D01*
X68479418Y-172330423D01*
X68566221Y-172368519D01*
X68637378Y-172379602D01*
X68700880Y-172384170D01*
X68725125Y-172394261D01*
X68704589Y-172421806D01*
X68649439Y-172483716D01*
X68569362Y-172569304D01*
X68517522Y-172623303D01*
X68414026Y-172736026D01*
X68318123Y-172850648D01*
X68245809Y-172947714D01*
X68228646Y-172974589D01*
X68147374Y-173111492D01*
X67900038Y-172865607D01*
X67652702Y-172619721D01*
X67580321Y-172687720D01*
X67526177Y-172752984D01*
X67461610Y-172850847D01*
X67416252Y-172930969D01*
X67363389Y-173022119D01*
X67317048Y-173084928D01*
X67290330Y-173104680D01*
X67245391Y-173093012D01*
X67160172Y-173063862D01*
X67052945Y-173023489D01*
X67050747Y-173022628D01*
X66916362Y-172970524D01*
X66755907Y-172909153D01*
X66602560Y-172851200D01*
X66592662Y-172847492D01*
X66451756Y-172794425D01*
X66311446Y-172741070D01*
X66198925Y-172697775D01*
X66185651Y-172692603D01*
X66003207Y-172640682D01*
X65855320Y-172640794D01*
X65781999Y-172666642D01*
X65736811Y-172685298D01*
X65731219Y-172660924D01*
X65740554Y-172627152D01*
X65787592Y-172526291D01*
X65867170Y-172453762D01*
X65919030Y-172424096D01*
X66008209Y-172377980D01*
X66008209Y-171877176D01*
X66004592Y-171630697D01*
X66000828Y-171568878D01*
X66766418Y-171568878D01*
X66768165Y-171775918D01*
X66773706Y-171925752D01*
X66783487Y-172024273D01*
X66797959Y-172077371D01*
X66805908Y-172087847D01*
X66851449Y-172111180D01*
X66942019Y-172148131D01*
X67062563Y-172192770D01*
X67145523Y-172221628D01*
X67278098Y-172267689D01*
X67391168Y-172308917D01*
X67469226Y-172339556D01*
X67493035Y-172350594D01*
X67567329Y-172375585D01*
X67595709Y-172378642D01*
X67611134Y-172375330D01*
X67623401Y-172360506D01*
X67632869Y-172327729D01*
X67639897Y-172270559D01*
X67644844Y-172182556D01*
X67648069Y-172057280D01*
X67649929Y-171888290D01*
X67650785Y-171669146D01*
X67650995Y-171393407D01*
X67650995Y-171386317D01*
X67650021Y-171097288D01*
X67647181Y-170850834D01*
X67642604Y-170651102D01*
X67636415Y-170502243D01*
X67628741Y-170408405D01*
X67620053Y-170373909D01*
X67551961Y-170364766D01*
X67450846Y-170390368D01*
X67330751Y-170443301D01*
X67205716Y-170516154D01*
X67089783Y-170601512D01*
X66996993Y-170691963D01*
X66981779Y-170710887D01*
X66903603Y-170818470D01*
X66846911Y-170913704D01*
X66808302Y-171010151D01*
X66784371Y-171121369D01*
X66771714Y-171260919D01*
X66766929Y-171442360D01*
X66766418Y-171568878D01*
X66000828Y-171568878D01*
X65993020Y-171440637D01*
X65972414Y-171300605D01*
X65941694Y-171204211D01*
X65899781Y-171145064D01*
X65882320Y-171132012D01*
X65850409Y-171093170D01*
X65873628Y-171062415D01*
X65928044Y-171052737D01*
X66042517Y-171033640D01*
X66189888Y-170981568D01*
X66354814Y-170904348D01*
X66521950Y-170809808D01*
X66675952Y-170705774D01*
X66785448Y-170615371D01*
X66838258Y-170572607D01*
X66927657Y-170506496D01*
X67037660Y-170428738D01*
X67083246Y-170397407D01*
X67226927Y-170306117D01*
X67343298Y-170249507D01*
X67451126Y-170219018D01*
X67486691Y-170213407D01*
X67652389Y-170191427D01*
X67643794Y-169621281D01*
X67635199Y-169051135D01*
X67556219Y-169028215D01*
X67491422Y-169006821D01*
X67386395Y-168969432D01*
X67259866Y-168922767D01*
X67208707Y-168903495D01*
X67077767Y-168855767D01*
X66959676Y-168816099D01*
X66873700Y-168790843D01*
X66853296Y-168786317D01*
X66766418Y-168770938D01*
X66766894Y-169193119D01*
X66771221Y-169420202D01*
X66784691Y-169595030D01*
X66808905Y-169728080D01*
X66845463Y-169829828D01*
X66871213Y-169875933D01*
X66873199Y-169909347D01*
X66845827Y-169915423D01*
X66815339Y-169909804D01*
X66778664Y-169888300D01*
X66728485Y-169843947D01*
X66657485Y-169769778D01*
X66558349Y-169658825D01*
X66470374Y-169557941D01*
X66330895Y-169413925D01*
X66195516Y-169305234D01*
X66073961Y-169238703D01*
X65990292Y-169220398D01*
X65954579Y-169205134D01*
X65962255Y-169165112D01*
X65983799Y-169094508D01*
X66000620Y-169007700D01*
X66020999Y-168935193D01*
X66069085Y-168894553D01*
X66130072Y-168873610D01*
X66218606Y-168852247D01*
X66285948Y-168841466D01*
X66292538Y-168841173D01*
X66363419Y-168821080D01*
X66465495Y-168768444D01*
X66583217Y-168693235D01*
X66701033Y-168605423D01*
X66803397Y-168514977D01*
X66807179Y-168511216D01*
X66899705Y-168404601D01*
X66984062Y-168284009D01*
X67024751Y-168210556D01*
X67072186Y-168123582D01*
X67116195Y-168066200D01*
X67138082Y-168052788D01*
X67183482Y-168063469D01*
G37*
G36*
X76840798Y-166722538D02*
G01*
X76909651Y-166783179D01*
X77008082Y-166872914D01*
X77128061Y-166984441D01*
X77236064Y-167086245D01*
X77634080Y-167463658D01*
X77634080Y-168706119D01*
X77634080Y-169948579D01*
X77720958Y-169983151D01*
X77856370Y-170035028D01*
X78004200Y-170088407D01*
X78152206Y-170139275D01*
X78288146Y-170183624D01*
X78399777Y-170217441D01*
X78474860Y-170236716D01*
X78500822Y-170238648D01*
X78504643Y-170204236D01*
X78508180Y-170113318D01*
X78511343Y-169972572D01*
X78514044Y-169788677D01*
X78516194Y-169568312D01*
X78517703Y-169318153D01*
X78518483Y-169044880D01*
X78518572Y-168907111D01*
X78518486Y-167593408D01*
X78402753Y-167530224D01*
X78318559Y-167480453D01*
X78268412Y-167434206D01*
X78252780Y-167380551D01*
X78272126Y-167308559D01*
X78326917Y-167207302D01*
X78417616Y-167065848D01*
X78422857Y-167057897D01*
X78504439Y-166936075D01*
X78574759Y-166834595D01*
X78625883Y-166764678D01*
X78649062Y-166737928D01*
X78683818Y-166748811D01*
X78755414Y-166791260D01*
X78851283Y-166857456D01*
X78903219Y-166896119D01*
X79051420Y-167000297D01*
X79170860Y-167063203D01*
X79267849Y-167090604D01*
X79369835Y-167111241D01*
X79413293Y-167138323D01*
X79402871Y-167179348D01*
X79354872Y-167231014D01*
X79276866Y-167304298D01*
X79276866Y-168750538D01*
X79277455Y-169133568D01*
X79279266Y-169456247D01*
X79282367Y-169721398D01*
X79286825Y-169931842D01*
X79292707Y-170090404D01*
X79300082Y-170199905D01*
X79309016Y-170263169D01*
X79313299Y-170276740D01*
X79368975Y-170348200D01*
X79439667Y-170396510D01*
X79510315Y-170434057D01*
X79521267Y-170465541D01*
X79473353Y-170503045D01*
X79447927Y-170517114D01*
X79397379Y-170547948D01*
X79357858Y-170585061D01*
X79328021Y-170636102D01*
X79306521Y-170708720D01*
X79292012Y-170810564D01*
X79283150Y-170949283D01*
X79278589Y-171132526D01*
X79276983Y-171367942D01*
X79276866Y-171489588D01*
X79277136Y-171742004D01*
X79279199Y-171938219D01*
X79284929Y-172085215D01*
X79296205Y-172189977D01*
X79314902Y-172259487D01*
X79342898Y-172300728D01*
X79382068Y-172320683D01*
X79434289Y-172326336D01*
X79501281Y-172324675D01*
X79579188Y-172324296D01*
X79621714Y-172329395D01*
X79624379Y-172331771D01*
X79603712Y-172358013D01*
X79548328Y-172418314D01*
X79468147Y-172502014D01*
X79421921Y-172549246D01*
X79315141Y-172663202D01*
X79212192Y-172782513D01*
X79131601Y-172885477D01*
X79116677Y-172906774D01*
X79060164Y-172990212D01*
X79019833Y-173049450D01*
X79006537Y-173068672D01*
X78982437Y-173052157D01*
X78922744Y-172999847D01*
X78836902Y-172920262D01*
X78751022Y-172838108D01*
X78593622Y-172692303D01*
X78467719Y-172591734D01*
X78366232Y-172531600D01*
X78282078Y-172507099D01*
X78261067Y-172505970D01*
X78212386Y-172494590D01*
X78202737Y-172480725D01*
X78229725Y-172454378D01*
X78295369Y-172422972D01*
X78376690Y-172395348D01*
X78450706Y-172380345D01*
X78465614Y-172379602D01*
X78480755Y-172375230D01*
X78492728Y-172357741D01*
X78501898Y-172320576D01*
X78508633Y-172257176D01*
X78513301Y-172160981D01*
X78516268Y-172025433D01*
X78517901Y-171843973D01*
X78518568Y-171610042D01*
X78518657Y-171431841D01*
X78518063Y-171148235D01*
X78516141Y-170922639D01*
X78512678Y-170749892D01*
X78507464Y-170624829D01*
X78500288Y-170542287D01*
X78490937Y-170497104D01*
X78479862Y-170484080D01*
X78442927Y-170505857D01*
X78377712Y-170562365D01*
X78297066Y-170640365D01*
X78213834Y-170726619D01*
X78140864Y-170807890D01*
X78091001Y-170870940D01*
X78076369Y-170899852D01*
X78051533Y-170924489D01*
X77983310Y-170916008D01*
X77881130Y-170875972D01*
X77855224Y-170863184D01*
X77795206Y-170831835D01*
X77747124Y-170809331D01*
X77709660Y-170801319D01*
X77681496Y-170813450D01*
X77661314Y-170851372D01*
X77647796Y-170920734D01*
X77639622Y-171027184D01*
X77635476Y-171176372D01*
X77634037Y-171373946D01*
X77633990Y-171625556D01*
X77634080Y-171810784D01*
X77634080Y-172821567D01*
X77771758Y-172886283D01*
X77887380Y-172949836D01*
X77979595Y-173017723D01*
X78034910Y-173078998D01*
X78044777Y-173107823D01*
X78016880Y-173123697D01*
X77943774Y-173121991D01*
X77921649Y-173118869D01*
X77749758Y-173122153D01*
X77579792Y-173187725D01*
X77420664Y-173306580D01*
X77286395Y-173463967D01*
X77169499Y-173664744D01*
X77077937Y-173889826D01*
X77019664Y-174120125D01*
X77002239Y-174310210D01*
X77004916Y-174415235D01*
X77017846Y-174476109D01*
X77048383Y-174511796D01*
X77089117Y-174534331D01*
X77160104Y-174593370D01*
X77187369Y-174668809D01*
X77173436Y-174742427D01*
X77120827Y-174796000D01*
X77050655Y-174812189D01*
X76974547Y-174789562D01*
X76928155Y-174754416D01*
X76917796Y-174738740D01*
X76908890Y-174713283D01*
X76901329Y-174673531D01*
X76895005Y-174614967D01*
X76889810Y-174533077D01*
X76885634Y-174423346D01*
X76882371Y-174281260D01*
X76879911Y-174102303D01*
X76878146Y-173881960D01*
X76876968Y-173615717D01*
X76876269Y-173299059D01*
X76875940Y-172927471D01*
X76875871Y-172574961D01*
X76875871Y-170453280D01*
X76757401Y-170381044D01*
X76633381Y-170315265D01*
X76492346Y-170262155D01*
X76314542Y-170214708D01*
X76244030Y-170199013D01*
X76127017Y-170179655D01*
X76028774Y-170181897D01*
X75914163Y-170207287D01*
X75888253Y-170214676D01*
X75697441Y-170289118D01*
X75559446Y-170389852D01*
X75469077Y-170524099D01*
X75421139Y-170699075D01*
X75409852Y-170879626D01*
X75414053Y-171024228D01*
X75428888Y-171129055D01*
X75458910Y-171217220D01*
X75487622Y-171274527D01*
X75538074Y-171360610D01*
X75580860Y-171422676D01*
X75596393Y-171439255D01*
X75608649Y-171460253D01*
X75594002Y-171462949D01*
X75542800Y-171436343D01*
X75475586Y-171362629D01*
X75401452Y-171252683D01*
X75366277Y-171190599D01*
X75324351Y-171092330D01*
X75302600Y-170981261D01*
X75296271Y-170832880D01*
X75296269Y-170829534D01*
X75324194Y-170542879D01*
X75407360Y-170284796D01*
X75544850Y-170057638D01*
X75637578Y-169952450D01*
X75816820Y-169812686D01*
X76039132Y-169704642D01*
X76290401Y-169633161D01*
X76556513Y-169603087D01*
X76654727Y-169603381D01*
X76860075Y-169610637D01*
X76868499Y-168783124D01*
X76871143Y-168517969D01*
X76871709Y-168307558D01*
X76868166Y-168143451D01*
X76858480Y-168017209D01*
X76840622Y-167920392D01*
X76812558Y-167844561D01*
X76772257Y-167781274D01*
X76717688Y-167722094D01*
X76646818Y-167658579D01*
X76585103Y-167605892D01*
X76490405Y-167523582D01*
X76414315Y-167454942D01*
X76369805Y-167411753D01*
X76364629Y-167405632D01*
X76321513Y-167385860D01*
X76242774Y-167375760D01*
X76224929Y-167375423D01*
X76162263Y-167380504D01*
X76107141Y-167401988D01*
X76045505Y-167449239D01*
X75963297Y-167531623D01*
X75919035Y-167579192D01*
X75817914Y-167693416D01*
X75720496Y-167811006D01*
X75645062Y-167909747D01*
X75634327Y-167925125D01*
X75577239Y-168007058D01*
X75534192Y-168065604D01*
X75519498Y-168083085D01*
X75481519Y-168136184D01*
X75435921Y-168225043D01*
X75393540Y-168324992D01*
X75365210Y-168411360D01*
X75359453Y-168447514D01*
X75347355Y-168513221D01*
X75327861Y-168541169D01*
X75310281Y-168581116D01*
X75297907Y-168663846D01*
X75294131Y-168740484D01*
X75291357Y-168837504D01*
X75284335Y-168879050D01*
X75270471Y-168872812D01*
X75257569Y-168848874D01*
X75241377Y-168757324D01*
X75255114Y-168622673D01*
X75296405Y-168456122D01*
X75362875Y-168268873D01*
X75398171Y-168185759D01*
X75477546Y-168038312D01*
X75593060Y-167864229D01*
X75733406Y-167678595D01*
X75887274Y-167496499D01*
X76020610Y-167355404D01*
X76196589Y-167184221D01*
X76361991Y-167030920D01*
X76510693Y-166900602D01*
X76636572Y-166798365D01*
X76733507Y-166729309D01*
X76795375Y-166698534D01*
X76809552Y-166698294D01*
X76840798Y-166722538D01*
G37*
G36*
X59141295Y-166714934D02*
G01*
X59209299Y-166772014D01*
X59305054Y-166857403D01*
X59419703Y-166963311D01*
X59468657Y-167009474D01*
X59588488Y-167121372D01*
X59693121Y-167215784D01*
X59773658Y-167284931D01*
X59821200Y-167321035D01*
X59828959Y-167324481D01*
X59873208Y-167300669D01*
X59941146Y-167237033D01*
X60021622Y-167146460D01*
X60103485Y-167041838D01*
X60175586Y-166936052D01*
X60198745Y-166897098D01*
X60294629Y-166727202D01*
X60442402Y-166803585D01*
X60543880Y-166851386D01*
X60679118Y-166908967D01*
X60822187Y-166965377D01*
X60850809Y-166976054D01*
X61011996Y-167036094D01*
X61190037Y-167103354D01*
X61347964Y-167163863D01*
X61356282Y-167167086D01*
X61575115Y-167236507D01*
X61757085Y-167259479D01*
X61907850Y-167236285D01*
X61988122Y-167198854D01*
X62056663Y-167165135D01*
X62089500Y-167166647D01*
X62090796Y-167172296D01*
X62065717Y-167239308D01*
X61999235Y-167324621D01*
X61904481Y-167414630D01*
X61794586Y-167495727D01*
X61756619Y-167518563D01*
X61585324Y-167615236D01*
X61584828Y-168346735D01*
X61584333Y-169078234D01*
X61299452Y-169264643D01*
X61184491Y-169343071D01*
X61093701Y-169411155D01*
X61037562Y-169460630D01*
X61024661Y-169481319D01*
X61058956Y-169509460D01*
X61138089Y-169549890D01*
X61246422Y-169596594D01*
X61368317Y-169643558D01*
X61488138Y-169684766D01*
X61590248Y-169714205D01*
X61659008Y-169725859D01*
X61660468Y-169725871D01*
X61757091Y-169702610D01*
X61828126Y-169657180D01*
X61901244Y-169588489D01*
X61901244Y-169655693D01*
X61884427Y-169746766D01*
X61843719Y-169850608D01*
X61793740Y-169930394D01*
X61791041Y-169933323D01*
X61743013Y-169973761D01*
X61672346Y-170023740D01*
X61672202Y-170023835D01*
X61585324Y-170080650D01*
X61585324Y-171086098D01*
X61586315Y-171387624D01*
X61589223Y-171640992D01*
X61593956Y-171843126D01*
X61600417Y-171990951D01*
X61608512Y-172081391D01*
X61616916Y-172111070D01*
X61643455Y-172155630D01*
X61648508Y-172191914D01*
X61629542Y-172239828D01*
X61567457Y-172253234D01*
X61489369Y-172268817D01*
X61375254Y-172310154D01*
X61242423Y-172369126D01*
X61108185Y-172437614D01*
X60989852Y-172507501D01*
X60921891Y-172556000D01*
X60851042Y-172617633D01*
X60751955Y-172709336D01*
X60640672Y-172816100D01*
X60580017Y-172875865D01*
X60479796Y-172971982D01*
X60393022Y-173048435D01*
X60330970Y-173095665D01*
X60308306Y-173106219D01*
X60264596Y-173093794D01*
X60173168Y-173059281D01*
X60043785Y-173006821D01*
X59886211Y-172940555D01*
X59710209Y-172864627D01*
X59525544Y-172783178D01*
X59341978Y-172700349D01*
X59231717Y-172649521D01*
X59040632Y-172563062D01*
X58889841Y-172502187D01*
X58763970Y-172462591D01*
X58647645Y-172439969D01*
X58525493Y-172430014D01*
X58441916Y-172428325D01*
X58270220Y-172431325D01*
X58144833Y-172445168D01*
X58049242Y-172473943D01*
X57966934Y-172521741D01*
X57921947Y-172557112D01*
X57824064Y-172654994D01*
X57762197Y-172761296D01*
X57730028Y-172892870D01*
X57721235Y-173066568D01*
X57721459Y-173091679D01*
X57727181Y-173235383D01*
X57743055Y-173339772D01*
X57774167Y-173428511D01*
X57808008Y-173494478D01*
X57858805Y-173590607D01*
X57874411Y-173634500D01*
X57854613Y-173626541D01*
X57799199Y-173567113D01*
X57780122Y-173544694D01*
X57679656Y-173394238D01*
X57623214Y-173226562D01*
X57604761Y-173023362D01*
X57604727Y-173012802D01*
X57620548Y-172824939D01*
X57663529Y-172627874D01*
X57726944Y-172445545D01*
X57804068Y-172301888D01*
X57804732Y-172300946D01*
X57972457Y-172108319D01*
X58170602Y-171965352D01*
X58403761Y-171869950D01*
X58676527Y-171820015D01*
X58878410Y-171810946D01*
X59184329Y-171810946D01*
X59184329Y-171253917D01*
X59184329Y-170736860D01*
X59942265Y-170736860D01*
X59942538Y-171031491D01*
X59942538Y-171037722D01*
X59942538Y-172096838D01*
X60029416Y-172131487D01*
X60160796Y-172181982D01*
X60306228Y-172234830D01*
X60453137Y-172285846D01*
X60588949Y-172330846D01*
X60701091Y-172365643D01*
X60776987Y-172386054D01*
X60803421Y-172389086D01*
X60809113Y-172355466D01*
X60814315Y-172266172D01*
X60818856Y-172128712D01*
X60822566Y-171950595D01*
X60825277Y-171739331D01*
X60826820Y-171502428D01*
X60827115Y-171339069D01*
X60826536Y-171037878D01*
X60824675Y-170794777D01*
X60821343Y-170604682D01*
X60816352Y-170462509D01*
X60809515Y-170363173D01*
X60800643Y-170301590D01*
X60789549Y-170272675D01*
X60787625Y-170270795D01*
X60738973Y-170244811D01*
X60649864Y-170207274D01*
X60542786Y-170167462D01*
X60411927Y-170120020D01*
X60282276Y-170070380D01*
X60200553Y-170037102D01*
X60131879Y-170006605D01*
X60076547Y-169983620D01*
X60033124Y-169973703D01*
X60000177Y-169982409D01*
X59976273Y-170015294D01*
X59959980Y-170077914D01*
X59949865Y-170175825D01*
X59944496Y-170314582D01*
X59942440Y-170499742D01*
X59942265Y-170736860D01*
X59184329Y-170736860D01*
X59184329Y-170696889D01*
X59073757Y-170592606D01*
X58993734Y-170506621D01*
X58965366Y-170449235D01*
X58989465Y-170422584D01*
X59008280Y-170420896D01*
X59057406Y-170397901D01*
X59115287Y-170342106D01*
X59118852Y-170337655D01*
X59135931Y-170313925D01*
X59149751Y-170286268D01*
X59160656Y-170248188D01*
X59168990Y-170193189D01*
X59175099Y-170114777D01*
X59179327Y-170006455D01*
X59182020Y-169861730D01*
X59183521Y-169674105D01*
X59184175Y-169437085D01*
X59184328Y-169144174D01*
X59184329Y-169103997D01*
X59184324Y-168790697D01*
X59183839Y-168620149D01*
X59942538Y-168620149D01*
X59943348Y-168921848D01*
X59945705Y-169183881D01*
X59949496Y-169401971D01*
X59954608Y-169571840D01*
X59960929Y-169689208D01*
X59968347Y-169749797D01*
X59972394Y-169757463D01*
X60005809Y-169734529D01*
X60064925Y-169674356D01*
X60137049Y-169589881D01*
X60138252Y-169588386D01*
X60218714Y-169487532D01*
X60292357Y-169393834D01*
X60337438Y-169335209D01*
X60400622Y-169251109D01*
X60569923Y-169333405D01*
X60665303Y-169373517D01*
X60737447Y-169392277D01*
X60766318Y-169388608D01*
X60774656Y-169350725D01*
X60783738Y-169258594D01*
X60793025Y-169121137D01*
X60801973Y-168947277D01*
X60810043Y-168745937D01*
X60815148Y-168583860D01*
X60836883Y-167806207D01*
X60767873Y-167769274D01*
X60700090Y-167739349D01*
X60597973Y-167701073D01*
X60518150Y-167674032D01*
X60381182Y-167627465D01*
X60235767Y-167574512D01*
X60170410Y-167549279D01*
X60073836Y-167512856D01*
X60000241Y-167488722D01*
X59972960Y-167482836D01*
X59964626Y-167513845D01*
X59957483Y-167604557D01*
X59951621Y-167751501D01*
X59947136Y-167951206D01*
X59944118Y-168200201D01*
X59942662Y-168495014D01*
X59942538Y-168620149D01*
X59183839Y-168620149D01*
X59183594Y-168533951D01*
X59181063Y-168327129D01*
X59175656Y-168163600D01*
X59166296Y-168036736D01*
X59151909Y-167939907D01*
X59131419Y-167866482D01*
X59103750Y-167809833D01*
X59067828Y-167763329D01*
X59022577Y-167720341D01*
X58966920Y-167674239D01*
X58950179Y-167660570D01*
X58864782Y-167589416D01*
X58795530Y-167529633D01*
X58766518Y-167502953D01*
X58679853Y-167427947D01*
X58598202Y-167386531D01*
X58515631Y-167381699D01*
X58426205Y-167416442D01*
X58323989Y-167493753D01*
X58203049Y-167616625D01*
X58057451Y-167788050D01*
X57960606Y-167909329D01*
X57879553Y-168023953D01*
X57801288Y-168154452D01*
X57734286Y-168284322D01*
X57687022Y-168397058D01*
X57667972Y-168476155D01*
X57667911Y-168479329D01*
X57655778Y-168544947D01*
X57636319Y-168572761D01*
X57617233Y-168613627D01*
X57605993Y-168693885D01*
X57604727Y-168734451D01*
X57598250Y-168827028D01*
X57578766Y-168858040D01*
X57570114Y-168855223D01*
X57550303Y-168811113D01*
X57552819Y-168734888D01*
X57571318Y-168630296D01*
X57590121Y-168525373D01*
X57616582Y-168424754D01*
X57657818Y-168310577D01*
X57670601Y-168280879D01*
X57706572Y-168197720D01*
X57728237Y-168140828D01*
X57731095Y-168129084D01*
X57747978Y-168095141D01*
X57792197Y-168024230D01*
X57854103Y-167930614D01*
X57924049Y-167828554D01*
X57992388Y-167732313D01*
X58049473Y-167656153D01*
X58059482Y-167643609D01*
X58147289Y-167543112D01*
X58261229Y-167423967D01*
X58392996Y-167293684D01*
X58534283Y-167159772D01*
X58676784Y-167029741D01*
X58812194Y-166911101D01*
X58932206Y-166811359D01*
X59028514Y-166738027D01*
X59092812Y-166698613D01*
X59109895Y-166693948D01*
X59141295Y-166714934D01*
G37*
%TO.C,J2*%
X75500000Y-57225000D02*
X67500000Y-57225000D01*
X75500000Y-49225000D02*
X75500000Y-57225000D01*
X67500000Y-57225000D02*
X67500000Y-49225000D01*
X67500000Y-49225000D02*
X75500000Y-49225000D01*
%TO.C,kibuzzard-65356D5C*%
G36*
X81855359Y-49833281D02*
G01*
X81911914Y-49839234D01*
X81911914Y-50172609D01*
X81780945Y-50172609D01*
X81629141Y-50133914D01*
X81572586Y-50005922D01*
X81592430Y-49917617D01*
X81643031Y-49864039D01*
X81713477Y-49838242D01*
X81794836Y-49831297D01*
X81855359Y-49833281D01*
G37*
G36*
X81911914Y-50656797D02*
G01*
X81858336Y-50662750D01*
X81800789Y-50664734D01*
X81735305Y-50659773D01*
X81679742Y-50639930D01*
X81642039Y-50598258D01*
X81628148Y-50527813D01*
X81675773Y-50415695D01*
X81816664Y-50375016D01*
X81911914Y-50375016D01*
X81911914Y-50656797D01*
G37*
G36*
X80876070Y-49855109D02*
G01*
X80934609Y-49946391D01*
X80962391Y-50082320D01*
X80967600Y-50163432D01*
X80969336Y-50250000D01*
X80967600Y-50336320D01*
X80962391Y-50416688D01*
X80934609Y-50552617D01*
X80876070Y-50644891D01*
X80774867Y-50678625D01*
X80673664Y-50644891D01*
X80615125Y-50553609D01*
X80587344Y-50417680D01*
X80582135Y-50336568D01*
X80580398Y-50250000D01*
X80582135Y-50163680D01*
X80587344Y-50083313D01*
X80615125Y-49947383D01*
X80674656Y-49855109D01*
X80774867Y-49821375D01*
X80876070Y-49855109D01*
G37*
G36*
X79883883Y-49855109D02*
G01*
X79942422Y-49946391D01*
X79970203Y-50082320D01*
X79975412Y-50163432D01*
X79977148Y-50250000D01*
X79975412Y-50336320D01*
X79970203Y-50416688D01*
X79942422Y-50552617D01*
X79883883Y-50644891D01*
X79782680Y-50678625D01*
X79681477Y-50644891D01*
X79622937Y-50553609D01*
X79595156Y-50417680D01*
X79589947Y-50336568D01*
X79588211Y-50250000D01*
X79589947Y-50163680D01*
X79595156Y-50083313D01*
X79622937Y-49947383D01*
X79682469Y-49855109D01*
X79782680Y-49821375D01*
X79883883Y-49855109D01*
G37*
G36*
X78667461Y-49195635D02*
G01*
X79780695Y-49195635D01*
X80772883Y-49195635D01*
X81814680Y-49195635D01*
X82155992Y-49195635D01*
X82982815Y-49195635D01*
X82982815Y-51304365D01*
X82155992Y-51304365D01*
X78344008Y-51304365D01*
X77517185Y-51304365D01*
X77517185Y-50863172D01*
X78344008Y-50863172D01*
X79236977Y-50863172D01*
X79236977Y-50660766D01*
X78913523Y-50660766D01*
X78913523Y-50250000D01*
X79340164Y-50250000D01*
X79347233Y-50399014D01*
X79368441Y-50528557D01*
X79403788Y-50638627D01*
X79453273Y-50729227D01*
X79540145Y-50819075D01*
X79649947Y-50872984D01*
X79782680Y-50890953D01*
X79911444Y-50872984D01*
X80019923Y-50819075D01*
X80108117Y-50729227D01*
X80159339Y-50638627D01*
X80195926Y-50528557D01*
X80217878Y-50399014D01*
X80225195Y-50250000D01*
X80332352Y-50250000D01*
X80339421Y-50399014D01*
X80360629Y-50528557D01*
X80395976Y-50638627D01*
X80445461Y-50729227D01*
X80532332Y-50819075D01*
X80642135Y-50872984D01*
X80774867Y-50890953D01*
X80903631Y-50872984D01*
X81012110Y-50819075D01*
X81100305Y-50729227D01*
X81151526Y-50638627D01*
X81188113Y-50528557D01*
X81210065Y-50399014D01*
X81217383Y-50250000D01*
X81210251Y-50100986D01*
X81194551Y-50005922D01*
X81332477Y-50005922D01*
X81343639Y-50089266D01*
X81377125Y-50168641D01*
X81441865Y-50238094D01*
X81546789Y-50291672D01*
X81432688Y-50398828D01*
X81400689Y-50471258D01*
X81390023Y-50553609D01*
X81407883Y-50668703D01*
X81475352Y-50772883D01*
X81612273Y-50848289D01*
X81712484Y-50869869D01*
X81838492Y-50877063D01*
X82003195Y-50868133D01*
X82155992Y-50847297D01*
X82155992Y-49654687D01*
X82070168Y-49639061D01*
X81983352Y-49627898D01*
X81897527Y-49621201D01*
X81814680Y-49618969D01*
X81716701Y-49623682D01*
X81625172Y-49637820D01*
X81542820Y-49663121D01*
X81472375Y-49701320D01*
X81370180Y-49820383D01*
X81341902Y-49903975D01*
X81332477Y-50005922D01*
X81194551Y-50005922D01*
X81188857Y-49971443D01*
X81153201Y-49861373D01*
X81103281Y-49770773D01*
X81015859Y-49680925D01*
X80905726Y-49627016D01*
X80772883Y-49609047D01*
X80643237Y-49627016D01*
X80534758Y-49680925D01*
X80447445Y-49770773D01*
X80397092Y-49861373D01*
X80361125Y-49971443D01*
X80339545Y-50100986D01*
X80332352Y-50250000D01*
X80225195Y-50250000D01*
X80218064Y-50100986D01*
X80196670Y-49971443D01*
X80161013Y-49861373D01*
X80111094Y-49770773D01*
X80023671Y-49680925D01*
X79913538Y-49627016D01*
X79780695Y-49609047D01*
X79651049Y-49627016D01*
X79542570Y-49680925D01*
X79455258Y-49770773D01*
X79404904Y-49861373D01*
X79368937Y-49971443D01*
X79347357Y-50100986D01*
X79340164Y-50250000D01*
X78913523Y-50250000D01*
X78913523Y-49634844D01*
X78667461Y-49634844D01*
X78667461Y-50660766D01*
X78344008Y-50660766D01*
X78344008Y-50863172D01*
X77517185Y-50863172D01*
X77517185Y-49195635D01*
X78344008Y-49195635D01*
X78667461Y-49195635D01*
G37*
%TO.C,J1*%
X65775000Y-57225000D02*
X57775000Y-57225000D01*
X65775000Y-49225000D02*
X65775000Y-57225000D01*
X57775000Y-57225000D02*
X57775000Y-49225000D01*
X57775000Y-49225000D02*
X65775000Y-49225000D01*
%TO.C,Y1*%
X100372900Y-57669350D02*
X100372900Y-58730650D01*
X102227100Y-58730650D02*
X102227100Y-57669350D01*
%TO.C,C34*%
X114792164Y-77690000D02*
X115007836Y-77690000D01*
X114792164Y-78410000D02*
X115007836Y-78410000D01*
%TO.C,J8*%
X81077600Y-57958000D02*
X81077600Y-64054000D01*
X81077600Y-64054000D02*
X91542400Y-64054000D01*
X86740825Y-57958000D02*
X81077600Y-57958000D01*
X91542400Y-57958000D02*
X88419175Y-57958000D01*
X91542400Y-64054000D02*
X91542400Y-57958000D01*
%TO.C,C23*%
X57210000Y-77988748D02*
X57210000Y-78511252D01*
X55740000Y-77988748D02*
X55740000Y-78511252D01*
%TO.C,R27*%
X88203641Y-68105000D02*
X87896359Y-68105000D01*
X88203641Y-67345000D02*
X87896359Y-67345000D01*
%TO.C,Q1*%
X107210000Y-78080000D02*
X107210000Y-76670000D01*
X104890000Y-76670000D02*
X104890000Y-78700000D01*
X104890000Y-76670000D02*
X105550000Y-76670000D01*
X106550000Y-76670000D02*
X107210000Y-76670000D01*
%TO.C,L2*%
X64040000Y-79110000D02*
X65440000Y-79110000D01*
X64040000Y-79110000D02*
X64040000Y-68090000D01*
X76360000Y-79110000D02*
X74960000Y-79110000D01*
X76360000Y-79110000D02*
X76360000Y-68090000D01*
X64040000Y-68090000D02*
X65440000Y-68090000D01*
X76360000Y-68090000D02*
X74960000Y-68090000D01*
%TO.C,C13*%
X55127836Y-64585000D02*
X54912164Y-64585000D01*
X55127836Y-63865000D02*
X54912164Y-63865000D01*
%TO.C,C5*%
X53859420Y-78490000D02*
X54140580Y-78490000D01*
X53859420Y-79510000D02*
X54140580Y-79510000D01*
%TO.C,C36*%
X99007836Y-57160000D02*
X98792164Y-57160000D01*
X99007836Y-56440000D02*
X98792164Y-56440000D01*
%TO.C,C2*%
X66062500Y-61502500D02*
X66850000Y-61502500D01*
X66456250Y-61108750D02*
X66456250Y-61896250D01*
X67090000Y-61004437D02*
X67090000Y-62290000D01*
X67090000Y-61004437D02*
X68154437Y-59940000D01*
X67090000Y-65695563D02*
X67090000Y-64410000D01*
X67090000Y-65695563D02*
X68154437Y-66760000D01*
X68154437Y-59940000D02*
X73910000Y-59940000D01*
X68154437Y-66760000D02*
X73910000Y-66760000D01*
X73910000Y-59940000D02*
X73910000Y-62290000D01*
X73910000Y-66760000D02*
X73910000Y-64410000D01*
D13*
%TO.C,U25*%
X81000000Y-156500000D02*
X75000000Y-156500000D01*
X75000000Y-156500000D02*
X75000000Y-149500000D01*
X75000000Y-149500000D02*
X81000000Y-149500000D01*
X81000000Y-149500000D02*
X81000000Y-156500000D01*
D14*
X81433742Y-156810000D02*
G75*
G03*
X81433742Y-156810000I-113742J0D01*
G01*
D15*
%TO.C,R8*%
X55925000Y-62346359D02*
X55925000Y-62653641D01*
X55165000Y-62346359D02*
X55165000Y-62653641D01*
%TO.C,R22*%
X105780000Y-71346359D02*
X105780000Y-71653641D01*
X105020000Y-71346359D02*
X105020000Y-71653641D01*
%TO.C,J9*%
X83487600Y-69708000D02*
X83487600Y-75804000D01*
X83487600Y-75804000D02*
X93952400Y-75804000D01*
X89150825Y-69708000D02*
X83487600Y-69708000D01*
X93952400Y-69708000D02*
X90829175Y-69708000D01*
X93952400Y-75804000D02*
X93952400Y-69708000D01*
%TO.C,C40*%
X88540000Y-172807836D02*
X88540000Y-172592164D01*
X89260000Y-172807836D02*
X89260000Y-172592164D01*
%TO.C,TP5*%
X81650000Y-67150000D02*
G75*
G03*
X81650000Y-67150000I-700000J0D01*
G01*
%TO.C,kibuzzard-65356D4E*%
G36*
X89558008Y-50658781D02*
G01*
X89518320Y-50663742D01*
X89484586Y-50664734D01*
X89396777Y-50653324D01*
X89327820Y-50619094D01*
X89283172Y-50560555D01*
X89268289Y-50476219D01*
X89323852Y-50338305D01*
X89396777Y-50301842D01*
X89504430Y-50289688D01*
X89558008Y-50289688D01*
X89558008Y-50658781D01*
G37*
G36*
X85321367Y-49195635D02*
G01*
X86807664Y-49195635D01*
X87464492Y-49195635D01*
X88792039Y-49195635D01*
X88938883Y-49195635D01*
X89802086Y-49195635D01*
X90628909Y-49195635D01*
X90628909Y-51304365D01*
X89802086Y-51304365D01*
X84997914Y-51304365D01*
X84171091Y-51304365D01*
X84171091Y-50863172D01*
X84997914Y-50863172D01*
X85890883Y-50863172D01*
X85890883Y-50660766D01*
X85567430Y-50660766D01*
X85567430Y-49837250D01*
X86019867Y-49837250D01*
X86563586Y-49837250D01*
X86563586Y-50182531D01*
X86129008Y-50182531D01*
X86129008Y-50384938D01*
X86563586Y-50384938D01*
X86563586Y-50660766D01*
X86063523Y-50660766D01*
X86063523Y-50863172D01*
X86807664Y-50863172D01*
X86807664Y-49970203D01*
X87012055Y-49970203D01*
X87020488Y-50062725D01*
X87045789Y-50137883D01*
X87132109Y-50249008D01*
X87247203Y-50320445D01*
X87367258Y-50369063D01*
X87443656Y-50398828D01*
X87513109Y-50435539D01*
X87563711Y-50483164D01*
X87583555Y-50545672D01*
X87561947Y-50623944D01*
X87497124Y-50670908D01*
X87389086Y-50686563D01*
X87249188Y-50666719D01*
X87139055Y-50619094D01*
X87067617Y-50807609D01*
X87209500Y-50865156D01*
X87301029Y-50884504D01*
X87406945Y-50890953D01*
X87528543Y-50880149D01*
X87631400Y-50847738D01*
X87715516Y-50793719D01*
X87799604Y-50677633D01*
X87827633Y-50523844D01*
X87795883Y-50377992D01*
X87715516Y-50279766D01*
X87607367Y-50214281D01*
X87492273Y-50168641D01*
X87408930Y-50133914D01*
X87333523Y-50092242D01*
X87277961Y-50039656D01*
X87256133Y-49972188D01*
X87265063Y-49913648D01*
X87297805Y-49862055D01*
X87362297Y-49826336D01*
X87464492Y-49813438D01*
X87563463Y-49820383D01*
X87646063Y-49841219D01*
X87774055Y-49900750D01*
X87796915Y-49837250D01*
X88004242Y-49837250D01*
X88547961Y-49837250D01*
X88547961Y-50182531D01*
X88113383Y-50182531D01*
X88113383Y-50384938D01*
X88547961Y-50384938D01*
X88547961Y-50660766D01*
X88047898Y-50660766D01*
X88047898Y-50863172D01*
X88792039Y-50863172D01*
X88792039Y-49634844D01*
X88938883Y-49634844D01*
X88995438Y-49764820D01*
X89063898Y-49901742D01*
X89137320Y-50032711D01*
X89208758Y-50146813D01*
X89121941Y-50202871D01*
X89063898Y-50279766D01*
X89031156Y-50372039D01*
X89020242Y-50474234D01*
X89028428Y-50570725D01*
X89052984Y-50653820D01*
X89147242Y-50779828D01*
X89214711Y-50822988D01*
X89294086Y-50853250D01*
X89384375Y-50871109D01*
X89484586Y-50877063D01*
X89554039Y-50875078D01*
X89637383Y-50870117D01*
X89723703Y-50860195D01*
X89802086Y-50845313D01*
X89802086Y-49634844D01*
X89558008Y-49634844D01*
X89558008Y-50087281D01*
X89431008Y-50087281D01*
X89363787Y-49974916D01*
X89301031Y-49864039D01*
X89244229Y-49751674D01*
X89194867Y-49634844D01*
X88938883Y-49634844D01*
X88792039Y-49634844D01*
X88004242Y-49634844D01*
X88004242Y-49837250D01*
X87796915Y-49837250D01*
X87845492Y-49702313D01*
X87708570Y-49641789D01*
X87601910Y-49617232D01*
X87464492Y-49609047D01*
X87325255Y-49619520D01*
X87211815Y-49650939D01*
X87124172Y-49703305D01*
X87040084Y-49817158D01*
X87012055Y-49970203D01*
X86807664Y-49970203D01*
X86807664Y-49634844D01*
X86019867Y-49634844D01*
X86019867Y-49837250D01*
X85567430Y-49837250D01*
X85567430Y-49634844D01*
X85321367Y-49634844D01*
X85321367Y-50660766D01*
X84997914Y-50660766D01*
X84997914Y-50863172D01*
X84171091Y-50863172D01*
X84171091Y-49195635D01*
X84997914Y-49195635D01*
X85321367Y-49195635D01*
G37*
%TO.C,C27*%
X76940000Y-69086252D02*
X76940000Y-67663748D01*
X79660000Y-69086252D02*
X79660000Y-67663748D01*
%TO.C,C1*%
X62217164Y-67640000D02*
X62432836Y-67640000D01*
X62217164Y-68360000D02*
X62432836Y-68360000D01*
D13*
%TO.C,U22*%
X111000000Y-156500000D02*
X105000000Y-156500000D01*
X105000000Y-156500000D02*
X105000000Y-149500000D01*
X105000000Y-149500000D02*
X111000000Y-149500000D01*
X111000000Y-149500000D02*
X111000000Y-156500000D01*
D14*
X111433742Y-156810000D02*
G75*
G03*
X111433742Y-156810000I-113742J0D01*
G01*
D15*
%TO.C,TP33*%
X88350000Y-56550000D02*
G75*
G03*
X88350000Y-56550000I-700000J0D01*
G01*
D10*
%TO.C,U9*%
X95375000Y-68350000D02*
X95375000Y-68125000D01*
X95375000Y-68350000D02*
X92025000Y-68350000D01*
X95375000Y-68125000D02*
X96600000Y-68125000D01*
X95375000Y-65000000D02*
X95375000Y-65300000D01*
X95375000Y-65000000D02*
X92025000Y-65000000D01*
X92025000Y-68350000D02*
X92025000Y-68050000D01*
X92025000Y-65000000D02*
X92025000Y-65300000D01*
D15*
%TO.C,C37*%
X99007836Y-59960000D02*
X98792164Y-59960000D01*
X99007836Y-59240000D02*
X98792164Y-59240000D01*
%TO.C,TP32*%
X94025000Y-77150000D02*
G75*
G03*
X94025000Y-77150000I-700000J0D01*
G01*
%TO.C,R9*%
X55198641Y-65880000D02*
X54891359Y-65880000D01*
X55198641Y-65120000D02*
X54891359Y-65120000D01*
%TO.C,R23*%
X105780000Y-74096359D02*
X105780000Y-74403641D01*
X105020000Y-74096359D02*
X105020000Y-74403641D01*
%TO.C,R13*%
X57105000Y-64246359D02*
X57105000Y-64553641D01*
X56345000Y-64246359D02*
X56345000Y-64553641D01*
%TO.C,U3*%
X54750000Y-74400000D02*
X55250000Y-74400000D01*
X62050000Y-74400000D02*
X61550000Y-74400000D01*
X54750000Y-73900000D02*
X54750000Y-74400000D01*
X62050000Y-73900000D02*
X62050000Y-74400000D01*
X54750000Y-69600000D02*
X54750000Y-69100000D01*
X62050000Y-69600000D02*
X62050000Y-69100000D01*
X54750000Y-69100000D02*
X55250000Y-69100000D01*
X62050000Y-69100000D02*
X61550000Y-69100000D01*
D11*
X55740000Y-74980000D02*
G75*
G03*
X55740000Y-74980000I-90000J0D01*
G01*
D15*
%TO.C,C16*%
X62217164Y-66465000D02*
X62432836Y-66465000D01*
X62217164Y-67185000D02*
X62432836Y-67185000D01*
%TO.C,TP31*%
X88250000Y-77275000D02*
G75*
G03*
X88250000Y-77275000I-700000J0D01*
G01*
D12*
%TO.C,U7*%
X83349700Y-52672100D02*
X81800300Y-52672100D01*
X81800300Y-54627900D02*
X83349700Y-54627900D01*
X84383100Y-54150000D02*
G75*
G03*
X84383100Y-54150000I-101600J0D01*
G01*
D15*
%TO.C,C22*%
X59310000Y-77988748D02*
X59310000Y-78511252D01*
X57840000Y-77988748D02*
X57840000Y-78511252D01*
D13*
%TO.C,U13*%
X81000000Y-100500000D02*
X75000000Y-100500000D01*
X75000000Y-100500000D02*
X75000000Y-93500000D01*
X75000000Y-93500000D02*
X81000000Y-93500000D01*
X81000000Y-93500000D02*
X81000000Y-100500000D01*
D14*
X81433742Y-100810000D02*
G75*
G03*
X81433742Y-100810000I-113742J0D01*
G01*
D15*
%TO.C,J5*%
X124470000Y-53870000D02*
X125800000Y-53870000D01*
X124470000Y-55200000D02*
X124470000Y-53870000D01*
X124470000Y-56470000D02*
X124470000Y-64150000D01*
X124470000Y-56470000D02*
X127130000Y-56470000D01*
X124470000Y-64150000D02*
X127130000Y-64150000D01*
X127130000Y-56470000D02*
X127130000Y-64150000D01*
%TO.C,U6*%
X104100000Y-65040000D02*
X104100000Y-65790000D01*
X104100000Y-65790000D02*
X105100000Y-65790000D01*
X122100000Y-65040000D02*
X122100000Y-65790000D01*
X122100000Y-65790000D02*
X121100000Y-65790000D01*
%TO.C,J4*%
X108290000Y-73760000D02*
X108290000Y-75360000D01*
X108290000Y-75360000D02*
X110090000Y-75360000D01*
X109560000Y-70890000D02*
X125490000Y-70890000D01*
X110090000Y-75360000D02*
X110090000Y-76300000D01*
X126760000Y-73760000D02*
X126760000Y-75360000D01*
X126760000Y-75360000D02*
X124960000Y-75360000D01*
%TO.C,C10*%
X62988748Y-59315000D02*
X64411252Y-59315000D01*
X62988748Y-62035000D02*
X64411252Y-62035000D01*
%TO.C,C31*%
X90810000Y-52712164D02*
X90810000Y-52927836D01*
X90090000Y-52712164D02*
X90090000Y-52927836D01*
%TO.C,TP11*%
X109000000Y-69075000D02*
G75*
G03*
X109000000Y-69075000I-700000J0D01*
G01*
%TO.C,J7*%
X101340000Y-49695000D02*
X101340000Y-51495000D01*
X101340000Y-47595000D02*
X101340000Y-46445000D01*
X92000000Y-49695000D02*
X92000000Y-51495000D01*
X92000000Y-47595000D02*
X92000000Y-46445000D01*
%TO.C,TP30*%
X82825000Y-56525000D02*
G75*
G03*
X82825000Y-56525000I-700000J0D01*
G01*
%TO.C,R15*%
X103446359Y-66845000D02*
X103753641Y-66845000D01*
X103446359Y-67605000D02*
X103753641Y-67605000D01*
%TO.C,R14*%
X61122936Y-77840000D02*
X62577064Y-77840000D01*
X61122936Y-79660000D02*
X62577064Y-79660000D01*
%TO.C,C25*%
X53385000Y-70167164D02*
X53385000Y-70382836D01*
X52665000Y-70167164D02*
X52665000Y-70382836D01*
%TO.C,C38*%
X95960000Y-69492164D02*
X95960000Y-69707836D01*
X95240000Y-69492164D02*
X95240000Y-69707836D01*
%TO.C,C14*%
X62813748Y-64540000D02*
X63336252Y-64540000D01*
X62813748Y-66010000D02*
X63336252Y-66010000D01*
%TO.C,D1*%
X92775000Y-63510000D02*
X96075000Y-63510000D01*
X92775000Y-63510000D02*
X92775000Y-58000000D01*
X96075000Y-63510000D02*
X96075000Y-58000000D01*
%TO.C,kibuzzard-65978662*%
G36*
X65724418Y-46676373D02*
G01*
X65724418Y-47569818D01*
X65650123Y-47567436D01*
X65560588Y-47560293D01*
X65450812Y-47539576D01*
X65369135Y-47504095D01*
X65311271Y-47449326D01*
X65272933Y-47370745D01*
X65251501Y-47262874D01*
X65244358Y-47120238D01*
X65251739Y-46969504D01*
X65273885Y-46856395D01*
X65313652Y-46775194D01*
X65373898Y-46720188D01*
X65459146Y-46686850D01*
X65573923Y-46670658D01*
X65724418Y-46676373D01*
G37*
G36*
X60815232Y-46062327D02*
G01*
X64309003Y-46062327D01*
X65631073Y-46062327D01*
X66494038Y-46062327D01*
X67337953Y-46062327D01*
X68690503Y-46062327D01*
X71995678Y-46062327D01*
X72719578Y-46062327D01*
X73116453Y-46062327D01*
X73116453Y-48187673D01*
X72719578Y-48187673D01*
X60430422Y-48187673D01*
X60033547Y-48187673D01*
X60033547Y-47152623D01*
X60430422Y-47152623D01*
X60815232Y-47152623D01*
X60815232Y-47552673D01*
X61040022Y-47552673D01*
X61040022Y-47152623D01*
X61424832Y-47152623D01*
X61424832Y-46950693D01*
X61040022Y-46950693D01*
X61040022Y-46836393D01*
X63851803Y-46836393D01*
X64089928Y-46836393D01*
X64150888Y-46702090D01*
X64213276Y-46675658D01*
X64309003Y-46666847D01*
X64401871Y-46677087D01*
X64470928Y-46707805D01*
X64519743Y-46762812D01*
X64551890Y-46845917D01*
X64569749Y-46963551D01*
X64575703Y-47122143D01*
X64569749Y-47282639D01*
X64551890Y-47402178D01*
X64519743Y-47486712D01*
X64470928Y-47542195D01*
X64401871Y-47572913D01*
X64309003Y-47583153D01*
X64222325Y-47573628D01*
X64164223Y-47545053D01*
X64126599Y-47490284D01*
X64101358Y-47402178D01*
X63863233Y-47402178D01*
X63877996Y-47537194D01*
X63910858Y-47637445D01*
X63965626Y-47708406D01*
X64046113Y-47755555D01*
X64158508Y-47781987D01*
X64309003Y-47790798D01*
X64433251Y-47784130D01*
X64536756Y-47764128D01*
X64619518Y-47730790D01*
X64712386Y-47650066D01*
X64773823Y-47527908D01*
X64799223Y-47419323D01*
X64814463Y-47284068D01*
X64819543Y-47122143D01*
X64819061Y-47106903D01*
X64998613Y-47106903D01*
X65004116Y-47255175D01*
X65020626Y-47379953D01*
X65048143Y-47481235D01*
X65115056Y-47598631D01*
X65216735Y-47682213D01*
X65307011Y-47721583D01*
X65419088Y-47750793D01*
X65552968Y-47769843D01*
X65644408Y-47776986D01*
X65747278Y-47779368D01*
X65852053Y-47777463D01*
X65968258Y-47771748D01*
X66109228Y-47771748D01*
X66356878Y-47771748D01*
X66638818Y-46762098D01*
X66648343Y-46762098D01*
X66930283Y-47771748D01*
X67177933Y-47771748D01*
X66793123Y-46476347D01*
X67337953Y-46476347D01*
X67337953Y-46689707D01*
X67983748Y-46689707D01*
X67983748Y-46706853D01*
X67870612Y-46787074D01*
X67775044Y-46857559D01*
X67697045Y-46918308D01*
X67593937Y-47006414D01*
X67492258Y-47103093D01*
X67425106Y-47179293D01*
X67383673Y-47247873D01*
X67362241Y-47321691D01*
X67355098Y-47413608D01*
X67365099Y-47545291D01*
X67395103Y-47643160D01*
X67448681Y-47712216D01*
X67529405Y-47757460D01*
X67643943Y-47782463D01*
X67798963Y-47790798D01*
X67953029Y-47782225D01*
X68068520Y-47756508D01*
X68151388Y-47710549D01*
X68207585Y-47641255D01*
X68241637Y-47542909D01*
X68258068Y-47409798D01*
X68014228Y-47409798D01*
X67987558Y-47515525D01*
X67921835Y-47568865D01*
X67797058Y-47585058D01*
X67673233Y-47569818D01*
X67611320Y-47519335D01*
X67593223Y-47417418D01*
X67606558Y-47329788D01*
X67656088Y-47257398D01*
X67742289Y-47176911D01*
X67852303Y-47084042D01*
X67921597Y-47028559D01*
X68007560Y-46961170D01*
X68110192Y-46881874D01*
X68229493Y-46790673D01*
X68229493Y-46476347D01*
X68690503Y-46476347D01*
X68690503Y-47771748D01*
X68926723Y-47771748D01*
X69336298Y-47484093D01*
X69336298Y-47232633D01*
X68993398Y-47444088D01*
X68919103Y-47505048D01*
X68926723Y-47386938D01*
X68926723Y-46939263D01*
X71995678Y-46939263D01*
X71995678Y-47148813D01*
X72719578Y-47148813D01*
X72719578Y-46939263D01*
X71995678Y-46939263D01*
X68926723Y-46939263D01*
X68926723Y-46476347D01*
X68690503Y-46476347D01*
X68229493Y-46476347D01*
X67337953Y-46476347D01*
X66793123Y-46476347D01*
X66494038Y-46476347D01*
X66109228Y-47771748D01*
X65968258Y-47771748D01*
X65968258Y-46476347D01*
X65843586Y-46467881D01*
X65731191Y-46462801D01*
X65631073Y-46461108D01*
X65478461Y-46467669D01*
X65350826Y-46487354D01*
X65248168Y-46520163D01*
X65132439Y-46598982D01*
X65055763Y-46717330D01*
X65024013Y-46821999D01*
X65004963Y-46951857D01*
X64998613Y-47106903D01*
X64819061Y-47106903D01*
X64814463Y-46961487D01*
X64799223Y-46827503D01*
X64773823Y-46720188D01*
X64712386Y-46599458D01*
X64619518Y-46519210D01*
X64536756Y-46485873D01*
X64433251Y-46465870D01*
X64309003Y-46459202D01*
X64156841Y-46467537D01*
X64043255Y-46492540D01*
X63961578Y-46537784D01*
X63905143Y-46606840D01*
X63869900Y-46704709D01*
X63851803Y-46836393D01*
X61040022Y-46836393D01*
X61040022Y-46539213D01*
X60815232Y-46539213D01*
X60815232Y-46950693D01*
X60430422Y-46950693D01*
X60430422Y-47152623D01*
X60033547Y-47152623D01*
X60033547Y-46062327D01*
X60430422Y-46062327D01*
X60815232Y-46062327D01*
G37*
%TO.C,R26*%
X88178641Y-66505000D02*
X87871359Y-66505000D01*
X88178641Y-65745000D02*
X87871359Y-65745000D01*
D13*
%TO.C,U12*%
X111000000Y-100500000D02*
X105000000Y-100500000D01*
X105000000Y-100500000D02*
X105000000Y-93500000D01*
X105000000Y-93500000D02*
X111000000Y-93500000D01*
X111000000Y-93500000D02*
X111000000Y-100500000D01*
D14*
X111433742Y-100810000D02*
G75*
G03*
X111433742Y-100810000I-113742J0D01*
G01*
%TD*%
%LPC*%
D16*
%TO.C,H4*%
X131000000Y-172000000D03*
D17*
X132590990Y-170409010D03*
X129409010Y-173590990D03*
X132590990Y-173590990D03*
X133250000Y-172000000D03*
X131000000Y-174250000D03*
X131000000Y-169750000D03*
X128750000Y-172000000D03*
X129409010Y-170409010D03*
%TD*%
D16*
%TO.C,H3*%
X53500000Y-172000000D03*
D17*
X55090990Y-170409010D03*
X51909010Y-173590990D03*
X55090990Y-173590990D03*
X55750000Y-172000000D03*
X53500000Y-174250000D03*
X53500000Y-169750000D03*
X51250000Y-172000000D03*
X51909010Y-170409010D03*
%TD*%
D18*
%TO.C,U8*%
X92400900Y-173699999D03*
X92400900Y-173200000D03*
X92400900Y-172700001D03*
X90800700Y-172700001D03*
X90800700Y-173200000D03*
X90800700Y-173699999D03*
%TD*%
D17*
%TO.C,SW2*%
X78225000Y-46725000D03*
D19*
X78325000Y-46800000D03*
X82175000Y-46800000D03*
D17*
X82275000Y-46725000D03*
D19*
X78325000Y-48250000D03*
X82175000Y-48250000D03*
%TD*%
D17*
%TO.C,SW1*%
X85325000Y-46750000D03*
D19*
X85425000Y-46825000D03*
X89275000Y-46825000D03*
D17*
X89375000Y-46750000D03*
D19*
X85425000Y-48275000D03*
X89275000Y-48275000D03*
%TD*%
D20*
%TO.C,U18*%
X110916000Y-128263000D03*
X110916000Y-127761000D03*
X110916000Y-127259000D03*
X110916000Y-126757000D03*
X110916000Y-126255000D03*
X110916000Y-125753000D03*
X110916000Y-125251000D03*
X110916000Y-124749000D03*
X110916000Y-124247000D03*
X110916000Y-123745000D03*
X110916000Y-123243000D03*
X110916000Y-122741000D03*
X110916000Y-122239000D03*
X110916000Y-121737000D03*
X105084000Y-121750000D03*
X105084000Y-122250000D03*
X105084000Y-122750000D03*
X105084000Y-123250000D03*
X105084000Y-123750000D03*
X105084000Y-124247000D03*
X105084000Y-124750000D03*
X105084000Y-125251000D03*
X105084000Y-125753000D03*
X105084000Y-126255000D03*
X105084000Y-126757000D03*
X105084000Y-127250000D03*
X105084000Y-127761000D03*
X105084000Y-128250000D03*
D21*
X108000000Y-127468000D03*
D22*
X108000000Y-123892000D03*
%TD*%
D23*
%TO.C,J6*%
X129900000Y-57360000D03*
X130916000Y-62440000D03*
X128884000Y-62440000D03*
D24*
X129265000Y-58630000D03*
X130535000Y-58630000D03*
X129265000Y-59900000D03*
X130535000Y-59900000D03*
X129265000Y-61170000D03*
X130535000Y-61170000D03*
%TD*%
D20*
%TO.C,U20*%
X80916000Y-128263000D03*
X80916000Y-127761000D03*
X80916000Y-127259000D03*
X80916000Y-126757000D03*
X80916000Y-126255000D03*
X80916000Y-125753000D03*
X80916000Y-125251000D03*
X80916000Y-124749000D03*
X80916000Y-124247000D03*
X80916000Y-123745000D03*
X80916000Y-123243000D03*
X80916000Y-122741000D03*
X80916000Y-122239000D03*
X80916000Y-121737000D03*
X75084000Y-121750000D03*
X75084000Y-122250000D03*
X75084000Y-122750000D03*
X75084000Y-123250000D03*
X75084000Y-123750000D03*
X75084000Y-124247000D03*
X75084000Y-124750000D03*
X75084000Y-125251000D03*
X75084000Y-125753000D03*
X75084000Y-126255000D03*
X75084000Y-126757000D03*
X75084000Y-127250000D03*
X75084000Y-127761000D03*
X75084000Y-128250000D03*
D21*
X78000000Y-127468000D03*
D22*
X78000000Y-123892000D03*
%TD*%
D25*
%TO.C,TP4*%
X80975000Y-69350000D03*
%TD*%
D26*
%TO.C,R18*%
X89000000Y-53330000D03*
X89000000Y-52310000D03*
%TD*%
D27*
%TO.C,J2*%
X74000000Y-56725000D03*
X74000000Y-49725000D03*
X69000000Y-56725000D03*
X69000000Y-49725000D03*
%TD*%
D17*
%TO.C,H1*%
X51250000Y-49500000D03*
X51909010Y-47909010D03*
X51909010Y-51090990D03*
X53500000Y-47250000D03*
D16*
X53500000Y-49500000D03*
D17*
X53500000Y-51750000D03*
X55090990Y-47909010D03*
X55090990Y-51090990D03*
X55750000Y-49500000D03*
%TD*%
D27*
%TO.C,J1*%
X64275000Y-56725000D03*
X64275000Y-49725000D03*
X59275000Y-56725000D03*
X59275000Y-49725000D03*
%TD*%
D28*
%TO.C,Y1*%
X101300000Y-56777600D03*
X101300000Y-59622400D03*
%TD*%
D29*
%TO.C,C34*%
X114420000Y-78050000D03*
X115380000Y-78050000D03*
%TD*%
D30*
%TO.C,J8*%
X87580000Y-58464999D03*
D31*
X82500000Y-60625000D03*
X85040000Y-60625000D03*
X87580000Y-60625000D03*
X90120000Y-60625000D03*
%TD*%
D32*
%TO.C,C23*%
X56475000Y-77300000D03*
X56475000Y-79200000D03*
%TD*%
D33*
%TO.C,R27*%
X88560000Y-67725000D03*
X87540000Y-67725000D03*
%TD*%
D34*
%TO.C,FID3*%
X53340000Y-54356000D03*
%TD*%
D35*
%TO.C,Q1*%
X105400000Y-78400000D03*
X106700000Y-78400000D03*
X106050000Y-76400000D03*
%TD*%
D36*
%TO.C,L2*%
X70200000Y-76925000D03*
X70200000Y-70275000D03*
%TD*%
D37*
%TO.C,C13*%
X55500000Y-64225000D03*
X54540000Y-64225000D03*
%TD*%
D38*
%TO.C,C5*%
X53225000Y-79000000D03*
X54775000Y-79000000D03*
%TD*%
D37*
%TO.C,C36*%
X99380000Y-56800000D03*
X98420000Y-56800000D03*
%TD*%
D39*
%TO.C,C2*%
X67700000Y-63350000D03*
X73300000Y-63350000D03*
%TD*%
D20*
%TO.C,U25*%
X80916000Y-156263000D03*
X80916000Y-155761000D03*
X80916000Y-155259000D03*
X80916000Y-154757000D03*
X80916000Y-154255000D03*
X80916000Y-153753000D03*
X80916000Y-153251000D03*
X80916000Y-152749000D03*
X80916000Y-152247000D03*
X80916000Y-151745000D03*
X80916000Y-151243000D03*
X80916000Y-150741000D03*
X80916000Y-150239000D03*
X80916000Y-149737000D03*
X75084000Y-149750000D03*
X75084000Y-150250000D03*
X75084000Y-150750000D03*
X75084000Y-151250000D03*
X75084000Y-151750000D03*
X75084000Y-152247000D03*
X75084000Y-152750000D03*
X75084000Y-153251000D03*
X75084000Y-153753000D03*
X75084000Y-154255000D03*
X75084000Y-154757000D03*
X75084000Y-155250000D03*
X75084000Y-155761000D03*
X75084000Y-156250000D03*
D21*
X78000000Y-155468000D03*
D22*
X78000000Y-151892000D03*
%TD*%
D40*
%TO.C,R8*%
X55545000Y-61990000D03*
X55545000Y-63010000D03*
%TD*%
%TO.C,R22*%
X105400000Y-70990000D03*
X105400000Y-72010000D03*
%TD*%
D30*
%TO.C,J9*%
X89990000Y-70214999D03*
D31*
X84910000Y-72375000D03*
X87450000Y-72375000D03*
X89990000Y-72375000D03*
X92530000Y-72375000D03*
%TD*%
D41*
%TO.C,J3*%
X54450000Y-98970000D03*
D42*
X56990000Y-98970000D03*
X54450000Y-96430000D03*
X56990000Y-96430000D03*
X54450000Y-93890000D03*
X56990000Y-93890000D03*
X54450000Y-91350000D03*
X56990000Y-91350000D03*
X54450000Y-88810000D03*
X56990000Y-88810000D03*
%TD*%
D43*
%TO.C,C40*%
X88900000Y-173180000D03*
X88900000Y-172220000D03*
%TD*%
D25*
%TO.C,TP5*%
X80950000Y-67150000D03*
%TD*%
D44*
%TO.C,H8*%
X122500000Y-125000000D03*
%TD*%
D45*
%TO.C,C27*%
X78300000Y-69850000D03*
X78300000Y-66900000D03*
%TD*%
D29*
%TO.C,C1*%
X61845000Y-68000000D03*
X62805000Y-68000000D03*
%TD*%
D20*
%TO.C,U22*%
X110916000Y-156263000D03*
X110916000Y-155761000D03*
X110916000Y-155259000D03*
X110916000Y-154757000D03*
X110916000Y-154255000D03*
X110916000Y-153753000D03*
X110916000Y-153251000D03*
X110916000Y-152749000D03*
X110916000Y-152247000D03*
X110916000Y-151745000D03*
X110916000Y-151243000D03*
X110916000Y-150741000D03*
X110916000Y-150239000D03*
X110916000Y-149737000D03*
X105084000Y-149750000D03*
X105084000Y-150250000D03*
X105084000Y-150750000D03*
X105084000Y-151250000D03*
X105084000Y-151750000D03*
X105084000Y-152247000D03*
X105084000Y-152750000D03*
X105084000Y-153251000D03*
X105084000Y-153753000D03*
X105084000Y-154255000D03*
X105084000Y-154757000D03*
X105084000Y-155250000D03*
X105084000Y-155761000D03*
X105084000Y-156250000D03*
D21*
X108000000Y-155468000D03*
D22*
X108000000Y-151892000D03*
%TD*%
D25*
%TO.C,TP33*%
X87650000Y-56550000D03*
%TD*%
D44*
%TO.C,H7*%
X62000000Y-125000000D03*
%TD*%
D34*
%TO.C,FID1*%
X132842000Y-54050000D03*
%TD*%
D46*
%TO.C,U9*%
X95900000Y-67675000D03*
X95900000Y-67175000D03*
X95900000Y-66675000D03*
X95900000Y-66175000D03*
X95900000Y-65675000D03*
X91500000Y-65675000D03*
X91500000Y-66175000D03*
X91500000Y-66675000D03*
X91500000Y-67175000D03*
X91500000Y-67675000D03*
%TD*%
D37*
%TO.C,C37*%
X99380000Y-59600000D03*
X98420000Y-59600000D03*
%TD*%
D25*
%TO.C,TP32*%
X93325000Y-77150000D03*
%TD*%
D33*
%TO.C,R9*%
X55555000Y-65500000D03*
X54535000Y-65500000D03*
%TD*%
D40*
%TO.C,R23*%
X105400000Y-73740000D03*
X105400000Y-74760000D03*
%TD*%
%TO.C,R13*%
X56725000Y-63890000D03*
X56725000Y-64910000D03*
%TD*%
D47*
%TO.C,U3*%
X55650000Y-74250000D03*
X56150000Y-74250000D03*
X56650000Y-74250000D03*
X57150000Y-74250000D03*
X57650000Y-74250000D03*
X58150000Y-74250000D03*
X58650000Y-74250000D03*
X59150000Y-74250000D03*
X59650000Y-74250000D03*
X60150000Y-74250000D03*
X60650000Y-74250000D03*
X61150000Y-74250000D03*
D48*
X61900000Y-73500000D03*
X61900000Y-73000000D03*
X61900000Y-72500000D03*
X61900000Y-72000000D03*
X61900000Y-71500000D03*
X61900000Y-71000000D03*
X61900000Y-70500000D03*
X61900000Y-70000000D03*
D47*
X61150000Y-69250000D03*
X60650000Y-69250000D03*
X60150000Y-69250000D03*
X59650000Y-69250000D03*
X59150000Y-69250000D03*
X58650000Y-69250000D03*
X58150000Y-69250000D03*
X57650000Y-69250000D03*
X57150000Y-69250000D03*
X56650000Y-69250000D03*
X56150000Y-69250000D03*
X55650000Y-69250000D03*
D48*
X54900000Y-70000000D03*
X54900000Y-70500000D03*
X54900000Y-71000000D03*
X54900000Y-71500000D03*
X54900000Y-72000000D03*
X54900000Y-72500000D03*
X54900000Y-73000000D03*
X54900000Y-73500000D03*
D49*
X57000000Y-73030000D03*
X58400000Y-73030000D03*
X59800000Y-73030000D03*
X56000000Y-71750000D03*
X57000000Y-71750000D03*
X58400000Y-71750000D03*
D50*
X58400000Y-71750000D03*
D49*
X59800000Y-71750000D03*
X60800000Y-71750000D03*
X57000000Y-70470000D03*
X58400000Y-70470000D03*
X59800000Y-70470000D03*
%TD*%
D34*
%TO.C,FID7*%
X58725000Y-173825000D03*
%TD*%
D29*
%TO.C,C16*%
X61845000Y-66825000D03*
X62805000Y-66825000D03*
%TD*%
D25*
%TO.C,TP31*%
X87550000Y-77275000D03*
%TD*%
D18*
%TO.C,U7*%
X83375100Y-54149999D03*
X83375100Y-53650000D03*
X83375100Y-53150001D03*
X81774900Y-53150001D03*
X81774900Y-53650000D03*
X81774900Y-54149999D03*
%TD*%
D44*
%TO.C,H10*%
X122500000Y-153000000D03*
%TD*%
D32*
%TO.C,C22*%
X58575000Y-77300000D03*
X58575000Y-79200000D03*
%TD*%
D20*
%TO.C,U13*%
X80916000Y-100263000D03*
X80916000Y-99761000D03*
X80916000Y-99259000D03*
X80916000Y-98757000D03*
X80916000Y-98255000D03*
X80916000Y-97753000D03*
X80916000Y-97251000D03*
X80916000Y-96749000D03*
X80916000Y-96247000D03*
X80916000Y-95745000D03*
X80916000Y-95243000D03*
X80916000Y-94741000D03*
X80916000Y-94239000D03*
X80916000Y-93737000D03*
X75084000Y-93750000D03*
X75084000Y-94250000D03*
X75084000Y-94750000D03*
X75084000Y-95250000D03*
X75084000Y-95750000D03*
X75084000Y-96247000D03*
X75084000Y-96750000D03*
X75084000Y-97251000D03*
X75084000Y-97753000D03*
X75084000Y-98255000D03*
X75084000Y-98757000D03*
X75084000Y-99250000D03*
X75084000Y-99761000D03*
X75084000Y-100250000D03*
D21*
X78000000Y-99468000D03*
D22*
X78000000Y-95892000D03*
%TD*%
D44*
%TO.C,H6*%
X122500000Y-97000000D03*
%TD*%
%TO.C,H5*%
X62000000Y-97000000D03*
%TD*%
D41*
%TO.C,J5*%
X125800000Y-55200000D03*
D42*
X125800000Y-57740000D03*
X125800000Y-60280000D03*
X125800000Y-62820000D03*
%TD*%
D51*
%TO.C,U6*%
X104350000Y-47780000D03*
X104350000Y-49050000D03*
X104350000Y-50320000D03*
X104350000Y-51590000D03*
X104350000Y-52860000D03*
X104350000Y-54130000D03*
X104350000Y-55400000D03*
X104350000Y-56670000D03*
X104350000Y-57940000D03*
X104350000Y-59210000D03*
X104350000Y-60480000D03*
X104350000Y-61750000D03*
X104350000Y-63020000D03*
X104350000Y-64290000D03*
D52*
X106115000Y-65540000D03*
X107385000Y-65540000D03*
X108655000Y-65540000D03*
X109925000Y-65540000D03*
X111195000Y-65540000D03*
X112465000Y-65540000D03*
X113735000Y-65540000D03*
X115005000Y-65540000D03*
X116275000Y-65540000D03*
X117545000Y-65540000D03*
X118815000Y-65540000D03*
X120085000Y-65540000D03*
D51*
X121850000Y-64290000D03*
X121850000Y-63020000D03*
X121850000Y-61750000D03*
X121850000Y-60480000D03*
X121850000Y-59210000D03*
X121850000Y-57940000D03*
X121850000Y-56670000D03*
X121850000Y-55400000D03*
X121850000Y-54130000D03*
X121850000Y-52860000D03*
X121850000Y-51590000D03*
X121850000Y-50320000D03*
X121850000Y-49050000D03*
X121850000Y-47780000D03*
D53*
X110200000Y-54100000D03*
X110200000Y-55500000D03*
X110200000Y-56900000D03*
X111600000Y-54100000D03*
X111600000Y-55500000D03*
X111600000Y-56900000D03*
X113000000Y-54100000D03*
X113000000Y-55500000D03*
X113000000Y-56900000D03*
%TD*%
D54*
%TO.C,J4*%
X110650000Y-75450000D03*
X111900000Y-75450000D03*
X113150000Y-75450000D03*
X114400000Y-75450000D03*
X115650000Y-75450000D03*
X116900000Y-75450000D03*
X118150000Y-75450000D03*
X119400000Y-75450000D03*
X120650000Y-75450000D03*
X121900000Y-75450000D03*
X123150000Y-75450000D03*
X124400000Y-75450000D03*
D55*
X108800000Y-72100000D03*
X126250000Y-72100000D03*
%TD*%
D56*
%TO.C,C10*%
X62225000Y-60675000D03*
X65175000Y-60675000D03*
%TD*%
D34*
%TO.C,FID5*%
X125984000Y-173228000D03*
%TD*%
D57*
%TO.C,C31*%
X90450000Y-52340000D03*
X90450000Y-53300000D03*
%TD*%
D25*
%TO.C,TP11*%
X108300000Y-69075000D03*
%TD*%
D58*
%TO.C,J7*%
X99560000Y-52300000D03*
X93780000Y-52300000D03*
D59*
X99870000Y-53420000D03*
X99070000Y-53420000D03*
D60*
X97920000Y-53375000D03*
X96920000Y-53375000D03*
X96420000Y-53375000D03*
X95420000Y-53375000D03*
D59*
X94270000Y-53420000D03*
X93470000Y-53420000D03*
X93470000Y-53420000D03*
X94270000Y-53420000D03*
D60*
X94920000Y-53375000D03*
X95920000Y-53375000D03*
X97420000Y-53375000D03*
X98420000Y-53375000D03*
D59*
X99070000Y-53420000D03*
X99870000Y-53420000D03*
D61*
X100990000Y-52800000D03*
D62*
X100990000Y-48620000D03*
D61*
X92350000Y-52800000D03*
D62*
X92350000Y-48620000D03*
%TD*%
D25*
%TO.C,TP30*%
X82125000Y-56525000D03*
%TD*%
D63*
%TO.C,R15*%
X103090000Y-67225000D03*
X104110000Y-67225000D03*
%TD*%
D64*
%TO.C,R14*%
X60387500Y-78750000D03*
X63312500Y-78750000D03*
%TD*%
D17*
%TO.C,H2*%
X128750000Y-49500000D03*
X129409010Y-47909010D03*
X129409010Y-51090990D03*
X131000000Y-47250000D03*
D16*
X131000000Y-49500000D03*
D17*
X131000000Y-51750000D03*
X132590990Y-47909010D03*
X132590990Y-51090990D03*
X133250000Y-49500000D03*
%TD*%
D57*
%TO.C,C25*%
X53025000Y-69795000D03*
X53025000Y-70755000D03*
%TD*%
D44*
%TO.C,H9*%
X62000000Y-153000000D03*
%TD*%
D57*
%TO.C,C38*%
X95600000Y-69120000D03*
X95600000Y-70080000D03*
%TD*%
D65*
%TO.C,C14*%
X62125000Y-65275000D03*
X64025000Y-65275000D03*
%TD*%
D66*
%TO.C,D1*%
X94425000Y-62000000D03*
X94425000Y-58000000D03*
%TD*%
D33*
%TO.C,R26*%
X88535000Y-66125000D03*
X87515000Y-66125000D03*
%TD*%
D20*
%TO.C,U12*%
X110916000Y-100263000D03*
X110916000Y-99761000D03*
X110916000Y-99259000D03*
X110916000Y-98757000D03*
X110916000Y-98255000D03*
X110916000Y-97753000D03*
X110916000Y-97251000D03*
X110916000Y-96749000D03*
X110916000Y-96247000D03*
X110916000Y-95745000D03*
X110916000Y-95243000D03*
X110916000Y-94741000D03*
X110916000Y-94239000D03*
X110916000Y-93737000D03*
X105084000Y-93750000D03*
X105084000Y-94250000D03*
X105084000Y-94750000D03*
X105084000Y-95250000D03*
X105084000Y-95750000D03*
X105084000Y-96247000D03*
X105084000Y-96750000D03*
X105084000Y-97251000D03*
X105084000Y-97753000D03*
X105084000Y-98255000D03*
X105084000Y-98757000D03*
X105084000Y-99250000D03*
X105084000Y-99761000D03*
X105084000Y-100250000D03*
D21*
X108000000Y-99468000D03*
D22*
X108000000Y-95892000D03*
%TD*%
%LPD*%
M02*
