%TF.GenerationSoftware,KiCad,Pcbnew,7.0.7*%
%TF.CreationDate,2023-11-01T03:39:02-06:00*%
%TF.ProjectId,bitaxeHex,62697461-7865-4486-9578-2e6b69636164,0.9*%
%TF.SameCoordinates,Original*%
%TF.FileFunction,Legend,Top*%
%TF.FilePolarity,Positive*%
%FSLAX46Y46*%
G04 Gerber Fmt 4.6, Leading zero omitted, Abs format (unit mm)*
G04 Created by KiCad (PCBNEW 7.0.7) date 2023-11-01 03:39:02*
%MOMM*%
%LPD*%
G01*
G04 APERTURE LIST*
G04 Aperture macros list*
%AMRoundRect*
0 Rectangle with rounded corners*
0 $1 Rounding radius*
0 $2 $3 $4 $5 $6 $7 $8 $9 X,Y pos of 4 corners*
0 Add a 4 corners polygon primitive as box body*
4,1,4,$2,$3,$4,$5,$6,$7,$8,$9,$2,$3,0*
0 Add four circle primitives for the rounded corners*
1,1,$1+$1,$2,$3*
1,1,$1+$1,$4,$5*
1,1,$1+$1,$6,$7*
1,1,$1+$1,$8,$9*
0 Add four rect primitives between the rounded corners*
20,1,$1+$1,$2,$3,$4,$5,0*
20,1,$1+$1,$4,$5,$6,$7,0*
20,1,$1+$1,$6,$7,$8,$9,0*
20,1,$1+$1,$8,$9,$2,$3,0*%
G04 Aperture macros list end*
%ADD10C,0.150000*%
%ADD11C,0.050000*%
%ADD12C,0.227485*%
%ADD13C,0.120000*%
%ADD14C,0.200000*%
%ADD15C,0.152400*%
%ADD16R,0.792000X0.221000*%
%ADD17R,4.277000X1.810000*%
%ADD18R,4.277000X4.530000*%
%ADD19RoundRect,0.150000X-0.150000X0.825000X-0.150000X-0.825000X0.150000X-0.825000X0.150000X0.825000X0*%
%ADD20C,0.990600*%
%ADD21C,0.787400*%
%ADD22RoundRect,0.140000X0.140000X0.170000X-0.140000X0.170000X-0.140000X-0.170000X0.140000X-0.170000X0*%
%ADD23RoundRect,0.135000X0.185000X-0.135000X0.185000X0.135000X-0.185000X0.135000X-0.185000X-0.135000X0*%
%ADD24RoundRect,0.140000X0.170000X-0.140000X0.170000X0.140000X-0.170000X0.140000X-0.170000X-0.140000X0*%
%ADD25C,3.200000*%
%ADD26C,4.000000*%
%ADD27R,1.600200X1.168400*%
%ADD28R,1.100000X0.400000*%
%ADD29RoundRect,0.140000X-0.140000X-0.170000X0.140000X-0.170000X0.140000X0.170000X-0.140000X0.170000X0*%
%ADD30C,1.295400*%
%ADD31C,1.574800*%
%ADD32C,2.000000*%
%ADD33RoundRect,0.150000X0.587500X0.150000X-0.587500X0.150000X-0.587500X-0.150000X0.587500X-0.150000X0*%
%ADD34C,0.800000*%
%ADD35RoundRect,0.262500X-0.562500X-0.262500X0.562500X-0.262500X0.562500X0.262500X-0.562500X0.262500X0*%
%ADD36RoundRect,0.135000X0.135000X0.185000X-0.135000X0.185000X-0.135000X-0.185000X0.135000X-0.185000X0*%
%ADD37RoundRect,0.250000X0.550000X-1.500000X0.550000X1.500000X-0.550000X1.500000X-0.550000X-1.500000X0*%
%ADD38RoundRect,0.135000X-0.185000X0.135000X-0.185000X-0.135000X0.185000X-0.135000X0.185000X0.135000X0*%
%ADD39R,0.450000X0.700000*%
%ADD40C,1.000000*%
%ADD41RoundRect,0.140000X-0.170000X0.140000X-0.170000X-0.140000X0.170000X-0.140000X0.170000X0.140000X0*%
%ADD42R,0.711200X0.228600*%
%ADD43R,1.700000X1.700000*%
%ADD44O,1.700000X1.700000*%
%ADD45R,1.500000X0.900000*%
%ADD46R,0.900000X1.500000*%
%ADD47R,0.900000X0.900000*%
%ADD48RoundRect,0.150000X-0.150000X-0.700000X0.150000X-0.700000X0.150000X0.700000X-0.150000X0.700000X0*%
%ADD49RoundRect,0.250000X-0.250000X-1.150000X0.250000X-1.150000X0.250000X1.150000X-0.250000X1.150000X0*%
%ADD50C,0.650000*%
%ADD51R,0.600000X1.060000*%
%ADD52R,0.300000X1.150000*%
%ADD53O,1.000000X2.100000*%
%ADD54O,1.000000X1.800000*%
%ADD55RoundRect,0.250000X0.650000X-1.000000X0.650000X1.000000X-0.650000X1.000000X-0.650000X-1.000000X0*%
%ADD56C,0.400000*%
G04 APERTURE END LIST*
D10*
X73421541Y-173689819D02*
X74040588Y-173689819D01*
X74040588Y-173689819D02*
X73707255Y-174070771D01*
X73707255Y-174070771D02*
X73850112Y-174070771D01*
X73850112Y-174070771D02*
X73945350Y-174118390D01*
X73945350Y-174118390D02*
X73992969Y-174166009D01*
X73992969Y-174166009D02*
X74040588Y-174261247D01*
X74040588Y-174261247D02*
X74040588Y-174499342D01*
X74040588Y-174499342D02*
X73992969Y-174594580D01*
X73992969Y-174594580D02*
X73945350Y-174642200D01*
X73945350Y-174642200D02*
X73850112Y-174689819D01*
X73850112Y-174689819D02*
X73564398Y-174689819D01*
X73564398Y-174689819D02*
X73469160Y-174642200D01*
X73469160Y-174642200D02*
X73421541Y-174594580D01*
X74659636Y-173689819D02*
X74754874Y-173689819D01*
X74754874Y-173689819D02*
X74850112Y-173737438D01*
X74850112Y-173737438D02*
X74897731Y-173785057D01*
X74897731Y-173785057D02*
X74945350Y-173880295D01*
X74945350Y-173880295D02*
X74992969Y-174070771D01*
X74992969Y-174070771D02*
X74992969Y-174308866D01*
X74992969Y-174308866D02*
X74945350Y-174499342D01*
X74945350Y-174499342D02*
X74897731Y-174594580D01*
X74897731Y-174594580D02*
X74850112Y-174642200D01*
X74850112Y-174642200D02*
X74754874Y-174689819D01*
X74754874Y-174689819D02*
X74659636Y-174689819D01*
X74659636Y-174689819D02*
X74564398Y-174642200D01*
X74564398Y-174642200D02*
X74516779Y-174594580D01*
X74516779Y-174594580D02*
X74469160Y-174499342D01*
X74469160Y-174499342D02*
X74421541Y-174308866D01*
X74421541Y-174308866D02*
X74421541Y-174070771D01*
X74421541Y-174070771D02*
X74469160Y-173880295D01*
X74469160Y-173880295D02*
X74516779Y-173785057D01*
X74516779Y-173785057D02*
X74564398Y-173737438D01*
X74564398Y-173737438D02*
X74659636Y-173689819D01*
X75612017Y-173689819D02*
X75707255Y-173689819D01*
X75707255Y-173689819D02*
X75802493Y-173737438D01*
X75802493Y-173737438D02*
X75850112Y-173785057D01*
X75850112Y-173785057D02*
X75897731Y-173880295D01*
X75897731Y-173880295D02*
X75945350Y-174070771D01*
X75945350Y-174070771D02*
X75945350Y-174308866D01*
X75945350Y-174308866D02*
X75897731Y-174499342D01*
X75897731Y-174499342D02*
X75850112Y-174594580D01*
X75850112Y-174594580D02*
X75802493Y-174642200D01*
X75802493Y-174642200D02*
X75707255Y-174689819D01*
X75707255Y-174689819D02*
X75612017Y-174689819D01*
X75612017Y-174689819D02*
X75516779Y-174642200D01*
X75516779Y-174642200D02*
X75469160Y-174594580D01*
X75469160Y-174594580D02*
X75421541Y-174499342D01*
X75421541Y-174499342D02*
X75373922Y-174308866D01*
X75373922Y-174308866D02*
X75373922Y-174070771D01*
X75373922Y-174070771D02*
X75421541Y-173880295D01*
X75421541Y-173880295D02*
X75469160Y-173785057D01*
X75469160Y-173785057D02*
X75516779Y-173737438D01*
X75516779Y-173737438D02*
X75612017Y-173689819D01*
X106711905Y-120204819D02*
X106711905Y-121014342D01*
X106711905Y-121014342D02*
X106759524Y-121109580D01*
X106759524Y-121109580D02*
X106807143Y-121157200D01*
X106807143Y-121157200D02*
X106902381Y-121204819D01*
X106902381Y-121204819D02*
X107092857Y-121204819D01*
X107092857Y-121204819D02*
X107188095Y-121157200D01*
X107188095Y-121157200D02*
X107235714Y-121109580D01*
X107235714Y-121109580D02*
X107283333Y-121014342D01*
X107283333Y-121014342D02*
X107283333Y-120204819D01*
X108283333Y-121204819D02*
X107711905Y-121204819D01*
X107997619Y-121204819D02*
X107997619Y-120204819D01*
X107997619Y-120204819D02*
X107902381Y-120347676D01*
X107902381Y-120347676D02*
X107807143Y-120442914D01*
X107807143Y-120442914D02*
X107711905Y-120490533D01*
X108759524Y-121204819D02*
X108950000Y-121204819D01*
X108950000Y-121204819D02*
X109045238Y-121157200D01*
X109045238Y-121157200D02*
X109092857Y-121109580D01*
X109092857Y-121109580D02*
X109188095Y-120966723D01*
X109188095Y-120966723D02*
X109235714Y-120776247D01*
X109235714Y-120776247D02*
X109235714Y-120395295D01*
X109235714Y-120395295D02*
X109188095Y-120300057D01*
X109188095Y-120300057D02*
X109140476Y-120252438D01*
X109140476Y-120252438D02*
X109045238Y-120204819D01*
X109045238Y-120204819D02*
X108854762Y-120204819D01*
X108854762Y-120204819D02*
X108759524Y-120252438D01*
X108759524Y-120252438D02*
X108711905Y-120300057D01*
X108711905Y-120300057D02*
X108664286Y-120395295D01*
X108664286Y-120395295D02*
X108664286Y-120633390D01*
X108664286Y-120633390D02*
X108711905Y-120728628D01*
X108711905Y-120728628D02*
X108759524Y-120776247D01*
X108759524Y-120776247D02*
X108854762Y-120823866D01*
X108854762Y-120823866D02*
X109045238Y-120823866D01*
X109045238Y-120823866D02*
X109140476Y-120776247D01*
X109140476Y-120776247D02*
X109188095Y-120728628D01*
X109188095Y-120728628D02*
X109235714Y-120633390D01*
X73638095Y-62954819D02*
X73638095Y-63764342D01*
X73638095Y-63764342D02*
X73685714Y-63859580D01*
X73685714Y-63859580D02*
X73733333Y-63907200D01*
X73733333Y-63907200D02*
X73828571Y-63954819D01*
X73828571Y-63954819D02*
X74019047Y-63954819D01*
X74019047Y-63954819D02*
X74114285Y-63907200D01*
X74114285Y-63907200D02*
X74161904Y-63859580D01*
X74161904Y-63859580D02*
X74209523Y-63764342D01*
X74209523Y-63764342D02*
X74209523Y-62954819D01*
X74590476Y-62954819D02*
X75209523Y-62954819D01*
X75209523Y-62954819D02*
X74876190Y-63335771D01*
X74876190Y-63335771D02*
X75019047Y-63335771D01*
X75019047Y-63335771D02*
X75114285Y-63383390D01*
X75114285Y-63383390D02*
X75161904Y-63431009D01*
X75161904Y-63431009D02*
X75209523Y-63526247D01*
X75209523Y-63526247D02*
X75209523Y-63764342D01*
X75209523Y-63764342D02*
X75161904Y-63859580D01*
X75161904Y-63859580D02*
X75114285Y-63907200D01*
X75114285Y-63907200D02*
X75019047Y-63954819D01*
X75019047Y-63954819D02*
X74733333Y-63954819D01*
X74733333Y-63954819D02*
X74638095Y-63907200D01*
X74638095Y-63907200D02*
X74590476Y-63859580D01*
X124157142Y-79859580D02*
X124109523Y-79907200D01*
X124109523Y-79907200D02*
X123966666Y-79954819D01*
X123966666Y-79954819D02*
X123871428Y-79954819D01*
X123871428Y-79954819D02*
X123728571Y-79907200D01*
X123728571Y-79907200D02*
X123633333Y-79811961D01*
X123633333Y-79811961D02*
X123585714Y-79716723D01*
X123585714Y-79716723D02*
X123538095Y-79526247D01*
X123538095Y-79526247D02*
X123538095Y-79383390D01*
X123538095Y-79383390D02*
X123585714Y-79192914D01*
X123585714Y-79192914D02*
X123633333Y-79097676D01*
X123633333Y-79097676D02*
X123728571Y-79002438D01*
X123728571Y-79002438D02*
X123871428Y-78954819D01*
X123871428Y-78954819D02*
X123966666Y-78954819D01*
X123966666Y-78954819D02*
X124109523Y-79002438D01*
X124109523Y-79002438D02*
X124157142Y-79050057D01*
X124490476Y-78954819D02*
X125109523Y-78954819D01*
X125109523Y-78954819D02*
X124776190Y-79335771D01*
X124776190Y-79335771D02*
X124919047Y-79335771D01*
X124919047Y-79335771D02*
X125014285Y-79383390D01*
X125014285Y-79383390D02*
X125061904Y-79431009D01*
X125061904Y-79431009D02*
X125109523Y-79526247D01*
X125109523Y-79526247D02*
X125109523Y-79764342D01*
X125109523Y-79764342D02*
X125061904Y-79859580D01*
X125061904Y-79859580D02*
X125014285Y-79907200D01*
X125014285Y-79907200D02*
X124919047Y-79954819D01*
X124919047Y-79954819D02*
X124633333Y-79954819D01*
X124633333Y-79954819D02*
X124538095Y-79907200D01*
X124538095Y-79907200D02*
X124490476Y-79859580D01*
X125442857Y-78954819D02*
X126109523Y-78954819D01*
X126109523Y-78954819D02*
X125680952Y-79954819D01*
X76761905Y-120204819D02*
X76761905Y-121014342D01*
X76761905Y-121014342D02*
X76809524Y-121109580D01*
X76809524Y-121109580D02*
X76857143Y-121157200D01*
X76857143Y-121157200D02*
X76952381Y-121204819D01*
X76952381Y-121204819D02*
X77142857Y-121204819D01*
X77142857Y-121204819D02*
X77238095Y-121157200D01*
X77238095Y-121157200D02*
X77285714Y-121109580D01*
X77285714Y-121109580D02*
X77333333Y-121014342D01*
X77333333Y-121014342D02*
X77333333Y-120204819D01*
X77761905Y-120300057D02*
X77809524Y-120252438D01*
X77809524Y-120252438D02*
X77904762Y-120204819D01*
X77904762Y-120204819D02*
X78142857Y-120204819D01*
X78142857Y-120204819D02*
X78238095Y-120252438D01*
X78238095Y-120252438D02*
X78285714Y-120300057D01*
X78285714Y-120300057D02*
X78333333Y-120395295D01*
X78333333Y-120395295D02*
X78333333Y-120490533D01*
X78333333Y-120490533D02*
X78285714Y-120633390D01*
X78285714Y-120633390D02*
X77714286Y-121204819D01*
X77714286Y-121204819D02*
X78333333Y-121204819D01*
X78714286Y-120300057D02*
X78761905Y-120252438D01*
X78761905Y-120252438D02*
X78857143Y-120204819D01*
X78857143Y-120204819D02*
X79095238Y-120204819D01*
X79095238Y-120204819D02*
X79190476Y-120252438D01*
X79190476Y-120252438D02*
X79238095Y-120300057D01*
X79238095Y-120300057D02*
X79285714Y-120395295D01*
X79285714Y-120395295D02*
X79285714Y-120490533D01*
X79285714Y-120490533D02*
X79238095Y-120633390D01*
X79238095Y-120633390D02*
X78666667Y-121204819D01*
X78666667Y-121204819D02*
X79285714Y-121204819D01*
X83314819Y-53192857D02*
X82838628Y-53526190D01*
X83314819Y-53764285D02*
X82314819Y-53764285D01*
X82314819Y-53764285D02*
X82314819Y-53383333D01*
X82314819Y-53383333D02*
X82362438Y-53288095D01*
X82362438Y-53288095D02*
X82410057Y-53240476D01*
X82410057Y-53240476D02*
X82505295Y-53192857D01*
X82505295Y-53192857D02*
X82648152Y-53192857D01*
X82648152Y-53192857D02*
X82743390Y-53240476D01*
X82743390Y-53240476D02*
X82791009Y-53288095D01*
X82791009Y-53288095D02*
X82838628Y-53383333D01*
X82838628Y-53383333D02*
X82838628Y-53764285D01*
X83314819Y-52240476D02*
X83314819Y-52811904D01*
X83314819Y-52526190D02*
X82314819Y-52526190D01*
X82314819Y-52526190D02*
X82457676Y-52621428D01*
X82457676Y-52621428D02*
X82552914Y-52716666D01*
X82552914Y-52716666D02*
X82600533Y-52811904D01*
X82314819Y-51907142D02*
X82314819Y-51288095D01*
X82314819Y-51288095D02*
X82695771Y-51621428D01*
X82695771Y-51621428D02*
X82695771Y-51478571D01*
X82695771Y-51478571D02*
X82743390Y-51383333D01*
X82743390Y-51383333D02*
X82791009Y-51335714D01*
X82791009Y-51335714D02*
X82886247Y-51288095D01*
X82886247Y-51288095D02*
X83124342Y-51288095D01*
X83124342Y-51288095D02*
X83219580Y-51335714D01*
X83219580Y-51335714D02*
X83267200Y-51383333D01*
X83267200Y-51383333D02*
X83314819Y-51478571D01*
X83314819Y-51478571D02*
X83314819Y-51764285D01*
X83314819Y-51764285D02*
X83267200Y-51859523D01*
X83267200Y-51859523D02*
X83219580Y-51907142D01*
X85569580Y-53142857D02*
X85617200Y-53190476D01*
X85617200Y-53190476D02*
X85664819Y-53333333D01*
X85664819Y-53333333D02*
X85664819Y-53428571D01*
X85664819Y-53428571D02*
X85617200Y-53571428D01*
X85617200Y-53571428D02*
X85521961Y-53666666D01*
X85521961Y-53666666D02*
X85426723Y-53714285D01*
X85426723Y-53714285D02*
X85236247Y-53761904D01*
X85236247Y-53761904D02*
X85093390Y-53761904D01*
X85093390Y-53761904D02*
X84902914Y-53714285D01*
X84902914Y-53714285D02*
X84807676Y-53666666D01*
X84807676Y-53666666D02*
X84712438Y-53571428D01*
X84712438Y-53571428D02*
X84664819Y-53428571D01*
X84664819Y-53428571D02*
X84664819Y-53333333D01*
X84664819Y-53333333D02*
X84712438Y-53190476D01*
X84712438Y-53190476D02*
X84760057Y-53142857D01*
X84664819Y-52809523D02*
X84664819Y-52190476D01*
X84664819Y-52190476D02*
X85045771Y-52523809D01*
X85045771Y-52523809D02*
X85045771Y-52380952D01*
X85045771Y-52380952D02*
X85093390Y-52285714D01*
X85093390Y-52285714D02*
X85141009Y-52238095D01*
X85141009Y-52238095D02*
X85236247Y-52190476D01*
X85236247Y-52190476D02*
X85474342Y-52190476D01*
X85474342Y-52190476D02*
X85569580Y-52238095D01*
X85569580Y-52238095D02*
X85617200Y-52285714D01*
X85617200Y-52285714D02*
X85664819Y-52380952D01*
X85664819Y-52380952D02*
X85664819Y-52666666D01*
X85664819Y-52666666D02*
X85617200Y-52761904D01*
X85617200Y-52761904D02*
X85569580Y-52809523D01*
X84760057Y-51809523D02*
X84712438Y-51761904D01*
X84712438Y-51761904D02*
X84664819Y-51666666D01*
X84664819Y-51666666D02*
X84664819Y-51428571D01*
X84664819Y-51428571D02*
X84712438Y-51333333D01*
X84712438Y-51333333D02*
X84760057Y-51285714D01*
X84760057Y-51285714D02*
X84855295Y-51238095D01*
X84855295Y-51238095D02*
X84950533Y-51238095D01*
X84950533Y-51238095D02*
X85093390Y-51285714D01*
X85093390Y-51285714D02*
X85664819Y-51857142D01*
X85664819Y-51857142D02*
X85664819Y-51238095D01*
X101023809Y-61178628D02*
X101023809Y-61654819D01*
X100690476Y-60654819D02*
X101023809Y-61178628D01*
X101023809Y-61178628D02*
X101357142Y-60654819D01*
X102214285Y-61654819D02*
X101642857Y-61654819D01*
X101928571Y-61654819D02*
X101928571Y-60654819D01*
X101928571Y-60654819D02*
X101833333Y-60797676D01*
X101833333Y-60797676D02*
X101738095Y-60892914D01*
X101738095Y-60892914D02*
X101642857Y-60940533D01*
X59988095Y-64114819D02*
X59988095Y-64924342D01*
X59988095Y-64924342D02*
X60035714Y-65019580D01*
X60035714Y-65019580D02*
X60083333Y-65067200D01*
X60083333Y-65067200D02*
X60178571Y-65114819D01*
X60178571Y-65114819D02*
X60369047Y-65114819D01*
X60369047Y-65114819D02*
X60464285Y-65067200D01*
X60464285Y-65067200D02*
X60511904Y-65019580D01*
X60511904Y-65019580D02*
X60559523Y-64924342D01*
X60559523Y-64924342D02*
X60559523Y-64114819D01*
X61464285Y-64114819D02*
X61273809Y-64114819D01*
X61273809Y-64114819D02*
X61178571Y-64162438D01*
X61178571Y-64162438D02*
X61130952Y-64210057D01*
X61130952Y-64210057D02*
X61035714Y-64352914D01*
X61035714Y-64352914D02*
X60988095Y-64543390D01*
X60988095Y-64543390D02*
X60988095Y-64924342D01*
X60988095Y-64924342D02*
X61035714Y-65019580D01*
X61035714Y-65019580D02*
X61083333Y-65067200D01*
X61083333Y-65067200D02*
X61178571Y-65114819D01*
X61178571Y-65114819D02*
X61369047Y-65114819D01*
X61369047Y-65114819D02*
X61464285Y-65067200D01*
X61464285Y-65067200D02*
X61511904Y-65019580D01*
X61511904Y-65019580D02*
X61559523Y-64924342D01*
X61559523Y-64924342D02*
X61559523Y-64686247D01*
X61559523Y-64686247D02*
X61511904Y-64591009D01*
X61511904Y-64591009D02*
X61464285Y-64543390D01*
X61464285Y-64543390D02*
X61369047Y-64495771D01*
X61369047Y-64495771D02*
X61178571Y-64495771D01*
X61178571Y-64495771D02*
X61083333Y-64543390D01*
X61083333Y-64543390D02*
X61035714Y-64591009D01*
X61035714Y-64591009D02*
X60988095Y-64686247D01*
X82227142Y-79359580D02*
X82179523Y-79407200D01*
X82179523Y-79407200D02*
X82036666Y-79454819D01*
X82036666Y-79454819D02*
X81941428Y-79454819D01*
X81941428Y-79454819D02*
X81798571Y-79407200D01*
X81798571Y-79407200D02*
X81703333Y-79311961D01*
X81703333Y-79311961D02*
X81655714Y-79216723D01*
X81655714Y-79216723D02*
X81608095Y-79026247D01*
X81608095Y-79026247D02*
X81608095Y-78883390D01*
X81608095Y-78883390D02*
X81655714Y-78692914D01*
X81655714Y-78692914D02*
X81703333Y-78597676D01*
X81703333Y-78597676D02*
X81798571Y-78502438D01*
X81798571Y-78502438D02*
X81941428Y-78454819D01*
X81941428Y-78454819D02*
X82036666Y-78454819D01*
X82036666Y-78454819D02*
X82179523Y-78502438D01*
X82179523Y-78502438D02*
X82227142Y-78550057D01*
X82608095Y-78550057D02*
X82655714Y-78502438D01*
X82655714Y-78502438D02*
X82750952Y-78454819D01*
X82750952Y-78454819D02*
X82989047Y-78454819D01*
X82989047Y-78454819D02*
X83084285Y-78502438D01*
X83084285Y-78502438D02*
X83131904Y-78550057D01*
X83131904Y-78550057D02*
X83179523Y-78645295D01*
X83179523Y-78645295D02*
X83179523Y-78740533D01*
X83179523Y-78740533D02*
X83131904Y-78883390D01*
X83131904Y-78883390D02*
X82560476Y-79454819D01*
X82560476Y-79454819D02*
X83179523Y-79454819D01*
X83750952Y-78883390D02*
X83655714Y-78835771D01*
X83655714Y-78835771D02*
X83608095Y-78788152D01*
X83608095Y-78788152D02*
X83560476Y-78692914D01*
X83560476Y-78692914D02*
X83560476Y-78645295D01*
X83560476Y-78645295D02*
X83608095Y-78550057D01*
X83608095Y-78550057D02*
X83655714Y-78502438D01*
X83655714Y-78502438D02*
X83750952Y-78454819D01*
X83750952Y-78454819D02*
X83941428Y-78454819D01*
X83941428Y-78454819D02*
X84036666Y-78502438D01*
X84036666Y-78502438D02*
X84084285Y-78550057D01*
X84084285Y-78550057D02*
X84131904Y-78645295D01*
X84131904Y-78645295D02*
X84131904Y-78692914D01*
X84131904Y-78692914D02*
X84084285Y-78788152D01*
X84084285Y-78788152D02*
X84036666Y-78835771D01*
X84036666Y-78835771D02*
X83941428Y-78883390D01*
X83941428Y-78883390D02*
X83750952Y-78883390D01*
X83750952Y-78883390D02*
X83655714Y-78931009D01*
X83655714Y-78931009D02*
X83608095Y-78978628D01*
X83608095Y-78978628D02*
X83560476Y-79073866D01*
X83560476Y-79073866D02*
X83560476Y-79264342D01*
X83560476Y-79264342D02*
X83608095Y-79359580D01*
X83608095Y-79359580D02*
X83655714Y-79407200D01*
X83655714Y-79407200D02*
X83750952Y-79454819D01*
X83750952Y-79454819D02*
X83941428Y-79454819D01*
X83941428Y-79454819D02*
X84036666Y-79407200D01*
X84036666Y-79407200D02*
X84084285Y-79359580D01*
X84084285Y-79359580D02*
X84131904Y-79264342D01*
X84131904Y-79264342D02*
X84131904Y-79073866D01*
X84131904Y-79073866D02*
X84084285Y-78978628D01*
X84084285Y-78978628D02*
X84036666Y-78931009D01*
X84036666Y-78931009D02*
X83941428Y-78883390D01*
X118766666Y-78754819D02*
X118766666Y-79469104D01*
X118766666Y-79469104D02*
X118719047Y-79611961D01*
X118719047Y-79611961D02*
X118623809Y-79707200D01*
X118623809Y-79707200D02*
X118480952Y-79754819D01*
X118480952Y-79754819D02*
X118385714Y-79754819D01*
X119671428Y-78754819D02*
X119480952Y-78754819D01*
X119480952Y-78754819D02*
X119385714Y-78802438D01*
X119385714Y-78802438D02*
X119338095Y-78850057D01*
X119338095Y-78850057D02*
X119242857Y-78992914D01*
X119242857Y-78992914D02*
X119195238Y-79183390D01*
X119195238Y-79183390D02*
X119195238Y-79564342D01*
X119195238Y-79564342D02*
X119242857Y-79659580D01*
X119242857Y-79659580D02*
X119290476Y-79707200D01*
X119290476Y-79707200D02*
X119385714Y-79754819D01*
X119385714Y-79754819D02*
X119576190Y-79754819D01*
X119576190Y-79754819D02*
X119671428Y-79707200D01*
X119671428Y-79707200D02*
X119719047Y-79659580D01*
X119719047Y-79659580D02*
X119766666Y-79564342D01*
X119766666Y-79564342D02*
X119766666Y-79326247D01*
X119766666Y-79326247D02*
X119719047Y-79231009D01*
X119719047Y-79231009D02*
X119671428Y-79183390D01*
X119671428Y-79183390D02*
X119576190Y-79135771D01*
X119576190Y-79135771D02*
X119385714Y-79135771D01*
X119385714Y-79135771D02*
X119290476Y-79183390D01*
X119290476Y-79183390D02*
X119242857Y-79231009D01*
X119242857Y-79231009D02*
X119195238Y-79326247D01*
X125157142Y-68454819D02*
X124823809Y-67978628D01*
X124585714Y-68454819D02*
X124585714Y-67454819D01*
X124585714Y-67454819D02*
X124966666Y-67454819D01*
X124966666Y-67454819D02*
X125061904Y-67502438D01*
X125061904Y-67502438D02*
X125109523Y-67550057D01*
X125109523Y-67550057D02*
X125157142Y-67645295D01*
X125157142Y-67645295D02*
X125157142Y-67788152D01*
X125157142Y-67788152D02*
X125109523Y-67883390D01*
X125109523Y-67883390D02*
X125061904Y-67931009D01*
X125061904Y-67931009D02*
X124966666Y-67978628D01*
X124966666Y-67978628D02*
X124585714Y-67978628D01*
X125538095Y-67550057D02*
X125585714Y-67502438D01*
X125585714Y-67502438D02*
X125680952Y-67454819D01*
X125680952Y-67454819D02*
X125919047Y-67454819D01*
X125919047Y-67454819D02*
X126014285Y-67502438D01*
X126014285Y-67502438D02*
X126061904Y-67550057D01*
X126061904Y-67550057D02*
X126109523Y-67645295D01*
X126109523Y-67645295D02*
X126109523Y-67740533D01*
X126109523Y-67740533D02*
X126061904Y-67883390D01*
X126061904Y-67883390D02*
X125490476Y-68454819D01*
X125490476Y-68454819D02*
X126109523Y-68454819D01*
X127061904Y-68454819D02*
X126490476Y-68454819D01*
X126776190Y-68454819D02*
X126776190Y-67454819D01*
X126776190Y-67454819D02*
X126680952Y-67597676D01*
X126680952Y-67597676D02*
X126585714Y-67692914D01*
X126585714Y-67692914D02*
X126490476Y-67740533D01*
X84367261Y-61750057D02*
X84272023Y-61702438D01*
X84272023Y-61702438D02*
X84176785Y-61607200D01*
X84176785Y-61607200D02*
X84033928Y-61464342D01*
X84033928Y-61464342D02*
X83938690Y-61416723D01*
X83938690Y-61416723D02*
X83843452Y-61416723D01*
X83891071Y-61654819D02*
X83795833Y-61607200D01*
X83795833Y-61607200D02*
X83700595Y-61511961D01*
X83700595Y-61511961D02*
X83652976Y-61321485D01*
X83652976Y-61321485D02*
X83652976Y-60988152D01*
X83652976Y-60988152D02*
X83700595Y-60797676D01*
X83700595Y-60797676D02*
X83795833Y-60702438D01*
X83795833Y-60702438D02*
X83891071Y-60654819D01*
X83891071Y-60654819D02*
X84081547Y-60654819D01*
X84081547Y-60654819D02*
X84176785Y-60702438D01*
X84176785Y-60702438D02*
X84272023Y-60797676D01*
X84272023Y-60797676D02*
X84319642Y-60988152D01*
X84319642Y-60988152D02*
X84319642Y-61321485D01*
X84319642Y-61321485D02*
X84272023Y-61511961D01*
X84272023Y-61511961D02*
X84176785Y-61607200D01*
X84176785Y-61607200D02*
X84081547Y-61654819D01*
X84081547Y-61654819D02*
X83891071Y-61654819D01*
X85224404Y-60654819D02*
X84748214Y-60654819D01*
X84748214Y-60654819D02*
X84700595Y-61131009D01*
X84700595Y-61131009D02*
X84748214Y-61083390D01*
X84748214Y-61083390D02*
X84843452Y-61035771D01*
X84843452Y-61035771D02*
X85081547Y-61035771D01*
X85081547Y-61035771D02*
X85176785Y-61083390D01*
X85176785Y-61083390D02*
X85224404Y-61131009D01*
X85224404Y-61131009D02*
X85272023Y-61226247D01*
X85272023Y-61226247D02*
X85272023Y-61464342D01*
X85272023Y-61464342D02*
X85224404Y-61559580D01*
X85224404Y-61559580D02*
X85176785Y-61607200D01*
X85176785Y-61607200D02*
X85081547Y-61654819D01*
X85081547Y-61654819D02*
X84843452Y-61654819D01*
X84843452Y-61654819D02*
X84748214Y-61607200D01*
X84748214Y-61607200D02*
X84700595Y-61559580D01*
X81133333Y-58359580D02*
X81085714Y-58407200D01*
X81085714Y-58407200D02*
X80942857Y-58454819D01*
X80942857Y-58454819D02*
X80847619Y-58454819D01*
X80847619Y-58454819D02*
X80704762Y-58407200D01*
X80704762Y-58407200D02*
X80609524Y-58311961D01*
X80609524Y-58311961D02*
X80561905Y-58216723D01*
X80561905Y-58216723D02*
X80514286Y-58026247D01*
X80514286Y-58026247D02*
X80514286Y-57883390D01*
X80514286Y-57883390D02*
X80561905Y-57692914D01*
X80561905Y-57692914D02*
X80609524Y-57597676D01*
X80609524Y-57597676D02*
X80704762Y-57502438D01*
X80704762Y-57502438D02*
X80847619Y-57454819D01*
X80847619Y-57454819D02*
X80942857Y-57454819D01*
X80942857Y-57454819D02*
X81085714Y-57502438D01*
X81085714Y-57502438D02*
X81133333Y-57550057D01*
X81990476Y-57788152D02*
X81990476Y-58454819D01*
X81752381Y-57407200D02*
X81514286Y-58121485D01*
X81514286Y-58121485D02*
X82133333Y-58121485D01*
X95817142Y-57059580D02*
X95769523Y-57107200D01*
X95769523Y-57107200D02*
X95626666Y-57154819D01*
X95626666Y-57154819D02*
X95531428Y-57154819D01*
X95531428Y-57154819D02*
X95388571Y-57107200D01*
X95388571Y-57107200D02*
X95293333Y-57011961D01*
X95293333Y-57011961D02*
X95245714Y-56916723D01*
X95245714Y-56916723D02*
X95198095Y-56726247D01*
X95198095Y-56726247D02*
X95198095Y-56583390D01*
X95198095Y-56583390D02*
X95245714Y-56392914D01*
X95245714Y-56392914D02*
X95293333Y-56297676D01*
X95293333Y-56297676D02*
X95388571Y-56202438D01*
X95388571Y-56202438D02*
X95531428Y-56154819D01*
X95531428Y-56154819D02*
X95626666Y-56154819D01*
X95626666Y-56154819D02*
X95769523Y-56202438D01*
X95769523Y-56202438D02*
X95817142Y-56250057D01*
X96198095Y-56250057D02*
X96245714Y-56202438D01*
X96245714Y-56202438D02*
X96340952Y-56154819D01*
X96340952Y-56154819D02*
X96579047Y-56154819D01*
X96579047Y-56154819D02*
X96674285Y-56202438D01*
X96674285Y-56202438D02*
X96721904Y-56250057D01*
X96721904Y-56250057D02*
X96769523Y-56345295D01*
X96769523Y-56345295D02*
X96769523Y-56440533D01*
X96769523Y-56440533D02*
X96721904Y-56583390D01*
X96721904Y-56583390D02*
X96150476Y-57154819D01*
X96150476Y-57154819D02*
X96769523Y-57154819D01*
X97245714Y-57154819D02*
X97436190Y-57154819D01*
X97436190Y-57154819D02*
X97531428Y-57107200D01*
X97531428Y-57107200D02*
X97579047Y-57059580D01*
X97579047Y-57059580D02*
X97674285Y-56916723D01*
X97674285Y-56916723D02*
X97721904Y-56726247D01*
X97721904Y-56726247D02*
X97721904Y-56345295D01*
X97721904Y-56345295D02*
X97674285Y-56250057D01*
X97674285Y-56250057D02*
X97626666Y-56202438D01*
X97626666Y-56202438D02*
X97531428Y-56154819D01*
X97531428Y-56154819D02*
X97340952Y-56154819D01*
X97340952Y-56154819D02*
X97245714Y-56202438D01*
X97245714Y-56202438D02*
X97198095Y-56250057D01*
X97198095Y-56250057D02*
X97150476Y-56345295D01*
X97150476Y-56345295D02*
X97150476Y-56583390D01*
X97150476Y-56583390D02*
X97198095Y-56678628D01*
X97198095Y-56678628D02*
X97245714Y-56726247D01*
X97245714Y-56726247D02*
X97340952Y-56773866D01*
X97340952Y-56773866D02*
X97531428Y-56773866D01*
X97531428Y-56773866D02*
X97626666Y-56726247D01*
X97626666Y-56726247D02*
X97674285Y-56678628D01*
X97674285Y-56678628D02*
X97721904Y-56583390D01*
X76761905Y-148204819D02*
X76761905Y-149014342D01*
X76761905Y-149014342D02*
X76809524Y-149109580D01*
X76809524Y-149109580D02*
X76857143Y-149157200D01*
X76857143Y-149157200D02*
X76952381Y-149204819D01*
X76952381Y-149204819D02*
X77142857Y-149204819D01*
X77142857Y-149204819D02*
X77238095Y-149157200D01*
X77238095Y-149157200D02*
X77285714Y-149109580D01*
X77285714Y-149109580D02*
X77333333Y-149014342D01*
X77333333Y-149014342D02*
X77333333Y-148204819D01*
X77761905Y-148300057D02*
X77809524Y-148252438D01*
X77809524Y-148252438D02*
X77904762Y-148204819D01*
X77904762Y-148204819D02*
X78142857Y-148204819D01*
X78142857Y-148204819D02*
X78238095Y-148252438D01*
X78238095Y-148252438D02*
X78285714Y-148300057D01*
X78285714Y-148300057D02*
X78333333Y-148395295D01*
X78333333Y-148395295D02*
X78333333Y-148490533D01*
X78333333Y-148490533D02*
X78285714Y-148633390D01*
X78285714Y-148633390D02*
X77714286Y-149204819D01*
X77714286Y-149204819D02*
X78333333Y-149204819D01*
X78666667Y-148204819D02*
X79333333Y-148204819D01*
X79333333Y-148204819D02*
X78904762Y-149204819D01*
X88157142Y-66854819D02*
X87823809Y-66378628D01*
X87585714Y-66854819D02*
X87585714Y-65854819D01*
X87585714Y-65854819D02*
X87966666Y-65854819D01*
X87966666Y-65854819D02*
X88061904Y-65902438D01*
X88061904Y-65902438D02*
X88109523Y-65950057D01*
X88109523Y-65950057D02*
X88157142Y-66045295D01*
X88157142Y-66045295D02*
X88157142Y-66188152D01*
X88157142Y-66188152D02*
X88109523Y-66283390D01*
X88109523Y-66283390D02*
X88061904Y-66331009D01*
X88061904Y-66331009D02*
X87966666Y-66378628D01*
X87966666Y-66378628D02*
X87585714Y-66378628D01*
X89109523Y-66854819D02*
X88538095Y-66854819D01*
X88823809Y-66854819D02*
X88823809Y-65854819D01*
X88823809Y-65854819D02*
X88728571Y-65997676D01*
X88728571Y-65997676D02*
X88633333Y-66092914D01*
X88633333Y-66092914D02*
X88538095Y-66140533D01*
X89966666Y-65854819D02*
X89776190Y-65854819D01*
X89776190Y-65854819D02*
X89680952Y-65902438D01*
X89680952Y-65902438D02*
X89633333Y-65950057D01*
X89633333Y-65950057D02*
X89538095Y-66092914D01*
X89538095Y-66092914D02*
X89490476Y-66283390D01*
X89490476Y-66283390D02*
X89490476Y-66664342D01*
X89490476Y-66664342D02*
X89538095Y-66759580D01*
X89538095Y-66759580D02*
X89585714Y-66807200D01*
X89585714Y-66807200D02*
X89680952Y-66854819D01*
X89680952Y-66854819D02*
X89871428Y-66854819D01*
X89871428Y-66854819D02*
X89966666Y-66807200D01*
X89966666Y-66807200D02*
X90014285Y-66759580D01*
X90014285Y-66759580D02*
X90061904Y-66664342D01*
X90061904Y-66664342D02*
X90061904Y-66426247D01*
X90061904Y-66426247D02*
X90014285Y-66331009D01*
X90014285Y-66331009D02*
X89966666Y-66283390D01*
X89966666Y-66283390D02*
X89871428Y-66235771D01*
X89871428Y-66235771D02*
X89680952Y-66235771D01*
X89680952Y-66235771D02*
X89585714Y-66283390D01*
X89585714Y-66283390D02*
X89538095Y-66331009D01*
X89538095Y-66331009D02*
X89490476Y-66426247D01*
X101666666Y-78854819D02*
X101666666Y-79569104D01*
X101666666Y-79569104D02*
X101619047Y-79711961D01*
X101619047Y-79711961D02*
X101523809Y-79807200D01*
X101523809Y-79807200D02*
X101380952Y-79854819D01*
X101380952Y-79854819D02*
X101285714Y-79854819D01*
X102619047Y-78854819D02*
X102142857Y-78854819D01*
X102142857Y-78854819D02*
X102095238Y-79331009D01*
X102095238Y-79331009D02*
X102142857Y-79283390D01*
X102142857Y-79283390D02*
X102238095Y-79235771D01*
X102238095Y-79235771D02*
X102476190Y-79235771D01*
X102476190Y-79235771D02*
X102571428Y-79283390D01*
X102571428Y-79283390D02*
X102619047Y-79331009D01*
X102619047Y-79331009D02*
X102666666Y-79426247D01*
X102666666Y-79426247D02*
X102666666Y-79664342D01*
X102666666Y-79664342D02*
X102619047Y-79759580D01*
X102619047Y-79759580D02*
X102571428Y-79807200D01*
X102571428Y-79807200D02*
X102476190Y-79854819D01*
X102476190Y-79854819D02*
X102238095Y-79854819D01*
X102238095Y-79854819D02*
X102142857Y-79807200D01*
X102142857Y-79807200D02*
X102095238Y-79759580D01*
X113137142Y-77499580D02*
X113089523Y-77547200D01*
X113089523Y-77547200D02*
X112946666Y-77594819D01*
X112946666Y-77594819D02*
X112851428Y-77594819D01*
X112851428Y-77594819D02*
X112708571Y-77547200D01*
X112708571Y-77547200D02*
X112613333Y-77451961D01*
X112613333Y-77451961D02*
X112565714Y-77356723D01*
X112565714Y-77356723D02*
X112518095Y-77166247D01*
X112518095Y-77166247D02*
X112518095Y-77023390D01*
X112518095Y-77023390D02*
X112565714Y-76832914D01*
X112565714Y-76832914D02*
X112613333Y-76737676D01*
X112613333Y-76737676D02*
X112708571Y-76642438D01*
X112708571Y-76642438D02*
X112851428Y-76594819D01*
X112851428Y-76594819D02*
X112946666Y-76594819D01*
X112946666Y-76594819D02*
X113089523Y-76642438D01*
X113089523Y-76642438D02*
X113137142Y-76690057D01*
X113470476Y-76594819D02*
X114089523Y-76594819D01*
X114089523Y-76594819D02*
X113756190Y-76975771D01*
X113756190Y-76975771D02*
X113899047Y-76975771D01*
X113899047Y-76975771D02*
X113994285Y-77023390D01*
X113994285Y-77023390D02*
X114041904Y-77071009D01*
X114041904Y-77071009D02*
X114089523Y-77166247D01*
X114089523Y-77166247D02*
X114089523Y-77404342D01*
X114089523Y-77404342D02*
X114041904Y-77499580D01*
X114041904Y-77499580D02*
X113994285Y-77547200D01*
X113994285Y-77547200D02*
X113899047Y-77594819D01*
X113899047Y-77594819D02*
X113613333Y-77594819D01*
X113613333Y-77594819D02*
X113518095Y-77547200D01*
X113518095Y-77547200D02*
X113470476Y-77499580D01*
X114946666Y-76928152D02*
X114946666Y-77594819D01*
X114708571Y-76547200D02*
X114470476Y-77261485D01*
X114470476Y-77261485D02*
X115089523Y-77261485D01*
X88157142Y-174659580D02*
X88109523Y-174707200D01*
X88109523Y-174707200D02*
X87966666Y-174754819D01*
X87966666Y-174754819D02*
X87871428Y-174754819D01*
X87871428Y-174754819D02*
X87728571Y-174707200D01*
X87728571Y-174707200D02*
X87633333Y-174611961D01*
X87633333Y-174611961D02*
X87585714Y-174516723D01*
X87585714Y-174516723D02*
X87538095Y-174326247D01*
X87538095Y-174326247D02*
X87538095Y-174183390D01*
X87538095Y-174183390D02*
X87585714Y-173992914D01*
X87585714Y-173992914D02*
X87633333Y-173897676D01*
X87633333Y-173897676D02*
X87728571Y-173802438D01*
X87728571Y-173802438D02*
X87871428Y-173754819D01*
X87871428Y-173754819D02*
X87966666Y-173754819D01*
X87966666Y-173754819D02*
X88109523Y-173802438D01*
X88109523Y-173802438D02*
X88157142Y-173850057D01*
X88490476Y-173754819D02*
X89109523Y-173754819D01*
X89109523Y-173754819D02*
X88776190Y-174135771D01*
X88776190Y-174135771D02*
X88919047Y-174135771D01*
X88919047Y-174135771D02*
X89014285Y-174183390D01*
X89014285Y-174183390D02*
X89061904Y-174231009D01*
X89061904Y-174231009D02*
X89109523Y-174326247D01*
X89109523Y-174326247D02*
X89109523Y-174564342D01*
X89109523Y-174564342D02*
X89061904Y-174659580D01*
X89061904Y-174659580D02*
X89014285Y-174707200D01*
X89014285Y-174707200D02*
X88919047Y-174754819D01*
X88919047Y-174754819D02*
X88633333Y-174754819D01*
X88633333Y-174754819D02*
X88538095Y-174707200D01*
X88538095Y-174707200D02*
X88490476Y-174659580D01*
X89442857Y-173754819D02*
X90061904Y-173754819D01*
X90061904Y-173754819D02*
X89728571Y-174135771D01*
X89728571Y-174135771D02*
X89871428Y-174135771D01*
X89871428Y-174135771D02*
X89966666Y-174183390D01*
X89966666Y-174183390D02*
X90014285Y-174231009D01*
X90014285Y-174231009D02*
X90061904Y-174326247D01*
X90061904Y-174326247D02*
X90061904Y-174564342D01*
X90061904Y-174564342D02*
X90014285Y-174659580D01*
X90014285Y-174659580D02*
X89966666Y-174707200D01*
X89966666Y-174707200D02*
X89871428Y-174754819D01*
X89871428Y-174754819D02*
X89585714Y-174754819D01*
X89585714Y-174754819D02*
X89490476Y-174707200D01*
X89490476Y-174707200D02*
X89442857Y-174659580D01*
X106761905Y-148204819D02*
X106761905Y-149014342D01*
X106761905Y-149014342D02*
X106809524Y-149109580D01*
X106809524Y-149109580D02*
X106857143Y-149157200D01*
X106857143Y-149157200D02*
X106952381Y-149204819D01*
X106952381Y-149204819D02*
X107142857Y-149204819D01*
X107142857Y-149204819D02*
X107238095Y-149157200D01*
X107238095Y-149157200D02*
X107285714Y-149109580D01*
X107285714Y-149109580D02*
X107333333Y-149014342D01*
X107333333Y-149014342D02*
X107333333Y-148204819D01*
X107761905Y-148300057D02*
X107809524Y-148252438D01*
X107809524Y-148252438D02*
X107904762Y-148204819D01*
X107904762Y-148204819D02*
X108142857Y-148204819D01*
X108142857Y-148204819D02*
X108238095Y-148252438D01*
X108238095Y-148252438D02*
X108285714Y-148300057D01*
X108285714Y-148300057D02*
X108333333Y-148395295D01*
X108333333Y-148395295D02*
X108333333Y-148490533D01*
X108333333Y-148490533D02*
X108285714Y-148633390D01*
X108285714Y-148633390D02*
X107714286Y-149204819D01*
X107714286Y-149204819D02*
X108333333Y-149204819D01*
X109190476Y-148538152D02*
X109190476Y-149204819D01*
X108952381Y-148157200D02*
X108714286Y-148871485D01*
X108714286Y-148871485D02*
X109333333Y-148871485D01*
X56357142Y-66359580D02*
X56309523Y-66407200D01*
X56309523Y-66407200D02*
X56166666Y-66454819D01*
X56166666Y-66454819D02*
X56071428Y-66454819D01*
X56071428Y-66454819D02*
X55928571Y-66407200D01*
X55928571Y-66407200D02*
X55833333Y-66311961D01*
X55833333Y-66311961D02*
X55785714Y-66216723D01*
X55785714Y-66216723D02*
X55738095Y-66026247D01*
X55738095Y-66026247D02*
X55738095Y-65883390D01*
X55738095Y-65883390D02*
X55785714Y-65692914D01*
X55785714Y-65692914D02*
X55833333Y-65597676D01*
X55833333Y-65597676D02*
X55928571Y-65502438D01*
X55928571Y-65502438D02*
X56071428Y-65454819D01*
X56071428Y-65454819D02*
X56166666Y-65454819D01*
X56166666Y-65454819D02*
X56309523Y-65502438D01*
X56309523Y-65502438D02*
X56357142Y-65550057D01*
X57309523Y-66454819D02*
X56738095Y-66454819D01*
X57023809Y-66454819D02*
X57023809Y-65454819D01*
X57023809Y-65454819D02*
X56928571Y-65597676D01*
X56928571Y-65597676D02*
X56833333Y-65692914D01*
X56833333Y-65692914D02*
X56738095Y-65740533D01*
X57880952Y-65883390D02*
X57785714Y-65835771D01*
X57785714Y-65835771D02*
X57738095Y-65788152D01*
X57738095Y-65788152D02*
X57690476Y-65692914D01*
X57690476Y-65692914D02*
X57690476Y-65645295D01*
X57690476Y-65645295D02*
X57738095Y-65550057D01*
X57738095Y-65550057D02*
X57785714Y-65502438D01*
X57785714Y-65502438D02*
X57880952Y-65454819D01*
X57880952Y-65454819D02*
X58071428Y-65454819D01*
X58071428Y-65454819D02*
X58166666Y-65502438D01*
X58166666Y-65502438D02*
X58214285Y-65550057D01*
X58214285Y-65550057D02*
X58261904Y-65645295D01*
X58261904Y-65645295D02*
X58261904Y-65692914D01*
X58261904Y-65692914D02*
X58214285Y-65788152D01*
X58214285Y-65788152D02*
X58166666Y-65835771D01*
X58166666Y-65835771D02*
X58071428Y-65883390D01*
X58071428Y-65883390D02*
X57880952Y-65883390D01*
X57880952Y-65883390D02*
X57785714Y-65931009D01*
X57785714Y-65931009D02*
X57738095Y-65978628D01*
X57738095Y-65978628D02*
X57690476Y-66073866D01*
X57690476Y-66073866D02*
X57690476Y-66264342D01*
X57690476Y-66264342D02*
X57738095Y-66359580D01*
X57738095Y-66359580D02*
X57785714Y-66407200D01*
X57785714Y-66407200D02*
X57880952Y-66454819D01*
X57880952Y-66454819D02*
X58071428Y-66454819D01*
X58071428Y-66454819D02*
X58166666Y-66407200D01*
X58166666Y-66407200D02*
X58214285Y-66359580D01*
X58214285Y-66359580D02*
X58261904Y-66264342D01*
X58261904Y-66264342D02*
X58261904Y-66073866D01*
X58261904Y-66073866D02*
X58214285Y-65978628D01*
X58214285Y-65978628D02*
X58166666Y-65931009D01*
X58166666Y-65931009D02*
X58071428Y-65883390D01*
X77133333Y-54954819D02*
X76800000Y-54478628D01*
X76561905Y-54954819D02*
X76561905Y-53954819D01*
X76561905Y-53954819D02*
X76942857Y-53954819D01*
X76942857Y-53954819D02*
X77038095Y-54002438D01*
X77038095Y-54002438D02*
X77085714Y-54050057D01*
X77085714Y-54050057D02*
X77133333Y-54145295D01*
X77133333Y-54145295D02*
X77133333Y-54288152D01*
X77133333Y-54288152D02*
X77085714Y-54383390D01*
X77085714Y-54383390D02*
X77038095Y-54431009D01*
X77038095Y-54431009D02*
X76942857Y-54478628D01*
X76942857Y-54478628D02*
X76561905Y-54478628D01*
X77466667Y-53954819D02*
X78085714Y-53954819D01*
X78085714Y-53954819D02*
X77752381Y-54335771D01*
X77752381Y-54335771D02*
X77895238Y-54335771D01*
X77895238Y-54335771D02*
X77990476Y-54383390D01*
X77990476Y-54383390D02*
X78038095Y-54431009D01*
X78038095Y-54431009D02*
X78085714Y-54526247D01*
X78085714Y-54526247D02*
X78085714Y-54764342D01*
X78085714Y-54764342D02*
X78038095Y-54859580D01*
X78038095Y-54859580D02*
X77990476Y-54907200D01*
X77990476Y-54907200D02*
X77895238Y-54954819D01*
X77895238Y-54954819D02*
X77609524Y-54954819D01*
X77609524Y-54954819D02*
X77514286Y-54907200D01*
X77514286Y-54907200D02*
X77466667Y-54859580D01*
X59904761Y-70850057D02*
X59809523Y-70802438D01*
X59809523Y-70802438D02*
X59714285Y-70707200D01*
X59714285Y-70707200D02*
X59571428Y-70564342D01*
X59571428Y-70564342D02*
X59476190Y-70516723D01*
X59476190Y-70516723D02*
X59380952Y-70516723D01*
X59428571Y-70754819D02*
X59333333Y-70707200D01*
X59333333Y-70707200D02*
X59238095Y-70611961D01*
X59238095Y-70611961D02*
X59190476Y-70421485D01*
X59190476Y-70421485D02*
X59190476Y-70088152D01*
X59190476Y-70088152D02*
X59238095Y-69897676D01*
X59238095Y-69897676D02*
X59333333Y-69802438D01*
X59333333Y-69802438D02*
X59428571Y-69754819D01*
X59428571Y-69754819D02*
X59619047Y-69754819D01*
X59619047Y-69754819D02*
X59714285Y-69802438D01*
X59714285Y-69802438D02*
X59809523Y-69897676D01*
X59809523Y-69897676D02*
X59857142Y-70088152D01*
X59857142Y-70088152D02*
X59857142Y-70421485D01*
X59857142Y-70421485D02*
X59809523Y-70611961D01*
X59809523Y-70611961D02*
X59714285Y-70707200D01*
X59714285Y-70707200D02*
X59619047Y-70754819D01*
X59619047Y-70754819D02*
X59428571Y-70754819D01*
X60714285Y-69754819D02*
X60523809Y-69754819D01*
X60523809Y-69754819D02*
X60428571Y-69802438D01*
X60428571Y-69802438D02*
X60380952Y-69850057D01*
X60380952Y-69850057D02*
X60285714Y-69992914D01*
X60285714Y-69992914D02*
X60238095Y-70183390D01*
X60238095Y-70183390D02*
X60238095Y-70564342D01*
X60238095Y-70564342D02*
X60285714Y-70659580D01*
X60285714Y-70659580D02*
X60333333Y-70707200D01*
X60333333Y-70707200D02*
X60428571Y-70754819D01*
X60428571Y-70754819D02*
X60619047Y-70754819D01*
X60619047Y-70754819D02*
X60714285Y-70707200D01*
X60714285Y-70707200D02*
X60761904Y-70659580D01*
X60761904Y-70659580D02*
X60809523Y-70564342D01*
X60809523Y-70564342D02*
X60809523Y-70326247D01*
X60809523Y-70326247D02*
X60761904Y-70231009D01*
X60761904Y-70231009D02*
X60714285Y-70183390D01*
X60714285Y-70183390D02*
X60619047Y-70135771D01*
X60619047Y-70135771D02*
X60428571Y-70135771D01*
X60428571Y-70135771D02*
X60333333Y-70183390D01*
X60333333Y-70183390D02*
X60285714Y-70231009D01*
X60285714Y-70231009D02*
X60238095Y-70326247D01*
X52138095Y-62654819D02*
X52709523Y-62654819D01*
X52423809Y-63654819D02*
X52423809Y-62654819D01*
X53042857Y-63654819D02*
X53042857Y-62654819D01*
X53042857Y-62654819D02*
X53423809Y-62654819D01*
X53423809Y-62654819D02*
X53519047Y-62702438D01*
X53519047Y-62702438D02*
X53566666Y-62750057D01*
X53566666Y-62750057D02*
X53614285Y-62845295D01*
X53614285Y-62845295D02*
X53614285Y-62988152D01*
X53614285Y-62988152D02*
X53566666Y-63083390D01*
X53566666Y-63083390D02*
X53519047Y-63131009D01*
X53519047Y-63131009D02*
X53423809Y-63178628D01*
X53423809Y-63178628D02*
X53042857Y-63178628D01*
X54471428Y-62654819D02*
X54280952Y-62654819D01*
X54280952Y-62654819D02*
X54185714Y-62702438D01*
X54185714Y-62702438D02*
X54138095Y-62750057D01*
X54138095Y-62750057D02*
X54042857Y-62892914D01*
X54042857Y-62892914D02*
X53995238Y-63083390D01*
X53995238Y-63083390D02*
X53995238Y-63464342D01*
X53995238Y-63464342D02*
X54042857Y-63559580D01*
X54042857Y-63559580D02*
X54090476Y-63607200D01*
X54090476Y-63607200D02*
X54185714Y-63654819D01*
X54185714Y-63654819D02*
X54376190Y-63654819D01*
X54376190Y-63654819D02*
X54471428Y-63607200D01*
X54471428Y-63607200D02*
X54519047Y-63559580D01*
X54519047Y-63559580D02*
X54566666Y-63464342D01*
X54566666Y-63464342D02*
X54566666Y-63226247D01*
X54566666Y-63226247D02*
X54519047Y-63131009D01*
X54519047Y-63131009D02*
X54471428Y-63083390D01*
X54471428Y-63083390D02*
X54376190Y-63035771D01*
X54376190Y-63035771D02*
X54185714Y-63035771D01*
X54185714Y-63035771D02*
X54090476Y-63083390D01*
X54090476Y-63083390D02*
X54042857Y-63131009D01*
X54042857Y-63131009D02*
X53995238Y-63226247D01*
X52138095Y-66054819D02*
X52709523Y-66054819D01*
X52423809Y-67054819D02*
X52423809Y-66054819D01*
X53042857Y-67054819D02*
X53042857Y-66054819D01*
X53042857Y-66054819D02*
X53423809Y-66054819D01*
X53423809Y-66054819D02*
X53519047Y-66102438D01*
X53519047Y-66102438D02*
X53566666Y-66150057D01*
X53566666Y-66150057D02*
X53614285Y-66245295D01*
X53614285Y-66245295D02*
X53614285Y-66388152D01*
X53614285Y-66388152D02*
X53566666Y-66483390D01*
X53566666Y-66483390D02*
X53519047Y-66531009D01*
X53519047Y-66531009D02*
X53423809Y-66578628D01*
X53423809Y-66578628D02*
X53042857Y-66578628D01*
X53947619Y-66054819D02*
X54614285Y-66054819D01*
X54614285Y-66054819D02*
X54185714Y-67054819D01*
X98057142Y-61359580D02*
X98009523Y-61407200D01*
X98009523Y-61407200D02*
X97866666Y-61454819D01*
X97866666Y-61454819D02*
X97771428Y-61454819D01*
X97771428Y-61454819D02*
X97628571Y-61407200D01*
X97628571Y-61407200D02*
X97533333Y-61311961D01*
X97533333Y-61311961D02*
X97485714Y-61216723D01*
X97485714Y-61216723D02*
X97438095Y-61026247D01*
X97438095Y-61026247D02*
X97438095Y-60883390D01*
X97438095Y-60883390D02*
X97485714Y-60692914D01*
X97485714Y-60692914D02*
X97533333Y-60597676D01*
X97533333Y-60597676D02*
X97628571Y-60502438D01*
X97628571Y-60502438D02*
X97771428Y-60454819D01*
X97771428Y-60454819D02*
X97866666Y-60454819D01*
X97866666Y-60454819D02*
X98009523Y-60502438D01*
X98009523Y-60502438D02*
X98057142Y-60550057D01*
X98390476Y-60454819D02*
X99009523Y-60454819D01*
X99009523Y-60454819D02*
X98676190Y-60835771D01*
X98676190Y-60835771D02*
X98819047Y-60835771D01*
X98819047Y-60835771D02*
X98914285Y-60883390D01*
X98914285Y-60883390D02*
X98961904Y-60931009D01*
X98961904Y-60931009D02*
X99009523Y-61026247D01*
X99009523Y-61026247D02*
X99009523Y-61264342D01*
X99009523Y-61264342D02*
X98961904Y-61359580D01*
X98961904Y-61359580D02*
X98914285Y-61407200D01*
X98914285Y-61407200D02*
X98819047Y-61454819D01*
X98819047Y-61454819D02*
X98533333Y-61454819D01*
X98533333Y-61454819D02*
X98438095Y-61407200D01*
X98438095Y-61407200D02*
X98390476Y-61359580D01*
X99628571Y-60454819D02*
X99723809Y-60454819D01*
X99723809Y-60454819D02*
X99819047Y-60502438D01*
X99819047Y-60502438D02*
X99866666Y-60550057D01*
X99866666Y-60550057D02*
X99914285Y-60645295D01*
X99914285Y-60645295D02*
X99961904Y-60835771D01*
X99961904Y-60835771D02*
X99961904Y-61073866D01*
X99961904Y-61073866D02*
X99914285Y-61264342D01*
X99914285Y-61264342D02*
X99866666Y-61359580D01*
X99866666Y-61359580D02*
X99819047Y-61407200D01*
X99819047Y-61407200D02*
X99723809Y-61454819D01*
X99723809Y-61454819D02*
X99628571Y-61454819D01*
X99628571Y-61454819D02*
X99533333Y-61407200D01*
X99533333Y-61407200D02*
X99485714Y-61359580D01*
X99485714Y-61359580D02*
X99438095Y-61264342D01*
X99438095Y-61264342D02*
X99390476Y-61073866D01*
X99390476Y-61073866D02*
X99390476Y-60835771D01*
X99390476Y-60835771D02*
X99438095Y-60645295D01*
X99438095Y-60645295D02*
X99485714Y-60550057D01*
X99485714Y-60550057D02*
X99533333Y-60502438D01*
X99533333Y-60502438D02*
X99628571Y-60454819D01*
X84657142Y-67154819D02*
X84323809Y-66678628D01*
X84085714Y-67154819D02*
X84085714Y-66154819D01*
X84085714Y-66154819D02*
X84466666Y-66154819D01*
X84466666Y-66154819D02*
X84561904Y-66202438D01*
X84561904Y-66202438D02*
X84609523Y-66250057D01*
X84609523Y-66250057D02*
X84657142Y-66345295D01*
X84657142Y-66345295D02*
X84657142Y-66488152D01*
X84657142Y-66488152D02*
X84609523Y-66583390D01*
X84609523Y-66583390D02*
X84561904Y-66631009D01*
X84561904Y-66631009D02*
X84466666Y-66678628D01*
X84466666Y-66678628D02*
X84085714Y-66678628D01*
X85609523Y-67154819D02*
X85038095Y-67154819D01*
X85323809Y-67154819D02*
X85323809Y-66154819D01*
X85323809Y-66154819D02*
X85228571Y-66297676D01*
X85228571Y-66297676D02*
X85133333Y-66392914D01*
X85133333Y-66392914D02*
X85038095Y-66440533D01*
X86514285Y-66154819D02*
X86038095Y-66154819D01*
X86038095Y-66154819D02*
X85990476Y-66631009D01*
X85990476Y-66631009D02*
X86038095Y-66583390D01*
X86038095Y-66583390D02*
X86133333Y-66535771D01*
X86133333Y-66535771D02*
X86371428Y-66535771D01*
X86371428Y-66535771D02*
X86466666Y-66583390D01*
X86466666Y-66583390D02*
X86514285Y-66631009D01*
X86514285Y-66631009D02*
X86561904Y-66726247D01*
X86561904Y-66726247D02*
X86561904Y-66964342D01*
X86561904Y-66964342D02*
X86514285Y-67059580D01*
X86514285Y-67059580D02*
X86466666Y-67107200D01*
X86466666Y-67107200D02*
X86371428Y-67154819D01*
X86371428Y-67154819D02*
X86133333Y-67154819D01*
X86133333Y-67154819D02*
X86038095Y-67107200D01*
X86038095Y-67107200D02*
X85990476Y-67059580D01*
X53151342Y-60015219D02*
X52818009Y-59539028D01*
X52579914Y-60015219D02*
X52579914Y-59015219D01*
X52579914Y-59015219D02*
X52960866Y-59015219D01*
X52960866Y-59015219D02*
X53056104Y-59062838D01*
X53056104Y-59062838D02*
X53103723Y-59110457D01*
X53103723Y-59110457D02*
X53151342Y-59205695D01*
X53151342Y-59205695D02*
X53151342Y-59348552D01*
X53151342Y-59348552D02*
X53103723Y-59443790D01*
X53103723Y-59443790D02*
X53056104Y-59491409D01*
X53056104Y-59491409D02*
X52960866Y-59539028D01*
X52960866Y-59539028D02*
X52579914Y-59539028D01*
X54103723Y-60015219D02*
X53532295Y-60015219D01*
X53818009Y-60015219D02*
X53818009Y-59015219D01*
X53818009Y-59015219D02*
X53722771Y-59158076D01*
X53722771Y-59158076D02*
X53627533Y-59253314D01*
X53627533Y-59253314D02*
X53532295Y-59300933D01*
X55056104Y-60015219D02*
X54484676Y-60015219D01*
X54770390Y-60015219D02*
X54770390Y-59015219D01*
X54770390Y-59015219D02*
X54675152Y-59158076D01*
X54675152Y-59158076D02*
X54579914Y-59253314D01*
X54579914Y-59253314D02*
X54484676Y-59300933D01*
X71157142Y-60459580D02*
X71109523Y-60507200D01*
X71109523Y-60507200D02*
X70966666Y-60554819D01*
X70966666Y-60554819D02*
X70871428Y-60554819D01*
X70871428Y-60554819D02*
X70728571Y-60507200D01*
X70728571Y-60507200D02*
X70633333Y-60411961D01*
X70633333Y-60411961D02*
X70585714Y-60316723D01*
X70585714Y-60316723D02*
X70538095Y-60126247D01*
X70538095Y-60126247D02*
X70538095Y-59983390D01*
X70538095Y-59983390D02*
X70585714Y-59792914D01*
X70585714Y-59792914D02*
X70633333Y-59697676D01*
X70633333Y-59697676D02*
X70728571Y-59602438D01*
X70728571Y-59602438D02*
X70871428Y-59554819D01*
X70871428Y-59554819D02*
X70966666Y-59554819D01*
X70966666Y-59554819D02*
X71109523Y-59602438D01*
X71109523Y-59602438D02*
X71157142Y-59650057D01*
X72109523Y-60554819D02*
X71538095Y-60554819D01*
X71823809Y-60554819D02*
X71823809Y-59554819D01*
X71823809Y-59554819D02*
X71728571Y-59697676D01*
X71728571Y-59697676D02*
X71633333Y-59792914D01*
X71633333Y-59792914D02*
X71538095Y-59840533D01*
X73061904Y-60554819D02*
X72490476Y-60554819D01*
X72776190Y-60554819D02*
X72776190Y-59554819D01*
X72776190Y-59554819D02*
X72680952Y-59697676D01*
X72680952Y-59697676D02*
X72585714Y-59792914D01*
X72585714Y-59792914D02*
X72490476Y-59840533D01*
X85611905Y-56414819D02*
X85611905Y-57224342D01*
X85611905Y-57224342D02*
X85659524Y-57319580D01*
X85659524Y-57319580D02*
X85707143Y-57367200D01*
X85707143Y-57367200D02*
X85802381Y-57414819D01*
X85802381Y-57414819D02*
X85992857Y-57414819D01*
X85992857Y-57414819D02*
X86088095Y-57367200D01*
X86088095Y-57367200D02*
X86135714Y-57319580D01*
X86135714Y-57319580D02*
X86183333Y-57224342D01*
X86183333Y-57224342D02*
X86183333Y-56414819D01*
X87183333Y-57414819D02*
X86611905Y-57414819D01*
X86897619Y-57414819D02*
X86897619Y-56414819D01*
X86897619Y-56414819D02*
X86802381Y-56557676D01*
X86802381Y-56557676D02*
X86707143Y-56652914D01*
X86707143Y-56652914D02*
X86611905Y-56700533D01*
X87802381Y-56414819D02*
X87897619Y-56414819D01*
X87897619Y-56414819D02*
X87992857Y-56462438D01*
X87992857Y-56462438D02*
X88040476Y-56510057D01*
X88040476Y-56510057D02*
X88088095Y-56605295D01*
X88088095Y-56605295D02*
X88135714Y-56795771D01*
X88135714Y-56795771D02*
X88135714Y-57033866D01*
X88135714Y-57033866D02*
X88088095Y-57224342D01*
X88088095Y-57224342D02*
X88040476Y-57319580D01*
X88040476Y-57319580D02*
X87992857Y-57367200D01*
X87992857Y-57367200D02*
X87897619Y-57414819D01*
X87897619Y-57414819D02*
X87802381Y-57414819D01*
X87802381Y-57414819D02*
X87707143Y-57367200D01*
X87707143Y-57367200D02*
X87659524Y-57319580D01*
X87659524Y-57319580D02*
X87611905Y-57224342D01*
X87611905Y-57224342D02*
X87564286Y-57033866D01*
X87564286Y-57033866D02*
X87564286Y-56795771D01*
X87564286Y-56795771D02*
X87611905Y-56605295D01*
X87611905Y-56605295D02*
X87659524Y-56510057D01*
X87659524Y-56510057D02*
X87707143Y-56462438D01*
X87707143Y-56462438D02*
X87802381Y-56414819D01*
X107157142Y-79859580D02*
X107109523Y-79907200D01*
X107109523Y-79907200D02*
X106966666Y-79954819D01*
X106966666Y-79954819D02*
X106871428Y-79954819D01*
X106871428Y-79954819D02*
X106728571Y-79907200D01*
X106728571Y-79907200D02*
X106633333Y-79811961D01*
X106633333Y-79811961D02*
X106585714Y-79716723D01*
X106585714Y-79716723D02*
X106538095Y-79526247D01*
X106538095Y-79526247D02*
X106538095Y-79383390D01*
X106538095Y-79383390D02*
X106585714Y-79192914D01*
X106585714Y-79192914D02*
X106633333Y-79097676D01*
X106633333Y-79097676D02*
X106728571Y-79002438D01*
X106728571Y-79002438D02*
X106871428Y-78954819D01*
X106871428Y-78954819D02*
X106966666Y-78954819D01*
X106966666Y-78954819D02*
X107109523Y-79002438D01*
X107109523Y-79002438D02*
X107157142Y-79050057D01*
X107490476Y-78954819D02*
X108109523Y-78954819D01*
X108109523Y-78954819D02*
X107776190Y-79335771D01*
X107776190Y-79335771D02*
X107919047Y-79335771D01*
X107919047Y-79335771D02*
X108014285Y-79383390D01*
X108014285Y-79383390D02*
X108061904Y-79431009D01*
X108061904Y-79431009D02*
X108109523Y-79526247D01*
X108109523Y-79526247D02*
X108109523Y-79764342D01*
X108109523Y-79764342D02*
X108061904Y-79859580D01*
X108061904Y-79859580D02*
X108014285Y-79907200D01*
X108014285Y-79907200D02*
X107919047Y-79954819D01*
X107919047Y-79954819D02*
X107633333Y-79954819D01*
X107633333Y-79954819D02*
X107538095Y-79907200D01*
X107538095Y-79907200D02*
X107490476Y-79859580D01*
X108966666Y-78954819D02*
X108776190Y-78954819D01*
X108776190Y-78954819D02*
X108680952Y-79002438D01*
X108680952Y-79002438D02*
X108633333Y-79050057D01*
X108633333Y-79050057D02*
X108538095Y-79192914D01*
X108538095Y-79192914D02*
X108490476Y-79383390D01*
X108490476Y-79383390D02*
X108490476Y-79764342D01*
X108490476Y-79764342D02*
X108538095Y-79859580D01*
X108538095Y-79859580D02*
X108585714Y-79907200D01*
X108585714Y-79907200D02*
X108680952Y-79954819D01*
X108680952Y-79954819D02*
X108871428Y-79954819D01*
X108871428Y-79954819D02*
X108966666Y-79907200D01*
X108966666Y-79907200D02*
X109014285Y-79859580D01*
X109014285Y-79859580D02*
X109061904Y-79764342D01*
X109061904Y-79764342D02*
X109061904Y-79526247D01*
X109061904Y-79526247D02*
X109014285Y-79431009D01*
X109014285Y-79431009D02*
X108966666Y-79383390D01*
X108966666Y-79383390D02*
X108871428Y-79335771D01*
X108871428Y-79335771D02*
X108680952Y-79335771D01*
X108680952Y-79335771D02*
X108585714Y-79383390D01*
X108585714Y-79383390D02*
X108538095Y-79431009D01*
X108538095Y-79431009D02*
X108490476Y-79526247D01*
X76739905Y-100704819D02*
X76739905Y-101514342D01*
X76739905Y-101514342D02*
X76787524Y-101609580D01*
X76787524Y-101609580D02*
X76835143Y-101657200D01*
X76835143Y-101657200D02*
X76930381Y-101704819D01*
X76930381Y-101704819D02*
X77120857Y-101704819D01*
X77120857Y-101704819D02*
X77216095Y-101657200D01*
X77216095Y-101657200D02*
X77263714Y-101609580D01*
X77263714Y-101609580D02*
X77311333Y-101514342D01*
X77311333Y-101514342D02*
X77311333Y-100704819D01*
X78311333Y-101704819D02*
X77739905Y-101704819D01*
X78025619Y-101704819D02*
X78025619Y-100704819D01*
X78025619Y-100704819D02*
X77930381Y-100847676D01*
X77930381Y-100847676D02*
X77835143Y-100942914D01*
X77835143Y-100942914D02*
X77739905Y-100990533D01*
X79168476Y-100704819D02*
X78978000Y-100704819D01*
X78978000Y-100704819D02*
X78882762Y-100752438D01*
X78882762Y-100752438D02*
X78835143Y-100800057D01*
X78835143Y-100800057D02*
X78739905Y-100942914D01*
X78739905Y-100942914D02*
X78692286Y-101133390D01*
X78692286Y-101133390D02*
X78692286Y-101514342D01*
X78692286Y-101514342D02*
X78739905Y-101609580D01*
X78739905Y-101609580D02*
X78787524Y-101657200D01*
X78787524Y-101657200D02*
X78882762Y-101704819D01*
X78882762Y-101704819D02*
X79073238Y-101704819D01*
X79073238Y-101704819D02*
X79168476Y-101657200D01*
X79168476Y-101657200D02*
X79216095Y-101609580D01*
X79216095Y-101609580D02*
X79263714Y-101514342D01*
X79263714Y-101514342D02*
X79263714Y-101276247D01*
X79263714Y-101276247D02*
X79216095Y-101181009D01*
X79216095Y-101181009D02*
X79168476Y-101133390D01*
X79168476Y-101133390D02*
X79073238Y-101085771D01*
X79073238Y-101085771D02*
X78882762Y-101085771D01*
X78882762Y-101085771D02*
X78787524Y-101133390D01*
X78787524Y-101133390D02*
X78739905Y-101181009D01*
X78739905Y-101181009D02*
X78692286Y-101276247D01*
X125266666Y-64534819D02*
X125266666Y-65249104D01*
X125266666Y-65249104D02*
X125219047Y-65391961D01*
X125219047Y-65391961D02*
X125123809Y-65487200D01*
X125123809Y-65487200D02*
X124980952Y-65534819D01*
X124980952Y-65534819D02*
X124885714Y-65534819D01*
X125647619Y-64534819D02*
X126314285Y-64534819D01*
X126314285Y-64534819D02*
X125885714Y-65534819D01*
X86466666Y-68154819D02*
X86466666Y-68869104D01*
X86466666Y-68869104D02*
X86419047Y-69011961D01*
X86419047Y-69011961D02*
X86323809Y-69107200D01*
X86323809Y-69107200D02*
X86180952Y-69154819D01*
X86180952Y-69154819D02*
X86085714Y-69154819D01*
X87085714Y-68583390D02*
X86990476Y-68535771D01*
X86990476Y-68535771D02*
X86942857Y-68488152D01*
X86942857Y-68488152D02*
X86895238Y-68392914D01*
X86895238Y-68392914D02*
X86895238Y-68345295D01*
X86895238Y-68345295D02*
X86942857Y-68250057D01*
X86942857Y-68250057D02*
X86990476Y-68202438D01*
X86990476Y-68202438D02*
X87085714Y-68154819D01*
X87085714Y-68154819D02*
X87276190Y-68154819D01*
X87276190Y-68154819D02*
X87371428Y-68202438D01*
X87371428Y-68202438D02*
X87419047Y-68250057D01*
X87419047Y-68250057D02*
X87466666Y-68345295D01*
X87466666Y-68345295D02*
X87466666Y-68392914D01*
X87466666Y-68392914D02*
X87419047Y-68488152D01*
X87419047Y-68488152D02*
X87371428Y-68535771D01*
X87371428Y-68535771D02*
X87276190Y-68583390D01*
X87276190Y-68583390D02*
X87085714Y-68583390D01*
X87085714Y-68583390D02*
X86990476Y-68631009D01*
X86990476Y-68631009D02*
X86942857Y-68678628D01*
X86942857Y-68678628D02*
X86895238Y-68773866D01*
X86895238Y-68773866D02*
X86895238Y-68964342D01*
X86895238Y-68964342D02*
X86942857Y-69059580D01*
X86942857Y-69059580D02*
X86990476Y-69107200D01*
X86990476Y-69107200D02*
X87085714Y-69154819D01*
X87085714Y-69154819D02*
X87276190Y-69154819D01*
X87276190Y-69154819D02*
X87371428Y-69107200D01*
X87371428Y-69107200D02*
X87419047Y-69059580D01*
X87419047Y-69059580D02*
X87466666Y-68964342D01*
X87466666Y-68964342D02*
X87466666Y-68773866D01*
X87466666Y-68773866D02*
X87419047Y-68678628D01*
X87419047Y-68678628D02*
X87371428Y-68631009D01*
X87371428Y-68631009D02*
X87276190Y-68583390D01*
X90561905Y-170844819D02*
X90561905Y-171654342D01*
X90561905Y-171654342D02*
X90609524Y-171749580D01*
X90609524Y-171749580D02*
X90657143Y-171797200D01*
X90657143Y-171797200D02*
X90752381Y-171844819D01*
X90752381Y-171844819D02*
X90942857Y-171844819D01*
X90942857Y-171844819D02*
X91038095Y-171797200D01*
X91038095Y-171797200D02*
X91085714Y-171749580D01*
X91085714Y-171749580D02*
X91133333Y-171654342D01*
X91133333Y-171654342D02*
X91133333Y-170844819D01*
X92133333Y-171844819D02*
X91561905Y-171844819D01*
X91847619Y-171844819D02*
X91847619Y-170844819D01*
X91847619Y-170844819D02*
X91752381Y-170987676D01*
X91752381Y-170987676D02*
X91657143Y-171082914D01*
X91657143Y-171082914D02*
X91561905Y-171130533D01*
X93085714Y-171844819D02*
X92514286Y-171844819D01*
X92800000Y-171844819D02*
X92800000Y-170844819D01*
X92800000Y-170844819D02*
X92704762Y-170987676D01*
X92704762Y-170987676D02*
X92609524Y-171082914D01*
X92609524Y-171082914D02*
X92514286Y-171130533D01*
X89679580Y-53312857D02*
X89727200Y-53360476D01*
X89727200Y-53360476D02*
X89774819Y-53503333D01*
X89774819Y-53503333D02*
X89774819Y-53598571D01*
X89774819Y-53598571D02*
X89727200Y-53741428D01*
X89727200Y-53741428D02*
X89631961Y-53836666D01*
X89631961Y-53836666D02*
X89536723Y-53884285D01*
X89536723Y-53884285D02*
X89346247Y-53931904D01*
X89346247Y-53931904D02*
X89203390Y-53931904D01*
X89203390Y-53931904D02*
X89012914Y-53884285D01*
X89012914Y-53884285D02*
X88917676Y-53836666D01*
X88917676Y-53836666D02*
X88822438Y-53741428D01*
X88822438Y-53741428D02*
X88774819Y-53598571D01*
X88774819Y-53598571D02*
X88774819Y-53503333D01*
X88774819Y-53503333D02*
X88822438Y-53360476D01*
X88822438Y-53360476D02*
X88870057Y-53312857D01*
X88870057Y-52931904D02*
X88822438Y-52884285D01*
X88822438Y-52884285D02*
X88774819Y-52789047D01*
X88774819Y-52789047D02*
X88774819Y-52550952D01*
X88774819Y-52550952D02*
X88822438Y-52455714D01*
X88822438Y-52455714D02*
X88870057Y-52408095D01*
X88870057Y-52408095D02*
X88965295Y-52360476D01*
X88965295Y-52360476D02*
X89060533Y-52360476D01*
X89060533Y-52360476D02*
X89203390Y-52408095D01*
X89203390Y-52408095D02*
X89774819Y-52979523D01*
X89774819Y-52979523D02*
X89774819Y-52360476D01*
X89108152Y-51503333D02*
X89774819Y-51503333D01*
X88727200Y-51741428D02*
X89441485Y-51979523D01*
X89441485Y-51979523D02*
X89441485Y-51360476D01*
X91396666Y-46484819D02*
X91396666Y-47199104D01*
X91396666Y-47199104D02*
X91349047Y-47341961D01*
X91349047Y-47341961D02*
X91253809Y-47437200D01*
X91253809Y-47437200D02*
X91110952Y-47484819D01*
X91110952Y-47484819D02*
X91015714Y-47484819D01*
X92301428Y-46818152D02*
X92301428Y-47484819D01*
X92063333Y-46437200D02*
X91825238Y-47151485D01*
X91825238Y-47151485D02*
X92444285Y-47151485D01*
X60157142Y-60054819D02*
X59823809Y-59578628D01*
X59585714Y-60054819D02*
X59585714Y-59054819D01*
X59585714Y-59054819D02*
X59966666Y-59054819D01*
X59966666Y-59054819D02*
X60061904Y-59102438D01*
X60061904Y-59102438D02*
X60109523Y-59150057D01*
X60109523Y-59150057D02*
X60157142Y-59245295D01*
X60157142Y-59245295D02*
X60157142Y-59388152D01*
X60157142Y-59388152D02*
X60109523Y-59483390D01*
X60109523Y-59483390D02*
X60061904Y-59531009D01*
X60061904Y-59531009D02*
X59966666Y-59578628D01*
X59966666Y-59578628D02*
X59585714Y-59578628D01*
X61109523Y-60054819D02*
X60538095Y-60054819D01*
X60823809Y-60054819D02*
X60823809Y-59054819D01*
X60823809Y-59054819D02*
X60728571Y-59197676D01*
X60728571Y-59197676D02*
X60633333Y-59292914D01*
X60633333Y-59292914D02*
X60538095Y-59340533D01*
X61490476Y-59150057D02*
X61538095Y-59102438D01*
X61538095Y-59102438D02*
X61633333Y-59054819D01*
X61633333Y-59054819D02*
X61871428Y-59054819D01*
X61871428Y-59054819D02*
X61966666Y-59102438D01*
X61966666Y-59102438D02*
X62014285Y-59150057D01*
X62014285Y-59150057D02*
X62061904Y-59245295D01*
X62061904Y-59245295D02*
X62061904Y-59340533D01*
X62061904Y-59340533D02*
X62014285Y-59483390D01*
X62014285Y-59483390D02*
X61442857Y-60054819D01*
X61442857Y-60054819D02*
X62061904Y-60054819D01*
X129987142Y-78009580D02*
X129939523Y-78057200D01*
X129939523Y-78057200D02*
X129796666Y-78104819D01*
X129796666Y-78104819D02*
X129701428Y-78104819D01*
X129701428Y-78104819D02*
X129558571Y-78057200D01*
X129558571Y-78057200D02*
X129463333Y-77961961D01*
X129463333Y-77961961D02*
X129415714Y-77866723D01*
X129415714Y-77866723D02*
X129368095Y-77676247D01*
X129368095Y-77676247D02*
X129368095Y-77533390D01*
X129368095Y-77533390D02*
X129415714Y-77342914D01*
X129415714Y-77342914D02*
X129463333Y-77247676D01*
X129463333Y-77247676D02*
X129558571Y-77152438D01*
X129558571Y-77152438D02*
X129701428Y-77104819D01*
X129701428Y-77104819D02*
X129796666Y-77104819D01*
X129796666Y-77104819D02*
X129939523Y-77152438D01*
X129939523Y-77152438D02*
X129987142Y-77200057D01*
X130320476Y-77104819D02*
X130939523Y-77104819D01*
X130939523Y-77104819D02*
X130606190Y-77485771D01*
X130606190Y-77485771D02*
X130749047Y-77485771D01*
X130749047Y-77485771D02*
X130844285Y-77533390D01*
X130844285Y-77533390D02*
X130891904Y-77581009D01*
X130891904Y-77581009D02*
X130939523Y-77676247D01*
X130939523Y-77676247D02*
X130939523Y-77914342D01*
X130939523Y-77914342D02*
X130891904Y-78009580D01*
X130891904Y-78009580D02*
X130844285Y-78057200D01*
X130844285Y-78057200D02*
X130749047Y-78104819D01*
X130749047Y-78104819D02*
X130463333Y-78104819D01*
X130463333Y-78104819D02*
X130368095Y-78057200D01*
X130368095Y-78057200D02*
X130320476Y-78009580D01*
X131844285Y-77104819D02*
X131368095Y-77104819D01*
X131368095Y-77104819D02*
X131320476Y-77581009D01*
X131320476Y-77581009D02*
X131368095Y-77533390D01*
X131368095Y-77533390D02*
X131463333Y-77485771D01*
X131463333Y-77485771D02*
X131701428Y-77485771D01*
X131701428Y-77485771D02*
X131796666Y-77533390D01*
X131796666Y-77533390D02*
X131844285Y-77581009D01*
X131844285Y-77581009D02*
X131891904Y-77676247D01*
X131891904Y-77676247D02*
X131891904Y-77914342D01*
X131891904Y-77914342D02*
X131844285Y-78009580D01*
X131844285Y-78009580D02*
X131796666Y-78057200D01*
X131796666Y-78057200D02*
X131701428Y-78104819D01*
X131701428Y-78104819D02*
X131463333Y-78104819D01*
X131463333Y-78104819D02*
X131368095Y-78057200D01*
X131368095Y-78057200D02*
X131320476Y-78009580D01*
X82333333Y-56654819D02*
X82000000Y-56178628D01*
X81761905Y-56654819D02*
X81761905Y-55654819D01*
X81761905Y-55654819D02*
X82142857Y-55654819D01*
X82142857Y-55654819D02*
X82238095Y-55702438D01*
X82238095Y-55702438D02*
X82285714Y-55750057D01*
X82285714Y-55750057D02*
X82333333Y-55845295D01*
X82333333Y-55845295D02*
X82333333Y-55988152D01*
X82333333Y-55988152D02*
X82285714Y-56083390D01*
X82285714Y-56083390D02*
X82238095Y-56131009D01*
X82238095Y-56131009D02*
X82142857Y-56178628D01*
X82142857Y-56178628D02*
X81761905Y-56178628D01*
X82714286Y-55750057D02*
X82761905Y-55702438D01*
X82761905Y-55702438D02*
X82857143Y-55654819D01*
X82857143Y-55654819D02*
X83095238Y-55654819D01*
X83095238Y-55654819D02*
X83190476Y-55702438D01*
X83190476Y-55702438D02*
X83238095Y-55750057D01*
X83238095Y-55750057D02*
X83285714Y-55845295D01*
X83285714Y-55845295D02*
X83285714Y-55940533D01*
X83285714Y-55940533D02*
X83238095Y-56083390D01*
X83238095Y-56083390D02*
X82666667Y-56654819D01*
X82666667Y-56654819D02*
X83285714Y-56654819D01*
X91554819Y-60638094D02*
X90554819Y-60638094D01*
X90554819Y-60638094D02*
X90554819Y-60399999D01*
X90554819Y-60399999D02*
X90602438Y-60257142D01*
X90602438Y-60257142D02*
X90697676Y-60161904D01*
X90697676Y-60161904D02*
X90792914Y-60114285D01*
X90792914Y-60114285D02*
X90983390Y-60066666D01*
X90983390Y-60066666D02*
X91126247Y-60066666D01*
X91126247Y-60066666D02*
X91316723Y-60114285D01*
X91316723Y-60114285D02*
X91411961Y-60161904D01*
X91411961Y-60161904D02*
X91507200Y-60257142D01*
X91507200Y-60257142D02*
X91554819Y-60399999D01*
X91554819Y-60399999D02*
X91554819Y-60638094D01*
X91554819Y-59114285D02*
X91554819Y-59685713D01*
X91554819Y-59399999D02*
X90554819Y-59399999D01*
X90554819Y-59399999D02*
X90697676Y-59495237D01*
X90697676Y-59495237D02*
X90792914Y-59590475D01*
X90792914Y-59590475D02*
X90840533Y-59685713D01*
X96657142Y-71554819D02*
X96323809Y-71078628D01*
X96085714Y-71554819D02*
X96085714Y-70554819D01*
X96085714Y-70554819D02*
X96466666Y-70554819D01*
X96466666Y-70554819D02*
X96561904Y-70602438D01*
X96561904Y-70602438D02*
X96609523Y-70650057D01*
X96609523Y-70650057D02*
X96657142Y-70745295D01*
X96657142Y-70745295D02*
X96657142Y-70888152D01*
X96657142Y-70888152D02*
X96609523Y-70983390D01*
X96609523Y-70983390D02*
X96561904Y-71031009D01*
X96561904Y-71031009D02*
X96466666Y-71078628D01*
X96466666Y-71078628D02*
X96085714Y-71078628D01*
X97038095Y-70650057D02*
X97085714Y-70602438D01*
X97085714Y-70602438D02*
X97180952Y-70554819D01*
X97180952Y-70554819D02*
X97419047Y-70554819D01*
X97419047Y-70554819D02*
X97514285Y-70602438D01*
X97514285Y-70602438D02*
X97561904Y-70650057D01*
X97561904Y-70650057D02*
X97609523Y-70745295D01*
X97609523Y-70745295D02*
X97609523Y-70840533D01*
X97609523Y-70840533D02*
X97561904Y-70983390D01*
X97561904Y-70983390D02*
X96990476Y-71554819D01*
X96990476Y-71554819D02*
X97609523Y-71554819D01*
X98228571Y-70554819D02*
X98323809Y-70554819D01*
X98323809Y-70554819D02*
X98419047Y-70602438D01*
X98419047Y-70602438D02*
X98466666Y-70650057D01*
X98466666Y-70650057D02*
X98514285Y-70745295D01*
X98514285Y-70745295D02*
X98561904Y-70935771D01*
X98561904Y-70935771D02*
X98561904Y-71173866D01*
X98561904Y-71173866D02*
X98514285Y-71364342D01*
X98514285Y-71364342D02*
X98466666Y-71459580D01*
X98466666Y-71459580D02*
X98419047Y-71507200D01*
X98419047Y-71507200D02*
X98323809Y-71554819D01*
X98323809Y-71554819D02*
X98228571Y-71554819D01*
X98228571Y-71554819D02*
X98133333Y-71507200D01*
X98133333Y-71507200D02*
X98085714Y-71459580D01*
X98085714Y-71459580D02*
X98038095Y-71364342D01*
X98038095Y-71364342D02*
X97990476Y-71173866D01*
X97990476Y-71173866D02*
X97990476Y-70935771D01*
X97990476Y-70935771D02*
X98038095Y-70745295D01*
X98038095Y-70745295D02*
X98085714Y-70650057D01*
X98085714Y-70650057D02*
X98133333Y-70602438D01*
X98133333Y-70602438D02*
X98228571Y-70554819D01*
X106965905Y-100704819D02*
X106965905Y-101514342D01*
X106965905Y-101514342D02*
X107013524Y-101609580D01*
X107013524Y-101609580D02*
X107061143Y-101657200D01*
X107061143Y-101657200D02*
X107156381Y-101704819D01*
X107156381Y-101704819D02*
X107346857Y-101704819D01*
X107346857Y-101704819D02*
X107442095Y-101657200D01*
X107442095Y-101657200D02*
X107489714Y-101609580D01*
X107489714Y-101609580D02*
X107537333Y-101514342D01*
X107537333Y-101514342D02*
X107537333Y-100704819D01*
X108537333Y-101704819D02*
X107965905Y-101704819D01*
X108251619Y-101704819D02*
X108251619Y-100704819D01*
X108251619Y-100704819D02*
X108156381Y-100847676D01*
X108156381Y-100847676D02*
X108061143Y-100942914D01*
X108061143Y-100942914D02*
X107965905Y-100990533D01*
X108870667Y-100704819D02*
X109489714Y-100704819D01*
X109489714Y-100704819D02*
X109156381Y-101085771D01*
X109156381Y-101085771D02*
X109299238Y-101085771D01*
X109299238Y-101085771D02*
X109394476Y-101133390D01*
X109394476Y-101133390D02*
X109442095Y-101181009D01*
X109442095Y-101181009D02*
X109489714Y-101276247D01*
X109489714Y-101276247D02*
X109489714Y-101514342D01*
X109489714Y-101514342D02*
X109442095Y-101609580D01*
X109442095Y-101609580D02*
X109394476Y-101657200D01*
X109394476Y-101657200D02*
X109299238Y-101704819D01*
X109299238Y-101704819D02*
X109013524Y-101704819D01*
X109013524Y-101704819D02*
X108918286Y-101657200D01*
X108918286Y-101657200D02*
X108870667Y-101609580D01*
D11*
%TO.C,U19*%
X111000000Y-128500000D02*
X105000000Y-128500000D01*
X105000000Y-128500000D02*
X105000000Y-121500000D01*
X105000000Y-121500000D02*
X111000000Y-121500000D01*
X111000000Y-121500000D02*
X111000000Y-128500000D01*
D12*
X111433742Y-128810000D02*
G75*
G03*
X111433742Y-128810000I-113742J0D01*
G01*
D13*
%TO.C,U3*%
X80660000Y-62400000D02*
X80660000Y-58950000D01*
X80660000Y-62400000D02*
X80660000Y-64350000D01*
X75540000Y-62400000D02*
X75540000Y-60450000D01*
X75540000Y-62400000D02*
X75540000Y-64350000D01*
%TO.C,J3*%
X128630000Y-57995000D02*
X129265000Y-57995000D01*
X128630000Y-58630000D02*
X128630000Y-57995000D01*
%TO.C,C37*%
X125007836Y-78460000D02*
X124792164Y-78460000D01*
X125007836Y-77740000D02*
X124792164Y-77740000D01*
D11*
%TO.C,U22*%
X81000000Y-128500000D02*
X75000000Y-128500000D01*
X75000000Y-128500000D02*
X75000000Y-121500000D01*
X75000000Y-121500000D02*
X81000000Y-121500000D01*
X81000000Y-121500000D02*
X81000000Y-128500000D01*
D12*
X81433742Y-128810000D02*
G75*
G03*
X81433742Y-128810000I-113742J0D01*
G01*
D13*
%TO.C,R13*%
X83740000Y-52493641D02*
X83740000Y-52186359D01*
X84500000Y-52493641D02*
X84500000Y-52186359D01*
%TO.C,C32*%
X85820000Y-52447836D02*
X85820000Y-52232164D01*
X86540000Y-52447836D02*
X86540000Y-52232164D01*
%TO.C,G\u002A\u002A\u002A*%
G36*
X57666993Y-169054887D02*
G01*
X57667911Y-169062438D01*
X57643870Y-169093112D01*
X57636319Y-169094030D01*
X57605645Y-169069989D01*
X57604727Y-169062438D01*
X57628768Y-169031764D01*
X57636319Y-169030846D01*
X57666993Y-169054887D01*
G37*
G36*
X75327861Y-169015050D02*
G01*
X75357999Y-169043439D01*
X75359453Y-169048506D01*
X75335011Y-169062076D01*
X75327861Y-169062438D01*
X75297483Y-169038152D01*
X75296269Y-169028982D01*
X75315624Y-169010114D01*
X75327861Y-169015050D01*
G37*
G36*
X63203822Y-166937824D02*
G01*
X63432270Y-167166273D01*
X63228429Y-167371942D01*
X63133215Y-167462862D01*
X63049829Y-167533215D01*
X62990976Y-167572675D01*
X62975374Y-167577612D01*
X62932486Y-167556291D01*
X62859078Y-167499210D01*
X62767856Y-167416696D01*
X62722319Y-167371942D01*
X62518477Y-167166273D01*
X62746925Y-166937824D01*
X62975374Y-166709376D01*
X63203822Y-166937824D01*
G37*
G36*
X62768870Y-168039832D02*
G01*
X62827251Y-168090147D01*
X62857191Y-168118225D01*
X63052659Y-168278366D01*
X63252236Y-168390349D01*
X63362376Y-168429401D01*
X63448861Y-168457075D01*
X63503091Y-168482209D01*
X63512438Y-168492380D01*
X63491599Y-168526795D01*
X63440700Y-168581662D01*
X63433458Y-168588557D01*
X63354478Y-168662755D01*
X63354478Y-169460422D01*
X63354478Y-170258088D01*
X63436266Y-170355288D01*
X63518055Y-170452488D01*
X63436266Y-170549688D01*
X63354478Y-170646888D01*
X63354478Y-171470272D01*
X63354674Y-171732898D01*
X63356328Y-171939165D01*
X63361045Y-172095899D01*
X63370425Y-172209926D01*
X63386072Y-172288071D01*
X63409589Y-172337160D01*
X63442576Y-172364018D01*
X63486637Y-172375471D01*
X63543375Y-172378344D01*
X63567724Y-172378597D01*
X63637666Y-172383236D01*
X63670117Y-172393181D01*
X63670398Y-172394271D01*
X63649787Y-172421632D01*
X63594184Y-172483768D01*
X63512938Y-172570437D01*
X63446893Y-172639109D01*
X63342913Y-172751191D01*
X63249100Y-172861219D01*
X63179298Y-172952560D01*
X63156747Y-172987749D01*
X63112057Y-173060218D01*
X63078630Y-173102099D01*
X63071440Y-173106219D01*
X63042767Y-173085186D01*
X62980186Y-173028418D01*
X62893907Y-172945416D01*
X62824521Y-172876434D01*
X62596269Y-172646649D01*
X62596269Y-171646768D01*
X62596269Y-170646888D01*
X62514481Y-170549688D01*
X62432692Y-170452488D01*
X62514481Y-170355288D01*
X62596269Y-170258088D01*
X62596269Y-169584285D01*
X62596269Y-168910482D01*
X62454105Y-168827168D01*
X62373305Y-168770956D01*
X62321803Y-168718101D01*
X62311941Y-168694195D01*
X62327864Y-168653119D01*
X62370300Y-168574445D01*
X62431245Y-168470837D01*
X62502699Y-168354959D01*
X62576658Y-168239475D01*
X62645122Y-168137048D01*
X62700088Y-168060344D01*
X62733554Y-168022026D01*
X62738006Y-168019901D01*
X62768870Y-168039832D01*
G37*
G36*
X65042367Y-167228980D02*
G01*
X65052464Y-167316055D01*
X65058645Y-167453215D01*
X65060448Y-167609204D01*
X65060448Y-168019901D01*
X65281592Y-168019901D01*
X65411945Y-168024998D01*
X65484032Y-168044588D01*
X65500273Y-168085117D01*
X65463088Y-168153032D01*
X65374896Y-168254779D01*
X65371229Y-168258697D01*
X65275444Y-168348710D01*
X65197054Y-168391962D01*
X65150085Y-168399005D01*
X65060448Y-168399005D01*
X65060448Y-169345005D01*
X65060448Y-170291004D01*
X65136136Y-170378996D01*
X65211823Y-170466989D01*
X65136136Y-170556938D01*
X65113251Y-170585356D01*
X65095517Y-170614855D01*
X65082278Y-170653363D01*
X65072878Y-170708808D01*
X65066658Y-170789117D01*
X65062961Y-170902217D01*
X65061132Y-171056035D01*
X65060514Y-171258499D01*
X65060448Y-171470272D01*
X65060644Y-171732898D01*
X65062298Y-171939165D01*
X65067015Y-172095899D01*
X65076395Y-172209926D01*
X65092043Y-172288071D01*
X65115559Y-172337160D01*
X65148546Y-172364018D01*
X65192607Y-172375471D01*
X65249345Y-172378344D01*
X65273694Y-172378597D01*
X65343627Y-172384721D01*
X65376086Y-172398282D01*
X65376369Y-172399786D01*
X65355842Y-172429501D01*
X65300285Y-172494263D01*
X65218736Y-172583836D01*
X65141587Y-172665712D01*
X65038448Y-172777811D01*
X64947706Y-172883964D01*
X64881396Y-172969690D01*
X64856447Y-173008837D01*
X64816847Y-173073848D01*
X64785996Y-173105169D01*
X64783207Y-173105689D01*
X64752386Y-173084682D01*
X64687524Y-173028454D01*
X64599240Y-172946479D01*
X64531282Y-172880900D01*
X64302239Y-172656641D01*
X64302082Y-171657238D01*
X64301925Y-170657836D01*
X64226507Y-170563574D01*
X64151088Y-170469312D01*
X64226664Y-170379496D01*
X64302239Y-170289680D01*
X64302239Y-169344342D01*
X64302239Y-168399005D01*
X64128483Y-168399005D01*
X64017947Y-168392622D01*
X63961167Y-168374306D01*
X63954727Y-168362281D01*
X63970772Y-168317209D01*
X64012181Y-168239340D01*
X64052796Y-168172729D01*
X64111955Y-168085886D01*
X64159607Y-168040267D01*
X64216348Y-168022677D01*
X64291305Y-168019901D01*
X64455303Y-167997067D01*
X64595863Y-167923625D01*
X64686342Y-167841067D01*
X64751037Y-167758960D01*
X64822748Y-167648114D01*
X64892285Y-167525501D01*
X64950455Y-167408093D01*
X64988069Y-167312861D01*
X64997264Y-167266966D01*
X65009574Y-167212832D01*
X65028856Y-167198508D01*
X65042367Y-167228980D01*
G37*
G36*
X73628271Y-168062812D02*
G01*
X73716680Y-168092935D01*
X73832763Y-168136592D01*
X73897020Y-168162065D01*
X74019242Y-168210300D01*
X74119403Y-168247876D01*
X74183087Y-168269479D01*
X74197031Y-168272637D01*
X74239265Y-168284492D01*
X74316227Y-168314463D01*
X74356750Y-168331884D01*
X74567045Y-168421351D01*
X74731176Y-168481951D01*
X74858112Y-168515684D01*
X74956818Y-168524553D01*
X75036263Y-168510557D01*
X75077202Y-168492670D01*
X75122327Y-168473931D01*
X75134687Y-168489292D01*
X75115123Y-168546920D01*
X75088704Y-168604562D01*
X75023888Y-168692700D01*
X74944060Y-168748463D01*
X74891917Y-168773261D01*
X74864712Y-168804251D01*
X74856074Y-168859258D01*
X74859630Y-168956106D01*
X74861140Y-168980420D01*
X74871245Y-169091533D01*
X74884954Y-169181323D01*
X74896079Y-169221744D01*
X74895646Y-169255784D01*
X74853278Y-169288721D01*
X74759364Y-169327834D01*
X74752940Y-169330155D01*
X74628616Y-169395945D01*
X74474498Y-169513679D01*
X74293146Y-169681029D01*
X74087121Y-169895666D01*
X73905375Y-170100884D01*
X73718143Y-170294908D01*
X73537058Y-170432106D01*
X73355381Y-170517509D01*
X73341478Y-170521987D01*
X73210125Y-170562982D01*
X73218558Y-171331456D01*
X73226990Y-172099930D01*
X73590299Y-172226566D01*
X73776544Y-172292116D01*
X73910758Y-172337807D01*
X74001378Y-172362099D01*
X74056843Y-172363455D01*
X74085590Y-172340337D01*
X74096059Y-172291207D01*
X74096686Y-172214525D01*
X74095772Y-172134417D01*
X74091878Y-171991144D01*
X74079019Y-171899763D01*
X74055429Y-171849395D01*
X74048383Y-171842538D01*
X74009280Y-171801626D01*
X74015077Y-171771477D01*
X74072287Y-171743117D01*
X74135262Y-171722848D01*
X74202294Y-171695240D01*
X74275860Y-171647503D01*
X74365091Y-171572115D01*
X74479121Y-171461552D01*
X74585620Y-171351848D01*
X74711934Y-171223975D01*
X74821023Y-171121822D01*
X74905147Y-171052194D01*
X74956566Y-171021896D01*
X74961723Y-171021145D01*
X75002264Y-171026550D01*
X74993077Y-171053560D01*
X74974251Y-171076431D01*
X74937537Y-171125290D01*
X74910253Y-171181046D01*
X74890507Y-171254380D01*
X74876408Y-171355974D01*
X74866064Y-171496510D01*
X74857584Y-171686668D01*
X74855373Y-171747761D01*
X74838184Y-172237438D01*
X74759204Y-172246805D01*
X74555080Y-172298701D01*
X74348160Y-172399911D01*
X74153324Y-172539088D01*
X73985449Y-172704885D01*
X73859415Y-172885956D01*
X73824121Y-172959947D01*
X73778892Y-173047889D01*
X73734426Y-173098297D01*
X73716667Y-173104590D01*
X73668011Y-173092882D01*
X73576366Y-173062589D01*
X73457237Y-173019016D01*
X73384951Y-172991051D01*
X73113509Y-172884207D01*
X72894180Y-172798863D01*
X72720365Y-172733170D01*
X72585465Y-172685280D01*
X72482879Y-172653344D01*
X72406010Y-172635515D01*
X72348257Y-172629942D01*
X72303022Y-172634779D01*
X72263706Y-172648177D01*
X72226775Y-172666642D01*
X72181587Y-172685298D01*
X72175995Y-172660924D01*
X72185330Y-172627152D01*
X72232368Y-172526291D01*
X72311946Y-172453762D01*
X72363806Y-172424096D01*
X72452985Y-172377980D01*
X72452985Y-171514318D01*
X72452985Y-170650656D01*
X72369079Y-170566750D01*
X72285173Y-170482843D01*
X72361181Y-170402017D01*
X72385927Y-170373776D01*
X72404850Y-170342823D01*
X72418967Y-170300491D01*
X72429298Y-170238116D01*
X72436861Y-170147034D01*
X72442673Y-170018578D01*
X72447752Y-169844086D01*
X72452985Y-169620732D01*
X72457395Y-169425185D01*
X73211060Y-169425185D01*
X73211194Y-169599503D01*
X73212346Y-169859497D01*
X73215694Y-170075282D01*
X73221079Y-170242592D01*
X73228342Y-170357162D01*
X73237325Y-170414726D01*
X73241826Y-170420896D01*
X73286632Y-170406510D01*
X73361266Y-170370580D01*
X73387755Y-170356136D01*
X73583327Y-170220487D01*
X73769676Y-170044345D01*
X73930143Y-169845969D01*
X74048072Y-169643616D01*
X74057812Y-169621710D01*
X74079504Y-169539288D01*
X74091986Y-169427314D01*
X74095312Y-169304962D01*
X74089536Y-169191405D01*
X74074711Y-169105817D01*
X74056282Y-169070298D01*
X74007630Y-169044314D01*
X73918521Y-169006777D01*
X73811443Y-168966964D01*
X73680584Y-168919523D01*
X73550933Y-168869883D01*
X73469210Y-168836605D01*
X73392797Y-168803276D01*
X73333127Y-168780405D01*
X73288139Y-168774086D01*
X73255770Y-168790417D01*
X73233959Y-168835494D01*
X73220645Y-168915413D01*
X73213765Y-169036270D01*
X73211257Y-169204162D01*
X73211060Y-169425185D01*
X72457395Y-169425185D01*
X72468782Y-168920274D01*
X72547762Y-168910907D01*
X72751598Y-168859210D01*
X72958329Y-168758531D01*
X73152967Y-168620253D01*
X73320522Y-168455760D01*
X73446006Y-168276435D01*
X73481647Y-168201673D01*
X73523686Y-168116277D01*
X73564178Y-168061916D01*
X73582858Y-168051611D01*
X73628271Y-168062812D01*
G37*
G36*
X81336728Y-168062812D02*
G01*
X81425138Y-168092935D01*
X81541220Y-168136592D01*
X81605477Y-168162065D01*
X81727700Y-168210300D01*
X81827860Y-168247876D01*
X81891544Y-168269479D01*
X81905489Y-168272637D01*
X81947722Y-168284492D01*
X82024685Y-168314463D01*
X82065208Y-168331884D01*
X82275503Y-168421351D01*
X82439634Y-168481951D01*
X82566569Y-168515684D01*
X82665276Y-168524553D01*
X82744721Y-168510557D01*
X82785659Y-168492670D01*
X82830784Y-168473931D01*
X82843145Y-168489292D01*
X82823581Y-168546920D01*
X82797162Y-168604562D01*
X82732345Y-168692700D01*
X82652517Y-168748463D01*
X82600374Y-168773261D01*
X82573170Y-168804251D01*
X82564531Y-168859258D01*
X82568088Y-168956106D01*
X82569598Y-168980420D01*
X82579703Y-169091533D01*
X82593411Y-169181323D01*
X82604536Y-169221744D01*
X82604104Y-169255784D01*
X82561736Y-169288721D01*
X82467822Y-169327834D01*
X82461398Y-169330155D01*
X82337074Y-169395945D01*
X82182956Y-169513679D01*
X82001604Y-169681029D01*
X81795579Y-169895666D01*
X81613833Y-170100884D01*
X81426601Y-170294908D01*
X81245515Y-170432106D01*
X81063839Y-170517509D01*
X81049936Y-170521987D01*
X80918583Y-170562982D01*
X80927015Y-171331456D01*
X80935448Y-172099930D01*
X81298757Y-172226566D01*
X81485002Y-172292116D01*
X81619215Y-172337807D01*
X81709835Y-172362099D01*
X81765300Y-172363455D01*
X81794048Y-172340337D01*
X81804516Y-172291207D01*
X81805144Y-172214525D01*
X81804229Y-172134417D01*
X81800336Y-171991144D01*
X81787477Y-171899763D01*
X81763887Y-171849395D01*
X81756841Y-171842538D01*
X81717738Y-171801626D01*
X81723534Y-171771477D01*
X81780745Y-171743117D01*
X81843719Y-171722848D01*
X81910751Y-171695240D01*
X81984317Y-171647503D01*
X82073549Y-171572115D01*
X82187578Y-171461552D01*
X82294078Y-171351848D01*
X82420392Y-171223975D01*
X82529481Y-171121822D01*
X82613605Y-171052194D01*
X82665023Y-171021896D01*
X82670181Y-171021145D01*
X82710722Y-171026550D01*
X82701535Y-171053560D01*
X82682709Y-171076431D01*
X82645995Y-171125290D01*
X82618711Y-171181046D01*
X82598965Y-171254380D01*
X82584866Y-171355974D01*
X82574522Y-171496510D01*
X82566042Y-171686668D01*
X82563831Y-171747761D01*
X82546642Y-172237438D01*
X82467662Y-172246805D01*
X82263538Y-172298701D01*
X82056618Y-172399911D01*
X81861781Y-172539088D01*
X81693907Y-172704885D01*
X81567873Y-172885956D01*
X81532578Y-172959947D01*
X81487350Y-173047889D01*
X81442883Y-173098297D01*
X81425125Y-173104590D01*
X81376468Y-173092882D01*
X81284824Y-173062589D01*
X81165695Y-173019016D01*
X81093408Y-172991051D01*
X80821967Y-172884207D01*
X80602638Y-172798863D01*
X80428823Y-172733170D01*
X80293922Y-172685280D01*
X80191337Y-172653344D01*
X80114467Y-172635515D01*
X80056715Y-172629942D01*
X80011480Y-172634779D01*
X79972164Y-172648177D01*
X79935233Y-172666642D01*
X79890044Y-172685298D01*
X79884453Y-172660924D01*
X79893788Y-172627152D01*
X79940825Y-172526291D01*
X80020404Y-172453762D01*
X80072264Y-172424096D01*
X80161443Y-172377980D01*
X80161443Y-171514318D01*
X80161443Y-170650656D01*
X80077537Y-170566750D01*
X79993631Y-170482843D01*
X80069639Y-170402017D01*
X80094385Y-170373776D01*
X80113307Y-170342823D01*
X80127425Y-170300491D01*
X80137756Y-170238116D01*
X80145318Y-170147034D01*
X80151130Y-170018578D01*
X80156210Y-169844086D01*
X80161443Y-169620732D01*
X80165853Y-169425185D01*
X80919518Y-169425185D01*
X80919652Y-169599503D01*
X80920803Y-169859497D01*
X80924151Y-170075282D01*
X80929536Y-170242592D01*
X80936800Y-170357162D01*
X80945783Y-170414726D01*
X80950283Y-170420896D01*
X80995090Y-170406510D01*
X81069724Y-170370580D01*
X81096213Y-170356136D01*
X81291785Y-170220487D01*
X81478133Y-170044345D01*
X81638601Y-169845969D01*
X81756529Y-169643616D01*
X81766270Y-169621710D01*
X81787961Y-169539288D01*
X81800444Y-169427314D01*
X81803770Y-169304962D01*
X81797994Y-169191405D01*
X81783169Y-169105817D01*
X81764739Y-169070298D01*
X81716088Y-169044314D01*
X81626979Y-169006777D01*
X81519901Y-168966964D01*
X81389042Y-168919523D01*
X81259391Y-168869883D01*
X81177667Y-168836605D01*
X81101254Y-168803276D01*
X81041585Y-168780405D01*
X80996596Y-168774086D01*
X80964228Y-168790417D01*
X80942417Y-168835494D01*
X80929103Y-168915413D01*
X80922222Y-169036270D01*
X80919715Y-169204162D01*
X80919518Y-169425185D01*
X80165853Y-169425185D01*
X80177239Y-168920274D01*
X80256219Y-168910907D01*
X80460056Y-168859210D01*
X80666787Y-168758531D01*
X80861425Y-168620253D01*
X81028980Y-168455760D01*
X81154463Y-168276435D01*
X81190104Y-168201673D01*
X81232143Y-168116277D01*
X81272636Y-168061916D01*
X81291316Y-168051611D01*
X81336728Y-168062812D01*
G37*
G36*
X71091836Y-168072905D02*
G01*
X71151105Y-168125405D01*
X71160103Y-168134970D01*
X71269398Y-168235159D01*
X71401068Y-168328003D01*
X71537308Y-168403302D01*
X71660313Y-168450856D01*
X71731266Y-168462189D01*
X71819237Y-168471142D01*
X71847926Y-168500013D01*
X71818303Y-168551820D01*
X71773757Y-168594464D01*
X71694777Y-168663136D01*
X71694293Y-169281381D01*
X71693003Y-169474060D01*
X71689697Y-169645816D01*
X71684746Y-169786363D01*
X71678524Y-169885414D01*
X71671405Y-169932680D01*
X71670599Y-169934253D01*
X71624469Y-169967451D01*
X71565503Y-169988888D01*
X71502000Y-170016584D01*
X71406581Y-170072218D01*
X71297293Y-170145053D01*
X71269547Y-170164963D01*
X71055475Y-170321029D01*
X71182636Y-170385902D01*
X71401198Y-170483903D01*
X71580007Y-170534325D01*
X71720534Y-170537474D01*
X71794619Y-170512960D01*
X71839807Y-170494305D01*
X71845398Y-170518678D01*
X71836064Y-170552450D01*
X71787812Y-170655173D01*
X71706613Y-170724556D01*
X71667035Y-170745337D01*
X71584204Y-170785017D01*
X71575725Y-171538912D01*
X71573183Y-171790246D01*
X71573055Y-171985501D01*
X71577084Y-172131780D01*
X71587011Y-172236184D01*
X71604577Y-172305814D01*
X71631524Y-172347774D01*
X71669594Y-172369163D01*
X71720529Y-172377085D01*
X71781655Y-172378597D01*
X71851596Y-172383369D01*
X71884048Y-172393640D01*
X71884329Y-172394767D01*
X71863886Y-172422774D01*
X71809279Y-172484633D01*
X71730587Y-172569089D01*
X71693338Y-172608013D01*
X71589755Y-172721309D01*
X71490112Y-172840169D01*
X71413394Y-172941772D01*
X71403689Y-172956157D01*
X71347015Y-173037654D01*
X71303192Y-173092153D01*
X71285867Y-173106219D01*
X71256973Y-173085182D01*
X71194224Y-173028415D01*
X71107867Y-172945433D01*
X71039020Y-172877007D01*
X70811337Y-172647794D01*
X70802870Y-171863108D01*
X70794403Y-171078421D01*
X70683831Y-171037250D01*
X70597933Y-171004781D01*
X70478903Y-170959191D01*
X70352465Y-170910331D01*
X70352115Y-170910195D01*
X70233831Y-170865797D01*
X70130391Y-170829675D01*
X70062905Y-170809175D01*
X70059888Y-170808474D01*
X69988806Y-170792634D01*
X69988806Y-171536939D01*
X69988970Y-171772445D01*
X69989934Y-171952788D01*
X69992408Y-172085990D01*
X69997103Y-172180073D01*
X70004727Y-172243057D01*
X70015991Y-172282965D01*
X70031604Y-172307817D01*
X70052277Y-172325635D01*
X70059020Y-172330423D01*
X70145823Y-172368519D01*
X70216980Y-172379602D01*
X70280481Y-172384328D01*
X70304727Y-172394767D01*
X70284284Y-172422774D01*
X70229677Y-172484633D01*
X70150985Y-172569089D01*
X70113736Y-172608013D01*
X70010153Y-172721309D01*
X69910510Y-172840169D01*
X69833792Y-172941772D01*
X69824087Y-172956157D01*
X69767413Y-173037654D01*
X69723590Y-173092153D01*
X69706265Y-173106219D01*
X69677379Y-173085181D01*
X69614621Y-173028401D01*
X69528224Y-172945382D01*
X69458849Y-172876434D01*
X69230597Y-172646649D01*
X69230597Y-171852232D01*
X69230597Y-171057814D01*
X69386596Y-171006000D01*
X69474509Y-170966944D01*
X69574684Y-170908092D01*
X69671690Y-170840556D01*
X69750097Y-170775445D01*
X69794475Y-170723870D01*
X69799254Y-170708873D01*
X69771494Y-170684050D01*
X69697217Y-170645491D01*
X69589933Y-170599196D01*
X69463148Y-170551163D01*
X69381851Y-170523521D01*
X69288449Y-170496406D01*
X69228980Y-170492363D01*
X69178374Y-170511858D01*
X69152809Y-170527782D01*
X69091275Y-170558081D01*
X69067246Y-170548184D01*
X69077925Y-170506558D01*
X69120511Y-170441667D01*
X69192206Y-170361975D01*
X69214801Y-170340310D01*
X69356966Y-170207921D01*
X69356966Y-169575629D01*
X69356966Y-168943337D01*
X69270087Y-168888134D01*
X69182999Y-168826626D01*
X69114180Y-168770350D01*
X69045151Y-168707769D01*
X69159175Y-168529693D01*
X69234048Y-168412852D01*
X69309233Y-168295673D01*
X69354483Y-168225249D01*
X69408977Y-168145608D01*
X69453364Y-168089447D01*
X69466255Y-168077077D01*
X69503839Y-168084920D01*
X69572743Y-168126562D01*
X69655896Y-168191223D01*
X69823580Y-168324786D01*
X69960503Y-168411420D01*
X70073482Y-168454989D01*
X70133603Y-168462071D01*
X70222483Y-168470694D01*
X70252620Y-168499555D01*
X70226571Y-168553576D01*
X70198172Y-168586367D01*
X70172133Y-168616567D01*
X70152582Y-168649857D01*
X70138317Y-168695574D01*
X70128138Y-168763057D01*
X70120842Y-168861641D01*
X70115229Y-169000663D01*
X70110096Y-169189462D01*
X70107711Y-169289416D01*
X70104138Y-169482036D01*
X70102773Y-169653199D01*
X70103549Y-169792812D01*
X70106398Y-169890779D01*
X70111254Y-169937008D01*
X70112034Y-169938699D01*
X70153814Y-169969713D01*
X70238823Y-170014148D01*
X70353052Y-170066371D01*
X70482491Y-170120745D01*
X70613131Y-170171637D01*
X70730962Y-170213410D01*
X70821974Y-170240429D01*
X70872159Y-170247061D01*
X70875542Y-170245806D01*
X70884783Y-170209713D01*
X70892780Y-170119493D01*
X70899122Y-169984199D01*
X70903399Y-169812882D01*
X70905202Y-169614593D01*
X70905233Y-169589740D01*
X70905490Y-168951866D01*
X70765724Y-168825498D01*
X70625959Y-168699130D01*
X70820739Y-168375311D01*
X70899088Y-168249520D01*
X70968351Y-168146526D01*
X71021009Y-168076970D01*
X71049516Y-168051493D01*
X71091836Y-168072905D01*
G37*
G36*
X85181886Y-168072905D02*
G01*
X85241154Y-168125405D01*
X85250153Y-168134970D01*
X85359447Y-168235159D01*
X85491117Y-168328003D01*
X85627358Y-168403302D01*
X85750363Y-168450856D01*
X85821316Y-168462189D01*
X85909287Y-168471142D01*
X85937975Y-168500013D01*
X85908353Y-168551820D01*
X85863806Y-168594464D01*
X85784826Y-168663136D01*
X85784343Y-169281381D01*
X85783053Y-169474060D01*
X85779746Y-169645816D01*
X85774795Y-169786363D01*
X85768574Y-169885414D01*
X85761455Y-169932680D01*
X85760648Y-169934253D01*
X85714518Y-169967451D01*
X85655553Y-169988888D01*
X85592050Y-170016584D01*
X85496631Y-170072218D01*
X85387343Y-170145053D01*
X85359596Y-170164963D01*
X85145525Y-170321029D01*
X85272686Y-170385902D01*
X85491247Y-170483903D01*
X85670057Y-170534325D01*
X85810584Y-170537474D01*
X85884669Y-170512960D01*
X85929857Y-170494305D01*
X85935448Y-170518678D01*
X85926113Y-170552450D01*
X85877862Y-170655173D01*
X85796662Y-170724556D01*
X85757085Y-170745337D01*
X85674254Y-170785017D01*
X85665775Y-171538912D01*
X85663233Y-171790246D01*
X85663105Y-171985501D01*
X85667134Y-172131780D01*
X85677060Y-172236184D01*
X85694626Y-172305814D01*
X85721574Y-172347774D01*
X85759644Y-172369163D01*
X85810579Y-172377085D01*
X85871704Y-172378597D01*
X85941646Y-172383369D01*
X85974097Y-172393640D01*
X85974379Y-172394767D01*
X85953936Y-172422774D01*
X85899329Y-172484633D01*
X85820637Y-172569089D01*
X85783387Y-172608013D01*
X85679805Y-172721309D01*
X85580162Y-172840169D01*
X85503444Y-172941772D01*
X85493738Y-172956157D01*
X85437065Y-173037654D01*
X85393241Y-173092153D01*
X85375917Y-173106219D01*
X85347023Y-173085182D01*
X85284274Y-173028415D01*
X85197916Y-172945433D01*
X85129070Y-172877007D01*
X84901387Y-172647794D01*
X84892920Y-171863108D01*
X84884453Y-171078421D01*
X84773881Y-171037250D01*
X84687983Y-171004781D01*
X84568952Y-170959191D01*
X84442515Y-170910331D01*
X84442165Y-170910195D01*
X84323880Y-170865797D01*
X84220441Y-170829675D01*
X84152955Y-170809175D01*
X84149938Y-170808474D01*
X84078856Y-170792634D01*
X84078856Y-171536939D01*
X84079020Y-171772445D01*
X84079984Y-171952788D01*
X84082458Y-172085990D01*
X84087152Y-172180073D01*
X84094777Y-172243057D01*
X84106041Y-172282965D01*
X84121654Y-172307817D01*
X84142326Y-172325635D01*
X84149070Y-172330423D01*
X84235873Y-172368519D01*
X84307030Y-172379602D01*
X84370531Y-172384328D01*
X84394777Y-172394767D01*
X84374334Y-172422774D01*
X84319727Y-172484633D01*
X84241035Y-172569089D01*
X84203785Y-172608013D01*
X84100203Y-172721309D01*
X84000560Y-172840169D01*
X83923842Y-172941772D01*
X83914136Y-172956157D01*
X83857463Y-173037654D01*
X83813639Y-173092153D01*
X83796315Y-173106219D01*
X83767429Y-173085181D01*
X83704671Y-173028401D01*
X83618274Y-172945382D01*
X83548899Y-172876434D01*
X83320647Y-172646649D01*
X83320647Y-171852232D01*
X83320647Y-171057814D01*
X83476646Y-171006000D01*
X83564559Y-170966944D01*
X83664734Y-170908092D01*
X83761740Y-170840556D01*
X83840147Y-170775445D01*
X83884525Y-170723870D01*
X83889304Y-170708873D01*
X83861543Y-170684050D01*
X83787267Y-170645491D01*
X83679982Y-170599196D01*
X83553197Y-170551163D01*
X83471901Y-170523521D01*
X83378499Y-170496406D01*
X83319029Y-170492363D01*
X83268424Y-170511858D01*
X83242859Y-170527782D01*
X83181324Y-170558081D01*
X83157296Y-170548184D01*
X83167975Y-170506558D01*
X83210561Y-170441667D01*
X83282256Y-170361975D01*
X83304851Y-170340310D01*
X83447015Y-170207921D01*
X83447015Y-169575629D01*
X83447015Y-168943337D01*
X83360137Y-168888134D01*
X83273049Y-168826626D01*
X83204230Y-168770350D01*
X83135201Y-168707769D01*
X83249225Y-168529693D01*
X83324098Y-168412852D01*
X83399283Y-168295673D01*
X83444533Y-168225249D01*
X83499026Y-168145608D01*
X83543414Y-168089447D01*
X83556305Y-168077077D01*
X83593889Y-168084920D01*
X83662792Y-168126562D01*
X83745946Y-168191223D01*
X83913630Y-168324786D01*
X84050552Y-168411420D01*
X84163531Y-168454989D01*
X84223653Y-168462071D01*
X84312533Y-168470694D01*
X84342670Y-168499555D01*
X84316621Y-168553576D01*
X84288222Y-168586367D01*
X84262182Y-168616567D01*
X84242631Y-168649857D01*
X84228367Y-168695574D01*
X84218187Y-168763057D01*
X84210892Y-168861641D01*
X84205278Y-169000663D01*
X84200146Y-169189462D01*
X84197761Y-169289416D01*
X84194188Y-169482036D01*
X84192823Y-169653199D01*
X84193599Y-169792812D01*
X84196448Y-169890779D01*
X84201303Y-169937008D01*
X84202084Y-169938699D01*
X84243864Y-169969713D01*
X84328873Y-170014148D01*
X84443101Y-170066371D01*
X84572540Y-170120745D01*
X84703180Y-170171637D01*
X84821011Y-170213410D01*
X84912024Y-170240429D01*
X84962209Y-170247061D01*
X84965591Y-170245806D01*
X84974833Y-170209713D01*
X84982830Y-170119493D01*
X84989172Y-169984199D01*
X84993449Y-169812882D01*
X84995252Y-169614593D01*
X84995282Y-169589740D01*
X84995539Y-168951866D01*
X84855774Y-168825498D01*
X84716008Y-168699130D01*
X84910788Y-168375311D01*
X84989138Y-168249520D01*
X85058401Y-168146526D01*
X85111059Y-168076970D01*
X85139566Y-168051493D01*
X85181886Y-168072905D01*
G37*
G36*
X67183482Y-168063469D02*
G01*
X67271867Y-168093182D01*
X67387921Y-168136598D01*
X67452244Y-168162065D01*
X67574466Y-168210300D01*
X67674627Y-168247876D01*
X67738311Y-168269479D01*
X67752255Y-168272637D01*
X67794489Y-168284492D01*
X67871451Y-168314463D01*
X67911974Y-168331884D01*
X68121535Y-168421095D01*
X68285015Y-168481571D01*
X68411535Y-168515318D01*
X68510214Y-168524344D01*
X68590173Y-168510654D01*
X68635415Y-168491070D01*
X68680603Y-168472414D01*
X68686194Y-168496787D01*
X68676860Y-168530560D01*
X68628608Y-168633283D01*
X68547408Y-168702666D01*
X68507831Y-168723445D01*
X68425000Y-168763125D01*
X68416510Y-169501373D01*
X68408020Y-170239622D01*
X68493677Y-170351925D01*
X68544997Y-170431729D01*
X68547997Y-170472850D01*
X68540993Y-170477008D01*
X68500647Y-170512021D01*
X68456695Y-170578666D01*
X68455928Y-170580141D01*
X68440948Y-170620614D01*
X68429383Y-170681933D01*
X68420845Y-170771500D01*
X68414949Y-170896720D01*
X68411309Y-171064996D01*
X68409539Y-171283730D01*
X68409204Y-171475869D01*
X68409341Y-171721948D01*
X68410170Y-171912516D01*
X68412323Y-172055245D01*
X68416429Y-172157808D01*
X68423120Y-172227878D01*
X68433025Y-172273127D01*
X68446776Y-172301228D01*
X68465002Y-172319853D01*
X68479418Y-172330423D01*
X68566221Y-172368519D01*
X68637378Y-172379602D01*
X68700880Y-172384170D01*
X68725125Y-172394261D01*
X68704589Y-172421806D01*
X68649439Y-172483716D01*
X68569362Y-172569304D01*
X68517522Y-172623303D01*
X68414026Y-172736026D01*
X68318123Y-172850648D01*
X68245809Y-172947714D01*
X68228646Y-172974589D01*
X68147374Y-173111492D01*
X67900038Y-172865607D01*
X67652702Y-172619721D01*
X67580321Y-172687720D01*
X67526177Y-172752984D01*
X67461610Y-172850847D01*
X67416252Y-172930969D01*
X67363389Y-173022119D01*
X67317048Y-173084928D01*
X67290330Y-173104680D01*
X67245391Y-173093012D01*
X67160172Y-173063862D01*
X67052945Y-173023489D01*
X67050747Y-173022628D01*
X66916362Y-172970524D01*
X66755907Y-172909153D01*
X66602560Y-172851200D01*
X66592662Y-172847492D01*
X66451756Y-172794425D01*
X66311446Y-172741070D01*
X66198925Y-172697775D01*
X66185651Y-172692603D01*
X66003207Y-172640682D01*
X65855320Y-172640794D01*
X65781999Y-172666642D01*
X65736811Y-172685298D01*
X65731219Y-172660924D01*
X65740554Y-172627152D01*
X65787592Y-172526291D01*
X65867170Y-172453762D01*
X65919030Y-172424096D01*
X66008209Y-172377980D01*
X66008209Y-171877176D01*
X66004592Y-171630697D01*
X66000828Y-171568878D01*
X66766418Y-171568878D01*
X66768165Y-171775918D01*
X66773706Y-171925752D01*
X66783487Y-172024273D01*
X66797959Y-172077371D01*
X66805908Y-172087847D01*
X66851449Y-172111180D01*
X66942019Y-172148131D01*
X67062563Y-172192770D01*
X67145523Y-172221628D01*
X67278098Y-172267689D01*
X67391168Y-172308917D01*
X67469226Y-172339556D01*
X67493035Y-172350594D01*
X67567329Y-172375585D01*
X67595709Y-172378642D01*
X67611134Y-172375330D01*
X67623401Y-172360506D01*
X67632869Y-172327729D01*
X67639897Y-172270559D01*
X67644844Y-172182556D01*
X67648069Y-172057280D01*
X67649929Y-171888290D01*
X67650785Y-171669146D01*
X67650995Y-171393407D01*
X67650995Y-171386317D01*
X67650021Y-171097288D01*
X67647181Y-170850834D01*
X67642604Y-170651102D01*
X67636415Y-170502243D01*
X67628741Y-170408405D01*
X67620053Y-170373909D01*
X67551961Y-170364766D01*
X67450846Y-170390368D01*
X67330751Y-170443301D01*
X67205716Y-170516154D01*
X67089783Y-170601512D01*
X66996993Y-170691963D01*
X66981779Y-170710887D01*
X66903603Y-170818470D01*
X66846911Y-170913704D01*
X66808302Y-171010151D01*
X66784371Y-171121369D01*
X66771714Y-171260919D01*
X66766929Y-171442360D01*
X66766418Y-171568878D01*
X66000828Y-171568878D01*
X65993020Y-171440637D01*
X65972414Y-171300605D01*
X65941694Y-171204211D01*
X65899781Y-171145064D01*
X65882320Y-171132012D01*
X65850409Y-171093170D01*
X65873628Y-171062415D01*
X65928044Y-171052737D01*
X66042517Y-171033640D01*
X66189888Y-170981568D01*
X66354814Y-170904348D01*
X66521950Y-170809808D01*
X66675952Y-170705774D01*
X66785448Y-170615371D01*
X66838258Y-170572607D01*
X66927657Y-170506496D01*
X67037660Y-170428738D01*
X67083246Y-170397407D01*
X67226927Y-170306117D01*
X67343298Y-170249507D01*
X67451126Y-170219018D01*
X67486691Y-170213407D01*
X67652389Y-170191427D01*
X67643794Y-169621281D01*
X67635199Y-169051135D01*
X67556219Y-169028215D01*
X67491422Y-169006821D01*
X67386395Y-168969432D01*
X67259866Y-168922767D01*
X67208707Y-168903495D01*
X67077767Y-168855767D01*
X66959676Y-168816099D01*
X66873700Y-168790843D01*
X66853296Y-168786317D01*
X66766418Y-168770938D01*
X66766894Y-169193119D01*
X66771221Y-169420202D01*
X66784691Y-169595030D01*
X66808905Y-169728080D01*
X66845463Y-169829828D01*
X66871213Y-169875933D01*
X66873199Y-169909347D01*
X66845827Y-169915423D01*
X66815339Y-169909804D01*
X66778664Y-169888300D01*
X66728485Y-169843947D01*
X66657485Y-169769778D01*
X66558349Y-169658825D01*
X66470374Y-169557941D01*
X66330895Y-169413925D01*
X66195516Y-169305234D01*
X66073961Y-169238703D01*
X65990292Y-169220398D01*
X65954579Y-169205134D01*
X65962255Y-169165112D01*
X65983799Y-169094508D01*
X66000620Y-169007700D01*
X66020999Y-168935193D01*
X66069085Y-168894553D01*
X66130072Y-168873610D01*
X66218606Y-168852247D01*
X66285948Y-168841466D01*
X66292538Y-168841173D01*
X66363419Y-168821080D01*
X66465495Y-168768444D01*
X66583217Y-168693235D01*
X66701033Y-168605423D01*
X66803397Y-168514977D01*
X66807179Y-168511216D01*
X66899705Y-168404601D01*
X66984062Y-168284009D01*
X67024751Y-168210556D01*
X67072186Y-168123582D01*
X67116195Y-168066200D01*
X67138082Y-168052788D01*
X67183482Y-168063469D01*
G37*
G36*
X76840798Y-166722538D02*
G01*
X76909651Y-166783179D01*
X77008082Y-166872914D01*
X77128061Y-166984441D01*
X77236064Y-167086245D01*
X77634080Y-167463658D01*
X77634080Y-168706119D01*
X77634080Y-169948579D01*
X77720958Y-169983151D01*
X77856370Y-170035028D01*
X78004200Y-170088407D01*
X78152206Y-170139275D01*
X78288146Y-170183624D01*
X78399777Y-170217441D01*
X78474860Y-170236716D01*
X78500822Y-170238648D01*
X78504643Y-170204236D01*
X78508180Y-170113318D01*
X78511343Y-169972572D01*
X78514044Y-169788677D01*
X78516194Y-169568312D01*
X78517703Y-169318153D01*
X78518483Y-169044880D01*
X78518572Y-168907111D01*
X78518486Y-167593408D01*
X78402753Y-167530224D01*
X78318559Y-167480453D01*
X78268412Y-167434206D01*
X78252780Y-167380551D01*
X78272126Y-167308559D01*
X78326917Y-167207302D01*
X78417616Y-167065848D01*
X78422857Y-167057897D01*
X78504439Y-166936075D01*
X78574759Y-166834595D01*
X78625883Y-166764678D01*
X78649062Y-166737928D01*
X78683818Y-166748811D01*
X78755414Y-166791260D01*
X78851283Y-166857456D01*
X78903219Y-166896119D01*
X79051420Y-167000297D01*
X79170860Y-167063203D01*
X79267849Y-167090604D01*
X79369835Y-167111241D01*
X79413293Y-167138323D01*
X79402871Y-167179348D01*
X79354872Y-167231014D01*
X79276866Y-167304298D01*
X79276866Y-168750538D01*
X79277455Y-169133568D01*
X79279266Y-169456247D01*
X79282367Y-169721398D01*
X79286825Y-169931842D01*
X79292707Y-170090404D01*
X79300082Y-170199905D01*
X79309016Y-170263169D01*
X79313299Y-170276740D01*
X79368975Y-170348200D01*
X79439667Y-170396510D01*
X79510315Y-170434057D01*
X79521267Y-170465541D01*
X79473353Y-170503045D01*
X79447927Y-170517114D01*
X79397379Y-170547948D01*
X79357858Y-170585061D01*
X79328021Y-170636102D01*
X79306521Y-170708720D01*
X79292012Y-170810564D01*
X79283150Y-170949283D01*
X79278589Y-171132526D01*
X79276983Y-171367942D01*
X79276866Y-171489588D01*
X79277136Y-171742004D01*
X79279199Y-171938219D01*
X79284929Y-172085215D01*
X79296205Y-172189977D01*
X79314902Y-172259487D01*
X79342898Y-172300728D01*
X79382068Y-172320683D01*
X79434289Y-172326336D01*
X79501281Y-172324675D01*
X79579188Y-172324296D01*
X79621714Y-172329395D01*
X79624379Y-172331771D01*
X79603712Y-172358013D01*
X79548328Y-172418314D01*
X79468147Y-172502014D01*
X79421921Y-172549246D01*
X79315141Y-172663202D01*
X79212192Y-172782513D01*
X79131601Y-172885477D01*
X79116677Y-172906774D01*
X79060164Y-172990212D01*
X79019833Y-173049450D01*
X79006537Y-173068672D01*
X78982437Y-173052157D01*
X78922744Y-172999847D01*
X78836902Y-172920262D01*
X78751022Y-172838108D01*
X78593622Y-172692303D01*
X78467719Y-172591734D01*
X78366232Y-172531600D01*
X78282078Y-172507099D01*
X78261067Y-172505970D01*
X78212386Y-172494590D01*
X78202737Y-172480725D01*
X78229725Y-172454378D01*
X78295369Y-172422972D01*
X78376690Y-172395348D01*
X78450706Y-172380345D01*
X78465614Y-172379602D01*
X78480755Y-172375230D01*
X78492728Y-172357741D01*
X78501898Y-172320576D01*
X78508633Y-172257176D01*
X78513301Y-172160981D01*
X78516268Y-172025433D01*
X78517901Y-171843973D01*
X78518568Y-171610042D01*
X78518657Y-171431841D01*
X78518063Y-171148235D01*
X78516141Y-170922639D01*
X78512678Y-170749892D01*
X78507464Y-170624829D01*
X78500288Y-170542287D01*
X78490937Y-170497104D01*
X78479862Y-170484080D01*
X78442927Y-170505857D01*
X78377712Y-170562365D01*
X78297066Y-170640365D01*
X78213834Y-170726619D01*
X78140864Y-170807890D01*
X78091001Y-170870940D01*
X78076369Y-170899852D01*
X78051533Y-170924489D01*
X77983310Y-170916008D01*
X77881130Y-170875972D01*
X77855224Y-170863184D01*
X77795206Y-170831835D01*
X77747124Y-170809331D01*
X77709660Y-170801319D01*
X77681496Y-170813450D01*
X77661314Y-170851372D01*
X77647796Y-170920734D01*
X77639622Y-171027184D01*
X77635476Y-171176372D01*
X77634037Y-171373946D01*
X77633990Y-171625556D01*
X77634080Y-171810784D01*
X77634080Y-172821567D01*
X77771758Y-172886283D01*
X77887380Y-172949836D01*
X77979595Y-173017723D01*
X78034910Y-173078998D01*
X78044777Y-173107823D01*
X78016880Y-173123697D01*
X77943774Y-173121991D01*
X77921649Y-173118869D01*
X77749758Y-173122153D01*
X77579792Y-173187725D01*
X77420664Y-173306580D01*
X77286395Y-173463967D01*
X77169499Y-173664744D01*
X77077937Y-173889826D01*
X77019664Y-174120125D01*
X77002239Y-174310210D01*
X77004916Y-174415235D01*
X77017846Y-174476109D01*
X77048383Y-174511796D01*
X77089117Y-174534331D01*
X77160104Y-174593370D01*
X77187369Y-174668809D01*
X77173436Y-174742427D01*
X77120827Y-174796000D01*
X77050655Y-174812189D01*
X76974547Y-174789562D01*
X76928155Y-174754416D01*
X76917796Y-174738740D01*
X76908890Y-174713283D01*
X76901329Y-174673531D01*
X76895005Y-174614967D01*
X76889810Y-174533077D01*
X76885634Y-174423346D01*
X76882371Y-174281260D01*
X76879911Y-174102303D01*
X76878146Y-173881960D01*
X76876968Y-173615717D01*
X76876269Y-173299059D01*
X76875940Y-172927471D01*
X76875871Y-172574961D01*
X76875871Y-170453280D01*
X76757401Y-170381044D01*
X76633381Y-170315265D01*
X76492346Y-170262155D01*
X76314542Y-170214708D01*
X76244030Y-170199013D01*
X76127017Y-170179655D01*
X76028774Y-170181897D01*
X75914163Y-170207287D01*
X75888253Y-170214676D01*
X75697441Y-170289118D01*
X75559446Y-170389852D01*
X75469077Y-170524099D01*
X75421139Y-170699075D01*
X75409852Y-170879626D01*
X75414053Y-171024228D01*
X75428888Y-171129055D01*
X75458910Y-171217220D01*
X75487622Y-171274527D01*
X75538074Y-171360610D01*
X75580860Y-171422676D01*
X75596393Y-171439255D01*
X75608649Y-171460253D01*
X75594002Y-171462949D01*
X75542800Y-171436343D01*
X75475586Y-171362629D01*
X75401452Y-171252683D01*
X75366277Y-171190599D01*
X75324351Y-171092330D01*
X75302600Y-170981261D01*
X75296271Y-170832880D01*
X75296269Y-170829534D01*
X75324194Y-170542879D01*
X75407360Y-170284796D01*
X75544850Y-170057638D01*
X75637578Y-169952450D01*
X75816820Y-169812686D01*
X76039132Y-169704642D01*
X76290401Y-169633161D01*
X76556513Y-169603087D01*
X76654727Y-169603381D01*
X76860075Y-169610637D01*
X76868499Y-168783124D01*
X76871143Y-168517969D01*
X76871709Y-168307558D01*
X76868166Y-168143451D01*
X76858480Y-168017209D01*
X76840622Y-167920392D01*
X76812558Y-167844561D01*
X76772257Y-167781274D01*
X76717688Y-167722094D01*
X76646818Y-167658579D01*
X76585103Y-167605892D01*
X76490405Y-167523582D01*
X76414315Y-167454942D01*
X76369805Y-167411753D01*
X76364629Y-167405632D01*
X76321513Y-167385860D01*
X76242774Y-167375760D01*
X76224929Y-167375423D01*
X76162263Y-167380504D01*
X76107141Y-167401988D01*
X76045505Y-167449239D01*
X75963297Y-167531623D01*
X75919035Y-167579192D01*
X75817914Y-167693416D01*
X75720496Y-167811006D01*
X75645062Y-167909747D01*
X75634327Y-167925125D01*
X75577239Y-168007058D01*
X75534192Y-168065604D01*
X75519498Y-168083085D01*
X75481519Y-168136184D01*
X75435921Y-168225043D01*
X75393540Y-168324992D01*
X75365210Y-168411360D01*
X75359453Y-168447514D01*
X75347355Y-168513221D01*
X75327861Y-168541169D01*
X75310281Y-168581116D01*
X75297907Y-168663846D01*
X75294131Y-168740484D01*
X75291357Y-168837504D01*
X75284335Y-168879050D01*
X75270471Y-168872812D01*
X75257569Y-168848874D01*
X75241377Y-168757324D01*
X75255114Y-168622673D01*
X75296405Y-168456122D01*
X75362875Y-168268873D01*
X75398171Y-168185759D01*
X75477546Y-168038312D01*
X75593060Y-167864229D01*
X75733406Y-167678595D01*
X75887274Y-167496499D01*
X76020610Y-167355404D01*
X76196589Y-167184221D01*
X76361991Y-167030920D01*
X76510693Y-166900602D01*
X76636572Y-166798365D01*
X76733507Y-166729309D01*
X76795375Y-166698534D01*
X76809552Y-166698294D01*
X76840798Y-166722538D01*
G37*
G36*
X59141295Y-166714934D02*
G01*
X59209299Y-166772014D01*
X59305054Y-166857403D01*
X59419703Y-166963311D01*
X59468657Y-167009474D01*
X59588488Y-167121372D01*
X59693121Y-167215784D01*
X59773658Y-167284931D01*
X59821200Y-167321035D01*
X59828959Y-167324481D01*
X59873208Y-167300669D01*
X59941146Y-167237033D01*
X60021622Y-167146460D01*
X60103485Y-167041838D01*
X60175586Y-166936052D01*
X60198745Y-166897098D01*
X60294629Y-166727202D01*
X60442402Y-166803585D01*
X60543880Y-166851386D01*
X60679118Y-166908967D01*
X60822187Y-166965377D01*
X60850809Y-166976054D01*
X61011996Y-167036094D01*
X61190037Y-167103354D01*
X61347964Y-167163863D01*
X61356282Y-167167086D01*
X61575115Y-167236507D01*
X61757085Y-167259479D01*
X61907850Y-167236285D01*
X61988122Y-167198854D01*
X62056663Y-167165135D01*
X62089500Y-167166647D01*
X62090796Y-167172296D01*
X62065717Y-167239308D01*
X61999235Y-167324621D01*
X61904481Y-167414630D01*
X61794586Y-167495727D01*
X61756619Y-167518563D01*
X61585324Y-167615236D01*
X61584828Y-168346735D01*
X61584333Y-169078234D01*
X61299452Y-169264643D01*
X61184491Y-169343071D01*
X61093701Y-169411155D01*
X61037562Y-169460630D01*
X61024661Y-169481319D01*
X61058956Y-169509460D01*
X61138089Y-169549890D01*
X61246422Y-169596594D01*
X61368317Y-169643558D01*
X61488138Y-169684766D01*
X61590248Y-169714205D01*
X61659008Y-169725859D01*
X61660468Y-169725871D01*
X61757091Y-169702610D01*
X61828126Y-169657180D01*
X61901244Y-169588489D01*
X61901244Y-169655693D01*
X61884427Y-169746766D01*
X61843719Y-169850608D01*
X61793740Y-169930394D01*
X61791041Y-169933323D01*
X61743013Y-169973761D01*
X61672346Y-170023740D01*
X61672202Y-170023835D01*
X61585324Y-170080650D01*
X61585324Y-171086098D01*
X61586315Y-171387624D01*
X61589223Y-171640992D01*
X61593956Y-171843126D01*
X61600417Y-171990951D01*
X61608512Y-172081391D01*
X61616916Y-172111070D01*
X61643455Y-172155630D01*
X61648508Y-172191914D01*
X61629542Y-172239828D01*
X61567457Y-172253234D01*
X61489369Y-172268817D01*
X61375254Y-172310154D01*
X61242423Y-172369126D01*
X61108185Y-172437614D01*
X60989852Y-172507501D01*
X60921891Y-172556000D01*
X60851042Y-172617633D01*
X60751955Y-172709336D01*
X60640672Y-172816100D01*
X60580017Y-172875865D01*
X60479796Y-172971982D01*
X60393022Y-173048435D01*
X60330970Y-173095665D01*
X60308306Y-173106219D01*
X60264596Y-173093794D01*
X60173168Y-173059281D01*
X60043785Y-173006821D01*
X59886211Y-172940555D01*
X59710209Y-172864627D01*
X59525544Y-172783178D01*
X59341978Y-172700349D01*
X59231717Y-172649521D01*
X59040632Y-172563062D01*
X58889841Y-172502187D01*
X58763970Y-172462591D01*
X58647645Y-172439969D01*
X58525493Y-172430014D01*
X58441916Y-172428325D01*
X58270220Y-172431325D01*
X58144833Y-172445168D01*
X58049242Y-172473943D01*
X57966934Y-172521741D01*
X57921947Y-172557112D01*
X57824064Y-172654994D01*
X57762197Y-172761296D01*
X57730028Y-172892870D01*
X57721235Y-173066568D01*
X57721459Y-173091679D01*
X57727181Y-173235383D01*
X57743055Y-173339772D01*
X57774167Y-173428511D01*
X57808008Y-173494478D01*
X57858805Y-173590607D01*
X57874411Y-173634500D01*
X57854613Y-173626541D01*
X57799199Y-173567113D01*
X57780122Y-173544694D01*
X57679656Y-173394238D01*
X57623214Y-173226562D01*
X57604761Y-173023362D01*
X57604727Y-173012802D01*
X57620548Y-172824939D01*
X57663529Y-172627874D01*
X57726944Y-172445545D01*
X57804068Y-172301888D01*
X57804732Y-172300946D01*
X57972457Y-172108319D01*
X58170602Y-171965352D01*
X58403761Y-171869950D01*
X58676527Y-171820015D01*
X58878410Y-171810946D01*
X59184329Y-171810946D01*
X59184329Y-171253917D01*
X59184329Y-170736860D01*
X59942265Y-170736860D01*
X59942538Y-171031491D01*
X59942538Y-171037722D01*
X59942538Y-172096838D01*
X60029416Y-172131487D01*
X60160796Y-172181982D01*
X60306228Y-172234830D01*
X60453137Y-172285846D01*
X60588949Y-172330846D01*
X60701091Y-172365643D01*
X60776987Y-172386054D01*
X60803421Y-172389086D01*
X60809113Y-172355466D01*
X60814315Y-172266172D01*
X60818856Y-172128712D01*
X60822566Y-171950595D01*
X60825277Y-171739331D01*
X60826820Y-171502428D01*
X60827115Y-171339069D01*
X60826536Y-171037878D01*
X60824675Y-170794777D01*
X60821343Y-170604682D01*
X60816352Y-170462509D01*
X60809515Y-170363173D01*
X60800643Y-170301590D01*
X60789549Y-170272675D01*
X60787625Y-170270795D01*
X60738973Y-170244811D01*
X60649864Y-170207274D01*
X60542786Y-170167462D01*
X60411927Y-170120020D01*
X60282276Y-170070380D01*
X60200553Y-170037102D01*
X60131879Y-170006605D01*
X60076547Y-169983620D01*
X60033124Y-169973703D01*
X60000177Y-169982409D01*
X59976273Y-170015294D01*
X59959980Y-170077914D01*
X59949865Y-170175825D01*
X59944496Y-170314582D01*
X59942440Y-170499742D01*
X59942265Y-170736860D01*
X59184329Y-170736860D01*
X59184329Y-170696889D01*
X59073757Y-170592606D01*
X58993734Y-170506621D01*
X58965366Y-170449235D01*
X58989465Y-170422584D01*
X59008280Y-170420896D01*
X59057406Y-170397901D01*
X59115287Y-170342106D01*
X59118852Y-170337655D01*
X59135931Y-170313925D01*
X59149751Y-170286268D01*
X59160656Y-170248188D01*
X59168990Y-170193189D01*
X59175099Y-170114777D01*
X59179327Y-170006455D01*
X59182020Y-169861730D01*
X59183521Y-169674105D01*
X59184175Y-169437085D01*
X59184328Y-169144174D01*
X59184329Y-169103997D01*
X59184324Y-168790697D01*
X59183839Y-168620149D01*
X59942538Y-168620149D01*
X59943348Y-168921848D01*
X59945705Y-169183881D01*
X59949496Y-169401971D01*
X59954608Y-169571840D01*
X59960929Y-169689208D01*
X59968347Y-169749797D01*
X59972394Y-169757463D01*
X60005809Y-169734529D01*
X60064925Y-169674356D01*
X60137049Y-169589881D01*
X60138252Y-169588386D01*
X60218714Y-169487532D01*
X60292357Y-169393834D01*
X60337438Y-169335209D01*
X60400622Y-169251109D01*
X60569923Y-169333405D01*
X60665303Y-169373517D01*
X60737447Y-169392277D01*
X60766318Y-169388608D01*
X60774656Y-169350725D01*
X60783738Y-169258594D01*
X60793025Y-169121137D01*
X60801973Y-168947277D01*
X60810043Y-168745937D01*
X60815148Y-168583860D01*
X60836883Y-167806207D01*
X60767873Y-167769274D01*
X60700090Y-167739349D01*
X60597973Y-167701073D01*
X60518150Y-167674032D01*
X60381182Y-167627465D01*
X60235767Y-167574512D01*
X60170410Y-167549279D01*
X60073836Y-167512856D01*
X60000241Y-167488722D01*
X59972960Y-167482836D01*
X59964626Y-167513845D01*
X59957483Y-167604557D01*
X59951621Y-167751501D01*
X59947136Y-167951206D01*
X59944118Y-168200201D01*
X59942662Y-168495014D01*
X59942538Y-168620149D01*
X59183839Y-168620149D01*
X59183594Y-168533951D01*
X59181063Y-168327129D01*
X59175656Y-168163600D01*
X59166296Y-168036736D01*
X59151909Y-167939907D01*
X59131419Y-167866482D01*
X59103750Y-167809833D01*
X59067828Y-167763329D01*
X59022577Y-167720341D01*
X58966920Y-167674239D01*
X58950179Y-167660570D01*
X58864782Y-167589416D01*
X58795530Y-167529633D01*
X58766518Y-167502953D01*
X58679853Y-167427947D01*
X58598202Y-167386531D01*
X58515631Y-167381699D01*
X58426205Y-167416442D01*
X58323989Y-167493753D01*
X58203049Y-167616625D01*
X58057451Y-167788050D01*
X57960606Y-167909329D01*
X57879553Y-168023953D01*
X57801288Y-168154452D01*
X57734286Y-168284322D01*
X57687022Y-168397058D01*
X57667972Y-168476155D01*
X57667911Y-168479329D01*
X57655778Y-168544947D01*
X57636319Y-168572761D01*
X57617233Y-168613627D01*
X57605993Y-168693885D01*
X57604727Y-168734451D01*
X57598250Y-168827028D01*
X57578766Y-168858040D01*
X57570114Y-168855223D01*
X57550303Y-168811113D01*
X57552819Y-168734888D01*
X57571318Y-168630296D01*
X57590121Y-168525373D01*
X57616582Y-168424754D01*
X57657818Y-168310577D01*
X57670601Y-168280879D01*
X57706572Y-168197720D01*
X57728237Y-168140828D01*
X57731095Y-168129084D01*
X57747978Y-168095141D01*
X57792197Y-168024230D01*
X57854103Y-167930614D01*
X57924049Y-167828554D01*
X57992388Y-167732313D01*
X58049473Y-167656153D01*
X58059482Y-167643609D01*
X58147289Y-167543112D01*
X58261229Y-167423967D01*
X58392996Y-167293684D01*
X58534283Y-167159772D01*
X58676784Y-167029741D01*
X58812194Y-166911101D01*
X58932206Y-166811359D01*
X59028514Y-166738027D01*
X59092812Y-166698613D01*
X59109895Y-166693948D01*
X59141295Y-166714934D01*
G37*
%TO.C,J2*%
X64400000Y-57086000D02*
X56400000Y-57086000D01*
X64400000Y-49086000D02*
X64400000Y-57086000D01*
X56400000Y-57086000D02*
X56400000Y-49086000D01*
X56400000Y-49086000D02*
X64400000Y-49086000D01*
%TO.C,kibuzzard-65356D5C*%
G36*
X127795359Y-49653281D02*
G01*
X127851914Y-49659234D01*
X127851914Y-49992609D01*
X127720945Y-49992609D01*
X127569141Y-49953914D01*
X127512586Y-49825922D01*
X127532430Y-49737617D01*
X127583031Y-49684039D01*
X127653477Y-49658242D01*
X127734836Y-49651297D01*
X127795359Y-49653281D01*
G37*
G36*
X127851914Y-50476797D02*
G01*
X127798336Y-50482750D01*
X127740789Y-50484734D01*
X127675305Y-50479773D01*
X127619742Y-50459930D01*
X127582039Y-50418258D01*
X127568148Y-50347813D01*
X127615773Y-50235695D01*
X127756664Y-50195016D01*
X127851914Y-50195016D01*
X127851914Y-50476797D01*
G37*
G36*
X126816070Y-49675109D02*
G01*
X126874609Y-49766391D01*
X126902391Y-49902320D01*
X126907600Y-49983432D01*
X126909336Y-50070000D01*
X126907600Y-50156320D01*
X126902391Y-50236688D01*
X126874609Y-50372617D01*
X126816070Y-50464891D01*
X126714867Y-50498625D01*
X126613664Y-50464891D01*
X126555125Y-50373609D01*
X126527344Y-50237680D01*
X126522135Y-50156568D01*
X126520398Y-50070000D01*
X126522135Y-49983680D01*
X126527344Y-49903313D01*
X126555125Y-49767383D01*
X126614656Y-49675109D01*
X126714867Y-49641375D01*
X126816070Y-49675109D01*
G37*
G36*
X125823883Y-49675109D02*
G01*
X125882422Y-49766391D01*
X125910203Y-49902320D01*
X125915412Y-49983432D01*
X125917148Y-50070000D01*
X125915412Y-50156320D01*
X125910203Y-50236688D01*
X125882422Y-50372617D01*
X125823883Y-50464891D01*
X125722680Y-50498625D01*
X125621477Y-50464891D01*
X125562937Y-50373609D01*
X125535156Y-50237680D01*
X125529947Y-50156568D01*
X125528211Y-50070000D01*
X125529947Y-49983680D01*
X125535156Y-49903313D01*
X125562937Y-49767383D01*
X125622469Y-49675109D01*
X125722680Y-49641375D01*
X125823883Y-49675109D01*
G37*
G36*
X124607461Y-49015635D02*
G01*
X125720695Y-49015635D01*
X126712883Y-49015635D01*
X127754680Y-49015635D01*
X128095992Y-49015635D01*
X128922815Y-49015635D01*
X128922815Y-51124365D01*
X128095992Y-51124365D01*
X124284008Y-51124365D01*
X123457185Y-51124365D01*
X123457185Y-50683172D01*
X124284008Y-50683172D01*
X125176977Y-50683172D01*
X125176977Y-50480766D01*
X124853523Y-50480766D01*
X124853523Y-50070000D01*
X125280164Y-50070000D01*
X125287233Y-50219014D01*
X125308441Y-50348557D01*
X125343788Y-50458627D01*
X125393273Y-50549227D01*
X125480145Y-50639075D01*
X125589947Y-50692984D01*
X125722680Y-50710953D01*
X125851444Y-50692984D01*
X125959923Y-50639075D01*
X126048117Y-50549227D01*
X126099339Y-50458627D01*
X126135926Y-50348557D01*
X126157878Y-50219014D01*
X126165195Y-50070000D01*
X126272352Y-50070000D01*
X126279421Y-50219014D01*
X126300629Y-50348557D01*
X126335976Y-50458627D01*
X126385461Y-50549227D01*
X126472332Y-50639075D01*
X126582135Y-50692984D01*
X126714867Y-50710953D01*
X126843631Y-50692984D01*
X126952110Y-50639075D01*
X127040305Y-50549227D01*
X127091526Y-50458627D01*
X127128113Y-50348557D01*
X127150065Y-50219014D01*
X127157383Y-50070000D01*
X127150251Y-49920986D01*
X127134551Y-49825922D01*
X127272477Y-49825922D01*
X127283639Y-49909266D01*
X127317125Y-49988641D01*
X127381865Y-50058094D01*
X127486789Y-50111672D01*
X127372688Y-50218828D01*
X127340689Y-50291258D01*
X127330023Y-50373609D01*
X127347883Y-50488703D01*
X127415352Y-50592883D01*
X127552273Y-50668289D01*
X127652484Y-50689869D01*
X127778492Y-50697063D01*
X127943195Y-50688133D01*
X128095992Y-50667297D01*
X128095992Y-49474687D01*
X128010168Y-49459061D01*
X127923352Y-49447898D01*
X127837527Y-49441201D01*
X127754680Y-49438969D01*
X127656701Y-49443682D01*
X127565172Y-49457820D01*
X127482820Y-49483121D01*
X127412375Y-49521320D01*
X127310180Y-49640383D01*
X127281902Y-49723975D01*
X127272477Y-49825922D01*
X127134551Y-49825922D01*
X127128857Y-49791443D01*
X127093201Y-49681373D01*
X127043281Y-49590773D01*
X126955859Y-49500925D01*
X126845726Y-49447016D01*
X126712883Y-49429047D01*
X126583237Y-49447016D01*
X126474758Y-49500925D01*
X126387445Y-49590773D01*
X126337092Y-49681373D01*
X126301125Y-49791443D01*
X126279545Y-49920986D01*
X126272352Y-50070000D01*
X126165195Y-50070000D01*
X126158064Y-49920986D01*
X126136670Y-49791443D01*
X126101013Y-49681373D01*
X126051094Y-49590773D01*
X125963671Y-49500925D01*
X125853538Y-49447016D01*
X125720695Y-49429047D01*
X125591049Y-49447016D01*
X125482570Y-49500925D01*
X125395258Y-49590773D01*
X125344904Y-49681373D01*
X125308937Y-49791443D01*
X125287357Y-49920986D01*
X125280164Y-50070000D01*
X124853523Y-50070000D01*
X124853523Y-49454844D01*
X124607461Y-49454844D01*
X124607461Y-50480766D01*
X124284008Y-50480766D01*
X124284008Y-50683172D01*
X123457185Y-50683172D01*
X123457185Y-49015635D01*
X124284008Y-49015635D01*
X124607461Y-49015635D01*
G37*
%TO.C,J1*%
X75628000Y-57086000D02*
X67628000Y-57086000D01*
X75628000Y-49086000D02*
X75628000Y-57086000D01*
X67628000Y-57086000D02*
X67628000Y-49086000D01*
X67628000Y-49086000D02*
X75628000Y-49086000D01*
%TO.C,Y1*%
X100372900Y-57669350D02*
X100372900Y-58730650D01*
X102227100Y-58730650D02*
X102227100Y-57669350D01*
D10*
%TO.C,U6*%
X59625000Y-63625000D02*
X59625000Y-63500000D01*
X59625000Y-63625000D02*
X56375000Y-63625000D01*
X59625000Y-63500000D02*
X60700000Y-63500000D01*
X59625000Y-60375000D02*
X59625000Y-60600000D01*
X59625000Y-60375000D02*
X56375000Y-60375000D01*
X56375000Y-63625000D02*
X56375000Y-63400000D01*
X56375000Y-60375000D02*
X56375000Y-60600000D01*
D13*
%TO.C,C28*%
X82842164Y-77240000D02*
X83057836Y-77240000D01*
X82842164Y-77960000D02*
X83057836Y-77960000D01*
%TO.C,J6*%
X116333000Y-78422400D02*
X122429000Y-78422400D01*
X122429000Y-78422400D02*
X122429000Y-67957600D01*
X116333000Y-72759175D02*
X116333000Y-78422400D01*
X116333000Y-67957600D02*
X116333000Y-71080825D01*
X122429000Y-67957600D02*
X116333000Y-67957600D01*
%TO.C,R21*%
X123320000Y-68253641D02*
X123320000Y-67946359D01*
X124080000Y-68253641D02*
X124080000Y-67946359D01*
%TO.C,Q5*%
X87062500Y-63960000D02*
X88737500Y-63960000D01*
X87062500Y-63960000D02*
X86412500Y-63960000D01*
X87062500Y-60840000D02*
X87712500Y-60840000D01*
X87062500Y-60840000D02*
X86412500Y-60840000D01*
%TO.C,C4*%
X79507836Y-58360000D02*
X79292164Y-58360000D01*
X79507836Y-57640000D02*
X79292164Y-57640000D01*
D14*
%TO.C,SW2*%
X125300000Y-47800000D02*
X127100000Y-47800000D01*
X125700000Y-47200000D02*
X126700000Y-47200000D01*
X125700000Y-47800000D02*
X125700000Y-47200000D01*
X126700000Y-47200000D02*
X126700000Y-47800000D01*
D13*
%TO.C,C29*%
X99007836Y-57160000D02*
X98792164Y-57160000D01*
X99007836Y-56440000D02*
X98792164Y-56440000D01*
D11*
%TO.C,U27*%
X81000000Y-156500000D02*
X75000000Y-156500000D01*
X75000000Y-156500000D02*
X75000000Y-149500000D01*
X75000000Y-149500000D02*
X81000000Y-149500000D01*
X81000000Y-149500000D02*
X81000000Y-156500000D01*
D12*
X81433742Y-156810000D02*
G75*
G03*
X81433742Y-156810000I-113742J0D01*
G01*
%TO.C,kibuzzard-65356D44*%
G36*
X68380129Y-47310891D02*
G01*
X68443133Y-47355539D01*
X68488773Y-47468648D01*
X68440156Y-47573820D01*
X68328039Y-47609539D01*
X68215922Y-47574813D01*
X68169289Y-47470633D01*
X68195086Y-47364469D01*
X68282398Y-47264258D01*
X68380129Y-47310891D01*
G37*
G36*
X68463969Y-46771141D02*
G01*
X68520523Y-46891195D01*
X68490758Y-46999344D01*
X68405430Y-47101539D01*
X68282398Y-47048953D01*
X68198062Y-46999344D01*
X68150438Y-46944773D01*
X68135555Y-46875320D01*
X68188141Y-46773125D01*
X68330023Y-46730461D01*
X68463969Y-46771141D01*
G37*
G36*
X63511961Y-46752289D02*
G01*
X63511961Y-47577789D01*
X63476242Y-47582750D01*
X63440523Y-47583742D01*
X63307570Y-47549016D01*
X63226211Y-47456742D01*
X63184539Y-47323789D01*
X63172633Y-47169008D01*
X63176354Y-47081447D01*
X63187516Y-47001328D01*
X63237125Y-46869367D01*
X63328406Y-46782055D01*
X63468305Y-46750305D01*
X63490133Y-46750305D01*
X63511961Y-46752289D01*
G37*
G36*
X65439285Y-46765932D02*
G01*
X65504273Y-46848531D01*
X65534039Y-46933308D01*
X65551898Y-47040795D01*
X65557852Y-47170992D01*
X65551898Y-47300087D01*
X65534039Y-47406912D01*
X65504273Y-47491469D01*
X65439285Y-47574068D01*
X65351477Y-47601602D01*
X65262428Y-47574068D01*
X65197687Y-47491469D01*
X65168473Y-47406912D01*
X65150944Y-47300087D01*
X65146000Y-47190836D01*
X65240352Y-47190836D01*
X65271109Y-47284102D01*
X65349492Y-47323789D01*
X65430852Y-47284102D01*
X65460617Y-47190836D01*
X65430852Y-47098563D01*
X65349492Y-47059867D01*
X65271109Y-47098563D01*
X65240352Y-47190836D01*
X65146000Y-47190836D01*
X65145102Y-47170992D01*
X65150944Y-47040795D01*
X65168473Y-46933308D01*
X65197687Y-46848531D01*
X65262428Y-46765932D01*
X65349492Y-46739012D01*
X65351477Y-46738398D01*
X65439285Y-46765932D01*
G37*
G36*
X60118680Y-46114643D02*
G01*
X62283633Y-46114643D01*
X63494102Y-46114643D01*
X64486289Y-46114643D01*
X65351477Y-46114643D01*
X65922977Y-46114643D01*
X67063992Y-46114643D01*
X68333992Y-46114643D01*
X71199430Y-46114643D01*
X71721320Y-46114643D01*
X72548143Y-46114643D01*
X72548143Y-48225357D01*
X71721320Y-48225357D01*
X60118680Y-48225357D01*
X59291857Y-48225357D01*
X59291857Y-46942789D01*
X60118680Y-46942789D01*
X60118680Y-47182898D01*
X60662398Y-47182898D01*
X60662398Y-46942789D01*
X60118680Y-46942789D01*
X59291857Y-46942789D01*
X59291857Y-46613383D01*
X61940336Y-46613383D01*
X62001852Y-46805867D01*
X62102062Y-46762211D01*
X62259820Y-46740383D01*
X62401455Y-46768412D01*
X62496953Y-46852500D01*
X62537192Y-46938159D01*
X62561335Y-47045646D01*
X62569383Y-47174961D01*
X62562686Y-47286086D01*
X62542594Y-47377367D01*
X62473141Y-47507344D01*
X62375906Y-47576797D01*
X62263789Y-47597633D01*
X62115953Y-47576797D01*
X62005820Y-47526195D01*
X61942320Y-47720664D01*
X61983000Y-47744477D01*
X62049477Y-47774242D01*
X62141750Y-47799047D01*
X62259820Y-47809961D01*
X62376154Y-47799295D01*
X62483062Y-47767297D01*
X62578312Y-47714711D01*
X62659672Y-47642281D01*
X62725900Y-47550752D01*
X62775758Y-47440867D01*
X62807012Y-47313371D01*
X62817430Y-47169008D01*
X62924586Y-47169008D01*
X62934260Y-47323541D01*
X62963281Y-47453766D01*
X63009666Y-47561418D01*
X63071430Y-47648234D01*
X63148572Y-47714463D01*
X63241094Y-47760352D01*
X63346514Y-47787141D01*
X63462352Y-47796070D01*
X63599273Y-47790117D01*
X63651526Y-47782180D01*
X63887008Y-47782180D01*
X64142992Y-47782180D01*
X64160852Y-47678992D01*
X64182680Y-47559930D01*
X64207484Y-47431193D01*
X64234273Y-47298984D01*
X64263047Y-47166031D01*
X64293805Y-47035063D01*
X64325555Y-46912279D01*
X64357305Y-46803883D01*
X64389303Y-46913768D01*
X64421797Y-47037047D01*
X64453547Y-47168016D01*
X64483312Y-47300969D01*
X64510846Y-47432930D01*
X64535898Y-47560922D01*
X64556734Y-47679240D01*
X64571617Y-47782180D01*
X64829586Y-47782180D01*
X64806766Y-47671055D01*
X64774023Y-47532148D01*
X64747786Y-47428189D01*
X64719343Y-47320041D01*
X64688695Y-47207703D01*
X64678307Y-47170992D01*
X64924836Y-47170992D01*
X64931657Y-47322363D01*
X64952121Y-47453021D01*
X64986228Y-47562968D01*
X65033977Y-47652203D01*
X65117761Y-47739846D01*
X65223595Y-47792432D01*
X65351477Y-47809961D01*
X65477374Y-47792322D01*
X65582546Y-47739405D01*
X65666992Y-47651211D01*
X65715609Y-47561666D01*
X65750336Y-47451781D01*
X65771172Y-47321557D01*
X65778117Y-47170992D01*
X65771296Y-47018691D01*
X65750832Y-46887227D01*
X65716726Y-46776598D01*
X65668977Y-46686805D01*
X65585192Y-46598610D01*
X65495675Y-46553852D01*
X65922977Y-46553852D01*
X65922977Y-46756258D01*
X66450820Y-46756258D01*
X66429984Y-46821742D01*
X66379383Y-46892188D01*
X66315883Y-46959656D01*
X66256352Y-47016211D01*
X66155148Y-47115430D01*
X66065852Y-47222586D01*
X66002352Y-47336688D01*
X65978539Y-47458727D01*
X66010289Y-47612516D01*
X66095617Y-47722648D01*
X66218648Y-47788133D01*
X66363508Y-47809961D01*
X66466943Y-47800039D01*
X66570875Y-47770273D01*
X66668854Y-47719672D01*
X66754430Y-47647242D01*
X66633383Y-47476586D01*
X66508367Y-47569852D01*
X66387320Y-47597633D01*
X66272227Y-47556953D01*
X66226586Y-47440867D01*
X66263297Y-47335695D01*
X66356563Y-47228539D01*
X66415102Y-47171736D01*
X66477609Y-47112453D01*
X66540117Y-47049449D01*
X66598656Y-46981484D01*
X66625756Y-46942789D01*
X67063992Y-46942789D01*
X67063992Y-47182898D01*
X67607711Y-47182898D01*
X67607711Y-46942789D01*
X67063992Y-46942789D01*
X66625756Y-46942789D01*
X66650250Y-46907814D01*
X66669215Y-46871352D01*
X67905367Y-46871352D01*
X67917025Y-46960648D01*
X67952000Y-47042008D01*
X68015252Y-47116422D01*
X68111742Y-47184883D01*
X68034352Y-47247143D01*
X67980773Y-47322797D01*
X67949520Y-47405893D01*
X67939102Y-47490477D01*
X67965146Y-47622438D01*
X68043281Y-47724633D01*
X68165568Y-47790117D01*
X68324070Y-47811945D01*
X68426266Y-47803512D01*
X68510602Y-47778211D01*
X68631648Y-47692883D01*
X68698125Y-47576797D01*
X68718961Y-47452773D01*
X68687211Y-47309898D01*
X68641570Y-47244414D01*
X68568148Y-47182898D01*
X68577557Y-47174961D01*
X70887883Y-47174961D01*
X71199430Y-47174961D01*
X71199430Y-47520242D01*
X71409773Y-47520242D01*
X71409773Y-47174961D01*
X71721320Y-47174961D01*
X71721320Y-46974539D01*
X71409773Y-46974539D01*
X71409773Y-46629258D01*
X71199430Y-46629258D01*
X71199430Y-46974539D01*
X70887883Y-46974539D01*
X70887883Y-47174961D01*
X68577557Y-47174961D01*
X68649012Y-47114686D01*
X68705070Y-47037047D01*
X68737813Y-46951967D01*
X68748727Y-46861430D01*
X68718961Y-46721531D01*
X68634625Y-46616359D01*
X68503656Y-46550875D01*
X68423041Y-46533760D01*
X68333992Y-46528055D01*
X68224355Y-46535992D01*
X68133570Y-46559805D01*
X68001609Y-46640172D01*
X67928188Y-46750305D01*
X67905367Y-46871352D01*
X66669215Y-46871352D01*
X66691922Y-46827695D01*
X66719455Y-46740383D01*
X66728633Y-46645133D01*
X66729625Y-46603461D01*
X66724664Y-46553852D01*
X65922977Y-46553852D01*
X65495675Y-46553852D01*
X65479359Y-46545694D01*
X65351477Y-46528055D01*
X65223595Y-46545694D01*
X65117761Y-46598610D01*
X65033977Y-46686805D01*
X64986228Y-46776598D01*
X64952121Y-46887227D01*
X64931657Y-47018691D01*
X64924836Y-47170992D01*
X64678307Y-47170992D01*
X64656284Y-47093161D01*
X64622549Y-46978398D01*
X64587492Y-46863414D01*
X64535402Y-46699703D01*
X64486289Y-46553852D01*
X64234273Y-46553852D01*
X64196350Y-46659575D01*
X64159308Y-46767723D01*
X64123148Y-46878297D01*
X64088422Y-46989422D01*
X64055680Y-47099224D01*
X64024922Y-47207703D01*
X63982754Y-47365709D01*
X63945547Y-47516273D01*
X63913549Y-47656172D01*
X63887008Y-47782180D01*
X63651526Y-47782180D01*
X63756039Y-47766305D01*
X63756039Y-46567742D01*
X63622094Y-46544922D01*
X63494102Y-46537977D01*
X63374295Y-46546658D01*
X63264906Y-46572703D01*
X63167920Y-46617600D01*
X63085320Y-46682836D01*
X63018100Y-46769404D01*
X62967250Y-46878297D01*
X62935252Y-47011002D01*
X62924586Y-47169008D01*
X62817430Y-47169008D01*
X62808872Y-47024024D01*
X62783199Y-46896652D01*
X62740411Y-46786892D01*
X62680508Y-46694742D01*
X62575556Y-46602138D01*
X62443265Y-46546576D01*
X62283633Y-46528055D01*
X62175236Y-46534752D01*
X62080234Y-46554844D01*
X61940336Y-46613383D01*
X59291857Y-46613383D01*
X59291857Y-46114643D01*
X60118680Y-46114643D01*
G37*
D13*
%TO.C,R16*%
X88453641Y-65480000D02*
X88146359Y-65480000D01*
X88453641Y-64720000D02*
X88146359Y-64720000D01*
%TO.C,J5*%
X99333000Y-78422400D02*
X105429000Y-78422400D01*
X105429000Y-78422400D02*
X105429000Y-67957600D01*
X99333000Y-72759175D02*
X99333000Y-78422400D01*
X99333000Y-67957600D02*
X99333000Y-71080825D01*
X105429000Y-67957600D02*
X99333000Y-67957600D01*
%TO.C,C34*%
X109352500Y-77237500D02*
X109352500Y-76450000D01*
X108958750Y-76843750D02*
X109746250Y-76843750D01*
X108854437Y-76210000D02*
X110140000Y-76210000D01*
X108854437Y-76210000D02*
X107790000Y-75145563D01*
X113545563Y-76210000D02*
X112260000Y-76210000D01*
X113545563Y-76210000D02*
X114610000Y-75145563D01*
X107790000Y-75145563D02*
X107790000Y-69390000D01*
X114610000Y-75145563D02*
X114610000Y-69390000D01*
X107790000Y-69390000D02*
X110140000Y-69390000D01*
X114610000Y-69390000D02*
X112260000Y-69390000D01*
D14*
%TO.C,SW1*%
X85200000Y-47800000D02*
X87000000Y-47800000D01*
X85600000Y-47200000D02*
X86600000Y-47200000D01*
X85600000Y-47800000D02*
X85600000Y-47200000D01*
X86600000Y-47200000D02*
X86600000Y-47800000D01*
D13*
%TO.C,C33*%
X89040000Y-172807836D02*
X89040000Y-172592164D01*
X89760000Y-172807836D02*
X89760000Y-172592164D01*
%TO.C,kibuzzard-65356D4E*%
G36*
X88208008Y-50398781D02*
G01*
X88168320Y-50403742D01*
X88134586Y-50404734D01*
X88046777Y-50393324D01*
X87977820Y-50359094D01*
X87933172Y-50300555D01*
X87918289Y-50216219D01*
X87973852Y-50078305D01*
X88046777Y-50041842D01*
X88154430Y-50029688D01*
X88208008Y-50029688D01*
X88208008Y-50398781D01*
G37*
G36*
X83971367Y-48935635D02*
G01*
X85457664Y-48935635D01*
X86114492Y-48935635D01*
X87442039Y-48935635D01*
X87588883Y-48935635D01*
X88452086Y-48935635D01*
X89278909Y-48935635D01*
X89278909Y-51044365D01*
X88452086Y-51044365D01*
X83647914Y-51044365D01*
X82821091Y-51044365D01*
X82821091Y-50603172D01*
X83647914Y-50603172D01*
X84540883Y-50603172D01*
X84540883Y-50400766D01*
X84217430Y-50400766D01*
X84217430Y-49577250D01*
X84669867Y-49577250D01*
X85213586Y-49577250D01*
X85213586Y-49922531D01*
X84779008Y-49922531D01*
X84779008Y-50124938D01*
X85213586Y-50124938D01*
X85213586Y-50400766D01*
X84713523Y-50400766D01*
X84713523Y-50603172D01*
X85457664Y-50603172D01*
X85457664Y-49710203D01*
X85662055Y-49710203D01*
X85670488Y-49802725D01*
X85695789Y-49877883D01*
X85782109Y-49989008D01*
X85897203Y-50060445D01*
X86017258Y-50109063D01*
X86093656Y-50138828D01*
X86163109Y-50175539D01*
X86213711Y-50223164D01*
X86233555Y-50285672D01*
X86211947Y-50363944D01*
X86147124Y-50410908D01*
X86039086Y-50426563D01*
X85899188Y-50406719D01*
X85789055Y-50359094D01*
X85717617Y-50547609D01*
X85859500Y-50605156D01*
X85951029Y-50624504D01*
X86056945Y-50630953D01*
X86178543Y-50620149D01*
X86281400Y-50587738D01*
X86365516Y-50533719D01*
X86449604Y-50417633D01*
X86477633Y-50263844D01*
X86445883Y-50117992D01*
X86365516Y-50019766D01*
X86257367Y-49954281D01*
X86142273Y-49908641D01*
X86058930Y-49873914D01*
X85983523Y-49832242D01*
X85927961Y-49779656D01*
X85906133Y-49712188D01*
X85915063Y-49653648D01*
X85947805Y-49602055D01*
X86012297Y-49566336D01*
X86114492Y-49553438D01*
X86213463Y-49560383D01*
X86296063Y-49581219D01*
X86424055Y-49640750D01*
X86446915Y-49577250D01*
X86654242Y-49577250D01*
X87197961Y-49577250D01*
X87197961Y-49922531D01*
X86763383Y-49922531D01*
X86763383Y-50124938D01*
X87197961Y-50124938D01*
X87197961Y-50400766D01*
X86697898Y-50400766D01*
X86697898Y-50603172D01*
X87442039Y-50603172D01*
X87442039Y-49374844D01*
X87588883Y-49374844D01*
X87645438Y-49504820D01*
X87713898Y-49641742D01*
X87787320Y-49772711D01*
X87858758Y-49886813D01*
X87771941Y-49942871D01*
X87713898Y-50019766D01*
X87681156Y-50112039D01*
X87670242Y-50214234D01*
X87678428Y-50310725D01*
X87702984Y-50393820D01*
X87797242Y-50519828D01*
X87864711Y-50562988D01*
X87944086Y-50593250D01*
X88034375Y-50611109D01*
X88134586Y-50617063D01*
X88204039Y-50615078D01*
X88287383Y-50610117D01*
X88373703Y-50600195D01*
X88452086Y-50585313D01*
X88452086Y-49374844D01*
X88208008Y-49374844D01*
X88208008Y-49827281D01*
X88081008Y-49827281D01*
X88013787Y-49714916D01*
X87951031Y-49604039D01*
X87894229Y-49491674D01*
X87844867Y-49374844D01*
X87588883Y-49374844D01*
X87442039Y-49374844D01*
X86654242Y-49374844D01*
X86654242Y-49577250D01*
X86446915Y-49577250D01*
X86495492Y-49442313D01*
X86358570Y-49381789D01*
X86251910Y-49357232D01*
X86114492Y-49349047D01*
X85975255Y-49359520D01*
X85861815Y-49390939D01*
X85774172Y-49443305D01*
X85690084Y-49557158D01*
X85662055Y-49710203D01*
X85457664Y-49710203D01*
X85457664Y-49374844D01*
X84669867Y-49374844D01*
X84669867Y-49577250D01*
X84217430Y-49577250D01*
X84217430Y-49374844D01*
X83971367Y-49374844D01*
X83971367Y-50400766D01*
X83647914Y-50400766D01*
X83647914Y-50603172D01*
X82821091Y-50603172D01*
X82821091Y-48935635D01*
X83647914Y-48935635D01*
X83971367Y-48935635D01*
G37*
D11*
%TO.C,U24*%
X111000000Y-156500000D02*
X105000000Y-156500000D01*
X105000000Y-156500000D02*
X105000000Y-149500000D01*
X105000000Y-149500000D02*
X111000000Y-149500000D01*
X111000000Y-149500000D02*
X111000000Y-156500000D01*
D12*
X111433742Y-156810000D02*
G75*
G03*
X111433742Y-156810000I-113742J0D01*
G01*
D13*
%TO.C,C18*%
X56892164Y-64440000D02*
X57107836Y-64440000D01*
X56892164Y-65160000D02*
X57107836Y-65160000D01*
%TO.C,R3*%
X78280000Y-55946359D02*
X78280000Y-56253641D01*
X77520000Y-55946359D02*
X77520000Y-56253641D01*
%TO.C,Q6*%
X56510000Y-69640000D02*
X56510000Y-71050000D01*
X58830000Y-71050000D02*
X58830000Y-69020000D01*
X58830000Y-71050000D02*
X58170000Y-71050000D01*
X57170000Y-71050000D02*
X56510000Y-71050000D01*
%TO.C,TP6*%
X54300000Y-61600000D02*
G75*
G03*
X54300000Y-61600000I-700000J0D01*
G01*
%TO.C,TP7*%
X54500000Y-65000000D02*
G75*
G03*
X54500000Y-65000000I-700000J0D01*
G01*
%TO.C,C30*%
X99007836Y-59960000D02*
X98792164Y-59960000D01*
X99007836Y-59240000D02*
X98792164Y-59240000D01*
%TO.C,R15*%
X85120000Y-65353641D02*
X85120000Y-65046359D01*
X85880000Y-65353641D02*
X85880000Y-65046359D01*
%TO.C,R11*%
X56353641Y-59980000D02*
X56046359Y-59980000D01*
X56353641Y-59220000D02*
X56046359Y-59220000D01*
%TO.C,C11*%
X74160000Y-60092164D02*
X74160000Y-60307836D01*
X73440000Y-60092164D02*
X73440000Y-60307836D01*
D15*
%TO.C,U10*%
X87474700Y-54222100D02*
X85925300Y-54222100D01*
X85925300Y-56177900D02*
X87474700Y-56177900D01*
X88508100Y-55700000D02*
G75*
G03*
X88508100Y-55700000I-101600J0D01*
G01*
D13*
%TO.C,C36*%
X107507836Y-78460000D02*
X107292164Y-78460000D01*
X107507836Y-77740000D02*
X107292164Y-77740000D01*
D11*
%TO.C,U16*%
X81000000Y-100500000D02*
X75000000Y-100500000D01*
X75000000Y-100500000D02*
X75000000Y-93500000D01*
X75000000Y-93500000D02*
X81000000Y-93500000D01*
X81000000Y-93500000D02*
X81000000Y-100500000D01*
D12*
X81433742Y-100810000D02*
G75*
G03*
X81433742Y-100810000I-113742J0D01*
G01*
D13*
%TO.C,J7*%
X124470000Y-53870000D02*
X125800000Y-53870000D01*
X124470000Y-55200000D02*
X124470000Y-53870000D01*
X124470000Y-56470000D02*
X124470000Y-64150000D01*
X124470000Y-56470000D02*
X127130000Y-56470000D01*
X124470000Y-64150000D02*
X127130000Y-64150000D01*
X127130000Y-56470000D02*
X127130000Y-64150000D01*
%TO.C,U9*%
X104100000Y-65040000D02*
X104100000Y-65790000D01*
X104100000Y-65790000D02*
X105100000Y-65790000D01*
X122100000Y-65040000D02*
X122100000Y-65790000D01*
X122100000Y-65790000D02*
X121100000Y-65790000D01*
%TO.C,J8*%
X76365000Y-72360000D02*
X76365000Y-73960000D01*
X76365000Y-73960000D02*
X78165000Y-73960000D01*
X77635000Y-69490000D02*
X93565000Y-69490000D01*
X78165000Y-73960000D02*
X78165000Y-74900000D01*
X94835000Y-72360000D02*
X94835000Y-73960000D01*
X94835000Y-73960000D02*
X93035000Y-73960000D01*
D15*
%TO.C,U11*%
X92374700Y-172222100D02*
X90825300Y-172222100D01*
X90825300Y-174177900D02*
X92374700Y-174177900D01*
X93408100Y-173700000D02*
G75*
G03*
X93408100Y-173700000I-101600J0D01*
G01*
D13*
%TO.C,C24*%
X88400000Y-52242164D02*
X88400000Y-52457836D01*
X87680000Y-52242164D02*
X87680000Y-52457836D01*
%TO.C,J4*%
X102180000Y-49695000D02*
X102180000Y-51495000D01*
X102180000Y-47595000D02*
X102180000Y-46445000D01*
X92840000Y-49695000D02*
X92840000Y-51495000D01*
X92840000Y-47595000D02*
X92840000Y-46445000D01*
%TO.C,R12*%
X58553641Y-59980000D02*
X58246359Y-59980000D01*
X58553641Y-59220000D02*
X58246359Y-59220000D01*
%TO.C,C35*%
X126252500Y-77737500D02*
X126252500Y-76950000D01*
X125858750Y-77343750D02*
X126646250Y-77343750D01*
X125754437Y-76710000D02*
X127040000Y-76710000D01*
X125754437Y-76710000D02*
X124690000Y-75645563D01*
X130445563Y-76710000D02*
X129160000Y-76710000D01*
X130445563Y-76710000D02*
X131510000Y-75645563D01*
X124690000Y-75645563D02*
X124690000Y-69890000D01*
X131510000Y-75645563D02*
X131510000Y-69890000D01*
X124690000Y-69890000D02*
X127040000Y-69890000D01*
X131510000Y-69890000D02*
X129160000Y-69890000D01*
%TO.C,R2*%
X81380000Y-55946359D02*
X81380000Y-56253641D01*
X80620000Y-55946359D02*
X80620000Y-56253641D01*
%TO.C,D1*%
X91950000Y-63410000D02*
X95250000Y-63410000D01*
X91950000Y-63410000D02*
X91950000Y-57900000D01*
X95250000Y-63410000D02*
X95250000Y-57900000D01*
%TO.C,R20*%
X97820000Y-69553641D02*
X97820000Y-69246359D01*
X98580000Y-69553641D02*
X98580000Y-69246359D01*
D11*
%TO.C,U13*%
X111000000Y-100500000D02*
X105000000Y-100500000D01*
X105000000Y-100500000D02*
X105000000Y-93500000D01*
X105000000Y-93500000D02*
X111000000Y-93500000D01*
X111000000Y-93500000D02*
X111000000Y-100500000D01*
D12*
X111433742Y-100810000D02*
G75*
G03*
X111433742Y-100810000I-113742J0D01*
G01*
%TD*%
%LPC*%
D16*
%TO.C,U19*%
X110916000Y-128263000D03*
X110916000Y-127761000D03*
X110916000Y-127259000D03*
X110916000Y-126757000D03*
X110916000Y-126255000D03*
X110916000Y-125753000D03*
X110916000Y-125251000D03*
X110916000Y-124749000D03*
X110916000Y-124247000D03*
X110916000Y-123745000D03*
X110916000Y-123243000D03*
X110916000Y-122741000D03*
X110916000Y-122239000D03*
X110916000Y-121737000D03*
X105084000Y-121750000D03*
X105084000Y-122250000D03*
X105084000Y-122750000D03*
X105084000Y-123250000D03*
X105084000Y-123750000D03*
X105084000Y-124247000D03*
X105084000Y-124750000D03*
X105084000Y-125251000D03*
X105084000Y-125753000D03*
X105084000Y-126255000D03*
X105084000Y-126757000D03*
X105084000Y-127250000D03*
X105084000Y-127761000D03*
X105084000Y-128250000D03*
D17*
X108000000Y-127468000D03*
D18*
X108000000Y-123892000D03*
%TD*%
D19*
%TO.C,U3*%
X80005000Y-59925000D03*
X78735000Y-59925000D03*
X77465000Y-59925000D03*
X76195000Y-59925000D03*
X76195000Y-64875000D03*
X77465000Y-64875000D03*
X78735000Y-64875000D03*
X80005000Y-64875000D03*
%TD*%
D20*
%TO.C,J3*%
X129900000Y-57360000D03*
X130916000Y-62440000D03*
X128884000Y-62440000D03*
D21*
X129265000Y-58630000D03*
X130535000Y-58630000D03*
X129265000Y-59900000D03*
X130535000Y-59900000D03*
X129265000Y-61170000D03*
X130535000Y-61170000D03*
%TD*%
D22*
%TO.C,C37*%
X125380000Y-78100000D03*
X124420000Y-78100000D03*
%TD*%
D16*
%TO.C,U22*%
X80916000Y-128263000D03*
X80916000Y-127761000D03*
X80916000Y-127259000D03*
X80916000Y-126757000D03*
X80916000Y-126255000D03*
X80916000Y-125753000D03*
X80916000Y-125251000D03*
X80916000Y-124749000D03*
X80916000Y-124247000D03*
X80916000Y-123745000D03*
X80916000Y-123243000D03*
X80916000Y-122741000D03*
X80916000Y-122239000D03*
X80916000Y-121737000D03*
X75084000Y-121750000D03*
X75084000Y-122250000D03*
X75084000Y-122750000D03*
X75084000Y-123250000D03*
X75084000Y-123750000D03*
X75084000Y-124247000D03*
X75084000Y-124750000D03*
X75084000Y-125251000D03*
X75084000Y-125753000D03*
X75084000Y-126255000D03*
X75084000Y-126757000D03*
X75084000Y-127250000D03*
X75084000Y-127761000D03*
X75084000Y-128250000D03*
D17*
X78000000Y-127468000D03*
D18*
X78000000Y-123892000D03*
%TD*%
D23*
%TO.C,R13*%
X84120000Y-52850000D03*
X84120000Y-51830000D03*
%TD*%
D24*
%TO.C,C32*%
X86180000Y-52820000D03*
X86180000Y-51860000D03*
%TD*%
D25*
%TO.C,J2*%
X62900000Y-56586000D03*
X62900000Y-49586000D03*
X57900000Y-56586000D03*
X57900000Y-49586000D03*
%TD*%
D26*
%TO.C,H1*%
X52970000Y-49020000D03*
%TD*%
D25*
%TO.C,J1*%
X74128000Y-56586000D03*
X74128000Y-49586000D03*
X69128000Y-56586000D03*
X69128000Y-49586000D03*
%TD*%
D27*
%TO.C,Y1*%
X101300000Y-56777600D03*
X101300000Y-59622400D03*
%TD*%
D28*
%TO.C,U6*%
X60150000Y-62975000D03*
X60150000Y-62325000D03*
X60150000Y-61675000D03*
X60150000Y-61025000D03*
X55850000Y-61025000D03*
X55850000Y-61675000D03*
X55850000Y-62325000D03*
X55850000Y-62975000D03*
%TD*%
D29*
%TO.C,C28*%
X82470000Y-77600000D03*
X83430000Y-77600000D03*
%TD*%
D30*
%TO.C,J6*%
X116839999Y-71920000D03*
D31*
X119000000Y-77000000D03*
X119000000Y-74460000D03*
X119000000Y-71920000D03*
X119000000Y-69380000D03*
%TD*%
D23*
%TO.C,R21*%
X123700000Y-68610000D03*
X123700000Y-67590000D03*
%TD*%
D26*
%TO.C,H4*%
X131500000Y-172000000D03*
%TD*%
D32*
%TO.C,FID3*%
X52970000Y-52800000D03*
%TD*%
D33*
%TO.C,Q5*%
X88000000Y-63350000D03*
X88000000Y-61450000D03*
X86125000Y-62400000D03*
%TD*%
D22*
%TO.C,C4*%
X79880000Y-58000000D03*
X78920000Y-58000000D03*
%TD*%
D34*
%TO.C,SW2*%
X124175000Y-46700000D03*
D35*
X124275000Y-46775000D03*
X128125000Y-46775000D03*
D34*
X128225000Y-46700000D03*
D35*
X124275000Y-48225000D03*
X128125000Y-48225000D03*
%TD*%
D22*
%TO.C,C29*%
X99380000Y-56800000D03*
X98420000Y-56800000D03*
%TD*%
D16*
%TO.C,U27*%
X80916000Y-156263000D03*
X80916000Y-155761000D03*
X80916000Y-155259000D03*
X80916000Y-154757000D03*
X80916000Y-154255000D03*
X80916000Y-153753000D03*
X80916000Y-153251000D03*
X80916000Y-152749000D03*
X80916000Y-152247000D03*
X80916000Y-151745000D03*
X80916000Y-151243000D03*
X80916000Y-150741000D03*
X80916000Y-150239000D03*
X80916000Y-149737000D03*
X75084000Y-149750000D03*
X75084000Y-150250000D03*
X75084000Y-150750000D03*
X75084000Y-151250000D03*
X75084000Y-151750000D03*
X75084000Y-152247000D03*
X75084000Y-152750000D03*
X75084000Y-153251000D03*
X75084000Y-153753000D03*
X75084000Y-154255000D03*
X75084000Y-154757000D03*
X75084000Y-155250000D03*
X75084000Y-155761000D03*
X75084000Y-156250000D03*
D17*
X78000000Y-155468000D03*
D18*
X78000000Y-151892000D03*
%TD*%
D36*
%TO.C,R16*%
X88810000Y-65100000D03*
X87790000Y-65100000D03*
%TD*%
D30*
%TO.C,J5*%
X99839999Y-71920000D03*
D31*
X102000000Y-77000000D03*
X102000000Y-74460000D03*
X102000000Y-71920000D03*
X102000000Y-69380000D03*
%TD*%
D37*
%TO.C,C34*%
X111200000Y-75500000D03*
X111200000Y-70100000D03*
%TD*%
D34*
%TO.C,SW1*%
X84075000Y-46700000D03*
D35*
X84175000Y-46775000D03*
X88025000Y-46775000D03*
D34*
X88125000Y-46700000D03*
D35*
X84175000Y-48225000D03*
X88025000Y-48225000D03*
%TD*%
D24*
%TO.C,C33*%
X89400000Y-173180000D03*
X89400000Y-172220000D03*
%TD*%
D26*
%TO.C,H8*%
X122500000Y-125000000D03*
%TD*%
D16*
%TO.C,U24*%
X110916000Y-156263000D03*
X110916000Y-155761000D03*
X110916000Y-155259000D03*
X110916000Y-154757000D03*
X110916000Y-154255000D03*
X110916000Y-153753000D03*
X110916000Y-153251000D03*
X110916000Y-152749000D03*
X110916000Y-152247000D03*
X110916000Y-151745000D03*
X110916000Y-151243000D03*
X110916000Y-150741000D03*
X110916000Y-150239000D03*
X110916000Y-149737000D03*
X105084000Y-149750000D03*
X105084000Y-150250000D03*
X105084000Y-150750000D03*
X105084000Y-151250000D03*
X105084000Y-151750000D03*
X105084000Y-152247000D03*
X105084000Y-152750000D03*
X105084000Y-153251000D03*
X105084000Y-153753000D03*
X105084000Y-154255000D03*
X105084000Y-154757000D03*
X105084000Y-155250000D03*
X105084000Y-155761000D03*
X105084000Y-156250000D03*
D17*
X108000000Y-155468000D03*
D18*
X108000000Y-151892000D03*
%TD*%
D29*
%TO.C,C18*%
X56520000Y-64800000D03*
X57480000Y-64800000D03*
%TD*%
D38*
%TO.C,R3*%
X77900000Y-55590000D03*
X77900000Y-56610000D03*
%TD*%
D39*
%TO.C,Q6*%
X58320000Y-69320000D03*
X57020000Y-69320000D03*
X57670000Y-71320000D03*
%TD*%
D26*
%TO.C,H7*%
X62000000Y-125000000D03*
%TD*%
D32*
%TO.C,FID1*%
X131410000Y-52800000D03*
%TD*%
D40*
%TO.C,TP6*%
X53600000Y-61600000D03*
%TD*%
%TO.C,TP7*%
X53800000Y-65000000D03*
%TD*%
D22*
%TO.C,C30*%
X99380000Y-59600000D03*
X98420000Y-59600000D03*
%TD*%
D23*
%TO.C,R15*%
X85500000Y-65710000D03*
X85500000Y-64690000D03*
%TD*%
D36*
%TO.C,R11*%
X56710000Y-59600000D03*
X55690000Y-59600000D03*
%TD*%
D32*
%TO.C,FID7*%
X53100000Y-166200000D03*
%TD*%
D41*
%TO.C,C11*%
X73800000Y-59720000D03*
X73800000Y-60680000D03*
%TD*%
D42*
%TO.C,U10*%
X87500100Y-55699999D03*
X87500100Y-55200000D03*
X87500100Y-54700001D03*
X85899900Y-54700001D03*
X85899900Y-55200000D03*
X85899900Y-55699999D03*
%TD*%
D26*
%TO.C,H10*%
X122500000Y-153000000D03*
%TD*%
D22*
%TO.C,C36*%
X107880000Y-78100000D03*
X106920000Y-78100000D03*
%TD*%
D16*
%TO.C,U16*%
X80916000Y-100263000D03*
X80916000Y-99761000D03*
X80916000Y-99259000D03*
X80916000Y-98757000D03*
X80916000Y-98255000D03*
X80916000Y-97753000D03*
X80916000Y-97251000D03*
X80916000Y-96749000D03*
X80916000Y-96247000D03*
X80916000Y-95745000D03*
X80916000Y-95243000D03*
X80916000Y-94741000D03*
X80916000Y-94239000D03*
X80916000Y-93737000D03*
X75084000Y-93750000D03*
X75084000Y-94250000D03*
X75084000Y-94750000D03*
X75084000Y-95250000D03*
X75084000Y-95750000D03*
X75084000Y-96247000D03*
X75084000Y-96750000D03*
X75084000Y-97251000D03*
X75084000Y-97753000D03*
X75084000Y-98255000D03*
X75084000Y-98757000D03*
X75084000Y-99250000D03*
X75084000Y-99761000D03*
X75084000Y-100250000D03*
D17*
X78000000Y-99468000D03*
D18*
X78000000Y-95892000D03*
%TD*%
D26*
%TO.C,H6*%
X122500000Y-97000000D03*
%TD*%
%TO.C,H5*%
X62000000Y-97000000D03*
%TD*%
D43*
%TO.C,J7*%
X125800000Y-55200000D03*
D44*
X125800000Y-57740000D03*
X125800000Y-60280000D03*
X125800000Y-62820000D03*
%TD*%
D45*
%TO.C,U9*%
X104350000Y-47780000D03*
X104350000Y-49050000D03*
X104350000Y-50320000D03*
X104350000Y-51590000D03*
X104350000Y-52860000D03*
X104350000Y-54130000D03*
X104350000Y-55400000D03*
X104350000Y-56670000D03*
X104350000Y-57940000D03*
X104350000Y-59210000D03*
X104350000Y-60480000D03*
X104350000Y-61750000D03*
X104350000Y-63020000D03*
X104350000Y-64290000D03*
D46*
X106115000Y-65540000D03*
X107385000Y-65540000D03*
X108655000Y-65540000D03*
X109925000Y-65540000D03*
X111195000Y-65540000D03*
X112465000Y-65540000D03*
X113735000Y-65540000D03*
X115005000Y-65540000D03*
X116275000Y-65540000D03*
X117545000Y-65540000D03*
X118815000Y-65540000D03*
X120085000Y-65540000D03*
D45*
X121850000Y-64290000D03*
X121850000Y-63020000D03*
X121850000Y-61750000D03*
X121850000Y-60480000D03*
X121850000Y-59210000D03*
X121850000Y-57940000D03*
X121850000Y-56670000D03*
X121850000Y-55400000D03*
X121850000Y-54130000D03*
X121850000Y-52860000D03*
X121850000Y-51590000D03*
X121850000Y-50320000D03*
X121850000Y-49050000D03*
X121850000Y-47780000D03*
D47*
X110200000Y-54100000D03*
X110200000Y-55500000D03*
X110200000Y-56900000D03*
X111600000Y-54100000D03*
X111600000Y-55500000D03*
X111600000Y-56900000D03*
X113000000Y-54100000D03*
X113000000Y-55500000D03*
X113000000Y-56900000D03*
%TD*%
D48*
%TO.C,J8*%
X78725000Y-74050000D03*
X79975000Y-74050000D03*
X81225000Y-74050000D03*
X82475000Y-74050000D03*
X83725000Y-74050000D03*
X84975000Y-74050000D03*
X86225000Y-74050000D03*
X87475000Y-74050000D03*
X88725000Y-74050000D03*
X89975000Y-74050000D03*
X91225000Y-74050000D03*
X92475000Y-74050000D03*
D49*
X76875000Y-70700000D03*
X94325000Y-70700000D03*
%TD*%
D32*
%TO.C,FID5*%
X131570000Y-166200000D03*
%TD*%
D42*
%TO.C,U11*%
X92400100Y-173699999D03*
X92400100Y-173200000D03*
X92400100Y-172700001D03*
X90799900Y-172700001D03*
X90799900Y-173200000D03*
X90799900Y-173699999D03*
%TD*%
D41*
%TO.C,C24*%
X88040000Y-51870000D03*
X88040000Y-52830000D03*
%TD*%
D50*
%TO.C,J4*%
X100400000Y-52300000D03*
X94620000Y-52300000D03*
D51*
X100710000Y-53420000D03*
X99910000Y-53420000D03*
D52*
X98760000Y-53375000D03*
X97760000Y-53375000D03*
X97260000Y-53375000D03*
X96260000Y-53375000D03*
D51*
X95110000Y-53420000D03*
X94310000Y-53420000D03*
X94310000Y-53420000D03*
X95110000Y-53420000D03*
D52*
X95760000Y-53375000D03*
X96760000Y-53375000D03*
X98260000Y-53375000D03*
X99260000Y-53375000D03*
D51*
X99910000Y-53420000D03*
X100710000Y-53420000D03*
D53*
X101830000Y-52800000D03*
D54*
X101830000Y-48620000D03*
D53*
X93190000Y-52800000D03*
D54*
X93190000Y-48620000D03*
%TD*%
D36*
%TO.C,R12*%
X58910000Y-59600000D03*
X57890000Y-59600000D03*
%TD*%
D26*
%TO.C,H2*%
X131500000Y-49020000D03*
%TD*%
%TO.C,H3*%
X53000000Y-172000000D03*
%TD*%
%TO.C,H9*%
X62000000Y-153000000D03*
%TD*%
D37*
%TO.C,C35*%
X128100000Y-76000000D03*
X128100000Y-70600000D03*
%TD*%
D38*
%TO.C,R2*%
X81000000Y-55590000D03*
X81000000Y-56610000D03*
%TD*%
D55*
%TO.C,D1*%
X93600000Y-61900000D03*
X93600000Y-57900000D03*
%TD*%
D23*
%TO.C,R20*%
X98200000Y-69910000D03*
X98200000Y-68890000D03*
%TD*%
D16*
%TO.C,U13*%
X110916000Y-100263000D03*
X110916000Y-99761000D03*
X110916000Y-99259000D03*
X110916000Y-98757000D03*
X110916000Y-98255000D03*
X110916000Y-97753000D03*
X110916000Y-97251000D03*
X110916000Y-96749000D03*
X110916000Y-96247000D03*
X110916000Y-95745000D03*
X110916000Y-95243000D03*
X110916000Y-94741000D03*
X110916000Y-94239000D03*
X110916000Y-93737000D03*
X105084000Y-93750000D03*
X105084000Y-94250000D03*
X105084000Y-94750000D03*
X105084000Y-95250000D03*
X105084000Y-95750000D03*
X105084000Y-96247000D03*
X105084000Y-96750000D03*
X105084000Y-97251000D03*
X105084000Y-97753000D03*
X105084000Y-98255000D03*
X105084000Y-98757000D03*
X105084000Y-99250000D03*
X105084000Y-99761000D03*
X105084000Y-100250000D03*
D17*
X108000000Y-99468000D03*
D18*
X108000000Y-95892000D03*
%TD*%
D56*
%TO.C,U4*%
X61080000Y-69342000D03*
X61655000Y-68392000D03*
X61655000Y-70292000D03*
X62230000Y-69342000D03*
%TD*%
%LPD*%
M02*
