%TF.GenerationSoftware,KiCad,Pcbnew,7.0.7*%
%TF.CreationDate,2023-12-16T21:43:42-07:00*%
%TF.ProjectId,bitaxeHex,62697461-7865-4486-9578-2e6b69636164,0.9*%
%TF.SameCoordinates,Original*%
%TF.FileFunction,Paste,Bot*%
%TF.FilePolarity,Positive*%
%FSLAX46Y46*%
G04 Gerber Fmt 4.6, Leading zero omitted, Abs format (unit mm)*
G04 Created by KiCad (PCBNEW 7.0.7) date 2023-12-16 21:43:42*
%MOMM*%
%LPD*%
G01*
G04 APERTURE LIST*
G04 Aperture macros list*
%AMRoundRect*
0 Rectangle with rounded corners*
0 $1 Rounding radius*
0 $2 $3 $4 $5 $6 $7 $8 $9 X,Y pos of 4 corners*
0 Add a 4 corners polygon primitive as box body*
4,1,4,$2,$3,$4,$5,$6,$7,$8,$9,$2,$3,0*
0 Add four circle primitives for the rounded corners*
1,1,$1+$1,$2,$3*
1,1,$1+$1,$4,$5*
1,1,$1+$1,$6,$7*
1,1,$1+$1,$8,$9*
0 Add four rect primitives between the rounded corners*
20,1,$1+$1,$2,$3,$4,$5,0*
20,1,$1+$1,$4,$5,$6,$7,0*
20,1,$1+$1,$6,$7,$8,$9,0*
20,1,$1+$1,$8,$9,$2,$3,0*%
G04 Aperture macros list end*
%ADD10RoundRect,0.140000X-0.170000X0.140000X-0.170000X-0.140000X0.170000X-0.140000X0.170000X0.140000X0*%
%ADD11RoundRect,0.135000X0.135000X0.185000X-0.135000X0.185000X-0.135000X-0.185000X0.135000X-0.185000X0*%
%ADD12RoundRect,0.140000X0.170000X-0.140000X0.170000X0.140000X-0.170000X0.140000X-0.170000X-0.140000X0*%
%ADD13RoundRect,0.124250X0.538250X0.124250X-0.538250X0.124250X-0.538250X-0.124250X0.538250X-0.124250X0*%
%ADD14RoundRect,0.125000X0.537500X0.125000X-0.537500X0.125000X-0.537500X-0.125000X0.537500X-0.125000X0*%
%ADD15RoundRect,0.140000X0.140000X0.170000X-0.140000X0.170000X-0.140000X-0.170000X0.140000X-0.170000X0*%
%ADD16RoundRect,0.135000X-0.185000X0.135000X-0.185000X-0.135000X0.185000X-0.135000X0.185000X0.135000X0*%
%ADD17RoundRect,0.250000X0.250000X0.475000X-0.250000X0.475000X-0.250000X-0.475000X0.250000X-0.475000X0*%
%ADD18RoundRect,0.250000X-0.875000X-1.025000X0.875000X-1.025000X0.875000X1.025000X-0.875000X1.025000X0*%
%ADD19RoundRect,0.135000X0.185000X-0.135000X0.185000X0.135000X-0.185000X0.135000X-0.185000X-0.135000X0*%
%ADD20RoundRect,0.150000X0.512500X0.150000X-0.512500X0.150000X-0.512500X-0.150000X0.512500X-0.150000X0*%
%ADD21RoundRect,0.135000X-0.135000X-0.185000X0.135000X-0.185000X0.135000X0.185000X-0.135000X0.185000X0*%
%ADD22R,0.650000X1.560000*%
%ADD23RoundRect,0.140000X-0.140000X-0.170000X0.140000X-0.170000X0.140000X0.170000X-0.140000X0.170000X0*%
%ADD24RoundRect,0.100000X0.100000X-0.637500X0.100000X0.637500X-0.100000X0.637500X-0.100000X-0.637500X0*%
%ADD25R,0.400000X1.100000*%
%ADD26RoundRect,0.112500X-0.112500X0.187500X-0.112500X-0.187500X0.112500X-0.187500X0.112500X0.187500X0*%
%ADD27R,0.558800X0.952500*%
%ADD28RoundRect,0.225000X0.225000X0.250000X-0.225000X0.250000X-0.225000X-0.250000X0.225000X-0.250000X0*%
%ADD29RoundRect,0.225000X0.250000X-0.225000X0.250000X0.225000X-0.250000X0.225000X-0.250000X-0.225000X0*%
%ADD30RoundRect,0.150000X0.150000X-0.512500X0.150000X0.512500X-0.150000X0.512500X-0.150000X-0.512500X0*%
%ADD31R,1.300000X1.100000*%
%ADD32R,0.300000X1.400000*%
%ADD33RoundRect,0.250000X-0.362500X-1.425000X0.362500X-1.425000X0.362500X1.425000X-0.362500X1.425000X0*%
%ADD34RoundRect,0.250000X-0.250000X-0.475000X0.250000X-0.475000X0.250000X0.475000X-0.250000X0.475000X0*%
%ADD35RoundRect,0.250000X1.425000X-0.362500X1.425000X0.362500X-1.425000X0.362500X-1.425000X-0.362500X0*%
%ADD36RoundRect,0.250000X0.362500X1.425000X-0.362500X1.425000X-0.362500X-1.425000X0.362500X-1.425000X0*%
%ADD37R,1.100000X1.300000*%
%ADD38R,3.700000X1.680000*%
%ADD39RoundRect,0.225000X-0.225000X-0.250000X0.225000X-0.250000X0.225000X0.250000X-0.225000X0.250000X0*%
%ADD40RoundRect,0.250000X0.315000X0.315000X-0.315000X0.315000X-0.315000X-0.315000X0.315000X-0.315000X0*%
%ADD41RoundRect,0.062500X0.375000X0.062500X-0.375000X0.062500X-0.375000X-0.062500X0.375000X-0.062500X0*%
%ADD42RoundRect,0.062500X0.062500X0.375000X-0.062500X0.375000X-0.062500X-0.375000X0.062500X-0.375000X0*%
G04 APERTURE END LIST*
D10*
%TO.C,C158*%
X108600000Y-75670000D03*
X108600000Y-76630000D03*
%TD*%
D11*
%TO.C,R36*%
X70010000Y-99500000D03*
X68990000Y-99500000D03*
%TD*%
D12*
%TO.C,C48*%
X98250000Y-103730000D03*
X98250000Y-102770000D03*
%TD*%
%TO.C,C44*%
X97800000Y-91380000D03*
X97800000Y-90420000D03*
%TD*%
D13*
%TO.C,U3*%
X64887500Y-61175000D03*
X64887500Y-61825000D03*
X64887500Y-62475000D03*
X64887500Y-63125000D03*
X62612500Y-63125000D03*
X62612500Y-62475000D03*
X62612500Y-61825000D03*
D14*
X62612500Y-61175000D03*
%TD*%
D15*
%TO.C,C104*%
X71680000Y-118000000D03*
X70720000Y-118000000D03*
%TD*%
D12*
%TO.C,C14*%
X81300000Y-73880000D03*
X81300000Y-72920000D03*
%TD*%
%TO.C,C37*%
X62500000Y-71580000D03*
X62500000Y-70620000D03*
%TD*%
%TO.C,C97*%
X69400000Y-131580000D03*
X69400000Y-130620000D03*
%TD*%
D16*
%TO.C,R100*%
X98200000Y-71330000D03*
X98200000Y-72350000D03*
%TD*%
D17*
%TO.C,C159*%
X109700000Y-80500000D03*
X107800000Y-80500000D03*
%TD*%
D16*
%TO.C,R63*%
X53600000Y-109290000D03*
X53600000Y-110310000D03*
%TD*%
D18*
%TO.C,C150*%
X89800000Y-168300000D03*
X96200000Y-168300000D03*
%TD*%
D19*
%TO.C,R5*%
X77500000Y-80010000D03*
X77500000Y-78990000D03*
%TD*%
D15*
%TO.C,C147*%
X112180000Y-162100000D03*
X111220000Y-162100000D03*
%TD*%
D12*
%TO.C,C122*%
X100500000Y-159660000D03*
X100500000Y-158700000D03*
%TD*%
D20*
%TO.C,U25*%
X94837500Y-145350000D03*
X94837500Y-146300000D03*
X94837500Y-147250000D03*
X92562500Y-147250000D03*
X92562500Y-145350000D03*
%TD*%
D19*
%TO.C,R50*%
X65630000Y-114130000D03*
X65630000Y-113110000D03*
%TD*%
D15*
%TO.C,C32*%
X81930000Y-52800000D03*
X80970000Y-52800000D03*
%TD*%
D21*
%TO.C,R54*%
X89790000Y-118300000D03*
X90810000Y-118300000D03*
%TD*%
D17*
%TO.C,C157*%
X104600000Y-70800000D03*
X102700000Y-70800000D03*
%TD*%
D12*
%TO.C,C83*%
X86700000Y-130980000D03*
X86700000Y-130020000D03*
%TD*%
D21*
%TO.C,R9*%
X89040000Y-72700000D03*
X90060000Y-72700000D03*
%TD*%
D15*
%TO.C,C60*%
X74480000Y-104200000D03*
X73520000Y-104200000D03*
%TD*%
D21*
%TO.C,R113*%
X103940000Y-80100000D03*
X104960000Y-80100000D03*
%TD*%
D12*
%TO.C,C123*%
X99300000Y-158660000D03*
X99300000Y-157700000D03*
%TD*%
D16*
%TO.C,R103*%
X131100000Y-136740000D03*
X131100000Y-137760000D03*
%TD*%
D11*
%TO.C,R92*%
X87110000Y-153800000D03*
X86090000Y-153800000D03*
%TD*%
D21*
%TO.C,R76*%
X107440000Y-68000000D03*
X108460000Y-68000000D03*
%TD*%
D19*
%TO.C,R93*%
X118230000Y-137100000D03*
X118230000Y-136080000D03*
%TD*%
D21*
%TO.C,R107*%
X80540000Y-68550000D03*
X81560000Y-68550000D03*
%TD*%
D22*
%TO.C,U5*%
X126350000Y-70950000D03*
X127300000Y-70950000D03*
X128250000Y-70950000D03*
X128250000Y-73650000D03*
X126350000Y-73650000D03*
%TD*%
D10*
%TO.C,C136*%
X128680000Y-138440000D03*
X128680000Y-139400000D03*
%TD*%
%TO.C,C72*%
X64330000Y-113160000D03*
X64330000Y-114120000D03*
%TD*%
D15*
%TO.C,C58*%
X82980000Y-90100000D03*
X82020000Y-90100000D03*
%TD*%
D16*
%TO.C,R65*%
X58300000Y-105377500D03*
X58300000Y-106397500D03*
%TD*%
D10*
%TO.C,C79*%
X88200000Y-112120000D03*
X88200000Y-113080000D03*
%TD*%
D21*
%TO.C,R8*%
X89040000Y-71300000D03*
X90060000Y-71300000D03*
%TD*%
D15*
%TO.C,C82*%
X101380000Y-118500000D03*
X100420000Y-118500000D03*
%TD*%
D23*
%TO.C,C27*%
X125220000Y-83400000D03*
X126180000Y-83400000D03*
%TD*%
D15*
%TO.C,C43*%
X112680000Y-102800000D03*
X111720000Y-102800000D03*
%TD*%
D11*
%TO.C,R70*%
X87710000Y-122600000D03*
X86690000Y-122600000D03*
%TD*%
%TO.C,R91*%
X99810000Y-156400000D03*
X98790000Y-156400000D03*
%TD*%
%TO.C,R37*%
X70010000Y-95000000D03*
X68990000Y-95000000D03*
%TD*%
D12*
%TO.C,C50*%
X97000000Y-102730000D03*
X97000000Y-101770000D03*
%TD*%
D23*
%TO.C,C21*%
X78020000Y-71750000D03*
X78980000Y-71750000D03*
%TD*%
D12*
%TO.C,C105*%
X68200000Y-128600000D03*
X68200000Y-127640000D03*
%TD*%
D11*
%TO.C,R38*%
X101010000Y-93570000D03*
X99990000Y-93570000D03*
%TD*%
D24*
%TO.C,U7*%
X122975000Y-86762500D03*
X122325000Y-86762500D03*
X121675000Y-86762500D03*
X121025000Y-86762500D03*
X120375000Y-86762500D03*
X119725000Y-86762500D03*
X119075000Y-86762500D03*
X118425000Y-86762500D03*
X118425000Y-81037500D03*
X119075000Y-81037500D03*
X119725000Y-81037500D03*
X120375000Y-81037500D03*
X121025000Y-81037500D03*
X121675000Y-81037500D03*
X122325000Y-81037500D03*
X122975000Y-81037500D03*
%TD*%
D15*
%TO.C,C133*%
X71160000Y-159800000D03*
X70200000Y-159800000D03*
%TD*%
D11*
%TO.C,R67*%
X87710000Y-123700000D03*
X86690000Y-123700000D03*
%TD*%
D10*
%TO.C,C102*%
X64330000Y-110890000D03*
X64330000Y-111850000D03*
%TD*%
D12*
%TO.C,C81*%
X88000000Y-132080000D03*
X88000000Y-131120000D03*
%TD*%
D20*
%TO.C,U15*%
X94737500Y-85350000D03*
X94737500Y-86300000D03*
X94737500Y-87250000D03*
X92462500Y-87250000D03*
X92462500Y-85350000D03*
%TD*%
D12*
%TO.C,C139*%
X68980000Y-157780000D03*
X68980000Y-156820000D03*
%TD*%
%TO.C,C74*%
X97500000Y-117280000D03*
X97500000Y-116320000D03*
%TD*%
D25*
%TO.C,U6*%
X83475000Y-60700000D03*
X84125000Y-60700000D03*
X84775000Y-60700000D03*
X85425000Y-60700000D03*
X85425000Y-65000000D03*
X84775000Y-65000000D03*
X84125000Y-65000000D03*
X83475000Y-65000000D03*
%TD*%
D10*
%TO.C,C56*%
X85400000Y-91270000D03*
X85400000Y-92230000D03*
%TD*%
D16*
%TO.C,R95*%
X122880000Y-132400000D03*
X122880000Y-133420000D03*
%TD*%
D19*
%TO.C,R85*%
X98200000Y-75050000D03*
X98200000Y-74030000D03*
%TD*%
D11*
%TO.C,R61*%
X101010000Y-124900000D03*
X99990000Y-124900000D03*
%TD*%
%TO.C,R23*%
X99050000Y-147580000D03*
X98030000Y-147580000D03*
%TD*%
D15*
%TO.C,C65*%
X69980000Y-91500000D03*
X69020000Y-91500000D03*
%TD*%
D21*
%TO.C,R21*%
X62390000Y-81700000D03*
X63410000Y-81700000D03*
%TD*%
D26*
%TO.C,D2*%
X71350000Y-71250000D03*
X71350000Y-73350000D03*
%TD*%
D12*
%TO.C,C99*%
X68200000Y-130580000D03*
X68200000Y-129620000D03*
%TD*%
D10*
%TO.C,C78*%
X88000000Y-117320000D03*
X88000000Y-118280000D03*
%TD*%
D21*
%TO.C,R32*%
X68610000Y-145870000D03*
X69630000Y-145870000D03*
%TD*%
D11*
%TO.C,R114*%
X79810000Y-79500000D03*
X78790000Y-79500000D03*
%TD*%
D19*
%TO.C,R112*%
X103950000Y-82460000D03*
X103950000Y-81440000D03*
%TD*%
D10*
%TO.C,C121*%
X88000000Y-140520000D03*
X88000000Y-141480000D03*
%TD*%
%TO.C,C55*%
X87000000Y-100750000D03*
X87000000Y-101710000D03*
%TD*%
%TO.C,C4*%
X67200000Y-61020000D03*
X67200000Y-61980000D03*
%TD*%
%TO.C,C103*%
X56030000Y-110880000D03*
X56030000Y-111840000D03*
%TD*%
D15*
%TO.C,C13*%
X119380000Y-71050000D03*
X118420000Y-71050000D03*
%TD*%
D23*
%TO.C,C19*%
X82820000Y-76800000D03*
X83780000Y-76800000D03*
%TD*%
D10*
%TO.C,C57*%
X88250000Y-101790000D03*
X88250000Y-102750000D03*
%TD*%
D12*
%TO.C,C96*%
X64330000Y-109600000D03*
X64330000Y-108640000D03*
%TD*%
D16*
%TO.C,R75*%
X65630000Y-108610000D03*
X65630000Y-109630000D03*
%TD*%
D12*
%TO.C,C94*%
X79800000Y-136880000D03*
X79800000Y-135920000D03*
%TD*%
D15*
%TO.C,C138*%
X71480000Y-146900000D03*
X70520000Y-146900000D03*
%TD*%
%TO.C,C116*%
X103580000Y-160700000D03*
X102620000Y-160700000D03*
%TD*%
D21*
%TO.C,R55*%
X89990000Y-113100000D03*
X91010000Y-113100000D03*
%TD*%
D11*
%TO.C,R39*%
X70010000Y-98250000D03*
X68990000Y-98250000D03*
%TD*%
D15*
%TO.C,C109*%
X112880000Y-146800000D03*
X111920000Y-146800000D03*
%TD*%
%TO.C,C128*%
X85180000Y-160620000D03*
X84220000Y-160620000D03*
%TD*%
D10*
%TO.C,C141*%
X81200000Y-107920000D03*
X81200000Y-108880000D03*
%TD*%
%TO.C,C86*%
X100400000Y-129040000D03*
X100400000Y-130000000D03*
%TD*%
D24*
%TO.C,U23*%
X126730000Y-141762500D03*
X126080000Y-141762500D03*
X125430000Y-141762500D03*
X124780000Y-141762500D03*
X124130000Y-141762500D03*
X123480000Y-141762500D03*
X122830000Y-141762500D03*
X122830000Y-136037500D03*
X123480000Y-136037500D03*
X124130000Y-136037500D03*
X124780000Y-136037500D03*
X125430000Y-136037500D03*
X126080000Y-136037500D03*
X126730000Y-136037500D03*
%TD*%
%TO.C,U18*%
X62150000Y-114250000D03*
X61500000Y-114250000D03*
X60850000Y-114250000D03*
X60200000Y-114250000D03*
X59550000Y-114250000D03*
X58900000Y-114250000D03*
X58250000Y-114250000D03*
X58250000Y-108525000D03*
X58900000Y-108525000D03*
X59550000Y-108525000D03*
X60200000Y-108525000D03*
X60850000Y-108525000D03*
X61500000Y-108525000D03*
X62150000Y-108525000D03*
%TD*%
D27*
%TO.C,U2*%
X119389800Y-75227950D03*
X118450000Y-75227950D03*
X117510200Y-75227950D03*
X117510200Y-72472050D03*
X119389800Y-72472050D03*
%TD*%
D23*
%TO.C,C22*%
X89070000Y-74200000D03*
X90030000Y-74200000D03*
%TD*%
D15*
%TO.C,C151*%
X112280000Y-144500000D03*
X111320000Y-144500000D03*
%TD*%
D12*
%TO.C,C143*%
X79700000Y-108880000D03*
X79700000Y-107920000D03*
%TD*%
D23*
%TO.C,C146*%
X73220000Y-162500000D03*
X74180000Y-162500000D03*
%TD*%
D10*
%TO.C,C120*%
X88300000Y-145720000D03*
X88300000Y-146680000D03*
%TD*%
D21*
%TO.C,R25*%
X89190000Y-87600000D03*
X90210000Y-87600000D03*
%TD*%
D11*
%TO.C,R111*%
X81560000Y-70350000D03*
X80540000Y-70350000D03*
%TD*%
D28*
%TO.C,C7*%
X73475000Y-75850000D03*
X71925000Y-75850000D03*
%TD*%
D10*
%TO.C,C124*%
X86500000Y-157320000D03*
X86500000Y-158280000D03*
%TD*%
D11*
%TO.C,R30*%
X99910000Y-97800000D03*
X98890000Y-97800000D03*
%TD*%
D15*
%TO.C,C132*%
X73160000Y-159800000D03*
X72200000Y-159800000D03*
%TD*%
D21*
%TO.C,R109*%
X116990000Y-152600000D03*
X118010000Y-152600000D03*
%TD*%
D10*
%TO.C,C108*%
X115900000Y-157140000D03*
X115900000Y-158100000D03*
%TD*%
D23*
%TO.C,C68*%
X114220000Y-118500000D03*
X115180000Y-118500000D03*
%TD*%
D15*
%TO.C,C70*%
X112980000Y-118500000D03*
X112020000Y-118500000D03*
%TD*%
D21*
%TO.C,R19*%
X94690000Y-50300000D03*
X95710000Y-50300000D03*
%TD*%
D23*
%TO.C,C149*%
X111220000Y-163500000D03*
X112180000Y-163500000D03*
%TD*%
D19*
%TO.C,R22*%
X118800000Y-100810000D03*
X118800000Y-99790000D03*
%TD*%
D29*
%TO.C,C8*%
X73300000Y-73225000D03*
X73300000Y-71675000D03*
%TD*%
D16*
%TO.C,R105*%
X126630000Y-132400000D03*
X126630000Y-133420000D03*
%TD*%
D18*
%TO.C,C145*%
X89400000Y-107700000D03*
X95800000Y-107700000D03*
%TD*%
D30*
%TO.C,U1*%
X107150000Y-78237500D03*
X106200000Y-78237500D03*
X105250000Y-78237500D03*
X105250000Y-75962500D03*
X106200000Y-75962500D03*
X107150000Y-75962500D03*
%TD*%
D12*
%TO.C,C84*%
X88000000Y-129980000D03*
X88000000Y-129020000D03*
%TD*%
D10*
%TO.C,C38*%
X117500000Y-99790000D03*
X117500000Y-100750000D03*
%TD*%
D19*
%TO.C,R81*%
X129930000Y-141730000D03*
X129930000Y-140710000D03*
%TD*%
D12*
%TO.C,C101*%
X69400000Y-129580000D03*
X69400000Y-128620000D03*
%TD*%
%TO.C,C95*%
X106500000Y-138580000D03*
X106500000Y-137620000D03*
%TD*%
D21*
%TO.C,R10*%
X89040000Y-75550000D03*
X90060000Y-75550000D03*
%TD*%
D16*
%TO.C,R64*%
X59600000Y-105390000D03*
X59600000Y-106410000D03*
%TD*%
D12*
%TO.C,C18*%
X81850000Y-62930000D03*
X81850000Y-61970000D03*
%TD*%
%TO.C,C135*%
X70180000Y-158680000D03*
X70180000Y-157720000D03*
%TD*%
D11*
%TO.C,R3*%
X68210000Y-63450000D03*
X67190000Y-63450000D03*
%TD*%
D10*
%TO.C,C54*%
X88250000Y-99790000D03*
X88250000Y-100750000D03*
%TD*%
D23*
%TO.C,C140*%
X73420000Y-116000000D03*
X74380000Y-116000000D03*
%TD*%
D11*
%TO.C,R97*%
X99810000Y-151700000D03*
X98790000Y-151700000D03*
%TD*%
D23*
%TO.C,C152*%
X80620000Y-67300000D03*
X81580000Y-67300000D03*
%TD*%
D19*
%TO.C,R84*%
X122880000Y-145400000D03*
X122880000Y-144380000D03*
%TD*%
D31*
%TO.C,U17*%
X122450000Y-105250000D03*
X120150000Y-105250000D03*
X120150000Y-103350000D03*
X122450000Y-103350000D03*
%TD*%
D16*
%TO.C,R44*%
X66880000Y-113110000D03*
X66880000Y-114130000D03*
%TD*%
D12*
%TO.C,C45*%
X96800000Y-86280000D03*
X96800000Y-85320000D03*
%TD*%
D19*
%TO.C,R83*%
X124130000Y-145400000D03*
X124130000Y-144380000D03*
%TD*%
D17*
%TO.C,C156*%
X109700000Y-82700000D03*
X107800000Y-82700000D03*
%TD*%
D19*
%TO.C,R72*%
X66880000Y-109630000D03*
X66880000Y-108610000D03*
%TD*%
D11*
%TO.C,R101*%
X99810000Y-150500000D03*
X98790000Y-150500000D03*
%TD*%
D32*
%TO.C,U12*%
X60050000Y-85150000D03*
X59550000Y-85150000D03*
X59050000Y-85150000D03*
X58550000Y-85150000D03*
X58050000Y-85150000D03*
X58050000Y-80750000D03*
X58550000Y-80750000D03*
X59050000Y-80750000D03*
X59550000Y-80750000D03*
X60050000Y-80750000D03*
%TD*%
D11*
%TO.C,R96*%
X99810000Y-154000000D03*
X98790000Y-154000000D03*
%TD*%
D23*
%TO.C,C46*%
X103320000Y-90500000D03*
X104280000Y-90500000D03*
%TD*%
D11*
%TO.C,R18*%
X99810000Y-50300000D03*
X98790000Y-50300000D03*
%TD*%
D33*
%TO.C,R99*%
X106637500Y-166400000D03*
X112562500Y-166400000D03*
%TD*%
D11*
%TO.C,R28*%
X90210000Y-85300000D03*
X89190000Y-85300000D03*
%TD*%
D20*
%TO.C,U21*%
X95437500Y-111150000D03*
X95437500Y-112100000D03*
X95437500Y-113050000D03*
X93162500Y-113050000D03*
X93162500Y-111150000D03*
%TD*%
D12*
%TO.C,C114*%
X96900000Y-140980000D03*
X96900000Y-140020000D03*
%TD*%
D23*
%TO.C,C107*%
X114020000Y-146800000D03*
X114980000Y-146800000D03*
%TD*%
D11*
%TO.C,R27*%
X91810000Y-90600000D03*
X90790000Y-90600000D03*
%TD*%
D34*
%TO.C,C23*%
X108250000Y-49100000D03*
X110150000Y-49100000D03*
%TD*%
D16*
%TO.C,R77*%
X64400000Y-103490000D03*
X64400000Y-104510000D03*
%TD*%
D15*
%TO.C,C41*%
X112680000Y-90400000D03*
X111720000Y-90400000D03*
%TD*%
D11*
%TO.C,R17*%
X69010000Y-123300000D03*
X67990000Y-123300000D03*
%TD*%
%TO.C,R41*%
X70010000Y-93750000D03*
X68990000Y-93750000D03*
%TD*%
D12*
%TO.C,C66*%
X69000000Y-102230000D03*
X69000000Y-101270000D03*
%TD*%
D20*
%TO.C,U26*%
X94937500Y-140050000D03*
X94937500Y-141000000D03*
X94937500Y-141950000D03*
X92662500Y-141950000D03*
X92662500Y-140050000D03*
%TD*%
D12*
%TO.C,C131*%
X128680000Y-137100000D03*
X128680000Y-136140000D03*
%TD*%
D16*
%TO.C,R14*%
X117150000Y-80040000D03*
X117150000Y-81060000D03*
%TD*%
D23*
%TO.C,C87*%
X84220000Y-118100000D03*
X85180000Y-118100000D03*
%TD*%
%TO.C,C77*%
X84720000Y-132120000D03*
X85680000Y-132120000D03*
%TD*%
D12*
%TO.C,C20*%
X82450000Y-75530000D03*
X82450000Y-74570000D03*
%TD*%
D23*
%TO.C,C100*%
X73020000Y-118100000D03*
X73980000Y-118100000D03*
%TD*%
D19*
%TO.C,R11*%
X87200000Y-65310000D03*
X87200000Y-64290000D03*
%TD*%
D31*
%TO.C,U8*%
X71750000Y-115950000D03*
X69450000Y-115950000D03*
X69450000Y-114050000D03*
X71750000Y-114050000D03*
%TD*%
D10*
%TO.C,C117*%
X120730000Y-140710000D03*
X120730000Y-141670000D03*
%TD*%
D16*
%TO.C,R73*%
X60900000Y-105377500D03*
X60900000Y-106397500D03*
%TD*%
%TO.C,R102*%
X119480000Y-136080000D03*
X119480000Y-137100000D03*
%TD*%
D19*
%TO.C,R80*%
X126630000Y-145400000D03*
X126630000Y-144380000D03*
%TD*%
%TO.C,R78*%
X129980000Y-139410000D03*
X129980000Y-138390000D03*
%TD*%
D12*
%TO.C,C53*%
X98250000Y-101730000D03*
X98250000Y-100770000D03*
%TD*%
%TO.C,C11*%
X63750000Y-65280000D03*
X63750000Y-64320000D03*
%TD*%
D23*
%TO.C,C134*%
X73220000Y-146900000D03*
X74180000Y-146900000D03*
%TD*%
D10*
%TO.C,C80*%
X56030000Y-113130000D03*
X56030000Y-114090000D03*
%TD*%
D12*
%TO.C,C64*%
X70250000Y-103230000D03*
X70250000Y-102270000D03*
%TD*%
D21*
%TO.C,R87*%
X89690000Y-142200000D03*
X90710000Y-142200000D03*
%TD*%
D15*
%TO.C,C118*%
X101480000Y-160700000D03*
X100520000Y-160700000D03*
%TD*%
D11*
%TO.C,R66*%
X87610000Y-125300000D03*
X86590000Y-125300000D03*
%TD*%
%TO.C,R33*%
X101010000Y-94800000D03*
X99990000Y-94800000D03*
%TD*%
D35*
%TO.C,R62*%
X76700000Y-141862500D03*
X76700000Y-135937500D03*
%TD*%
D23*
%TO.C,C39*%
X115270000Y-91500000D03*
X116230000Y-91500000D03*
%TD*%
D10*
%TO.C,C52*%
X87300000Y-85520000D03*
X87300000Y-86480000D03*
%TD*%
D36*
%TO.C,R98*%
X78562500Y-166800000D03*
X72637500Y-166800000D03*
%TD*%
D10*
%TO.C,C67*%
X117000000Y-128300000D03*
X117000000Y-129260000D03*
%TD*%
%TO.C,C125*%
X85200000Y-158340000D03*
X85200000Y-159300000D03*
%TD*%
D11*
%TO.C,R57*%
X91010000Y-111200000D03*
X89990000Y-111200000D03*
%TD*%
D19*
%TO.C,R52*%
X59550000Y-118100000D03*
X59550000Y-117080000D03*
%TD*%
D12*
%TO.C,C36*%
X54500000Y-71480000D03*
X54500000Y-70520000D03*
%TD*%
D11*
%TO.C,R69*%
X87610000Y-126600000D03*
X86590000Y-126600000D03*
%TD*%
D10*
%TO.C,C71*%
X115900000Y-131220000D03*
X115900000Y-132180000D03*
%TD*%
D12*
%TO.C,C113*%
X96900000Y-146280000D03*
X96900000Y-145320000D03*
%TD*%
%TO.C,C127*%
X120730000Y-137070000D03*
X120730000Y-136110000D03*
%TD*%
D15*
%TO.C,C49*%
X100980000Y-91500000D03*
X100020000Y-91500000D03*
%TD*%
%TO.C,C130*%
X82780000Y-160600000D03*
X81820000Y-160600000D03*
%TD*%
D10*
%TO.C,C92*%
X100400000Y-131040000D03*
X100400000Y-132000000D03*
%TD*%
D19*
%TO.C,R46*%
X62050000Y-118100000D03*
X62050000Y-117080000D03*
%TD*%
D10*
%TO.C,C142*%
X104000000Y-109620000D03*
X104000000Y-110580000D03*
%TD*%
D11*
%TO.C,R90*%
X90810000Y-139700000D03*
X89790000Y-139700000D03*
%TD*%
D16*
%TO.C,R106*%
X129930000Y-136110000D03*
X129930000Y-137130000D03*
%TD*%
D10*
%TO.C,C111*%
X128680000Y-140740000D03*
X128680000Y-141700000D03*
%TD*%
%TO.C,C137*%
X121030000Y-138420000D03*
X121030000Y-139380000D03*
%TD*%
D20*
%TO.C,U14*%
X96037500Y-90350000D03*
X96037500Y-91300000D03*
X96037500Y-92250000D03*
X93762500Y-92250000D03*
X93762500Y-90350000D03*
%TD*%
D11*
%TO.C,R42*%
X99330000Y-121620000D03*
X98310000Y-121620000D03*
%TD*%
D37*
%TO.C,U28*%
X114250000Y-144650000D03*
X114250000Y-142350000D03*
X116150000Y-142350000D03*
X116150000Y-144650000D03*
%TD*%
D19*
%TO.C,R26*%
X100000000Y-100510000D03*
X100000000Y-99490000D03*
%TD*%
D12*
%TO.C,C17*%
X124100000Y-75380000D03*
X124100000Y-74420000D03*
%TD*%
D15*
%TO.C,C148*%
X74180000Y-163800000D03*
X73220000Y-163800000D03*
%TD*%
D35*
%TO.C,R35*%
X76700000Y-113962500D03*
X76700000Y-108037500D03*
%TD*%
D11*
%TO.C,R56*%
X90810000Y-116000000D03*
X89790000Y-116000000D03*
%TD*%
D12*
%TO.C,C47*%
X97000000Y-104730000D03*
X97000000Y-103770000D03*
%TD*%
D10*
%TO.C,C89*%
X99300000Y-130040000D03*
X99300000Y-131000000D03*
%TD*%
%TO.C,C40*%
X116250000Y-100790000D03*
X116250000Y-101750000D03*
%TD*%
%TO.C,C106*%
X117100000Y-156140000D03*
X117100000Y-157100000D03*
%TD*%
D21*
%TO.C,R110*%
X80540000Y-71650000D03*
X81560000Y-71650000D03*
%TD*%
D15*
%TO.C,C90*%
X82580000Y-118100000D03*
X81620000Y-118100000D03*
%TD*%
D12*
%TO.C,C62*%
X71500000Y-104230000D03*
X71500000Y-103270000D03*
%TD*%
D10*
%TO.C,C51*%
X89400000Y-91320000D03*
X89400000Y-92280000D03*
%TD*%
D16*
%TO.C,R104*%
X125380000Y-132400000D03*
X125380000Y-133420000D03*
%TD*%
D34*
%TO.C,C2*%
X72400000Y-78500000D03*
X74300000Y-78500000D03*
%TD*%
D20*
%TO.C,U20*%
X95537500Y-116350000D03*
X95537500Y-117300000D03*
X95537500Y-118250000D03*
X93262500Y-118250000D03*
X93262500Y-116350000D03*
%TD*%
D21*
%TO.C,R48*%
X116900000Y-123600000D03*
X117920000Y-123600000D03*
%TD*%
D16*
%TO.C,R108*%
X128600000Y-130290000D03*
X128600000Y-131310000D03*
%TD*%
%TO.C,R12*%
X87200000Y-61890000D03*
X87200000Y-62910000D03*
%TD*%
D21*
%TO.C,R49*%
X116900000Y-127200000D03*
X117920000Y-127200000D03*
%TD*%
D16*
%TO.C,R71*%
X54800000Y-108590000D03*
X54800000Y-109610000D03*
%TD*%
D21*
%TO.C,R86*%
X89690000Y-147400000D03*
X90710000Y-147400000D03*
%TD*%
D23*
%TO.C,C63*%
X73220000Y-90300000D03*
X74180000Y-90300000D03*
%TD*%
D11*
%TO.C,R29*%
X86260000Y-97250000D03*
X85240000Y-97250000D03*
%TD*%
D35*
%TO.C,R34*%
X108800000Y-114062500D03*
X108800000Y-108137500D03*
%TD*%
D23*
%TO.C,C76*%
X103120000Y-118500000D03*
X104080000Y-118500000D03*
%TD*%
%TO.C,C25*%
X108220000Y-50900000D03*
X109180000Y-50900000D03*
%TD*%
D10*
%TO.C,C91*%
X81300000Y-135920000D03*
X81300000Y-136880000D03*
%TD*%
D19*
%TO.C,R51*%
X54800000Y-111910000D03*
X54800000Y-110890000D03*
%TD*%
D10*
%TO.C,C85*%
X99300000Y-128040000D03*
X99300000Y-129000000D03*
%TD*%
D11*
%TO.C,R58*%
X68770000Y-119060000D03*
X67750000Y-119060000D03*
%TD*%
D19*
%TO.C,R6*%
X83800000Y-75560000D03*
X83800000Y-74540000D03*
%TD*%
D16*
%TO.C,R4*%
X81150000Y-76440000D03*
X81150000Y-77460000D03*
%TD*%
D15*
%TO.C,C31*%
X58280000Y-87100000D03*
X57320000Y-87100000D03*
%TD*%
D23*
%TO.C,C115*%
X103220000Y-146800000D03*
X104180000Y-146800000D03*
%TD*%
D38*
%TO.C,L2*%
X111950000Y-74415000D03*
X111950000Y-77485000D03*
%TD*%
D21*
%TO.C,R24*%
X90790000Y-92300000D03*
X91810000Y-92300000D03*
%TD*%
D11*
%TO.C,R89*%
X91010000Y-145000000D03*
X89990000Y-145000000D03*
%TD*%
D10*
%TO.C,C5*%
X119400000Y-77070000D03*
X119400000Y-78030000D03*
%TD*%
D21*
%TO.C,R43*%
X116990000Y-122300000D03*
X118010000Y-122300000D03*
%TD*%
D39*
%TO.C,C12*%
X102225000Y-75000000D03*
X103775000Y-75000000D03*
%TD*%
D11*
%TO.C,R2*%
X68210000Y-59550000D03*
X67190000Y-59550000D03*
%TD*%
D16*
%TO.C,R82*%
X118230000Y-140680000D03*
X118230000Y-141700000D03*
%TD*%
D15*
%TO.C,C129*%
X82880000Y-146600000D03*
X81920000Y-146600000D03*
%TD*%
D10*
%TO.C,C59*%
X87000000Y-102790000D03*
X87000000Y-103750000D03*
%TD*%
D19*
%TO.C,R88*%
X119480000Y-141700000D03*
X119480000Y-140680000D03*
%TD*%
D21*
%TO.C,R60*%
X86790000Y-128020000D03*
X87810000Y-128020000D03*
%TD*%
D15*
%TO.C,C119*%
X101580000Y-146800000D03*
X100620000Y-146800000D03*
%TD*%
D19*
%TO.C,R79*%
X125380000Y-145400000D03*
X125380000Y-144380000D03*
%TD*%
D11*
%TO.C,R31*%
X101010000Y-96100000D03*
X99990000Y-96100000D03*
%TD*%
D10*
%TO.C,C110*%
X115900000Y-159340000D03*
X115900000Y-160300000D03*
%TD*%
%TO.C,C69*%
X115900000Y-129300000D03*
X115900000Y-130260000D03*
%TD*%
D15*
%TO.C,C112*%
X114600000Y-159820000D03*
X113640000Y-159820000D03*
%TD*%
D12*
%TO.C,C88*%
X56030000Y-109590000D03*
X56030000Y-108630000D03*
%TD*%
D15*
%TO.C,C26*%
X126180000Y-81100000D03*
X125220000Y-81100000D03*
%TD*%
D40*
%TO.C,U4*%
X78400000Y-75900000D03*
X78400000Y-74600000D03*
X77100000Y-75900000D03*
X77100000Y-74600000D03*
D41*
X79687500Y-74500000D03*
X79687500Y-75000000D03*
X79687500Y-75500000D03*
X79687500Y-76000000D03*
D42*
X78500000Y-77187500D03*
X78000000Y-77187500D03*
X77500000Y-77187500D03*
X77000000Y-77187500D03*
D41*
X75812500Y-76000000D03*
X75812500Y-75500000D03*
X75812500Y-75000000D03*
X75812500Y-74500000D03*
D42*
X77000000Y-73312500D03*
X77500000Y-73312500D03*
X78000000Y-73312500D03*
X78500000Y-73312500D03*
%TD*%
D21*
%TO.C,R47*%
X116900000Y-126000000D03*
X117920000Y-126000000D03*
%TD*%
D17*
%TO.C,C3*%
X104600000Y-72900000D03*
X102700000Y-72900000D03*
%TD*%
D35*
%TO.C,R68*%
X109500000Y-141862500D03*
X109500000Y-135937500D03*
%TD*%
D19*
%TO.C,R59*%
X54780000Y-114120000D03*
X54780000Y-113100000D03*
%TD*%
D16*
%TO.C,R94*%
X124130000Y-132400000D03*
X124130000Y-133420000D03*
%TD*%
D11*
%TO.C,R40*%
X70010000Y-96250000D03*
X68990000Y-96250000D03*
%TD*%
D16*
%TO.C,R45*%
X60800000Y-117090000D03*
X60800000Y-118110000D03*
%TD*%
D18*
%TO.C,C98*%
X89800000Y-135700000D03*
X96200000Y-135700000D03*
%TD*%
D10*
%TO.C,C42*%
X115000000Y-101790000D03*
X115000000Y-102750000D03*
%TD*%
D12*
%TO.C,C144*%
X105700000Y-110580000D03*
X105700000Y-109620000D03*
%TD*%
D16*
%TO.C,R74*%
X62150000Y-105377500D03*
X62150000Y-106397500D03*
%TD*%
D10*
%TO.C,C93*%
X105000000Y-137620000D03*
X105000000Y-138580000D03*
%TD*%
D21*
%TO.C,R20*%
X62390000Y-83150000D03*
X63410000Y-83150000D03*
%TD*%
D15*
%TO.C,C73*%
X114580000Y-131700000D03*
X113620000Y-131700000D03*
%TD*%
D19*
%TO.C,R53*%
X58300000Y-118100000D03*
X58300000Y-117080000D03*
%TD*%
D23*
%TO.C,C16*%
X126320000Y-67800000D03*
X127280000Y-67800000D03*
%TD*%
%TO.C,C126*%
X84520000Y-146700000D03*
X85480000Y-146700000D03*
%TD*%
D12*
%TO.C,C75*%
X97500000Y-112080000D03*
X97500000Y-111120000D03*
%TD*%
D23*
%TO.C,C61*%
X122520000Y-102000000D03*
X123480000Y-102000000D03*
%TD*%
M02*
