%TF.GenerationSoftware,KiCad,Pcbnew,7.0.7*%
%TF.CreationDate,2023-10-31T21:22:21-06:00*%
%TF.ProjectId,hex-display,6865782d-6469-4737-906c-61792e6b6963,rev?*%
%TF.SameCoordinates,Original*%
%TF.FileFunction,Copper,L2,Bot*%
%TF.FilePolarity,Positive*%
%FSLAX46Y46*%
G04 Gerber Fmt 4.6, Leading zero omitted, Abs format (unit mm)*
G04 Created by KiCad (PCBNEW 7.0.7) date 2023-10-31 21:22:21*
%MOMM*%
%LPD*%
G01*
G04 APERTURE LIST*
G04 Aperture macros list*
%AMRoundRect*
0 Rectangle with rounded corners*
0 $1 Rounding radius*
0 $2 $3 $4 $5 $6 $7 $8 $9 X,Y pos of 4 corners*
0 Add a 4 corners polygon primitive as box body*
4,1,4,$2,$3,$4,$5,$6,$7,$8,$9,$2,$3,0*
0 Add four circle primitives for the rounded corners*
1,1,$1+$1,$2,$3*
1,1,$1+$1,$4,$5*
1,1,$1+$1,$6,$7*
1,1,$1+$1,$8,$9*
0 Add four rect primitives between the rounded corners*
20,1,$1+$1,$2,$3,$4,$5,0*
20,1,$1+$1,$4,$5,$6,$7,0*
20,1,$1+$1,$6,$7,$8,$9,0*
20,1,$1+$1,$8,$9,$2,$3,0*%
G04 Aperture macros list end*
%TA.AperFunction,ComponentPad*%
%ADD10C,4.000000*%
%TD*%
%TA.AperFunction,SMDPad,CuDef*%
%ADD11RoundRect,0.150000X0.700000X-0.150000X0.700000X0.150000X-0.700000X0.150000X-0.700000X-0.150000X0*%
%TD*%
%TA.AperFunction,SMDPad,CuDef*%
%ADD12RoundRect,0.250000X1.150000X-0.250000X1.150000X0.250000X-1.150000X0.250000X-1.150000X-0.250000X0*%
%TD*%
%TA.AperFunction,ViaPad*%
%ADD13C,0.800000*%
%TD*%
%TA.AperFunction,Conductor*%
%ADD14C,0.250000*%
%TD*%
G04 APERTURE END LIST*
D10*
%TO.P,H4,*%
%TO.N,*%
X164000000Y-101000000D03*
%TD*%
%TO.P,H2,*%
%TO.N,*%
X164000000Y-78000000D03*
%TD*%
%TO.P,H1,*%
%TO.N,*%
X123000000Y-78000000D03*
%TD*%
%TO.P,H3,*%
%TO.N,*%
X123000000Y-101000000D03*
%TD*%
D11*
%TO.P,J1,1,Pin_1*%
%TO.N,/GND*%
X131100000Y-96950000D03*
%TO.P,J1,2,Pin_2*%
%TO.N,/TFT_RES*%
X131100000Y-95700000D03*
%TO.P,J1,3,Pin_3*%
%TO.N,/TFT_SDA*%
X131100000Y-94450000D03*
%TO.P,J1,4,Pin_4*%
%TO.N,/TFT_SCL*%
X131100000Y-93200000D03*
%TO.P,J1,5,Pin_5*%
%TO.N,/TFT_CS*%
X131100000Y-91950000D03*
%TO.P,J1,6,Pin_6*%
%TO.N,/TFT_DC*%
X131100000Y-90700000D03*
%TO.P,J1,7,Pin_7*%
%TO.N,/GND*%
X131100000Y-89450000D03*
%TO.P,J1,8,Pin_8*%
X131100000Y-88200000D03*
%TO.P,J1,9,Pin_9*%
%TO.N,/3V3*%
X131100000Y-86950000D03*
%TO.P,J1,10,Pin_10*%
%TO.N,/LEDA*%
X131100000Y-85700000D03*
%TO.P,J1,11,Pin_11*%
%TO.N,/LEDK*%
X131100000Y-84450000D03*
%TO.P,J1,12,Pin_12*%
%TO.N,/GND*%
X131100000Y-83200000D03*
D12*
%TO.P,J1,MP*%
%TO.N,N/C*%
X134450000Y-98800000D03*
X134450000Y-81350000D03*
%TD*%
D13*
%TO.N,/TFT_RES*%
X138000000Y-95700000D03*
%TO.N,/TFT_SDA*%
X138000000Y-94450000D03*
%TO.N,/TFT_SCL*%
X138000000Y-93200000D03*
%TO.N,/TFT_CS*%
X138000000Y-91950000D03*
%TO.N,/TFT_DC*%
X138000000Y-90700000D03*
%TO.N,/3V3*%
X138000000Y-86950000D03*
%TO.N,/LEDA*%
X138000000Y-85700000D03*
%TO.N,/LEDK*%
X138000000Y-84450000D03*
%TO.N,/GND*%
X150500000Y-93900000D03*
X150500000Y-89000000D03*
X150500000Y-86200000D03*
%TD*%
D14*
%TO.N,/TFT_RES*%
X131100000Y-95700000D02*
X138000000Y-95700000D01*
%TO.N,/TFT_SDA*%
X131100000Y-94450000D02*
X138000000Y-94450000D01*
%TO.N,/TFT_SCL*%
X131100000Y-93200000D02*
X138000000Y-93200000D01*
%TO.N,/TFT_CS*%
X131100000Y-91950000D02*
X138000000Y-91950000D01*
%TO.N,/TFT_DC*%
X131100000Y-90700000D02*
X138000000Y-90700000D01*
%TO.N,/3V3*%
X131100000Y-86950000D02*
X138000000Y-86950000D01*
%TO.N,/LEDA*%
X131100000Y-85700000D02*
X138000000Y-85700000D01*
%TO.N,/LEDK*%
X131100000Y-84450000D02*
X138000000Y-84450000D01*
%TD*%
%TA.AperFunction,Conductor*%
%TO.N,/GND*%
G36*
X164015677Y-75219685D02*
G01*
X164036319Y-75236319D01*
X164087819Y-75287819D01*
X164121304Y-75349142D01*
X164116320Y-75418834D01*
X164074448Y-75474767D01*
X164008984Y-75499184D01*
X164000138Y-75499500D01*
X163842670Y-75499500D01*
X163530536Y-75538932D01*
X163530523Y-75538934D01*
X163225774Y-75617180D01*
X163225771Y-75617181D01*
X162933242Y-75733001D01*
X162933241Y-75733002D01*
X162657516Y-75884584D01*
X162657504Y-75884591D01*
X162402978Y-76069515D01*
X162402968Y-76069523D01*
X162173608Y-76284907D01*
X162173606Y-76284909D01*
X161973054Y-76527334D01*
X161973051Y-76527338D01*
X161804464Y-76792990D01*
X161804461Y-76792996D01*
X161670499Y-77077678D01*
X161670497Y-77077683D01*
X161573270Y-77376916D01*
X161514311Y-77685988D01*
X161514310Y-77685995D01*
X161494556Y-77999994D01*
X161494556Y-78000005D01*
X161514310Y-78314004D01*
X161514311Y-78314011D01*
X161573270Y-78623083D01*
X161670497Y-78922316D01*
X161670499Y-78922321D01*
X161804461Y-79207003D01*
X161804464Y-79207009D01*
X161973051Y-79472661D01*
X161973054Y-79472665D01*
X162173606Y-79715090D01*
X162173608Y-79715092D01*
X162402968Y-79930476D01*
X162402978Y-79930484D01*
X162657504Y-80115408D01*
X162657509Y-80115410D01*
X162657516Y-80115416D01*
X162933234Y-80266994D01*
X162933239Y-80266996D01*
X162933241Y-80266997D01*
X162933242Y-80266998D01*
X163225771Y-80382818D01*
X163225774Y-80382819D01*
X163530523Y-80461065D01*
X163530527Y-80461066D01*
X163596010Y-80469338D01*
X163842670Y-80500499D01*
X163842679Y-80500499D01*
X163842682Y-80500500D01*
X163842684Y-80500500D01*
X164157316Y-80500500D01*
X164157318Y-80500500D01*
X164157321Y-80500499D01*
X164157329Y-80500499D01*
X164343593Y-80476968D01*
X164469473Y-80461066D01*
X164774225Y-80382819D01*
X164831857Y-80360001D01*
X165066757Y-80266998D01*
X165066758Y-80266997D01*
X165066756Y-80266997D01*
X165066766Y-80266994D01*
X165342484Y-80115416D01*
X165597030Y-79930478D01*
X165826390Y-79715094D01*
X166026947Y-79472663D01*
X166195537Y-79207007D01*
X166329503Y-78922315D01*
X166426731Y-78623079D01*
X166485688Y-78314015D01*
X166505444Y-78000000D01*
X166505444Y-77999994D01*
X166505635Y-77996966D01*
X166529490Y-77931295D01*
X166585062Y-77888946D01*
X166654709Y-77883364D01*
X166716317Y-77916323D01*
X166717071Y-77917071D01*
X166763681Y-77963681D01*
X166797166Y-78025004D01*
X166800000Y-78051362D01*
X166800000Y-100948637D01*
X166780315Y-101015676D01*
X166763681Y-101036318D01*
X166717071Y-101082928D01*
X166655748Y-101116413D01*
X166586056Y-101111429D01*
X166530123Y-101069557D01*
X166505706Y-101004093D01*
X166505635Y-101003033D01*
X166485689Y-100685995D01*
X166485688Y-100685988D01*
X166485688Y-100685985D01*
X166426731Y-100376921D01*
X166329503Y-100077685D01*
X166195537Y-99792993D01*
X166026947Y-99527337D01*
X166026945Y-99527334D01*
X165826393Y-99284909D01*
X165826391Y-99284907D01*
X165597031Y-99069523D01*
X165597021Y-99069515D01*
X165342495Y-98884591D01*
X165342488Y-98884586D01*
X165342484Y-98884584D01*
X165066766Y-98733006D01*
X165066763Y-98733004D01*
X165066758Y-98733002D01*
X165066757Y-98733001D01*
X164774228Y-98617181D01*
X164774225Y-98617180D01*
X164469476Y-98538934D01*
X164469463Y-98538932D01*
X164157329Y-98499500D01*
X164157318Y-98499500D01*
X163842682Y-98499500D01*
X163842670Y-98499500D01*
X163530536Y-98538932D01*
X163530523Y-98538934D01*
X163225774Y-98617180D01*
X163225771Y-98617181D01*
X162933242Y-98733001D01*
X162933241Y-98733002D01*
X162657516Y-98884584D01*
X162657504Y-98884591D01*
X162402978Y-99069515D01*
X162402968Y-99069523D01*
X162173608Y-99284907D01*
X162173606Y-99284909D01*
X161973054Y-99527334D01*
X161973051Y-99527338D01*
X161804464Y-99792990D01*
X161804461Y-99792996D01*
X161670499Y-100077678D01*
X161670497Y-100077683D01*
X161573270Y-100376916D01*
X161514311Y-100685988D01*
X161514310Y-100685995D01*
X161494556Y-100999994D01*
X161494556Y-101000005D01*
X161514310Y-101314004D01*
X161514311Y-101314011D01*
X161573270Y-101623083D01*
X161670497Y-101922316D01*
X161670499Y-101922321D01*
X161804461Y-102207003D01*
X161804464Y-102207009D01*
X161973051Y-102472661D01*
X161973054Y-102472665D01*
X162173606Y-102715090D01*
X162173608Y-102715092D01*
X162402968Y-102930476D01*
X162402978Y-102930484D01*
X162657504Y-103115408D01*
X162657509Y-103115410D01*
X162657516Y-103115416D01*
X162933234Y-103266994D01*
X162933239Y-103266996D01*
X162933241Y-103266997D01*
X162933242Y-103266998D01*
X163225771Y-103382818D01*
X163225774Y-103382819D01*
X163473208Y-103446349D01*
X163530527Y-103461066D01*
X163596010Y-103469338D01*
X163842670Y-103500499D01*
X163842679Y-103500499D01*
X163842682Y-103500500D01*
X163842684Y-103500500D01*
X164000138Y-103500500D01*
X164067177Y-103520185D01*
X164112932Y-103572989D01*
X164122876Y-103642147D01*
X164093851Y-103705703D01*
X164087819Y-103712181D01*
X164036319Y-103763681D01*
X163974996Y-103797166D01*
X163948638Y-103800000D01*
X123051362Y-103800000D01*
X122984323Y-103780315D01*
X122963681Y-103763681D01*
X122912181Y-103712181D01*
X122878696Y-103650858D01*
X122883680Y-103581166D01*
X122925552Y-103525233D01*
X122991016Y-103500816D01*
X122999862Y-103500500D01*
X123157316Y-103500500D01*
X123157318Y-103500500D01*
X123157321Y-103500499D01*
X123157329Y-103500499D01*
X123343593Y-103476968D01*
X123469473Y-103461066D01*
X123774225Y-103382819D01*
X123774228Y-103382818D01*
X124066757Y-103266998D01*
X124066758Y-103266997D01*
X124066756Y-103266997D01*
X124066766Y-103266994D01*
X124342484Y-103115416D01*
X124597030Y-102930478D01*
X124826390Y-102715094D01*
X125026947Y-102472663D01*
X125195537Y-102207007D01*
X125329503Y-101922315D01*
X125426731Y-101623079D01*
X125485688Y-101314015D01*
X125498434Y-101111429D01*
X125505444Y-101000005D01*
X125505444Y-100999994D01*
X125485689Y-100685995D01*
X125485688Y-100685988D01*
X125485688Y-100685985D01*
X125426731Y-100376921D01*
X125329503Y-100077685D01*
X125195537Y-99792993D01*
X125026947Y-99527337D01*
X125026945Y-99527334D01*
X124826393Y-99284909D01*
X124826391Y-99284907D01*
X124629487Y-99100001D01*
X132549500Y-99100001D01*
X132549501Y-99100019D01*
X132560000Y-99202796D01*
X132560001Y-99202799D01*
X132587210Y-99284909D01*
X132615186Y-99369334D01*
X132707288Y-99518656D01*
X132831344Y-99642712D01*
X132980666Y-99734814D01*
X133147203Y-99789999D01*
X133249991Y-99800500D01*
X135650008Y-99800499D01*
X135752797Y-99789999D01*
X135919334Y-99734814D01*
X136068656Y-99642712D01*
X136192712Y-99518656D01*
X136284814Y-99369334D01*
X136339999Y-99202797D01*
X136350500Y-99100009D01*
X136350499Y-98499992D01*
X136339999Y-98397203D01*
X136284814Y-98230666D01*
X136192712Y-98081344D01*
X136068656Y-97957288D01*
X135919334Y-97865186D01*
X135752797Y-97810001D01*
X135752795Y-97810000D01*
X135650010Y-97799500D01*
X133249998Y-97799500D01*
X133249981Y-97799501D01*
X133147203Y-97810000D01*
X133147200Y-97810001D01*
X132980668Y-97865185D01*
X132980663Y-97865187D01*
X132831342Y-97957289D01*
X132707289Y-98081342D01*
X132615187Y-98230663D01*
X132615185Y-98230666D01*
X132615186Y-98230666D01*
X132560001Y-98397203D01*
X132560001Y-98397204D01*
X132560000Y-98397204D01*
X132549500Y-98499983D01*
X132549500Y-99100001D01*
X124629487Y-99100001D01*
X124597031Y-99069523D01*
X124597021Y-99069515D01*
X124342495Y-98884591D01*
X124342488Y-98884586D01*
X124342484Y-98884584D01*
X124066766Y-98733006D01*
X124066763Y-98733004D01*
X124066758Y-98733002D01*
X124066757Y-98733001D01*
X123774228Y-98617181D01*
X123774225Y-98617180D01*
X123469476Y-98538934D01*
X123469463Y-98538932D01*
X123157329Y-98499500D01*
X123157318Y-98499500D01*
X122842682Y-98499500D01*
X122842670Y-98499500D01*
X122530536Y-98538932D01*
X122530523Y-98538934D01*
X122225774Y-98617180D01*
X122225771Y-98617181D01*
X121933242Y-98733001D01*
X121933241Y-98733002D01*
X121657516Y-98884584D01*
X121657504Y-98884591D01*
X121402978Y-99069515D01*
X121402968Y-99069523D01*
X121173608Y-99284907D01*
X121173606Y-99284909D01*
X120973054Y-99527334D01*
X120973051Y-99527338D01*
X120804464Y-99792990D01*
X120804461Y-99792996D01*
X120670499Y-100077678D01*
X120670497Y-100077683D01*
X120573270Y-100376916D01*
X120514311Y-100685988D01*
X120514310Y-100685995D01*
X120494364Y-101003033D01*
X120470509Y-101068704D01*
X120414936Y-101111053D01*
X120345290Y-101116635D01*
X120283682Y-101083676D01*
X120282927Y-101082927D01*
X120236318Y-101036317D01*
X120202834Y-100974994D01*
X120200000Y-100948637D01*
X120200000Y-97200001D01*
X129752704Y-97200001D01*
X129752899Y-97202486D01*
X129798718Y-97360198D01*
X129882314Y-97501552D01*
X129882321Y-97501561D01*
X129998438Y-97617678D01*
X129998447Y-97617685D01*
X130139803Y-97701282D01*
X130139806Y-97701283D01*
X130297504Y-97747099D01*
X130297510Y-97747100D01*
X130334356Y-97750000D01*
X130850000Y-97750000D01*
X130850000Y-97200000D01*
X131350000Y-97200000D01*
X131350000Y-97750000D01*
X131865644Y-97750000D01*
X131902489Y-97747100D01*
X131902495Y-97747099D01*
X132060193Y-97701283D01*
X132060196Y-97701282D01*
X132201552Y-97617685D01*
X132201561Y-97617678D01*
X132317678Y-97501561D01*
X132317685Y-97501552D01*
X132401281Y-97360198D01*
X132447100Y-97202486D01*
X132447295Y-97200001D01*
X132447295Y-97200000D01*
X131350000Y-97200000D01*
X130850000Y-97200000D01*
X129752705Y-97200000D01*
X129752704Y-97200001D01*
X120200000Y-97200001D01*
X120200000Y-95915696D01*
X129749500Y-95915696D01*
X129752401Y-95952567D01*
X129752402Y-95952573D01*
X129798254Y-96110393D01*
X129798255Y-96110396D01*
X129885890Y-96258580D01*
X129884045Y-96259670D01*
X129905551Y-96314463D01*
X129891862Y-96382979D01*
X129886252Y-96391707D01*
X129886288Y-96391729D01*
X129798718Y-96539801D01*
X129752899Y-96697513D01*
X129752704Y-96699998D01*
X129752705Y-96700000D01*
X132447295Y-96700000D01*
X132447295Y-96699998D01*
X132447100Y-96697513D01*
X132401281Y-96539801D01*
X132385207Y-96512621D01*
X132368024Y-96444897D01*
X132390184Y-96378635D01*
X132444650Y-96334871D01*
X132491939Y-96325500D01*
X137296252Y-96325500D01*
X137363291Y-96345185D01*
X137388400Y-96366526D01*
X137394126Y-96372885D01*
X137394130Y-96372889D01*
X137547265Y-96484148D01*
X137547270Y-96484151D01*
X137720192Y-96561142D01*
X137720197Y-96561144D01*
X137905354Y-96600500D01*
X137905355Y-96600500D01*
X138094644Y-96600500D01*
X138094646Y-96600500D01*
X138279803Y-96561144D01*
X138452730Y-96484151D01*
X138605871Y-96372888D01*
X138732533Y-96232216D01*
X138827179Y-96068284D01*
X138885674Y-95888256D01*
X138905460Y-95700000D01*
X138885674Y-95511744D01*
X138827179Y-95331716D01*
X138732533Y-95167784D01*
X138723696Y-95157969D01*
X138693468Y-95094976D01*
X138702095Y-95025641D01*
X138723696Y-94992029D01*
X138732533Y-94982216D01*
X138827179Y-94818284D01*
X138885674Y-94638256D01*
X138905460Y-94450000D01*
X138885674Y-94261744D01*
X138827179Y-94081716D01*
X138732533Y-93917784D01*
X138723698Y-93907972D01*
X138693469Y-93844981D01*
X138702093Y-93775646D01*
X138723699Y-93742027D01*
X138732533Y-93732216D01*
X138827179Y-93568284D01*
X138885674Y-93388256D01*
X138905460Y-93200000D01*
X138885674Y-93011744D01*
X138827179Y-92831716D01*
X138732533Y-92667784D01*
X138723696Y-92657969D01*
X138693468Y-92594976D01*
X138702095Y-92525641D01*
X138723696Y-92492029D01*
X138732533Y-92482216D01*
X138827179Y-92318284D01*
X138885674Y-92138256D01*
X138905460Y-91950000D01*
X138885674Y-91761744D01*
X138827179Y-91581716D01*
X138732533Y-91417784D01*
X138723698Y-91407972D01*
X138693469Y-91344981D01*
X138702093Y-91275646D01*
X138723699Y-91242027D01*
X138732533Y-91232216D01*
X138827179Y-91068284D01*
X138885674Y-90888256D01*
X138905460Y-90700000D01*
X138885674Y-90511744D01*
X138827179Y-90331716D01*
X138732533Y-90167784D01*
X138605871Y-90027112D01*
X138605870Y-90027111D01*
X138452734Y-89915851D01*
X138452729Y-89915848D01*
X138279807Y-89838857D01*
X138279802Y-89838855D01*
X138134001Y-89807865D01*
X138094646Y-89799500D01*
X137905354Y-89799500D01*
X137872897Y-89806398D01*
X137720197Y-89838855D01*
X137720192Y-89838857D01*
X137547270Y-89915848D01*
X137547265Y-89915851D01*
X137394130Y-90027110D01*
X137394126Y-90027114D01*
X137388400Y-90033474D01*
X137328913Y-90070121D01*
X137296252Y-90074500D01*
X132491939Y-90074500D01*
X132424900Y-90054815D01*
X132379145Y-90002011D01*
X132369201Y-89932853D01*
X132385207Y-89887379D01*
X132401281Y-89860198D01*
X132447100Y-89702486D01*
X132447295Y-89700001D01*
X132447295Y-89700000D01*
X129752705Y-89700000D01*
X129752704Y-89700001D01*
X129752899Y-89702486D01*
X129798718Y-89860198D01*
X129886288Y-90008271D01*
X129884285Y-90009455D01*
X129905551Y-90063645D01*
X129891860Y-90132160D01*
X129885671Y-90141788D01*
X129798255Y-90289603D01*
X129798254Y-90289606D01*
X129752402Y-90447426D01*
X129752401Y-90447432D01*
X129749500Y-90484304D01*
X129749500Y-90915696D01*
X129752401Y-90952567D01*
X129752402Y-90952573D01*
X129798254Y-91110393D01*
X129798255Y-91110396D01*
X129885890Y-91258580D01*
X129883919Y-91259745D01*
X129905232Y-91314058D01*
X129891540Y-91382573D01*
X129885864Y-91391404D01*
X129885890Y-91391420D01*
X129798255Y-91539603D01*
X129798254Y-91539606D01*
X129752402Y-91697426D01*
X129752401Y-91697432D01*
X129749500Y-91734304D01*
X129749500Y-92165696D01*
X129752401Y-92202567D01*
X129752402Y-92202573D01*
X129798254Y-92360393D01*
X129798255Y-92360396D01*
X129885890Y-92508580D01*
X129883919Y-92509745D01*
X129905232Y-92564058D01*
X129891540Y-92632573D01*
X129885864Y-92641404D01*
X129885890Y-92641420D01*
X129798255Y-92789603D01*
X129798254Y-92789606D01*
X129752402Y-92947426D01*
X129752401Y-92947432D01*
X129749500Y-92984304D01*
X129749500Y-93415696D01*
X129752401Y-93452567D01*
X129752402Y-93452573D01*
X129798254Y-93610393D01*
X129798255Y-93610396D01*
X129885890Y-93758580D01*
X129883919Y-93759745D01*
X129905232Y-93814058D01*
X129891540Y-93882573D01*
X129885864Y-93891404D01*
X129885890Y-93891420D01*
X129798255Y-94039603D01*
X129798254Y-94039606D01*
X129752402Y-94197426D01*
X129752401Y-94197432D01*
X129749500Y-94234304D01*
X129749500Y-94665696D01*
X129752401Y-94702567D01*
X129752402Y-94702573D01*
X129798254Y-94860393D01*
X129798255Y-94860396D01*
X129885890Y-95008580D01*
X129883919Y-95009745D01*
X129905232Y-95064058D01*
X129891540Y-95132573D01*
X129885864Y-95141404D01*
X129885890Y-95141420D01*
X129798255Y-95289603D01*
X129798254Y-95289606D01*
X129752402Y-95447426D01*
X129752401Y-95447432D01*
X129749500Y-95484304D01*
X129749500Y-95915696D01*
X120200000Y-95915696D01*
X120200000Y-89199998D01*
X129752704Y-89199998D01*
X129752705Y-89200000D01*
X130850000Y-89200000D01*
X130850000Y-88450000D01*
X131350000Y-88450000D01*
X131350000Y-89200000D01*
X132447295Y-89200000D01*
X132447295Y-89199998D01*
X132447100Y-89197513D01*
X132401281Y-89039801D01*
X132313712Y-88891729D01*
X132315588Y-88890619D01*
X132294130Y-88835954D01*
X132307815Y-88767438D01*
X132313760Y-88758189D01*
X132401281Y-88610198D01*
X132447100Y-88452486D01*
X132447295Y-88450001D01*
X132447295Y-88450000D01*
X131350000Y-88450000D01*
X130850000Y-88450000D01*
X129752705Y-88450000D01*
X129752704Y-88450001D01*
X129752899Y-88452486D01*
X129798718Y-88610198D01*
X129886288Y-88758271D01*
X129884412Y-88759380D01*
X129905870Y-88814050D01*
X129892182Y-88882566D01*
X129886228Y-88891829D01*
X129798718Y-89039801D01*
X129752899Y-89197513D01*
X129752704Y-89199998D01*
X120200000Y-89199998D01*
X120200000Y-87165696D01*
X129749500Y-87165696D01*
X129752401Y-87202567D01*
X129752402Y-87202573D01*
X129798254Y-87360393D01*
X129798255Y-87360396D01*
X129885890Y-87508580D01*
X129884045Y-87509670D01*
X129905551Y-87564463D01*
X129891862Y-87632979D01*
X129886252Y-87641707D01*
X129886288Y-87641729D01*
X129798718Y-87789801D01*
X129752899Y-87947513D01*
X129752704Y-87949998D01*
X129752705Y-87950000D01*
X132447295Y-87950000D01*
X132447295Y-87949998D01*
X132447100Y-87947513D01*
X132401281Y-87789801D01*
X132385207Y-87762621D01*
X132368024Y-87694897D01*
X132390184Y-87628635D01*
X132444650Y-87584871D01*
X132491939Y-87575500D01*
X137296252Y-87575500D01*
X137363291Y-87595185D01*
X137388400Y-87616526D01*
X137394126Y-87622885D01*
X137394130Y-87622889D01*
X137547265Y-87734148D01*
X137547270Y-87734151D01*
X137720192Y-87811142D01*
X137720197Y-87811144D01*
X137905354Y-87850500D01*
X137905355Y-87850500D01*
X138094644Y-87850500D01*
X138094646Y-87850500D01*
X138279803Y-87811144D01*
X138452730Y-87734151D01*
X138605871Y-87622888D01*
X138732533Y-87482216D01*
X138827179Y-87318284D01*
X138885674Y-87138256D01*
X138905460Y-86950000D01*
X138885674Y-86761744D01*
X138827179Y-86581716D01*
X138732533Y-86417784D01*
X138723698Y-86407972D01*
X138693469Y-86344981D01*
X138702093Y-86275646D01*
X138723699Y-86242027D01*
X138732533Y-86232216D01*
X138827179Y-86068284D01*
X138885674Y-85888256D01*
X138905460Y-85700000D01*
X138885674Y-85511744D01*
X138827179Y-85331716D01*
X138732533Y-85167784D01*
X138723696Y-85157969D01*
X138693468Y-85094976D01*
X138702095Y-85025641D01*
X138723696Y-84992029D01*
X138732533Y-84982216D01*
X138827179Y-84818284D01*
X138885674Y-84638256D01*
X138905460Y-84450000D01*
X138885674Y-84261744D01*
X138827179Y-84081716D01*
X138732533Y-83917784D01*
X138605871Y-83777112D01*
X138605870Y-83777111D01*
X138452734Y-83665851D01*
X138452729Y-83665848D01*
X138279807Y-83588857D01*
X138279802Y-83588855D01*
X138134001Y-83557865D01*
X138094646Y-83549500D01*
X137905354Y-83549500D01*
X137872897Y-83556398D01*
X137720197Y-83588855D01*
X137720192Y-83588857D01*
X137547270Y-83665848D01*
X137547265Y-83665851D01*
X137394130Y-83777110D01*
X137394126Y-83777114D01*
X137388400Y-83783474D01*
X137328913Y-83820121D01*
X137296252Y-83824500D01*
X132491939Y-83824500D01*
X132424900Y-83804815D01*
X132379145Y-83752011D01*
X132369201Y-83682853D01*
X132385207Y-83637379D01*
X132401281Y-83610198D01*
X132447100Y-83452486D01*
X132447295Y-83450001D01*
X132447295Y-83450000D01*
X129752705Y-83450000D01*
X129752704Y-83450001D01*
X129752899Y-83452486D01*
X129798718Y-83610198D01*
X129886288Y-83758271D01*
X129884285Y-83759455D01*
X129905551Y-83813645D01*
X129891860Y-83882160D01*
X129885671Y-83891788D01*
X129798255Y-84039603D01*
X129798254Y-84039606D01*
X129752402Y-84197426D01*
X129752401Y-84197432D01*
X129749500Y-84234304D01*
X129749500Y-84665696D01*
X129752401Y-84702567D01*
X129752402Y-84702573D01*
X129798254Y-84860393D01*
X129798255Y-84860396D01*
X129885890Y-85008580D01*
X129883919Y-85009745D01*
X129905232Y-85064058D01*
X129891540Y-85132573D01*
X129885864Y-85141404D01*
X129885890Y-85141420D01*
X129798255Y-85289603D01*
X129798254Y-85289606D01*
X129752402Y-85447426D01*
X129752401Y-85447432D01*
X129749500Y-85484304D01*
X129749500Y-85915696D01*
X129752401Y-85952567D01*
X129752402Y-85952573D01*
X129798254Y-86110393D01*
X129798255Y-86110396D01*
X129885890Y-86258580D01*
X129883919Y-86259745D01*
X129905232Y-86314058D01*
X129891540Y-86382573D01*
X129885864Y-86391404D01*
X129885890Y-86391420D01*
X129798255Y-86539603D01*
X129798254Y-86539606D01*
X129752402Y-86697426D01*
X129752401Y-86697432D01*
X129749500Y-86734304D01*
X129749500Y-87165696D01*
X120200000Y-87165696D01*
X120200000Y-82949998D01*
X129752704Y-82949998D01*
X129752705Y-82950000D01*
X130850000Y-82950000D01*
X130850000Y-82400000D01*
X131350000Y-82400000D01*
X131350000Y-82950000D01*
X132447295Y-82950000D01*
X132447295Y-82949998D01*
X132447100Y-82947513D01*
X132401281Y-82789801D01*
X132317685Y-82648447D01*
X132317678Y-82648438D01*
X132201561Y-82532321D01*
X132201552Y-82532314D01*
X132060196Y-82448717D01*
X132060193Y-82448716D01*
X131902495Y-82402900D01*
X131902489Y-82402899D01*
X131865644Y-82400000D01*
X131350000Y-82400000D01*
X130850000Y-82400000D01*
X130334356Y-82400000D01*
X130297510Y-82402899D01*
X130297504Y-82402900D01*
X130139806Y-82448716D01*
X130139803Y-82448717D01*
X129998447Y-82532314D01*
X129998438Y-82532321D01*
X129882321Y-82648438D01*
X129882314Y-82648447D01*
X129798718Y-82789801D01*
X129752899Y-82947513D01*
X129752704Y-82949998D01*
X120200000Y-82949998D01*
X120200000Y-81650001D01*
X132549500Y-81650001D01*
X132549501Y-81650019D01*
X132560000Y-81752796D01*
X132560001Y-81752799D01*
X132615185Y-81919331D01*
X132615186Y-81919334D01*
X132707288Y-82068656D01*
X132831344Y-82192712D01*
X132980666Y-82284814D01*
X133147203Y-82339999D01*
X133249991Y-82350500D01*
X135650008Y-82350499D01*
X135752797Y-82339999D01*
X135919334Y-82284814D01*
X136068656Y-82192712D01*
X136192712Y-82068656D01*
X136284814Y-81919334D01*
X136339999Y-81752797D01*
X136350500Y-81650009D01*
X136350499Y-81049992D01*
X136339999Y-80947203D01*
X136284814Y-80780666D01*
X136192712Y-80631344D01*
X136068656Y-80507288D01*
X135919334Y-80415186D01*
X135752797Y-80360001D01*
X135752795Y-80360000D01*
X135650010Y-80349500D01*
X133249998Y-80349500D01*
X133249981Y-80349501D01*
X133147203Y-80360000D01*
X133147200Y-80360001D01*
X132980668Y-80415185D01*
X132980663Y-80415187D01*
X132831342Y-80507289D01*
X132707289Y-80631342D01*
X132615187Y-80780663D01*
X132615185Y-80780666D01*
X132615186Y-80780666D01*
X132560001Y-80947203D01*
X132560001Y-80947204D01*
X132560000Y-80947204D01*
X132549500Y-81049983D01*
X132549500Y-81650001D01*
X120200000Y-81650001D01*
X120200000Y-78051361D01*
X120219685Y-77984322D01*
X120236313Y-77963686D01*
X120282931Y-77917068D01*
X120344250Y-77883585D01*
X120413941Y-77888569D01*
X120469875Y-77930440D01*
X120494293Y-77995904D01*
X120494364Y-77996965D01*
X120514310Y-78314004D01*
X120514311Y-78314011D01*
X120573270Y-78623083D01*
X120670497Y-78922316D01*
X120670499Y-78922321D01*
X120804461Y-79207003D01*
X120804464Y-79207009D01*
X120973051Y-79472661D01*
X120973054Y-79472665D01*
X121173606Y-79715090D01*
X121173608Y-79715092D01*
X121402968Y-79930476D01*
X121402978Y-79930484D01*
X121657504Y-80115408D01*
X121657509Y-80115410D01*
X121657516Y-80115416D01*
X121933234Y-80266994D01*
X121933239Y-80266996D01*
X121933241Y-80266997D01*
X121933242Y-80266998D01*
X122225771Y-80382818D01*
X122225774Y-80382819D01*
X122530523Y-80461065D01*
X122530527Y-80461066D01*
X122596010Y-80469338D01*
X122842670Y-80500499D01*
X122842679Y-80500499D01*
X122842682Y-80500500D01*
X122842684Y-80500500D01*
X123157316Y-80500500D01*
X123157318Y-80500500D01*
X123157321Y-80500499D01*
X123157329Y-80500499D01*
X123343593Y-80476968D01*
X123469473Y-80461066D01*
X123774225Y-80382819D01*
X123831857Y-80360001D01*
X124066757Y-80266998D01*
X124066758Y-80266997D01*
X124066756Y-80266997D01*
X124066766Y-80266994D01*
X124342484Y-80115416D01*
X124597030Y-79930478D01*
X124826390Y-79715094D01*
X125026947Y-79472663D01*
X125195537Y-79207007D01*
X125329503Y-78922315D01*
X125426731Y-78623079D01*
X125485688Y-78314015D01*
X125505444Y-78000000D01*
X125505186Y-77995904D01*
X125485689Y-77685995D01*
X125485688Y-77685988D01*
X125485688Y-77685985D01*
X125426731Y-77376921D01*
X125329503Y-77077685D01*
X125195537Y-76792993D01*
X125026947Y-76527337D01*
X124834936Y-76295236D01*
X124826393Y-76284909D01*
X124826391Y-76284907D01*
X124597031Y-76069523D01*
X124597021Y-76069515D01*
X124342495Y-75884591D01*
X124342488Y-75884586D01*
X124342484Y-75884584D01*
X124066766Y-75733006D01*
X124066763Y-75733004D01*
X124066758Y-75733002D01*
X124066757Y-75733001D01*
X123774228Y-75617181D01*
X123774225Y-75617180D01*
X123469476Y-75538934D01*
X123469463Y-75538932D01*
X123157329Y-75499500D01*
X123157318Y-75499500D01*
X122999862Y-75499500D01*
X122932823Y-75479815D01*
X122887068Y-75427011D01*
X122877124Y-75357853D01*
X122906149Y-75294297D01*
X122912181Y-75287819D01*
X122963681Y-75236319D01*
X123025004Y-75202834D01*
X123051362Y-75200000D01*
X163948638Y-75200000D01*
X164015677Y-75219685D01*
G37*
%TD.AperFunction*%
%TD*%
M02*
